<?xml version="1.0" encoding="utf-8" standalone="no"?>
<!DOCTYPE svg PUBLIC "-//W3C//DTD SVG 1.1//EN"
  "http://www.w3.org/Graphics/SVG/1.1/DTD/svg11.dtd">
<svg xmlns:xlink="http://www.w3.org/1999/xlink" width="864pt" height="216pt" viewBox="0 0 864 216" xmlns="http://www.w3.org/2000/svg" version="1.1">
 <metadata>
  <rdf:RDF xmlns:dc="http://purl.org/dc/elements/1.1/" xmlns:cc="http://creativecommons.org/ns#" xmlns:rdf="http://www.w3.org/1999/02/22-rdf-syntax-ns#">
   <cc:Work>
    <dc:type rdf:resource="http://purl.org/dc/dcmitype/StillImage"/>
    <dc:date>2023-07-24T16:31:49.145599</dc:date>
    <dc:format>image/svg+xml</dc:format>
    <dc:creator>
     <cc:Agent>
      <dc:title>Matplotlib v3.5.2, https://matplotlib.org/</dc:title>
     </cc:Agent>
    </dc:creator>
   </cc:Work>
  </rdf:RDF>
 </metadata>
 <defs>
  <style type="text/css">*{stroke-linejoin: round; stroke-linecap: butt}</style>
 </defs>
 <g id="figure_1">
  <g id="patch_1">
   <path d="M 0 216 
L 864 216 
L 864 0 
L 0 0 
z
" style="fill: #ffffff"/>
  </g>
  <g id="axes_1">
   <g id="patch_2">
    <path d="M 46.64 174.04 
L 206.2125 174.04 
L 206.2125 13.005667 
L 46.64 13.005667 
z
" style="fill: #ffffff"/>
   </g>
   <g id="matplotlib.axis_1">
    <g id="xtick_1">
     <g id="line2d_1">
      <defs>
       <path id="mba761c842b" d="M 0 0 
L 0 3.5 
" style="stroke: #000000; stroke-width: 0.8"/>
      </defs>
      <g>
       <use xlink:href="#mba761c842b" x="53.893295" y="174.04" style="stroke: #000000; stroke-width: 0.8"/>
      </g>
     </g>
     <g id="text_1">
      <!-- 0.0 -->
      <g transform="translate(45.941733 188.638438)scale(0.1 -0.1)">
       <defs>
        <path id="DejaVuSans-30" d="M 2034 4250 
Q 1547 4250 1301 3770 
Q 1056 3291 1056 2328 
Q 1056 1369 1301 889 
Q 1547 409 2034 409 
Q 2525 409 2770 889 
Q 3016 1369 3016 2328 
Q 3016 3291 2770 3770 
Q 2525 4250 2034 4250 
z
M 2034 4750 
Q 2819 4750 3233 4129 
Q 3647 3509 3647 2328 
Q 3647 1150 3233 529 
Q 2819 -91 2034 -91 
Q 1250 -91 836 529 
Q 422 1150 422 2328 
Q 422 3509 836 4129 
Q 1250 4750 2034 4750 
z
" transform="scale(0.015625)"/>
        <path id="DejaVuSans-2e" d="M 684 794 
L 1344 794 
L 1344 0 
L 684 0 
L 684 794 
z
" transform="scale(0.015625)"/>
       </defs>
       <use xlink:href="#DejaVuSans-30"/>
       <use xlink:href="#DejaVuSans-2e" x="63.623047"/>
       <use xlink:href="#DejaVuSans-30" x="95.410156"/>
      </g>
     </g>
    </g>
    <g id="xtick_2">
     <g id="line2d_2">
      <g>
       <use xlink:href="#mba761c842b" x="110.433598" y="174.04" style="stroke: #000000; stroke-width: 0.8"/>
      </g>
     </g>
     <g id="text_2">
      <!-- 0.5 -->
      <g transform="translate(102.482036 188.638438)scale(0.1 -0.1)">
       <defs>
        <path id="DejaVuSans-35" d="M 691 4666 
L 3169 4666 
L 3169 4134 
L 1269 4134 
L 1269 2991 
Q 1406 3038 1543 3061 
Q 1681 3084 1819 3084 
Q 2600 3084 3056 2656 
Q 3513 2228 3513 1497 
Q 3513 744 3044 326 
Q 2575 -91 1722 -91 
Q 1428 -91 1123 -41 
Q 819 9 494 109 
L 494 744 
Q 775 591 1075 516 
Q 1375 441 1709 441 
Q 2250 441 2565 725 
Q 2881 1009 2881 1497 
Q 2881 1984 2565 2268 
Q 2250 2553 1709 2553 
Q 1456 2553 1204 2497 
Q 953 2441 691 2322 
L 691 4666 
z
" transform="scale(0.015625)"/>
       </defs>
       <use xlink:href="#DejaVuSans-30"/>
       <use xlink:href="#DejaVuSans-2e" x="63.623047"/>
       <use xlink:href="#DejaVuSans-35" x="95.410156"/>
      </g>
     </g>
    </g>
    <g id="xtick_3">
     <g id="line2d_3">
      <g>
       <use xlink:href="#mba761c842b" x="166.973901" y="174.04" style="stroke: #000000; stroke-width: 0.8"/>
      </g>
     </g>
     <g id="text_3">
      <!-- 1.0 -->
      <g transform="translate(159.022338 188.638438)scale(0.1 -0.1)">
       <defs>
        <path id="DejaVuSans-31" d="M 794 531 
L 1825 531 
L 1825 4091 
L 703 3866 
L 703 4441 
L 1819 4666 
L 2450 4666 
L 2450 531 
L 3481 531 
L 3481 0 
L 794 0 
L 794 531 
z
" transform="scale(0.015625)"/>
       </defs>
       <use xlink:href="#DejaVuSans-31"/>
       <use xlink:href="#DejaVuSans-2e" x="63.623047"/>
       <use xlink:href="#DejaVuSans-30" x="95.410156"/>
      </g>
     </g>
    </g>
    <g id="text_4">
     <!-- Time -->
     <g transform="translate(114.192656 202.316563)scale(0.1 -0.1)">
      <defs>
       <path id="DejaVuSans-54" d="M -19 4666 
L 3928 4666 
L 3928 4134 
L 2272 4134 
L 2272 0 
L 1638 0 
L 1638 4134 
L -19 4134 
L -19 4666 
z
" transform="scale(0.015625)"/>
       <path id="DejaVuSans-69" d="M 603 3500 
L 1178 3500 
L 1178 0 
L 603 0 
L 603 3500 
z
M 603 4863 
L 1178 4863 
L 1178 4134 
L 603 4134 
L 603 4863 
z
" transform="scale(0.015625)"/>
       <path id="DejaVuSans-6d" d="M 3328 2828 
Q 3544 3216 3844 3400 
Q 4144 3584 4550 3584 
Q 5097 3584 5394 3201 
Q 5691 2819 5691 2113 
L 5691 0 
L 5113 0 
L 5113 2094 
Q 5113 2597 4934 2840 
Q 4756 3084 4391 3084 
Q 3944 3084 3684 2787 
Q 3425 2491 3425 1978 
L 3425 0 
L 2847 0 
L 2847 2094 
Q 2847 2600 2669 2842 
Q 2491 3084 2119 3084 
Q 1678 3084 1418 2786 
Q 1159 2488 1159 1978 
L 1159 0 
L 581 0 
L 581 3500 
L 1159 3500 
L 1159 2956 
Q 1356 3278 1631 3431 
Q 1906 3584 2284 3584 
Q 2666 3584 2933 3390 
Q 3200 3197 3328 2828 
z
" transform="scale(0.015625)"/>
       <path id="DejaVuSans-65" d="M 3597 1894 
L 3597 1613 
L 953 1613 
Q 991 1019 1311 708 
Q 1631 397 2203 397 
Q 2534 397 2845 478 
Q 3156 559 3463 722 
L 3463 178 
Q 3153 47 2828 -22 
Q 2503 -91 2169 -91 
Q 1331 -91 842 396 
Q 353 884 353 1716 
Q 353 2575 817 3079 
Q 1281 3584 2069 3584 
Q 2775 3584 3186 3129 
Q 3597 2675 3597 1894 
z
M 3022 2063 
Q 3016 2534 2758 2815 
Q 2500 3097 2075 3097 
Q 1594 3097 1305 2825 
Q 1016 2553 972 2059 
L 3022 2063 
z
" transform="scale(0.015625)"/>
      </defs>
      <use xlink:href="#DejaVuSans-54"/>
      <use xlink:href="#DejaVuSans-69" x="57.958984"/>
      <use xlink:href="#DejaVuSans-6d" x="85.742188"/>
      <use xlink:href="#DejaVuSans-65" x="183.154297"/>
     </g>
    </g>
   </g>
   <g id="matplotlib.axis_2">
    <g id="ytick_1">
     <g id="line2d_4">
      <defs>
       <path id="m0050edd71a" d="M 0 0 
L -3.5 0 
" style="stroke: #000000; stroke-width: 0.8"/>
      </defs>
      <g>
       <use xlink:href="#m0050edd71a" x="46.64" y="151.442729" style="stroke: #000000; stroke-width: 0.8"/>
      </g>
     </g>
     <g id="text_5">
      <!-- −2 -->
      <g transform="translate(24.897813 155.241947)scale(0.1 -0.1)">
       <defs>
        <path id="DejaVuSans-2212" d="M 678 2272 
L 4684 2272 
L 4684 1741 
L 678 1741 
L 678 2272 
z
" transform="scale(0.015625)"/>
        <path id="DejaVuSans-32" d="M 1228 531 
L 3431 531 
L 3431 0 
L 469 0 
L 469 531 
Q 828 903 1448 1529 
Q 2069 2156 2228 2338 
Q 2531 2678 2651 2914 
Q 2772 3150 2772 3378 
Q 2772 3750 2511 3984 
Q 2250 4219 1831 4219 
Q 1534 4219 1204 4116 
Q 875 4013 500 3803 
L 500 4441 
Q 881 4594 1212 4672 
Q 1544 4750 1819 4750 
Q 2544 4750 2975 4387 
Q 3406 4025 3406 3419 
Q 3406 3131 3298 2873 
Q 3191 2616 2906 2266 
Q 2828 2175 2409 1742 
Q 1991 1309 1228 531 
z
" transform="scale(0.015625)"/>
       </defs>
       <use xlink:href="#DejaVuSans-2212"/>
       <use xlink:href="#DejaVuSans-32" x="83.789062"/>
      </g>
     </g>
    </g>
    <g id="ytick_2">
     <g id="line2d_5">
      <g>
       <use xlink:href="#m0050edd71a" x="46.64" y="124.095032" style="stroke: #000000; stroke-width: 0.8"/>
      </g>
     </g>
     <g id="text_6">
      <!-- −1 -->
      <g transform="translate(24.897813 127.894251)scale(0.1 -0.1)">
       <use xlink:href="#DejaVuSans-2212"/>
       <use xlink:href="#DejaVuSans-31" x="83.789062"/>
      </g>
     </g>
    </g>
    <g id="ytick_3">
     <g id="line2d_6">
      <g>
       <use xlink:href="#m0050edd71a" x="46.64" y="96.747336" style="stroke: #000000; stroke-width: 0.8"/>
      </g>
     </g>
     <g id="text_7">
      <!-- 0 -->
      <g transform="translate(33.2775 100.546555)scale(0.1 -0.1)">
       <use xlink:href="#DejaVuSans-30"/>
      </g>
     </g>
    </g>
    <g id="ytick_4">
     <g id="line2d_7">
      <g>
       <use xlink:href="#m0050edd71a" x="46.64" y="69.39964" style="stroke: #000000; stroke-width: 0.8"/>
      </g>
     </g>
     <g id="text_8">
      <!-- 1 -->
      <g transform="translate(33.2775 73.198858)scale(0.1 -0.1)">
       <use xlink:href="#DejaVuSans-31"/>
      </g>
     </g>
    </g>
    <g id="ytick_5">
     <g id="line2d_8">
      <g>
       <use xlink:href="#m0050edd71a" x="46.64" y="42.051943" style="stroke: #000000; stroke-width: 0.8"/>
      </g>
     </g>
     <g id="text_9">
      <!-- 2 -->
      <g transform="translate(33.2775 45.851162)scale(0.1 -0.1)">
       <use xlink:href="#DejaVuSans-32"/>
      </g>
     </g>
    </g>
    <g id="ytick_6">
     <g id="line2d_9">
      <g>
       <use xlink:href="#m0050edd71a" x="46.64" y="14.704247" style="stroke: #000000; stroke-width: 0.8"/>
      </g>
     </g>
     <g id="text_10">
      <!-- 3 -->
      <g transform="translate(33.2775 18.503466)scale(0.1 -0.1)">
       <defs>
        <path id="DejaVuSans-33" d="M 2597 2516 
Q 3050 2419 3304 2112 
Q 3559 1806 3559 1356 
Q 3559 666 3084 287 
Q 2609 -91 1734 -91 
Q 1441 -91 1130 -33 
Q 819 25 488 141 
L 488 750 
Q 750 597 1062 519 
Q 1375 441 1716 441 
Q 2309 441 2620 675 
Q 2931 909 2931 1356 
Q 2931 1769 2642 2001 
Q 2353 2234 1838 2234 
L 1294 2234 
L 1294 2753 
L 1863 2753 
Q 2328 2753 2575 2939 
Q 2822 3125 2822 3475 
Q 2822 3834 2567 4026 
Q 2313 4219 1838 4219 
Q 1578 4219 1281 4162 
Q 984 4106 628 3988 
L 628 4550 
Q 988 4650 1302 4700 
Q 1616 4750 1894 4750 
Q 2613 4750 3031 4423 
Q 3450 4097 3450 3541 
Q 3450 3153 3228 2886 
Q 3006 2619 2597 2516 
z
" transform="scale(0.015625)"/>
       </defs>
       <use xlink:href="#DejaVuSans-33"/>
      </g>
     </g>
    </g>
    <g id="text_11">
     <!-- Position -->
     <g transform="translate(18.818125 112.986896)rotate(-90)scale(0.1 -0.1)">
      <defs>
       <path id="DejaVuSans-50" d="M 1259 4147 
L 1259 2394 
L 2053 2394 
Q 2494 2394 2734 2622 
Q 2975 2850 2975 3272 
Q 2975 3691 2734 3919 
Q 2494 4147 2053 4147 
L 1259 4147 
z
M 628 4666 
L 2053 4666 
Q 2838 4666 3239 4311 
Q 3641 3956 3641 3272 
Q 3641 2581 3239 2228 
Q 2838 1875 2053 1875 
L 1259 1875 
L 1259 0 
L 628 0 
L 628 4666 
z
" transform="scale(0.015625)"/>
       <path id="DejaVuSans-6f" d="M 1959 3097 
Q 1497 3097 1228 2736 
Q 959 2375 959 1747 
Q 959 1119 1226 758 
Q 1494 397 1959 397 
Q 2419 397 2687 759 
Q 2956 1122 2956 1747 
Q 2956 2369 2687 2733 
Q 2419 3097 1959 3097 
z
M 1959 3584 
Q 2709 3584 3137 3096 
Q 3566 2609 3566 1747 
Q 3566 888 3137 398 
Q 2709 -91 1959 -91 
Q 1206 -91 779 398 
Q 353 888 353 1747 
Q 353 2609 779 3096 
Q 1206 3584 1959 3584 
z
" transform="scale(0.015625)"/>
       <path id="DejaVuSans-73" d="M 2834 3397 
L 2834 2853 
Q 2591 2978 2328 3040 
Q 2066 3103 1784 3103 
Q 1356 3103 1142 2972 
Q 928 2841 928 2578 
Q 928 2378 1081 2264 
Q 1234 2150 1697 2047 
L 1894 2003 
Q 2506 1872 2764 1633 
Q 3022 1394 3022 966 
Q 3022 478 2636 193 
Q 2250 -91 1575 -91 
Q 1294 -91 989 -36 
Q 684 19 347 128 
L 347 722 
Q 666 556 975 473 
Q 1284 391 1588 391 
Q 1994 391 2212 530 
Q 2431 669 2431 922 
Q 2431 1156 2273 1281 
Q 2116 1406 1581 1522 
L 1381 1569 
Q 847 1681 609 1914 
Q 372 2147 372 2553 
Q 372 3047 722 3315 
Q 1072 3584 1716 3584 
Q 2034 3584 2315 3537 
Q 2597 3491 2834 3397 
z
" transform="scale(0.015625)"/>
       <path id="DejaVuSans-74" d="M 1172 4494 
L 1172 3500 
L 2356 3500 
L 2356 3053 
L 1172 3053 
L 1172 1153 
Q 1172 725 1289 603 
Q 1406 481 1766 481 
L 2356 481 
L 2356 0 
L 1766 0 
Q 1100 0 847 248 
Q 594 497 594 1153 
L 594 3053 
L 172 3053 
L 172 3500 
L 594 3500 
L 594 4494 
L 1172 4494 
z
" transform="scale(0.015625)"/>
       <path id="DejaVuSans-6e" d="M 3513 2113 
L 3513 0 
L 2938 0 
L 2938 2094 
Q 2938 2591 2744 2837 
Q 2550 3084 2163 3084 
Q 1697 3084 1428 2787 
Q 1159 2491 1159 1978 
L 1159 0 
L 581 0 
L 581 3500 
L 1159 3500 
L 1159 2956 
Q 1366 3272 1645 3428 
Q 1925 3584 2291 3584 
Q 2894 3584 3203 3211 
Q 3513 2838 3513 2113 
z
" transform="scale(0.015625)"/>
      </defs>
      <use xlink:href="#DejaVuSans-50"/>
      <use xlink:href="#DejaVuSans-6f" x="56.677734"/>
      <use xlink:href="#DejaVuSans-73" x="117.859375"/>
      <use xlink:href="#DejaVuSans-69" x="169.958984"/>
      <use xlink:href="#DejaVuSans-74" x="197.742188"/>
      <use xlink:href="#DejaVuSans-69" x="236.951172"/>
      <use xlink:href="#DejaVuSans-6f" x="264.734375"/>
      <use xlink:href="#DejaVuSans-6e" x="325.916016"/>
     </g>
    </g>
   </g>
   <g id="line2d_10">
    <path d="M 53.893295 93.251145 
L 58.685262 93.3621 
L 63.622441 93.703582 
L 68.70483 94.283843 
L 73.93243 95.105814 
L 79.450453 96.201954 
L 85.258897 97.589723 
L 91.357764 99.279786 
L 98.473109 101.491427 
L 119.383511 108.161272 
L 124.611111 109.493852 
L 129.257867 110.454445 
L 133.6142 111.126815 
L 137.825323 111.550406 
L 142.036445 111.745638 
L 146.247568 111.717397 
L 150.603902 111.467106 
L 155.395868 110.960477 
L 160.76868 110.154682 
L 167.593603 108.887226 
L 182.405137 106.07391 
L 187.923159 105.305931 
L 192.715126 104.861107 
L 197.216671 104.661176 
L 198.959205 104.644103 
L 198.959205 104.644103 
" clip-path="url(#p0cd8172d06)" style="fill: none; stroke: #1f77b4; stroke-width: 1.5; stroke-linecap: square"/>
   </g>
   <g id="line2d_11">
    <path d="M 53.893295 90.275384 
L 58.104418 90.388114 
L 62.460752 90.730804 
L 67.107507 91.318985 
L 72.480319 92.228089 
L 79.16003 93.596706 
L 90.050864 96.095553 
L 100.070432 98.319807 
L 105.878876 99.386388 
L 110.816055 100.067042 
L 115.172388 100.448739 
L 119.383511 100.595952 
L 123.449422 100.517498 
L 127.660545 100.207496 
L 132.016878 99.659602 
L 136.808845 98.829584 
L 142.907712 97.532713 
L 154.379391 94.80352 
L 180.517392 88.614212 
L 186.616259 87.398524 
L 191.117804 86.716158 
L 195.038504 86.338379 
L 198.668782 86.20765 
L 198.959205 86.206916 
L 198.959205 86.206916 
" clip-path="url(#p0cd8172d06)" style="fill: none; stroke: #ff7f0e; stroke-width: 1.5; stroke-linecap: square"/>
   </g>
   <g id="line2d_12">
    <path d="M 53.893295 89.709954 
L 58.830474 89.599198 
L 64.203285 89.249625 
L 70.737785 88.584944 
L 88.743964 86.619334 
L 94.261987 86.319197 
L 99.344376 86.259098 
L 104.281554 86.419698 
L 109.218732 86.800767 
L 114.446333 87.433553 
L 119.964355 88.328589 
L 126.498856 89.623799 
L 135.937578 91.752498 
L 156.84798 96.521 
L 166.141491 98.38565 
L 174.128103 99.767857 
L 181.243448 100.775849 
L 187.487526 101.440077 
L 193.15076 101.82188 
L 198.37836 101.95754 
L 198.959205 101.958929 
L 198.959205 101.958929 
" clip-path="url(#p0cd8172d06)" style="fill: none; stroke: #2ca02c; stroke-width: 1.5; stroke-linecap: square"/>
   </g>
   <g id="line2d_13">
    <path d="M 53.893295 166.663772 
L 67.833563 166.552858 
L 83.951997 166.460599 
L 98.327898 166.652409 
L 109.073521 166.702204 
L 116.043655 166.508056 
L 122.723366 166.090912 
L 130.419556 165.371147 
L 161.785158 162.189945 
L 170.062192 161.717188 
L 180.081759 161.384339 
L 193.731604 161.164918 
L 198.959205 161.144569 
L 198.959205 161.144569 
" clip-path="url(#p0cd8172d06)" style="fill: none; stroke: #d62728; stroke-width: 1.5; stroke-linecap: square"/>
   </g>
   <g id="line2d_14">
    <path d="M 53.893295 100.981283 
L 62.751174 100.869177 
L 69.866519 100.566217 
L 76.110597 100.080183 
L 82.354675 99.367407 
L 89.905653 98.264631 
L 109.654366 95.25955 
L 115.46281 94.661636 
L 120.5452 94.36053 
L 125.337167 94.298418 
L 130.419556 94.45722 
L 136.663634 94.888916 
L 151.620379 96.020566 
L 157.138402 96.152259 
L 162.656424 96.060733 
L 169.045714 95.722198 
L 178.629648 94.960611 
L 190.53696 94.051301 
L 196.635827 93.815116 
L 198.959205 93.794242 
L 198.959205 93.794242 
" clip-path="url(#p0cd8172d06)" style="fill: none; stroke: #9467bd; stroke-width: 1.5; stroke-linecap: square"/>
   </g>
   <g id="line2d_15">
    <path d="M 53.893295 20.325409 
L 58.830474 20.435538 
L 63.912863 20.771401 
L 69.285674 21.352271 
L 75.23933 22.222876 
L 82.499886 23.519631 
L 93.826354 25.802008 
L 106.750143 28.355361 
L 113.429855 29.44188 
L 118.802666 30.097033 
L 123.739844 30.480627 
L 128.531811 30.630575 
L 133.323778 30.554863 
L 138.115745 30.256839 
L 143.052923 29.730468 
L 148.425735 28.932147 
L 154.669813 27.770944 
L 165.705858 25.438696 
L 174.128103 23.772377 
L 180.517392 22.734363 
L 186.180626 22.034932 
L 191.553437 21.591086 
L 196.781038 21.381763 
L 198.959205 21.361795 
L 198.959205 21.361795 
" clip-path="url(#p0cd8172d06)" style="fill: none; stroke: #8c564b; stroke-width: 1.5; stroke-linecap: square"/>
   </g>
   <g id="line2d_16">
    <path d="M 53.893295 61.06078 
L 58.685262 61.168785 
L 63.477229 61.499043 
L 68.123985 62.043589 
L 72.62553 62.793203 
L 77.127075 63.766853 
L 81.773831 65.002674 
L 86.711009 66.551906 
L 92.08382 68.474556 
L 98.327898 70.948032 
L 106.459721 74.425073 
L 130.129134 84.707444 
L 135.792367 86.82307 
L 140.729545 88.434067 
L 145.376301 89.714279 
L 149.732635 90.686217 
L 154.088968 91.43214 
L 158.590513 91.972158 
L 163.237269 92.303988 
L 168.319658 92.439941 
L 174.273314 92.36812 
L 183.566826 91.997891 
L 194.312449 91.629647 
L 198.959205 91.586622 
L 198.959205 91.586622 
" clip-path="url(#p0cd8172d06)" style="fill: none; stroke: #e377c2; stroke-width: 1.5; stroke-linecap: square"/>
   </g>
   <g id="patch_3">
    <path d="M 46.64 174.04 
L 46.64 13.005667 
" style="fill: none; stroke: #000000; stroke-width: 0.8; stroke-linejoin: miter; stroke-linecap: square"/>
   </g>
   <g id="patch_4">
    <path d="M 206.2125 174.04 
L 206.2125 13.005667 
" style="fill: none; stroke: #000000; stroke-width: 0.8; stroke-linejoin: miter; stroke-linecap: square"/>
   </g>
   <g id="patch_5">
    <path d="M 46.64 174.04 
L 206.2125 174.04 
" style="fill: none; stroke: #000000; stroke-width: 0.8; stroke-linejoin: miter; stroke-linecap: square"/>
   </g>
   <g id="patch_6">
    <path d="M 46.64 13.005667 
L 206.2125 13.005667 
" style="fill: none; stroke: #000000; stroke-width: 0.8; stroke-linejoin: miter; stroke-linecap: square"/>
   </g>
  </g>
  <g id="axes_2">
   <g id="patch_7">
    <path d="M 262.3025 174.04 
L 421.875 174.04 
L 421.875 13.005667 
L 262.3025 13.005667 
z
" style="fill: #ffffff"/>
   </g>
   <g id="matplotlib.axis_3">
    <g id="xtick_4">
     <g id="line2d_17">
      <g>
       <use xlink:href="#mba761c842b" x="269.555795" y="174.04" style="stroke: #000000; stroke-width: 0.8"/>
      </g>
     </g>
     <g id="text_12">
      <!-- 0.0 -->
      <g transform="translate(261.604233 188.638438)scale(0.1 -0.1)">
       <use xlink:href="#DejaVuSans-30"/>
       <use xlink:href="#DejaVuSans-2e" x="63.623047"/>
       <use xlink:href="#DejaVuSans-30" x="95.410156"/>
      </g>
     </g>
    </g>
    <g id="xtick_5">
     <g id="line2d_18">
      <g>
       <use xlink:href="#mba761c842b" x="326.096098" y="174.04" style="stroke: #000000; stroke-width: 0.8"/>
      </g>
     </g>
     <g id="text_13">
      <!-- 0.5 -->
      <g transform="translate(318.144536 188.638438)scale(0.1 -0.1)">
       <use xlink:href="#DejaVuSans-30"/>
       <use xlink:href="#DejaVuSans-2e" x="63.623047"/>
       <use xlink:href="#DejaVuSans-35" x="95.410156"/>
      </g>
     </g>
    </g>
    <g id="xtick_6">
     <g id="line2d_19">
      <g>
       <use xlink:href="#mba761c842b" x="382.636401" y="174.04" style="stroke: #000000; stroke-width: 0.8"/>
      </g>
     </g>
     <g id="text_14">
      <!-- 1.0 -->
      <g transform="translate(374.684838 188.638438)scale(0.1 -0.1)">
       <use xlink:href="#DejaVuSans-31"/>
       <use xlink:href="#DejaVuSans-2e" x="63.623047"/>
       <use xlink:href="#DejaVuSans-30" x="95.410156"/>
      </g>
     </g>
    </g>
    <g id="text_15">
     <!-- Time -->
     <g transform="translate(329.855156 202.316563)scale(0.1 -0.1)">
      <use xlink:href="#DejaVuSans-54"/>
      <use xlink:href="#DejaVuSans-69" x="57.958984"/>
      <use xlink:href="#DejaVuSans-6d" x="85.742188"/>
      <use xlink:href="#DejaVuSans-65" x="183.154297"/>
     </g>
    </g>
   </g>
   <g id="matplotlib.axis_4">
    <g id="ytick_7">
     <g id="line2d_20">
      <g>
       <use xlink:href="#m0050edd71a" x="262.3025" y="148.838484" style="stroke: #000000; stroke-width: 0.8"/>
      </g>
     </g>
     <g id="text_16">
      <!-- −1.5 -->
      <g transform="translate(231.019687 152.637703)scale(0.1 -0.1)">
       <use xlink:href="#DejaVuSans-2212"/>
       <use xlink:href="#DejaVuSans-31" x="83.789062"/>
       <use xlink:href="#DejaVuSans-2e" x="147.412109"/>
       <use xlink:href="#DejaVuSans-35" x="179.199219"/>
      </g>
     </g>
    </g>
    <g id="ytick_8">
     <g id="line2d_21">
      <g>
       <use xlink:href="#m0050edd71a" x="262.3025" y="123.113706" style="stroke: #000000; stroke-width: 0.8"/>
      </g>
     </g>
     <g id="text_17">
      <!-- −1.0 -->
      <g transform="translate(231.019687 126.912925)scale(0.1 -0.1)">
       <use xlink:href="#DejaVuSans-2212"/>
       <use xlink:href="#DejaVuSans-31" x="83.789062"/>
       <use xlink:href="#DejaVuSans-2e" x="147.412109"/>
       <use xlink:href="#DejaVuSans-30" x="179.199219"/>
      </g>
     </g>
    </g>
    <g id="ytick_9">
     <g id="line2d_22">
      <g>
       <use xlink:href="#m0050edd71a" x="262.3025" y="97.388928" style="stroke: #000000; stroke-width: 0.8"/>
      </g>
     </g>
     <g id="text_18">
      <!-- −0.5 -->
      <g transform="translate(231.019687 101.188147)scale(0.1 -0.1)">
       <use xlink:href="#DejaVuSans-2212"/>
       <use xlink:href="#DejaVuSans-30" x="83.789062"/>
       <use xlink:href="#DejaVuSans-2e" x="147.412109"/>
       <use xlink:href="#DejaVuSans-35" x="179.199219"/>
      </g>
     </g>
    </g>
    <g id="ytick_10">
     <g id="line2d_23">
      <g>
       <use xlink:href="#m0050edd71a" x="262.3025" y="71.66415" style="stroke: #000000; stroke-width: 0.8"/>
      </g>
     </g>
     <g id="text_19">
      <!-- 0.0 -->
      <g transform="translate(239.399375 75.463369)scale(0.1 -0.1)">
       <use xlink:href="#DejaVuSans-30"/>
       <use xlink:href="#DejaVuSans-2e" x="63.623047"/>
       <use xlink:href="#DejaVuSans-30" x="95.410156"/>
      </g>
     </g>
    </g>
    <g id="ytick_11">
     <g id="line2d_24">
      <g>
       <use xlink:href="#m0050edd71a" x="262.3025" y="45.939372" style="stroke: #000000; stroke-width: 0.8"/>
      </g>
     </g>
     <g id="text_20">
      <!-- 0.5 -->
      <g transform="translate(239.399375 49.738591)scale(0.1 -0.1)">
       <use xlink:href="#DejaVuSans-30"/>
       <use xlink:href="#DejaVuSans-2e" x="63.623047"/>
       <use xlink:href="#DejaVuSans-35" x="95.410156"/>
      </g>
     </g>
    </g>
    <g id="ytick_12">
     <g id="line2d_25">
      <g>
       <use xlink:href="#m0050edd71a" x="262.3025" y="20.214594" style="stroke: #000000; stroke-width: 0.8"/>
      </g>
     </g>
     <g id="text_21">
      <!-- 1.0 -->
      <g transform="translate(239.399375 24.013813)scale(0.1 -0.1)">
       <use xlink:href="#DejaVuSans-31"/>
       <use xlink:href="#DejaVuSans-2e" x="63.623047"/>
       <use xlink:href="#DejaVuSans-30" x="95.410156"/>
      </g>
     </g>
    </g>
    <g id="text_22">
     <!-- Velocity -->
     <g transform="translate(224.94 113.138458)rotate(-90)scale(0.1 -0.1)">
      <defs>
       <path id="DejaVuSans-56" d="M 1831 0 
L 50 4666 
L 709 4666 
L 2188 738 
L 3669 4666 
L 4325 4666 
L 2547 0 
L 1831 0 
z
" transform="scale(0.015625)"/>
       <path id="DejaVuSans-6c" d="M 603 4863 
L 1178 4863 
L 1178 0 
L 603 0 
L 603 4863 
z
" transform="scale(0.015625)"/>
       <path id="DejaVuSans-63" d="M 3122 3366 
L 3122 2828 
Q 2878 2963 2633 3030 
Q 2388 3097 2138 3097 
Q 1578 3097 1268 2742 
Q 959 2388 959 1747 
Q 959 1106 1268 751 
Q 1578 397 2138 397 
Q 2388 397 2633 464 
Q 2878 531 3122 666 
L 3122 134 
Q 2881 22 2623 -34 
Q 2366 -91 2075 -91 
Q 1284 -91 818 406 
Q 353 903 353 1747 
Q 353 2603 823 3093 
Q 1294 3584 2113 3584 
Q 2378 3584 2631 3529 
Q 2884 3475 3122 3366 
z
" transform="scale(0.015625)"/>
       <path id="DejaVuSans-79" d="M 2059 -325 
Q 1816 -950 1584 -1140 
Q 1353 -1331 966 -1331 
L 506 -1331 
L 506 -850 
L 844 -850 
Q 1081 -850 1212 -737 
Q 1344 -625 1503 -206 
L 1606 56 
L 191 3500 
L 800 3500 
L 1894 763 
L 2988 3500 
L 3597 3500 
L 2059 -325 
z
" transform="scale(0.015625)"/>
      </defs>
      <use xlink:href="#DejaVuSans-56"/>
      <use xlink:href="#DejaVuSans-65" x="60.658203"/>
      <use xlink:href="#DejaVuSans-6c" x="122.181641"/>
      <use xlink:href="#DejaVuSans-6f" x="149.964844"/>
      <use xlink:href="#DejaVuSans-63" x="211.146484"/>
      <use xlink:href="#DejaVuSans-69" x="266.126953"/>
      <use xlink:href="#DejaVuSans-74" x="293.910156"/>
      <use xlink:href="#DejaVuSans-79" x="333.119141"/>
     </g>
    </g>
   </g>
   <g id="line2d_26">
    <path d="M 269.555795 71.66415 
L 276.67114 86.11359 
L 281.608318 95.58222 
L 285.529019 102.631075 
L 289.740141 109.766322 
L 293.951264 116.436322 
L 298.162386 122.737461 
L 302.373509 128.609525 
L 305.13252 132.127011 
L 307.891531 135.272436 
L 310.36012 137.767735 
L 312.247865 139.342972 
L 313.990398 140.516049 
L 315.878143 141.52536 
L 317.475465 142.157461 
L 318.782365 142.454813 
L 320.089265 142.542229 
L 321.686588 142.395746 
L 323.28391 142.02262 
L 324.736021 141.473773 
L 326.042921 140.747728 
L 327.495032 139.672907 
L 329.237566 138.074283 
L 331.12531 136.042919 
L 332.722633 134.036207 
L 334.465166 131.479456 
L 336.643333 127.822736 
L 338.966711 123.506998 
L 341.144878 118.994522 
L 343.613467 113.318731 
L 346.372478 106.410946 
L 350.874023 94.46011 
L 361.910068 64.799674 
L 365.395135 56.280031 
L 368.008935 50.477104 
L 370.767946 44.88711 
L 372.946113 40.928329 
L 374.833858 37.95425 
L 376.866813 35.170717 
L 378.754558 32.939903 
L 380.206669 31.549764 
L 381.513569 30.580069 
L 382.96568 29.792298 
L 384.417792 29.238556 
L 385.869903 28.915514 
L 387.031592 28.874471 
L 388.193281 29.054569 
L 389.35497 29.455381 
L 390.952292 30.280754 
L 392.549614 31.372199 
L 394.001725 32.619613 
L 395.453837 34.163977 
L 397.051159 36.1986 
L 399.229326 39.357879 
L 401.407493 42.928195 
L 403.440448 46.693036 
L 406.344671 52.633603 
L 409.539315 59.667634 
L 413.605227 69.231409 
L 414.621705 71.66415 
L 414.621705 71.66415 
" clip-path="url(#p1c39585063)" style="fill: none; stroke: #1f77b4; stroke-width: 1.5; stroke-linecap: square"/>
   </g>
   <g id="line2d_27">
    <path d="M 269.555795 71.66415 
L 274.347762 84.474835 
L 277.106774 91.233383 
L 280.010996 97.750974 
L 282.189163 102.177094 
L 284.222119 105.785003 
L 286.545497 109.404574 
L 288.578452 112.190613 
L 290.466197 114.391507 
L 292.353941 116.225081 
L 294.386897 117.893544 
L 296.274642 119.154659 
L 298.017175 120.030428 
L 299.90492 120.698339 
L 301.937875 121.198272 
L 303.535198 121.392479 
L 304.987309 121.344526 
L 306.584631 121.051907 
L 308.327165 120.511404 
L 310.069698 119.741213 
L 311.521809 118.832749 
L 312.97392 117.655513 
L 314.716454 115.931426 
L 316.604198 113.737127 
L 318.201521 111.568832 
L 319.944054 108.806155 
L 321.97701 105.127738 
L 324.300388 100.483927 
L 326.478555 95.650397 
L 329.092355 89.251735 
L 332.577422 80.122299 
L 336.643333 68.792266 
L 343.032622 51.079989 
L 345.791634 44.140804 
L 348.405434 38.16135 
L 350.583601 33.686896 
L 352.326134 30.650759 
L 354.068667 28.092285 
L 355.811201 25.897303 
L 357.408523 24.207711 
L 358.860634 23.001958 
L 360.167534 22.194268 
L 362.055279 21.352061 
L 363.943024 20.762325 
L 365.830768 20.421607 
L 367.573302 20.325409 
L 371.929635 20.437537 
L 379.190191 20.617671 
L 385.579481 20.823602 
L 387.467225 21.040271 
L 389.35497 21.468959 
L 391.242714 22.115083 
L 393.130459 22.986081 
L 394.437359 23.823665 
L 395.744259 24.919074 
L 397.19637 26.433709 
L 398.793692 28.426004 
L 400.391015 30.757573 
L 401.697915 33.031418 
L 403.150026 36.018768 
L 404.892559 40.190177 
L 406.925515 45.644745 
L 408.958471 51.743023 
L 410.991427 58.547295 
L 414.621705 71.66415 
L 414.621705 71.66415 
" clip-path="url(#p1c39585063)" style="fill: none; stroke: #ff7f0e; stroke-width: 1.5; stroke-linecap: square"/>
   </g>
   <g id="line2d_28">
    <path d="M 269.555795 71.66415 
L 273.766918 63.575077 
L 276.235507 59.263994 
L 278.704096 55.401921 
L 281.027474 52.166856 
L 282.624796 50.307157 
L 284.076907 48.925155 
L 285.819441 47.592293 
L 287.416763 46.634388 
L 288.723663 46.068773 
L 289.885352 45.787378 
L 291.047041 45.716094 
L 292.499152 45.884618 
L 293.951264 46.269455 
L 295.403375 46.871899 
L 296.710275 47.63893 
L 298.162386 48.755991 
L 299.90492 50.415627 
L 301.937875 52.654677 
L 303.82562 55.042053 
L 305.858576 57.98549 
L 309.05322 63.122133 
L 312.102654 68.442455 
L 316.168565 76.068578 
L 327.20461 96.948939 
L 330.689677 102.858337 
L 333.303477 106.906169 
L 335.626855 110.071506 
L 338.095444 113.076137 
L 340.1284 115.246859 
L 342.016144 116.931964 
L 343.758678 118.206571 
L 345.501211 119.215744 
L 347.679378 120.181502 
L 349.857545 120.920016 
L 351.745289 121.332027 
L 353.633034 121.519012 
L 356.101623 121.543244 
L 358.570212 121.342724 
L 361.038801 120.908067 
L 364.378657 120.084481 
L 367.137668 119.185952 
L 370.477524 117.843698 
L 373.672169 116.334389 
L 377.157236 114.416212 
L 380.642302 112.268411 
L 383.982158 109.924066 
L 387.467225 107.211364 
L 390.66187 104.425534 
L 394.001725 101.225336 
L 396.760737 98.254443 
L 399.955381 94.454789 
L 402.569182 91.029856 
L 405.473404 86.826168 
L 408.81326 81.59183 
L 412.443538 75.455991 
L 414.621705 71.66415 
L 414.621705 71.66415 
" clip-path="url(#p1c39585063)" style="fill: none; stroke: #2ca02c; stroke-width: 1.5; stroke-linecap: square"/>
   </g>
   <g id="line2d_29">
    <path d="M 269.555795 71.66415 
L 274.347762 70.286006 
L 277.542407 69.594415 
L 280.591841 69.152439 
L 282.915219 69.012155 
L 285.383808 69.092804 
L 287.997608 69.393023 
L 290.466197 69.898608 
L 293.51563 70.783282 
L 298.743231 72.540109 
L 303.244775 73.992756 
L 306.148998 74.693402 
L 308.762798 75.092815 
L 310.795754 75.210405 
L 312.683498 75.076925 
L 314.716454 74.694879 
L 316.894621 74.078229 
L 318.637154 73.364362 
L 320.379688 72.402602 
L 322.557854 70.922241 
L 324.736021 69.186079 
L 326.914188 67.157832 
L 329.81841 64.089903 
L 338.240655 55.046314 
L 340.564033 52.902771 
L 342.596989 51.317596 
L 344.339522 50.221003 
L 346.082056 49.383227 
L 348.260223 48.597507 
L 350.293178 48.087976 
L 352.326134 47.810174 
L 354.649512 47.739228 
L 357.408523 47.862636 
L 359.731901 48.196783 
L 362.345701 48.816176 
L 365.104713 49.687649 
L 367.573302 50.71585 
L 370.622735 52.251226 
L 373.381746 53.871916 
L 376.576391 56.044793 
L 384.417792 61.406786 
L 387.467225 63.176659 
L 390.081025 64.428933 
L 393.27567 65.704602 
L 396.325103 66.678603 
L 400.391015 67.698475 
L 406.19946 69.144183 
L 410.991427 70.510959 
L 414.621705 71.66415 
L 414.621705 71.66415 
" clip-path="url(#p1c39585063)" style="fill: none; stroke: #d62728; stroke-width: 1.5; stroke-linecap: square"/>
   </g>
   <g id="line2d_30">
    <path d="M 269.555795 71.66415 
L 274.05734 69.035474 
L 276.525929 67.342659 
L 279.139729 65.282285 
L 281.75353 62.942205 
L 283.931696 60.685368 
L 287.271552 56.821273 
L 291.627886 51.387303 
L 295.839008 46.19189 
L 298.162386 43.667126 
L 300.340553 41.61147 
L 302.51872 39.858246 
L 304.116042 38.839187 
L 305.713364 38.091944 
L 307.601109 37.500793 
L 309.343642 37.175357 
L 310.940965 37.08753 
L 312.538287 37.234207 
L 314.28082 37.640808 
L 316.168565 38.301829 
L 317.911098 39.135485 
L 319.508421 40.151449 
L 321.250954 41.529393 
L 323.28391 43.426487 
L 325.171654 45.488244 
L 326.914188 47.74121 
L 328.947144 50.767151 
L 331.270522 54.607094 
L 333.739111 59.124714 
L 336.933755 65.511987 
L 342.306567 76.196676 
L 344.484733 80.014855 
L 346.517689 83.13333 
L 348.405434 85.649654 
L 350.147967 87.618927 
L 351.454867 88.736534 
L 352.616556 89.449213 
L 353.923456 89.96249 
L 355.230356 90.240131 
L 356.537256 90.285857 
L 357.698945 90.101826 
L 358.860634 89.668195 
L 360.022323 88.984881 
L 361.474435 87.841807 
L 363.216968 86.173938 
L 364.959501 84.184142 
L 366.847246 81.661617 
L 369.315835 77.915512 
L 377.73808 64.922807 
L 379.916247 62.055074 
L 381.803991 59.934032 
L 383.836947 58.001688 
L 385.724692 56.492013 
L 387.467225 55.377739 
L 389.064547 54.617749 
L 390.952292 53.99538 
L 392.840037 53.610103 
L 394.437359 53.497292 
L 396.034681 53.612214 
L 397.777215 53.979965 
L 399.664959 54.614936 
L 401.262281 55.375378 
L 402.714393 56.324084 
L 404.311715 57.651401 
L 406.19946 59.536148 
L 408.087204 61.746653 
L 409.974949 64.301802 
L 412.298327 67.872688 
L 414.621705 71.66415 
L 414.621705 71.66415 
" clip-path="url(#p1c39585063)" style="fill: none; stroke: #9467bd; stroke-width: 1.5; stroke-linecap: square"/>
   </g>
   <g id="line2d_31">
    <path d="M 269.555795 71.66415 
L 275.36424 82.708306 
L 279.575363 90.241564 
L 282.624796 95.314873 
L 285.238596 99.209949 
L 288.142819 103.151625 
L 290.320986 105.742608 
L 292.499152 107.969067 
L 294.82253 110.038849 
L 296.855486 111.569563 
L 298.743231 112.718053 
L 301.066609 113.852964 
L 303.244775 114.676235 
L 305.13252 115.148915 
L 307.165476 115.420197 
L 309.488854 115.520591 
L 311.376598 115.395397 
L 313.264343 115.036408 
L 315.297298 114.416155 
L 317.330254 113.564471 
L 318.927576 112.655171 
L 320.67011 111.393484 
L 322.848277 109.509361 
L 324.881232 107.461254 
L 326.623766 105.376635 
L 328.656721 102.559031 
L 331.12531 98.761321 
L 333.593899 94.551349 
L 336.352911 89.363822 
L 340.1284 81.794023 
L 347.9698 65.42139 
L 353.197401 54.797819 
L 357.263312 47.058946 
L 360.022323 42.237673 
L 362.926546 37.622772 
L 365.249924 34.307657 
L 367.137668 32.021977 
L 369.025413 30.090078 
L 370.913157 28.457086 
L 372.365269 27.446153 
L 373.672169 26.782551 
L 374.979069 26.351628 
L 376.576391 26.069237 
L 378.173713 26.021843 
L 379.480613 26.177188 
L 380.787514 26.541483 
L 382.239625 27.190236 
L 384.127369 28.308167 
L 386.015114 29.684659 
L 387.902858 31.347723 
L 389.935814 33.463287 
L 392.694825 36.662488 
L 395.163414 39.831516 
L 398.067637 43.956338 
L 401.843126 49.697585 
L 405.618615 55.883947 
L 410.555793 64.407552 
L 414.621705 71.66415 
L 414.621705 71.66415 
" clip-path="url(#p1c39585063)" style="fill: none; stroke: #8c564b; stroke-width: 1.5; stroke-linecap: square"/>
   </g>
   <g id="line2d_32">
    <path d="M 269.555795 71.66415 
L 275.654663 84.01074 
L 280.156207 93.669763 
L 284.512541 103.526999 
L 298.017175 134.610227 
L 301.066609 140.756914 
L 303.680409 145.590911 
L 305.858576 149.151719 
L 308.472376 152.96082 
L 310.795754 155.985524 
L 312.828709 158.261921 
L 315.152087 160.489292 
L 317.330254 162.291882 
L 319.217999 163.588402 
L 321.250954 164.702296 
L 323.574332 165.716517 
L 325.462077 166.317195 
L 327.20461 166.627087 
L 329.092355 166.720155 
L 331.12531 166.593711 
L 332.722633 166.292788 
L 334.319955 165.763599 
L 336.062489 164.943691 
L 337.950233 163.826612 
L 339.692767 162.559481 
L 341.4353 160.985569 
L 343.177833 159.097628 
L 344.920367 156.886544 
L 346.953323 153.921467 
L 349.2767 150.140245 
L 351.454867 146.175411 
L 353.778245 141.448452 
L 356.97289 134.408917 
L 360.022323 127.149209 
L 365.975979 112.125206 
L 371.929635 97.312906 
L 375.12428 89.963548 
L 378.318924 83.168588 
L 380.642302 78.678515 
L 382.820469 74.937148 
L 385.143847 71.367385 
L 387.031592 68.824843 
L 388.628914 67.026865 
L 390.371447 65.415446 
L 392.113981 64.086877 
L 393.711303 63.127309 
L 395.018203 62.588261 
L 396.325103 62.279741 
L 397.922426 62.16255 
L 399.519748 62.258461 
L 401.11707 62.572597 
L 402.714393 63.126657 
L 404.456926 63.995292 
L 406.780304 65.416498 
L 409.248893 67.195676 
L 412.153116 69.564605 
L 414.621705 71.66415 
L 414.621705 71.66415 
" clip-path="url(#p1c39585063)" style="fill: none; stroke: #e377c2; stroke-width: 1.5; stroke-linecap: square"/>
   </g>
   <g id="patch_8">
    <path d="M 262.3025 174.04 
L 262.3025 13.005667 
" style="fill: none; stroke: #000000; stroke-width: 0.8; stroke-linejoin: miter; stroke-linecap: square"/>
   </g>
   <g id="patch_9">
    <path d="M 421.875 174.04 
L 421.875 13.005667 
" style="fill: none; stroke: #000000; stroke-width: 0.8; stroke-linejoin: miter; stroke-linecap: square"/>
   </g>
   <g id="patch_10">
    <path d="M 262.3025 174.04 
L 421.875 174.04 
" style="fill: none; stroke: #000000; stroke-width: 0.8; stroke-linejoin: miter; stroke-linecap: square"/>
   </g>
   <g id="patch_11">
    <path d="M 262.3025 13.005667 
L 421.875 13.005667 
" style="fill: none; stroke: #000000; stroke-width: 0.8; stroke-linejoin: miter; stroke-linecap: square"/>
   </g>
  </g>
  <g id="axes_3">
   <g id="patch_12">
    <path d="M 477.965 174.04 
L 637.5375 174.04 
L 637.5375 13.005667 
L 477.965 13.005667 
z
" style="fill: #ffffff"/>
   </g>
   <g id="matplotlib.axis_5">
    <g id="xtick_7">
     <g id="line2d_33">
      <g>
       <use xlink:href="#mba761c842b" x="485.218295" y="174.04" style="stroke: #000000; stroke-width: 0.8"/>
      </g>
     </g>
     <g id="text_23">
      <!-- 0.0 -->
      <g transform="translate(477.266733 188.638438)scale(0.1 -0.1)">
       <use xlink:href="#DejaVuSans-30"/>
       <use xlink:href="#DejaVuSans-2e" x="63.623047"/>
       <use xlink:href="#DejaVuSans-30" x="95.410156"/>
      </g>
     </g>
    </g>
    <g id="xtick_8">
     <g id="line2d_34">
      <g>
       <use xlink:href="#mba761c842b" x="541.758598" y="174.04" style="stroke: #000000; stroke-width: 0.8"/>
      </g>
     </g>
     <g id="text_24">
      <!-- 0.5 -->
      <g transform="translate(533.807036 188.638438)scale(0.1 -0.1)">
       <use xlink:href="#DejaVuSans-30"/>
       <use xlink:href="#DejaVuSans-2e" x="63.623047"/>
       <use xlink:href="#DejaVuSans-35" x="95.410156"/>
      </g>
     </g>
    </g>
    <g id="xtick_9">
     <g id="line2d_35">
      <g>
       <use xlink:href="#mba761c842b" x="598.298901" y="174.04" style="stroke: #000000; stroke-width: 0.8"/>
      </g>
     </g>
     <g id="text_25">
      <!-- 1.0 -->
      <g transform="translate(590.347338 188.638438)scale(0.1 -0.1)">
       <use xlink:href="#DejaVuSans-31"/>
       <use xlink:href="#DejaVuSans-2e" x="63.623047"/>
       <use xlink:href="#DejaVuSans-30" x="95.410156"/>
      </g>
     </g>
    </g>
    <g id="text_26">
     <!-- Time -->
     <g transform="translate(545.517656 202.316563)scale(0.1 -0.1)">
      <use xlink:href="#DejaVuSans-54"/>
      <use xlink:href="#DejaVuSans-69" x="57.958984"/>
      <use xlink:href="#DejaVuSans-6d" x="85.742188"/>
      <use xlink:href="#DejaVuSans-65" x="183.154297"/>
     </g>
    </g>
   </g>
   <g id="matplotlib.axis_6">
    <g id="ytick_13">
     <g id="line2d_36">
      <g>
       <use xlink:href="#m0050edd71a" x="477.965" y="165.266368" style="stroke: #000000; stroke-width: 0.8"/>
      </g>
     </g>
     <g id="text_27">
      <!-- −8 -->
      <g transform="translate(456.222812 169.065587)scale(0.1 -0.1)">
       <defs>
        <path id="DejaVuSans-38" d="M 2034 2216 
Q 1584 2216 1326 1975 
Q 1069 1734 1069 1313 
Q 1069 891 1326 650 
Q 1584 409 2034 409 
Q 2484 409 2743 651 
Q 3003 894 3003 1313 
Q 3003 1734 2745 1975 
Q 2488 2216 2034 2216 
z
M 1403 2484 
Q 997 2584 770 2862 
Q 544 3141 544 3541 
Q 544 4100 942 4425 
Q 1341 4750 2034 4750 
Q 2731 4750 3128 4425 
Q 3525 4100 3525 3541 
Q 3525 3141 3298 2862 
Q 3072 2584 2669 2484 
Q 3125 2378 3379 2068 
Q 3634 1759 3634 1313 
Q 3634 634 3220 271 
Q 2806 -91 2034 -91 
Q 1263 -91 848 271 
Q 434 634 434 1313 
Q 434 1759 690 2068 
Q 947 2378 1403 2484 
z
M 1172 3481 
Q 1172 3119 1398 2916 
Q 1625 2713 2034 2713 
Q 2441 2713 2670 2916 
Q 2900 3119 2900 3481 
Q 2900 3844 2670 4047 
Q 2441 4250 2034 4250 
Q 1625 4250 1398 4047 
Q 1172 3844 1172 3481 
z
" transform="scale(0.015625)"/>
       </defs>
       <use xlink:href="#DejaVuSans-2212"/>
       <use xlink:href="#DejaVuSans-38" x="83.789062"/>
      </g>
     </g>
    </g>
    <g id="ytick_14">
     <g id="line2d_37">
      <g>
       <use xlink:href="#m0050edd71a" x="477.965" y="144.884643" style="stroke: #000000; stroke-width: 0.8"/>
      </g>
     </g>
     <g id="text_28">
      <!-- −6 -->
      <g transform="translate(456.222812 148.683861)scale(0.1 -0.1)">
       <defs>
        <path id="DejaVuSans-36" d="M 2113 2584 
Q 1688 2584 1439 2293 
Q 1191 2003 1191 1497 
Q 1191 994 1439 701 
Q 1688 409 2113 409 
Q 2538 409 2786 701 
Q 3034 994 3034 1497 
Q 3034 2003 2786 2293 
Q 2538 2584 2113 2584 
z
M 3366 4563 
L 3366 3988 
Q 3128 4100 2886 4159 
Q 2644 4219 2406 4219 
Q 1781 4219 1451 3797 
Q 1122 3375 1075 2522 
Q 1259 2794 1537 2939 
Q 1816 3084 2150 3084 
Q 2853 3084 3261 2657 
Q 3669 2231 3669 1497 
Q 3669 778 3244 343 
Q 2819 -91 2113 -91 
Q 1303 -91 875 529 
Q 447 1150 447 2328 
Q 447 3434 972 4092 
Q 1497 4750 2381 4750 
Q 2619 4750 2861 4703 
Q 3103 4656 3366 4563 
z
" transform="scale(0.015625)"/>
       </defs>
       <use xlink:href="#DejaVuSans-2212"/>
       <use xlink:href="#DejaVuSans-36" x="83.789062"/>
      </g>
     </g>
    </g>
    <g id="ytick_15">
     <g id="line2d_38">
      <g>
       <use xlink:href="#m0050edd71a" x="477.965" y="124.502917" style="stroke: #000000; stroke-width: 0.8"/>
      </g>
     </g>
     <g id="text_29">
      <!-- −4 -->
      <g transform="translate(456.222812 128.302136)scale(0.1 -0.1)">
       <defs>
        <path id="DejaVuSans-34" d="M 2419 4116 
L 825 1625 
L 2419 1625 
L 2419 4116 
z
M 2253 4666 
L 3047 4666 
L 3047 1625 
L 3713 1625 
L 3713 1100 
L 3047 1100 
L 3047 0 
L 2419 0 
L 2419 1100 
L 313 1100 
L 313 1709 
L 2253 4666 
z
" transform="scale(0.015625)"/>
       </defs>
       <use xlink:href="#DejaVuSans-2212"/>
       <use xlink:href="#DejaVuSans-34" x="83.789062"/>
      </g>
     </g>
    </g>
    <g id="ytick_16">
     <g id="line2d_39">
      <g>
       <use xlink:href="#m0050edd71a" x="477.965" y="104.121191" style="stroke: #000000; stroke-width: 0.8"/>
      </g>
     </g>
     <g id="text_30">
      <!-- −2 -->
      <g transform="translate(456.222812 107.92041)scale(0.1 -0.1)">
       <use xlink:href="#DejaVuSans-2212"/>
       <use xlink:href="#DejaVuSans-32" x="83.789062"/>
      </g>
     </g>
    </g>
    <g id="ytick_17">
     <g id="line2d_40">
      <g>
       <use xlink:href="#m0050edd71a" x="477.965" y="83.739465" style="stroke: #000000; stroke-width: 0.8"/>
      </g>
     </g>
     <g id="text_31">
      <!-- 0 -->
      <g transform="translate(464.6025 87.538684)scale(0.1 -0.1)">
       <use xlink:href="#DejaVuSans-30"/>
      </g>
     </g>
    </g>
    <g id="ytick_18">
     <g id="line2d_41">
      <g>
       <use xlink:href="#m0050edd71a" x="477.965" y="63.35774" style="stroke: #000000; stroke-width: 0.8"/>
      </g>
     </g>
     <g id="text_32">
      <!-- 2 -->
      <g transform="translate(464.6025 67.156958)scale(0.1 -0.1)">
       <use xlink:href="#DejaVuSans-32"/>
      </g>
     </g>
    </g>
    <g id="ytick_19">
     <g id="line2d_42">
      <g>
       <use xlink:href="#m0050edd71a" x="477.965" y="42.976014" style="stroke: #000000; stroke-width: 0.8"/>
      </g>
     </g>
     <g id="text_33">
      <!-- 4 -->
      <g transform="translate(464.6025 46.775233)scale(0.1 -0.1)">
       <use xlink:href="#DejaVuSans-34"/>
      </g>
     </g>
    </g>
    <g id="ytick_20">
     <g id="line2d_43">
      <g>
       <use xlink:href="#m0050edd71a" x="477.965" y="22.594288" style="stroke: #000000; stroke-width: 0.8"/>
      </g>
     </g>
     <g id="text_34">
      <!-- 6 -->
      <g transform="translate(464.6025 26.393507)scale(0.1 -0.1)">
       <use xlink:href="#DejaVuSans-36"/>
      </g>
     </g>
    </g>
    <g id="text_35">
     <!-- Acceleration -->
     <g transform="translate(450.143125 124.593146)rotate(-90)scale(0.1 -0.1)">
      <defs>
       <path id="DejaVuSans-41" d="M 2188 4044 
L 1331 1722 
L 3047 1722 
L 2188 4044 
z
M 1831 4666 
L 2547 4666 
L 4325 0 
L 3669 0 
L 3244 1197 
L 1141 1197 
L 716 0 
L 50 0 
L 1831 4666 
z
" transform="scale(0.015625)"/>
       <path id="DejaVuSans-72" d="M 2631 2963 
Q 2534 3019 2420 3045 
Q 2306 3072 2169 3072 
Q 1681 3072 1420 2755 
Q 1159 2438 1159 1844 
L 1159 0 
L 581 0 
L 581 3500 
L 1159 3500 
L 1159 2956 
Q 1341 3275 1631 3429 
Q 1922 3584 2338 3584 
Q 2397 3584 2469 3576 
Q 2541 3569 2628 3553 
L 2631 2963 
z
" transform="scale(0.015625)"/>
       <path id="DejaVuSans-61" d="M 2194 1759 
Q 1497 1759 1228 1600 
Q 959 1441 959 1056 
Q 959 750 1161 570 
Q 1363 391 1709 391 
Q 2188 391 2477 730 
Q 2766 1069 2766 1631 
L 2766 1759 
L 2194 1759 
z
M 3341 1997 
L 3341 0 
L 2766 0 
L 2766 531 
Q 2569 213 2275 61 
Q 1981 -91 1556 -91 
Q 1019 -91 701 211 
Q 384 513 384 1019 
Q 384 1609 779 1909 
Q 1175 2209 1959 2209 
L 2766 2209 
L 2766 2266 
Q 2766 2663 2505 2880 
Q 2244 3097 1772 3097 
Q 1472 3097 1187 3025 
Q 903 2953 641 2809 
L 641 3341 
Q 956 3463 1253 3523 
Q 1550 3584 1831 3584 
Q 2591 3584 2966 3190 
Q 3341 2797 3341 1997 
z
" transform="scale(0.015625)"/>
      </defs>
      <use xlink:href="#DejaVuSans-41"/>
      <use xlink:href="#DejaVuSans-63" x="66.658203"/>
      <use xlink:href="#DejaVuSans-63" x="121.638672"/>
      <use xlink:href="#DejaVuSans-65" x="176.619141"/>
      <use xlink:href="#DejaVuSans-6c" x="238.142578"/>
      <use xlink:href="#DejaVuSans-65" x="265.925781"/>
      <use xlink:href="#DejaVuSans-72" x="327.449219"/>
      <use xlink:href="#DejaVuSans-61" x="368.5625"/>
      <use xlink:href="#DejaVuSans-74" x="429.841797"/>
      <use xlink:href="#DejaVuSans-69" x="469.050781"/>
      <use xlink:href="#DejaVuSans-6f" x="496.833984"/>
      <use xlink:href="#DejaVuSans-6e" x="558.015625"/>
     </g>
    </g>
   </g>
   <g id="line2d_44">
    <path d="M 485.218295 130.03303 
L 489.138996 129.35416 
L 496.980396 125.535007 
L 500.465463 123.22903 
L 504.095741 121.242505 
L 507.435597 119.164861 
L 511.065875 117.661906 
L 515.422208 115.22026 
L 518.036009 113.834802 
L 523.699242 107.681544 
L 525.151354 106.130382 
L 529.362476 97.77582 
L 532.557121 92.233761 
L 536.33261 82.103024 
L 539.817677 74.996245 
L 543.447955 64.325103 
L 547.078233 57.040992 
L 550.708511 46.992166 
L 554.484 40.185218 
L 558.114278 32.012605 
L 561.454134 26.26516 
L 565.520045 23.444967 
L 568.71469 22.008471 
L 572.344968 22.634587 
L 579.460312 28.791051 
L 580.186368 30.0647 
L 583.816646 36.472629 
L 586.86608 41.248735 
L 590.931991 51.8446 
L 594.126636 58.742941 
L 597.902125 71.66881 
L 601.387192 80.283235 
L 605.162681 93.786929 
L 608.792959 102.491529 
L 612.423237 113.656043 
L 616.198726 120.875965 
L 619.538582 128.405476 
L 626.653927 136.482015 
L 630.284205 137.485808 
L 630.284205 137.485808 
" clip-path="url(#p807e5014dc)" style="fill: none; stroke: #1f77b4; stroke-width: 1.5; stroke-linecap: square"/>
   </g>
   <g id="line2d_45">
    <path d="M 485.218295 145.075779 
L 488.848573 143.131333 
L 493.350118 135.334917 
L 496.254341 130.710203 
L 500.02983 120.543376 
L 503.660108 113.554169 
L 507.290386 104.987363 
L 511.065875 98.587222 
L 514.405731 91.855518 
L 517.890798 87.647218 
L 521.811498 78.90339 
L 525.151354 73.457801 
L 529.072054 62.505357 
L 532.557121 54.892356 
L 536.187399 44.008198 
L 540.108099 36.257608 
L 543.447955 28.633728 
L 548.530344 22.809454 
L 550.5633 20.683455 
L 554.193578 20.369211 
L 557.823856 23.169093 
L 564.9392 36.659978 
L 565.374834 38.174291 
L 569.005112 51.367154 
L 572.490179 60.635613 
L 575.975246 72.481193 
L 583.09059 83.630301 
L 583.526224 83.813052 
L 587.011291 84.702482 
L 594.417058 84.052033 
L 598.337758 84.431978 
L 601.241981 85.084399 
L 602.113247 86.213287 
L 607.921692 94.137167 
L 608.502537 94.946446 
L 609.809437 99.321903 
L 613.004081 109.751668 
L 615.908304 118.594475 
L 619.683793 137.54121 
L 623.749704 151.461285 
L 626.799138 162.781937 
L 630.284205 166.720258 
L 630.284205 166.720258 
" clip-path="url(#p807e5014dc)" style="fill: none; stroke: #ff7f0e; stroke-width: 1.5; stroke-linecap: square"/>
   </g>
   <g id="line2d_46">
    <path d="M 485.218295 39.451136 
L 488.848573 41.556055 
L 494.076174 50.174805 
L 496.109129 53.354615 
L 500.02983 65.31987 
L 503.514897 73.249979 
L 507.290386 86.038333 
L 510.920664 94.520537 
L 514.405731 104.626073 
L 518.471642 111.907559 
L 521.666287 118.394481 
L 526.313042 122.891541 
L 528.926843 125.525737 
L 532.847543 126.798745 
L 536.187399 127.13303 
L 539.817677 125.786575 
L 547.078233 119.480875 
L 550.853722 113.100715 
L 554.338789 108.557917 
L 561.308922 94.721119 
L 561.889767 94.044856 
L 565.374834 90.212724 
L 568.859901 85.292025 
L 573.797079 81.217083 
L 576.120457 79.259869 
L 580.041157 77.351693 
L 583.671435 75.083077 
L 587.592135 73.250457 
L 590.931991 71.428896 
L 594.417058 70.07211 
L 598.482969 67.745235 
L 601.822825 66.092605 
L 606.033947 63.435286 
L 608.792959 61.808193 
L 612.85887 57.994997 
L 616.053515 55.419068 
L 619.829004 51.116275 
L 626.944349 45.332315 
L 630.284205 44.464355 
L 630.284205 44.464355 
" clip-path="url(#p807e5014dc)" style="fill: none; stroke: #2ca02c; stroke-width: 1.5; stroke-linecap: square"/>
   </g>
   <g id="line2d_47">
    <path d="M 485.218295 76.755465 
L 489.138996 77.660837 
L 496.109129 81.212436 
L 500.465463 84.982703 
L 504.240952 87.769541 
L 507.145175 90.153277 
L 511.211086 91.241239 
L 514.550942 91.496224 
L 518.036009 90.631066 
L 522.392342 87.723875 
L 525.296565 85.340194 
L 529.072054 79.801233 
L 532.41191 76.422469 
L 536.33261 69.469148 
L 540.25331 64.644337 
L 543.302744 60.347542 
L 546.933022 58.679947 
L 550.708511 59.706476 
L 554.193578 61.793688 
L 558.114278 67.686023 
L 561.599345 74.228986 
L 566.391312 79.940014 
L 568.859901 82.931586 
L 572.63539 85.418761 
L 576.265668 88.792296 
L 579.895946 91.158471 
L 583.526224 94.319967 
L 587.156502 96.469747 
L 590.496358 99.136662 
L 594.271847 99.654569 
L 598.047336 98.709986 
L 601.532403 96.880665 
L 605.307892 93.814332 
L 613.004081 89.654079 
L 615.908304 88.853156 
L 620.409848 89.509644 
L 623.314071 89.777382 
L 626.944349 90.880589 
L 630.284205 90.82351 
L 630.284205 90.82351 
" clip-path="url(#p807e5014dc)" style="fill: none; stroke: #d62728; stroke-width: 1.5; stroke-linecap: square"/>
   </g>
   <g id="line2d_48">
    <path d="M 485.218295 71.291985 
L 488.993785 70.227453 
L 494.076174 65.589724 
L 496.254341 63.658916 
L 499.884619 58.732277 
L 503.805319 56.277543 
L 506.999963 55.092884 
L 510.630241 56.503058 
L 518.036009 67.197438 
L 521.811498 75.936022 
L 525.441776 81.758431 
L 529.072054 89.019539 
L 532.557121 94.082652 
L 536.477821 102.263777 
L 539.817677 107.910984 
L 543.447955 116.937332 
L 550.708511 128.684609 
L 554.193578 129.695005 
L 557.823856 125.881662 
L 565.084412 108.943588 
L 568.859901 92.693346 
L 572.490179 81.396324 
L 576.120457 66.771239 
L 583.235802 49.967643 
L 586.86608 47.556244 
L 590.496358 49.300846 
L 594.126636 53.366324 
L 598.192547 61.9535 
L 601.677614 68.141558 
L 605.162681 75.604486 
L 608.792959 81.141402 
L 612.568448 88.494172 
L 615.908304 93.754432 
L 619.829004 103.885133 
L 624.47576 113.578189 
L 626.799138 118.482134 
L 630.284205 121.195267 
L 630.284205 121.195267 
" clip-path="url(#p807e5014dc)" style="fill: none; stroke: #9467bd; stroke-width: 1.5; stroke-linecap: square"/>
   </g>
   <g id="line2d_49">
    <path d="M 485.218295 127.285189 
L 489.138996 126.06135 
L 496.109129 122.056399 
L 500.02983 116.503369 
L 503.514897 112.86918 
L 507.290386 106.23679 
L 510.920664 101.567012 
L 514.550942 95.751466 
L 518.18122 91.793849 
L 521.811498 86.661963 
L 525.296565 83.428661 
L 529.362476 77.609947 
L 532.557121 73.567997 
L 536.33261 65.908207 
L 539.672466 61.121533 
L 543.447955 52.268936 
L 547.804288 45.895167 
L 550.708511 41.342597 
L 554.484 38.34762 
L 557.969067 36.80544 
L 562.034978 36.908965 
L 565.229623 37.494232 
L 572.344968 42.0492 
L 577.572568 48.668528 
L 579.605524 51.209933 
L 583.671435 60.697453 
L 586.86608 66.794055 
L 590.641569 78.132018 
L 594.271847 85.794959 
L 597.902125 95.475732 
L 601.968036 102.24208 
L 605.01747 107.868885 
L 608.93817 111.679403 
L 612.423237 115.83401 
L 616.489148 118.372398 
L 619.683793 120.72898 
L 626.653927 123.563168 
L 630.284205 123.922507 
L 630.284205 123.922507 
" clip-path="url(#p807e5014dc)" style="fill: none; stroke: #8c564b; stroke-width: 1.5; stroke-linecap: square"/>
   </g>
   <g id="line2d_50">
    <path d="M 485.218295 128.175452 
L 489.138996 129.21481 
L 494.366596 132.238741 
L 496.980396 133.754411 
L 500.02983 135.663748 
L 503.660108 136.614101 
L 507.145175 136.363753 
L 510.630241 134.555555 
L 516.293475 127.602675 
L 518.036009 125.388875 
L 521.811498 117.715073 
L 525.296565 113.02587 
L 529.072054 105.951049 
L 532.847543 100.919223 
L 536.33261 95.370813 
L 539.817677 91.526916 
L 543.593166 85.101014 
L 547.078233 80.540367 
L 550.853722 73.159902 
L 554.338789 67.847633 
L 560.728078 52.888794 
L 561.744556 50.716973 
L 565.374834 44.403481 
L 568.859901 36.982282 
L 573.506657 31.280657 
L 575.975246 28.09832 
L 579.605524 26.691172 
L 583.381013 27.199643 
L 586.86608 29.213159 
L 591.803258 35.418765 
L 594.126636 38.246159 
L 598.192547 46.826229 
L 601.387192 52.459107 
L 605.162681 63.115686 
L 608.647748 70.330493 
L 612.423237 81.428909 
L 616.634359 89.503734 
L 619.538582 95.534599 
L 623.604493 99.838765 
L 626.799138 102.438871 
L 630.284205 102.981651 
L 630.284205 102.981651 
" clip-path="url(#p807e5014dc)" style="fill: none; stroke: #e377c2; stroke-width: 1.5; stroke-linecap: square"/>
   </g>
   <g id="patch_13">
    <path d="M 477.965 174.04 
L 477.965 13.005667 
" style="fill: none; stroke: #000000; stroke-width: 0.8; stroke-linejoin: miter; stroke-linecap: square"/>
   </g>
   <g id="patch_14">
    <path d="M 637.5375 174.04 
L 637.5375 13.005667 
" style="fill: none; stroke: #000000; stroke-width: 0.8; stroke-linejoin: miter; stroke-linecap: square"/>
   </g>
   <g id="patch_15">
    <path d="M 477.965 174.04 
L 637.5375 174.04 
" style="fill: none; stroke: #000000; stroke-width: 0.8; stroke-linejoin: miter; stroke-linecap: square"/>
   </g>
   <g id="patch_16">
    <path d="M 477.965 13.005667 
L 637.5375 13.005667 
" style="fill: none; stroke: #000000; stroke-width: 0.8; stroke-linejoin: miter; stroke-linecap: square"/>
   </g>
  </g>
  <g id="axes_4">
   <g id="patch_17">
    <path d="M 693.6275 174.04 
L 853.2 174.04 
L 853.2 13.005667 
L 693.6275 13.005667 
z
" style="fill: #ffffff"/>
   </g>
   <g id="matplotlib.axis_7">
    <g id="xtick_10">
     <g id="line2d_51">
      <g>
       <use xlink:href="#mba761c842b" x="700.880795" y="174.04" style="stroke: #000000; stroke-width: 0.8"/>
      </g>
     </g>
     <g id="text_36">
      <!-- 0.0 -->
      <g transform="translate(692.929233 188.638438)scale(0.1 -0.1)">
       <use xlink:href="#DejaVuSans-30"/>
       <use xlink:href="#DejaVuSans-2e" x="63.623047"/>
       <use xlink:href="#DejaVuSans-30" x="95.410156"/>
      </g>
     </g>
    </g>
    <g id="xtick_11">
     <g id="line2d_52">
      <g>
       <use xlink:href="#mba761c842b" x="757.421098" y="174.04" style="stroke: #000000; stroke-width: 0.8"/>
      </g>
     </g>
     <g id="text_37">
      <!-- 0.5 -->
      <g transform="translate(749.469536 188.638438)scale(0.1 -0.1)">
       <use xlink:href="#DejaVuSans-30"/>
       <use xlink:href="#DejaVuSans-2e" x="63.623047"/>
       <use xlink:href="#DejaVuSans-35" x="95.410156"/>
      </g>
     </g>
    </g>
    <g id="xtick_12">
     <g id="line2d_53">
      <g>
       <use xlink:href="#mba761c842b" x="813.961401" y="174.04" style="stroke: #000000; stroke-width: 0.8"/>
      </g>
     </g>
     <g id="text_38">
      <!-- 1.0 -->
      <g transform="translate(806.009838 188.638438)scale(0.1 -0.1)">
       <use xlink:href="#DejaVuSans-31"/>
       <use xlink:href="#DejaVuSans-2e" x="63.623047"/>
       <use xlink:href="#DejaVuSans-30" x="95.410156"/>
      </g>
     </g>
    </g>
    <g id="text_39">
     <!-- Time -->
     <g transform="translate(761.180156 202.316563)scale(0.1 -0.1)">
      <use xlink:href="#DejaVuSans-54"/>
      <use xlink:href="#DejaVuSans-69" x="57.958984"/>
      <use xlink:href="#DejaVuSans-6d" x="85.742188"/>
      <use xlink:href="#DejaVuSans-65" x="183.154297"/>
     </g>
    </g>
   </g>
   <g id="matplotlib.axis_8">
    <g id="ytick_21">
     <g id="line2d_54">
      <g>
       <use xlink:href="#m0050edd71a" x="693.6275" y="170.62221" style="stroke: #000000; stroke-width: 0.8"/>
      </g>
     </g>
     <g id="text_40">
      <!-- −60 -->
      <g transform="translate(665.522812 174.421428)scale(0.1 -0.1)">
       <use xlink:href="#DejaVuSans-2212"/>
       <use xlink:href="#DejaVuSans-36" x="83.789062"/>
       <use xlink:href="#DejaVuSans-30" x="147.412109"/>
      </g>
     </g>
    </g>
    <g id="ytick_22">
     <g id="line2d_55">
      <g>
       <use xlink:href="#m0050edd71a" x="693.6275" y="142.959421" style="stroke: #000000; stroke-width: 0.8"/>
      </g>
     </g>
     <g id="text_41">
      <!-- −40 -->
      <g transform="translate(665.522812 146.75864)scale(0.1 -0.1)">
       <use xlink:href="#DejaVuSans-2212"/>
       <use xlink:href="#DejaVuSans-34" x="83.789062"/>
       <use xlink:href="#DejaVuSans-30" x="147.412109"/>
      </g>
     </g>
    </g>
    <g id="ytick_23">
     <g id="line2d_56">
      <g>
       <use xlink:href="#m0050edd71a" x="693.6275" y="115.296633" style="stroke: #000000; stroke-width: 0.8"/>
      </g>
     </g>
     <g id="text_42">
      <!-- −20 -->
      <g transform="translate(665.522812 119.095852)scale(0.1 -0.1)">
       <use xlink:href="#DejaVuSans-2212"/>
       <use xlink:href="#DejaVuSans-32" x="83.789062"/>
       <use xlink:href="#DejaVuSans-30" x="147.412109"/>
      </g>
     </g>
    </g>
    <g id="ytick_24">
     <g id="line2d_57">
      <g>
       <use xlink:href="#m0050edd71a" x="693.6275" y="87.633845" style="stroke: #000000; stroke-width: 0.8"/>
      </g>
     </g>
     <g id="text_43">
      <!-- 0 -->
      <g transform="translate(680.265 91.433064)scale(0.1 -0.1)">
       <use xlink:href="#DejaVuSans-30"/>
      </g>
     </g>
    </g>
    <g id="ytick_25">
     <g id="line2d_58">
      <g>
       <use xlink:href="#m0050edd71a" x="693.6275" y="59.971057" style="stroke: #000000; stroke-width: 0.8"/>
      </g>
     </g>
     <g id="text_44">
      <!-- 20 -->
      <g transform="translate(673.9025 63.770276)scale(0.1 -0.1)">
       <use xlink:href="#DejaVuSans-32"/>
       <use xlink:href="#DejaVuSans-30" x="63.623047"/>
      </g>
     </g>
    </g>
    <g id="ytick_26">
     <g id="line2d_59">
      <g>
       <use xlink:href="#m0050edd71a" x="693.6275" y="32.308269" style="stroke: #000000; stroke-width: 0.8"/>
      </g>
     </g>
     <g id="text_45">
      <!-- 40 -->
      <g transform="translate(673.9025 36.107488)scale(0.1 -0.1)">
       <use xlink:href="#DejaVuSans-34"/>
       <use xlink:href="#DejaVuSans-30" x="63.623047"/>
      </g>
     </g>
    </g>
    <g id="text_46">
     <!-- Jerk -->
     <g transform="translate(659.443125 103.025177)rotate(-90)scale(0.1 -0.1)">
      <defs>
       <path id="DejaVuSans-4a" d="M 628 4666 
L 1259 4666 
L 1259 325 
Q 1259 -519 939 -900 
Q 619 -1281 -91 -1281 
L -331 -1281 
L -331 -750 
L -134 -750 
Q 284 -750 456 -515 
Q 628 -281 628 325 
L 628 4666 
z
" transform="scale(0.015625)"/>
       <path id="DejaVuSans-6b" d="M 581 4863 
L 1159 4863 
L 1159 1991 
L 2875 3500 
L 3609 3500 
L 1753 1863 
L 3688 0 
L 2938 0 
L 1159 1709 
L 1159 0 
L 581 0 
L 581 4863 
z
" transform="scale(0.015625)"/>
      </defs>
      <use xlink:href="#DejaVuSans-4a"/>
      <use xlink:href="#DejaVuSans-65" x="29.492188"/>
      <use xlink:href="#DejaVuSans-72" x="91.015625"/>
      <use xlink:href="#DejaVuSans-6b" x="132.128906"/>
     </g>
    </g>
   </g>
   <g id="line2d_60">
    <path d="M 700.880795 85.35217 
L 704.365862 85.35217 
L 704.511073 80.341744 
L 707.99614 80.341744 
L 708.141351 80.786887 
L 711.626418 80.786887 
L 711.771629 76.885133 
L 715.256696 76.885133 
L 715.401907 79.678295 
L 718.886974 79.678295 
L 719.032185 77.517994 
L 722.517252 77.517994 
L 722.662463 81.668338 
L 726.14753 81.668338 
L 726.292741 78.609111 
L 729.777808 78.609111 
L 729.923019 80.155328 
L 733.408086 80.155328 
L 733.553298 70.507224 
L 737.038364 70.507224 
L 737.183576 71.660432 
L 740.668642 71.660432 
L 740.813854 56.345123 
L 744.29892 56.345123 
L 744.444132 62.010291 
L 747.929198 62.010291 
L 748.07441 45.380419 
L 751.559476 45.380419 
L 751.704688 57.230791 
L 755.189754 57.230791 
L 755.334966 41.624741 
L 758.820032 41.624741 
L 758.965244 57.603543 
L 762.45031 57.603543 
L 762.595522 44.18832 
L 766.080588 44.18832 
L 766.2258 60.777863 
L 769.710866 60.777863 
L 769.856078 52.217729 
L 773.341144 52.217729 
L 773.486356 60.86609 
L 776.971422 60.86609 
L 777.116634 76.480965 
L 780.6017 76.480965 
L 780.746912 80.483216 
L 784.231978 80.483216 
L 784.37719 90.026415 
L 787.862256 90.026415 
L 788.007468 100.628744 
L 791.492534 100.628744 
L 791.637746 101.19486 
L 795.122812 101.19486 
L 795.268024 115.562563 
L 798.75309 115.562563 
L 798.898302 111.081419 
L 802.383368 111.081419 
L 802.52858 128.793425 
L 806.013646 128.793425 
L 806.158858 120.050561 
L 809.643924 120.050561 
L 809.789136 141.295473 
L 813.274202 141.295473 
L 813.419414 124.936129 
L 816.904481 124.936129 
L 817.049692 143.965269 
L 820.534759 143.965269 
L 820.67997 123.48261 
L 824.165037 123.48261 
L 824.310248 136.341986 
L 827.795315 136.341986 
L 827.940526 116.235001 
L 831.425593 116.235001 
L 831.570804 122.945322 
L 835.055871 122.945322 
L 835.201082 105.266562 
L 838.686149 105.266562 
L 838.83136 104.850716 
L 842.316427 104.850716 
L 842.461638 91.864584 
L 845.946705 91.864584 
L 845.946705 91.864584 
" clip-path="url(#p3241b96cd8)" style="fill: none; stroke: #1f77b4; stroke-width: 1.5; stroke-linecap: square"/>
   </g>
   <g id="line2d_61">
    <path d="M 700.880795 79.432474 
L 704.365862 79.432474 
L 704.511073 60.285493 
L 707.99614 60.285493 
L 708.141351 64.215746 
L 711.626418 64.215746 
L 711.771629 45.206795 
L 715.256696 45.206795 
L 715.401907 58.801198 
L 718.886974 58.801198 
L 719.032185 50.382833 
L 722.517252 50.382833 
L 722.662463 62.396859 
L 726.14753 62.396859 
L 726.292741 56.008254 
L 729.777808 56.008254 
L 729.923019 69.257794 
L 733.408086 69.257794 
L 733.553298 52.5485 
L 737.038364 52.5485 
L 737.183576 62.837058 
L 740.668642 62.837058 
L 740.813854 43.816725 
L 744.29892 43.816725 
L 744.444132 54.892168 
L 747.929198 54.892168 
L 748.07441 40.676995 
L 751.559476 40.676995 
L 751.704688 58.121336 
L 755.189754 58.121336 
L 755.334966 51.502146 
L 758.820032 51.502146 
L 758.965244 69.533457 
L 762.45031 69.533457 
L 762.595522 71.103064 
L 766.080588 71.103064 
L 766.2258 86.057068 
L 769.710866 86.057068 
L 769.856078 99.122954 
L 773.341144 99.122954 
L 773.486356 116.519191 
L 776.971422 116.519191 
L 777.116634 116.947344 
L 780.6017 116.947344 
L 780.746912 145.226025 
L 784.231978 145.226025 
L 784.37719 127.586902 
L 787.862256 127.586902 
L 788.007468 140.543854 
L 791.492534 140.543854 
L 791.637746 111.977618 
L 795.122812 111.977618 
L 795.268024 111.390588 
L 798.75309 111.390588 
L 798.898302 91.968198 
L 802.383368 91.968198 
L 802.52858 86.074944 
L 806.013646 86.074944 
L 806.304069 86.216593 
L 809.643924 86.216593 
L 809.789136 88.699945 
L 813.274202 88.699945 
L 813.419414 91.081638 
L 816.904481 91.081638 
L 817.049692 108.086461 
L 820.534759 108.086461 
L 820.67997 109.017473 
L 824.165037 109.017473 
L 824.310248 139.525879 
L 827.795315 139.525879 
L 827.940526 132.840057 
L 831.425593 132.840057 
L 831.570804 166.720258 
L 835.055871 166.720258 
L 835.201082 138.81211 
L 838.686149 138.81211 
L 838.83136 146.539979 
L 842.316427 146.539979 
L 842.461638 104.977596 
L 845.946705 104.977596 
L 845.946705 104.977596 
" clip-path="url(#p3241b96cd8)" style="fill: none; stroke: #ff7f0e; stroke-width: 1.5; stroke-linecap: square"/>
   </g>
   <g id="line2d_62">
    <path d="M 700.880795 96.51574 
L 704.365862 96.51574 
L 704.511073 113.56949 
L 707.99614 113.56949 
L 708.141351 111.510854 
L 711.626418 111.510854 
L 711.771629 135.554232 
L 715.256696 135.554232 
L 715.401907 121.642119 
L 718.886974 121.642119 
L 719.032185 141.155612 
L 722.517252 141.155612 
L 722.662463 122.580854 
L 726.14753 122.580854 
L 726.292741 133.076592 
L 729.777808 133.076592 
L 729.923019 114.285859 
L 733.408086 114.285859 
L 733.553298 119.810237 
L 737.038364 119.810237 
L 737.183576 101.999757 
L 740.668642 101.999757 
L 740.813854 103.884382 
L 744.29892 103.884382 
L 744.444132 93.041685 
L 747.929198 93.041685 
L 748.07441 89.5937 
L 751.559476 89.5937 
L 751.704688 82.374982 
L 755.189754 82.374982 
L 755.334966 74.492553 
L 758.820032 74.492553 
L 758.965244 74.885669 
L 762.45031 74.885669 
L 762.595522 61.006763 
L 766.080588 61.006763 
L 766.2258 68.34165 
L 769.710866 68.34165 
L 769.856078 56.730845 
L 773.341144 56.730845 
L 773.486356 57.583961 
L 776.971422 57.583961 
L 777.116634 71.406298 
L 780.6017 71.406298 
L 780.746912 65.30213 
L 784.231978 65.30213 
L 784.37719 75.385489 
L 787.862256 75.385489 
L 788.007468 74.041546 
L 791.492534 74.041546 
L 791.637746 80.573508 
L 795.122812 80.573508 
L 795.268024 77.545991 
L 798.75309 77.545991 
L 798.898302 80.92591 
L 802.383368 80.92591 
L 802.52858 78.718983 
L 806.013646 78.718983 
L 806.158858 82.079202 
L 809.643924 82.079202 
L 809.789136 78.409991 
L 813.274202 78.409991 
L 813.419414 80.545963 
L 816.904481 80.545963 
L 817.049692 77.480449 
L 820.534759 77.480449 
L 820.67997 79.217237 
L 824.165037 79.217237 
L 824.310248 72.700703 
L 827.795315 72.700703 
L 827.940526 75.798664 
L 831.425593 75.798664 
L 831.570804 69.545083 
L 835.055871 69.545083 
L 835.201082 74.856477 
L 842.316427 74.752903 
L 842.461638 83.645294 
L 845.946705 83.645294 
L 845.946705 83.645294 
" clip-path="url(#p3241b96cd8)" style="fill: none; stroke: #2ca02c; stroke-width: 1.5; stroke-linecap: square"/>
   </g>
   <g id="line2d_63">
    <path d="M 700.880795 90.846357 
L 704.365862 90.846357 
L 704.511073 95.267635 
L 707.99614 95.267635 
L 708.141351 95.607679 
L 711.626418 95.607679 
L 711.771629 101.428144 
L 715.256696 101.428144 
L 715.401907 98.42012 
L 718.886974 98.42012 
L 719.032185 100.722839 
L 722.517252 100.722839 
L 722.662463 92.16857 
L 726.14753 92.16857 
L 726.292741 89.298349 
L 729.777808 89.298349 
L 729.923019 84.146699 
L 733.408086 84.146699 
L 733.553298 77.821006 
L 737.038364 77.821006 
L 737.183576 75.759813 
L 740.668642 75.759813 
L 740.813854 64.421696 
L 744.29892 64.421696 
L 744.444132 72.287131 
L 747.929198 72.287131 
L 748.07441 59.564889 
L 751.559476 59.564889 
L 751.704688 69.330596 
L 755.189754 69.330596 
L 755.334966 65.728878 
L 758.820032 65.728878 
L 758.965244 80.394536 
L 762.45031 80.394536 
L 762.595522 91.526103 
L 766.080588 91.526103 
L 766.2258 96.558852 
L 769.710866 96.558852 
L 769.856078 110.036658 
L 773.341144 110.036658 
L 773.486356 117.19599 
L 776.971422 117.19599 
L 777.116634 105.424978 
L 780.6017 105.424978 
L 780.746912 107.153157 
L 784.231978 107.153157 
L 784.37719 97.221549 
L 787.862256 97.221549 
L 788.007468 102.45035 
L 791.492534 102.45035 
L 791.637746 97.171871 
L 795.122812 97.171871 
L 795.268024 101.562722 
L 798.75309 101.562722 
L 798.898302 96.3006 
L 802.383368 96.3006 
L 802.52858 100.206629 
L 806.013646 100.206629 
L 806.158858 90.135278 
L 809.643924 90.135278 
L 809.789136 84.250444 
L 813.274202 84.250444 
L 813.419414 79.974151 
L 816.904481 79.974151 
L 817.049692 74.68946 
L 820.534759 74.68946 
L 820.67997 79.102321 
L 824.165037 79.102321 
L 824.310248 78.665738 
L 827.795315 78.665738 
L 827.940526 83.079829 
L 831.425593 83.079829 
L 831.570804 90.223028 
L 835.055871 90.223028 
L 835.201082 88.652069 
L 838.686149 88.652069 
L 838.83136 92.720426 
L 842.316427 92.720426 
L 842.461638 87.371548 
L 845.946705 87.371548 
L 845.946705 87.371548 
" clip-path="url(#p3241b96cd8)" style="fill: none; stroke: #d62728; stroke-width: 1.5; stroke-linecap: square"/>
   </g>
   <g id="line2d_64">
    <path d="M 700.880795 83.722465 
L 704.365862 83.722465 
L 704.511073 73.16945 
L 707.99614 73.16945 
L 708.141351 74.624807 
L 711.626418 74.624807 
L 711.771629 66.312298 
L 715.256696 66.312298 
L 715.401907 77.522289 
L 718.886974 77.522289 
L 719.032185 81.863283 
L 722.517252 81.863283 
L 722.662463 93.483501 
L 726.14753 93.483501 
L 726.292741 109.50104 
L 729.777808 109.50104 
L 730.068231 109.381352 
L 733.408086 109.381352 
L 733.553298 124.256681 
L 737.038364 124.256681 
L 737.183576 111.54873 
L 740.668642 111.54873 
L 740.813854 119.246106 
L 744.29892 119.246106 
L 744.444132 109.305447 
L 747.929198 109.305447 
L 748.07441 120.63642 
L 751.559476 120.63642 
L 751.704688 112.759459 
L 755.189754 112.759459 
L 755.334966 126.560925 
L 758.820032 126.560925 
L 758.965244 112.873939 
L 762.45031 112.873939 
L 762.595522 113.240201 
L 766.080588 113.240201 
L 766.2258 92.490723 
L 769.710866 92.490723 
L 769.856078 71.913853 
L 773.341144 71.913853 
L 773.486356 51.831778 
L 776.971422 51.831778 
L 777.116634 52.520796 
L 780.6017 52.520796 
L 780.746912 20.325409 
L 784.231978 20.325409 
L 784.37719 40.956718 
L 787.862256 40.956718 
L 788.007468 24.031842 
L 791.492534 24.031842 
L 791.637746 51.288181 
L 795.122812 51.288181 
L 795.268024 50.79215 
L 798.75309 50.79215 
L 798.898302 76.941067 
L 802.383368 76.941067 
L 802.52858 94.731368 
L 806.013646 94.731368 
L 806.158858 104.321519 
L 809.643924 104.321519 
L 809.789136 120.98517 
L 813.274202 120.98517 
L 813.419414 114.034459 
L 816.904481 114.034459 
L 817.049692 121.325601 
L 820.534759 121.325601 
L 820.67997 110.460795 
L 824.165037 110.460795 
L 824.310248 118.317843 
L 827.795315 118.317843 
L 827.940526 111.134199 
L 831.425593 111.134199 
L 831.570804 128.312749 
L 835.055871 128.312749 
L 835.201082 118.879026 
L 838.686149 118.879026 
L 838.83136 121.354946 
L 842.316427 121.354946 
L 842.461638 99.582061 
L 845.946705 99.582061 
L 845.946705 99.582061 
" clip-path="url(#p3241b96cd8)" style="fill: none; stroke: #9467bd; stroke-width: 1.5; stroke-linecap: square"/>
   </g>
   <g id="line2d_65">
    <path d="M 700.880795 83.148289 
L 704.365862 83.148289 
L 704.511073 79.079023 
L 707.99614 79.079023 
L 708.141351 78.613264 
L 711.626418 78.613264 
L 711.771629 65.364491 
L 715.256696 65.364491 
L 715.401907 72.202694 
L 718.886974 72.202694 
L 719.032185 59.973253 
L 722.517252 59.973253 
L 722.662463 68.430436 
L 726.14753 68.430436 
L 726.292741 62.235413 
L 729.777808 62.235413 
L 729.923019 71.46383 
L 733.408086 71.46383 
L 733.553298 65.154064 
L 737.038364 65.154064 
L 737.183576 73.862472 
L 740.668642 73.862472 
L 740.813854 65.060808 
L 744.29892 65.060808 
L 744.444132 69.026367 
L 747.929198 69.026367 
L 748.07441 55.563414 
L 751.559476 55.563414 
L 751.704688 65.882848 
L 755.189754 65.882848 
L 755.334966 50.838545 
L 758.820032 50.838545 
L 758.965244 65.857643 
L 762.45031 65.857643 
L 762.595522 62.686888 
L 766.080588 62.686888 
L 766.2258 74.940443 
L 769.710866 74.940443 
L 769.856078 80.387937 
L 773.341144 80.387937 
L 773.486356 87.658146 
L 776.971422 87.658146 
L 777.116634 89.925829 
L 780.6017 89.925829 
L 780.746912 97.302988 
L 787.862256 97.36148 
L 788.007468 107.596545 
L 791.492534 107.596545 
L 791.637746 105.958229 
L 795.122812 105.958229 
L 795.268024 124.520686 
L 798.75309 124.520686 
L 798.898302 116.337281 
L 802.383368 116.337281 
L 802.52858 134.74891 
L 806.013646 134.74891 
L 806.158858 119.295801 
L 809.643924 119.295801 
L 809.789136 129.789987 
L 813.274202 129.789987 
L 813.419414 112.48255 
L 816.904481 112.48255 
L 817.049692 116.521508 
L 820.534759 116.521508 
L 820.67997 102.059522 
L 824.165037 102.059522 
L 824.310248 106.708314 
L 827.795315 106.708314 
L 827.940526 96.747078 
L 831.425593 96.747078 
L 831.570804 99.4241 
L 835.055871 99.4241 
L 835.201082 94.066662 
L 838.686149 94.066662 
L 838.83136 93.696984 
L 842.316427 93.696984 
L 842.461638 89.148472 
L 845.946705 89.148472 
L 845.946705 89.148472 
" clip-path="url(#p3241b96cd8)" style="fill: none; stroke: #8c564b; stroke-width: 1.5; stroke-linecap: square"/>
   </g>
   <g id="line2d_66">
    <path d="M 700.880795 91.28339 
L 704.365862 91.28339 
L 704.511073 96.870766 
L 707.99614 96.870766 
L 708.141351 95.880495 
L 711.626418 95.880495 
L 711.771629 97.815456 
L 715.256696 97.815456 
L 715.401907 92.095618 
L 718.886974 92.095618 
L 719.032185 86.872436 
L 722.517252 86.872436 
L 722.662463 79.754074 
L 726.14753 79.754074 
L 726.292741 68.337097 
L 729.777808 68.337097 
L 729.923019 69.584102 
L 733.408086 69.584102 
L 733.553298 55.392494 
L 737.038364 55.392494 
L 737.183576 67.487396 
L 740.668642 67.487396 
L 740.813854 57.998961 
L 744.29892 57.998961 
L 744.444132 67.891608 
L 747.929198 67.891608 
L 748.07441 62.319576 
L 751.559476 62.319576 
L 751.704688 71.306147 
L 755.189754 71.306147 
L 755.334966 60.829414 
L 758.820032 60.829414 
L 758.965244 68.224012 
L 762.45031 68.224012 
L 762.595522 56.863212 
L 766.080588 56.863212 
L 766.2258 65.017606 
L 769.710866 65.017606 
L 769.856078 52.355925 
L 773.341144 52.355925 
L 773.486356 50.95079 
L 776.971422 50.95079 
L 777.116634 61.73758 
L 780.6017 61.73758 
L 780.746912 53.941247 
L 784.231978 53.941247 
L 784.37719 69.343693 
L 787.862256 69.343693 
L 788.007468 67.328254 
L 791.492534 67.328254 
L 791.637746 81.482776 
L 795.122812 81.482776 
L 795.268024 89.255233 
L 798.75309 89.255233 
L 798.898302 96.171852 
L 802.383368 96.171852 
L 802.52858 107.458862 
L 806.013646 107.458862 
L 806.158858 105.590894 
L 809.643924 105.590894 
L 809.789136 120.952161 
L 813.274202 120.952161 
L 813.419414 114.047332 
L 816.904481 114.047332 
L 817.049692 131.866013 
L 820.534759 131.866013 
L 820.67997 118.869736 
L 824.165037 118.869736 
L 824.310248 134.032049 
L 827.795315 134.032049 
L 827.940526 116.2526 
L 831.425593 116.2526 
L 831.570804 120.236097 
L 835.055871 120.236097 
L 835.201082 104.420781 
L 838.686149 104.420781 
L 838.83136 100.593678 
L 842.316427 100.593678 
L 842.461638 90.024166 
L 845.946705 90.024166 
L 845.946705 90.024166 
" clip-path="url(#p3241b96cd8)" style="fill: none; stroke: #e377c2; stroke-width: 1.5; stroke-linecap: square"/>
   </g>
   <g id="patch_18">
    <path d="M 693.6275 174.04 
L 693.6275 13.005667 
" style="fill: none; stroke: #000000; stroke-width: 0.8; stroke-linejoin: miter; stroke-linecap: square"/>
   </g>
   <g id="patch_19">
    <path d="M 853.2 174.04 
L 853.2 13.005667 
" style="fill: none; stroke: #000000; stroke-width: 0.8; stroke-linejoin: miter; stroke-linecap: square"/>
   </g>
   <g id="patch_20">
    <path d="M 693.6275 174.04 
L 853.2 174.04 
" style="fill: none; stroke: #000000; stroke-width: 0.8; stroke-linejoin: miter; stroke-linecap: square"/>
   </g>
   <g id="patch_21">
    <path d="M 693.6275 13.005667 
L 853.2 13.005667 
" style="fill: none; stroke: #000000; stroke-width: 0.8; stroke-linejoin: miter; stroke-linecap: square"/>
   </g>
  </g>
 </g>
 <defs>
  <clipPath id="p0cd8172d06">
   <rect x="46.64" y="13.005667" width="159.5725" height="161.034333"/>
  </clipPath>
  <clipPath id="p1c39585063">
   <rect x="262.3025" y="13.005667" width="159.5725" height="161.034333"/>
  </clipPath>
  <clipPath id="p807e5014dc">
   <rect x="477.965" y="13.005667" width="159.5725" height="161.034333"/>
  </clipPath>
  <clipPath id="p3241b96cd8">
   <rect x="693.6275" y="13.005667" width="159.5725" height="161.034333"/>
  </clipPath>
 </defs>
</svg>
