<?xml version="1.0" encoding="utf-8" standalone="no"?>
<!DOCTYPE svg PUBLIC "-//W3C//DTD SVG 1.1//EN"
  "http://www.w3.org/Graphics/SVG/1.1/DTD/svg11.dtd">
<svg xmlns:xlink="http://www.w3.org/1999/xlink" width="864pt" height="216pt" viewBox="0 0 864 216" xmlns="http://www.w3.org/2000/svg" version="1.1">
 <metadata>
  <rdf:RDF xmlns:dc="http://purl.org/dc/elements/1.1/" xmlns:cc="http://creativecommons.org/ns#" xmlns:rdf="http://www.w3.org/1999/02/22-rdf-syntax-ns#">
   <cc:Work>
    <dc:type rdf:resource="http://purl.org/dc/dcmitype/StillImage"/>
    <dc:date>2023-07-24T16:30:22.585530</dc:date>
    <dc:format>image/svg+xml</dc:format>
    <dc:creator>
     <cc:Agent>
      <dc:title>Matplotlib v3.5.2, https://matplotlib.org/</dc:title>
     </cc:Agent>
    </dc:creator>
   </cc:Work>
  </rdf:RDF>
 </metadata>
 <defs>
  <style type="text/css">*{stroke-linejoin: round; stroke-linecap: butt}</style>
 </defs>
 <g id="figure_1">
  <g id="patch_1">
   <path d="M 0 216 
L 864 216 
L 864 0 
L 0 0 
z
" style="fill: #ffffff"/>
  </g>
  <g id="axes_1">
   <g id="patch_2">
    <path d="M 46.64 174.04 
L 201.555 174.04 
L 201.555 13.007933 
L 46.64 13.007933 
z
" style="fill: #ffffff"/>
   </g>
   <g id="matplotlib.axis_1">
    <g id="xtick_1">
     <g id="line2d_1">
      <defs>
       <path id="m06f0307809" d="M 0 0 
L 0 3.5 
" style="stroke: #000000; stroke-width: 0.8"/>
      </defs>
      <g>
       <use xlink:href="#m06f0307809" x="53.681591" y="174.04" style="stroke: #000000; stroke-width: 0.8"/>
      </g>
     </g>
     <g id="text_1">
      <!-- 0.0 -->
      <g transform="translate(45.730028 188.638438)scale(0.1 -0.1)">
       <defs>
        <path id="DejaVuSans-30" d="M 2034 4250 
Q 1547 4250 1301 3770 
Q 1056 3291 1056 2328 
Q 1056 1369 1301 889 
Q 1547 409 2034 409 
Q 2525 409 2770 889 
Q 3016 1369 3016 2328 
Q 3016 3291 2770 3770 
Q 2525 4250 2034 4250 
z
M 2034 4750 
Q 2819 4750 3233 4129 
Q 3647 3509 3647 2328 
Q 3647 1150 3233 529 
Q 2819 -91 2034 -91 
Q 1250 -91 836 529 
Q 422 1150 422 2328 
Q 422 3509 836 4129 
Q 1250 4750 2034 4750 
z
" transform="scale(0.015625)"/>
        <path id="DejaVuSans-2e" d="M 684 794 
L 1344 794 
L 1344 0 
L 684 0 
L 684 794 
z
" transform="scale(0.015625)"/>
       </defs>
       <use xlink:href="#DejaVuSans-30"/>
       <use xlink:href="#DejaVuSans-2e" x="63.623047"/>
       <use xlink:href="#DejaVuSans-30" x="95.410156"/>
      </g>
     </g>
    </g>
    <g id="xtick_2">
     <g id="line2d_2">
      <g>
       <use xlink:href="#m06f0307809" x="111.911697" y="174.04" style="stroke: #000000; stroke-width: 0.8"/>
      </g>
     </g>
     <g id="text_2">
      <!-- 0.5 -->
      <g transform="translate(103.960134 188.638438)scale(0.1 -0.1)">
       <defs>
        <path id="DejaVuSans-35" d="M 691 4666 
L 3169 4666 
L 3169 4134 
L 1269 4134 
L 1269 2991 
Q 1406 3038 1543 3061 
Q 1681 3084 1819 3084 
Q 2600 3084 3056 2656 
Q 3513 2228 3513 1497 
Q 3513 744 3044 326 
Q 2575 -91 1722 -91 
Q 1428 -91 1123 -41 
Q 819 9 494 109 
L 494 744 
Q 775 591 1075 516 
Q 1375 441 1709 441 
Q 2250 441 2565 725 
Q 2881 1009 2881 1497 
Q 2881 1984 2565 2268 
Q 2250 2553 1709 2553 
Q 1456 2553 1204 2497 
Q 953 2441 691 2322 
L 691 4666 
z
" transform="scale(0.015625)"/>
       </defs>
       <use xlink:href="#DejaVuSans-30"/>
       <use xlink:href="#DejaVuSans-2e" x="63.623047"/>
       <use xlink:href="#DejaVuSans-35" x="95.410156"/>
      </g>
     </g>
    </g>
    <g id="xtick_3">
     <g id="line2d_3">
      <g>
       <use xlink:href="#m06f0307809" x="170.141803" y="174.04" style="stroke: #000000; stroke-width: 0.8"/>
      </g>
     </g>
     <g id="text_3">
      <!-- 1.0 -->
      <g transform="translate(162.190241 188.638438)scale(0.1 -0.1)">
       <defs>
        <path id="DejaVuSans-31" d="M 794 531 
L 1825 531 
L 1825 4091 
L 703 3866 
L 703 4441 
L 1819 4666 
L 2450 4666 
L 2450 531 
L 3481 531 
L 3481 0 
L 794 0 
L 794 531 
z
" transform="scale(0.015625)"/>
       </defs>
       <use xlink:href="#DejaVuSans-31"/>
       <use xlink:href="#DejaVuSans-2e" x="63.623047"/>
       <use xlink:href="#DejaVuSans-30" x="95.410156"/>
      </g>
     </g>
    </g>
    <g id="text_4">
     <!-- Time -->
     <g transform="translate(111.863906 202.316563)scale(0.1 -0.1)">
      <defs>
       <path id="DejaVuSans-54" d="M -19 4666 
L 3928 4666 
L 3928 4134 
L 2272 4134 
L 2272 0 
L 1638 0 
L 1638 4134 
L -19 4134 
L -19 4666 
z
" transform="scale(0.015625)"/>
       <path id="DejaVuSans-69" d="M 603 3500 
L 1178 3500 
L 1178 0 
L 603 0 
L 603 3500 
z
M 603 4863 
L 1178 4863 
L 1178 4134 
L 603 4134 
L 603 4863 
z
" transform="scale(0.015625)"/>
       <path id="DejaVuSans-6d" d="M 3328 2828 
Q 3544 3216 3844 3400 
Q 4144 3584 4550 3584 
Q 5097 3584 5394 3201 
Q 5691 2819 5691 2113 
L 5691 0 
L 5113 0 
L 5113 2094 
Q 5113 2597 4934 2840 
Q 4756 3084 4391 3084 
Q 3944 3084 3684 2787 
Q 3425 2491 3425 1978 
L 3425 0 
L 2847 0 
L 2847 2094 
Q 2847 2600 2669 2842 
Q 2491 3084 2119 3084 
Q 1678 3084 1418 2786 
Q 1159 2488 1159 1978 
L 1159 0 
L 581 0 
L 581 3500 
L 1159 3500 
L 1159 2956 
Q 1356 3278 1631 3431 
Q 1906 3584 2284 3584 
Q 2666 3584 2933 3390 
Q 3200 3197 3328 2828 
z
" transform="scale(0.015625)"/>
       <path id="DejaVuSans-65" d="M 3597 1894 
L 3597 1613 
L 953 1613 
Q 991 1019 1311 708 
Q 1631 397 2203 397 
Q 2534 397 2845 478 
Q 3156 559 3463 722 
L 3463 178 
Q 3153 47 2828 -22 
Q 2503 -91 2169 -91 
Q 1331 -91 842 396 
Q 353 884 353 1716 
Q 353 2575 817 3079 
Q 1281 3584 2069 3584 
Q 2775 3584 3186 3129 
Q 3597 2675 3597 1894 
z
M 3022 2063 
Q 3016 2534 2758 2815 
Q 2500 3097 2075 3097 
Q 1594 3097 1305 2825 
Q 1016 2553 972 2059 
L 3022 2063 
z
" transform="scale(0.015625)"/>
      </defs>
      <use xlink:href="#DejaVuSans-54"/>
      <use xlink:href="#DejaVuSans-69" x="57.958984"/>
      <use xlink:href="#DejaVuSans-6d" x="85.742188"/>
      <use xlink:href="#DejaVuSans-65" x="183.154297"/>
     </g>
    </g>
   </g>
   <g id="matplotlib.axis_2">
    <g id="ytick_1">
     <g id="line2d_4">
      <defs>
       <path id="me7bd168f79" d="M 0 0 
L -3.5 0 
" style="stroke: #000000; stroke-width: 0.8"/>
      </defs>
      <g>
       <use xlink:href="#me7bd168f79" x="46.64" y="151.493636" style="stroke: #000000; stroke-width: 0.8"/>
      </g>
     </g>
     <g id="text_5">
      <!-- −2 -->
      <g transform="translate(24.897813 155.292855)scale(0.1 -0.1)">
       <defs>
        <path id="DejaVuSans-2212" d="M 678 2272 
L 4684 2272 
L 4684 1741 
L 678 1741 
L 678 2272 
z
" transform="scale(0.015625)"/>
        <path id="DejaVuSans-32" d="M 1228 531 
L 3431 531 
L 3431 0 
L 469 0 
L 469 531 
Q 828 903 1448 1529 
Q 2069 2156 2228 2338 
Q 2531 2678 2651 2914 
Q 2772 3150 2772 3378 
Q 2772 3750 2511 3984 
Q 2250 4219 1831 4219 
Q 1534 4219 1204 4116 
Q 875 4013 500 3803 
L 500 4441 
Q 881 4594 1212 4672 
Q 1544 4750 1819 4750 
Q 2544 4750 2975 4387 
Q 3406 4025 3406 3419 
Q 3406 3131 3298 2873 
Q 3191 2616 2906 2266 
Q 2828 2175 2409 1742 
Q 1991 1309 1228 531 
z
" transform="scale(0.015625)"/>
       </defs>
       <use xlink:href="#DejaVuSans-2212"/>
       <use xlink:href="#DejaVuSans-32" x="83.789062"/>
      </g>
     </g>
    </g>
    <g id="ytick_2">
     <g id="line2d_5">
      <g>
       <use xlink:href="#me7bd168f79" x="46.64" y="124.135768" style="stroke: #000000; stroke-width: 0.8"/>
      </g>
     </g>
     <g id="text_6">
      <!-- −1 -->
      <g transform="translate(24.897813 127.934987)scale(0.1 -0.1)">
       <use xlink:href="#DejaVuSans-2212"/>
       <use xlink:href="#DejaVuSans-31" x="83.789062"/>
      </g>
     </g>
    </g>
    <g id="ytick_3">
     <g id="line2d_6">
      <g>
       <use xlink:href="#me7bd168f79" x="46.64" y="96.7779" style="stroke: #000000; stroke-width: 0.8"/>
      </g>
     </g>
     <g id="text_7">
      <!-- 0 -->
      <g transform="translate(33.2775 100.577119)scale(0.1 -0.1)">
       <use xlink:href="#DejaVuSans-30"/>
      </g>
     </g>
    </g>
    <g id="ytick_4">
     <g id="line2d_7">
      <g>
       <use xlink:href="#me7bd168f79" x="46.64" y="69.420032" style="stroke: #000000; stroke-width: 0.8"/>
      </g>
     </g>
     <g id="text_8">
      <!-- 1 -->
      <g transform="translate(33.2775 73.21925)scale(0.1 -0.1)">
       <use xlink:href="#DejaVuSans-31"/>
      </g>
     </g>
    </g>
    <g id="ytick_5">
     <g id="line2d_8">
      <g>
       <use xlink:href="#me7bd168f79" x="46.64" y="42.062163" style="stroke: #000000; stroke-width: 0.8"/>
      </g>
     </g>
     <g id="text_9">
      <!-- 2 -->
      <g transform="translate(33.2775 45.861382)scale(0.1 -0.1)">
       <use xlink:href="#DejaVuSans-32"/>
      </g>
     </g>
    </g>
    <g id="ytick_6">
     <g id="line2d_9">
      <g>
       <use xlink:href="#me7bd168f79" x="46.64" y="14.704295" style="stroke: #000000; stroke-width: 0.8"/>
      </g>
     </g>
     <g id="text_10">
      <!-- 3 -->
      <g transform="translate(33.2775 18.503514)scale(0.1 -0.1)">
       <defs>
        <path id="DejaVuSans-33" d="M 2597 2516 
Q 3050 2419 3304 2112 
Q 3559 1806 3559 1356 
Q 3559 666 3084 287 
Q 2609 -91 1734 -91 
Q 1441 -91 1130 -33 
Q 819 25 488 141 
L 488 750 
Q 750 597 1062 519 
Q 1375 441 1716 441 
Q 2309 441 2620 675 
Q 2931 909 2931 1356 
Q 2931 1769 2642 2001 
Q 2353 2234 1838 2234 
L 1294 2234 
L 1294 2753 
L 1863 2753 
Q 2328 2753 2575 2939 
Q 2822 3125 2822 3475 
Q 2822 3834 2567 4026 
Q 2313 4219 1838 4219 
Q 1578 4219 1281 4162 
Q 984 4106 628 3988 
L 628 4550 
Q 988 4650 1302 4700 
Q 1616 4750 1894 4750 
Q 2613 4750 3031 4423 
Q 3450 4097 3450 3541 
Q 3450 3153 3228 2886 
Q 3006 2619 2597 2516 
z
" transform="scale(0.015625)"/>
       </defs>
       <use xlink:href="#DejaVuSans-33"/>
      </g>
     </g>
    </g>
    <g id="text_11">
     <!-- Position -->
     <g transform="translate(18.818125 112.988029)rotate(-90)scale(0.1 -0.1)">
      <defs>
       <path id="DejaVuSans-50" d="M 1259 4147 
L 1259 2394 
L 2053 2394 
Q 2494 2394 2734 2622 
Q 2975 2850 2975 3272 
Q 2975 3691 2734 3919 
Q 2494 4147 2053 4147 
L 1259 4147 
z
M 628 4666 
L 2053 4666 
Q 2838 4666 3239 4311 
Q 3641 3956 3641 3272 
Q 3641 2581 3239 2228 
Q 2838 1875 2053 1875 
L 1259 1875 
L 1259 0 
L 628 0 
L 628 4666 
z
" transform="scale(0.015625)"/>
       <path id="DejaVuSans-6f" d="M 1959 3097 
Q 1497 3097 1228 2736 
Q 959 2375 959 1747 
Q 959 1119 1226 758 
Q 1494 397 1959 397 
Q 2419 397 2687 759 
Q 2956 1122 2956 1747 
Q 2956 2369 2687 2733 
Q 2419 3097 1959 3097 
z
M 1959 3584 
Q 2709 3584 3137 3096 
Q 3566 2609 3566 1747 
Q 3566 888 3137 398 
Q 2709 -91 1959 -91 
Q 1206 -91 779 398 
Q 353 888 353 1747 
Q 353 2609 779 3096 
Q 1206 3584 1959 3584 
z
" transform="scale(0.015625)"/>
       <path id="DejaVuSans-73" d="M 2834 3397 
L 2834 2853 
Q 2591 2978 2328 3040 
Q 2066 3103 1784 3103 
Q 1356 3103 1142 2972 
Q 928 2841 928 2578 
Q 928 2378 1081 2264 
Q 1234 2150 1697 2047 
L 1894 2003 
Q 2506 1872 2764 1633 
Q 3022 1394 3022 966 
Q 3022 478 2636 193 
Q 2250 -91 1575 -91 
Q 1294 -91 989 -36 
Q 684 19 347 128 
L 347 722 
Q 666 556 975 473 
Q 1284 391 1588 391 
Q 1994 391 2212 530 
Q 2431 669 2431 922 
Q 2431 1156 2273 1281 
Q 2116 1406 1581 1522 
L 1381 1569 
Q 847 1681 609 1914 
Q 372 2147 372 2553 
Q 372 3047 722 3315 
Q 1072 3584 1716 3584 
Q 2034 3584 2315 3537 
Q 2597 3491 2834 3397 
z
" transform="scale(0.015625)"/>
       <path id="DejaVuSans-74" d="M 1172 4494 
L 1172 3500 
L 2356 3500 
L 2356 3053 
L 1172 3053 
L 1172 1153 
Q 1172 725 1289 603 
Q 1406 481 1766 481 
L 2356 481 
L 2356 0 
L 1766 0 
Q 1100 0 847 248 
Q 594 497 594 1153 
L 594 3053 
L 172 3053 
L 172 3500 
L 594 3500 
L 594 4494 
L 1172 4494 
z
" transform="scale(0.015625)"/>
       <path id="DejaVuSans-6e" d="M 3513 2113 
L 3513 0 
L 2938 0 
L 2938 2094 
Q 2938 2591 2744 2837 
Q 2550 3084 2163 3084 
Q 1697 3084 1428 2787 
Q 1159 2491 1159 1978 
L 1159 0 
L 581 0 
L 581 3500 
L 1159 3500 
L 1159 2956 
Q 1366 3272 1645 3428 
Q 1925 3584 2291 3584 
Q 2894 3584 3203 3211 
Q 3513 2838 3513 2113 
z
" transform="scale(0.015625)"/>
      </defs>
      <use xlink:href="#DejaVuSans-50"/>
      <use xlink:href="#DejaVuSans-6f" x="56.677734"/>
      <use xlink:href="#DejaVuSans-73" x="117.859375"/>
      <use xlink:href="#DejaVuSans-69" x="169.958984"/>
      <use xlink:href="#DejaVuSans-74" x="197.742188"/>
      <use xlink:href="#DejaVuSans-69" x="236.951172"/>
      <use xlink:href="#DejaVuSans-6f" x="264.734375"/>
      <use xlink:href="#DejaVuSans-6e" x="325.916016"/>
     </g>
    </g>
   </g>
   <g id="line2d_10">
    <path d="M 53.681591 96.746752 
L 58.756611 96.635607 
L 64.113577 96.293298 
L 70.31638 95.667836 
L 79.479612 94.492346 
L 92.731054 92.81429 
L 101.330394 91.967999 
L 109.647789 91.373406 
L 118.106156 90.991645 
L 126.987442 90.814603 
L 136.291646 90.852 
L 146.159742 91.113088 
L 157.155619 91.6341 
L 186.336987 93.166641 
L 194.513409 93.280248 
L 194.513409 93.280248 
" clip-path="url(#p6b0f57bc14)" style="fill: none; stroke: #1f77b4; stroke-width: 1.5; stroke-linecap: square"/>
   </g>
   <g id="line2d_11">
    <path d="M 53.681591 118.313214 
L 57.769802 118.199468 
L 61.998986 117.851937 
L 66.510115 117.253274 
L 71.726108 116.327774 
L 78.492802 114.884115 
L 94.845646 111.062089 
L 172.098735 93.025989 
L 178.583484 91.785669 
L 183.799477 91.005989 
L 188.451579 90.534828 
L 192.680763 90.325008 
L 194.513409 90.303638 
L 194.513409 90.303638 
" clip-path="url(#p6b0f57bc14)" style="fill: none; stroke: #ff7f0e; stroke-width: 1.5; stroke-linecap: square"/>
   </g>
   <g id="line2d_12">
    <path d="M 53.681591 96.783168 
L 57.628829 96.670635 
L 61.71704 96.326283 
L 66.087197 95.732772 
L 71.30319 94.788505 
L 78.492802 93.239568 
L 91.321326 90.453756 
L 97.947047 89.267262 
L 104.290823 88.353073 
L 110.775571 87.64251 
L 117.542265 87.127027 
L 124.590905 86.814303 
L 132.203435 86.703793 
L 140.238885 86.811622 
L 148.838225 87.15229 
L 159.270211 87.800654 
L 185.350178 89.543042 
L 192.680763 89.729867 
L 194.513409 89.737958 
L 194.513409 89.737958 
" clip-path="url(#p6b0f57bc14)" style="fill: none; stroke: #2ca02c; stroke-width: 1.5; stroke-linecap: square"/>
   </g>
   <g id="line2d_13">
    <path d="M 53.681591 161.481709 
L 68.483734 161.593293 
L 85.400469 161.947146 
L 104.995687 162.593667 
L 130.370789 163.647287 
L 148.979198 164.64798 
L 181.543912 166.463811 
L 190.707144 166.697107 
L 194.513409 166.720361 
L 194.513409 166.720361 
" clip-path="url(#p6b0f57bc14)" style="fill: none; stroke: #d62728; stroke-width: 1.5; stroke-linecap: square"/>
   </g>
   <g id="line2d_14">
    <path d="M 53.681591 96.72019 
L 61.998986 96.610336 
L 72.430972 96.232472 
L 96.819265 95.272679 
L 107.251251 95.145083 
L 117.26032 95.243886 
L 126.987442 95.56005 
L 136.291646 96.083633 
L 145.736823 96.842664 
L 156.591728 97.951097 
L 179.006402 100.318032 
L 186.196014 100.801885 
L 192.398817 100.999464 
L 194.513409 101.013417 
L 194.513409 101.013417 
" clip-path="url(#p6b0f57bc14)" style="fill: none; stroke: #9467bd; stroke-width: 1.5; stroke-linecap: square"/>
   </g>
   <g id="line2d_15">
    <path d="M 53.681591 54.103156 
L 57.910775 53.991739 
L 62.280931 53.648904 
L 66.79206 53.070923 
L 71.726108 52.210944 
L 77.224047 51.020927 
L 83.567823 49.412748 
L 91.885217 47.06048 
L 105.982496 42.8053 
L 163.640368 25.278332 
L 170.548035 23.49483 
L 176.186946 22.259559 
L 181.261967 21.369463 
L 185.914069 20.775489 
L 190.284225 20.437147 
L 194.513409 20.327572 
L 194.513409 20.327572 
" clip-path="url(#p6b0f57bc14)" style="fill: none; stroke: #8c564b; stroke-width: 1.5; stroke-linecap: square"/>
   </g>
   <g id="line2d_16">
    <path d="M 53.681591 75.816436 
L 58.19272 75.705737 
L 62.844822 75.364482 
L 67.637897 74.787128 
L 72.85389 73.928649 
L 78.633775 72.743127 
L 85.400469 71.118106 
L 95.973428 68.313846 
L 109.224871 64.849963 
L 116.696428 63.131504 
L 123.32215 61.830885 
L 129.38398 60.863697 
L 135.163864 60.162439 
L 140.943749 59.68682 
L 146.864606 59.429014 
L 153.067409 59.38434 
L 159.975075 59.559178 
L 169.27928 60.038705 
L 186.055042 60.925731 
L 193.5266 61.075907 
L 194.513409 61.078059 
L 194.513409 61.078059 
" clip-path="url(#p6b0f57bc14)" style="fill: none; stroke: #e377c2; stroke-width: 1.5; stroke-linecap: square"/>
   </g>
   <g id="patch_3">
    <path d="M 46.64 174.04 
L 46.64 13.007933 
" style="fill: none; stroke: #000000; stroke-width: 0.8; stroke-linejoin: miter; stroke-linecap: square"/>
   </g>
   <g id="patch_4">
    <path d="M 201.555 174.04 
L 201.555 13.007933 
" style="fill: none; stroke: #000000; stroke-width: 0.8; stroke-linejoin: miter; stroke-linecap: square"/>
   </g>
   <g id="patch_5">
    <path d="M 46.64 174.04 
L 201.555 174.04 
" style="fill: none; stroke: #000000; stroke-width: 0.8; stroke-linejoin: miter; stroke-linecap: square"/>
   </g>
   <g id="patch_6">
    <path d="M 46.64 13.007933 
L 201.555 13.007933 
" style="fill: none; stroke: #000000; stroke-width: 0.8; stroke-linejoin: miter; stroke-linecap: square"/>
   </g>
  </g>
  <g id="axes_2">
   <g id="patch_7">
    <path d="M 263.855 174.04 
L 418.77 174.04 
L 418.77 13.007933 
L 263.855 13.007933 
z
" style="fill: #ffffff"/>
   </g>
   <g id="matplotlib.axis_3">
    <g id="xtick_4">
     <g id="line2d_17">
      <g>
       <use xlink:href="#m06f0307809" x="270.896591" y="174.04" style="stroke: #000000; stroke-width: 0.8"/>
      </g>
     </g>
     <g id="text_12">
      <!-- 0.0 -->
      <g transform="translate(262.945028 188.638438)scale(0.1 -0.1)">
       <use xlink:href="#DejaVuSans-30"/>
       <use xlink:href="#DejaVuSans-2e" x="63.623047"/>
       <use xlink:href="#DejaVuSans-30" x="95.410156"/>
      </g>
     </g>
    </g>
    <g id="xtick_5">
     <g id="line2d_18">
      <g>
       <use xlink:href="#m06f0307809" x="329.126697" y="174.04" style="stroke: #000000; stroke-width: 0.8"/>
      </g>
     </g>
     <g id="text_13">
      <!-- 0.5 -->
      <g transform="translate(321.175134 188.638438)scale(0.1 -0.1)">
       <use xlink:href="#DejaVuSans-30"/>
       <use xlink:href="#DejaVuSans-2e" x="63.623047"/>
       <use xlink:href="#DejaVuSans-35" x="95.410156"/>
      </g>
     </g>
    </g>
    <g id="xtick_6">
     <g id="line2d_19">
      <g>
       <use xlink:href="#m06f0307809" x="387.356803" y="174.04" style="stroke: #000000; stroke-width: 0.8"/>
      </g>
     </g>
     <g id="text_14">
      <!-- 1.0 -->
      <g transform="translate(379.405241 188.638438)scale(0.1 -0.1)">
       <use xlink:href="#DejaVuSans-31"/>
       <use xlink:href="#DejaVuSans-2e" x="63.623047"/>
       <use xlink:href="#DejaVuSans-30" x="95.410156"/>
      </g>
     </g>
    </g>
    <g id="text_15">
     <!-- Time -->
     <g transform="translate(329.078906 202.316563)scale(0.1 -0.1)">
      <use xlink:href="#DejaVuSans-54"/>
      <use xlink:href="#DejaVuSans-69" x="57.958984"/>
      <use xlink:href="#DejaVuSans-6d" x="85.742188"/>
      <use xlink:href="#DejaVuSans-65" x="183.154297"/>
     </g>
    </g>
   </g>
   <g id="matplotlib.axis_4">
    <g id="ytick_7">
     <g id="line2d_20">
      <g>
       <use xlink:href="#me7bd168f79" x="263.855" y="168.117239" style="stroke: #000000; stroke-width: 0.8"/>
      </g>
     </g>
     <g id="text_16">
      <!-- −0.50 -->
      <g transform="translate(226.209687 171.916457)scale(0.1 -0.1)">
       <use xlink:href="#DejaVuSans-2212"/>
       <use xlink:href="#DejaVuSans-30" x="83.789062"/>
       <use xlink:href="#DejaVuSans-2e" x="147.412109"/>
       <use xlink:href="#DejaVuSans-35" x="179.199219"/>
       <use xlink:href="#DejaVuSans-30" x="242.822266"/>
      </g>
     </g>
    </g>
    <g id="ytick_8">
     <g id="line2d_21">
      <g>
       <use xlink:href="#me7bd168f79" x="263.855" y="147.779623" style="stroke: #000000; stroke-width: 0.8"/>
      </g>
     </g>
     <g id="text_17">
      <!-- −0.25 -->
      <g transform="translate(226.209687 151.578842)scale(0.1 -0.1)">
       <use xlink:href="#DejaVuSans-2212"/>
       <use xlink:href="#DejaVuSans-30" x="83.789062"/>
       <use xlink:href="#DejaVuSans-2e" x="147.412109"/>
       <use xlink:href="#DejaVuSans-32" x="179.199219"/>
       <use xlink:href="#DejaVuSans-35" x="242.822266"/>
      </g>
     </g>
    </g>
    <g id="ytick_9">
     <g id="line2d_22">
      <g>
       <use xlink:href="#me7bd168f79" x="263.855" y="127.442008" style="stroke: #000000; stroke-width: 0.8"/>
      </g>
     </g>
     <g id="text_18">
      <!-- 0.00 -->
      <g transform="translate(234.589375 131.241227)scale(0.1 -0.1)">
       <use xlink:href="#DejaVuSans-30"/>
       <use xlink:href="#DejaVuSans-2e" x="63.623047"/>
       <use xlink:href="#DejaVuSans-30" x="95.410156"/>
       <use xlink:href="#DejaVuSans-30" x="159.033203"/>
      </g>
     </g>
    </g>
    <g id="ytick_10">
     <g id="line2d_23">
      <g>
       <use xlink:href="#me7bd168f79" x="263.855" y="107.104393" style="stroke: #000000; stroke-width: 0.8"/>
      </g>
     </g>
     <g id="text_19">
      <!-- 0.25 -->
      <g transform="translate(234.589375 110.903611)scale(0.1 -0.1)">
       <use xlink:href="#DejaVuSans-30"/>
       <use xlink:href="#DejaVuSans-2e" x="63.623047"/>
       <use xlink:href="#DejaVuSans-32" x="95.410156"/>
       <use xlink:href="#DejaVuSans-35" x="159.033203"/>
      </g>
     </g>
    </g>
    <g id="ytick_11">
     <g id="line2d_24">
      <g>
       <use xlink:href="#me7bd168f79" x="263.855" y="86.766777" style="stroke: #000000; stroke-width: 0.8"/>
      </g>
     </g>
     <g id="text_20">
      <!-- 0.50 -->
      <g transform="translate(234.589375 90.565996)scale(0.1 -0.1)">
       <use xlink:href="#DejaVuSans-30"/>
       <use xlink:href="#DejaVuSans-2e" x="63.623047"/>
       <use xlink:href="#DejaVuSans-35" x="95.410156"/>
       <use xlink:href="#DejaVuSans-30" x="159.033203"/>
      </g>
     </g>
    </g>
    <g id="ytick_12">
     <g id="line2d_25">
      <g>
       <use xlink:href="#me7bd168f79" x="263.855" y="66.429162" style="stroke: #000000; stroke-width: 0.8"/>
      </g>
     </g>
     <g id="text_21">
      <!-- 0.75 -->
      <g transform="translate(234.589375 70.228381)scale(0.1 -0.1)">
       <defs>
        <path id="DejaVuSans-37" d="M 525 4666 
L 3525 4666 
L 3525 4397 
L 1831 0 
L 1172 0 
L 2766 4134 
L 525 4134 
L 525 4666 
z
" transform="scale(0.015625)"/>
       </defs>
       <use xlink:href="#DejaVuSans-30"/>
       <use xlink:href="#DejaVuSans-2e" x="63.623047"/>
       <use xlink:href="#DejaVuSans-37" x="95.410156"/>
       <use xlink:href="#DejaVuSans-35" x="159.033203"/>
      </g>
     </g>
    </g>
    <g id="ytick_13">
     <g id="line2d_26">
      <g>
       <use xlink:href="#me7bd168f79" x="263.855" y="46.091547" style="stroke: #000000; stroke-width: 0.8"/>
      </g>
     </g>
     <g id="text_22">
      <!-- 1.00 -->
      <g transform="translate(234.589375 49.890766)scale(0.1 -0.1)">
       <use xlink:href="#DejaVuSans-31"/>
       <use xlink:href="#DejaVuSans-2e" x="63.623047"/>
       <use xlink:href="#DejaVuSans-30" x="95.410156"/>
       <use xlink:href="#DejaVuSans-30" x="159.033203"/>
      </g>
     </g>
    </g>
    <g id="ytick_14">
     <g id="line2d_27">
      <g>
       <use xlink:href="#me7bd168f79" x="263.855" y="25.753932" style="stroke: #000000; stroke-width: 0.8"/>
      </g>
     </g>
     <g id="text_23">
      <!-- 1.25 -->
      <g transform="translate(234.589375 29.55315)scale(0.1 -0.1)">
       <use xlink:href="#DejaVuSans-31"/>
       <use xlink:href="#DejaVuSans-2e" x="63.623047"/>
       <use xlink:href="#DejaVuSans-32" x="95.410156"/>
       <use xlink:href="#DejaVuSans-35" x="159.033203"/>
      </g>
     </g>
    </g>
    <g id="text_24">
     <!-- Velocity -->
     <g transform="translate(220.13 113.139591)rotate(-90)scale(0.1 -0.1)">
      <defs>
       <path id="DejaVuSans-56" d="M 1831 0 
L 50 4666 
L 709 4666 
L 2188 738 
L 3669 4666 
L 4325 4666 
L 2547 0 
L 1831 0 
z
" transform="scale(0.015625)"/>
       <path id="DejaVuSans-6c" d="M 603 4863 
L 1178 4863 
L 1178 0 
L 603 0 
L 603 4863 
z
" transform="scale(0.015625)"/>
       <path id="DejaVuSans-63" d="M 3122 3366 
L 3122 2828 
Q 2878 2963 2633 3030 
Q 2388 3097 2138 3097 
Q 1578 3097 1268 2742 
Q 959 2388 959 1747 
Q 959 1106 1268 751 
Q 1578 397 2138 397 
Q 2388 397 2633 464 
Q 2878 531 3122 666 
L 3122 134 
Q 2881 22 2623 -34 
Q 2366 -91 2075 -91 
Q 1284 -91 818 406 
Q 353 903 353 1747 
Q 353 2603 823 3093 
Q 1294 3584 2113 3584 
Q 2378 3584 2631 3529 
Q 2884 3475 3122 3366 
z
" transform="scale(0.015625)"/>
       <path id="DejaVuSans-79" d="M 2059 -325 
Q 1816 -950 1584 -1140 
Q 1353 -1331 966 -1331 
L 506 -1331 
L 506 -850 
L 844 -850 
Q 1081 -850 1212 -737 
Q 1344 -625 1503 -206 
L 1606 56 
L 191 3500 
L 800 3500 
L 1894 763 
L 2988 3500 
L 3597 3500 
L 2059 -325 
z
" transform="scale(0.015625)"/>
      </defs>
      <use xlink:href="#DejaVuSans-56"/>
      <use xlink:href="#DejaVuSans-65" x="60.658203"/>
      <use xlink:href="#DejaVuSans-6c" x="122.181641"/>
      <use xlink:href="#DejaVuSans-6f" x="149.964844"/>
      <use xlink:href="#DejaVuSans-63" x="211.146484"/>
      <use xlink:href="#DejaVuSans-69" x="266.126953"/>
      <use xlink:href="#DejaVuSans-74" x="293.910156"/>
      <use xlink:href="#DejaVuSans-79" x="333.119141"/>
     </g>
    </g>
   </g>
   <g id="line2d_28">
    <path d="M 270.896591 127.442008 
L 275.689666 113.244669 
L 278.509122 105.554041 
L 280.905659 99.645964 
L 283.020251 95.026621 
L 284.852897 91.522056 
L 286.544571 88.730162 
L 288.095271 86.563928 
L 289.645972 84.779528 
L 291.337646 83.174568 
L 292.888346 81.991127 
L 294.157101 81.294098 
L 295.425857 80.859975 
L 296.694612 80.671754 
L 297.963367 80.714254 
L 299.232122 80.978319 
L 300.64185 81.489663 
L 302.192551 82.304052 
L 304.025197 83.523397 
L 306.139789 85.221696 
L 308.677299 87.554805 
L 311.919673 90.854831 
L 317.417612 96.791145 
L 332.924619 113.755882 
L 338.140612 118.994702 
L 343.920497 124.492842 
L 348.713572 128.755623 
L 353.929565 133.092673 
L 359.427504 137.392697 
L 364.361551 141.005968 
L 368.167817 143.537253 
L 371.551164 145.512065 
L 374.088674 146.770149 
L 376.344239 147.647934 
L 378.45883 148.241545 
L 380.432449 148.580035 
L 382.406069 148.702924 
L 384.379688 148.607367 
L 386.353307 148.290059 
L 388.326926 147.747947 
L 390.300545 146.976275 
L 392.838055 145.708159 
L 395.09362 144.340285 
L 397.349184 142.688847 
L 399.745722 140.649475 
L 402.424205 138.057979 
L 405.666579 134.564091 
L 410.036736 129.465558 
L 411.728409 127.442008 
L 411.728409 127.442008 
" clip-path="url(#p4903cfa6e4)" style="fill: none; stroke: #1f77b4; stroke-width: 1.5; stroke-linecap: square"/>
   </g>
   <g id="line2d_29">
    <path d="M 270.896591 127.442008 
L 275.830639 104.480319 
L 278.791067 91.760066 
L 281.328577 81.856211 
L 283.584142 73.976346 
L 285.416788 68.313659 
L 287.249435 63.365773 
L 288.941108 59.468187 
L 290.773754 55.882236 
L 292.606401 52.78488 
L 294.016129 50.812009 
L 295.284884 49.382655 
L 296.553639 48.260134 
L 297.822394 47.415527 
L 299.091149 46.836211 
L 300.500877 46.416972 
L 302.051578 46.201246 
L 304.589088 46.091648 
L 376.344239 46.194379 
L 378.45883 46.47847 
L 380.150504 46.933958 
L 381.701205 47.570169 
L 383.110933 48.379607 
L 384.661633 49.542497 
L 386.071361 50.887705 
L 387.622062 52.701499 
L 389.03179 54.685482 
L 390.58249 57.249648 
L 392.55611 60.974754 
L 394.388756 64.87854 
L 396.221402 69.361409 
L 398.054048 74.437653 
L 400.027667 80.557523 
L 402.142259 87.822304 
L 404.538797 96.862119 
L 407.358253 108.400215 
L 411.446464 126.196501 
L 411.728409 127.442008 
L 411.728409 127.442008 
" clip-path="url(#p4903cfa6e4)" style="fill: none; stroke: #ff7f0e; stroke-width: 1.5; stroke-linecap: square"/>
   </g>
   <g id="line2d_30">
    <path d="M 270.896591 127.442008 
L 275.689666 103.77394 
L 278.509122 90.929107 
L 280.905659 81.056841 
L 282.879278 73.816364 
L 284.711924 67.888016 
L 286.403598 63.154697 
L 287.954299 59.465725 
L 289.364027 56.665973 
L 290.914727 54.079247 
L 292.465428 51.924017 
L 293.59321 50.690462 
L 294.720993 49.787422 
L 295.707802 49.267012 
L 296.694612 48.979309 
L 297.681421 48.918265 
L 298.668231 49.082882 
L 299.796013 49.512527 
L 300.923795 50.184574 
L 302.192551 51.219521 
L 303.602278 52.649767 
L 305.152979 54.546412 
L 306.985625 57.135554 
L 309.100217 60.523779 
L 311.7787 65.244724 
L 316.571775 74.188129 
L 325.030143 90.043053 
L 329.541272 97.989421 
L 334.334347 105.976086 
L 338.422558 112.344231 
L 342.369796 118.077713 
L 346.176061 123.212587 
L 350.264272 128.339577 
L 355.480265 134.496624 
L 359.709449 139.152515 
L 363.092796 142.563675 
L 366.053225 145.23908 
L 368.731708 147.363632 
L 371.692136 149.409072 
L 374.088674 150.829795 
L 376.344239 151.913867 
L 378.45883 152.694082 
L 380.573422 153.233372 
L 382.547041 153.508813 
L 384.52066 153.548839 
L 386.353307 153.356689 
L 388.185953 152.932177 
L 390.018599 152.264347 
L 392.133191 151.224551 
L 394.247783 149.940457 
L 396.080429 148.558351 
L 398.054048 146.77612 
L 400.027667 144.697528 
L 402.142259 142.152737 
L 404.538797 138.894095 
L 407.21728 134.844609 
L 410.882572 128.855228 
L 411.728409 127.442008 
L 411.728409 127.442008 
" clip-path="url(#p4903cfa6e4)" style="fill: none; stroke: #2ca02c; stroke-width: 1.5; stroke-linecap: square"/>
   </g>
   <g id="line2d_31">
    <path d="M 270.896591 127.442008 
L 278.650094 130.236957 
L 284.148033 131.970314 
L 290.632782 133.766041 
L 305.293952 137.541441 
L 310.650918 138.679905 
L 316.007884 139.581327 
L 321.223877 140.216115 
L 337.435748 142.000698 
L 342.792714 142.963362 
L 349.418435 144.393101 
L 363.092796 147.409133 
L 367.462953 148.095131 
L 371.551164 148.506886 
L 375.075483 148.669576 
L 378.176885 148.59688 
L 381.137313 148.304478 
L 383.815796 147.822667 
L 386.353307 147.146656 
L 388.890817 146.230599 
L 391.428327 145.063165 
L 394.247783 143.530317 
L 396.64432 141.977146 
L 399.181831 140.064753 
L 401.860314 137.762754 
L 404.820742 134.914993 
L 408.345062 131.195432 
L 411.728409 127.442008 
L 411.728409 127.442008 
" clip-path="url(#p4903cfa6e4)" style="fill: none; stroke: #d62728; stroke-width: 1.5; stroke-linecap: square"/>
   </g>
   <g id="line2d_32">
    <path d="M 270.896591 127.442008 
L 275.689666 122.106448 
L 278.650094 119.148657 
L 281.187605 116.935278 
L 283.443169 115.262795 
L 285.557761 113.967904 
L 287.53138 113.008215 
L 289.504999 112.297139 
L 291.760564 111.729495 
L 293.734183 111.438455 
L 295.566829 111.394063 
L 297.540448 111.580203 
L 299.514067 111.995127 
L 301.628659 112.663474 
L 304.16617 113.723689 
L 306.985625 115.16512 
L 310.228 117.078041 
L 315.021074 120.20718 
L 320.096095 123.779719 
L 326.862789 128.844852 
L 336.448939 136.31409 
L 342.228823 141.086987 
L 348.14968 146.282092 
L 360.837232 157.527398 
L 364.361551 160.290406 
L 367.32198 162.334228 
L 370.000463 163.90044 
L 372.678946 165.214203 
L 374.652565 165.949406 
L 376.626184 166.449084 
L 378.45883 166.68679 
L 380.291477 166.695014 
L 382.124123 166.466704 
L 383.815796 166.03731 
L 385.50747 165.392355 
L 387.199143 164.522199 
L 388.890817 163.418374 
L 390.723463 161.951106 
L 392.979028 159.838505 
L 394.952647 157.699009 
L 396.926266 155.20403 
L 399.040858 152.145091 
L 401.296423 148.462466 
L 403.69296 144.119191 
L 406.512416 138.544279 
L 410.318681 130.488639 
L 411.728409 127.442008 
L 411.728409 127.442008 
" clip-path="url(#p4903cfa6e4)" style="fill: none; stroke: #9467bd; stroke-width: 1.5; stroke-linecap: square"/>
   </g>
   <g id="line2d_33">
    <path d="M 270.896591 127.442008 
L 276.676475 102.816235 
L 280.059822 89.328676 
L 282.879278 78.920465 
L 285.557761 69.857778 
L 287.954299 62.49326 
L 290.350836 55.841184 
L 293.029319 49.05264 
L 295.143911 44.287315 
L 297.11753 40.355446 
L 299.091149 36.904659 
L 301.064768 33.906273 
L 302.897414 31.50717 
L 304.730061 29.449866 
L 306.562707 27.70897 
L 308.395353 26.263309 
L 310.228 25.080993 
L 312.342591 23.989403 
L 314.739129 22.991304 
L 316.853721 22.349278 
L 319.250258 21.864148 
L 321.928741 21.561972 
L 325.171115 21.425821 
L 330.951 21.449378 
L 337.858667 21.403778 
L 343.779524 21.126036 
L 358.017776 20.330504 
L 361.119177 20.478164 
L 363.656687 20.816248 
L 365.912252 21.331063 
L 368.026844 22.034391 
L 370.282409 23.035728 
L 372.537973 24.267298 
L 374.370619 25.521643 
L 376.203266 27.047397 
L 378.035912 28.8772 
L 379.868558 31.035739 
L 381.701205 33.548017 
L 383.533851 36.443891 
L 385.366497 39.738978 
L 387.340116 43.757271 
L 389.313735 48.274738 
L 391.5693 54.023223 
L 394.247783 61.459241 
L 396.64432 68.811103 
L 399.181831 77.328793 
L 402.001287 87.597495 
L 405.243661 100.291628 
L 409.472844 117.861428 
L 411.728409 127.442008 
L 411.728409 127.442008 
" clip-path="url(#p4903cfa6e4)" style="fill: none; stroke: #8c564b; stroke-width: 1.5; stroke-linecap: square"/>
   </g>
   <g id="line2d_34">
    <path d="M 270.896591 127.442008 
L 277.663285 102.245652 
L 281.46955 88.934504 
L 284.570952 78.88562 
L 287.249435 70.923746 
L 289.786945 64.06532 
L 292.606401 57.086236 
L 294.861965 52.064883 
L 296.976557 47.900214 
L 298.950176 44.494372 
L 300.782823 41.754173 
L 302.474496 39.588887 
L 304.16617 37.777398 
L 305.71687 36.428282 
L 307.267571 35.377443 
L 308.677299 34.679397 
L 310.087027 34.22225 
L 311.637728 33.977537 
L 313.329401 33.928782 
L 314.880102 34.093948 
L 316.28983 34.461097 
L 317.84053 35.101282 
L 319.391231 35.972407 
L 321.082904 37.178343 
L 322.915551 38.766382 
L 324.88917 40.78936 
L 327.003762 43.298806 
L 329.259326 46.344493 
L 332.219755 50.773956 
L 334.757265 54.944461 
L 337.576721 60.024328 
L 340.678122 66.091002 
L 344.202442 73.500567 
L 348.431626 82.961913 
L 354.775402 97.795027 
L 360.978204 112.103666 
L 364.643497 119.988146 
L 367.603926 125.851179 
L 370.423381 130.94563 
L 373.242837 135.612815 
L 375.498402 138.905798 
L 377.472021 141.419379 
L 379.304667 143.429708 
L 381.137313 145.108259 
L 382.828987 146.353093 
L 384.379688 147.229565 
L 385.930388 147.848926 
L 387.340116 148.186759 
L 388.749844 148.312158 
L 390.159572 148.22668 
L 391.992218 147.855033 
L 393.824865 147.251733 
L 395.375565 146.5135 
L 397.067239 145.449221 
L 398.758912 144.129062 
L 400.591559 142.420483 
L 402.565178 140.284203 
L 404.820742 137.501342 
L 407.358253 134.001831 
L 410.882572 128.735281 
L 411.728409 127.442008 
L 411.728409 127.442008 
" clip-path="url(#p4903cfa6e4)" style="fill: none; stroke: #e377c2; stroke-width: 1.5; stroke-linecap: square"/>
   </g>
   <g id="patch_8">
    <path d="M 263.855 174.04 
L 263.855 13.007933 
" style="fill: none; stroke: #000000; stroke-width: 0.8; stroke-linejoin: miter; stroke-linecap: square"/>
   </g>
   <g id="patch_9">
    <path d="M 418.77 174.04 
L 418.77 13.007933 
" style="fill: none; stroke: #000000; stroke-width: 0.8; stroke-linejoin: miter; stroke-linecap: square"/>
   </g>
   <g id="patch_10">
    <path d="M 263.855 174.04 
L 418.77 174.04 
" style="fill: none; stroke: #000000; stroke-width: 0.8; stroke-linejoin: miter; stroke-linecap: square"/>
   </g>
   <g id="patch_11">
    <path d="M 263.855 13.007933 
L 418.77 13.007933 
" style="fill: none; stroke: #000000; stroke-width: 0.8; stroke-linejoin: miter; stroke-linecap: square"/>
   </g>
  </g>
  <g id="axes_3">
   <g id="patch_12">
    <path d="M 481.07 174.04 
L 635.985 174.04 
L 635.985 13.007933 
L 481.07 13.007933 
z
" style="fill: #ffffff"/>
   </g>
   <g id="matplotlib.axis_5">
    <g id="xtick_7">
     <g id="line2d_35">
      <g>
       <use xlink:href="#m06f0307809" x="488.111591" y="174.04" style="stroke: #000000; stroke-width: 0.8"/>
      </g>
     </g>
     <g id="text_25">
      <!-- 0.0 -->
      <g transform="translate(480.160028 188.638438)scale(0.1 -0.1)">
       <use xlink:href="#DejaVuSans-30"/>
       <use xlink:href="#DejaVuSans-2e" x="63.623047"/>
       <use xlink:href="#DejaVuSans-30" x="95.410156"/>
      </g>
     </g>
    </g>
    <g id="xtick_8">
     <g id="line2d_36">
      <g>
       <use xlink:href="#m06f0307809" x="546.341697" y="174.04" style="stroke: #000000; stroke-width: 0.8"/>
      </g>
     </g>
     <g id="text_26">
      <!-- 0.5 -->
      <g transform="translate(538.390134 188.638438)scale(0.1 -0.1)">
       <use xlink:href="#DejaVuSans-30"/>
       <use xlink:href="#DejaVuSans-2e" x="63.623047"/>
       <use xlink:href="#DejaVuSans-35" x="95.410156"/>
      </g>
     </g>
    </g>
    <g id="xtick_9">
     <g id="line2d_37">
      <g>
       <use xlink:href="#m06f0307809" x="604.571803" y="174.04" style="stroke: #000000; stroke-width: 0.8"/>
      </g>
     </g>
     <g id="text_27">
      <!-- 1.0 -->
      <g transform="translate(596.620241 188.638438)scale(0.1 -0.1)">
       <use xlink:href="#DejaVuSans-31"/>
       <use xlink:href="#DejaVuSans-2e" x="63.623047"/>
       <use xlink:href="#DejaVuSans-30" x="95.410156"/>
      </g>
     </g>
    </g>
    <g id="text_28">
     <!-- Time -->
     <g transform="translate(546.293906 202.316563)scale(0.1 -0.1)">
      <use xlink:href="#DejaVuSans-54"/>
      <use xlink:href="#DejaVuSans-69" x="57.958984"/>
      <use xlink:href="#DejaVuSans-6d" x="85.742188"/>
      <use xlink:href="#DejaVuSans-65" x="183.154297"/>
     </g>
    </g>
   </g>
   <g id="matplotlib.axis_6">
    <g id="ytick_15">
     <g id="line2d_38">
      <g>
       <use xlink:href="#me7bd168f79" x="481.07" y="163.17304" style="stroke: #000000; stroke-width: 0.8"/>
      </g>
     </g>
     <g id="text_29">
      <!-- −6 -->
      <g transform="translate(459.327813 166.972259)scale(0.1 -0.1)">
       <defs>
        <path id="DejaVuSans-36" d="M 2113 2584 
Q 1688 2584 1439 2293 
Q 1191 2003 1191 1497 
Q 1191 994 1439 701 
Q 1688 409 2113 409 
Q 2538 409 2786 701 
Q 3034 994 3034 1497 
Q 3034 2003 2786 2293 
Q 2538 2584 2113 2584 
z
M 3366 4563 
L 3366 3988 
Q 3128 4100 2886 4159 
Q 2644 4219 2406 4219 
Q 1781 4219 1451 3797 
Q 1122 3375 1075 2522 
Q 1259 2794 1537 2939 
Q 1816 3084 2150 3084 
Q 2853 3084 3261 2657 
Q 3669 2231 3669 1497 
Q 3669 778 3244 343 
Q 2819 -91 2113 -91 
Q 1303 -91 875 529 
Q 447 1150 447 2328 
Q 447 3434 972 4092 
Q 1497 4750 2381 4750 
Q 2619 4750 2861 4703 
Q 3103 4656 3366 4563 
z
" transform="scale(0.015625)"/>
       </defs>
       <use xlink:href="#DejaVuSans-2212"/>
       <use xlink:href="#DejaVuSans-36" x="83.789062"/>
      </g>
     </g>
    </g>
    <g id="ytick_16">
     <g id="line2d_39">
      <g>
       <use xlink:href="#me7bd168f79" x="481.07" y="141.589646" style="stroke: #000000; stroke-width: 0.8"/>
      </g>
     </g>
     <g id="text_30">
      <!-- −4 -->
      <g transform="translate(459.327813 145.388865)scale(0.1 -0.1)">
       <defs>
        <path id="DejaVuSans-34" d="M 2419 4116 
L 825 1625 
L 2419 1625 
L 2419 4116 
z
M 2253 4666 
L 3047 4666 
L 3047 1625 
L 3713 1625 
L 3713 1100 
L 3047 1100 
L 3047 0 
L 2419 0 
L 2419 1100 
L 313 1100 
L 313 1709 
L 2253 4666 
z
" transform="scale(0.015625)"/>
       </defs>
       <use xlink:href="#DejaVuSans-2212"/>
       <use xlink:href="#DejaVuSans-34" x="83.789062"/>
      </g>
     </g>
    </g>
    <g id="ytick_17">
     <g id="line2d_40">
      <g>
       <use xlink:href="#me7bd168f79" x="481.07" y="120.006252" style="stroke: #000000; stroke-width: 0.8"/>
      </g>
     </g>
     <g id="text_31">
      <!-- −2 -->
      <g transform="translate(459.327813 123.805471)scale(0.1 -0.1)">
       <use xlink:href="#DejaVuSans-2212"/>
       <use xlink:href="#DejaVuSans-32" x="83.789062"/>
      </g>
     </g>
    </g>
    <g id="ytick_18">
     <g id="line2d_41">
      <g>
       <use xlink:href="#me7bd168f79" x="481.07" y="98.422858" style="stroke: #000000; stroke-width: 0.8"/>
      </g>
     </g>
     <g id="text_32">
      <!-- 0 -->
      <g transform="translate(467.7075 102.222077)scale(0.1 -0.1)">
       <use xlink:href="#DejaVuSans-30"/>
      </g>
     </g>
    </g>
    <g id="ytick_19">
     <g id="line2d_42">
      <g>
       <use xlink:href="#me7bd168f79" x="481.07" y="76.839464" style="stroke: #000000; stroke-width: 0.8"/>
      </g>
     </g>
     <g id="text_33">
      <!-- 2 -->
      <g transform="translate(467.7075 80.638683)scale(0.1 -0.1)">
       <use xlink:href="#DejaVuSans-32"/>
      </g>
     </g>
    </g>
    <g id="ytick_20">
     <g id="line2d_43">
      <g>
       <use xlink:href="#me7bd168f79" x="481.07" y="55.25607" style="stroke: #000000; stroke-width: 0.8"/>
      </g>
     </g>
     <g id="text_34">
      <!-- 4 -->
      <g transform="translate(467.7075 59.055289)scale(0.1 -0.1)">
       <use xlink:href="#DejaVuSans-34"/>
      </g>
     </g>
    </g>
    <g id="ytick_21">
     <g id="line2d_44">
      <g>
       <use xlink:href="#me7bd168f79" x="481.07" y="33.672676" style="stroke: #000000; stroke-width: 0.8"/>
      </g>
     </g>
     <g id="text_35">
      <!-- 6 -->
      <g transform="translate(467.7075 37.471895)scale(0.1 -0.1)">
       <use xlink:href="#DejaVuSans-36"/>
      </g>
     </g>
    </g>
    <g id="text_36">
     <!-- Acceleration -->
     <g transform="translate(453.248125 124.594279)rotate(-90)scale(0.1 -0.1)">
      <defs>
       <path id="DejaVuSans-41" d="M 2188 4044 
L 1331 1722 
L 3047 1722 
L 2188 4044 
z
M 1831 4666 
L 2547 4666 
L 4325 0 
L 3669 0 
L 3244 1197 
L 1141 1197 
L 716 0 
L 50 0 
L 1831 4666 
z
" transform="scale(0.015625)"/>
       <path id="DejaVuSans-72" d="M 2631 2963 
Q 2534 3019 2420 3045 
Q 2306 3072 2169 3072 
Q 1681 3072 1420 2755 
Q 1159 2438 1159 1844 
L 1159 0 
L 581 0 
L 581 3500 
L 1159 3500 
L 1159 2956 
Q 1341 3275 1631 3429 
Q 1922 3584 2338 3584 
Q 2397 3584 2469 3576 
Q 2541 3569 2628 3553 
L 2631 2963 
z
" transform="scale(0.015625)"/>
       <path id="DejaVuSans-61" d="M 2194 1759 
Q 1497 1759 1228 1600 
Q 959 1441 959 1056 
Q 959 750 1161 570 
Q 1363 391 1709 391 
Q 2188 391 2477 730 
Q 2766 1069 2766 1631 
L 2766 1759 
L 2194 1759 
z
M 3341 1997 
L 3341 0 
L 2766 0 
L 2766 531 
Q 2569 213 2275 61 
Q 1981 -91 1556 -91 
Q 1019 -91 701 211 
Q 384 513 384 1019 
Q 384 1609 779 1909 
Q 1175 2209 1959 2209 
L 2766 2209 
L 2766 2266 
Q 2766 2663 2505 2880 
Q 2244 3097 1772 3097 
Q 1472 3097 1187 3025 
Q 903 2953 641 2809 
L 641 3341 
Q 956 3463 1253 3523 
Q 1550 3584 1831 3584 
Q 2591 3584 2966 3190 
Q 3341 2797 3341 1997 
z
" transform="scale(0.015625)"/>
      </defs>
      <use xlink:href="#DejaVuSans-41"/>
      <use xlink:href="#DejaVuSans-63" x="66.658203"/>
      <use xlink:href="#DejaVuSans-63" x="121.638672"/>
      <use xlink:href="#DejaVuSans-65" x="176.619141"/>
      <use xlink:href="#DejaVuSans-6c" x="238.142578"/>
      <use xlink:href="#DejaVuSans-65" x="265.925781"/>
      <use xlink:href="#DejaVuSans-72" x="327.449219"/>
      <use xlink:href="#DejaVuSans-61" x="368.5625"/>
      <use xlink:href="#DejaVuSans-74" x="429.841797"/>
      <use xlink:href="#DejaVuSans-69" x="469.050781"/>
      <use xlink:href="#DejaVuSans-6f" x="496.833984"/>
      <use xlink:href="#DejaVuSans-6e" x="558.015625"/>
     </g>
    </g>
   </g>
   <g id="line2d_45">
    <path d="M 488.111591 51.526886 
L 491.212992 52.74234 
L 494.455367 56.34406 
L 497.697741 61.683078 
L 501.22206 69.039842 
L 504.887353 77.713803 
L 506.860972 82.312315 
L 509.680428 87.267421 
L 513.486693 96.599183 
L 516.165176 102.298763 
L 519.125605 107.263255 
L 522.086034 110.694188 
L 525.328408 113.108282 
L 528.288836 114.494338 
L 533.50483 115.347596 
L 536.606231 115.673608 
L 538.156932 115.726024 
L 541.258333 115.629065 
L 545.205571 115.140021 
L 561.699388 112.530238 
L 568.607055 111.24208 
L 578.757096 109.813572 
L 581.576551 109.23314 
L 583.832116 108.604904 
L 589.471028 106.471427 
L 593.418266 103.689729 
L 596.942586 100.83235 
L 604.132198 94.562338 
L 608.220409 91.048846 
L 611.039865 89.19315 
L 614.987103 85.873282 
L 618.088504 83.617514 
L 620.344069 82.213967 
L 623.44547 80.83834 
L 626.264926 80.075922 
L 628.943409 79.881277 
L 628.943409 79.881277 
" clip-path="url(#p80c4b86b50)" style="fill: none; stroke: #1f77b4; stroke-width: 1.5; stroke-linecap: square"/>
   </g>
   <g id="line2d_46">
    <path d="M 488.111591 24.859462 
L 491.212992 26.536711 
L 494.455367 31.726887 
L 497.838713 39.487718 
L 500.799142 47.710103 
L 504.887353 61.350219 
L 506.719999 67.448788 
L 509.821401 74.583214 
L 513.34572 85.319993 
L 515.883231 91.879929 
L 518.843659 96.855455 
L 521.945061 98.422597 
L 530.262455 98.529907 
L 532.095102 98.504845 
L 537.452068 98.334534 
L 543.513898 98.430883 
L 574.527912 98.428836 
L 590.880756 98.602486 
L 592.290483 98.805466 
L 595.391885 101.106082 
L 598.634259 105.505241 
L 601.876633 111.588092 
L 605.119007 119.073003 
L 607.79749 125.776792 
L 610.757919 131.363615 
L 617.101695 148.535143 
L 620.344069 156.28738 
L 623.163525 161.764826 
L 625.98298 165.675196 
L 628.943409 166.720361 
L 628.943409 166.720361 
" clip-path="url(#p80c4b86b50)" style="fill: none; stroke: #ff7f0e; stroke-width: 1.5; stroke-linecap: square"/>
   </g>
   <g id="line2d_47">
    <path d="M 488.111591 20.327572 
L 491.212992 22.247273 
L 494.455367 28.130584 
L 497.697741 37.02122 
L 501.081088 48.707816 
L 505.028326 64.273823 
L 506.719999 70.896444 
L 509.680428 79.260826 
L 513.627666 94.679048 
L 516.165176 103.478325 
L 519.125605 111.90631 
L 522.227006 118.530736 
L 525.187435 123.156759 
L 528.006891 126.116817 
L 531.531211 127.351483 
L 534.491639 127.828982 
L 537.593041 127.614314 
L 541.258333 126.711096 
L 545.487517 125.284393 
L 547.461136 124.683362 
L 550.139619 123.864874 
L 561.558415 119.223341 
L 565.646626 117.716482 
L 568.607055 116.94904 
L 571.849429 116.284771 
L 575.93764 115.076611 
L 577.770286 114.378551 
L 581.01266 112.816363 
L 584.396007 110.813496 
L 586.792545 109.393451 
L 589.471028 108.052012 
L 594.546048 104.181322 
L 597.647449 101.582714 
L 600.043987 99.398957 
L 602.581497 96.877727 
L 606.810681 92.236947 
L 607.938463 91.103503 
L 610.898892 88.58629 
L 616.819749 81.490899 
L 620.90796 77.0651 
L 623.304497 74.857756 
L 626.123953 73.064151 
L 628.943409 72.530253 
L 628.943409 72.530253 
" clip-path="url(#p80c4b86b50)" style="fill: none; stroke: #2ca02c; stroke-width: 1.5; stroke-linecap: square"/>
   </g>
   <g id="line2d_48">
    <path d="M 488.111591 104.227796 
L 493.186611 103.916964 
L 498.261632 103.33404 
L 504.605407 102.683244 
L 508.834591 102.497857 
L 514.614476 102.472879 
L 518.843659 102.362385 
L 524.623544 101.791941 
L 532.658993 100.731017 
L 536.888177 100.166213 
L 540.130551 99.88325 
L 544.077789 99.867772 
L 549.998646 100.234324 
L 561.417442 101.630009 
L 565.223708 101.889029 
L 570.298728 102.020527 
L 573.964021 101.932354 
L 578.616123 101.481992 
L 582.845306 100.805084 
L 584.959898 100.332702 
L 588.0613 99.733282 
L 590.034919 99.283485 
L 593.982157 98.010451 
L 597.506477 96.638437 
L 599.762041 95.609704 
L 602.863443 93.991192 
L 606.528735 91.797935 
L 608.220409 90.869274 
L 611.039865 89.509495 
L 617.242667 85.436715 
L 620.90796 83.380433 
L 623.586443 82.177597 
L 626.264926 81.357929 
L 628.943409 81.145573 
L 628.943409 81.145573 
" clip-path="url(#p80c4b86b50)" style="fill: none; stroke: #d62728; stroke-width: 1.5; stroke-linecap: square"/>
   </g>
   <g id="line2d_49">
    <path d="M 488.111591 80.667211 
L 491.494938 81.416502 
L 494.737312 83.178713 
L 498.120659 85.744362 
L 502.20887 89.427394 
L 507.565836 94.342438 
L 509.821401 95.974445 
L 514.33253 100.403296 
L 516.588095 102.365165 
L 519.407551 104.454262 
L 522.508952 106.201927 
L 525.751326 107.522428 
L 528.570782 108.318599 
L 540.271524 109.978873 
L 547.320163 110.375445 
L 551.831292 110.612965 
L 554.791721 110.932477 
L 559.020905 111.534227 
L 564.941762 112.265411 
L 569.170946 112.415021 
L 571.990402 112.275198 
L 574.95083 111.879512 
L 577.770286 111.229537 
L 580.730715 110.192423 
L 583.691143 108.759705 
L 587.356436 106.655686 
L 589.330055 105.571351 
L 593.559239 101.63094 
L 597.224531 97.807823 
L 600.889824 93.698224 
L 603.427334 90.647779 
L 606.24679 87.050059 
L 607.938463 84.997991 
L 610.757919 82.294194 
L 616.678776 74.056156 
L 620.062123 70.000878 
L 623.163525 67.124353 
L 626.123953 65.354712 
L 628.943409 64.928096 
L 628.943409 64.928096 
" clip-path="url(#p80c4b86b50)" style="fill: none; stroke: #9467bd; stroke-width: 1.5; stroke-linecap: square"/>
   </g>
   <g id="line2d_50">
    <path d="M 488.111591 31.289578 
L 491.353965 32.454986 
L 494.455367 35.328479 
L 497.838713 39.998026 
L 501.22206 45.753984 
L 505.169299 53.315794 
L 506.860972 56.435334 
L 509.821401 60.631923 
L 515.178367 71.156806 
L 517.151986 74.703962 
L 519.830469 79.203042 
L 522.790897 83.650145 
L 525.751326 87.542906 
L 528.147864 90.24249 
L 531.813156 92.774779 
L 534.632612 94.911691 
L 537.734013 96.665194 
L 540.694442 97.787265 
L 543.936816 98.420111 
L 547.320163 98.582367 
L 550.985456 98.39237 
L 564.659816 97.284134 
L 569.87581 97.461622 
L 571.567483 97.678711 
L 574.668885 98.410324 
L 577.629313 99.498828 
L 580.589742 101.035399 
L 583.691143 103.158161 
L 586.933517 105.68198 
L 589.330055 107.385943 
L 592.995347 111.959223 
L 596.096749 116.505372 
L 599.339123 121.94277 
L 603.004416 128.783573 
L 608.220409 138.693415 
L 610.757919 142.178986 
L 614.987103 150.035977 
L 617.665586 154.480583 
L 620.344069 158.340352 
L 623.163525 161.53712 
L 625.98298 163.718207 
L 628.943409 164.244497 
L 628.943409 164.244497 
" clip-path="url(#p80c4b86b50)" style="fill: none; stroke: #8c564b; stroke-width: 1.5; stroke-linecap: square"/>
   </g>
   <g id="line2d_51">
    <path d="M 488.111591 39.935791 
L 491.353965 40.568365 
L 494.455367 42.277955 
L 497.697741 45.243564 
L 500.940115 49.275286 
L 504.464435 54.607657 
L 506.860972 58.363434 
L 509.680428 61.739899 
L 517.011013 75.190243 
L 528.429809 96.483121 
L 531.249265 99.927354 
L 535.337476 106.373903 
L 538.57985 110.95884 
L 541.822224 115.126978 
L 545.205571 119.125964 
L 546.615299 120.594705 
L 549.857673 123.007201 
L 553.663939 126.499471 
L 556.624367 128.855771 
L 559.584796 130.86786 
L 562.545225 132.532217 
L 565.36468 133.771202 
L 568.184136 134.585618 
L 571.285538 134.788327 
L 574.245966 134.441367 
L 577.347368 133.307242 
L 580.448769 131.412658 
L 583.691143 128.717221 
L 586.651572 125.956773 
L 589.330055 123.846579 
L 593.418266 118.495061 
L 596.66064 113.761316 
L 600.466905 107.728506 
L 608.079436 95.508944 
L 610.898892 92.411978 
L 615.410021 85.982677 
L 617.806559 82.891439 
L 620.626014 79.649753 
L 623.163525 77.173477 
L 626.123953 75.255055 
L 628.943409 74.721075 
L 628.943409 74.721075 
" clip-path="url(#p80c4b86b50)" style="fill: none; stroke: #e377c2; stroke-width: 1.5; stroke-linecap: square"/>
   </g>
   <g id="patch_13">
    <path d="M 481.07 174.04 
L 481.07 13.007933 
" style="fill: none; stroke: #000000; stroke-width: 0.8; stroke-linejoin: miter; stroke-linecap: square"/>
   </g>
   <g id="patch_14">
    <path d="M 635.985 174.04 
L 635.985 13.007933 
" style="fill: none; stroke: #000000; stroke-width: 0.8; stroke-linejoin: miter; stroke-linecap: square"/>
   </g>
   <g id="patch_15">
    <path d="M 481.07 174.04 
L 635.985 174.04 
" style="fill: none; stroke: #000000; stroke-width: 0.8; stroke-linejoin: miter; stroke-linecap: square"/>
   </g>
   <g id="patch_16">
    <path d="M 481.07 13.007933 
L 635.985 13.007933 
" style="fill: none; stroke: #000000; stroke-width: 0.8; stroke-linejoin: miter; stroke-linecap: square"/>
   </g>
  </g>
  <g id="axes_4">
   <g id="patch_17">
    <path d="M 698.285 174.04 
L 853.2 174.04 
L 853.2 13.007933 
L 698.285 13.007933 
z
" style="fill: #ffffff"/>
   </g>
   <g id="matplotlib.axis_7">
    <g id="xtick_10">
     <g id="line2d_52">
      <g>
       <use xlink:href="#m06f0307809" x="705.326591" y="174.04" style="stroke: #000000; stroke-width: 0.8"/>
      </g>
     </g>
     <g id="text_37">
      <!-- 0.0 -->
      <g transform="translate(697.375028 188.638438)scale(0.1 -0.1)">
       <use xlink:href="#DejaVuSans-30"/>
       <use xlink:href="#DejaVuSans-2e" x="63.623047"/>
       <use xlink:href="#DejaVuSans-30" x="95.410156"/>
      </g>
     </g>
    </g>
    <g id="xtick_11">
     <g id="line2d_53">
      <g>
       <use xlink:href="#m06f0307809" x="763.556697" y="174.04" style="stroke: #000000; stroke-width: 0.8"/>
      </g>
     </g>
     <g id="text_38">
      <!-- 0.5 -->
      <g transform="translate(755.605134 188.638438)scale(0.1 -0.1)">
       <use xlink:href="#DejaVuSans-30"/>
       <use xlink:href="#DejaVuSans-2e" x="63.623047"/>
       <use xlink:href="#DejaVuSans-35" x="95.410156"/>
      </g>
     </g>
    </g>
    <g id="xtick_12">
     <g id="line2d_54">
      <g>
       <use xlink:href="#m06f0307809" x="821.786803" y="174.04" style="stroke: #000000; stroke-width: 0.8"/>
      </g>
     </g>
     <g id="text_39">
      <!-- 1.0 -->
      <g transform="translate(813.835241 188.638438)scale(0.1 -0.1)">
       <use xlink:href="#DejaVuSans-31"/>
       <use xlink:href="#DejaVuSans-2e" x="63.623047"/>
       <use xlink:href="#DejaVuSans-30" x="95.410156"/>
      </g>
     </g>
    </g>
    <g id="text_40">
     <!-- Time -->
     <g transform="translate(763.508906 202.316563)scale(0.1 -0.1)">
      <use xlink:href="#DejaVuSans-54"/>
      <use xlink:href="#DejaVuSans-69" x="57.958984"/>
      <use xlink:href="#DejaVuSans-6d" x="85.742188"/>
      <use xlink:href="#DejaVuSans-65" x="183.154297"/>
     </g>
    </g>
   </g>
   <g id="matplotlib.axis_8">
    <g id="ytick_22">
     <g id="line2d_55">
      <g>
       <use xlink:href="#me7bd168f79" x="698.285" y="156.647494" style="stroke: #000000; stroke-width: 0.8"/>
      </g>
     </g>
     <g id="text_41">
      <!-- −40 -->
      <g transform="translate(670.180313 160.446712)scale(0.1 -0.1)">
       <use xlink:href="#DejaVuSans-2212"/>
       <use xlink:href="#DejaVuSans-34" x="83.789062"/>
       <use xlink:href="#DejaVuSans-30" x="147.412109"/>
      </g>
     </g>
    </g>
    <g id="ytick_23">
     <g id="line2d_56">
      <g>
       <use xlink:href="#me7bd168f79" x="698.285" y="133.142259" style="stroke: #000000; stroke-width: 0.8"/>
      </g>
     </g>
     <g id="text_42">
      <!-- −30 -->
      <g transform="translate(670.180313 136.941478)scale(0.1 -0.1)">
       <use xlink:href="#DejaVuSans-2212"/>
       <use xlink:href="#DejaVuSans-33" x="83.789062"/>
       <use xlink:href="#DejaVuSans-30" x="147.412109"/>
      </g>
     </g>
    </g>
    <g id="ytick_24">
     <g id="line2d_57">
      <g>
       <use xlink:href="#me7bd168f79" x="698.285" y="109.637025" style="stroke: #000000; stroke-width: 0.8"/>
      </g>
     </g>
     <g id="text_43">
      <!-- −20 -->
      <g transform="translate(670.180313 113.436244)scale(0.1 -0.1)">
       <use xlink:href="#DejaVuSans-2212"/>
       <use xlink:href="#DejaVuSans-32" x="83.789062"/>
       <use xlink:href="#DejaVuSans-30" x="147.412109"/>
      </g>
     </g>
    </g>
    <g id="ytick_25">
     <g id="line2d_58">
      <g>
       <use xlink:href="#me7bd168f79" x="698.285" y="86.131791" style="stroke: #000000; stroke-width: 0.8"/>
      </g>
     </g>
     <g id="text_44">
      <!-- −10 -->
      <g transform="translate(670.180313 89.93101)scale(0.1 -0.1)">
       <use xlink:href="#DejaVuSans-2212"/>
       <use xlink:href="#DejaVuSans-31" x="83.789062"/>
       <use xlink:href="#DejaVuSans-30" x="147.412109"/>
      </g>
     </g>
    </g>
    <g id="ytick_26">
     <g id="line2d_59">
      <g>
       <use xlink:href="#me7bd168f79" x="698.285" y="62.626557" style="stroke: #000000; stroke-width: 0.8"/>
      </g>
     </g>
     <g id="text_45">
      <!-- 0 -->
      <g transform="translate(684.9225 66.425775)scale(0.1 -0.1)">
       <use xlink:href="#DejaVuSans-30"/>
      </g>
     </g>
    </g>
    <g id="ytick_27">
     <g id="line2d_60">
      <g>
       <use xlink:href="#me7bd168f79" x="698.285" y="39.121322" style="stroke: #000000; stroke-width: 0.8"/>
      </g>
     </g>
     <g id="text_46">
      <!-- 10 -->
      <g transform="translate(678.56 42.920541)scale(0.1 -0.1)">
       <use xlink:href="#DejaVuSans-31"/>
       <use xlink:href="#DejaVuSans-30" x="63.623047"/>
      </g>
     </g>
    </g>
    <g id="ytick_28">
     <g id="line2d_61">
      <g>
       <use xlink:href="#me7bd168f79" x="698.285" y="15.616088" style="stroke: #000000; stroke-width: 0.8"/>
      </g>
     </g>
     <g id="text_47">
      <!-- 20 -->
      <g transform="translate(678.56 19.415307)scale(0.1 -0.1)">
       <use xlink:href="#DejaVuSans-32"/>
       <use xlink:href="#DejaVuSans-30" x="63.623047"/>
      </g>
     </g>
    </g>
    <g id="text_48">
     <!-- Jerk -->
     <g transform="translate(664.100625 103.02631)rotate(-90)scale(0.1 -0.1)">
      <defs>
       <path id="DejaVuSans-4a" d="M 628 4666 
L 1259 4666 
L 1259 325 
Q 1259 -519 939 -900 
Q 619 -1281 -91 -1281 
L -331 -1281 
L -331 -750 
L -134 -750 
Q 284 -750 456 -515 
Q 628 -281 628 325 
L 628 4666 
z
" transform="scale(0.015625)"/>
       <path id="DejaVuSans-6b" d="M 581 4863 
L 1159 4863 
L 1159 1991 
L 2875 3500 
L 3609 3500 
L 1753 1863 
L 3688 0 
L 2938 0 
L 1159 1709 
L 1159 0 
L 581 0 
L 581 4863 
z
" transform="scale(0.015625)"/>
      </defs>
      <use xlink:href="#DejaVuSans-4a"/>
      <use xlink:href="#DejaVuSans-65" x="29.492188"/>
      <use xlink:href="#DejaVuSans-72" x="91.015625"/>
      <use xlink:href="#DejaVuSans-6b" x="132.128906"/>
     </g>
    </g>
   </g>
   <g id="line2d_62">
    <path d="M 705.326591 72.341964 
L 708.28702 72.341964 
L 708.427992 89.909233 
L 711.388421 89.909233 
L 711.529394 103.055069 
L 714.489822 103.055069 
L 714.630795 113.878635 
L 717.450251 113.878635 
L 717.591224 120.801774 
L 720.551652 120.801774 
L 720.692625 125.430466 
L 723.653054 125.430466 
L 723.794027 106.207441 
L 726.754455 106.207441 
L 726.895428 126.633726 
L 729.714884 126.633726 
L 729.855857 118.795021 
L 732.816285 118.795021 
L 732.957258 107.042879 
L 735.917687 107.042879 
L 736.058659 93.082263 
L 738.878115 93.082263 
L 739.019088 82.543622 
L 741.979517 82.543622 
L 742.120489 75.551905 
L 745.080918 75.551905 
L 745.221891 67.312473 
L 748.182319 67.312473 
L 748.323292 66.207166 
L 751.142748 66.207166 
L 751.283721 65.104469 
L 754.244149 65.104469 
L 754.385122 62.734601 
L 757.345551 62.734601 
L 757.486524 60.194578 
L 760.305979 60.194578 
L 760.446952 58.781846 
L 763.407381 58.781846 
L 763.548354 59.17811 
L 766.508782 59.17811 
L 766.649755 57.721112 
L 769.610184 57.721112 
L 769.751156 58.856938 
L 772.570612 58.856938 
L 772.711585 59.303406 
L 775.672014 59.303406 
L 775.812986 57.985321 
L 778.773415 57.985321 
L 778.914388 57.516277 
L 781.733844 57.516277 
L 781.874816 57.844283 
L 784.835245 57.844283 
L 784.976218 59.327095 
L 787.936646 59.327095 
L 788.077619 58.729299 
L 791.038048 58.729299 
L 791.179021 59.615346 
L 793.998476 59.615346 
L 794.139449 58.360437 
L 797.099878 58.360437 
L 797.240851 56.694851 
L 800.201279 56.694851 
L 800.342252 53.546934 
L 806.263109 53.452803 
L 806.404082 45.5252 
L 809.364511 45.5252 
L 809.505483 43.005807 
L 812.465912 43.005807 
L 812.606885 41.019018 
L 815.426341 41.019018 
L 815.567313 40.628833 
L 818.527742 40.628833 
L 818.668715 40.107235 
L 821.629143 40.107235 
L 821.770116 39.466985 
L 824.589572 39.466985 
L 824.730545 47.029667 
L 827.690973 47.029667 
L 827.831946 40.381431 
L 830.792375 40.381431 
L 830.933348 43.041409 
L 833.893776 43.041409 
L 834.034749 45.572438 
L 836.854205 45.572438 
L 836.995178 50.465752 
L 839.955606 50.465752 
L 840.096579 54.978579 
L 843.057008 54.978579 
L 843.19798 60.783206 
L 846.158409 60.783206 
L 846.158409 60.783206 
" clip-path="url(#p23f6c734b3)" style="fill: none; stroke: #1f77b4; stroke-width: 1.5; stroke-linecap: square"/>
   </g>
   <g id="line2d_63">
    <path d="M 705.326591 76.009586 
L 708.28702 76.009586 
L 708.427992 102.088858 
L 711.388421 102.088858 
L 711.529394 118.868962 
L 714.489822 118.868962 
L 714.630795 130.988051 
L 717.450251 130.988051 
L 717.591224 145.014412 
L 720.551652 145.014412 
L 720.692625 151.265688 
L 723.653054 151.265688 
L 723.794027 118.853899 
L 726.754455 118.853899 
L 726.895428 142.478615 
L 729.714884 142.478615 
L 729.855857 130.242487 
L 732.816285 130.242487 
L 732.957258 106.451675 
L 735.917687 106.451675 
L 736.058659 76.124093 
L 738.878115 76.124093 
L 739.019088 62.629743 
L 745.080918 62.621749 
L 745.221891 63.786912 
L 748.182319 63.786912 
L 748.323292 61.324257 
L 751.142748 61.324257 
L 751.283721 61.940177 
L 754.244149 61.940177 
L 754.385122 63.491915 
L 757.345551 63.491915 
L 757.486524 62.668773 
L 760.305979 62.668773 
L 760.587925 62.534844 
L 791.038048 62.637925 
L 791.319993 62.723783 
L 793.998476 62.723783 
L 794.139449 62.53906 
L 797.099878 62.53906 
L 797.240851 62.341148 
L 800.201279 62.341148 
L 800.342252 62.710839 
L 806.263109 62.741238 
L 806.404082 65.335416 
L 809.364511 65.335416 
L 809.505483 80.835286 
L 812.465912 80.835286 
L 812.606885 95.836634 
L 815.426341 95.836634 
L 815.567313 108.594081 
L 818.527742 108.594081 
L 818.668715 119.376122 
L 821.629143 119.376122 
L 821.770116 128.146099 
L 824.589572 128.146099 
L 824.730545 109.043245 
L 827.690973 109.043245 
L 827.831946 132.440365 
L 830.792375 132.440365 
L 830.933348 130.985914 
L 833.893776 130.985914 
L 834.034749 125.378301 
L 836.854205 125.378301 
L 836.995178 113.724958 
L 839.955606 113.724958 
L 840.096579 98.782989 
L 843.057008 98.782989 
L 843.19798 71.581906 
L 846.158409 71.581906 
L 846.158409 71.581906 
" clip-path="url(#p23f6c734b3)" style="fill: none; stroke: #ff7f0e; stroke-width: 1.5; stroke-linecap: square"/>
   </g>
   <g id="line2d_64">
    <path d="M 705.326591 77.953239 
L 708.28702 77.953239 
L 708.427992 107.094803 
L 711.388421 107.094803 
L 711.529394 129.997352 
L 714.489822 129.997352 
L 714.630795 147.629626 
L 717.450251 147.629626 
L 717.591224 159.862718 
L 720.551652 159.862718 
L 720.692625 166.720361 
L 723.653054 166.720361 
L 723.794027 132.82167 
L 726.754455 132.82167 
L 726.895428 164.462397 
L 729.714884 164.462397 
L 729.855857 153.841559 
L 732.816285 153.841559 
L 732.957258 137.313527 
L 735.917687 137.313527 
L 736.058659 118.93768 
L 738.878115 118.93768 
L 739.019088 103.85913 
L 741.979517 103.85913 
L 742.120489 89.851004 
L 745.080918 89.851004 
L 745.221891 72.238789 
L 748.182319 72.238789 
L 748.323292 67.652586 
L 751.142748 67.652586 
L 751.283721 61.593079 
L 754.244149 61.593079 
L 754.385122 57.081095 
L 757.345551 57.081095 
L 757.486524 54.731239 
L 760.305979 54.731239 
L 760.446952 53.497007 
L 763.407381 53.497007 
L 763.548354 55.846794 
L 766.508782 55.846794 
L 766.649755 52.580858 
L 769.610184 52.580858 
L 769.751156 52.399709 
L 775.672014 52.360787 
L 775.812986 51.98728 
L 778.773415 51.98728 
L 778.914388 52.694153 
L 781.733844 52.694153 
L 781.874816 55.108199 
L 784.835245 55.108199 
L 784.976218 58.226643 
L 787.936646 58.226643 
L 788.077619 55.824723 
L 791.038048 55.824723 
L 791.179021 54.474373 
L 793.998476 54.474373 
L 794.139449 51.306438 
L 797.099878 51.306438 
L 797.240851 48.534326 
L 800.201279 48.534326 
L 800.342252 46.26264 
L 803.161708 46.26264 
L 803.302681 50.757537 
L 806.263109 50.757537 
L 806.404082 43.938719 
L 809.364511 43.938719 
L 809.505483 42.510981 
L 812.465912 42.510981 
L 812.606885 41.028591 
L 815.426341 41.028591 
L 815.567313 38.911753 
L 818.527742 38.911753 
L 818.668715 35.743471 
L 821.629143 35.743471 
L 821.770116 34.037945 
L 824.589572 34.037945 
L 824.730545 42.232573 
L 827.690973 42.232573 
L 827.831946 31.529937 
L 830.792375 31.529937 
L 830.933348 32.77527 
L 833.893776 32.77527 
L 834.034749 34.17393 
L 836.854205 34.17393 
L 836.995178 37.702723 
L 839.955606 37.702723 
L 840.096579 45.425283 
L 843.057008 45.425283 
L 843.19798 57.823199 
L 846.158409 57.823199 
L 846.158409 57.823199 
" clip-path="url(#p23f6c734b3)" style="fill: none; stroke: #2ca02c; stroke-width: 1.5; stroke-linecap: square"/>
   </g>
   <g id="line2d_65">
    <path d="M 705.326591 61.607536 
L 708.28702 61.607536 
L 708.427992 60.260089 
L 711.388421 60.260089 
L 711.529394 59.563051 
L 717.450251 59.594461 
L 717.591224 59.997437 
L 720.551652 59.997437 
L 720.692625 60.853386 
L 723.653054 60.853386 
L 723.794027 62.041567 
L 726.754455 62.041567 
L 726.895428 62.57903 
L 732.816285 62.589764 
L 732.957258 61.800385 
L 735.917687 61.800385 
L 736.058659 60.610863 
L 738.878115 60.610863 
L 739.019088 59.616279 
L 741.979517 59.616279 
L 742.120489 59.05194 
L 745.080918 59.05194 
L 745.221891 59.856233 
L 748.182319 59.856233 
L 748.323292 58.590282 
L 751.142748 58.590282 
L 751.283721 59.551781 
L 754.244149 59.551781 
L 754.385122 60.471997 
L 757.345551 60.471997 
L 757.486524 62.19796 
L 760.305979 62.19796 
L 760.446952 63.767461 
L 763.407381 63.767461 
L 763.548354 64.12606 
L 766.508782 64.12606 
L 766.649755 65.970712 
L 769.610184 65.970712 
L 769.751156 66.167485 
L 772.570612 66.167485 
L 772.711585 65.710259 
L 775.672014 65.710259 
L 775.812986 65.075092 
L 778.773415 65.075092 
L 778.914388 64.412228 
L 781.733844 64.412228 
L 781.874816 63.818618 
L 784.835245 63.818618 
L 784.976218 62.769282 
L 787.936646 62.769282 
L 788.077619 61.953419 
L 791.038048 61.953419 
L 791.179021 60.734362 
L 793.998476 60.734362 
L 794.139449 59.209749 
L 797.099878 59.209749 
L 797.240851 58.267496 
L 800.201279 58.267496 
L 800.342252 56.842262 
L 803.161708 56.842262 
L 803.302681 58.223511 
L 806.263109 58.223511 
L 806.404082 55.173928 
L 809.364511 55.173928 
L 809.505483 53.556752 
L 812.465912 53.556752 
L 812.606885 52.290084 
L 815.426341 52.290084 
L 815.567313 50.351572 
L 818.527742 50.351572 
L 818.668715 48.326212 
L 821.629143 48.326212 
L 821.770116 46.776863 
L 824.589572 46.776863 
L 824.730545 51.376285 
L 827.690973 51.376285 
L 827.831946 45.424337 
L 830.792375 45.424337 
L 830.933348 46.146794 
L 833.893776 46.146794 
L 834.034749 47.587276 
L 836.854205 47.587276 
L 836.995178 50.166094 
L 839.955606 50.166094 
L 840.096579 53.904209 
L 843.057008 53.904209 
L 843.19798 60.615483 
L 846.158409 60.615483 
L 846.158409 60.615483 
" clip-path="url(#p23f6c734b3)" style="fill: none; stroke: #d62728; stroke-width: 1.5; stroke-linecap: square"/>
   </g>
   <g id="line2d_66">
    <path d="M 705.326591 67.473695 
L 708.28702 67.473695 
L 708.427992 75.575326 
L 711.388421 75.575326 
L 711.529394 80.978271 
L 714.489822 80.978271 
L 714.630795 84.605342 
L 717.450251 84.605342 
L 717.591224 86.533983 
L 720.551652 86.533983 
L 720.692625 87.762461 
L 723.653054 87.762461 
L 723.794027 79.93673 
L 726.754455 79.93673 
L 726.895428 88.375166 
L 729.714884 88.375166 
L 729.855857 86.169165 
L 732.816285 86.169165 
L 732.957258 82.55159 
L 735.917687 82.55159 
L 736.058659 77.869173 
L 738.878115 77.869173 
L 739.019088 73.783919 
L 741.979517 73.783919 
L 742.120489 70.808893 
L 745.080918 70.808893 
L 745.221891 66.446983 
L 748.182319 66.446983 
L 748.323292 66.918502 
L 751.142748 66.918502 
L 751.283721 66.319027 
L 754.244149 66.319027 
L 754.385122 65.332354 
L 757.345551 65.332354 
L 757.486524 64.448506 
L 760.305979 64.448506 
L 760.446952 63.907324 
L 763.407381 63.907324 
L 763.548354 63.364742 
L 766.508782 63.364742 
L 766.649755 64.447682 
L 769.610184 64.447682 
L 769.751156 65.584277 
L 772.570612 65.584277 
L 772.711585 66.381048 
L 775.672014 66.381048 
L 775.953959 66.224549 
L 778.773415 66.224549 
L 778.914388 65.520158 
L 781.733844 65.520158 
L 781.874816 64.165556 
L 784.835245 64.165556 
L 784.976218 62.305294 
L 787.936646 62.305294 
L 788.077619 60.13462 
L 791.038048 60.13462 
L 791.179021 57.750282 
L 793.998476 57.750282 
L 794.139449 54.614502 
L 797.099878 54.614502 
L 797.240851 51.262977 
L 800.201279 51.262977 
L 800.342252 47.238115 
L 803.161708 47.238115 
L 803.302681 49.616791 
L 806.263109 49.616791 
L 806.404082 39.833299 
L 809.364511 39.833299 
L 809.505483 37.208336 
L 812.465912 37.208336 
L 812.606885 35.261705 
L 815.426341 35.261705 
L 815.567313 33.722302 
L 818.527742 33.722302 
L 818.668715 31.743462 
L 821.629143 31.743462 
L 821.770116 29.412376 
L 824.589572 29.412376 
L 824.730545 39.118716 
L 827.690973 39.118716 
L 827.831946 26.581681 
L 830.792375 26.581681 
L 830.933348 28.044067 
L 833.893776 28.044067 
L 834.034749 31.65716 
L 836.854205 31.65716 
L 836.995178 38.184452 
L 839.955606 38.184452 
L 840.096579 46.454997 
L 843.057008 46.454997 
L 843.19798 58.788387 
L 846.158409 58.788387 
L 846.158409 58.788387 
" clip-path="url(#p23f6c734b3)" style="fill: none; stroke: #9467bd; stroke-width: 1.5; stroke-linecap: square"/>
   </g>
   <g id="line2d_67">
    <path d="M 705.326591 70.940548 
L 708.28702 70.940548 
L 708.427992 85.346053 
L 711.388421 85.346053 
L 711.529394 96.344446 
L 714.489822 96.344446 
L 714.630795 104.397916 
L 717.450251 104.397916 
L 717.591224 109.81176 
L 720.551652 109.81176 
L 720.692625 112.990127 
L 723.653054 112.990127 
L 723.794027 97.02129 
L 726.754455 97.02129 
L 726.895428 113.614873 
L 729.714884 113.614873 
L 729.855857 111.218772 
L 732.816285 111.218772 
L 732.957258 107.232293 
L 735.917687 107.232293 
L 736.058659 102.381309 
L 738.878115 102.381309 
L 739.019088 97.505922 
L 741.979517 97.505922 
L 742.120489 92.49595 
L 745.080918 92.49595 
L 745.221891 79.336101 
L 748.182319 79.336101 
L 748.323292 82.895356 
L 751.142748 82.895356 
L 751.283721 77.972318 
L 754.244149 77.972318 
L 754.385122 73.087232 
L 757.345551 73.087232 
L 757.486524 68.415306 
L 760.305979 68.415306 
L 760.446952 64.627219 
L 763.407381 64.627219 
L 763.548354 62.073433 
L 766.508782 62.073433 
L 766.649755 60.373671 
L 769.610184 60.373671 
L 769.751156 59.958611 
L 775.672014 60.065409 
L 775.812986 60.709703 
L 778.773415 60.709703 
L 778.914388 61.633544 
L 781.733844 61.633544 
L 781.874816 62.957598 
L 784.835245 62.957598 
L 784.976218 64.240373 
L 787.936646 64.240373 
L 788.077619 67.738552 
L 791.038048 67.738552 
L 791.179021 70.982124 
L 793.998476 70.982124 
L 794.139449 74.907264 
L 797.099878 74.907264 
L 797.240851 79.058221 
L 800.201279 79.058221 
L 800.342252 83.356537 
L 803.161708 83.356537 
L 803.302681 79.60628 
L 806.263109 79.60628 
L 806.404082 93.141162 
L 809.364511 93.141162 
L 809.505483 98.403735 
L 812.465912 98.403735 
L 812.606885 103.651481 
L 815.426341 103.651481 
L 815.567313 108.503556 
L 818.527742 108.503556 
L 818.668715 111.829352 
L 821.629143 111.829352 
L 821.770116 113.675824 
L 824.589572 113.675824 
L 824.730545 96.402312 
L 827.690973 96.402312 
L 827.831946 111.13364 
L 830.792375 111.13364 
L 830.933348 106.809008 
L 833.893776 106.809008 
L 834.034749 101.02646 
L 836.854205 101.02646 
L 836.995178 92.575867 
L 839.955606 92.575867 
L 840.096579 82.811596 
L 843.057008 82.811596 
L 843.19798 67.135998 
L 846.158409 67.135998 
L 846.158409 67.135998 
" clip-path="url(#p23f6c734b3)" style="fill: none; stroke: #8c564b; stroke-width: 1.5; stroke-linecap: square"/>
   </g>
   <g id="line2d_68">
    <path d="M 705.326591 67.078968 
L 708.28702 67.078968 
L 708.427992 75.980392 
L 711.388421 75.980392 
L 711.529394 84.817349 
L 714.489822 84.817349 
L 714.630795 92.974597 
L 717.450251 92.974597 
L 717.591224 99.619317 
L 720.551652 99.619317 
L 720.692625 104.29545 
L 723.653054 104.29545 
L 723.794027 92.211817 
L 726.754455 92.211817 
L 726.895428 108.405067 
L 729.714884 108.405067 
L 729.855857 109.367879 
L 732.816285 109.367879 
L 732.957258 110.375357 
L 735.917687 110.375357 
L 736.058659 111.146952 
L 741.979517 111.239488 
L 742.120489 110.090946 
L 745.080918 110.090946 
L 745.221891 92.505366 
L 748.182319 92.505366 
L 748.323292 103.833569 
L 751.142748 103.833569 
L 751.283721 100.04105 
L 754.244149 100.04105 
L 754.385122 96.663291 
L 757.345551 96.663291 
L 757.486524 93.880544 
L 760.305979 93.880544 
L 760.446952 91.712895 
L 763.407381 91.712895 
L 763.548354 80.493698 
L 766.508782 80.493698 
L 766.649755 86.832278 
L 769.610184 86.832278 
L 769.751156 84.015123 
L 772.570612 84.015123 
L 772.711585 80.951178 
L 775.672014 80.951178 
L 775.812986 77.915112 
L 778.773415 77.915112 
L 778.914388 74.733058 
L 781.733844 74.733058 
L 781.874816 70.943967 
L 784.835245 70.943967 
L 784.976218 65.027996 
L 787.936646 65.027996 
L 788.077619 60.522421 
L 791.038048 60.522421 
L 791.179021 54.25969 
L 793.998476 54.25969 
L 794.139449 48.001695 
L 797.099878 48.001695 
L 797.240851 42.494262 
L 800.201279 42.494262 
L 800.342252 37.881173 
L 803.161708 37.881173 
L 803.302681 43.557017 
L 806.263109 43.557017 
L 806.404082 30.45253 
L 809.364511 30.45253 
L 809.505483 26.981399 
L 812.465912 26.981399 
L 812.606885 23.753249 
L 815.426341 23.753249 
L 815.567313 21.384839 
L 818.527742 21.384839 
L 818.668715 20.327572 
L 821.629143 20.327572 
L 821.770116 21.043203 
L 824.589572 21.043203 
L 824.730545 35.980229 
L 827.690973 35.980229 
L 827.831946 25.422822 
L 830.792375 25.422822 
L 830.933348 28.096968 
L 833.893776 28.096968 
L 834.034749 32.008135 
L 836.854205 32.008135 
L 836.995178 36.733879 
L 839.955606 36.733879 
L 840.096579 45.152685 
L 843.057008 45.152685 
L 843.19798 57.822456 
L 846.158409 57.822456 
L 846.158409 57.822456 
" clip-path="url(#p23f6c734b3)" style="fill: none; stroke: #e377c2; stroke-width: 1.5; stroke-linecap: square"/>
   </g>
   <g id="patch_18">
    <path d="M 698.285 174.04 
L 698.285 13.007933 
" style="fill: none; stroke: #000000; stroke-width: 0.8; stroke-linejoin: miter; stroke-linecap: square"/>
   </g>
   <g id="patch_19">
    <path d="M 853.2 174.04 
L 853.2 13.007933 
" style="fill: none; stroke: #000000; stroke-width: 0.8; stroke-linejoin: miter; stroke-linecap: square"/>
   </g>
   <g id="patch_20">
    <path d="M 698.285 174.04 
L 853.2 174.04 
" style="fill: none; stroke: #000000; stroke-width: 0.8; stroke-linejoin: miter; stroke-linecap: square"/>
   </g>
   <g id="patch_21">
    <path d="M 698.285 13.007933 
L 853.2 13.007933 
" style="fill: none; stroke: #000000; stroke-width: 0.8; stroke-linejoin: miter; stroke-linecap: square"/>
   </g>
  </g>
 </g>
 <defs>
  <clipPath id="p6b0f57bc14">
   <rect x="46.64" y="13.007933" width="154.915" height="161.032067"/>
  </clipPath>
  <clipPath id="p4903cfa6e4">
   <rect x="263.855" y="13.007933" width="154.915" height="161.032067"/>
  </clipPath>
  <clipPath id="p80c4b86b50">
   <rect x="481.07" y="13.007933" width="154.915" height="161.032067"/>
  </clipPath>
  <clipPath id="p23f6c734b3">
   <rect x="698.285" y="13.007933" width="154.915" height="161.032067"/>
  </clipPath>
 </defs>
</svg>
