<?xml version="1.0" encoding="utf-8" standalone="no"?>
<!DOCTYPE svg PUBLIC "-//W3C//DTD SVG 1.1//EN"
  "http://www.w3.org/Graphics/SVG/1.1/DTD/svg11.dtd">
<svg xmlns:xlink="http://www.w3.org/1999/xlink" width="864pt" height="216pt" viewBox="0 0 864 216" xmlns="http://www.w3.org/2000/svg" version="1.1">
 <metadata>
  <rdf:RDF xmlns:dc="http://purl.org/dc/elements/1.1/" xmlns:cc="http://creativecommons.org/ns#" xmlns:rdf="http://www.w3.org/1999/02/22-rdf-syntax-ns#">
   <cc:Work>
    <dc:type rdf:resource="http://purl.org/dc/dcmitype/StillImage"/>
    <dc:date>2023-07-24T16:29:16.028189</dc:date>
    <dc:format>image/svg+xml</dc:format>
    <dc:creator>
     <cc:Agent>
      <dc:title>Matplotlib v3.5.2, https://matplotlib.org/</dc:title>
     </cc:Agent>
    </dc:creator>
   </cc:Work>
  </rdf:RDF>
 </metadata>
 <defs>
  <style type="text/css">*{stroke-linejoin: round; stroke-linecap: butt}</style>
 </defs>
 <g id="figure_1">
  <g id="patch_1">
   <path d="M 0 216 
L 864 216 
L 864 0 
L 0 0 
z
" style="fill: #ffffff"/>
  </g>
  <g id="axes_1">
   <g id="patch_2">
    <path d="M 46.64 174.04 
L 194.4 174.04 
L 194.4 13.007933 
L 46.64 13.007933 
z
" style="fill: #ffffff"/>
   </g>
   <g id="matplotlib.axis_1">
    <g id="xtick_1">
     <g id="line2d_1">
      <defs>
       <path id="m4f8bc8aa97" d="M 0 0 
L 0 3.5 
" style="stroke: #000000; stroke-width: 0.8"/>
      </defs>
      <g>
       <use xlink:href="#m4f8bc8aa97" x="53.356364" y="174.04" style="stroke: #000000; stroke-width: 0.8"/>
      </g>
     </g>
     <g id="text_1">
      <!-- 0.0 -->
      <g transform="translate(45.404801 188.638438)scale(0.1 -0.1)">
       <defs>
        <path id="DejaVuSans-30" d="M 2034 4250 
Q 1547 4250 1301 3770 
Q 1056 3291 1056 2328 
Q 1056 1369 1301 889 
Q 1547 409 2034 409 
Q 2525 409 2770 889 
Q 3016 1369 3016 2328 
Q 3016 3291 2770 3770 
Q 2525 4250 2034 4250 
z
M 2034 4750 
Q 2819 4750 3233 4129 
Q 3647 3509 3647 2328 
Q 3647 1150 3233 529 
Q 2819 -91 2034 -91 
Q 1250 -91 836 529 
Q 422 1150 422 2328 
Q 422 3509 836 4129 
Q 1250 4750 2034 4750 
z
" transform="scale(0.015625)"/>
        <path id="DejaVuSans-2e" d="M 684 794 
L 1344 794 
L 1344 0 
L 684 0 
L 684 794 
z
" transform="scale(0.015625)"/>
       </defs>
       <use xlink:href="#DejaVuSans-30"/>
       <use xlink:href="#DejaVuSans-2e" x="63.623047"/>
       <use xlink:href="#DejaVuSans-30" x="95.410156"/>
      </g>
     </g>
    </g>
    <g id="xtick_2">
     <g id="line2d_2">
      <g>
       <use xlink:href="#m4f8bc8aa97" x="110.67647" y="174.04" style="stroke: #000000; stroke-width: 0.8"/>
      </g>
     </g>
     <g id="text_2">
      <!-- 0.5 -->
      <g transform="translate(102.724907 188.638438)scale(0.1 -0.1)">
       <defs>
        <path id="DejaVuSans-35" d="M 691 4666 
L 3169 4666 
L 3169 4134 
L 1269 4134 
L 1269 2991 
Q 1406 3038 1543 3061 
Q 1681 3084 1819 3084 
Q 2600 3084 3056 2656 
Q 3513 2228 3513 1497 
Q 3513 744 3044 326 
Q 2575 -91 1722 -91 
Q 1428 -91 1123 -41 
Q 819 9 494 109 
L 494 744 
Q 775 591 1075 516 
Q 1375 441 1709 441 
Q 2250 441 2565 725 
Q 2881 1009 2881 1497 
Q 2881 1984 2565 2268 
Q 2250 2553 1709 2553 
Q 1456 2553 1204 2497 
Q 953 2441 691 2322 
L 691 4666 
z
" transform="scale(0.015625)"/>
       </defs>
       <use xlink:href="#DejaVuSans-30"/>
       <use xlink:href="#DejaVuSans-2e" x="63.623047"/>
       <use xlink:href="#DejaVuSans-35" x="95.410156"/>
      </g>
     </g>
    </g>
    <g id="xtick_3">
     <g id="line2d_3">
      <g>
       <use xlink:href="#m4f8bc8aa97" x="167.996576" y="174.04" style="stroke: #000000; stroke-width: 0.8"/>
      </g>
     </g>
     <g id="text_3">
      <!-- 1.0 -->
      <g transform="translate(160.045013 188.638438)scale(0.1 -0.1)">
       <defs>
        <path id="DejaVuSans-31" d="M 794 531 
L 1825 531 
L 1825 4091 
L 703 3866 
L 703 4441 
L 1819 4666 
L 2450 4666 
L 2450 531 
L 3481 531 
L 3481 0 
L 794 0 
L 794 531 
z
" transform="scale(0.015625)"/>
       </defs>
       <use xlink:href="#DejaVuSans-31"/>
       <use xlink:href="#DejaVuSans-2e" x="63.623047"/>
       <use xlink:href="#DejaVuSans-30" x="95.410156"/>
      </g>
     </g>
    </g>
    <g id="text_4">
     <!-- Time -->
     <g transform="translate(108.286406 202.316563)scale(0.1 -0.1)">
      <defs>
       <path id="DejaVuSans-54" d="M -19 4666 
L 3928 4666 
L 3928 4134 
L 2272 4134 
L 2272 0 
L 1638 0 
L 1638 4134 
L -19 4134 
L -19 4666 
z
" transform="scale(0.015625)"/>
       <path id="DejaVuSans-69" d="M 603 3500 
L 1178 3500 
L 1178 0 
L 603 0 
L 603 3500 
z
M 603 4863 
L 1178 4863 
L 1178 4134 
L 603 4134 
L 603 4863 
z
" transform="scale(0.015625)"/>
       <path id="DejaVuSans-6d" d="M 3328 2828 
Q 3544 3216 3844 3400 
Q 4144 3584 4550 3584 
Q 5097 3584 5394 3201 
Q 5691 2819 5691 2113 
L 5691 0 
L 5113 0 
L 5113 2094 
Q 5113 2597 4934 2840 
Q 4756 3084 4391 3084 
Q 3944 3084 3684 2787 
Q 3425 2491 3425 1978 
L 3425 0 
L 2847 0 
L 2847 2094 
Q 2847 2600 2669 2842 
Q 2491 3084 2119 3084 
Q 1678 3084 1418 2786 
Q 1159 2488 1159 1978 
L 1159 0 
L 581 0 
L 581 3500 
L 1159 3500 
L 1159 2956 
Q 1356 3278 1631 3431 
Q 1906 3584 2284 3584 
Q 2666 3584 2933 3390 
Q 3200 3197 3328 2828 
z
" transform="scale(0.015625)"/>
       <path id="DejaVuSans-65" d="M 3597 1894 
L 3597 1613 
L 953 1613 
Q 991 1019 1311 708 
Q 1631 397 2203 397 
Q 2534 397 2845 478 
Q 3156 559 3463 722 
L 3463 178 
Q 3153 47 2828 -22 
Q 2503 -91 2169 -91 
Q 1331 -91 842 396 
Q 353 884 353 1716 
Q 353 2575 817 3079 
Q 1281 3584 2069 3584 
Q 2775 3584 3186 3129 
Q 3597 2675 3597 1894 
z
M 3022 2063 
Q 3016 2534 2758 2815 
Q 2500 3097 2075 3097 
Q 1594 3097 1305 2825 
Q 1016 2553 972 2059 
L 3022 2063 
z
" transform="scale(0.015625)"/>
      </defs>
      <use xlink:href="#DejaVuSans-54"/>
      <use xlink:href="#DejaVuSans-69" x="57.958984"/>
      <use xlink:href="#DejaVuSans-6d" x="85.742188"/>
      <use xlink:href="#DejaVuSans-65" x="183.154297"/>
     </g>
    </g>
   </g>
   <g id="matplotlib.axis_2">
    <g id="ytick_1">
     <g id="line2d_4">
      <defs>
       <path id="m94a250829d" d="M 0 0 
L -3.5 0 
" style="stroke: #000000; stroke-width: 0.8"/>
      </defs>
      <g>
       <use xlink:href="#m94a250829d" x="46.64" y="151.493636" style="stroke: #000000; stroke-width: 0.8"/>
      </g>
     </g>
     <g id="text_5">
      <!-- −2 -->
      <g transform="translate(24.897813 155.292855)scale(0.1 -0.1)">
       <defs>
        <path id="DejaVuSans-2212" d="M 678 2272 
L 4684 2272 
L 4684 1741 
L 678 1741 
L 678 2272 
z
" transform="scale(0.015625)"/>
        <path id="DejaVuSans-32" d="M 1228 531 
L 3431 531 
L 3431 0 
L 469 0 
L 469 531 
Q 828 903 1448 1529 
Q 2069 2156 2228 2338 
Q 2531 2678 2651 2914 
Q 2772 3150 2772 3378 
Q 2772 3750 2511 3984 
Q 2250 4219 1831 4219 
Q 1534 4219 1204 4116 
Q 875 4013 500 3803 
L 500 4441 
Q 881 4594 1212 4672 
Q 1544 4750 1819 4750 
Q 2544 4750 2975 4387 
Q 3406 4025 3406 3419 
Q 3406 3131 3298 2873 
Q 3191 2616 2906 2266 
Q 2828 2175 2409 1742 
Q 1991 1309 1228 531 
z
" transform="scale(0.015625)"/>
       </defs>
       <use xlink:href="#DejaVuSans-2212"/>
       <use xlink:href="#DejaVuSans-32" x="83.789062"/>
      </g>
     </g>
    </g>
    <g id="ytick_2">
     <g id="line2d_5">
      <g>
       <use xlink:href="#m94a250829d" x="46.64" y="124.135768" style="stroke: #000000; stroke-width: 0.8"/>
      </g>
     </g>
     <g id="text_6">
      <!-- −1 -->
      <g transform="translate(24.897813 127.934987)scale(0.1 -0.1)">
       <use xlink:href="#DejaVuSans-2212"/>
       <use xlink:href="#DejaVuSans-31" x="83.789062"/>
      </g>
     </g>
    </g>
    <g id="ytick_3">
     <g id="line2d_6">
      <g>
       <use xlink:href="#m94a250829d" x="46.64" y="96.7779" style="stroke: #000000; stroke-width: 0.8"/>
      </g>
     </g>
     <g id="text_7">
      <!-- 0 -->
      <g transform="translate(33.2775 100.577119)scale(0.1 -0.1)">
       <use xlink:href="#DejaVuSans-30"/>
      </g>
     </g>
    </g>
    <g id="ytick_4">
     <g id="line2d_7">
      <g>
       <use xlink:href="#m94a250829d" x="46.64" y="69.420032" style="stroke: #000000; stroke-width: 0.8"/>
      </g>
     </g>
     <g id="text_8">
      <!-- 1 -->
      <g transform="translate(33.2775 73.21925)scale(0.1 -0.1)">
       <use xlink:href="#DejaVuSans-31"/>
      </g>
     </g>
    </g>
    <g id="ytick_5">
     <g id="line2d_8">
      <g>
       <use xlink:href="#m94a250829d" x="46.64" y="42.062163" style="stroke: #000000; stroke-width: 0.8"/>
      </g>
     </g>
     <g id="text_9">
      <!-- 2 -->
      <g transform="translate(33.2775 45.861382)scale(0.1 -0.1)">
       <use xlink:href="#DejaVuSans-32"/>
      </g>
     </g>
    </g>
    <g id="ytick_6">
     <g id="line2d_9">
      <g>
       <use xlink:href="#m94a250829d" x="46.64" y="14.704295" style="stroke: #000000; stroke-width: 0.8"/>
      </g>
     </g>
     <g id="text_10">
      <!-- 3 -->
      <g transform="translate(33.2775 18.503514)scale(0.1 -0.1)">
       <defs>
        <path id="DejaVuSans-33" d="M 2597 2516 
Q 3050 2419 3304 2112 
Q 3559 1806 3559 1356 
Q 3559 666 3084 287 
Q 2609 -91 1734 -91 
Q 1441 -91 1130 -33 
Q 819 25 488 141 
L 488 750 
Q 750 597 1062 519 
Q 1375 441 1716 441 
Q 2309 441 2620 675 
Q 2931 909 2931 1356 
Q 2931 1769 2642 2001 
Q 2353 2234 1838 2234 
L 1294 2234 
L 1294 2753 
L 1863 2753 
Q 2328 2753 2575 2939 
Q 2822 3125 2822 3475 
Q 2822 3834 2567 4026 
Q 2313 4219 1838 4219 
Q 1578 4219 1281 4162 
Q 984 4106 628 3988 
L 628 4550 
Q 988 4650 1302 4700 
Q 1616 4750 1894 4750 
Q 2613 4750 3031 4423 
Q 3450 4097 3450 3541 
Q 3450 3153 3228 2886 
Q 3006 2619 2597 2516 
z
" transform="scale(0.015625)"/>
       </defs>
       <use xlink:href="#DejaVuSans-33"/>
      </g>
     </g>
    </g>
    <g id="text_11">
     <!-- Position -->
     <g transform="translate(18.818125 112.988029)rotate(-90)scale(0.1 -0.1)">
      <defs>
       <path id="DejaVuSans-50" d="M 1259 4147 
L 1259 2394 
L 2053 2394 
Q 2494 2394 2734 2622 
Q 2975 2850 2975 3272 
Q 2975 3691 2734 3919 
Q 2494 4147 2053 4147 
L 1259 4147 
z
M 628 4666 
L 2053 4666 
Q 2838 4666 3239 4311 
Q 3641 3956 3641 3272 
Q 3641 2581 3239 2228 
Q 2838 1875 2053 1875 
L 1259 1875 
L 1259 0 
L 628 0 
L 628 4666 
z
" transform="scale(0.015625)"/>
       <path id="DejaVuSans-6f" d="M 1959 3097 
Q 1497 3097 1228 2736 
Q 959 2375 959 1747 
Q 959 1119 1226 758 
Q 1494 397 1959 397 
Q 2419 397 2687 759 
Q 2956 1122 2956 1747 
Q 2956 2369 2687 2733 
Q 2419 3097 1959 3097 
z
M 1959 3584 
Q 2709 3584 3137 3096 
Q 3566 2609 3566 1747 
Q 3566 888 3137 398 
Q 2709 -91 1959 -91 
Q 1206 -91 779 398 
Q 353 888 353 1747 
Q 353 2609 779 3096 
Q 1206 3584 1959 3584 
z
" transform="scale(0.015625)"/>
       <path id="DejaVuSans-73" d="M 2834 3397 
L 2834 2853 
Q 2591 2978 2328 3040 
Q 2066 3103 1784 3103 
Q 1356 3103 1142 2972 
Q 928 2841 928 2578 
Q 928 2378 1081 2264 
Q 1234 2150 1697 2047 
L 1894 2003 
Q 2506 1872 2764 1633 
Q 3022 1394 3022 966 
Q 3022 478 2636 193 
Q 2250 -91 1575 -91 
Q 1294 -91 989 -36 
Q 684 19 347 128 
L 347 722 
Q 666 556 975 473 
Q 1284 391 1588 391 
Q 1994 391 2212 530 
Q 2431 669 2431 922 
Q 2431 1156 2273 1281 
Q 2116 1406 1581 1522 
L 1381 1569 
Q 847 1681 609 1914 
Q 372 2147 372 2553 
Q 372 3047 722 3315 
Q 1072 3584 1716 3584 
Q 2034 3584 2315 3537 
Q 2597 3491 2834 3397 
z
" transform="scale(0.015625)"/>
       <path id="DejaVuSans-74" d="M 1172 4494 
L 1172 3500 
L 2356 3500 
L 2356 3053 
L 1172 3053 
L 1172 1153 
Q 1172 725 1289 603 
Q 1406 481 1766 481 
L 2356 481 
L 2356 0 
L 1766 0 
Q 1100 0 847 248 
Q 594 497 594 1153 
L 594 3053 
L 172 3053 
L 172 3500 
L 594 3500 
L 594 4494 
L 1172 4494 
z
" transform="scale(0.015625)"/>
       <path id="DejaVuSans-6e" d="M 3513 2113 
L 3513 0 
L 2938 0 
L 2938 2094 
Q 2938 2591 2744 2837 
Q 2550 3084 2163 3084 
Q 1697 3084 1428 2787 
Q 1159 2491 1159 1978 
L 1159 0 
L 581 0 
L 581 3500 
L 1159 3500 
L 1159 2956 
Q 1366 3272 1645 3428 
Q 1925 3584 2291 3584 
Q 2894 3584 3203 3211 
Q 3513 2838 3513 2113 
z
" transform="scale(0.015625)"/>
      </defs>
      <use xlink:href="#DejaVuSans-50"/>
      <use xlink:href="#DejaVuSans-6f" x="56.677734"/>
      <use xlink:href="#DejaVuSans-73" x="117.859375"/>
      <use xlink:href="#DejaVuSans-69" x="169.958984"/>
      <use xlink:href="#DejaVuSans-74" x="197.742188"/>
      <use xlink:href="#DejaVuSans-69" x="236.951172"/>
      <use xlink:href="#DejaVuSans-6f" x="264.734375"/>
      <use xlink:href="#DejaVuSans-6e" x="325.916016"/>
     </g>
    </g>
   </g>
   <g id="line2d_10">
    <path d="M 53.356364 96.746752 
L 68.953925 96.606617 
L 73.391162 96.364151 
L 75.945935 96.06317 
L 77.962861 95.562603 
L 81.055481 94.792814 
L 83.744716 94.341978 
L 97.459813 92.828638 
L 103.376129 92.356732 
L 108.216751 92.205896 
L 140.487568 92.222873 
L 149.765427 92.589552 
L 157.429746 93.155188 
L 171.951613 93.357878 
L 187.683636 93.280248 
L 187.683636 93.280248 
" clip-path="url(#pcc7e28838a)" style="fill: none; stroke: #1f77b4; stroke-width: 1.5; stroke-linecap: square"/>
   </g>
   <g id="line2d_11">
    <path d="M 53.356364 118.313214 
L 54.835443 118.202193 
L 56.98683 117.789207 
L 60.213912 117.182075 
L 64.920073 116.489708 
L 69.760695 115.536153 
L 74.466856 114.676283 
L 116.956764 104.778651 
L 124.621083 103.277837 
L 129.05832 102.269887 
L 154.471588 96.337052 
L 160.387904 95.36326 
L 170.606996 93.173948 
L 182.843014 90.353911 
L 184.456555 90.242801 
L 187.683636 90.303638 
L 187.683636 90.303638 
" clip-path="url(#pcc7e28838a)" style="fill: none; stroke: #ff7f0e; stroke-width: 1.5; stroke-linecap: square"/>
   </g>
   <g id="line2d_12">
    <path d="M 53.356364 96.783168 
L 55.104366 96.670389 
L 56.852369 96.340447 
L 61.558529 95.247288 
L 63.709917 94.884765 
L 67.474846 93.989834 
L 72.584392 92.87539 
L 80.652096 90.682989 
L 82.803483 90.397615 
L 93.291499 89.345186 
L 104.98967 88.672012 
L 108.88906 88.019276 
L 118.301381 86.380228 
L 121.394001 86.062028 
L 126.100162 85.834738 
L 133.630019 85.756798 
L 147.076193 85.886306 
L 151.916815 86.040381 
L 155.681744 86.18826 
L 164.69068 86.394142 
L 167.648838 86.665121 
L 171.951613 87.318644 
L 180.019317 88.612767 
L 182.305167 89.006111 
L 185.935634 89.635475 
L 187.683636 89.737958 
L 187.683636 89.737958 
" clip-path="url(#pcc7e28838a)" style="fill: none; stroke: #2ca02c; stroke-width: 1.5; stroke-linecap: square"/>
   </g>
   <g id="line2d_13">
    <path d="M 53.356364 161.481709 
L 62.634223 161.596756 
L 68.012693 161.840608 
L 75.811473 162.429871 
L 86.568412 162.464486 
L 103.779514 162.518595 
L 111.847218 162.631832 
L 116.015532 162.964042 
L 119.78046 163.467411 
L 125.562315 164.182344 
L 128.789397 164.393808 
L 133.898943 164.385883 
L 148.958657 164.54298 
L 151.51343 164.764719 
L 156.085129 165.298459 
L 167.7833 166.159577 
L 176.523312 166.47065 
L 184.322093 166.544551 
L 187.683636 166.720361 
L 187.683636 166.720361 
" clip-path="url(#pcc7e28838a)" style="fill: none; stroke: #d62728; stroke-width: 1.5; stroke-linecap: square"/>
   </g>
   <g id="line2d_14">
    <path d="M 53.356364 96.72019 
L 63.037609 96.658388 
L 63.978841 96.267972 
L 65.592381 95.508295 
L 66.533614 95.379941 
L 72.046545 95.155562 
L 73.2567 94.799786 
L 74.601318 94.451192 
L 76.080397 94.367277 
L 78.231785 94.26067 
L 82.669022 93.737501 
L 93.963807 93.559956 
L 100.686894 93.494777 
L 140.890953 93.642867 
L 147.748501 93.906387 
L 148.958657 94.24431 
L 150.572198 95.013769 
L 152.3202 95.774938 
L 153.799279 96.16672 
L 155.681744 96.397521 
L 160.791289 96.898222 
L 167.245453 97.772625 
L 170.069149 98.28543 
L 173.565154 98.885326 
L 178.943624 99.895521 
L 181.901782 100.265939 
L 184.456555 100.632188 
L 187.145789 100.99836 
L 187.683636 101.013417 
L 187.683636 101.013417 
" clip-path="url(#pcc7e28838a)" style="fill: none; stroke: #9467bd; stroke-width: 1.5; stroke-linecap: square"/>
   </g>
   <g id="line2d_15">
    <path d="M 53.356364 54.103156 
L 55.911137 53.991352 
L 58.734833 53.645786 
L 60.751759 53.185676 
L 63.306532 52.595253 
L 66.668075 52.068761 
L 70.433004 50.73438 
L 75.139165 49.15748 
L 77.828399 48.288919 
L 80.652096 47.446718 
L 88.988723 45.666435 
L 98.938892 43.265874 
L 102.972744 42.340983 
L 105.661978 41.71569 
L 108.754598 41.055557 
L 111.443833 40.185462 
L 128.117088 34.386252 
L 130.268476 34.04158 
L 132.554325 33.626398 
L 150.437736 29.253536 
L 153.126971 28.699891 
L 155.681744 27.911528 
L 166.438682 24.315308 
L 177.599006 22.034505 
L 180.826088 21.248175 
L 185.263325 20.644314 
L 187.145789 20.348084 
L 187.683636 20.327572 
L 187.683636 20.327572 
" clip-path="url(#pcc7e28838a)" style="fill: none; stroke: #8c564b; stroke-width: 1.5; stroke-linecap: square"/>
   </g>
   <g id="line2d_16">
    <path d="M 53.356364 75.816436 
L 62.3653 75.720501 
L 63.978841 75.505908 
L 65.861305 75.224597 
L 69.35731 75.020562 
L 72.987777 74.545214 
L 74.466856 74.270057 
L 77.425014 73.281949 
L 81.458866 71.633587 
L 84.417024 70.737444 
L 87.509644 70.095454 
L 92.081343 69.38374 
L 95.308425 69.158497 
L 98.401045 68.845252 
L 102.569358 68.093219 
L 104.855208 67.581419 
L 107.141057 66.751479 
L 110.099216 65.756859 
L 112.922912 64.995577 
L 116.687841 64.304506 
L 119.78046 63.873658 
L 126.906932 63.260944 
L 130.940784 62.387673 
L 134.033404 61.824871 
L 136.05033 61.675663 
L 140.218644 61.713669 
L 184.05317 61.511356 
L 187.683636 61.078059 
L 187.683636 61.078059 
" clip-path="url(#pcc7e28838a)" style="fill: none; stroke: #e377c2; stroke-width: 1.5; stroke-linecap: square"/>
   </g>
   <g id="patch_3">
    <path d="M 46.64 174.04 
L 46.64 13.007933 
" style="fill: none; stroke: #000000; stroke-width: 0.8; stroke-linejoin: miter; stroke-linecap: square"/>
   </g>
   <g id="patch_4">
    <path d="M 194.4 174.04 
L 194.4 13.007933 
" style="fill: none; stroke: #000000; stroke-width: 0.8; stroke-linejoin: miter; stroke-linecap: square"/>
   </g>
   <g id="patch_5">
    <path d="M 46.64 174.04 
L 194.4 174.04 
" style="fill: none; stroke: #000000; stroke-width: 0.8; stroke-linejoin: miter; stroke-linecap: square"/>
   </g>
   <g id="patch_6">
    <path d="M 46.64 13.007933 
L 194.4 13.007933 
" style="fill: none; stroke: #000000; stroke-width: 0.8; stroke-linejoin: miter; stroke-linecap: square"/>
   </g>
  </g>
  <g id="axes_2">
   <g id="patch_7">
    <path d="M 266.24 174.04 
L 414 174.04 
L 414 13.007933 
L 266.24 13.007933 
z
" style="fill: #ffffff"/>
   </g>
   <g id="matplotlib.axis_3">
    <g id="xtick_4">
     <g id="line2d_17">
      <g>
       <use xlink:href="#m4f8bc8aa97" x="272.956364" y="174.04" style="stroke: #000000; stroke-width: 0.8"/>
      </g>
     </g>
     <g id="text_12">
      <!-- 0.0 -->
      <g transform="translate(265.004801 188.638438)scale(0.1 -0.1)">
       <use xlink:href="#DejaVuSans-30"/>
       <use xlink:href="#DejaVuSans-2e" x="63.623047"/>
       <use xlink:href="#DejaVuSans-30" x="95.410156"/>
      </g>
     </g>
    </g>
    <g id="xtick_5">
     <g id="line2d_18">
      <g>
       <use xlink:href="#m4f8bc8aa97" x="330.27647" y="174.04" style="stroke: #000000; stroke-width: 0.8"/>
      </g>
     </g>
     <g id="text_13">
      <!-- 0.5 -->
      <g transform="translate(322.324907 188.638438)scale(0.1 -0.1)">
       <use xlink:href="#DejaVuSans-30"/>
       <use xlink:href="#DejaVuSans-2e" x="63.623047"/>
       <use xlink:href="#DejaVuSans-35" x="95.410156"/>
      </g>
     </g>
    </g>
    <g id="xtick_6">
     <g id="line2d_19">
      <g>
       <use xlink:href="#m4f8bc8aa97" x="387.596576" y="174.04" style="stroke: #000000; stroke-width: 0.8"/>
      </g>
     </g>
     <g id="text_14">
      <!-- 1.0 -->
      <g transform="translate(379.645013 188.638438)scale(0.1 -0.1)">
       <use xlink:href="#DejaVuSans-31"/>
       <use xlink:href="#DejaVuSans-2e" x="63.623047"/>
       <use xlink:href="#DejaVuSans-30" x="95.410156"/>
      </g>
     </g>
    </g>
    <g id="text_15">
     <!-- Time -->
     <g transform="translate(327.886406 202.316563)scale(0.1 -0.1)">
      <use xlink:href="#DejaVuSans-54"/>
      <use xlink:href="#DejaVuSans-69" x="57.958984"/>
      <use xlink:href="#DejaVuSans-6d" x="85.742188"/>
      <use xlink:href="#DejaVuSans-65" x="183.154297"/>
     </g>
    </g>
   </g>
   <g id="matplotlib.axis_4">
    <g id="ytick_7">
     <g id="line2d_20">
      <g>
       <use xlink:href="#m94a250829d" x="266.24" y="162.132437" style="stroke: #000000; stroke-width: 0.8"/>
      </g>
     </g>
     <g id="text_16">
      <!-- −2 -->
      <g transform="translate(244.497812 165.931655)scale(0.1 -0.1)">
       <use xlink:href="#DejaVuSans-2212"/>
       <use xlink:href="#DejaVuSans-32" x="83.789062"/>
      </g>
     </g>
    </g>
    <g id="ytick_8">
     <g id="line2d_21">
      <g>
       <use xlink:href="#m94a250829d" x="266.24" y="129.137895" style="stroke: #000000; stroke-width: 0.8"/>
      </g>
     </g>
     <g id="text_17">
      <!-- −1 -->
      <g transform="translate(244.497812 132.937114)scale(0.1 -0.1)">
       <use xlink:href="#DejaVuSans-2212"/>
       <use xlink:href="#DejaVuSans-31" x="83.789062"/>
      </g>
     </g>
    </g>
    <g id="ytick_9">
     <g id="line2d_22">
      <g>
       <use xlink:href="#m94a250829d" x="266.24" y="96.143354" style="stroke: #000000; stroke-width: 0.8"/>
      </g>
     </g>
     <g id="text_18">
      <!-- 0 -->
      <g transform="translate(252.8775 99.942573)scale(0.1 -0.1)">
       <use xlink:href="#DejaVuSans-30"/>
      </g>
     </g>
    </g>
    <g id="ytick_10">
     <g id="line2d_23">
      <g>
       <use xlink:href="#m94a250829d" x="266.24" y="63.148813" style="stroke: #000000; stroke-width: 0.8"/>
      </g>
     </g>
     <g id="text_19">
      <!-- 1 -->
      <g transform="translate(252.8775 66.948032)scale(0.1 -0.1)">
       <use xlink:href="#DejaVuSans-31"/>
      </g>
     </g>
    </g>
    <g id="ytick_11">
     <g id="line2d_24">
      <g>
       <use xlink:href="#m94a250829d" x="266.24" y="30.154272" style="stroke: #000000; stroke-width: 0.8"/>
      </g>
     </g>
     <g id="text_20">
      <!-- 2 -->
      <g transform="translate(252.8775 33.953491)scale(0.1 -0.1)">
       <use xlink:href="#DejaVuSans-32"/>
      </g>
     </g>
    </g>
    <g id="text_21">
     <!-- Velocity -->
     <g transform="translate(238.418125 113.139591)rotate(-90)scale(0.1 -0.1)">
      <defs>
       <path id="DejaVuSans-56" d="M 1831 0 
L 50 4666 
L 709 4666 
L 2188 738 
L 3669 4666 
L 4325 4666 
L 2547 0 
L 1831 0 
z
" transform="scale(0.015625)"/>
       <path id="DejaVuSans-6c" d="M 603 4863 
L 1178 4863 
L 1178 0 
L 603 0 
L 603 4863 
z
" transform="scale(0.015625)"/>
       <path id="DejaVuSans-63" d="M 3122 3366 
L 3122 2828 
Q 2878 2963 2633 3030 
Q 2388 3097 2138 3097 
Q 1578 3097 1268 2742 
Q 959 2388 959 1747 
Q 959 1106 1268 751 
Q 1578 397 2138 397 
Q 2388 397 2633 464 
Q 2878 531 3122 666 
L 3122 134 
Q 2881 22 2623 -34 
Q 2366 -91 2075 -91 
Q 1284 -91 818 406 
Q 353 903 353 1747 
Q 353 2603 823 3093 
Q 1294 3584 2113 3584 
Q 2378 3584 2631 3529 
Q 2884 3475 3122 3366 
z
" transform="scale(0.015625)"/>
       <path id="DejaVuSans-79" d="M 2059 -325 
Q 1816 -950 1584 -1140 
Q 1353 -1331 966 -1331 
L 506 -1331 
L 506 -850 
L 844 -850 
Q 1081 -850 1212 -737 
Q 1344 -625 1503 -206 
L 1606 56 
L 191 3500 
L 800 3500 
L 1894 763 
L 2988 3500 
L 3597 3500 
L 2059 -325 
z
" transform="scale(0.015625)"/>
      </defs>
      <use xlink:href="#DejaVuSans-56"/>
      <use xlink:href="#DejaVuSans-65" x="60.658203"/>
      <use xlink:href="#DejaVuSans-6c" x="122.181641"/>
      <use xlink:href="#DejaVuSans-6f" x="149.964844"/>
      <use xlink:href="#DejaVuSans-63" x="211.146484"/>
      <use xlink:href="#DejaVuSans-69" x="266.126953"/>
      <use xlink:href="#DejaVuSans-74" x="293.910156"/>
      <use xlink:href="#DejaVuSans-79" x="333.119141"/>
     </g>
    </g>
   </g>
   <g id="line2d_25">
    <path d="M 272.956364 96.143354 
L 273.628672 93.710578 
L 274.300981 92.099261 
L 274.838828 91.401658 
L 275.242213 91.223468 
L 275.645598 91.341005 
L 276.048984 91.754266 
L 276.58683 92.765299 
L 278.200371 96.561084 
L 278.603756 96.877193 
L 279.007142 96.901556 
L 281.9653 95.774446 
L 283.040994 95.730395 
L 283.982226 95.899718 
L 284.923458 96.313321 
L 285.461305 96.48409 
L 285.86469 96.395529 
L 286.402537 95.987387 
L 286.940384 95.247746 
L 287.881616 93.374811 
L 289.629619 90.138581 
L 290.839774 88.30833 
L 291.915468 87.120139 
L 292.453315 86.382496 
L 293.125624 85.009267 
L 293.797932 83.121089 
L 294.201318 81.358475 
L 294.739165 77.872638 
L 295.411473 71.690134 
L 296.352705 62.516862 
L 297.025014 58.343266 
L 297.428399 56.918774 
L 297.697323 56.588834 
L 297.831785 56.613027 
L 298.100708 57.039739 
L 298.369631 57.970885 
L 298.907478 61.061569 
L 299.579787 64.257541 
L 300.117634 65.83402 
L 300.655481 67.199597 
L 301.32779 69.54557 
L 302.13456 73.297943 
L 303.479177 79.989834 
L 303.882563 80.871273 
L 304.151486 81.114385 
L 304.42041 81.081884 
L 304.689333 80.773773 
L 305.361642 79.703478 
L 305.899489 79.23455 
L 306.302874 79.114938 
L 306.706259 79.194257 
L 307.244106 79.59368 
L 308.050876 80.502051 
L 308.992108 81.931706 
L 309.798879 83.194178 
L 310.202264 83.408243 
L 310.605649 83.301291 
L 311.009034 82.873324 
L 311.41242 82.124341 
L 312.353652 80.038535 
L 312.891499 79.442623 
L 313.294884 79.306414 
L 313.698269 79.43654 
L 314.101654 79.831658 
L 315.446272 81.31409 
L 316.656427 82.326268 
L 317.866583 83.037993 
L 318.807815 83.647606 
L 319.883509 84.629017 
L 320.959203 85.91412 
L 323.782899 89.578196 
L 324.993055 90.927609 
L 325.934287 92.367252 
L 327.009981 94.453526 
L 327.547828 95.40531 
L 327.951213 95.799693 
L 328.354598 95.919564 
L 328.757983 95.764922 
L 329.161369 95.335767 
L 330.505986 93.425131 
L 331.043833 93.140905 
L 331.447218 93.125601 
L 331.985065 93.365918 
L 333.329682 94.390408 
L 335.48107 96.14513 
L 336.153379 96.230786 
L 336.825688 96.033839 
L 337.632458 95.809367 
L 338.439228 95.806644 
L 341.531848 96.199674 
L 343.683236 96.132639 
L 347.179241 96.114508 
L 349.330629 96.064515 
L 350.809708 96.305802 
L 356.322639 97.804224 
L 357.667256 98.479027 
L 360.759876 100.226381 
L 362.104494 100.636052 
L 363.180187 100.698409 
L 364.12142 100.54321 
L 365.197113 100.310293 
L 365.73496 100.496381 
L 366.272807 100.92625 
L 366.945116 101.806404 
L 367.617425 103.067467 
L 368.424195 105.083121 
L 369.365427 108.086152 
L 370.441121 112.347492 
L 370.978968 114.478887 
L 371.247892 114.982629 
L 371.516815 115.055498 
L 371.785738 114.697494 
L 372.054662 113.908618 
L 372.458047 111.917418 
L 373.802664 103.857014 
L 374.474973 101.134975 
L 375.147282 99.319427 
L 375.685129 98.519663 
L 376.088514 98.300567 
L 376.491899 98.407807 
L 376.895284 98.841172 
L 377.836517 99.98463 
L 378.643287 100.617316 
L 379.315596 100.899578 
L 379.987904 100.959135 
L 380.660213 100.795986 
L 381.332522 100.410131 
L 382.273754 99.546365 
L 384.962988 97.096831 
L 386.038682 96.308206 
L 386.845453 95.967255 
L 387.652223 95.846687 
L 388.593455 95.953421 
L 390.610381 96.137691 
L 393.165154 96.107724 
L 399.215932 95.963085 
L 400.963935 96.196941 
L 401.501782 95.967284 
L 402.17409 95.39846 
L 403.65317 93.86901 
L 404.325478 93.617581 
L 404.863325 93.636563 
L 405.401172 93.851211 
L 406.073481 94.394678 
L 406.745789 95.243873 
L 407.283636 96.143354 
L 407.283636 96.143354 
" clip-path="url(#p14e1bdcb08)" style="fill: none; stroke: #1f77b4; stroke-width: 1.5; stroke-linecap: square"/>
   </g>
   <g id="line2d_26">
    <path d="M 272.956364 96.143354 
L 273.897596 82.845641 
L 274.704366 74.43613 
L 275.376675 69.535501 
L 275.914522 66.994319 
L 276.317907 65.893037 
L 276.58683 65.541994 
L 276.855754 65.497466 
L 277.124677 65.755577 
L 277.528063 66.570676 
L 278.06591 68.384662 
L 278.603756 71.029718 
L 280.217297 80.231037 
L 280.620683 81.159854 
L 280.889606 81.409236 
L 281.158529 81.362754 
L 281.427453 81.020409 
L 281.830838 79.952147 
L 282.234223 78.218193 
L 282.77207 74.87073 
L 283.847764 67.502916 
L 284.251149 66.16826 
L 284.520073 65.756932 
L 284.788996 65.72836 
L 285.192381 66.262513 
L 286.940384 68.6831 
L 287.881616 70.003053 
L 288.553925 71.436961 
L 289.360695 73.757523 
L 290.167466 76.3279 
L 290.436389 76.598822 
L 290.705313 76.4599 
L 290.974236 75.911133 
L 291.377621 74.319527 
L 291.915468 70.828299 
L 292.587777 66.88712 
L 293.125624 64.875869 
L 293.529009 64.033419 
L 293.932394 63.688484 
L 294.604703 63.406265 
L 295.277012 63.392576 
L 296.487167 63.585976 
L 297.159476 63.429172 
L 298.100708 63.188515 
L 299.310864 63.148813 
L 327.68229 63.230996 
L 328.48906 63.568633 
L 329.29583 64.167288 
L 330.237063 65.177352 
L 331.312756 66.702555 
L 332.657374 68.766284 
L 333.195221 69.156072 
L 333.733068 69.241717 
L 334.136453 69.106356 
L 334.808761 68.586485 
L 337.229073 66.637275 
L 337.632458 66.604272 
L 338.035843 66.756402 
L 338.57369 67.247226 
L 339.245999 68.266046 
L 340.456154 69.944007 
L 341.531848 71.049814 
L 341.935233 71.258863 
L 342.338619 71.250188 
L 342.742004 71.023789 
L 343.279851 70.383241 
L 343.817698 69.355627 
L 345.700162 65.15877 
L 346.506932 64.09168 
L 347.179241 63.561219 
L 347.717088 63.371688 
L 350.137399 63.174144 
L 353.633404 63.148813 
L 370.844506 63.199903 
L 371.11343 63.467984 
L 371.516815 64.30086 
L 371.9202 65.65064 
L 372.458047 68.254423 
L 373.399279 73.345736 
L 374.071588 75.769228 
L 374.609435 76.949553 
L 375.01282 77.392356 
L 375.281744 77.476873 
L 375.550667 77.392842 
L 375.954052 76.950766 
L 376.357437 76.129456 
L 376.895284 74.444745 
L 377.836517 71.42082 
L 378.643287 69.581801 
L 379.315596 68.580188 
L 379.853443 68.126398 
L 380.391289 67.981496 
L 380.794675 68.075528 
L 381.332522 68.471182 
L 382.00483 69.368263 
L 382.542677 69.913358 
L 382.946062 70.081251 
L 383.349448 70.042633 
L 383.752833 69.797507 
L 384.29068 69.149434 
L 384.828527 68.134232 
L 386.576529 64.338456 
L 387.248838 63.555979 
L 387.786685 63.224992 
L 388.324532 63.148813 
L 395.451004 63.254 
L 396.661159 63.598328 
L 397.871315 63.963402 
L 398.812547 64.00114 
L 399.753779 63.818942 
L 400.426088 63.683319 
L 400.695011 64.108165 
L 401.098397 65.547464 
L 401.501782 67.949202 
L 402.039629 72.648644 
L 402.846399 82.483487 
L 403.65317 90.981537 
L 404.325478 96.021307 
L 404.863325 98.716581 
L 405.26671 99.958387 
L 405.670096 100.531922 
L 405.939019 100.543017 
L 406.207942 100.257103 
L 406.611328 99.27134 
L 407.014713 97.617306 
L 407.283636 96.143354 
L 407.283636 96.143354 
" clip-path="url(#p14e1bdcb08)" style="fill: none; stroke: #ff7f0e; stroke-width: 1.5; stroke-linecap: square"/>
   </g>
   <g id="line2d_27">
    <path d="M 272.956364 96.143354 
L 275.645598 69.363995 
L 277.259139 54.68193 
L 277.662524 52.995467 
L 277.796986 52.862231 
L 277.931448 52.943455 
L 278.200371 53.74928 
L 278.469295 55.412941 
L 278.87268 59.516878 
L 280.217297 76.305605 
L 280.620683 78.670373 
L 280.889606 79.486392 
L 281.158529 79.694016 
L 281.292991 79.569679 
L 281.561915 78.864711 
L 281.9653 76.666519 
L 282.368685 73.099438 
L 282.906532 66.213949 
L 283.578841 57.362769 
L 283.847764 55.67961 
L 284.116688 55.126435 
L 284.251149 55.273592 
L 284.520073 56.415395 
L 284.788996 58.687183 
L 285.730228 68.377951 
L 286.133614 70.303225 
L 286.402537 70.79018 
L 286.536999 70.794689 
L 286.805922 70.325771 
L 287.074846 69.219605 
L 288.016078 64.055258 
L 288.285001 63.43255 
L 288.553925 63.238463 
L 288.822848 63.472996 
L 289.091772 64.136149 
L 289.495157 65.934541 
L 290.301927 70.468374 
L 290.570851 70.702167 
L 290.705313 70.52443 
L 290.974236 69.579687 
L 291.377621 66.689402 
L 291.915468 60.250772 
L 292.318853 56.235133 
L 292.722239 54.220336 
L 292.8567 53.993368 
L 292.991162 53.988717 
L 293.125624 54.206381 
L 293.394547 55.308656 
L 293.797932 58.542259 
L 294.201318 61.325298 
L 294.470241 62.34107 
L 294.739165 62.685173 
L 294.873626 62.605348 
L 295.14255 61.941946 
L 295.411473 60.606874 
L 296.083782 56.476114 
L 296.487167 55.172459 
L 296.756091 54.829542 
L 297.025014 54.907574 
L 297.562861 55.851629 
L 298.504093 57.92698 
L 298.907478 59.12523 
L 299.310864 61.28474 
L 299.848711 65.783075 
L 301.058866 77.347274 
L 301.596713 80.028767 
L 302.000098 80.968459 
L 302.269022 81.084716 
L 302.537945 80.79281 
L 303.210254 79.456268 
L 303.613639 79.05023 
L 304.017024 78.964007 
L 304.42041 79.197599 
L 304.958256 79.956331 
L 305.765027 80.977404 
L 306.437336 81.512786 
L 307.109644 81.762789 
L 309.664417 82.350499 
L 310.067802 82.718271 
L 310.605649 83.537481 
L 311.277958 85.089997 
L 312.757037 89.036713 
L 313.429346 90.053949 
L 313.967193 90.48436 
L 317.597659 91.855503 
L 318.135506 91.978288 
L 318.673353 91.821272 
L 319.2112 91.376142 
L 319.749047 90.642899 
L 320.421356 89.321185 
L 321.228126 87.140893 
L 324.320746 77.628246 
L 325.665364 74.419202 
L 326.875519 72.098992 
L 327.547828 71.118639 
L 328.085675 70.641134 
L 328.623522 70.442196 
L 329.161369 70.521824 
L 330.505986 71.080958 
L 331.178295 70.989886 
L 331.850603 70.629046 
L 332.38845 70.337437 
L 332.926297 70.337944 
L 333.464144 70.632663 
L 334.001991 71.221593 
L 336.556764 74.737033 
L 337.094611 75.293229 
L 337.632458 76.24034 
L 338.304767 78.010536 
L 339.111537 80.966474 
L 339.918307 83.733784 
L 340.725078 85.747288 
L 341.397386 86.849384 
L 343.145389 89.11278 
L 345.834624 92.770998 
L 346.775856 93.571467 
L 347.717088 94.079177 
L 351.75094 95.688364 
L 356.591562 97.63076 
L 358.74295 98.231445 
L 359.818644 98.281408 
L 360.759876 98.114504 
L 361.970032 97.646888 
L 363.449111 97.172751 
L 364.92819 96.936558 
L 365.73496 97.017308 
L 366.541731 97.298984 
L 367.482963 97.881556 
L 368.424195 98.741575 
L 368.962042 99.500722 
L 369.634351 100.873813 
L 370.441121 103.143618 
L 371.11343 105.084968 
L 371.516815 105.534407 
L 371.785738 105.506703 
L 372.054662 105.217133 
L 372.458047 104.291783 
L 373.802664 100.196807 
L 374.609435 98.58123 
L 375.281744 97.737597 
L 375.81959 97.391718 
L 376.357437 97.338307 
L 376.895284 97.577271 
L 378.643287 98.660541 
L 380.256828 99.405373 
L 382.542677 100.335116 
L 383.080524 101.034865 
L 383.752833 102.354983 
L 384.425142 104.170022 
L 385.231912 107.000816 
L 386.307606 110.779551 
L 387.248838 113.391429 
L 388.19007 115.355093 
L 389.669149 117.709059 
L 391.013766 119.471894 
L 394.644233 123.625383 
L 394.913157 123.556648 
L 395.18208 123.253072 
L 395.585465 122.35738 
L 396.123312 120.341179 
L 396.661159 117.385611 
L 397.46793 112.672736 
L 397.871315 111.300098 
L 398.2747 110.62362 
L 398.543624 110.55939 
L 398.812547 110.804564 
L 399.081471 111.359141 
L 399.484856 112.771141 
L 400.022703 115.736721 
L 400.963935 121.661471 
L 401.501782 123.604627 
L 401.905167 124.329795 
L 402.17409 124.464574 
L 402.443014 124.32042 
L 402.846399 123.664611 
L 403.384246 122.297996 
L 404.056555 119.825778 
L 404.728863 116.504725 
L 405.535634 111.399 
L 406.476866 103.897442 
L 407.283636 96.143354 
L 407.283636 96.143354 
" clip-path="url(#p14e1bdcb08)" style="fill: none; stroke: #2ca02c; stroke-width: 1.5; stroke-linecap: square"/>
   </g>
   <g id="line2d_28">
    <path d="M 272.956364 96.143354 
L 274.166519 97.498467 
L 275.376675 98.510064 
L 276.452369 99.120878 
L 277.259139 99.380523 
L 277.662524 99.309832 
L 278.06591 99.050569 
L 278.603756 98.411553 
L 279.276065 97.154261 
L 279.813912 96.34824 
L 280.217297 96.09738 
L 280.620683 96.149653 
L 281.024068 96.50506 
L 281.427453 97.1636 
L 281.9653 98.513195 
L 282.637609 100.958021 
L 283.578841 104.778161 
L 283.847764 105.121179 
L 284.116688 105.042471 
L 284.385611 104.542037 
L 284.788996 103.000649 
L 285.461305 99.831154 
L 285.730228 99.298013 
L 285.999152 99.227868 
L 286.268075 99.620719 
L 286.536999 100.476566 
L 286.940384 102.628454 
L 288.419463 112.514031 
L 288.822848 113.613297 
L 289.091772 113.917853 
L 289.360695 113.879781 
L 289.629619 113.499079 
L 290.436389 111.311349 
L 291.512083 108.840788 
L 292.184392 107.386914 
L 292.722239 105.464574 
L 293.394547 101.982786 
L 294.335779 96.552847 
L 294.739165 95.358141 
L 295.008088 94.99111 
L 295.277012 94.96763 
L 295.545935 95.287702 
L 296.083782 96.062829 
L 296.487167 96.348697 
L 296.890552 96.38125 
L 298.100708 96.067386 
L 298.638555 96.290995 
L 299.176402 96.550473 
L 299.714249 96.587929 
L 300.521019 96.322519 
L 301.32779 96.231193 
L 302.000098 96.362167 
L 302.806869 96.760091 
L 303.882563 97.232657 
L 304.823795 97.416171 
L 306.571797 97.459046 
L 308.454262 97.273309 
L 311.41242 96.722691 
L 313.832731 96.350441 
L 316.11858 96.241458 
L 323.782899 96.355381 
L 325.799825 96.816202 
L 327.816751 97.080947 
L 328.354598 97.530072 
L 329.026907 98.432709 
L 329.833677 99.963658 
L 333.733068 107.67823 
L 335.48107 110.253 
L 336.287841 112.238615 
L 337.497996 115.518279 
L 338.035843 116.248197 
L 338.439228 116.455487 
L 338.842614 116.37122 
L 339.918307 115.501577 
L 341.935233 113.61567 
L 344.624468 110.879202 
L 345.296777 109.703862 
L 346.103547 107.720569 
L 346.910318 105.112311 
L 347.85155 101.287321 
L 348.65832 98.265925 
L 349.330629 96.468329 
L 349.868476 95.501678 
L 350.406323 94.954072 
L 350.809708 94.818365 
L 351.213093 94.918372 
L 352.692172 95.990245 
L 354.84356 97.352751 
L 355.784792 97.759895 
L 356.591562 97.884042 
L 357.398333 97.800451 
L 358.205103 97.509121 
L 359.146335 97.118792 
L 359.953106 97.008444 
L 360.759876 97.109331 
L 361.701108 97.479198 
L 362.507879 97.677148 
L 363.180187 97.635139 
L 363.986958 97.336368 
L 365.331575 96.622746 
L 365.73496 96.69751 
L 366.272807 97.066124 
L 366.810654 97.742085 
L 367.482963 99.019241 
L 368.155272 100.776625 
L 368.82758 103.070886 
L 369.634351 106.71337 
L 370.575583 112.199102 
L 371.11343 115.213792 
L 371.516815 116.425478 
L 371.785738 116.723351 
L 372.054662 116.613291 
L 372.323585 116.095297 
L 372.726971 114.593663 
L 373.533741 111.603887 
L 374.340511 109.435242 
L 375.01282 108.255292 
L 375.550667 107.721897 
L 375.954052 107.561348 
L 376.357437 107.606082 
L 376.760823 107.856099 
L 377.702055 108.646529 
L 378.374363 108.950354 
L 379.046672 109.029154 
L 379.718981 108.882929 
L 380.391289 108.511679 
L 381.19806 107.769146 
L 382.139292 106.525103 
L 383.483909 104.863165 
L 384.694065 103.692912 
L 385.769759 102.947091 
L 386.576529 102.696046 
L 387.248838 102.703257 
L 387.921147 102.907208 
L 389.265764 103.443909 
L 390.072534 103.461359 
L 390.879305 103.236591 
L 391.551613 102.847562 
L 392.223922 102.164637 
L 392.896231 101.1681 
L 393.703001 99.558286 
L 395.316542 96.049311 
L 395.854389 95.57838 
L 396.257774 95.498447 
L 396.661159 95.652741 
L 397.736853 96.372868 
L 398.409162 96.466512 
L 398.947009 96.332442 
L 399.619317 95.903624 
L 400.695011 95.014217 
L 400.963935 95.159423 
L 401.36732 95.774191 
L 401.770705 96.865309 
L 402.308552 99.061121 
L 403.384246 104.04832 
L 403.922093 105.438236 
L 404.325478 105.959819 
L 404.594402 106.059516 
L 404.863325 105.960792 
L 405.26671 105.440667 
L 405.670096 104.474097 
L 406.207942 102.490865 
L 406.880251 98.895709 
L 407.283636 96.143354 
L 407.283636 96.143354 
" clip-path="url(#p14e1bdcb08)" style="fill: none; stroke: #d62728; stroke-width: 1.5; stroke-linecap: square"/>
   </g>
   <g id="line2d_29">
    <path d="M 272.956364 96.143354 
L 273.494211 97.0477 
L 274.032058 97.537317 
L 274.435443 97.632364 
L 274.838828 97.494127 
L 275.242213 97.122605 
L 275.78006 96.264355 
L 276.317907 94.991377 
L 276.990216 92.816943 
L 277.393601 91.743285 
L 277.528063 91.658952 
L 277.662524 91.714058 
L 277.931448 92.242586 
L 278.200371 93.328869 
L 278.603756 96.004083 
L 279.141603 101.523176 
L 279.544989 105.656773 
L 279.813912 107.087699 
L 280.082836 107.448168 
L 280.217297 107.226982 
L 280.486221 105.981768 
L 280.889606 102.106842 
L 281.292991 95.82339 
L 281.830838 83.698859 
L 282.503147 62.52188 
L 283.578841 23.498553 
L 283.847764 20.452047 
L 283.982226 20.327572 
L 284.116688 21.135615 
L 284.385611 25.549257 
L 284.788996 39.163607 
L 285.730228 80.534705 
L 286.268075 94.112126 
L 286.671461 99.161087 
L 286.940384 100.082248 
L 287.074846 99.809385 
L 287.343769 97.821244 
L 288.016078 92.460371 
L 288.553925 89.994197 
L 288.95731 89.207705 
L 289.226234 89.189634 
L 289.495157 89.576569 
L 290.033004 91.037156 
L 290.167466 90.913927 
L 290.436389 89.71721 
L 290.705313 87.25348 
L 291.108698 81.182236 
L 291.646545 68.652699 
L 292.184392 54.755763 
L 292.587777 49.914627 
L 292.722239 49.442498 
L 292.8567 49.541161 
L 292.991162 50.210615 
L 293.260086 53.261899 
L 293.663471 62.119761 
L 294.335779 79.353648 
L 294.873626 88.675584 
L 295.277012 93.041295 
L 295.680397 95.172057 
L 295.94932 95.464471 
L 296.083782 95.286267 
L 296.352705 94.281039 
L 296.756091 91.151143 
L 297.293938 84.157867 
L 298.100708 74.712497 
L 298.638555 70.393578 
L 298.907478 69.099836 
L 299.04194 68.85804 
L 299.176402 68.887734 
L 299.445325 69.761586 
L 299.714249 71.721392 
L 300.117634 76.697264 
L 300.789943 85.614763 
L 301.462251 91.68059 
L 302.000098 94.480042 
L 302.403483 95.381924 
L 302.672407 95.414043 
L 303.344716 95.11374 
L 304.017024 95.027365 
L 304.689333 95.154917 
L 305.496103 95.357724 
L 306.302874 95.309312 
L 307.109644 95.00785 
L 308.185338 94.333405 
L 309.395494 93.297543 
L 310.336726 92.569894 
L 311.143496 92.191433 
L 311.950267 92.04252 
L 312.622575 92.117873 
L 313.429346 92.456068 
L 314.236116 93.057111 
L 316.11858 94.480166 
L 317.866583 95.532607 
L 319.076739 96.028539 
L 320.286894 96.267426 
L 321.362588 96.263979 
L 323.782899 96.110912 
L 330.909371 96.168851 
L 343.414312 96.247895 
L 346.238009 96.480248 
L 347.717088 96.30814 
L 348.792782 96.206144 
L 349.868476 96.34399 
L 350.94417 96.722122 
L 353.230019 97.694232 
L 354.440175 97.894334 
L 357.398333 98.176621 
L 358.877412 98.604816 
L 359.953106 99.187852 
L 361.0288 100.039153 
L 361.970032 100.833617 
L 362.373417 100.890559 
L 362.776802 100.7329 
L 363.180187 100.360638 
L 363.718034 99.530465 
L 364.390343 97.956244 
L 364.793728 96.892822 
L 364.92819 96.766179 
L 365.062652 96.792227 
L 365.331575 97.302395 
L 365.600499 98.423326 
L 366.003884 101.249903 
L 366.541731 107.156342 
L 367.214039 117.974933 
L 367.886348 132.610793 
L 369.096504 160.71189 
L 369.499889 165.1525 
L 369.768812 166.516935 
L 369.903274 166.720361 
L 370.037736 166.604592 
L 370.306659 165.415472 
L 370.575583 162.949574 
L 371.651277 148.145779 
L 373.937126 116.025123 
L 374.609435 110.406599 
L 375.147282 107.44764 
L 375.550667 106.124338 
L 375.81959 105.668765 
L 376.088514 105.554493 
L 376.357437 105.781524 
L 376.626361 106.349857 
L 377.433131 109.179662 
L 378.10544 111.025973 
L 378.777749 112.256117 
L 379.315596 112.796592 
L 379.718981 112.943158 
L 380.122366 112.867904 
L 380.525751 112.57083 
L 381.063598 111.829677 
L 381.601445 110.694178 
L 382.273754 109.165026 
L 382.542677 108.924789 
L 382.811601 108.927426 
L 383.080524 109.172936 
L 383.483909 109.996589 
L 383.887295 111.366707 
L 384.425142 114.043587 
L 385.09745 118.75585 
L 385.769759 123.625779 
L 386.307606 125.856725 
L 386.710991 126.534428 
L 386.979914 126.512179 
L 387.248838 126.11069 
L 387.652223 124.79738 
L 388.055608 122.630778 
L 388.862379 117.815607 
L 389.400226 116.037918 
L 389.803611 115.489324 
L 390.072534 115.497249 
L 390.341458 115.804096 
L 390.744843 116.824848 
L 391.148228 118.518177 
L 391.954999 122.204014 
L 392.492846 123.809374 
L 393.030693 124.721762 
L 393.434078 124.951289 
L 393.703001 124.887754 
L 394.106386 124.46762 
L 395.719927 121.902354 
L 396.392236 121.317557 
L 397.46793 120.612296 
L 398.005777 119.776329 
L 398.678085 118.183448 
L 399.350394 115.981766 
L 400.157164 112.53613 
L 400.695011 110.487984 
L 400.963935 110.022756 
L 401.232858 109.934597 
L 401.501782 110.223505 
L 401.770705 110.889482 
L 402.17409 112.59545 
L 403.518708 119.786339 
L 403.922093 120.482618 
L 404.191016 120.51621 
L 404.45994 120.205326 
L 404.863325 119.09311 
L 405.26671 117.205824 
L 405.804557 113.48378 
L 406.476866 106.893551 
L 407.283636 96.143354 
L 407.283636 96.143354 
" clip-path="url(#p14e1bdcb08)" style="fill: none; stroke: #9467bd; stroke-width: 1.5; stroke-linecap: square"/>
   </g>
   <g id="line2d_30">
    <path d="M 272.956364 96.143354 
L 274.569904 88.46579 
L 276.048984 82.523307 
L 277.796986 75.869458 
L 278.469295 71.518394 
L 279.276065 64.529756 
L 279.813912 60.670658 
L 280.217297 59.080836 
L 280.486221 58.642146 
L 280.620683 58.609158 
L 280.889606 58.915897 
L 281.158529 59.71959 
L 281.561915 61.856916 
L 282.099762 66.446019 
L 282.637609 73.022935 
L 283.578841 85.610115 
L 283.847764 86.493897 
L 283.982226 86.362005 
L 284.251149 84.950658 
L 284.520073 82.009224 
L 284.923458 74.728163 
L 285.595767 61.12751 
L 286.268075 51.97943 
L 286.671461 48.640536 
L 287.074846 46.914109 
L 287.343769 46.651543 
L 291.915468 46.680464 
L 292.184392 46.957569 
L 292.587777 47.923693 
L 292.991162 49.550377 
L 293.529009 52.746829 
L 294.066856 56.288533 
L 294.335779 57.205768 
L 294.604703 57.485109 
L 294.739165 57.385569 
L 295.008088 56.708069 
L 295.411473 54.495769 
L 296.083782 49.882897 
L 296.487167 48.567173 
L 296.756091 48.333732 
L 296.890552 48.410125 
L 297.159476 48.947576 
L 298.100708 51.263571 
L 298.907478 53.039464 
L 299.176402 54.504304 
L 299.579787 58.062613 
L 300.117634 65.347649 
L 300.655481 72.47914 
L 301.058866 75.706093 
L 301.32779 76.847073 
L 301.596713 77.179797 
L 301.731175 77.043063 
L 302.000098 76.163402 
L 302.403483 73.328429 
L 303.479177 63.280925 
L 303.882563 61.56388 
L 304.151486 61.107412 
L 304.285948 61.085646 
L 304.554871 61.455052 
L 305.765027 64.662936 
L 306.03395 64.858072 
L 306.302874 64.84685 
L 306.571797 64.629268 
L 306.975182 63.915971 
L 307.781953 62.210904 
L 308.3198 61.508453 
L 308.857647 61.158263 
L 309.261032 61.126791 
L 310.740111 61.56026 
L 312.757037 62.202147 
L 313.563807 62.1649 
L 314.773963 62.018761 
L 315.31181 62.289433 
L 315.849657 62.806491 
L 316.521966 63.799291 
L 317.194274 65.177069 
L 318.40443 67.925281 
L 318.807815 68.268405 
L 319.076739 68.297908 
L 319.345662 68.168016 
L 319.749047 67.674309 
L 320.152432 66.821961 
L 320.690279 65.12761 
L 321.362588 62.113068 
L 322.034897 58.941786 
L 322.438282 58.180547 
L 322.707205 58.193965 
L 322.976129 58.624111 
L 323.379514 60.050696 
L 323.782899 62.414921 
L 324.858593 69.891157 
L 325.261978 71.229161 
L 325.530902 71.619638 
L 325.799825 71.608892 
L 326.068749 71.196925 
L 326.472134 69.826685 
L 326.875519 67.553696 
L 328.48906 56.709702 
L 329.430292 52.01324 
L 330.237063 49.083965 
L 330.909371 47.515836 
L 331.447218 46.832776 
L 331.850603 46.653822 
L 338.439228 46.651543 
L 344.355545 46.711583 
L 344.624468 46.98709 
L 345.027853 47.819273 
L 345.5657 49.710837 
L 346.103547 52.4961 
L 346.775856 57.234443 
L 347.582626 64.763709 
L 348.389397 72.582873 
L 348.927244 75.767107 
L 349.330629 77.034611 
L 349.599552 77.345961 
L 349.868476 77.230388 
L 350.137399 76.687893 
L 350.540784 75.073671 
L 350.94417 72.498873 
L 351.616478 66.363279 
L 352.288787 61.073253 
L 352.961096 57.523363 
L 353.498943 55.936349 
L 353.902328 55.476945 
L 354.171251 55.518704 
L 354.440175 55.838884 
L 354.84356 56.841195 
L 355.784792 59.714559 
L 356.591562 61.564268 
L 357.263871 62.670551 
L 357.93618 63.381253 
L 358.608488 63.740753 
L 359.549721 64.346121 
L 360.490953 65.223813 
L 362.104494 66.901711 
L 362.373417 66.834153 
L 362.776802 66.431623 
L 363.180187 65.667661 
L 363.718034 64.086818 
L 364.390343 61.207186 
L 365.197113 57.48595 
L 365.600499 56.503897 
L 365.869422 56.201591 
L 366.138346 56.181202 
L 366.407269 56.44273 
L 366.810654 57.363615 
L 367.214039 58.918814 
L 367.751886 61.97912 
L 368.558657 68.40955 
L 369.096504 71.653839 
L 369.499889 72.993628 
L 369.768812 73.366142 
L 370.037736 73.322111 
L 370.306659 72.861536 
L 370.710045 71.394404 
L 371.785738 65.842353 
L 374.340511 51.648569 
L 375.147282 48.979793 
L 375.81959 47.524973 
L 376.357437 46.864568 
L 376.760823 46.662944 
L 378.10544 46.651543 
L 382.00483 46.690056 
L 382.273754 46.917645 
L 382.677139 47.642073 
L 383.080524 48.826157 
L 383.618371 51.119954 
L 384.29068 55.136338 
L 385.09745 61.641401 
L 385.769759 67.234851 
L 386.307606 70.13123 
L 386.710991 71.360822 
L 386.979914 71.73165 
L 387.248838 71.743356 
L 387.517761 71.395942 
L 387.921147 70.20147 
L 389.265764 64.867238 
L 389.669149 64.192588 
L 389.938073 64.003063 
L 390.206996 64.021731 
L 390.47592 64.248591 
L 390.879305 64.979243 
L 391.417152 66.612105 
L 392.223922 68.83281 
L 392.896231 70.138948 
L 393.568539 70.95013 
L 394.106386 71.242708 
L 394.509772 71.213043 
L 394.778695 70.926397 
L 395.18208 70.046827 
L 395.585465 68.627738 
L 396.123312 65.896366 
L 396.795621 61.13335 
L 397.333468 57.575201 
L 397.736853 56.347981 
L 398.005777 56.220132 
L 398.2747 56.64452 
L 398.543624 57.621147 
L 398.947009 60.121531 
L 399.484856 65.38821 
L 400.022703 72.863839 
L 400.695011 82.939383 
L 401.098397 86.298088 
L 401.36732 87.313359 
L 401.501782 87.453834 
L 401.636244 87.349536 
L 401.905167 86.406621 
L 402.17409 84.484612 
L 402.577476 79.770614 
L 403.249784 72.04891 
L 403.787631 68.286107 
L 404.191016 66.872498 
L 404.45994 66.600803 
L 404.594402 66.666169 
L 404.863325 67.199327 
L 405.132249 68.269055 
L 405.535634 70.879713 
L 406.073481 76.238581 
L 406.745789 85.955366 
L 407.283636 96.143354 
L 407.283636 96.143354 
" clip-path="url(#p14e1bdcb08)" style="fill: none; stroke: #8c564b; stroke-width: 1.5; stroke-linecap: square"/>
   </g>
   <g id="line2d_31">
    <path d="M 272.956364 96.143354 
L 273.494211 97.089379 
L 274.032058 97.615609 
L 274.435443 97.734792 
L 274.838828 97.617841 
L 275.242213 97.264756 
L 275.78006 96.426656 
L 276.317907 95.168763 
L 276.990216 93.00606 
L 277.528063 91.440068 
L 277.796986 91.097251 
L 278.06591 91.051119 
L 278.334833 91.301672 
L 278.738218 92.233788 
L 279.141603 93.833446 
L 279.544989 95.489157 
L 279.948374 96.296581 
L 280.217297 96.358994 
L 280.486221 96.040713 
L 280.755144 95.341736 
L 281.158529 93.579467 
L 281.696376 89.897342 
L 282.368685 83.153276 
L 283.713302 67.945709 
L 283.847764 67.838879 
L 283.982226 68.102528 
L 284.251149 69.741264 
L 284.654535 74.977967 
L 285.86469 95.547573 
L 286.133614 97.154876 
L 286.402537 97.539016 
L 286.536999 97.272399 
L 286.805922 95.821793 
L 287.209307 91.352452 
L 288.016078 80.428683 
L 288.553925 75.925465 
L 288.95731 74.046977 
L 289.226234 73.508426 
L 289.360695 73.453283 
L 289.495157 73.540894 
L 289.76408 74.144382 
L 291.24316 79.917138 
L 292.04993 82.822441 
L 292.184392 82.761043 
L 292.453315 81.846297 
L 292.722239 79.875619 
L 293.125624 74.93973 
L 293.663471 64.662782 
L 294.201318 54.194862 
L 294.604703 49.84042 
L 294.873626 48.614224 
L 295.008088 48.504156 
L 295.14255 48.72944 
L 295.411473 50.186068 
L 295.814858 53.299085 
L 295.94932 53.50818 
L 296.083782 53.229265 
L 296.352705 51.207402 
L 296.621629 47.233496 
L 297.025014 37.612556 
L 297.562861 24.132753 
L 297.831785 21.721437 
L 297.966246 21.654483 
L 298.100708 22.346665 
L 298.369631 26.008436 
L 298.773017 36.824385 
L 299.310864 48.726259 
L 299.714249 52.726643 
L 299.848711 53.121814 
L 299.983172 53.047841 
L 300.924404 49.475076 
L 301.193328 49.203437 
L 301.462251 49.300923 
L 301.731175 49.767532 
L 302.13456 51.159553 
L 302.537945 53.382104 
L 303.613639 60.193197 
L 304.42041 63.978463 
L 305.22718 66.725188 
L 306.302874 69.657208 
L 307.244106 71.619532 
L 308.050876 72.793912 
L 308.723185 73.393067 
L 309.395494 73.657419 
L 309.664417 73.856295 
L 310.067802 74.512353 
L 310.471188 75.597705 
L 311.009034 77.712631 
L 311.681343 81.42557 
L 312.353652 84.947929 
L 312.891499 86.829251 
L 313.294884 87.693915 
L 313.698269 88.090296 
L 313.967193 88.094393 
L 314.370578 87.782915 
L 314.908425 87.019433 
L 315.446272 85.868914 
L 316.11858 83.886494 
L 316.925351 80.709326 
L 317.866583 75.936525 
L 318.538892 72.905703 
L 319.2112 70.863944 
L 319.749047 69.942663 
L 320.152432 69.667109 
L 320.421356 69.681218 
L 320.824741 69.999102 
L 321.228126 70.673049 
L 321.900435 72.124405 
L 322.034897 72.162858 
L 322.30382 71.881688 
L 322.572744 71.123084 
L 322.976129 69.089989 
L 323.513976 64.708175 
L 324.186284 56.615971 
L 324.858593 49.302077 
L 325.39644 45.513072 
L 325.799825 43.874216 
L 326.068749 43.354453 
L 326.337672 43.292938 
L 326.606596 43.689669 
L 326.875519 44.544646 
L 328.354598 50.633358 
L 329.026907 52.319827 
L 330.237063 54.719899 
L 330.774909 56.665793 
L 331.447218 59.992668 
L 333.060759 68.818349 
L 333.598606 70.429448 
L 334.001991 71.147104 
L 334.405376 71.444239 
L 335.346608 71.77691 
L 336.287841 72.337754 
L 336.960149 72.961783 
L 337.363534 73.874906 
L 337.901381 75.922986 
L 338.439228 78.920303 
L 340.187231 89.93445 
L 340.590616 91.059664 
L 340.994001 91.569455 
L 341.262925 91.567414 
L 341.531848 91.297201 
L 342.069695 90.295175 
L 342.607542 88.780637 
L 343.279851 86.166743 
L 344.086621 81.973012 
L 345.296777 75.345938 
L 346.372471 70.734637 
L 347.313703 67.692526 
L 348.120473 65.847575 
L 348.65832 65.115551 
L 349.061705 64.842945 
L 349.465091 64.807263 
L 349.868476 65.008505 
L 350.271861 65.446672 
L 350.809708 66.399443 
L 351.482017 68.183217 
L 352.154325 70.649569 
L 352.961096 74.527601 
L 353.902328 80.318264 
L 354.978022 88.587007 
L 355.784792 94.119085 
L 356.457101 97.182202 
L 356.994948 98.620148 
L 357.398333 99.107954 
L 357.667256 99.151895 
L 357.93618 98.970825 
L 358.339565 98.277376 
L 359.146335 96.70443 
L 359.818644 95.857889 
L 360.356491 95.484527 
L 360.894338 95.381273 
L 361.432185 95.548126 
L 362.507879 96.099783 
L 363.449111 96.361712 
L 364.390343 96.415322 
L 370.172198 95.907437 
L 371.382353 95.660969 
L 372.323585 95.187753 
L 373.668203 94.3924 
L 374.474973 94.182151 
L 375.281744 94.184493 
L 376.088514 94.399425 
L 377.029746 94.91372 
L 378.374363 95.636015 
L 379.718981 96.093155 
L 380.929136 96.277874 
L 382.273754 96.244039 
L 387.517761 95.95221 
L 390.744843 96.129545 
L 392.896231 96.094637 
L 394.37531 96.342598 
L 395.047619 96.388304 
L 395.719927 96.235448 
L 396.526698 95.789915 
L 397.46793 95.211988 
L 397.871315 95.230364 
L 398.2747 95.42786 
L 398.812547 95.969821 
L 399.350394 96.830218 
L 400.022703 98.353516 
L 400.426088 99.34212 
L 400.695011 99.495532 
L 400.963935 99.161983 
L 401.232858 98.341473 
L 401.636244 96.197656 
L 402.17409 91.634867 
L 403.65317 76.852942 
L 404.056555 74.933408 
L 404.45994 74.029602 
L 404.728863 73.991358 
L 404.997787 74.404549 
L 405.26671 75.269175 
L 405.670096 77.412554 
L 406.207942 81.850415 
L 406.880251 89.937062 
L 407.283636 96.143354 
L 407.283636 96.143354 
" clip-path="url(#p14e1bdcb08)" style="fill: none; stroke: #e377c2; stroke-width: 1.5; stroke-linecap: square"/>
   </g>
   <g id="patch_8">
    <path d="M 266.24 174.04 
L 266.24 13.007933 
" style="fill: none; stroke: #000000; stroke-width: 0.8; stroke-linejoin: miter; stroke-linecap: square"/>
   </g>
   <g id="patch_9">
    <path d="M 414 174.04 
L 414 13.007933 
" style="fill: none; stroke: #000000; stroke-width: 0.8; stroke-linejoin: miter; stroke-linecap: square"/>
   </g>
   <g id="patch_10">
    <path d="M 266.24 174.04 
L 414 174.04 
" style="fill: none; stroke: #000000; stroke-width: 0.8; stroke-linejoin: miter; stroke-linecap: square"/>
   </g>
   <g id="patch_11">
    <path d="M 266.24 13.007933 
L 414 13.007933 
" style="fill: none; stroke: #000000; stroke-width: 0.8; stroke-linejoin: miter; stroke-linecap: square"/>
   </g>
  </g>
  <g id="axes_3">
   <g id="patch_12">
    <path d="M 485.84 174.04 
L 633.6 174.04 
L 633.6 13.007933 
L 485.84 13.007933 
z
" style="fill: #ffffff"/>
   </g>
   <g id="matplotlib.axis_5">
    <g id="xtick_7">
     <g id="line2d_32">
      <g>
       <use xlink:href="#m4f8bc8aa97" x="492.556364" y="174.04" style="stroke: #000000; stroke-width: 0.8"/>
      </g>
     </g>
     <g id="text_22">
      <!-- 0.0 -->
      <g transform="translate(484.604801 188.638438)scale(0.1 -0.1)">
       <use xlink:href="#DejaVuSans-30"/>
       <use xlink:href="#DejaVuSans-2e" x="63.623047"/>
       <use xlink:href="#DejaVuSans-30" x="95.410156"/>
      </g>
     </g>
    </g>
    <g id="xtick_8">
     <g id="line2d_33">
      <g>
       <use xlink:href="#m4f8bc8aa97" x="549.87647" y="174.04" style="stroke: #000000; stroke-width: 0.8"/>
      </g>
     </g>
     <g id="text_23">
      <!-- 0.5 -->
      <g transform="translate(541.924907 188.638438)scale(0.1 -0.1)">
       <use xlink:href="#DejaVuSans-30"/>
       <use xlink:href="#DejaVuSans-2e" x="63.623047"/>
       <use xlink:href="#DejaVuSans-35" x="95.410156"/>
      </g>
     </g>
    </g>
    <g id="xtick_9">
     <g id="line2d_34">
      <g>
       <use xlink:href="#m4f8bc8aa97" x="607.196576" y="174.04" style="stroke: #000000; stroke-width: 0.8"/>
      </g>
     </g>
     <g id="text_24">
      <!-- 1.0 -->
      <g transform="translate(599.245013 188.638438)scale(0.1 -0.1)">
       <use xlink:href="#DejaVuSans-31"/>
       <use xlink:href="#DejaVuSans-2e" x="63.623047"/>
       <use xlink:href="#DejaVuSans-30" x="95.410156"/>
      </g>
     </g>
    </g>
    <g id="text_25">
     <!-- Time -->
     <g transform="translate(547.486406 202.316563)scale(0.1 -0.1)">
      <use xlink:href="#DejaVuSans-54"/>
      <use xlink:href="#DejaVuSans-69" x="57.958984"/>
      <use xlink:href="#DejaVuSans-6d" x="85.742188"/>
      <use xlink:href="#DejaVuSans-65" x="183.154297"/>
     </g>
    </g>
   </g>
   <g id="matplotlib.axis_6">
    <g id="ytick_12">
     <g id="line2d_35">
      <g>
       <use xlink:href="#m94a250829d" x="485.84" y="154.587634" style="stroke: #000000; stroke-width: 0.8"/>
      </g>
     </g>
     <g id="text_26">
      <!-- −150 -->
      <g transform="translate(451.372813 158.386853)scale(0.1 -0.1)">
       <use xlink:href="#DejaVuSans-2212"/>
       <use xlink:href="#DejaVuSans-31" x="83.789062"/>
       <use xlink:href="#DejaVuSans-35" x="147.412109"/>
       <use xlink:href="#DejaVuSans-30" x="211.035156"/>
      </g>
     </g>
    </g>
    <g id="ytick_13">
     <g id="line2d_36">
      <g>
       <use xlink:href="#m94a250829d" x="485.84" y="132.533852" style="stroke: #000000; stroke-width: 0.8"/>
      </g>
     </g>
     <g id="text_27">
      <!-- −100 -->
      <g transform="translate(451.372813 136.33307)scale(0.1 -0.1)">
       <use xlink:href="#DejaVuSans-2212"/>
       <use xlink:href="#DejaVuSans-31" x="83.789062"/>
       <use xlink:href="#DejaVuSans-30" x="147.412109"/>
       <use xlink:href="#DejaVuSans-30" x="211.035156"/>
      </g>
     </g>
    </g>
    <g id="ytick_14">
     <g id="line2d_37">
      <g>
       <use xlink:href="#m94a250829d" x="485.84" y="110.480069" style="stroke: #000000; stroke-width: 0.8"/>
      </g>
     </g>
     <g id="text_28">
      <!-- −50 -->
      <g transform="translate(457.735313 114.279288)scale(0.1 -0.1)">
       <use xlink:href="#DejaVuSans-2212"/>
       <use xlink:href="#DejaVuSans-35" x="83.789062"/>
       <use xlink:href="#DejaVuSans-30" x="147.412109"/>
      </g>
     </g>
    </g>
    <g id="ytick_15">
     <g id="line2d_38">
      <g>
       <use xlink:href="#m94a250829d" x="485.84" y="88.426287" style="stroke: #000000; stroke-width: 0.8"/>
      </g>
     </g>
     <g id="text_29">
      <!-- 0 -->
      <g transform="translate(472.4775 92.225506)scale(0.1 -0.1)">
       <use xlink:href="#DejaVuSans-30"/>
      </g>
     </g>
    </g>
    <g id="ytick_16">
     <g id="line2d_39">
      <g>
       <use xlink:href="#m94a250829d" x="485.84" y="66.372505" style="stroke: #000000; stroke-width: 0.8"/>
      </g>
     </g>
     <g id="text_30">
      <!-- 50 -->
      <g transform="translate(466.115 70.171724)scale(0.1 -0.1)">
       <use xlink:href="#DejaVuSans-35"/>
       <use xlink:href="#DejaVuSans-30" x="63.623047"/>
      </g>
     </g>
    </g>
    <g id="ytick_17">
     <g id="line2d_40">
      <g>
       <use xlink:href="#m94a250829d" x="485.84" y="44.318723" style="stroke: #000000; stroke-width: 0.8"/>
      </g>
     </g>
     <g id="text_31">
      <!-- 100 -->
      <g transform="translate(459.7525 48.117942)scale(0.1 -0.1)">
       <use xlink:href="#DejaVuSans-31"/>
       <use xlink:href="#DejaVuSans-30" x="63.623047"/>
       <use xlink:href="#DejaVuSans-30" x="127.246094"/>
      </g>
     </g>
    </g>
    <g id="ytick_18">
     <g id="line2d_41">
      <g>
       <use xlink:href="#m94a250829d" x="485.84" y="22.264941" style="stroke: #000000; stroke-width: 0.8"/>
      </g>
     </g>
     <g id="text_32">
      <!-- 150 -->
      <g transform="translate(459.7525 26.064159)scale(0.1 -0.1)">
       <use xlink:href="#DejaVuSans-31"/>
       <use xlink:href="#DejaVuSans-35" x="63.623047"/>
       <use xlink:href="#DejaVuSans-30" x="127.246094"/>
      </g>
     </g>
    </g>
    <g id="text_33">
     <!-- Acceleration -->
     <g transform="translate(445.293125 124.594279)rotate(-90)scale(0.1 -0.1)">
      <defs>
       <path id="DejaVuSans-41" d="M 2188 4044 
L 1331 1722 
L 3047 1722 
L 2188 4044 
z
M 1831 4666 
L 2547 4666 
L 4325 0 
L 3669 0 
L 3244 1197 
L 1141 1197 
L 716 0 
L 50 0 
L 1831 4666 
z
" transform="scale(0.015625)"/>
       <path id="DejaVuSans-72" d="M 2631 2963 
Q 2534 3019 2420 3045 
Q 2306 3072 2169 3072 
Q 1681 3072 1420 2755 
Q 1159 2438 1159 1844 
L 1159 0 
L 581 0 
L 581 3500 
L 1159 3500 
L 1159 2956 
Q 1341 3275 1631 3429 
Q 1922 3584 2338 3584 
Q 2397 3584 2469 3576 
Q 2541 3569 2628 3553 
L 2631 2963 
z
" transform="scale(0.015625)"/>
       <path id="DejaVuSans-61" d="M 2194 1759 
Q 1497 1759 1228 1600 
Q 959 1441 959 1056 
Q 959 750 1161 570 
Q 1363 391 1709 391 
Q 2188 391 2477 730 
Q 2766 1069 2766 1631 
L 2766 1759 
L 2194 1759 
z
M 3341 1997 
L 3341 0 
L 2766 0 
L 2766 531 
Q 2569 213 2275 61 
Q 1981 -91 1556 -91 
Q 1019 -91 701 211 
Q 384 513 384 1019 
Q 384 1609 779 1909 
Q 1175 2209 1959 2209 
L 2766 2209 
L 2766 2266 
Q 2766 2663 2505 2880 
Q 2244 3097 1772 3097 
Q 1472 3097 1187 3025 
Q 903 2953 641 2809 
L 641 3341 
Q 956 3463 1253 3523 
Q 1550 3584 1831 3584 
Q 2591 3584 2966 3190 
Q 3341 2797 3341 1997 
z
" transform="scale(0.015625)"/>
      </defs>
      <use xlink:href="#DejaVuSans-41"/>
      <use xlink:href="#DejaVuSans-63" x="66.658203"/>
      <use xlink:href="#DejaVuSans-63" x="121.638672"/>
      <use xlink:href="#DejaVuSans-65" x="176.619141"/>
      <use xlink:href="#DejaVuSans-6c" x="238.142578"/>
      <use xlink:href="#DejaVuSans-65" x="265.925781"/>
      <use xlink:href="#DejaVuSans-72" x="327.449219"/>
      <use xlink:href="#DejaVuSans-61" x="368.5625"/>
      <use xlink:href="#DejaVuSans-74" x="429.841797"/>
      <use xlink:href="#DejaVuSans-69" x="469.050781"/>
      <use xlink:href="#DejaVuSans-6f" x="496.833984"/>
      <use xlink:href="#DejaVuSans-6e" x="558.015625"/>
     </g>
    </g>
   </g>
   <g id="line2d_42">
    <path d="M 492.556364 81.94452 
L 496.590216 93.179612 
L 496.724677 93.137141 
L 498.876065 87.504279 
L 503.313302 88.787175 
L 504.523458 89.298615 
L 504.792381 88.916325 
L 506.943769 85.216294 
L 509.767466 86.066115 
L 511.381006 86.975935 
L 512.187777 85.638831 
L 513.263471 83.810471 
L 513.666856 81.267544 
L 515.145935 71.097292 
L 516.625014 81.231111 
L 516.893938 83.671404 
L 518.238555 98.044615 
L 518.373017 97.884016 
L 519.717634 91.676827 
L 522.272407 97.664919 
L 524.423795 85.578602 
L 526.709644 89.781192 
L 528.861032 91.263673 
L 528.995494 91.068938 
L 531.281343 84.367323 
L 533.701654 90.330514 
L 537.466583 89.229575 
L 541.231512 90.703453 
L 543.786284 89.974564 
L 546.609981 91.733634 
L 547.013366 90.79371 
L 549.030292 85.579122 
L 549.299216 85.898199 
L 551.585065 89.435696 
L 554.005376 89.998138 
L 556.425688 87.78927 
L 558.711537 88.86964 
L 561.400772 88.318542 
L 564.493392 88.452681 
L 567.854935 88.372513 
L 571.485402 88.87243 
L 574.846945 88.821641 
L 578.208488 89.431621 
L 581.704494 88.697278 
L 584.259267 87.914582 
L 589.368812 94.339827 
L 590.175583 95.285026 
L 590.310045 94.980134 
L 592.192509 77.7921 
L 592.326971 77.882078 
L 596.495284 90.64344 
L 601.60483 86.921116 
L 604.966374 87.220444 
L 607.924532 88.677915 
L 612.765154 88.36513 
L 616.664545 88.334322 
L 619.891626 88.77097 
L 622.177476 86.389647 
L 626.883636 91.268008 
L 626.883636 91.268008 
" clip-path="url(#pdda52b4c67)" style="fill: none; stroke: #1f77b4; stroke-width: 1.5; stroke-linecap: square"/>
   </g>
   <g id="line2d_43">
    <path d="M 492.556364 63.717954 
L 496.993601 91.818985 
L 498.741603 99.515085 
L 498.876065 99.120733 
L 502.640994 75.516017 
L 502.909917 77.357346 
L 504.65792 90.760138 
L 506.943769 90.348188 
L 509.36408 94.077483 
L 509.498542 93.473595 
L 511.381006 77.124422 
L 511.784392 79.08092 
L 513.397932 87.354487 
L 515.145935 88.945989 
L 516.893938 87.907614 
L 518.507478 88.426287 
L 546.744443 88.489196 
L 550.374909 90.599224 
L 551.450603 91.161437 
L 551.719527 90.836866 
L 554.005376 87.163171 
L 556.291226 87.071355 
L 556.829073 87.949228 
L 558.577075 90.968483 
L 561.131848 89.634083 
L 563.821083 84.317492 
L 567.45155 88.247081 
L 573.098943 88.426287 
L 590.175583 88.426287 
L 590.310045 88.644807 
L 592.192509 97.809242 
L 592.461432 97.072306 
L 596.495284 82.732571 
L 601.470369 90.764029 
L 604.831912 84.307767 
L 607.924532 88.426287 
L 614.244233 88.508317 
L 616.530083 89.024884 
L 619.757164 87.797108 
L 619.891626 88.409735 
L 622.177476 108.800479 
L 626.883636 79.180325 
L 626.883636 79.180325 
" clip-path="url(#pdda52b4c67)" style="fill: none; stroke: #ff7f0e; stroke-width: 1.5; stroke-linecap: square"/>
   </g>
   <g id="line2d_44">
    <path d="M 492.556364 72.493663 
L 496.590216 74.508908 
L 496.859139 78.352694 
L 498.741603 112.572856 
L 498.876065 112.145545 
L 502.640994 63.606333 
L 503.044379 72.394891 
L 504.523458 107.812126 
L 504.65792 107.543145 
L 506.943769 77.549846 
L 509.36408 99.533218 
L 509.498542 98.713523 
L 511.381006 67.371352 
L 511.918853 76.97098 
L 513.263471 102.309402 
L 513.397932 101.870263 
L 515.145935 76.990379 
L 516.221629 86.472091 
L 516.759476 91.10802 
L 518.238555 92.288202 
L 518.776402 97.289633 
L 519.717634 106.515841 
L 522.272407 84.656131 
L 524.423795 90.888961 
L 526.709644 88.731724 
L 528.861032 88.732361 
L 529.129955 89.154223 
L 531.281343 93.293976 
L 533.701654 88.993545 
L 537.332121 89.005069 
L 541.231512 83.163083 
L 544.593055 84.768782 
L 546.744443 86.073526 
L 549.030292 89.446915 
L 549.299216 89.26408 
L 551.450603 87.296286 
L 551.719527 87.589413 
L 554.005376 91.139223 
L 556.291226 89.734822 
L 556.694611 90.530966 
L 558.577075 94.63763 
L 561.131848 90.248483 
L 563.821083 90.785119 
L 567.586011 88.992987 
L 574.309098 89.055442 
L 576.191562 88.938016 
L 578.34295 88.680369 
L 581.301108 87.774302 
L 584.52819 88.388838 
L 588.024195 90.159664 
L 590.175583 93.597403 
L 590.310045 93.491457 
L 592.192509 83.045353 
L 592.326971 83.065647 
L 596.495284 89.50202 
L 601.470369 88.840692 
L 604.831912 94.412902 
L 607.924532 91.049515 
L 611.151613 90.182523 
L 613.840848 90.327621 
L 613.97531 90.042039 
L 616.395621 77.99732 
L 616.530083 78.362571 
L 619.757164 99.521154 
L 619.891626 99.526554 
L 622.311937 85.693243 
L 626.883636 72.535813 
L 626.883636 72.535813 
" clip-path="url(#pdda52b4c67)" style="fill: none; stroke: #2ca02c; stroke-width: 1.5; stroke-linecap: square"/>
   </g>
   <g id="line2d_45">
    <path d="M 492.556364 90.359897 
L 496.724677 88.75473 
L 498.741603 85.172668 
L 498.876065 85.361864 
L 502.640994 96.11063 
L 503.044379 92.784371 
L 504.523458 79.566165 
L 504.65792 80.111057 
L 506.943769 101.877228 
L 509.498542 83.972669 
L 511.381006 85.606895 
L 512.187777 82.402321 
L 513.263471 78.030288 
L 513.397932 78.503421 
L 515.145935 91.229201 
L 515.952705 89.35195 
L 516.759476 87.500451 
L 518.238555 89.410762 
L 518.507478 89.167713 
L 519.717634 87.739636 
L 522.406869 89.299535 
L 524.692718 88.53419 
L 528.995494 88.137612 
L 532.491499 88.209514 
L 537.735506 88.496261 
L 541.500435 88.331282 
L 543.920746 88.874821 
L 546.609981 88.370479 
L 547.147828 89.014601 
L 549.164754 91.4846 
L 551.585065 91.77613 
L 554.005376 90.139732 
L 556.291226 93.320884 
L 556.560149 92.721442 
L 558.577075 87.216917 
L 561.938619 86.924984 
L 563.821083 86.835344 
L 567.317088 81.690927 
L 567.45155 81.791387 
L 571.082017 89.598156 
L 574.712483 89.188272 
L 577.939565 87.614779 
L 581.166647 89.145423 
L 584.259267 87.287247 
L 588.158657 93.797217 
L 590.175583 98.442013 
L 590.310045 98.260279 
L 592.192509 81.987304 
L 592.326971 81.96706 
L 596.495284 89.99086 
L 601.470369 86.228369 
L 605.100835 87.500936 
L 607.79007 89.294818 
L 609.941458 88.076008 
L 611.017152 87.369978 
L 613.840848 84.367482 
L 613.97531 84.414822 
L 616.395621 89.754033 
L 616.530083 89.764533 
L 619.757164 86.588668 
L 619.891626 86.840805 
L 622.177476 96.909668 
L 626.883636 77.12158 
L 626.883636 77.12158 
" clip-path="url(#pdda52b4c67)" style="fill: none; stroke: #d62728; stroke-width: 1.5; stroke-linecap: square"/>
   </g>
   <g id="line2d_46">
    <path d="M 492.556364 91.593962 
L 496.590216 82.731096 
L 496.724677 83.491979 
L 498.741603 107.330742 
L 498.876065 105.731151 
L 502.640994 20.327572 
L 503.044379 49.808283 
L 504.523458 166.720361 
L 504.65792 166.124039 
L 506.943769 73.321158 
L 509.36408 94.093363 
L 509.498542 92.437074 
L 511.381006 41.894392 
L 511.918853 66.781222 
L 513.263471 131.837145 
L 513.397932 132.089019 
L 515.952705 80.232769 
L 516.759476 65.975199 
L 518.238555 78.374494 
L 518.910864 93.406148 
L 519.717634 111.971873 
L 522.272407 87.497924 
L 522.406869 87.595453 
L 524.423795 88.976331 
L 526.978568 87.548477 
L 528.995494 86.99068 
L 532.357037 88.897566 
L 533.701654 89.724082 
L 538.00443 89.072413 
L 541.365973 88.239659 
L 544.458593 88.469213 
L 551.450603 88.419486 
L 562.207542 88.512241 
L 564.090006 88.629657 
L 567.586011 88.19476 
L 571.082017 89.246107 
L 574.712483 88.455467 
L 578.34295 89.018059 
L 581.032185 89.973545 
L 581.166647 89.86558 
L 584.124805 83.886661 
L 584.259267 84.37244 
L 587.889733 131.360304 
L 588.158657 125.305973 
L 590.310045 68.205169 
L 592.192509 63.717407 
L 592.595894 66.380153 
L 596.495284 94.460867 
L 601.470369 84.289094 
L 604.831912 101.266671 
L 607.79007 77.493519 
L 608.731302 83.360988 
L 610.88269 96.455995 
L 613.97531 85.37561 
L 616.395621 87.849 
L 616.664545 87.432066 
L 619.757164 81.048362 
L 619.891626 81.477444 
L 622.177476 99.414643 
L 626.883636 65.060794 
L 626.883636 65.060794 
" clip-path="url(#pdda52b4c67)" style="fill: none; stroke: #9467bd; stroke-width: 1.5; stroke-linecap: square"/>
   </g>
   <g id="line2d_47">
    <path d="M 492.556364 80.542103 
L 496.590216 83.502617 
L 496.724677 83.195685 
L 498.741603 73.820405 
L 499.010527 76.014273 
L 502.640994 114.246394 
L 503.044379 102.182304 
L 504.523458 54.224665 
L 504.65792 54.300208 
L 506.943769 88.426287 
L 511.381006 88.426287 
L 512.322239 94.188065 
L 513.263471 100.043747 
L 513.397932 99.106166 
L 515.145935 75.477402 
L 516.490552 90.030634 
L 516.759476 92.725501 
L 518.238555 91.065191 
L 518.64194 96.774039 
L 519.717634 113.320749 
L 522.272407 70.136831 
L 524.423795 94.242274 
L 526.709644 84.668234 
L 528.995494 88.799534 
L 531.415805 89.005302 
L 533.701654 87.968959 
L 537.332121 92.682035 
L 541.09705 79.965016 
L 541.231512 80.190846 
L 543.651823 101.564318 
L 543.920746 99.797349 
L 546.609981 76.932756 
L 546.744443 76.879724 
L 549.433677 82.861654 
L 551.585065 88.426287 
L 563.686621 88.426287 
L 563.821083 88.723094 
L 567.317088 105.275226 
L 567.45155 104.798123 
L 570.947555 73.170135 
L 571.082017 73.591035 
L 574.578022 93.563073 
L 577.939565 89.063568 
L 581.032185 90.520461 
L 581.166647 90.329852 
L 584.124805 80.260178 
L 584.259267 80.277236 
L 587.889733 101.965957 
L 588.158657 100.044254 
L 590.310045 81.378309 
L 592.192509 78.361476 
L 592.461432 78.893783 
L 596.495284 88.426287 
L 601.335907 88.426287 
L 601.470369 88.559053 
L 604.831912 102.818763 
L 607.79007 80.306851 
L 608.59684 83.786917 
L 610.88269 93.547298 
L 613.97531 88.159247 
L 616.395621 75.860897 
L 616.530083 76.682989 
L 619.757164 114.447735 
L 619.891626 113.740664 
L 622.177476 67.002465 
L 626.883636 120.513433 
L 626.883636 120.513433 
" clip-path="url(#pdda52b4c67)" style="fill: none; stroke: #8c564b; stroke-width: 1.5; stroke-linecap: square"/>
   </g>
   <g id="line2d_48">
    <path d="M 492.556364 91.719938 
L 496.590216 82.748818 
L 496.724677 83.091189 
L 498.741603 95.771701 
L 498.876065 95.290421 
L 502.640994 64.917632 
L 503.044379 76.652337 
L 504.523458 123.100265 
L 504.65792 121.982647 
L 506.943769 64.205614 
L 509.498542 94.189869 
L 511.381006 94.904881 
L 512.322239 74.187151 
L 513.263471 53.125945 
L 513.397932 54.683227 
L 515.145935 104.371607 
L 516.759476 40.07583 
L 518.238555 135.250527 
L 518.373017 133.033311 
L 519.717634 79.562566 
L 522.272407 99.300873 
L 522.406869 98.932456 
L 524.423795 93.516097 
L 527.381953 90.499834 
L 528.861032 88.76972 
L 528.995494 89.015978 
L 531.281343 97.938064 
L 533.836116 87.077953 
L 537.332121 79.939336 
L 541.09705 92.564919 
L 541.231512 92.265525 
L 543.651823 67.778537 
L 543.920746 69.795706 
L 546.609981 95.910018 
L 546.744443 95.976433 
L 549.030292 90.498229 
L 549.299216 91.252154 
L 551.450603 98.502041 
L 551.585065 98.342991 
L 554.005376 88.78219 
L 556.291226 89.684437 
L 556.694611 91.557299 
L 558.577075 100.884481 
L 561.26631 85.936227 
L 563.821083 79.270306 
L 567.586011 85.440364 
L 573.098943 98.01332 
L 574.44356 101.185311 
L 574.578022 100.858341 
L 577.939565 84.86112 
L 581.166647 89.361549 
L 584.393728 88.268426 
L 589.503274 88.246769 
L 590.444506 88.124442 
L 592.326971 87.353849 
L 596.629746 89.400627 
L 601.873754 88.312525 
L 605.504221 88.350858 
L 608.193455 88.588462 
L 611.151613 88.342137 
L 613.97531 88.756789 
L 616.395621 87.127337 
L 616.664545 87.475337 
L 619.757164 92.692568 
L 619.891626 92.075614 
L 622.177476 68.913754 
L 626.883636 113.934468 
L 626.883636 113.934468 
" clip-path="url(#pdda52b4c67)" style="fill: none; stroke: #e377c2; stroke-width: 1.5; stroke-linecap: square"/>
   </g>
   <g id="patch_13">
    <path d="M 485.84 174.04 
L 485.84 13.007933 
" style="fill: none; stroke: #000000; stroke-width: 0.8; stroke-linejoin: miter; stroke-linecap: square"/>
   </g>
   <g id="patch_14">
    <path d="M 633.6 174.04 
L 633.6 13.007933 
" style="fill: none; stroke: #000000; stroke-width: 0.8; stroke-linejoin: miter; stroke-linecap: square"/>
   </g>
   <g id="patch_15">
    <path d="M 485.84 174.04 
L 633.6 174.04 
" style="fill: none; stroke: #000000; stroke-width: 0.8; stroke-linejoin: miter; stroke-linecap: square"/>
   </g>
   <g id="patch_16">
    <path d="M 485.84 13.007933 
L 633.6 13.007933 
" style="fill: none; stroke: #000000; stroke-width: 0.8; stroke-linejoin: miter; stroke-linecap: square"/>
   </g>
  </g>
  <g id="axes_4">
   <g id="patch_17">
    <path d="M 705.44 174.04 
L 853.2 174.04 
L 853.2 13.007933 
L 705.44 13.007933 
z
" style="fill: #ffffff"/>
   </g>
   <g id="matplotlib.axis_7">
    <g id="xtick_10">
     <g id="line2d_49">
      <g>
       <use xlink:href="#m4f8bc8aa97" x="712.156364" y="174.04" style="stroke: #000000; stroke-width: 0.8"/>
      </g>
     </g>
     <g id="text_34">
      <!-- 0.0 -->
      <g transform="translate(704.204801 188.638438)scale(0.1 -0.1)">
       <use xlink:href="#DejaVuSans-30"/>
       <use xlink:href="#DejaVuSans-2e" x="63.623047"/>
       <use xlink:href="#DejaVuSans-30" x="95.410156"/>
      </g>
     </g>
    </g>
    <g id="xtick_11">
     <g id="line2d_50">
      <g>
       <use xlink:href="#m4f8bc8aa97" x="769.47647" y="174.04" style="stroke: #000000; stroke-width: 0.8"/>
      </g>
     </g>
     <g id="text_35">
      <!-- 0.5 -->
      <g transform="translate(761.524907 188.638438)scale(0.1 -0.1)">
       <use xlink:href="#DejaVuSans-30"/>
       <use xlink:href="#DejaVuSans-2e" x="63.623047"/>
       <use xlink:href="#DejaVuSans-35" x="95.410156"/>
      </g>
     </g>
    </g>
    <g id="xtick_12">
     <g id="line2d_51">
      <g>
       <use xlink:href="#m4f8bc8aa97" x="826.796576" y="174.04" style="stroke: #000000; stroke-width: 0.8"/>
      </g>
     </g>
     <g id="text_36">
      <!-- 1.0 -->
      <g transform="translate(818.845013 188.638438)scale(0.1 -0.1)">
       <use xlink:href="#DejaVuSans-31"/>
       <use xlink:href="#DejaVuSans-2e" x="63.623047"/>
       <use xlink:href="#DejaVuSans-30" x="95.410156"/>
      </g>
     </g>
    </g>
    <g id="text_37">
     <!-- Time -->
     <g transform="translate(767.086406 202.316563)scale(0.1 -0.1)">
      <use xlink:href="#DejaVuSans-54"/>
      <use xlink:href="#DejaVuSans-69" x="57.958984"/>
      <use xlink:href="#DejaVuSans-6d" x="85.742188"/>
      <use xlink:href="#DejaVuSans-65" x="183.154297"/>
     </g>
    </g>
   </g>
   <g id="matplotlib.axis_8">
    <g id="ytick_19">
     <g id="line2d_52">
      <g>
       <use xlink:href="#m94a250829d" x="705.44" y="164.175858" style="stroke: #000000; stroke-width: 0.8"/>
      </g>
     </g>
     <g id="text_38">
      <!-- −20000 -->
      <g transform="translate(658.247812 167.975077)scale(0.1 -0.1)">
       <use xlink:href="#DejaVuSans-2212"/>
       <use xlink:href="#DejaVuSans-32" x="83.789062"/>
       <use xlink:href="#DejaVuSans-30" x="147.412109"/>
       <use xlink:href="#DejaVuSans-30" x="211.035156"/>
       <use xlink:href="#DejaVuSans-30" x="274.658203"/>
       <use xlink:href="#DejaVuSans-30" x="338.28125"/>
      </g>
     </g>
    </g>
    <g id="ytick_20">
     <g id="line2d_53">
      <g>
       <use xlink:href="#m94a250829d" x="705.44" y="140.802872" style="stroke: #000000; stroke-width: 0.8"/>
      </g>
     </g>
     <g id="text_39">
      <!-- −15000 -->
      <g transform="translate(658.247812 144.602091)scale(0.1 -0.1)">
       <use xlink:href="#DejaVuSans-2212"/>
       <use xlink:href="#DejaVuSans-31" x="83.789062"/>
       <use xlink:href="#DejaVuSans-35" x="147.412109"/>
       <use xlink:href="#DejaVuSans-30" x="211.035156"/>
       <use xlink:href="#DejaVuSans-30" x="274.658203"/>
       <use xlink:href="#DejaVuSans-30" x="338.28125"/>
      </g>
     </g>
    </g>
    <g id="ytick_21">
     <g id="line2d_54">
      <g>
       <use xlink:href="#m94a250829d" x="705.44" y="117.429886" style="stroke: #000000; stroke-width: 0.8"/>
      </g>
     </g>
     <g id="text_40">
      <!-- −10000 -->
      <g transform="translate(658.247812 121.229105)scale(0.1 -0.1)">
       <use xlink:href="#DejaVuSans-2212"/>
       <use xlink:href="#DejaVuSans-31" x="83.789062"/>
       <use xlink:href="#DejaVuSans-30" x="147.412109"/>
       <use xlink:href="#DejaVuSans-30" x="211.035156"/>
       <use xlink:href="#DejaVuSans-30" x="274.658203"/>
       <use xlink:href="#DejaVuSans-30" x="338.28125"/>
      </g>
     </g>
    </g>
    <g id="ytick_22">
     <g id="line2d_55">
      <g>
       <use xlink:href="#m94a250829d" x="705.44" y="94.0569" style="stroke: #000000; stroke-width: 0.8"/>
      </g>
     </g>
     <g id="text_41">
      <!-- −5000 -->
      <g transform="translate(664.610312 97.856118)scale(0.1 -0.1)">
       <use xlink:href="#DejaVuSans-2212"/>
       <use xlink:href="#DejaVuSans-35" x="83.789062"/>
       <use xlink:href="#DejaVuSans-30" x="147.412109"/>
       <use xlink:href="#DejaVuSans-30" x="211.035156"/>
       <use xlink:href="#DejaVuSans-30" x="274.658203"/>
      </g>
     </g>
    </g>
    <g id="ytick_23">
     <g id="line2d_56">
      <g>
       <use xlink:href="#m94a250829d" x="705.44" y="70.683914" style="stroke: #000000; stroke-width: 0.8"/>
      </g>
     </g>
     <g id="text_42">
      <!-- 0 -->
      <g transform="translate(692.0775 74.483132)scale(0.1 -0.1)">
       <use xlink:href="#DejaVuSans-30"/>
      </g>
     </g>
    </g>
    <g id="ytick_24">
     <g id="line2d_57">
      <g>
       <use xlink:href="#m94a250829d" x="705.44" y="47.310927" style="stroke: #000000; stroke-width: 0.8"/>
      </g>
     </g>
     <g id="text_43">
      <!-- 5000 -->
      <g transform="translate(672.99 51.110146)scale(0.1 -0.1)">
       <use xlink:href="#DejaVuSans-35"/>
       <use xlink:href="#DejaVuSans-30" x="63.623047"/>
       <use xlink:href="#DejaVuSans-30" x="127.246094"/>
       <use xlink:href="#DejaVuSans-30" x="190.869141"/>
      </g>
     </g>
    </g>
    <g id="ytick_25">
     <g id="line2d_58">
      <g>
       <use xlink:href="#m94a250829d" x="705.44" y="23.937941" style="stroke: #000000; stroke-width: 0.8"/>
      </g>
     </g>
     <g id="text_44">
      <!-- 10000 -->
      <g transform="translate(666.6275 27.73716)scale(0.1 -0.1)">
       <use xlink:href="#DejaVuSans-31"/>
       <use xlink:href="#DejaVuSans-30" x="63.623047"/>
       <use xlink:href="#DejaVuSans-30" x="127.246094"/>
       <use xlink:href="#DejaVuSans-30" x="190.869141"/>
       <use xlink:href="#DejaVuSans-30" x="254.492188"/>
      </g>
     </g>
    </g>
    <g id="text_45">
     <!-- Jerk -->
     <g transform="translate(652.168125 103.02631)rotate(-90)scale(0.1 -0.1)">
      <defs>
       <path id="DejaVuSans-4a" d="M 628 4666 
L 1259 4666 
L 1259 325 
Q 1259 -519 939 -900 
Q 619 -1281 -91 -1281 
L -331 -1281 
L -331 -750 
L -134 -750 
Q 284 -750 456 -515 
Q 628 -281 628 325 
L 628 4666 
z
" transform="scale(0.015625)"/>
       <path id="DejaVuSans-6b" d="M 581 4863 
L 1159 4863 
L 1159 1991 
L 2875 3500 
L 3609 3500 
L 1753 1863 
L 3688 0 
L 2938 0 
L 1159 1709 
L 1159 0 
L 581 0 
L 581 4863 
z
" transform="scale(0.015625)"/>
      </defs>
      <use xlink:href="#DejaVuSans-4a"/>
      <use xlink:href="#DejaVuSans-65" x="29.492188"/>
      <use xlink:href="#DejaVuSans-72" x="91.015625"/>
      <use xlink:href="#DejaVuSans-6b" x="132.128906"/>
     </g>
    </g>
   </g>
   <g id="line2d_59">
    <path d="M 712.156364 74.06787 
L 716.190216 74.06787 
L 716.324677 67.345492 
L 718.341603 67.345492 
L 718.476065 71.007416 
L 722.240994 71.007416 
L 722.509917 71.197391 
L 724.123458 71.197391 
L 724.25792 68.550178 
L 726.409307 68.550178 
L 726.543769 71.004638 
L 728.96408 71.004638 
L 729.098542 71.368997 
L 730.981006 71.368997 
L 731.115468 68.618813 
L 732.863471 68.618813 
L 732.997932 62.329645 
L 734.745935 62.329645 
L 734.880397 79.063873 
L 736.225014 79.063873 
L 736.359476 83.671343 
L 737.838555 83.671343 
L 737.973017 65.075185 
L 739.317634 65.075185 
L 739.452096 73.608739 
L 741.737945 73.608739 
L 741.872407 63.587872 
L 743.889333 63.587872 
L 744.023795 72.960248 
L 746.175182 72.960248 
L 746.309644 71.521131 
L 748.461032 71.521131 
L 748.595494 67.010563 
L 750.746881 67.010563 
L 750.881343 73.731565 
L 753.167193 73.731565 
L 753.301654 70.296046 
L 756.797659 70.296046 
L 756.932121 71.172602 
L 760.69705 71.172602 
L 760.831512 70.290215 
L 763.251823 70.290215 
L 763.386284 71.440804 
L 766.209981 71.440804 
L 766.344443 67.542695 
L 768.630292 67.542695 
L 768.764754 72.624617 
L 771.050603 72.624617 
L 771.185065 70.969902 
L 773.470915 70.969902 
L 773.605376 69.499272 
L 775.891226 69.499272 
L 776.025688 71.318275 
L 778.042614 71.318275 
L 778.177075 70.385512 
L 780.597386 70.385512 
L 780.731848 70.774261 
L 783.286621 70.774261 
L 783.555545 70.615846 
L 786.917088 70.615846 
L 787.05155 70.88724 
L 790.547555 70.88724 
L 790.682017 70.632269 
L 794.04356 70.632269 
L 794.178022 70.943697 
L 797.405103 70.943697 
L 797.539565 70.461301 
L 800.632185 70.461301 
L 800.901108 70.272438 
L 803.724805 70.272438 
L 803.859267 72.253047 
L 807.489733 72.253047 
L 807.758657 72.10736 
L 809.775583 72.10736 
L 809.910045 59.59044 
L 811.792509 59.59044 
L 811.926971 74.418155 
L 815.960823 74.418155 
L 816.095284 69.76649 
L 820.935907 69.76649 
L 821.070369 70.766173 
L 824.29745 70.766173 
L 824.431912 71.314368 
L 827.39007 71.314368 
L 827.524532 70.577754 
L 835.995621 70.668497 
L 836.130083 70.88068 
L 839.357164 70.88068 
L 839.491626 69.394289 
L 841.643014 69.394289 
L 841.777476 71.943347 
L 846.483636 71.943347 
L 846.483636 71.943347 
" clip-path="url(#pd3c627a80c)" style="fill: none; stroke: #1f77b4; stroke-width: 1.5; stroke-linecap: square"/>
   </g>
   <g id="line2d_60">
    <path d="M 712.156364 78.575633 
L 716.190216 78.575633 
L 716.324677 76.033211 
L 718.341603 76.033211 
L 718.476065 63.066454 
L 722.240994 63.066454 
L 722.375455 80.538523 
L 724.123458 80.538523 
L 724.25792 70.428922 
L 726.409307 70.428922 
L 726.543769 72.55599 
L 728.96408 72.55599 
L 729.098542 60.131856 
L 730.981006 60.131856 
L 731.115468 77.216052 
L 732.863471 77.216052 
L 732.997932 71.790112 
L 734.745935 71.790112 
L 734.880397 69.841834 
L 736.225014 69.841834 
L 736.359476 71.14233 
L 737.838555 71.14233 
L 737.973017 70.683914 
L 766.209981 70.683914 
L 766.344443 71.430613 
L 768.630292 71.430613 
L 768.899216 71.318923 
L 771.050603 71.318923 
L 771.185065 68.726255 
L 773.470915 68.726255 
L 773.605376 70.635111 
L 775.891226 70.635111 
L 776.025688 72.802372 
L 778.042614 72.802372 
L 778.177075 70.103886 
L 780.597386 70.103886 
L 780.731848 68.192517 
L 783.286621 68.192517 
L 783.421083 72.027527 
L 786.917088 72.027527 
L 787.05155 70.745753 
L 809.775583 70.683914 
L 809.910045 76.598809 
L 811.792509 76.598809 
L 811.926971 66.344375 
L 815.960823 66.344375 
L 816.095284 72.672117 
L 820.935907 72.672117 
L 821.070369 68.320843 
L 824.29745 68.320843 
L 824.431912 72.371715 
L 827.39007 72.371715 
L 827.524532 70.683914 
L 833.440848 70.683914 
L 833.57531 70.988571 
L 835.995621 70.988571 
L 836.130083 70.221663 
L 839.357164 70.221663 
L 839.491626 81.696994 
L 841.643014 81.696994 
L 841.777476 63.036956 
L 846.483636 63.036956 
L 846.483636 63.036956 
" clip-path="url(#pd3c627a80c)" style="fill: none; stroke: #ff7f0e; stroke-width: 1.5; stroke-linecap: square"/>
   </g>
   <g id="line2d_61">
    <path d="M 712.156364 71.290896 
L 716.190216 71.290896 
L 716.324677 92.770236 
L 718.341603 92.770236 
L 718.476065 55.019862 
L 722.240994 55.019862 
L 722.375455 99.777105 
L 724.123458 99.777105 
L 724.25792 54.276979 
L 726.409307 54.276979 
L 726.543769 81.719393 
L 728.96408 81.719393 
L 729.098542 50.455099 
L 730.981006 50.455099 
L 731.115468 93.579352 
L 732.863471 93.579352 
L 732.997932 53.390753 
L 734.745935 53.390753 
L 734.880397 81.521897 
L 736.225014 81.521897 
L 736.359476 71.653365 
L 737.838555 71.653365 
L 737.973017 82.593442 
L 739.317634 82.593442 
L 739.452096 60.17513 
L 741.737945 60.17513 
L 741.872407 74.343521 
L 743.889333 74.343521 
L 744.023795 69.502335 
L 746.175182 69.502335 
L 746.309644 70.684273 
L 748.461032 70.684273 
L 748.595494 73.10296 
L 750.746881 73.10296 
L 750.881343 68.490436 
L 753.167193 68.490436 
L 753.301654 70.690585 
L 756.797659 70.690585 
L 756.932121 68.829431 
L 760.69705 68.829431 
L 760.831512 71.225693 
L 763.251823 71.225693 
L 763.520746 71.367993 
L 766.209981 71.367993 
L 766.344443 72.476941 
L 768.630292 72.476941 
L 768.764754 69.572619 
L 771.050603 69.572619 
L 771.185065 72.577646 
L 773.470915 72.577646 
L 773.605376 69.937444 
L 775.891226 69.937444 
L 776.025688 73.367535 
L 778.042614 73.367535 
L 778.177075 68.527481 
L 780.597386 68.527481 
L 780.731848 70.946834 
L 783.286621 70.946834 
L 783.421083 70.068603 
L 786.917088 70.068603 
L 787.05155 70.715231 
L 794.04356 70.67487 
L 794.312483 70.601131 
L 797.405103 70.601131 
L 797.539565 70.270749 
L 800.632185 70.270749 
L 800.766647 70.877539 
L 803.724805 70.877539 
L 803.859267 71.258711 
L 807.489733 71.258711 
L 807.624195 72.625346 
L 809.775583 72.625346 
L 809.910045 63.941806 
L 811.792509 63.941806 
L 811.926971 72.566427 
L 815.960823 72.566427 
L 816.095284 70.508762 
L 820.935907 70.508762 
L 821.070369 72.722717 
L 824.29745 72.722717 
L 824.431912 69.321525 
L 827.39007 69.321525 
L 827.524532 70.314023 
L 830.348228 70.314023 
L 830.48269 70.749467 
L 833.440848 70.749467 
L 833.57531 64.63756 
L 835.995621 64.63756 
L 836.130083 78.649995 
L 839.357164 78.649995 
L 839.491626 63.502356 
L 841.643014 63.502356 
L 841.777476 67.187188 
L 846.483636 67.187188 
L 846.483636 67.187188 
" clip-path="url(#pd3c627a80c)" style="fill: none; stroke: #2ca02c; stroke-width: 1.5; stroke-linecap: square"/>
   </g>
   <g id="line2d_62">
    <path d="M 712.156364 70.247157 
L 716.190216 70.247157 
L 716.324677 68.526113 
L 718.341603 68.526113 
L 718.476065 74.152639 
L 722.240994 74.152639 
L 722.375455 59.825929 
L 724.123458 59.825929 
L 724.25792 82.604455 
L 726.409307 82.604455 
L 726.543769 61.862395 
L 728.96408 61.862395 
L 729.098542 71.738673 
L 730.981006 71.738673 
L 731.115468 65.74578 
L 732.863471 65.74578 
L 732.997932 79.529171 
L 734.745935 79.529171 
L 734.880397 67.785257 
L 736.225014 67.785257 
L 736.359476 72.253122 
L 737.838555 72.253122 
L 737.973017 69.250147 
L 739.317634 69.250147 
L 739.452096 71.459419 
L 741.737945 71.459419 
L 741.872407 70.232144 
L 743.889333 70.232144 
L 744.023795 70.542727 
L 748.461032 70.593506 
L 748.729955 70.672994 
L 760.69705 70.594728 
L 760.831512 71.011615 
L 763.251823 71.011615 
L 763.386284 70.456055 
L 766.209981 70.456055 
L 766.344443 72.245784 
L 768.630292 72.245784 
L 768.764754 70.865066 
L 771.050603 70.865066 
L 771.185065 69.856208 
L 773.470915 69.856208 
L 773.605376 72.374763 
L 775.891226 72.374763 
L 776.025688 67.347658 
L 778.042614 67.347658 
L 778.177075 70.540381 
L 780.597386 70.540381 
L 780.86631 70.685655 
L 783.286621 70.685655 
L 783.421083 68.896059 
L 786.917088 68.896059 
L 787.05155 73.381152 
L 790.547555 73.381152 
L 790.682017 70.57692 
L 794.04356 70.57692 
L 794.178022 70.08963 
L 797.405103 70.08963 
L 797.539565 71.288203 
L 800.632185 71.288203 
L 800.766647 69.908832 
L 803.724805 69.908832 
L 803.859267 72.662188 
L 807.489733 72.662188 
L 807.624195 73.481894 
L 809.775583 73.481894 
L 809.910045 60.181036 
L 811.792509 60.181036 
L 811.926971 73.032945 
L 815.960823 73.032945 
L 816.095284 69.756936 
L 820.935907 69.756936 
L 821.070369 71.075973 
L 824.29745 71.075973 
L 824.431912 71.494376 
L 827.39007 71.494376 
L 827.524532 69.990995 
L 830.348228 69.990995 
L 830.48269 69.392003 
L 833.440848 69.392003 
L 833.57531 73.364155 
L 835.995621 73.364155 
L 836.130083 69.488219 
L 839.357164 69.488219 
L 839.491626 76.13474 
L 841.643014 76.13474 
L 841.777476 65.575275 
L 846.483636 65.575275 
L 846.483636 65.575275 
" clip-path="url(#pd3c627a80c)" style="fill: none; stroke: #d62728; stroke-width: 1.5; stroke-linecap: square"/>
   </g>
   <g id="line2d_63">
    <path d="M 712.156364 68.01446 
L 716.190216 68.01446 
L 716.324677 85.044159 
L 718.341603 85.044159 
L 718.476065 43.123392 
L 722.240994 43.123392 
L 722.375455 166.720361 
L 724.123458 166.720361 
L 724.25792 20.327572 
L 726.409307 20.327572 
L 726.543769 81.111396 
L 728.96408 81.111396 
L 729.098542 38.062736 
L 730.981006 38.062736 
L 731.115468 129.46752 
L 732.863471 129.46752 
L 732.997932 44.93012 
L 734.745935 44.93012 
L 734.880397 48.410722 
L 736.225014 48.410722 
L 736.359476 80.86921 
L 737.838555 80.86921 
L 737.973017 98.643456 
L 739.317634 98.643456 
L 739.452096 58.936571 
L 741.737945 58.936571 
L 741.872407 71.565176 
L 743.889333 71.565176 
L 744.023795 69.95878 
L 746.175182 69.95878 
L 746.309644 70.308643 
L 748.461032 70.308643 
L 748.595494 71.331504 
L 750.746881 71.331504 
L 751.015805 71.457156 
L 753.167193 71.457156 
L 753.301654 70.526603 
L 756.797659 70.526603 
L 757.066583 70.357098 
L 760.69705 70.357098 
L 760.831512 70.813695 
L 763.251823 70.813695 
L 763.520746 70.656046 
L 780.597386 70.666751 
L 780.86631 70.815764 
L 783.286621 70.815764 
L 783.421083 70.497483 
L 786.917088 70.497483 
L 787.05155 71.070571 
L 790.547555 71.070571 
L 790.682017 70.391454 
L 794.04356 70.391454 
L 794.178022 70.841338 
L 797.405103 70.841338 
L 797.539565 71.115595 
L 800.632185 71.115595 
L 800.766647 68.228247 
L 803.724805 68.228247 
L 803.859267 86.408938 
L 807.489733 86.408938 
L 807.624195 37.811326 
L 809.775583 37.811326 
L 809.910045 67.787429 
L 811.792509 67.787429 
L 811.926971 79.471257 
L 815.960823 79.471257 
L 816.095284 68.145648 
L 820.935907 68.145648 
L 821.070369 76.937059 
L 824.29745 76.937059 
L 824.431912 60.919785 
L 827.39007 60.919785 
L 827.524532 78.380143 
L 830.348228 78.380143 
L 830.48269 66.223506 
L 833.440848 66.223506 
L 833.57531 71.925536 
L 835.995621 71.925536 
L 836.130083 68.17599 
L 839.357164 68.17599 
L 839.491626 80.392106 
L 841.643014 80.392106 
L 841.777476 61.814871 
L 846.483636 61.814871 
L 846.483636 61.814871 
" clip-path="url(#pd3c627a80c)" style="fill: none; stroke: #9467bd; stroke-width: 1.5; stroke-linecap: square"/>
   </g>
   <g id="line2d_64">
    <path d="M 712.156364 71.575606 
L 716.190216 71.575606 
L 716.324677 65.036334 
L 718.341603 65.036334 
L 718.476065 83.478729 
L 722.240994 83.478729 
L 722.375455 31.289513 
L 724.123458 31.289513 
L 724.25792 89.135201 
L 726.409307 89.135201 
L 726.543769 70.683914 
L 730.981006 70.683914 
L 731.115468 78.242643 
L 732.863471 78.242643 
L 732.997932 54.260363 
L 734.745935 54.260363 
L 734.880397 83.942525 
L 736.225014 83.942525 
L 736.359476 69.320066 
L 737.838555 69.320066 
L 737.973017 89.373128 
L 739.317634 89.373128 
L 739.452096 49.874111 
L 741.737945 49.874111 
L 741.872407 84.859512 
L 743.889333 84.859512 
L 744.023795 65.370881 
L 746.175182 65.370881 
L 746.309644 72.951282 
L 748.461032 72.951282 
L 748.595494 70.84013 
L 750.746881 70.84013 
L 750.881343 70.096792 
L 753.167193 70.096792 
L 753.301654 72.269803 
L 756.797659 72.269803 
L 756.932121 66.580014 
L 760.69705 66.580014 
L 760.831512 81.413228 
L 763.251823 81.413228 
L 763.386284 60.353853 
L 766.209981 60.353853 
L 766.344443 73.294087 
L 768.630292 73.294087 
L 768.764754 73.953394 
L 771.050603 73.953394 
L 771.185065 70.683914 
L 783.286621 70.683914 
L 783.421083 76.436326 
L 786.917088 76.436326 
L 787.05155 59.692144 
L 790.547555 59.692144 
L 790.682017 77.852308 
L 794.04356 77.852308 
L 794.178022 69.054334 
L 797.405103 69.054334 
L 797.539565 71.256274 
L 800.632185 71.256274 
L 800.766647 66.548089 
L 803.724805 66.548089 
L 803.859267 77.942292 
L 807.489733 77.942292 
L 807.624195 59.959356 
L 809.775583 59.959356 
L 809.910045 68.736794 
L 811.792509 68.736794 
L 811.926971 73.564381 
L 815.960823 73.564381 
L 816.095284 70.683914 
L 820.935907 70.683914 
L 821.070369 75.943701 
L 824.29745 75.943701 
L 824.431912 61.437803 
L 827.39007 61.437803 
L 827.524532 76.044156 
L 830.348228 76.044156 
L 830.48269 68.644974 
L 833.440848 68.644974 
L 833.57531 64.510239 
L 835.995621 64.510239 
L 836.130083 84.902117 
L 839.357164 84.902117 
L 839.491626 45.475667 
L 841.643014 45.475667 
L 841.777476 84.498699 
L 846.483636 84.498699 
L 846.483636 84.498699 
" clip-path="url(#pd3c627a80c)" style="fill: none; stroke: #8c564b; stroke-width: 1.5; stroke-linecap: square"/>
   </g>
   <g id="line2d_65">
    <path d="M 712.156364 67.981855 
L 716.190216 67.981855 
L 716.324677 78.322534 
L 718.341603 78.322534 
L 718.476065 60.882334 
L 722.240994 60.882334 
L 722.375455 108.838175 
L 724.123458 108.838175 
L 724.25792 39.191694 
L 726.409307 39.191694 
L 726.543769 85.385677 
L 728.96408 85.385677 
L 729.098542 71.145396 
L 730.981006 71.145396 
L 731.115468 43.497332 
L 732.863471 43.497332 
L 732.997932 105.220616 
L 734.745935 105.220616 
L 734.880397 20.425584 
L 736.225014 20.425584 
L 736.359476 148.864372 
L 737.838555 148.864372 
L 737.973017 22.368509 
L 739.317634 22.368509 
L 739.452096 80.187577 
L 741.737945 80.187577 
L 741.872407 67.354956 
L 743.889333 67.354956 
L 744.023795 69.505896 
L 746.175182 69.505896 
L 746.309644 69.262726 
L 748.461032 69.262726 
L 748.595494 75.596277 
L 750.746881 75.596277 
L 750.881343 65.325409 
L 753.167193 65.325409 
L 753.301654 68.192697 
L 756.797659 68.192697 
L 756.932121 74.758305 
L 760.69705 74.758305 
L 760.831512 58.391639 
L 763.251823 58.391639 
L 763.386284 82.482174 
L 766.209981 82.482174 
L 766.344443 67.772133 
L 768.630292 67.772133 
L 768.764754 74.778223 
L 771.050603 74.778223 
L 771.185065 65.871342 
L 773.470915 65.871342 
L 773.605376 71.163476 
L 775.891226 71.163476 
L 776.025688 76.793804 
L 778.042614 76.793804 
L 778.177075 63.641691 
L 780.597386 63.641691 
L 780.731848 67.385057 
L 783.286621 67.385057 
L 783.421083 72.631385 
L 786.917088 72.631385 
L 787.05155 73.395014 
L 790.547555 73.395014 
L 790.816478 73.55008 
L 794.04356 73.55008 
L 794.178022 64.89067 
L 797.405103 64.89067 
L 797.539565 72.422496 
L 800.632185 72.422496 
L 800.766647 70.246075 
L 803.724805 70.246075 
L 803.859267 70.704355 
L 809.775583 70.621752 
L 809.910045 70.119291 
L 811.792509 70.119291 
L 811.926971 71.292076 
L 815.960823 71.292076 
L 816.095284 70.410841 
L 820.935907 70.410841 
L 821.070369 70.664207 
L 824.29745 70.664207 
L 824.566374 70.833712 
L 827.39007 70.833712 
L 827.524532 70.546006 
L 830.348228 70.546006 
L 830.48269 70.883303 
L 833.440848 70.883303 
L 833.57531 69.865941 
L 835.995621 69.865941 
L 836.130083 72.733573 
L 839.357164 72.733573 
L 839.491626 58.146351 
L 841.643014 58.146351 
L 841.777476 82.306793 
L 846.483636 82.306793 
L 846.483636 82.306793 
" clip-path="url(#pd3c627a80c)" style="fill: none; stroke: #e377c2; stroke-width: 1.5; stroke-linecap: square"/>
   </g>
   <g id="patch_18">
    <path d="M 705.44 174.04 
L 705.44 13.007933 
" style="fill: none; stroke: #000000; stroke-width: 0.8; stroke-linejoin: miter; stroke-linecap: square"/>
   </g>
   <g id="patch_19">
    <path d="M 853.2 174.04 
L 853.2 13.007933 
" style="fill: none; stroke: #000000; stroke-width: 0.8; stroke-linejoin: miter; stroke-linecap: square"/>
   </g>
   <g id="patch_20">
    <path d="M 705.44 174.04 
L 853.2 174.04 
" style="fill: none; stroke: #000000; stroke-width: 0.8; stroke-linejoin: miter; stroke-linecap: square"/>
   </g>
   <g id="patch_21">
    <path d="M 705.44 13.007933 
L 853.2 13.007933 
" style="fill: none; stroke: #000000; stroke-width: 0.8; stroke-linejoin: miter; stroke-linecap: square"/>
   </g>
  </g>
 </g>
 <defs>
  <clipPath id="pcc7e28838a">
   <rect x="46.64" y="13.007933" width="147.76" height="161.032067"/>
  </clipPath>
  <clipPath id="p14e1bdcb08">
   <rect x="266.24" y="13.007933" width="147.76" height="161.032067"/>
  </clipPath>
  <clipPath id="pdda52b4c67">
   <rect x="485.84" y="13.007933" width="147.76" height="161.032067"/>
  </clipPath>
  <clipPath id="pd3c627a80c">
   <rect x="705.44" y="13.007933" width="147.76" height="161.032067"/>
  </clipPath>
 </defs>
</svg>
