<?xml version="1.0" encoding="utf-8" standalone="no"?>
<!DOCTYPE svg PUBLIC "-//W3C//DTD SVG 1.1//EN"
  "http://www.w3.org/Graphics/SVG/1.1/DTD/svg11.dtd">
<svg xmlns:xlink="http://www.w3.org/1999/xlink" width="864pt" height="216pt" viewBox="0 0 864 216" xmlns="http://www.w3.org/2000/svg" version="1.1">
 <metadata>
  <rdf:RDF xmlns:dc="http://purl.org/dc/elements/1.1/" xmlns:cc="http://creativecommons.org/ns#" xmlns:rdf="http://www.w3.org/1999/02/22-rdf-syntax-ns#">
   <cc:Work>
    <dc:type rdf:resource="http://purl.org/dc/dcmitype/StillImage"/>
    <dc:date>2023-07-24T16:31:33.809995</dc:date>
    <dc:format>image/svg+xml</dc:format>
    <dc:creator>
     <cc:Agent>
      <dc:title>Matplotlib v3.5.2, https://matplotlib.org/</dc:title>
     </cc:Agent>
    </dc:creator>
   </cc:Work>
  </rdf:RDF>
 </metadata>
 <defs>
  <style type="text/css">*{stroke-linejoin: round; stroke-linecap: butt}</style>
 </defs>
 <g id="figure_1">
  <g id="patch_1">
   <path d="M 0 216 
L 864 216 
L 864 0 
L 0 0 
z
" style="fill: #ffffff"/>
  </g>
  <g id="axes_1">
   <g id="patch_2">
    <path d="M 46.64 174.04 
L 199.125 174.04 
L 199.125 12.939605 
L 46.64 12.939605 
z
" style="fill: #ffffff"/>
   </g>
   <g id="matplotlib.axis_1">
    <g id="xtick_1">
     <g id="line2d_1">
      <defs>
       <path id="m366ff8d0d7" d="M 0 0 
L 0 3.5 
" style="stroke: #000000; stroke-width: 0.8"/>
      </defs>
      <g>
       <use xlink:href="#m366ff8d0d7" x="53.571136" y="174.04" style="stroke: #000000; stroke-width: 0.8"/>
      </g>
     </g>
     <g id="text_1">
      <!-- 0.0 -->
      <g transform="translate(45.619574 188.638438)scale(0.1 -0.1)">
       <defs>
        <path id="DejaVuSans-30" d="M 2034 4250 
Q 1547 4250 1301 3770 
Q 1056 3291 1056 2328 
Q 1056 1369 1301 889 
Q 1547 409 2034 409 
Q 2525 409 2770 889 
Q 3016 1369 3016 2328 
Q 3016 3291 2770 3770 
Q 2525 4250 2034 4250 
z
M 2034 4750 
Q 2819 4750 3233 4129 
Q 3647 3509 3647 2328 
Q 3647 1150 3233 529 
Q 2819 -91 2034 -91 
Q 1250 -91 836 529 
Q 422 1150 422 2328 
Q 422 3509 836 4129 
Q 1250 4750 2034 4750 
z
" transform="scale(0.015625)"/>
        <path id="DejaVuSans-2e" d="M 684 794 
L 1344 794 
L 1344 0 
L 684 0 
L 684 794 
z
" transform="scale(0.015625)"/>
       </defs>
       <use xlink:href="#DejaVuSans-30"/>
       <use xlink:href="#DejaVuSans-2e" x="63.623047"/>
       <use xlink:href="#DejaVuSans-30" x="95.410156"/>
      </g>
     </g>
    </g>
    <g id="xtick_2">
     <g id="line2d_2">
      <g>
       <use xlink:href="#m366ff8d0d7" x="111.530771" y="174.04" style="stroke: #000000; stroke-width: 0.8"/>
      </g>
     </g>
     <g id="text_2">
      <!-- 0.5 -->
      <g transform="translate(103.579208 188.638438)scale(0.1 -0.1)">
       <defs>
        <path id="DejaVuSans-35" d="M 691 4666 
L 3169 4666 
L 3169 4134 
L 1269 4134 
L 1269 2991 
Q 1406 3038 1543 3061 
Q 1681 3084 1819 3084 
Q 2600 3084 3056 2656 
Q 3513 2228 3513 1497 
Q 3513 744 3044 326 
Q 2575 -91 1722 -91 
Q 1428 -91 1123 -41 
Q 819 9 494 109 
L 494 744 
Q 775 591 1075 516 
Q 1375 441 1709 441 
Q 2250 441 2565 725 
Q 2881 1009 2881 1497 
Q 2881 1984 2565 2268 
Q 2250 2553 1709 2553 
Q 1456 2553 1204 2497 
Q 953 2441 691 2322 
L 691 4666 
z
" transform="scale(0.015625)"/>
       </defs>
       <use xlink:href="#DejaVuSans-30"/>
       <use xlink:href="#DejaVuSans-2e" x="63.623047"/>
       <use xlink:href="#DejaVuSans-35" x="95.410156"/>
      </g>
     </g>
    </g>
    <g id="xtick_3">
     <g id="line2d_3">
      <g>
       <use xlink:href="#m366ff8d0d7" x="169.490405" y="174.04" style="stroke: #000000; stroke-width: 0.8"/>
      </g>
     </g>
     <g id="text_3">
      <!-- 1.0 -->
      <g transform="translate(161.538843 188.638438)scale(0.1 -0.1)">
       <defs>
        <path id="DejaVuSans-31" d="M 794 531 
L 1825 531 
L 1825 4091 
L 703 3866 
L 703 4441 
L 1819 4666 
L 2450 4666 
L 2450 531 
L 3481 531 
L 3481 0 
L 794 0 
L 794 531 
z
" transform="scale(0.015625)"/>
       </defs>
       <use xlink:href="#DejaVuSans-31"/>
       <use xlink:href="#DejaVuSans-2e" x="63.623047"/>
       <use xlink:href="#DejaVuSans-30" x="95.410156"/>
      </g>
     </g>
    </g>
    <g id="text_4">
     <!-- Time -->
     <g transform="translate(110.648906 202.316563)scale(0.1 -0.1)">
      <defs>
       <path id="DejaVuSans-54" d="M -19 4666 
L 3928 4666 
L 3928 4134 
L 2272 4134 
L 2272 0 
L 1638 0 
L 1638 4134 
L -19 4134 
L -19 4666 
z
" transform="scale(0.015625)"/>
       <path id="DejaVuSans-69" d="M 603 3500 
L 1178 3500 
L 1178 0 
L 603 0 
L 603 3500 
z
M 603 4863 
L 1178 4863 
L 1178 4134 
L 603 4134 
L 603 4863 
z
" transform="scale(0.015625)"/>
       <path id="DejaVuSans-6d" d="M 3328 2828 
Q 3544 3216 3844 3400 
Q 4144 3584 4550 3584 
Q 5097 3584 5394 3201 
Q 5691 2819 5691 2113 
L 5691 0 
L 5113 0 
L 5113 2094 
Q 5113 2597 4934 2840 
Q 4756 3084 4391 3084 
Q 3944 3084 3684 2787 
Q 3425 2491 3425 1978 
L 3425 0 
L 2847 0 
L 2847 2094 
Q 2847 2600 2669 2842 
Q 2491 3084 2119 3084 
Q 1678 3084 1418 2786 
Q 1159 2488 1159 1978 
L 1159 0 
L 581 0 
L 581 3500 
L 1159 3500 
L 1159 2956 
Q 1356 3278 1631 3431 
Q 1906 3584 2284 3584 
Q 2666 3584 2933 3390 
Q 3200 3197 3328 2828 
z
" transform="scale(0.015625)"/>
       <path id="DejaVuSans-65" d="M 3597 1894 
L 3597 1613 
L 953 1613 
Q 991 1019 1311 708 
Q 1631 397 2203 397 
Q 2534 397 2845 478 
Q 3156 559 3463 722 
L 3463 178 
Q 3153 47 2828 -22 
Q 2503 -91 2169 -91 
Q 1331 -91 842 396 
Q 353 884 353 1716 
Q 353 2575 817 3079 
Q 1281 3584 2069 3584 
Q 2775 3584 3186 3129 
Q 3597 2675 3597 1894 
z
M 3022 2063 
Q 3016 2534 2758 2815 
Q 2500 3097 2075 3097 
Q 1594 3097 1305 2825 
Q 1016 2553 972 2059 
L 3022 2063 
z
" transform="scale(0.015625)"/>
      </defs>
      <use xlink:href="#DejaVuSans-54"/>
      <use xlink:href="#DejaVuSans-69" x="57.958984"/>
      <use xlink:href="#DejaVuSans-6d" x="85.742188"/>
      <use xlink:href="#DejaVuSans-65" x="183.154297"/>
     </g>
    </g>
   </g>
   <g id="matplotlib.axis_2">
    <g id="ytick_1">
     <g id="line2d_4">
      <defs>
       <path id="m039057d264" d="M 0 0 
L -3.5 0 
" style="stroke: #000000; stroke-width: 0.8"/>
      </defs>
      <g>
       <use xlink:href="#m039057d264" x="46.64" y="149.940889" style="stroke: #000000; stroke-width: 0.8"/>
      </g>
     </g>
     <g id="text_5">
      <!-- −2 -->
      <g transform="translate(24.897813 153.740108)scale(0.1 -0.1)">
       <defs>
        <path id="DejaVuSans-2212" d="M 678 2272 
L 4684 2272 
L 4684 1741 
L 678 1741 
L 678 2272 
z
" transform="scale(0.015625)"/>
        <path id="DejaVuSans-32" d="M 1228 531 
L 3431 531 
L 3431 0 
L 469 0 
L 469 531 
Q 828 903 1448 1529 
Q 2069 2156 2228 2338 
Q 2531 2678 2651 2914 
Q 2772 3150 2772 3378 
Q 2772 3750 2511 3984 
Q 2250 4219 1831 4219 
Q 1534 4219 1204 4116 
Q 875 4013 500 3803 
L 500 4441 
Q 881 4594 1212 4672 
Q 1544 4750 1819 4750 
Q 2544 4750 2975 4387 
Q 3406 4025 3406 3419 
Q 3406 3131 3298 2873 
Q 3191 2616 2906 2266 
Q 2828 2175 2409 1742 
Q 1991 1309 1228 531 
z
" transform="scale(0.015625)"/>
       </defs>
       <use xlink:href="#DejaVuSans-2212"/>
       <use xlink:href="#DejaVuSans-32" x="83.789062"/>
      </g>
     </g>
    </g>
    <g id="ytick_2">
     <g id="line2d_5">
      <g>
       <use xlink:href="#m039057d264" x="46.64" y="122.893285" style="stroke: #000000; stroke-width: 0.8"/>
      </g>
     </g>
     <g id="text_6">
      <!-- −1 -->
      <g transform="translate(24.897813 126.692504)scale(0.1 -0.1)">
       <use xlink:href="#DejaVuSans-2212"/>
       <use xlink:href="#DejaVuSans-31" x="83.789062"/>
      </g>
     </g>
    </g>
    <g id="ytick_3">
     <g id="line2d_6">
      <g>
       <use xlink:href="#m039057d264" x="46.64" y="95.845682" style="stroke: #000000; stroke-width: 0.8"/>
      </g>
     </g>
     <g id="text_7">
      <!-- 0 -->
      <g transform="translate(33.2775 99.6449)scale(0.1 -0.1)">
       <use xlink:href="#DejaVuSans-30"/>
      </g>
     </g>
    </g>
    <g id="ytick_4">
     <g id="line2d_7">
      <g>
       <use xlink:href="#m039057d264" x="46.64" y="68.798078" style="stroke: #000000; stroke-width: 0.8"/>
      </g>
     </g>
     <g id="text_8">
      <!-- 1 -->
      <g transform="translate(33.2775 72.597297)scale(0.1 -0.1)">
       <use xlink:href="#DejaVuSans-31"/>
      </g>
     </g>
    </g>
    <g id="ytick_5">
     <g id="line2d_8">
      <g>
       <use xlink:href="#m039057d264" x="46.64" y="41.750474" style="stroke: #000000; stroke-width: 0.8"/>
      </g>
     </g>
     <g id="text_9">
      <!-- 2 -->
      <g transform="translate(33.2775 45.549693)scale(0.1 -0.1)">
       <use xlink:href="#DejaVuSans-32"/>
      </g>
     </g>
    </g>
    <g id="ytick_6">
     <g id="line2d_9">
      <g>
       <use xlink:href="#m039057d264" x="46.64" y="14.702871" style="stroke: #000000; stroke-width: 0.8"/>
      </g>
     </g>
     <g id="text_10">
      <!-- 3 -->
      <g transform="translate(33.2775 18.502089)scale(0.1 -0.1)">
       <defs>
        <path id="DejaVuSans-33" d="M 2597 2516 
Q 3050 2419 3304 2112 
Q 3559 1806 3559 1356 
Q 3559 666 3084 287 
Q 2609 -91 1734 -91 
Q 1441 -91 1130 -33 
Q 819 25 488 141 
L 488 750 
Q 750 597 1062 519 
Q 1375 441 1716 441 
Q 2309 441 2620 675 
Q 2931 909 2931 1356 
Q 2931 1769 2642 2001 
Q 2353 2234 1838 2234 
L 1294 2234 
L 1294 2753 
L 1863 2753 
Q 2328 2753 2575 2939 
Q 2822 3125 2822 3475 
Q 2822 3834 2567 4026 
Q 2313 4219 1838 4219 
Q 1578 4219 1281 4162 
Q 984 4106 628 3988 
L 628 4550 
Q 988 4650 1302 4700 
Q 1616 4750 1894 4750 
Q 2613 4750 3031 4423 
Q 3450 4097 3450 3541 
Q 3450 3153 3228 2886 
Q 3006 2619 2597 2516 
z
" transform="scale(0.015625)"/>
       </defs>
       <use xlink:href="#DejaVuSans-33"/>
      </g>
     </g>
    </g>
    <g id="text_11">
     <!-- Position -->
     <g transform="translate(18.818125 112.953865)rotate(-90)scale(0.1 -0.1)">
      <defs>
       <path id="DejaVuSans-50" d="M 1259 4147 
L 1259 2394 
L 2053 2394 
Q 2494 2394 2734 2622 
Q 2975 2850 2975 3272 
Q 2975 3691 2734 3919 
Q 2494 4147 2053 4147 
L 1259 4147 
z
M 628 4666 
L 2053 4666 
Q 2838 4666 3239 4311 
Q 3641 3956 3641 3272 
Q 3641 2581 3239 2228 
Q 2838 1875 2053 1875 
L 1259 1875 
L 1259 0 
L 628 0 
L 628 4666 
z
" transform="scale(0.015625)"/>
       <path id="DejaVuSans-6f" d="M 1959 3097 
Q 1497 3097 1228 2736 
Q 959 2375 959 1747 
Q 959 1119 1226 758 
Q 1494 397 1959 397 
Q 2419 397 2687 759 
Q 2956 1122 2956 1747 
Q 2956 2369 2687 2733 
Q 2419 3097 1959 3097 
z
M 1959 3584 
Q 2709 3584 3137 3096 
Q 3566 2609 3566 1747 
Q 3566 888 3137 398 
Q 2709 -91 1959 -91 
Q 1206 -91 779 398 
Q 353 888 353 1747 
Q 353 2609 779 3096 
Q 1206 3584 1959 3584 
z
" transform="scale(0.015625)"/>
       <path id="DejaVuSans-73" d="M 2834 3397 
L 2834 2853 
Q 2591 2978 2328 3040 
Q 2066 3103 1784 3103 
Q 1356 3103 1142 2972 
Q 928 2841 928 2578 
Q 928 2378 1081 2264 
Q 1234 2150 1697 2047 
L 1894 2003 
Q 2506 1872 2764 1633 
Q 3022 1394 3022 966 
Q 3022 478 2636 193 
Q 2250 -91 1575 -91 
Q 1294 -91 989 -36 
Q 684 19 347 128 
L 347 722 
Q 666 556 975 473 
Q 1284 391 1588 391 
Q 1994 391 2212 530 
Q 2431 669 2431 922 
Q 2431 1156 2273 1281 
Q 2116 1406 1581 1522 
L 1381 1569 
Q 847 1681 609 1914 
Q 372 2147 372 2553 
Q 372 3047 722 3315 
Q 1072 3584 1716 3584 
Q 2034 3584 2315 3537 
Q 2597 3491 2834 3397 
z
" transform="scale(0.015625)"/>
       <path id="DejaVuSans-74" d="M 1172 4494 
L 1172 3500 
L 2356 3500 
L 2356 3053 
L 1172 3053 
L 1172 1153 
Q 1172 725 1289 603 
Q 1406 481 1766 481 
L 2356 481 
L 2356 0 
L 1766 0 
Q 1100 0 847 248 
Q 594 497 594 1153 
L 594 3053 
L 172 3053 
L 172 3500 
L 594 3500 
L 594 4494 
L 1172 4494 
z
" transform="scale(0.015625)"/>
       <path id="DejaVuSans-6e" d="M 3513 2113 
L 3513 0 
L 2938 0 
L 2938 2094 
Q 2938 2591 2744 2837 
Q 2550 3084 2163 3084 
Q 1697 3084 1428 2787 
Q 1159 2491 1159 1978 
L 1159 0 
L 581 0 
L 581 3500 
L 1159 3500 
L 1159 2956 
Q 1366 3272 1645 3428 
Q 1925 3584 2291 3584 
Q 2894 3584 3203 3211 
Q 3513 2838 3513 2113 
z
" transform="scale(0.015625)"/>
      </defs>
      <use xlink:href="#DejaVuSans-50"/>
      <use xlink:href="#DejaVuSans-6f" x="56.677734"/>
      <use xlink:href="#DejaVuSans-73" x="117.859375"/>
      <use xlink:href="#DejaVuSans-69" x="169.958984"/>
      <use xlink:href="#DejaVuSans-74" x="197.742188"/>
      <use xlink:href="#DejaVuSans-69" x="236.951172"/>
      <use xlink:href="#DejaVuSans-6f" x="264.734375"/>
      <use xlink:href="#DejaVuSans-6e" x="325.916016"/>
     </g>
    </g>
   </g>
   <g id="line2d_10">
    <path d="M 53.571136 92.387855 
L 57.317697 92.501601 
L 62.590633 92.635973 
L 70.638799 92.756323 
L 76.189259 93.102047 
L 80.074581 93.561472 
L 101.166327 96.510682 
L 112.267246 97.587828 
L 118.095229 98.753201 
L 124.617019 100.418232 
L 127.808533 101.197546 
L 131.27757 101.665541 
L 136.411745 102.18642 
L 149.455325 103.172988 
L 156.3934 103.48502 
L 166.106704 103.635342 
L 191.361295 103.656467 
L 192.193864 103.655795 
L 192.193864 103.655795 
" clip-path="url(#p5d3819abb7)" style="fill: none; stroke: #1f77b4; stroke-width: 1.5; stroke-linecap: square"/>
   </g>
   <g id="line2d_11">
    <path d="M 53.571136 89.444748 
L 55.375036 89.555388 
L 57.59522 89.922508 
L 62.451872 91.034947 
L 73.136506 93.419159 
L 82.017242 94.917702 
L 91.453023 97.008121 
L 95.89339 97.717425 
L 107.271833 100.091442 
L 112.544769 100.777585 
L 116.568852 101.056121 
L 120.870458 101.060376 
L 123.229404 100.907684 
L 125.588349 100.555433 
L 131.138809 99.270046 
L 188.863588 85.914964 
L 191.222533 85.476009 
L 192.193864 85.420924 
L 192.193864 85.420924 
" clip-path="url(#p5d3819abb7)" style="fill: none; stroke: #ff7f0e; stroke-width: 1.5; stroke-linecap: square"/>
   </g>
   <g id="line2d_12">
    <path d="M 53.571136 88.885523 
L 72.997745 89.000015 
L 88.122747 89.276025 
L 94.228253 89.933605 
L 99.501189 90.938607 
L 102.831465 91.801439 
L 110.74087 94.37095 
L 125.865872 99.545393 
L 127.947294 100.028579 
L 130.722524 100.390049 
L 137.660599 101.028813 
L 146.957618 101.648365 
L 152.508078 101.735978 
L 171.37964 101.703177 
L 174.15487 101.501739 
L 179.150284 101.060625 
L 183.035605 101.013841 
L 192.193864 101.000087 
L 192.193864 101.000087 
" clip-path="url(#p5d3819abb7)" style="fill: none; stroke: #2ca02c; stroke-width: 1.5; stroke-linecap: square"/>
   </g>
   <g id="line2d_13">
    <path d="M 53.571136 164.994908 
L 60.092926 165.104852 
L 66.753478 165.568655 
L 72.442699 165.817494 
L 79.242012 165.859895 
L 83.821141 165.970513 
L 89.232839 166.37008 
L 92.14683 166.507726 
L 100.47252 166.63572 
L 105.467933 166.711522 
L 114.209907 166.529424 
L 116.846375 166.163441 
L 128.918625 164.16212 
L 135.162892 163.29143 
L 141.407159 162.493868 
L 144.876196 162.300023 
L 150.010371 162.274768 
L 157.225968 162.202787 
L 164.719089 161.854643 
L 175.958769 160.928813 
L 183.590651 160.205337 
L 189.141111 159.877995 
L 192.055102 159.537435 
L 192.193864 159.536268 
L 192.193864 159.536268 
" clip-path="url(#p5d3819abb7)" style="fill: none; stroke: #d62728; stroke-width: 1.5; stroke-linecap: square"/>
   </g>
   <g id="line2d_14">
    <path d="M 53.571136 100.033169 
L 95.754629 99.923274 
L 101.44385 99.696285 
L 102.831465 99.448788 
L 104.496603 98.905969 
L 106.855548 98.108428 
L 108.381924 97.890067 
L 110.463347 97.855031 
L 118.095229 97.868437 
L 161.11129 97.780517 
L 164.996612 97.526024 
L 168.049365 97.104192 
L 171.518402 96.381837 
L 175.542485 95.579768 
L 180.815422 94.648261 
L 184.978266 93.485293 
L 187.19845 93.248071 
L 192.193864 92.924992 
L 192.193864 92.924992 
" clip-path="url(#p5d3819abb7)" style="fill: none; stroke: #9467bd; stroke-width: 1.5; stroke-linecap: square"/>
   </g>
   <g id="line2d_15">
    <path d="M 53.571136 20.262351 
L 62.868156 20.375318 
L 67.724808 20.592369 
L 71.887653 20.978273 
L 74.107837 21.423094 
L 80.490865 22.904587 
L 82.572288 23.041448 
L 89.3716 23.227025 
L 91.1755 23.581616 
L 93.395684 24.286742 
L 96.032152 25.096438 
L 98.391097 25.473222 
L 101.860134 26.07821 
L 105.19041 26.740966 
L 110.047062 27.358314 
L 112.406008 27.886589 
L 122.813119 30.569845 
L 124.061973 30.66238 
L 136.550507 30.457601 
L 139.880782 30.171675 
L 142.239728 29.754869 
L 144.737434 29.070192 
L 154.5895 26.120813 
L 163.331474 24.093358 
L 166.106704 23.701173 
L 168.743172 23.572614 
L 176.513815 23.564704 
L 179.70533 23.540533 
L 181.231706 23.281896 
L 184.006936 22.525581 
L 186.920927 21.837498 
L 189.557395 21.43617 
L 191.916341 21.289129 
L 192.193864 21.287363 
L 192.193864 21.287363 
" clip-path="url(#p5d3819abb7)" style="fill: none; stroke: #8c564b; stroke-width: 1.5; stroke-linecap: square"/>
   </g>
   <g id="line2d_16">
    <path d="M 53.571136 60.550722 
L 61.896826 60.661952 
L 66.05967 60.884104 
L 73.136506 61.355575 
L 76.744305 61.65285 
L 78.964489 62.049482 
L 81.739719 62.820388 
L 85.069994 63.701362 
L 88.677793 64.327055 
L 94.644537 65.544393 
L 101.44385 68.377603 
L 102.970226 69.206693 
L 105.467933 70.875981 
L 108.93697 73.173838 
L 118.789036 78.704735 
L 126.282156 83.57134 
L 127.392248 84.068193 
L 128.779863 84.431182 
L 135.717938 85.89786 
L 140.019544 86.802777 
L 142.656012 87.127423 
L 145.847526 87.264863 
L 153.895693 87.314847 
L 173.461063 87.413277 
L 175.820008 87.719364 
L 177.90143 88.201781 
L 179.844091 88.869963 
L 184.42322 90.629799 
L 185.810835 90.783274 
L 188.031019 90.758072 
L 191.777579 90.740535 
L 192.193864 90.741597 
L 192.193864 90.741597 
" clip-path="url(#p5d3819abb7)" style="fill: none; stroke: #e377c2; stroke-width: 1.5; stroke-linecap: square"/>
   </g>
   <g id="patch_3">
    <path d="M 46.64 174.04 
L 46.64 12.939605 
" style="fill: none; stroke: #000000; stroke-width: 0.8; stroke-linejoin: miter; stroke-linecap: square"/>
   </g>
   <g id="patch_4">
    <path d="M 199.125 174.04 
L 199.125 12.939605 
" style="fill: none; stroke: #000000; stroke-width: 0.8; stroke-linejoin: miter; stroke-linecap: square"/>
   </g>
   <g id="patch_5">
    <path d="M 46.64 174.04 
L 199.125 174.04 
" style="fill: none; stroke: #000000; stroke-width: 0.8; stroke-linejoin: miter; stroke-linecap: square"/>
   </g>
   <g id="patch_6">
    <path d="M 46.64 12.939605 
L 199.125 12.939605 
" style="fill: none; stroke: #000000; stroke-width: 0.8; stroke-linejoin: miter; stroke-linecap: square"/>
   </g>
  </g>
  <g id="axes_2">
   <g id="patch_7">
    <path d="M 264.665 174.04 
L 417.15 174.04 
L 417.15 12.939605 
L 264.665 12.939605 
z
" style="fill: #ffffff"/>
   </g>
   <g id="matplotlib.axis_3">
    <g id="xtick_4">
     <g id="line2d_17">
      <g>
       <use xlink:href="#m366ff8d0d7" x="271.596136" y="174.04" style="stroke: #000000; stroke-width: 0.8"/>
      </g>
     </g>
     <g id="text_12">
      <!-- 0.0 -->
      <g transform="translate(263.644574 188.638438)scale(0.1 -0.1)">
       <use xlink:href="#DejaVuSans-30"/>
       <use xlink:href="#DejaVuSans-2e" x="63.623047"/>
       <use xlink:href="#DejaVuSans-30" x="95.410156"/>
      </g>
     </g>
    </g>
    <g id="xtick_5">
     <g id="line2d_18">
      <g>
       <use xlink:href="#m366ff8d0d7" x="329.555771" y="174.04" style="stroke: #000000; stroke-width: 0.8"/>
      </g>
     </g>
     <g id="text_13">
      <!-- 0.5 -->
      <g transform="translate(321.604208 188.638438)scale(0.1 -0.1)">
       <use xlink:href="#DejaVuSans-30"/>
       <use xlink:href="#DejaVuSans-2e" x="63.623047"/>
       <use xlink:href="#DejaVuSans-35" x="95.410156"/>
      </g>
     </g>
    </g>
    <g id="xtick_6">
     <g id="line2d_19">
      <g>
       <use xlink:href="#m366ff8d0d7" x="387.515405" y="174.04" style="stroke: #000000; stroke-width: 0.8"/>
      </g>
     </g>
     <g id="text_14">
      <!-- 1.0 -->
      <g transform="translate(379.563843 188.638438)scale(0.1 -0.1)">
       <use xlink:href="#DejaVuSans-31"/>
       <use xlink:href="#DejaVuSans-2e" x="63.623047"/>
       <use xlink:href="#DejaVuSans-30" x="95.410156"/>
      </g>
     </g>
    </g>
    <g id="text_15">
     <!-- Time -->
     <g transform="translate(328.673906 202.316563)scale(0.1 -0.1)">
      <use xlink:href="#DejaVuSans-54"/>
      <use xlink:href="#DejaVuSans-69" x="57.958984"/>
      <use xlink:href="#DejaVuSans-6d" x="85.742188"/>
      <use xlink:href="#DejaVuSans-65" x="183.154297"/>
     </g>
    </g>
   </g>
   <g id="matplotlib.axis_4">
    <g id="ytick_7">
     <g id="line2d_20">
      <g>
       <use xlink:href="#m039057d264" x="264.665" y="166.717596" style="stroke: #000000; stroke-width: 0.8"/>
      </g>
     </g>
     <g id="text_16">
      <!-- −3 -->
      <g transform="translate(242.922812 170.516815)scale(0.1 -0.1)">
       <use xlink:href="#DejaVuSans-2212"/>
       <use xlink:href="#DejaVuSans-33" x="83.789062"/>
      </g>
     </g>
    </g>
    <g id="ytick_8">
     <g id="line2d_21">
      <g>
       <use xlink:href="#m039057d264" x="264.665" y="135.346589" style="stroke: #000000; stroke-width: 0.8"/>
      </g>
     </g>
     <g id="text_17">
      <!-- −2 -->
      <g transform="translate(242.922812 139.145808)scale(0.1 -0.1)">
       <use xlink:href="#DejaVuSans-2212"/>
       <use xlink:href="#DejaVuSans-32" x="83.789062"/>
      </g>
     </g>
    </g>
    <g id="ytick_9">
     <g id="line2d_22">
      <g>
       <use xlink:href="#m039057d264" x="264.665" y="103.975582" style="stroke: #000000; stroke-width: 0.8"/>
      </g>
     </g>
     <g id="text_18">
      <!-- −1 -->
      <g transform="translate(242.922812 107.7748)scale(0.1 -0.1)">
       <use xlink:href="#DejaVuSans-2212"/>
       <use xlink:href="#DejaVuSans-31" x="83.789062"/>
      </g>
     </g>
    </g>
    <g id="ytick_10">
     <g id="line2d_23">
      <g>
       <use xlink:href="#m039057d264" x="264.665" y="72.604574" style="stroke: #000000; stroke-width: 0.8"/>
      </g>
     </g>
     <g id="text_19">
      <!-- 0 -->
      <g transform="translate(251.3025 76.403793)scale(0.1 -0.1)">
       <use xlink:href="#DejaVuSans-30"/>
      </g>
     </g>
    </g>
    <g id="ytick_11">
     <g id="line2d_24">
      <g>
       <use xlink:href="#m039057d264" x="264.665" y="41.233567" style="stroke: #000000; stroke-width: 0.8"/>
      </g>
     </g>
     <g id="text_20">
      <!-- 1 -->
      <g transform="translate(251.3025 45.032786)scale(0.1 -0.1)">
       <use xlink:href="#DejaVuSans-31"/>
      </g>
     </g>
    </g>
    <g id="text_21">
     <!-- Velocity -->
     <g transform="translate(236.843125 113.105428)rotate(-90)scale(0.1 -0.1)">
      <defs>
       <path id="DejaVuSans-56" d="M 1831 0 
L 50 4666 
L 709 4666 
L 2188 738 
L 3669 4666 
L 4325 4666 
L 2547 0 
L 1831 0 
z
" transform="scale(0.015625)"/>
       <path id="DejaVuSans-6c" d="M 603 4863 
L 1178 4863 
L 1178 0 
L 603 0 
L 603 4863 
z
" transform="scale(0.015625)"/>
       <path id="DejaVuSans-63" d="M 3122 3366 
L 3122 2828 
Q 2878 2963 2633 3030 
Q 2388 3097 2138 3097 
Q 1578 3097 1268 2742 
Q 959 2388 959 1747 
Q 959 1106 1268 751 
Q 1578 397 2138 397 
Q 2388 397 2633 464 
Q 2878 531 3122 666 
L 3122 134 
Q 2881 22 2623 -34 
Q 2366 -91 2075 -91 
Q 1284 -91 818 406 
Q 353 903 353 1747 
Q 353 2603 823 3093 
Q 1294 3584 2113 3584 
Q 2378 3584 2631 3529 
Q 2884 3475 3122 3366 
z
" transform="scale(0.015625)"/>
       <path id="DejaVuSans-79" d="M 2059 -325 
Q 1816 -950 1584 -1140 
Q 1353 -1331 966 -1331 
L 506 -1331 
L 506 -850 
L 844 -850 
Q 1081 -850 1212 -737 
Q 1344 -625 1503 -206 
L 1606 56 
L 191 3500 
L 800 3500 
L 1894 763 
L 2988 3500 
L 3597 3500 
L 2059 -325 
z
" transform="scale(0.015625)"/>
      </defs>
      <use xlink:href="#DejaVuSans-56"/>
      <use xlink:href="#DejaVuSans-65" x="60.658203"/>
      <use xlink:href="#DejaVuSans-6c" x="122.181641"/>
      <use xlink:href="#DejaVuSans-6f" x="149.964844"/>
      <use xlink:href="#DejaVuSans-63" x="211.146484"/>
      <use xlink:href="#DejaVuSans-69" x="266.126953"/>
      <use xlink:href="#DejaVuSans-74" x="293.910156"/>
      <use xlink:href="#DejaVuSans-79" x="333.119141"/>
     </g>
    </g>
   </g>
   <g id="line2d_25">
    <path d="M 271.596136 72.604574 
L 272.567467 75.347349 
L 273.400036 77.063916 
L 274.093843 78.047068 
L 274.648889 78.540796 
L 275.203935 78.774266 
L 275.758981 78.747475 
L 276.314027 78.460425 
L 276.869073 77.913115 
L 277.56288 76.862988 
L 278.950495 74.458678 
L 279.783064 73.476775 
L 280.615633 72.856633 
L 281.309441 72.616195 
L 282.003248 72.626981 
L 282.697055 72.888616 
L 284.08467 73.772852 
L 285.472285 74.922121 
L 286.998662 76.491654 
L 288.941322 78.501654 
L 291.022745 80.32566 
L 292.132837 81.485562 
L 293.242929 82.978917 
L 294.491782 85.057519 
L 295.740635 87.558147 
L 297.683296 91.652715 
L 298.238342 92.148799 
L 298.654627 92.249359 
L 299.070911 92.117202 
L 299.487196 91.752329 
L 300.736049 90.363946 
L 301.291095 90.098473 
L 301.846141 90.063444 
L 302.401187 90.258857 
L 302.956233 90.684713 
L 305.176417 92.809124 
L 306.42527 93.729576 
L 306.841555 93.840798 
L 307.257839 93.749792 
L 307.674123 93.456558 
L 308.229169 92.751004 
L 308.922977 91.37213 
L 309.478023 90.453658 
L 309.894307 90.144084 
L 310.310592 90.159608 
L 310.726876 90.500229 
L 311.143161 91.165948 
L 311.698207 92.558847 
L 312.392014 94.313029 
L 312.94706 95.26664 
L 313.502106 95.820485 
L 313.91839 95.942995 
L 314.195913 95.808987 
L 314.612198 95.268143 
L 315.028482 94.319501 
L 315.583528 92.420292 
L 316.832382 87.505392 
L 317.526189 85.633379 
L 318.081235 84.665343 
L 318.49752 84.298514 
L 318.913804 84.239576 
L 319.330088 84.488529 
L 319.746373 85.045374 
L 320.44018 86.165702 
L 320.717703 86.316713 
L 320.995226 86.275621 
L 321.272749 86.042427 
L 321.689034 85.332443 
L 322.24408 83.76194 
L 323.076649 81.626141 
L 323.770456 80.423883 
L 324.325502 79.840189 
L 324.741787 79.719896 
L 325.01931 79.847069 
L 325.435594 80.348882 
L 325.851878 81.223957 
L 326.406924 82.971356 
L 327.378255 87.189244 
L 328.76587 92.699778 
L 329.7372 95.802585 
L 330.292246 96.841357 
L 330.708531 97.227074 
L 331.124815 97.275623 
L 331.5411 96.996896 
L 331.957384 96.815073 
L 332.373668 96.955551 
L 332.789953 97.418331 
L 333.206237 98.203412 
L 333.900045 100.124265 
L 334.871375 102.515049 
L 335.703944 103.999276 
L 336.952798 105.64892 
L 337.924128 106.637693 
L 338.479174 106.913515 
L 339.03422 106.9061 
L 339.589266 106.61583 
L 340.00555 106.444176 
L 340.421835 106.541516 
L 340.838119 106.907849 
L 341.393165 107.814728 
L 342.364496 109.660351 
L 342.919542 110.392098 
L 343.197065 110.470833 
L 343.474588 110.147295 
L 343.752111 109.421484 
L 344.168395 107.578508 
L 344.723441 103.713253 
L 345.55601 97.201456 
L 346.249817 93.313547 
L 346.804863 91.225202 
L 347.221148 90.255099 
L 347.637432 89.795988 
L 349.163809 89.251927 
L 349.996378 88.562808 
L 350.828946 87.583906 
L 353.04913 84.653712 
L 353.881699 84.105682 
L 354.575507 83.910355 
L 355.269314 83.952632 
L 357.073213 84.329321 
L 358.044544 84.193679 
L 359.015874 83.807169 
L 360.125966 83.087344 
L 361.37482 82.3848 
L 362.623673 81.936359 
L 363.872526 81.742022 
L 365.260141 81.577028 
L 366.647756 81.178082 
L 368.035371 80.54448 
L 369.83927 79.434541 
L 373.169546 77.14891 
L 375.38973 75.66765 
L 376.777345 75.060629 
L 378.026198 74.740288 
L 379.275052 74.633935 
L 380.662667 74.522391 
L 382.050281 74.204896 
L 383.576658 73.617779 
L 385.796842 72.687098 
L 387.045695 72.44518 
L 390.237209 72.02745 
L 392.318632 71.596554 
L 393.567485 71.625895 
L 394.816338 71.892511 
L 395.92643 72.384522 
L 397.036522 73.139246 
L 399.256706 74.816874 
L 399.950513 74.949903 
L 400.644321 74.858403 
L 401.338128 74.542375 
L 402.170697 73.870209 
L 403.280789 72.971887 
L 404.390881 72.355939 
L 405.362212 72.04862 
L 406.333542 71.957494 
L 407.859918 72.108453 
L 409.802579 72.494539 
L 410.218864 72.604574 
L 410.218864 72.604574 
" clip-path="url(#pb99d138ad5)" style="fill: none; stroke: #1f77b4; stroke-width: 1.5; stroke-linecap: square"/>
   </g>
   <g id="line2d_26">
    <path d="M 271.596136 72.604574 
L 272.706228 82.837681 
L 273.81632 91.057223 
L 274.787651 96.59757 
L 275.62022 100.119422 
L 276.314027 102.189096 
L 276.869073 103.27852 
L 277.424119 103.864553 
L 277.840403 103.975582 
L 287.276185 103.900504 
L 287.692469 103.627897 
L 288.247515 102.954457 
L 288.802561 101.926772 
L 289.496368 100.144009 
L 290.328937 97.274063 
L 291.716552 92.083262 
L 292.41036 90.477652 
L 292.965406 89.712416 
L 293.38169 89.441386 
L 293.797975 89.429982 
L 294.214259 89.678204 
L 294.630543 90.186051 
L 295.185589 91.267044 
L 295.879397 93.26735 
L 296.573204 95.988839 
L 297.683296 100.609807 
L 298.377104 102.52046 
L 298.93215 103.480489 
L 299.348434 103.868891 
L 299.764719 103.975582 
L 306.42527 103.943022 
L 306.702793 103.717904 
L 307.119077 102.978814 
L 307.535362 101.758027 
L 308.090408 99.381005 
L 308.784215 95.205485 
L 309.339261 91.789765 
L 309.755546 90.140631 
L 310.17183 89.283273 
L 310.449353 89.151576 
L 310.726876 89.37178 
L 311.004399 89.943884 
L 311.420684 91.461853 
L 313.224583 99.860175 
L 313.91839 101.804756 
L 314.612198 103.116396 
L 315.167244 103.735714 
L 315.583528 103.949372 
L 316.277336 103.975582 
L 320.162657 103.923133 
L 320.44018 103.680773 
L 320.856465 102.947625 
L 321.411511 101.280157 
L 321.966557 98.824192 
L 322.660364 95.524527 
L 323.21541 93.777733 
L 323.631695 93.004057 
L 324.047979 92.69017 
L 324.325502 92.736151 
L 325.01931 92.93521 
L 325.574355 92.882962 
L 326.129401 92.642716 
L 326.823209 92.078056 
L 327.655778 91.047259 
L 328.488347 89.659574 
L 330.986054 85.02532 
L 332.234907 83.362275 
L 332.928714 81.719749 
L 333.761283 78.981165 
L 334.732614 75.904887 
L 335.703944 73.557544 
L 336.397752 72.451381 
L 336.952798 72.003005 
L 337.369082 71.92138 
L 338.062889 71.916854 
L 338.340412 71.529729 
L 338.756697 70.437173 
L 339.311743 68.02494 
L 340.838119 60.045328 
L 342.364496 53.747266 
L 343.058303 48.292249 
L 343.613349 44.519345 
L 344.168395 42.171608 
L 344.584679 41.34607 
L 344.862202 41.233567 
L 360.819774 41.331569 
L 361.929866 41.643485 
L 363.039957 42.169516 
L 365.676426 43.579131 
L 366.508995 43.664298 
L 367.341564 43.547983 
L 368.174133 43.230184 
L 371.504408 41.588404 
L 372.892023 41.294474 
L 374.279638 41.233567 
L 406.749826 41.303621 
L 407.027349 41.711851 
L 407.443634 43.007626 
L 407.859918 45.123513 
L 408.414964 49.220429 
L 409.108772 56.391856 
L 409.941341 68.004653 
L 410.218864 72.604574 
L 410.218864 72.604574 
" clip-path="url(#pb99d138ad5)" style="fill: none; stroke: #ff7f0e; stroke-width: 1.5; stroke-linecap: square"/>
   </g>
   <g id="line2d_27">
    <path d="M 271.596136 72.604574 
L 273.122513 73.169871 
L 274.648889 73.493908 
L 276.175265 73.576685 
L 277.701642 73.418201 
L 280.476872 72.996515 
L 283.11334 72.825746 
L 284.500955 72.960123 
L 285.88857 73.325765 
L 288.941322 74.322034 
L 290.051414 74.319717 
L 291.577791 74.032135 
L 294.075498 73.662138 
L 296.573204 73.510611 
L 299.070911 73.577828 
L 300.319765 73.758363 
L 301.152333 74.162932 
L 301.984902 74.832593 
L 302.956233 75.94891 
L 303.65004 77.042591 
L 304.343848 78.552992 
L 305.176417 80.922017 
L 306.147747 84.453235 
L 306.841555 86.851022 
L 307.257839 87.611366 
L 307.535362 87.828092 
L 307.812885 87.812683 
L 308.090408 87.565138 
L 308.506692 86.758566 
L 309.478023 84.238379 
L 309.755546 84.094504 
L 310.033069 84.258447 
L 310.310592 84.730211 
L 310.726876 86.015017 
L 311.281922 88.805461 
L 312.530776 96.292109 
L 312.94706 97.249453 
L 313.224583 97.392803 
L 313.502106 97.140249 
L 314.195913 95.905769 
L 314.473436 95.801262 
L 314.750959 95.948919 
L 315.028482 96.348741 
L 315.444767 97.421281 
L 316.971143 102.365129 
L 317.387428 102.902053 
L 317.942474 103.376058 
L 318.358758 104.113335 
L 318.913804 105.651107 
L 319.607611 108.464864 
L 320.856465 114.127749 
L 321.411511 115.439363 
L 321.827795 115.883618 
L 322.105318 115.923725 
L 323.21541 115.627897 
L 325.01931 114.98115 
L 325.435594 115.157381 
L 325.99064 115.685554 
L 326.545686 116.54881 
L 327.794539 118.751058 
L 328.488347 119.417513 
L 329.043393 119.645412 
L 330.153485 119.661086 
L 339.866789 119.577667 
L 340.283073 119.176255 
L 340.699358 118.442771 
L 341.254404 116.948237 
L 342.086973 114.453957 
L 342.503257 113.884311 
L 342.78078 113.779747 
L 343.058303 113.79135 
L 343.335826 113.456914 
L 343.613349 112.721248 
L 344.029633 110.865445 
L 344.584679 106.986738 
L 345.972294 95.664578 
L 346.666102 91.866804 
L 347.221148 89.769218 
L 347.776194 88.507752 
L 348.886286 87.032413 
L 349.857616 86.080238 
L 350.828946 85.444222 
L 351.800277 85.104318 
L 353.326653 84.527386 
L 354.85303 83.70977 
L 356.934452 82.513831 
L 357.905782 82.258055 
L 358.877113 82.221068 
L 360.958535 82.353371 
L 361.652343 82.013627 
L 362.34615 81.434898 
L 363.178719 80.424963 
L 364.150049 78.828504 
L 365.398903 76.876804 
L 366.508995 75.513997 
L 367.619087 74.501343 
L 368.590417 73.902504 
L 370.255555 73.255965 
L 371.920693 72.842455 
L 373.585831 72.660846 
L 380.246382 72.54675 
L 383.715419 72.648374 
L 385.103034 72.628368 
L 386.213126 72.337794 
L 387.323218 71.793647 
L 387.878264 71.371062 
L 388.43331 70.578821 
L 388.988356 69.386301 
L 389.682163 67.332759 
L 390.514732 64.042931 
L 391.624824 59.359775 
L 392.17987 57.948391 
L 392.596155 57.33502 
L 393.012439 57.103221 
L 393.289962 57.160673 
L 393.706246 57.564826 
L 394.122531 58.350552 
L 394.677577 59.95131 
L 396.481476 65.253733 
L 398.146614 69.534647 
L 398.979183 71.193321 
L 399.811752 72.36179 
L 400.505559 72.961051 
L 401.060605 73.195358 
L 401.615651 73.211794 
L 402.309459 72.949329 
L 403.697074 72.420887 
L 405.084689 72.115462 
L 406.472303 72.033054 
L 408.276203 72.189718 
L 410.080102 72.566486 
L 410.218864 72.604574 
L 410.218864 72.604574 
" clip-path="url(#pb99d138ad5)" style="fill: none; stroke: #2ca02c; stroke-width: 1.5; stroke-linecap: square"/>
   </g>
   <g id="line2d_28">
    <path d="M 271.596136 72.604574 
L 272.428705 72.666921 
L 273.261274 72.973949 
L 274.093843 73.525658 
L 275.065174 74.478569 
L 276.036504 75.764517 
L 277.146596 77.641974 
L 279.228018 81.389117 
L 280.060587 82.279245 
L 280.754395 82.721841 
L 281.448202 82.892458 
L 282.14201 82.791095 
L 282.835817 82.426014 
L 284.778478 81.041471 
L 286.721139 79.389064 
L 289.63513 76.549203 
L 292.132837 74.125308 
L 293.38169 73.304115 
L 294.491782 72.829081 
L 295.601874 72.593965 
L 296.711966 72.598769 
L 297.267012 72.74671 
L 297.822058 73.107625 
L 298.515865 73.860799 
L 299.209673 74.949564 
L 301.984902 79.916216 
L 302.956233 81.041062 
L 306.702793 84.583503 
L 306.980316 84.47057 
L 307.3966 83.925048 
L 307.812885 82.928179 
L 308.367931 80.896923 
L 310.17183 73.0911 
L 310.726876 72.047703 
L 311.143161 71.738745 
L 311.420684 71.758292 
L 311.836968 72.093372 
L 312.808299 72.850532 
L 313.640867 73.233164 
L 314.057152 73.436731 
L 314.612198 74.002724 
L 315.167244 74.906885 
L 315.861051 76.505245 
L 316.416097 77.6167 
L 316.832382 78.095262 
L 317.248666 78.269514 
L 317.664951 78.151956 
L 318.49752 77.638636 
L 319.46885 76.768717 
L 320.44018 75.609191 
L 321.550272 73.946785 
L 322.799126 71.994305 
L 323.354172 71.564466 
L 323.909218 71.455068 
L 324.464264 71.653104 
L 325.851878 72.225259 
L 327.100732 72.510377 
L 327.655778 72.351535 
L 328.210824 71.923335 
L 328.76587 71.225777 
L 329.459677 69.965962 
L 330.153485 68.154628 
L 330.986054 65.202747 
L 332.234907 59.583139 
L 334.177568 51.25434 
L 334.871375 49.242522 
L 335.426421 48.186633 
L 335.981467 47.590567 
L 336.536513 47.287598 
L 337.091559 47.253955 
L 337.646605 47.48964 
L 338.201651 47.743356 
L 338.756697 47.700025 
L 339.311743 47.358665 
L 340.00555 46.845148 
L 340.283073 46.937547 
L 340.560596 47.227397 
L 340.976881 48.032392 
L 341.531927 49.791809 
L 342.086973 51.394577 
L 342.503257 52.034388 
L 342.78078 52.193183 
L 343.335826 52.254706 
L 343.752111 52.532291 
L 344.307156 53.238547 
L 345.000964 54.614625 
L 345.694771 55.714811 
L 346.249817 56.177351 
L 346.666102 56.28065 
L 347.082386 56.175144 
L 347.498671 55.860833 
L 349.718855 53.566803 
L 350.551423 53.115499 
L 351.383992 52.899594 
L 352.494084 52.898676 
L 353.604176 53.120547 
L 354.714268 53.564174 
L 355.82436 54.240195 
L 356.518167 54.916133 
L 357.350736 56.070526 
L 358.183305 57.599392 
L 359.154636 59.856363 
L 362.207389 67.589916 
L 363.456242 69.873802 
L 364.566334 71.436773 
L 365.537664 72.420696 
L 366.370233 72.976701 
L 367.202802 73.267454 
L 368.035371 73.292954 
L 368.86794 73.05713 
L 370.255555 72.389067 
L 371.781931 71.397747 
L 373.308308 70.137763 
L 375.667253 68.097189 
L 377.054868 67.27479 
L 378.303721 66.790091 
L 380.246382 66.186219 
L 380.94019 65.611513 
L 381.772758 64.599218 
L 382.605327 63.234943 
L 383.576658 61.198427 
L 384.68675 58.730795 
L 385.103034 58.268476 
L 385.519319 58.113487 
L 385.935603 58.265827 
L 386.351888 58.725497 
L 386.906934 59.816456 
L 387.461979 61.453779 
L 388.155787 63.641168 
L 388.710833 64.794209 
L 389.127117 65.302909 
L 389.543402 65.506398 
L 389.959686 65.404675 
L 390.375971 64.99774 
L 390.931017 63.990004 
L 392.873678 60.127953 
L 394.538815 57.258155 
L 395.093861 56.573647 
L 395.648907 56.248439 
L 396.065192 56.240323 
L 396.481476 56.434313 
L 397.036522 57.007353 
L 397.591568 57.939693 
L 398.70166 60.498946 
L 402.170697 68.318068 
L 402.586982 68.951261 
L 403.003266 69.211126 
L 403.280789 69.176967 
L 403.697074 68.814622 
L 404.113358 68.078952 
L 404.668404 66.517328 
L 405.22345 64.292013 
L 405.917257 60.577054 
L 407.304872 52.357237 
L 407.582395 51.8613 
L 407.721157 51.80472 
L 407.859918 51.875732 
L 408.137441 52.400534 
L 408.414964 53.435705 
L 408.831249 55.945405 
L 409.386295 61.077964 
L 410.080102 70.364492 
L 410.218864 72.604574 
L 410.218864 72.604574 
" clip-path="url(#pb99d138ad5)" style="fill: none; stroke: #d62728; stroke-width: 1.5; stroke-linecap: square"/>
   </g>
   <g id="line2d_29">
    <path d="M 271.596136 72.604574 
L 275.203935 72.508902 
L 294.630543 72.507161 
L 297.544535 72.309679 
L 298.515865 71.959148 
L 299.487196 71.36995 
L 300.458526 70.758596 
L 301.152333 70.60761 
L 301.846141 70.706004 
L 302.539948 71.053779 
L 303.511279 71.882784 
L 304.343848 72.428588 
L 305.176417 72.712173 
L 306.008986 72.733539 
L 308.506692 72.445857 
L 309.755546 72.392314 
L 310.726876 72.066969 
L 311.698207 71.477966 
L 313.502106 70.015676 
L 314.612198 68.91169 
L 316.416097 66.931556 
L 316.69362 66.992351 
L 317.109905 67.394352 
L 317.942474 68.509033 
L 318.219997 68.012475 
L 318.49752 66.937356 
L 318.913804 64.239876 
L 319.46885 58.618271 
L 320.162657 48.547774 
L 321.272749 33.230925 
L 322.24408 22.770924 
L 322.660364 20.543377 
L 322.799126 20.282463 
L 322.937887 20.262351 
L 323.076649 20.483039 
L 323.354172 21.646819 
L 323.770456 25.198496 
L 324.186741 30.917382 
L 325.435594 50.922719 
L 326.406924 62.647001 
L 327.100732 68.867698 
L 327.655778 72.29366 
L 328.072062 73.921605 
L 328.488347 74.742528 
L 328.76587 74.841463 
L 329.043393 74.581723 
L 330.292246 72.378222 
L 330.708531 72.092922 
L 331.124815 72.050186 
L 331.5411 72.245395 
L 332.373668 72.650475 
L 333.206237 72.79455 
L 334.593852 72.670501 
L 336.25899 72.668367 
L 338.617935 72.918202 
L 340.699358 73.184075 
L 342.503257 73.741719 
L 343.197065 73.480906 
L 344.862202 72.873347 
L 345.972294 72.659546 
L 347.082386 72.656852 
L 350.690185 72.930599 
L 355.546837 72.52065 
L 359.848443 72.570256 
L 363.456242 72.64309 
L 365.815187 72.659863 
L 367.619087 72.414189 
L 372.475739 71.51384 
L 375.112207 71.280887 
L 376.083537 70.820946 
L 377.054868 70.093735 
L 378.026198 69.099256 
L 379.13629 67.63544 
L 380.107621 66.026908 
L 381.217712 63.733103 
L 382.466566 60.57083 
L 383.715419 56.792595 
L 387.045695 46.187044 
L 388.155787 43.288972 
L 388.710833 42.469377 
L 389.127117 42.170552 
L 389.543402 42.142475 
L 389.959686 42.385146 
L 390.375971 42.898564 
L 390.931017 43.997925 
L 392.318632 47.477913 
L 393.845008 51.975306 
L 394.9551 55.193405 
L 395.232623 55.406054 
L 395.510146 55.283975 
L 395.787669 54.827168 
L 396.203953 53.514342 
L 396.620238 51.448378 
L 397.175284 47.522211 
L 397.869091 40.731656 
L 398.562899 33.997282 
L 399.117945 30.548888 
L 399.534229 29.096902 
L 399.811752 28.669059 
L 400.089275 28.673333 
L 400.366798 29.109726 
L 400.783082 30.574535 
L 401.199367 33.011609 
L 401.754413 37.773454 
L 403.419551 54.410147 
L 404.113358 58.898592 
L 404.668404 61.37635 
L 405.22345 62.864777 
L 405.639735 63.331848 
L 405.917257 63.334062 
L 406.19478 63.088944 
L 406.611065 62.260935 
L 407.027349 61.492605 
L 407.304872 61.264708 
L 407.582395 61.264269 
L 407.859918 61.491288 
L 408.276203 62.258301 
L 408.692487 63.537094 
L 409.247533 66.038256 
L 409.941341 70.444161 
L 410.218864 72.604574 
L 410.218864 72.604574 
" clip-path="url(#pb99d138ad5)" style="fill: none; stroke: #9467bd; stroke-width: 1.5; stroke-linecap: square"/>
   </g>
   <g id="line2d_30">
    <path d="M 271.596136 72.604574 
L 272.983751 73.505686 
L 274.232605 74.074023 
L 275.481458 74.412469 
L 276.730311 74.521022 
L 279.228018 74.555424 
L 280.060587 74.952319 
L 280.893156 75.588229 
L 281.864487 76.632214 
L 282.974578 78.196608 
L 284.500955 80.211523 
L 285.88857 81.68159 
L 287.414946 83.136928 
L 287.969992 84.291817 
L 288.525038 85.973202 
L 289.218845 88.815319 
L 290.051414 93.311759 
L 292.132837 105.714128 
L 292.826644 107.989782 
L 293.38169 109.041626 
L 293.797975 109.382112 
L 294.075498 109.39558 
L 294.353021 109.238231 
L 294.769305 108.681924 
L 295.185589 107.741277 
L 295.740635 105.889219 
L 296.434443 102.613297 
L 297.405773 96.558675 
L 299.209673 83.938527 
L 300.458526 75.269895 
L 301.152333 72.193966 
L 301.707379 70.749055 
L 302.123664 70.257942 
L 302.401187 70.212709 
L 302.67871 70.393217 
L 303.094994 71.087243 
L 303.788802 72.913354 
L 304.621371 75.746684 
L 305.592701 79.937403 
L 306.564032 85.125773 
L 307.3966 90.908238 
L 308.367931 99.452975 
L 309.894307 113.585875 
L 310.588115 117.386926 
L 311.143161 119.109599 
L 311.559445 119.632672 
L 311.836968 119.578452 
L 312.114491 119.019163 
L 312.530776 117.190498 
L 312.94706 114.174154 
L 313.502106 108.304863 
L 314.334675 98.435772 
L 314.889721 94.245676 
L 315.306005 92.430038 
L 315.583528 91.851487 
L 315.861051 91.764158 
L 316.277336 91.959649 
L 316.832382 92.503702 
L 317.387428 93.371637 
L 317.942474 94.621125 
L 318.49752 96.399576 
L 319.191327 99.376839 
L 320.578942 105.807954 
L 320.717703 105.822842 
L 320.856465 105.666304 
L 321.133988 104.838946 
L 321.550272 102.312207 
L 321.966557 98.242623 
L 322.660364 90.705735 
L 323.21541 87.005331 
L 323.631695 85.635945 
L 323.909218 85.392505 
L 324.047979 85.471631 
L 324.325502 86.031129 
L 325.713117 89.717591 
L 327.655778 94.564262 
L 328.349585 97.577976 
L 329.182154 102.423548 
L 329.875962 106.425617 
L 330.431008 108.530409 
L 330.847292 109.466196 
L 331.263577 109.851006 
L 331.5411 109.809831 
L 334.038806 108.78966 
L 334.455091 108.105854 
L 335.010137 106.615747 
L 335.565183 104.464653 
L 335.981467 102.805187 
L 336.25899 102.289182 
L 336.397752 102.220308 
L 336.536513 102.277519 
L 336.814036 102.770196 
L 337.091559 103.767216 
L 337.507844 106.208385 
L 338.201651 110.807934 
L 338.479174 111.649678 
L 338.756697 111.872109 
L 338.895458 111.751083 
L 339.172981 111.044545 
L 339.589266 108.823591 
L 340.00555 105.247261 
L 340.560596 98.420662 
L 341.254404 86.579656 
L 341.948211 73.842061 
L 342.364496 70.083896 
L 342.642019 69.377622 
L 342.78078 69.564236 
L 343.613349 72.56259 
L 344.029633 73.231158 
L 344.307156 73.341146 
L 344.584679 73.182555 
L 345.139725 72.297936 
L 345.833533 71.39724 
L 346.52734 70.868283 
L 347.082386 70.712768 
L 347.637432 70.795166 
L 348.608763 71.108238 
L 349.30257 71.110474 
L 349.996378 70.921331 
L 350.828946 70.44174 
L 351.661515 69.687806 
L 352.632846 68.51695 
L 353.742938 66.82666 
L 354.991791 64.476069 
L 355.963122 62.267203 
L 356.79569 59.716009 
L 357.628259 56.459567 
L 358.59959 51.769027 
L 359.709682 45.232996 
L 360.819774 38.719268 
L 361.791104 34.276001 
L 362.623673 31.40239 
L 363.31748 29.666941 
L 364.011288 28.530035 
L 364.566334 27.990652 
L 365.12138 27.735415 
L 365.676426 27.764321 
L 366.231472 28.077373 
L 366.786518 28.674569 
L 367.480325 29.820642 
L 368.174133 31.410692 
L 370.533078 37.427867 
L 371.365647 38.719441 
L 372.059454 39.433261 
L 372.753262 39.817544 
L 373.308308 39.887703 
L 373.863354 39.746957 
L 374.695923 39.500153 
L 375.528491 39.51628 
L 376.36106 39.795392 
L 377.193629 40.33749 
L 378.026198 41.142575 
L 378.997529 42.414225 
L 379.830098 43.863321 
L 380.662667 45.864577 
L 381.633997 48.91445 
L 382.605327 52.734403 
L 383.715419 58.043019 
L 385.241796 65.573434 
L 386.074365 68.560135 
L 386.906934 70.709098 
L 387.600741 71.860363 
L 388.294548 72.558497 
L 388.849594 72.864365 
L 389.40464 72.945664 
L 389.959686 72.802395 
L 390.514732 72.434557 
L 391.486063 71.643169 
L 391.902347 71.582369 
L 392.318632 71.71204 
L 392.873678 72.181222 
L 393.428723 72.989018 
L 394.122531 74.474938 
L 394.816338 76.177819 
L 395.093861 76.361974 
L 395.371384 76.16697 
L 395.648907 75.592806 
L 396.065192 74.020637 
L 396.620238 70.597354 
L 397.175284 65.657433 
L 397.869091 57.349761 
L 398.70166 47.139564 
L 399.395468 40.848645 
L 400.089275 36.578413 
L 400.644321 34.617121 
L 401.060605 33.994841 
L 401.338128 33.984124 
L 401.615651 34.296718 
L 402.031936 35.371814 
L 404.25212 43.780346 
L 406.611065 53.563663 
L 407.99868 60.089747 
L 409.525056 68.419604 
L 410.218864 72.604574 
L 410.218864 72.604574 
" clip-path="url(#pb99d138ad5)" style="fill: none; stroke: #8c564b; stroke-width: 1.5; stroke-linecap: square"/>
   </g>
   <g id="line2d_31">
    <path d="M 271.596136 72.604574 
L 273.261274 73.573366 
L 274.926412 74.289575 
L 276.59155 74.753202 
L 278.811734 75.276555 
L 279.505541 75.798992 
L 280.33811 76.732875 
L 281.170679 78.001622 
L 282.14201 79.905058 
L 283.668386 83.050919 
L 284.223432 83.686081 
L 284.778478 84.012275 
L 285.194762 84.05416 
L 285.611047 83.92225 
L 286.166093 83.476022 
L 286.721139 82.720825 
L 287.969992 80.761881 
L 288.802561 79.921378 
L 289.496368 79.517346 
L 290.190176 79.382758 
L 290.745222 79.469648 
L 291.161506 79.709668 
L 291.716552 80.340388 
L 292.271598 81.326186 
L 292.965406 83.057762 
L 293.797975 85.868 
L 294.630543 89.477163 
L 295.601874 94.697605 
L 296.711966 101.995365 
L 297.544535 107.327822 
L 298.238342 110.361535 
L 298.793388 111.858082 
L 299.209673 112.437744 
L 299.487196 112.565734 
L 299.764719 112.488347 
L 300.181003 112.080804 
L 300.597288 111.363186 
L 301.152333 109.924021 
L 301.846141 107.349877 
L 302.539948 103.914411 
L 304.066325 95.738014 
L 304.482609 94.645131 
L 304.898894 94.132832 
L 305.176417 94.113846 
L 305.45394 94.352897 
L 305.870224 95.195293 
L 306.980316 98.363802 
L 307.257839 98.48367 
L 307.535362 98.272878 
L 307.812885 97.731424 
L 308.229169 96.299255 
L 308.784215 93.232383 
L 309.2005 90.923042 
L 309.478023 90.279677 
L 309.616784 90.232401 
L 309.755546 90.368062 
L 310.033069 91.188196 
L 310.449353 93.790428 
L 310.865638 98.039096 
L 311.420684 106.26511 
L 312.392014 122.695243 
L 312.94706 128.085343 
L 313.363344 130.035111 
L 313.640867 130.338381 
L 316.416097 128.406313 
L 316.971143 127.434929 
L 317.942474 125.492012 
L 318.081235 125.606859 
L 318.358758 126.285543 
L 318.775043 128.426048 
L 319.191327 131.913525 
L 319.746373 138.658787 
L 320.856465 153.871845 
L 321.550272 159.929218 
L 322.105318 162.757686 
L 322.799126 164.8544 
L 323.354172 165.969338 
L 323.909218 166.584335 
L 324.325502 166.717255 
L 324.603025 166.483405 
L 324.880548 165.816271 
L 325.296833 164.003161 
L 325.851878 160.069187 
L 326.406924 154.402076 
L 327.517016 141.938849 
L 327.933301 140.094283 
L 328.210824 139.865604 
L 328.349585 140.051574 
L 328.627108 141.024134 
L 329.043393 143.984522 
L 329.875962 151.396944 
L 330.292246 153.066475 
L 330.569769 153.362957 
L 330.708531 153.266236 
L 330.986054 152.58287 
L 331.263577 151.246273 
L 332.234907 145.288078 
L 332.651191 143.970767 
L 332.928714 143.544333 
L 333.206237 143.479318 
L 333.48376 143.775722 
L 333.900045 144.819099 
L 334.455091 146.964114 
L 335.148898 150.818548 
L 336.952798 162.375963 
L 337.507844 164.247422 
L 337.924128 164.959409 
L 338.062889 164.976911 
L 338.340412 164.658985 
L 338.617935 163.870487 
L 339.03422 161.805416 
L 339.589266 157.40757 
L 340.00555 154.4507 
L 340.283073 153.508997 
L 340.421835 153.347009 
L 340.560596 153.390929 
L 340.838119 154.096496 
L 341.115642 155.625698 
L 341.531927 159.443988 
L 341.948211 162.911487 
L 342.364496 164.548947 
L 342.503257 164.688092 
L 342.642019 164.623899 
L 342.919542 163.885094 
L 343.197065 162.257281 
L 343.613349 158.044015 
L 344.168395 149.119442 
L 344.723441 136.415569 
L 345.55601 116.509014 
L 346.249817 105.077671 
L 346.804863 99.34874 
L 347.221148 97.044791 
L 347.498671 96.457754 
L 347.637432 96.448914 
L 347.914955 96.907127 
L 349.857616 100.541325 
L 351.661515 103.491505 
L 352.355323 104.251974 
L 352.910369 104.551765 
L 353.465415 104.577259 
L 354.020461 104.328456 
L 354.575507 103.805356 
L 355.269314 102.765752 
L 356.101883 100.978436 
L 357.073213 98.270099 
L 358.044544 94.902406 
L 359.154636 90.246238 
L 361.236058 81.065269 
L 362.068627 78.496995 
L 362.901196 76.630779 
L 363.595003 75.611893 
L 364.288811 75.026925 
L 365.815187 74.056945 
L 367.341564 73.358748 
L 368.729178 72.959829 
L 370.949362 72.615141 
L 373.169546 72.508037 
L 386.768172 72.536074 
L 387.878264 72.403717 
L 388.294548 72.662388 
L 388.710833 73.195495 
L 389.265879 74.333204 
L 389.959686 76.441429 
L 390.653494 79.311976 
L 392.041109 86.473755 
L 393.845008 96.96333 
L 395.510146 107.990608 
L 397.036522 119.883034 
L 398.562899 131.894723 
L 398.979183 133.169249 
L 399.256706 133.354278 
L 399.534229 133.007585 
L 399.811752 132.129168 
L 400.228036 129.814562 
L 400.783082 124.86739 
L 401.338128 117.793324 
L 402.031936 105.9598 
L 403.003266 89.070424 
L 403.835835 78.495396 
L 404.529643 72.439619 
L 405.084689 69.399413 
L 405.500973 68.171835 
L 405.778496 67.854675 
L 406.056019 67.938498 
L 406.333542 68.423301 
L 407.027349 70.707966 
L 407.721157 72.453238 
L 408.276203 73.316268 
L 408.692487 73.652516 
L 409.108772 73.722171 
L 409.525056 73.525233 
L 409.941341 73.061702 
L 410.218864 72.604574 
L 410.218864 72.604574 
" clip-path="url(#pb99d138ad5)" style="fill: none; stroke: #e377c2; stroke-width: 1.5; stroke-linecap: square"/>
   </g>
   <g id="patch_8">
    <path d="M 264.665 174.04 
L 264.665 12.939605 
" style="fill: none; stroke: #000000; stroke-width: 0.8; stroke-linejoin: miter; stroke-linecap: square"/>
   </g>
   <g id="patch_9">
    <path d="M 417.15 174.04 
L 417.15 12.939605 
" style="fill: none; stroke: #000000; stroke-width: 0.8; stroke-linejoin: miter; stroke-linecap: square"/>
   </g>
   <g id="patch_10">
    <path d="M 264.665 174.04 
L 417.15 174.04 
" style="fill: none; stroke: #000000; stroke-width: 0.8; stroke-linejoin: miter; stroke-linecap: square"/>
   </g>
   <g id="patch_11">
    <path d="M 264.665 12.939605 
L 417.15 12.939605 
" style="fill: none; stroke: #000000; stroke-width: 0.8; stroke-linejoin: miter; stroke-linecap: square"/>
   </g>
  </g>
  <g id="axes_3">
   <g id="patch_12">
    <path d="M 482.69 174.04 
L 635.175 174.04 
L 635.175 12.939605 
L 482.69 12.939605 
z
" style="fill: #ffffff"/>
   </g>
   <g id="matplotlib.axis_5">
    <g id="xtick_7">
     <g id="line2d_32">
      <g>
       <use xlink:href="#m366ff8d0d7" x="489.621136" y="174.04" style="stroke: #000000; stroke-width: 0.8"/>
      </g>
     </g>
     <g id="text_22">
      <!-- 0.0 -->
      <g transform="translate(481.669574 188.638438)scale(0.1 -0.1)">
       <use xlink:href="#DejaVuSans-30"/>
       <use xlink:href="#DejaVuSans-2e" x="63.623047"/>
       <use xlink:href="#DejaVuSans-30" x="95.410156"/>
      </g>
     </g>
    </g>
    <g id="xtick_8">
     <g id="line2d_33">
      <g>
       <use xlink:href="#m366ff8d0d7" x="547.580771" y="174.04" style="stroke: #000000; stroke-width: 0.8"/>
      </g>
     </g>
     <g id="text_23">
      <!-- 0.5 -->
      <g transform="translate(539.629208 188.638438)scale(0.1 -0.1)">
       <use xlink:href="#DejaVuSans-30"/>
       <use xlink:href="#DejaVuSans-2e" x="63.623047"/>
       <use xlink:href="#DejaVuSans-35" x="95.410156"/>
      </g>
     </g>
    </g>
    <g id="xtick_9">
     <g id="line2d_34">
      <g>
       <use xlink:href="#m366ff8d0d7" x="605.540405" y="174.04" style="stroke: #000000; stroke-width: 0.8"/>
      </g>
     </g>
     <g id="text_24">
      <!-- 1.0 -->
      <g transform="translate(597.588843 188.638438)scale(0.1 -0.1)">
       <use xlink:href="#DejaVuSans-31"/>
       <use xlink:href="#DejaVuSans-2e" x="63.623047"/>
       <use xlink:href="#DejaVuSans-30" x="95.410156"/>
      </g>
     </g>
    </g>
    <g id="text_25">
     <!-- Time -->
     <g transform="translate(546.698906 202.316563)scale(0.1 -0.1)">
      <use xlink:href="#DejaVuSans-54"/>
      <use xlink:href="#DejaVuSans-69" x="57.958984"/>
      <use xlink:href="#DejaVuSans-6d" x="85.742188"/>
      <use xlink:href="#DejaVuSans-65" x="183.154297"/>
     </g>
    </g>
   </g>
   <g id="matplotlib.axis_6">
    <g id="ytick_12">
     <g id="line2d_35">
      <g>
       <use xlink:href="#m039057d264" x="482.69" y="168.390684" style="stroke: #000000; stroke-width: 0.8"/>
      </g>
     </g>
     <g id="text_26">
      <!-- −75 -->
      <g transform="translate(454.585312 172.189903)scale(0.1 -0.1)">
       <defs>
        <path id="DejaVuSans-37" d="M 525 4666 
L 3525 4666 
L 3525 4397 
L 1831 0 
L 1172 0 
L 2766 4134 
L 525 4134 
L 525 4666 
z
" transform="scale(0.015625)"/>
       </defs>
       <use xlink:href="#DejaVuSans-2212"/>
       <use xlink:href="#DejaVuSans-37" x="83.789062"/>
       <use xlink:href="#DejaVuSans-35" x="147.412109"/>
      </g>
     </g>
    </g>
    <g id="ytick_13">
     <g id="line2d_36">
      <g>
       <use xlink:href="#m039057d264" x="482.69" y="147.081589" style="stroke: #000000; stroke-width: 0.8"/>
      </g>
     </g>
     <g id="text_27">
      <!-- −50 -->
      <g transform="translate(454.585312 150.880808)scale(0.1 -0.1)">
       <use xlink:href="#DejaVuSans-2212"/>
       <use xlink:href="#DejaVuSans-35" x="83.789062"/>
       <use xlink:href="#DejaVuSans-30" x="147.412109"/>
      </g>
     </g>
    </g>
    <g id="ytick_14">
     <g id="line2d_37">
      <g>
       <use xlink:href="#m039057d264" x="482.69" y="125.772495" style="stroke: #000000; stroke-width: 0.8"/>
      </g>
     </g>
     <g id="text_28">
      <!-- −25 -->
      <g transform="translate(454.585312 129.571713)scale(0.1 -0.1)">
       <use xlink:href="#DejaVuSans-2212"/>
       <use xlink:href="#DejaVuSans-32" x="83.789062"/>
       <use xlink:href="#DejaVuSans-35" x="147.412109"/>
      </g>
     </g>
    </g>
    <g id="ytick_15">
     <g id="line2d_38">
      <g>
       <use xlink:href="#m039057d264" x="482.69" y="104.4634" style="stroke: #000000; stroke-width: 0.8"/>
      </g>
     </g>
     <g id="text_29">
      <!-- 0 -->
      <g transform="translate(469.3275 108.262619)scale(0.1 -0.1)">
       <use xlink:href="#DejaVuSans-30"/>
      </g>
     </g>
    </g>
    <g id="ytick_16">
     <g id="line2d_39">
      <g>
       <use xlink:href="#m039057d264" x="482.69" y="83.154305" style="stroke: #000000; stroke-width: 0.8"/>
      </g>
     </g>
     <g id="text_30">
      <!-- 25 -->
      <g transform="translate(462.965 86.953524)scale(0.1 -0.1)">
       <use xlink:href="#DejaVuSans-32"/>
       <use xlink:href="#DejaVuSans-35" x="63.623047"/>
      </g>
     </g>
    </g>
    <g id="ytick_17">
     <g id="line2d_40">
      <g>
       <use xlink:href="#m039057d264" x="482.69" y="61.84521" style="stroke: #000000; stroke-width: 0.8"/>
      </g>
     </g>
     <g id="text_31">
      <!-- 50 -->
      <g transform="translate(462.965 65.644429)scale(0.1 -0.1)">
       <use xlink:href="#DejaVuSans-35"/>
       <use xlink:href="#DejaVuSans-30" x="63.623047"/>
      </g>
     </g>
    </g>
    <g id="ytick_18">
     <g id="line2d_41">
      <g>
       <use xlink:href="#m039057d264" x="482.69" y="40.536115" style="stroke: #000000; stroke-width: 0.8"/>
      </g>
     </g>
     <g id="text_32">
      <!-- 75 -->
      <g transform="translate(462.965 44.335334)scale(0.1 -0.1)">
       <use xlink:href="#DejaVuSans-37"/>
       <use xlink:href="#DejaVuSans-35" x="63.623047"/>
      </g>
     </g>
    </g>
    <g id="ytick_19">
     <g id="line2d_42">
      <g>
       <use xlink:href="#m039057d264" x="482.69" y="19.22702" style="stroke: #000000; stroke-width: 0.8"/>
      </g>
     </g>
     <g id="text_33">
      <!-- 100 -->
      <g transform="translate(456.6025 23.026239)scale(0.1 -0.1)">
       <use xlink:href="#DejaVuSans-31"/>
       <use xlink:href="#DejaVuSans-30" x="63.623047"/>
       <use xlink:href="#DejaVuSans-30" x="127.246094"/>
      </g>
     </g>
    </g>
    <g id="text_34">
     <!-- Acceleration -->
     <g transform="translate(448.505625 124.560115)rotate(-90)scale(0.1 -0.1)">
      <defs>
       <path id="DejaVuSans-41" d="M 2188 4044 
L 1331 1722 
L 3047 1722 
L 2188 4044 
z
M 1831 4666 
L 2547 4666 
L 4325 0 
L 3669 0 
L 3244 1197 
L 1141 1197 
L 716 0 
L 50 0 
L 1831 4666 
z
" transform="scale(0.015625)"/>
       <path id="DejaVuSans-72" d="M 2631 2963 
Q 2534 3019 2420 3045 
Q 2306 3072 2169 3072 
Q 1681 3072 1420 2755 
Q 1159 2438 1159 1844 
L 1159 0 
L 581 0 
L 581 3500 
L 1159 3500 
L 1159 2956 
Q 1341 3275 1631 3429 
Q 1922 3584 2338 3584 
Q 2397 3584 2469 3576 
Q 2541 3569 2628 3553 
L 2631 2963 
z
" transform="scale(0.015625)"/>
       <path id="DejaVuSans-61" d="M 2194 1759 
Q 1497 1759 1228 1600 
Q 959 1441 959 1056 
Q 959 750 1161 570 
Q 1363 391 1709 391 
Q 2188 391 2477 730 
Q 2766 1069 2766 1631 
L 2766 1759 
L 2194 1759 
z
M 3341 1997 
L 3341 0 
L 2766 0 
L 2766 531 
Q 2569 213 2275 61 
Q 1981 -91 1556 -91 
Q 1019 -91 701 211 
Q 384 513 384 1019 
Q 384 1609 779 1909 
Q 1175 2209 1959 2209 
L 2766 2209 
L 2766 2266 
Q 2766 2663 2505 2880 
Q 2244 3097 1772 3097 
Q 1472 3097 1187 3025 
Q 903 2953 641 2809 
L 641 3341 
Q 956 3463 1253 3523 
Q 1550 3584 1831 3584 
Q 2591 3584 2966 3190 
Q 3341 2797 3341 1997 
z
" transform="scale(0.015625)"/>
      </defs>
      <use xlink:href="#DejaVuSans-41"/>
      <use xlink:href="#DejaVuSans-63" x="66.658203"/>
      <use xlink:href="#DejaVuSans-63" x="121.638672"/>
      <use xlink:href="#DejaVuSans-65" x="176.619141"/>
      <use xlink:href="#DejaVuSans-6c" x="238.142578"/>
      <use xlink:href="#DejaVuSans-65" x="265.925781"/>
      <use xlink:href="#DejaVuSans-72" x="327.449219"/>
      <use xlink:href="#DejaVuSans-61" x="368.5625"/>
      <use xlink:href="#DejaVuSans-74" x="429.841797"/>
      <use xlink:href="#DejaVuSans-69" x="469.050781"/>
      <use xlink:href="#DejaVuSans-6f" x="496.833984"/>
      <use xlink:href="#DejaVuSans-6e" x="558.015625"/>
     </g>
    </g>
   </g>
   <g id="line2d_43">
    <path d="M 489.621136 114.649179 
L 495.865403 98.23992 
L 500.722055 106.169634 
L 505.023662 107.976212 
L 508.770222 107.044742 
L 514.736966 112.129906 
L 514.875727 111.973646 
L 517.789719 100.014813 
L 521.119994 107.860623 
L 523.895224 106.788636 
L 524.311509 106.579924 
L 526.809215 97.399698 
L 526.947977 97.611806 
L 529.723207 113.844381 
L 531.804629 104.999473 
L 533.74729 90.601073 
L 533.886051 90.409405 
L 535.828712 98.970269 
L 537.910134 110.617679 
L 538.048896 110.537503 
L 540.130318 94.476897 
L 542.350502 102.141233 
L 544.848209 118.927279 
L 547.207154 115.232244 
L 547.623439 112.90884 
L 549.427338 101.854566 
L 549.5661 101.868481 
L 551.647522 114.024565 
L 553.867706 109.012951 
L 555.671605 107.567388 
L 556.365412 105.626733 
L 557.614266 102.147087 
L 559.556927 111.328123 
L 560.80578 108.283344 
L 560.944542 107.63962 
L 562.887202 77.14873 
L 565.801194 104.211562 
L 567.050047 102.587312 
L 569.547754 99.370091 
L 573.571837 105.626076 
L 573.84936 105.476154 
L 577.873443 102.22877 
L 582.036288 104.303545 
L 587.031701 102.482709 
L 592.027115 102.185744 
L 597.300052 104.443949 
L 602.156704 102.862165 
L 605.625741 104.3361 
L 608.956017 103.586603 
L 613.118861 105.673 
L 615.894091 107.536438 
L 616.171614 107.207733 
L 620.056936 101.499886 
L 620.334459 101.614226 
L 624.774826 104.724818 
L 628.243864 105.332371 
L 628.243864 105.332371 
" clip-path="url(#p04e400325e)" style="fill: none; stroke: #1f77b4; stroke-width: 1.5; stroke-linecap: square"/>
   </g>
   <g id="line2d_44">
    <path d="M 489.621136 136.353453 
L 495.865403 104.4634 
L 504.8849 104.4634 
L 505.162423 103.657218 
L 508.770222 90.954331 
L 514.875727 119.230239 
L 517.789719 104.4634 
L 524.172747 104.4634 
L 524.311509 104.338221 
L 526.809215 82.471335 
L 526.947977 83.000406 
L 529.723207 122.616693 
L 532.082152 111.230991 
L 533.886051 104.4634 
L 537.910134 104.4634 
L 538.048896 103.950027 
L 540.130318 87.593866 
L 542.350502 106.033775 
L 545.542016 100.113903 
L 547.207154 97.413719 
L 547.345916 97.492601 
L 549.427338 101.234878 
L 549.5661 101.073013 
L 551.647522 92.969217 
L 553.867706 98.616179 
L 555.671605 105.772543 
L 555.949128 103.168189 
L 557.614266 84.874133 
L 559.418165 95.093142 
L 559.556927 95.053174 
L 560.944542 76.989002 
L 562.887202 104.4634 
L 577.873443 104.513076 
L 582.036288 106.691092 
L 586.754178 102.414817 
L 592.165877 104.4634 
L 624.497303 104.4634 
L 624.636065 104.959754 
L 628.243864 158.73569 
L 628.243864 158.73569 
" clip-path="url(#p04e400325e)" style="fill: none; stroke: #ff7f0e; stroke-width: 1.5; stroke-linecap: square"/>
   </g>
   <g id="line2d_45">
    <path d="M 489.621136 105.878766 
L 496.004165 103.875928 
L 500.999578 104.453452 
L 505.023662 105.895707 
L 508.908983 103.782569 
L 517.789719 104.823898 
L 521.119994 108.835224 
L 524.311509 117.460921 
L 526.809215 93.750601 
L 526.947977 94.097048 
L 529.723207 128.555575 
L 531.665867 97.104136 
L 531.804629 97.553791 
L 533.74729 117.586285 
L 533.886051 117.770256 
L 535.551189 106.092955 
L 536.52252 112.290025 
L 537.910134 121.283799 
L 538.048896 121.235199 
L 540.130318 103.944478 
L 542.350502 102.706962 
L 544.848209 111.145678 
L 547.345916 104.4634 
L 557.614266 104.357514 
L 559.556927 93.282443 
L 560.944542 105.221419 
L 562.887202 74.768858 
L 565.801194 99.677536 
L 567.466332 101.44916 
L 569.547754 103.611553 
L 573.710599 102.367184 
L 577.734682 105.306275 
L 578.012205 104.982402 
L 582.036288 98.85826 
L 586.89294 103.096407 
L 592.304638 104.413888 
L 599.103951 104.504378 
L 602.156704 104.628211 
L 605.486979 102.469882 
L 605.625741 102.23924 
L 608.817255 89.178904 
L 609.094778 90.680699 
L 612.563815 114.401322 
L 615.894091 112.225372 
L 616.449137 111.047174 
L 620.195697 102.960236 
L 625.329872 104.722637 
L 628.243864 105.342673 
L 628.243864 105.342673 
" clip-path="url(#p04e400325e)" style="fill: none; stroke: #2ca02c; stroke-width: 1.5; stroke-linecap: square"/>
   </g>
   <g id="line2d_46">
    <path d="M 489.621136 104.236446 
L 495.865403 111.04085 
L 500.722055 102.466841 
L 505.856231 101.42909 
L 508.770222 101.158597 
L 514.875727 104.987959 
L 517.789719 111.20077 
L 521.119994 107.397676 
L 524.311509 107.734891 
L 526.809215 87.245718 
L 526.947977 87.281396 
L 529.723207 107.616122 
L 531.665867 105.445816 
L 531.94339 106.235905 
L 533.74729 112.472387 
L 533.886051 112.305215 
L 535.689951 102.927162 
L 539.991557 98.86102 
L 540.130318 98.842234 
L 542.350502 106.07528 
L 544.848209 105.090524 
L 547.484677 97.579029 
L 549.5661 89.859199 
L 551.647522 90.793388 
L 553.867706 101.598006 
L 555.671605 106.564919 
L 555.949128 105.908664 
L 557.614266 101.030344 
L 559.556927 115.989106 
L 560.944542 104.111179 
L 562.887202 111.300858 
L 565.801194 100.242245 
L 568.2989 102.904549 
L 569.825277 104.385085 
L 573.710599 106.705497 
L 577.734682 113.552486 
L 577.873443 113.533416 
L 583.701426 106.901226 
L 586.89294 103.199032 
L 592.027115 101.443841 
L 597.300052 103.962738 
L 602.017942 96.41743 
L 602.156704 96.702616 
L 605.625741 115.62468 
L 608.956017 97.754324 
L 612.425054 99.353078 
L 612.563815 99.559787 
L 616.032853 111.913952 
L 620.056936 111.34721 
L 620.47322 108.783323 
L 624.497303 81.479266 
L 624.636065 81.458694 
L 628.243864 156.756312 
L 628.243864 156.756312 
" clip-path="url(#p04e400325e)" style="fill: none; stroke: #d62728; stroke-width: 1.5; stroke-linecap: square"/>
   </g>
   <g id="line2d_47">
    <path d="M 489.621136 104.282663 
L 496.836734 104.564136 
L 501.970909 104.408089 
L 507.105084 104.465772 
L 514.875727 104.266513 
L 517.789719 102.079878 
L 521.119994 107.513838 
L 524.45027 103.788147 
L 526.947977 104.568819 
L 529.861968 102.101567 
L 531.804629 101.559271 
L 533.74729 100.015405 
L 533.886051 100.450217 
L 535.551189 111.737727 
L 537.216327 72.563927 
L 538.048896 54.930309 
L 540.130318 73.945835 
L 542.350502 160.835255 
L 545.125732 127.974406 
L 547.207154 97.44505 
L 547.345916 97.105066 
L 549.5661 106.489487 
L 551.647522 104.027387 
L 555.671605 104.909853 
L 556.920458 104.683708 
L 557.614266 104.569896 
L 559.556927 106.146501 
L 560.944542 103.009634 
L 563.164725 103.707059 
L 565.939955 105.084951 
L 569.686515 103.917477 
L 574.126883 104.560342 
L 578.844774 104.480553 
L 582.313811 104.577376 
L 586.89294 103.622319 
L 591.888354 104.50864 
L 593.831014 102.786315 
L 597.577575 99.336203 
L 602.156704 93.764087 
L 605.486979 95.464704 
L 605.625741 95.715744 
L 608.956017 111.704448 
L 612.425054 114.993198 
L 612.563815 114.474312 
L 615.894091 68.888821 
L 616.032853 70.183521 
L 620.056936 141.292326 
L 620.195697 140.97892 
L 624.636065 96.714226 
L 628.243864 130.272385 
L 628.243864 130.272385 
" clip-path="url(#p04e400325e)" style="fill: none; stroke: #9467bd; stroke-width: 1.5; stroke-linecap: square"/>
   </g>
   <g id="line2d_48">
    <path d="M 489.621136 106.830824 
L 495.865403 104.005771 
L 500.722055 109.207416 
L 504.8849 106.861931 
L 505.162423 108.029175 
L 508.770222 126.910046 
L 514.875727 84.559401 
L 517.650957 80.501194 
L 517.789719 80.892904 
L 521.258756 112.090799 
L 524.311509 121.85225 
L 526.809215 138.001837 
L 526.947977 137.509315 
L 529.723207 104.106685 
L 531.665867 62.172557 
L 531.804629 63.476382 
L 533.886051 105.253272 
L 535.689951 111.511806 
L 537.910134 123.685056 
L 538.048896 122.310903 
L 540.130318 65.230704 
L 542.350502 113.603599 
L 544.848209 110.958421 
L 547.207154 125.330212 
L 547.345916 124.744224 
L 549.5661 103.243743 
L 551.647522 103.509356 
L 553.728944 90.021744 
L 555.671605 130.087744 
L 555.949128 124.559016 
L 559.418165 39.031601 
L 559.556927 39.275981 
L 560.944542 119.427957 
L 562.887202 98.855873 
L 565.801194 105.943474 
L 569.270231 101.606599 
L 570.1028 100.733466 
L 573.571837 97.402864 
L 574.265645 95.256985 
L 577.734682 84.140614 
L 577.873443 84.342794 
L 582.313811 101.402705 
L 586.754178 114.136432 
L 591.888354 103.066366 
L 592.582161 103.861161 
L 597.300052 109.537058 
L 602.017942 121.665419 
L 602.156704 121.572042 
L 605.764502 108.110482 
L 608.817255 101.101822 
L 609.094778 101.841771 
L 612.425054 113.370442 
L 612.563815 113.00791 
L 615.894091 61.371476 
L 616.032853 62.145909 
L 620.195697 115.917187 
L 624.636065 118.145035 
L 628.243864 124.026861 
L 628.243864 124.026861 
" clip-path="url(#p04e400325e)" style="fill: none; stroke: #8c564b; stroke-width: 1.5; stroke-linecap: square"/>
   </g>
   <g id="line2d_49">
    <path d="M 489.621136 106.534727 
L 495.865403 104.829302 
L 500.583294 112.007705 
L 500.722055 112.012352 
L 504.8849 98.863159 
L 505.023662 98.837502 
L 508.770222 105.523801 
L 514.736966 127.18363 
L 514.875727 127.034507 
L 518.067242 100.988962 
L 521.119994 83.784896 
L 524.311509 117.081664 
L 526.809215 83.307978 
L 526.947977 84.705116 
L 529.723207 166.717255 
L 531.804629 102.205169 
L 533.74729 102.799429 
L 533.886051 102.512044 
L 535.551189 95.39062 
L 537.355088 139.34197 
L 537.910134 152.930099 
L 538.048896 153.599687 
L 540.130318 115.754596 
L 542.350502 104.26811 
L 544.848209 60.969993 
L 547.207154 138.22207 
L 547.345916 137.481928 
L 549.427338 81.881063 
L 549.5661 81.166191 
L 551.786283 113.084729 
L 553.728944 129.277304 
L 555.671605 111.211682 
L 556.504174 95.514822 
L 557.614266 75.081445 
L 559.556927 137.621207 
L 561.499588 69.905477 
L 562.887202 20.262351 
L 565.801194 110.724323 
L 566.078717 110.676791 
L 569.547754 109.277511 
L 574.126883 96.750508 
L 577.734682 88.809403 
L 577.873443 88.993353 
L 582.036288 102.079547 
L 587.170463 103.869096 
L 592.4434 104.57056 
L 598.826428 104.485617 
L 602.434227 104.529255 
L 605.486979 103.817127 
L 605.625741 103.99807 
L 608.956017 120.234991 
L 612.563815 124.845239 
L 615.894091 132.827438 
L 616.171614 127.683909 
L 620.056936 43.201392 
L 620.195697 43.980362 
L 624.636065 116.084026 
L 628.243864 98.603167 
L 628.243864 98.603167 
" clip-path="url(#p04e400325e)" style="fill: none; stroke: #e377c2; stroke-width: 1.5; stroke-linecap: square"/>
   </g>
   <g id="patch_13">
    <path d="M 482.69 174.04 
L 482.69 12.939605 
" style="fill: none; stroke: #000000; stroke-width: 0.8; stroke-linejoin: miter; stroke-linecap: square"/>
   </g>
   <g id="patch_14">
    <path d="M 635.175 174.04 
L 635.175 12.939605 
" style="fill: none; stroke: #000000; stroke-width: 0.8; stroke-linejoin: miter; stroke-linecap: square"/>
   </g>
   <g id="patch_15">
    <path d="M 482.69 174.04 
L 635.175 174.04 
" style="fill: none; stroke: #000000; stroke-width: 0.8; stroke-linejoin: miter; stroke-linecap: square"/>
   </g>
   <g id="patch_16">
    <path d="M 482.69 12.939605 
L 635.175 12.939605 
" style="fill: none; stroke: #000000; stroke-width: 0.8; stroke-linejoin: miter; stroke-linecap: square"/>
   </g>
  </g>
  <g id="axes_4">
   <g id="patch_17">
    <path d="M 700.715 174.04 
L 853.2 174.04 
L 853.2 12.939605 
L 700.715 12.939605 
z
" style="fill: #ffffff"/>
   </g>
   <g id="matplotlib.axis_7">
    <g id="xtick_10">
     <g id="line2d_50">
      <g>
       <use xlink:href="#m366ff8d0d7" x="707.646136" y="174.04" style="stroke: #000000; stroke-width: 0.8"/>
      </g>
     </g>
     <g id="text_35">
      <!-- 0.0 -->
      <g transform="translate(699.694574 188.638438)scale(0.1 -0.1)">
       <use xlink:href="#DejaVuSans-30"/>
       <use xlink:href="#DejaVuSans-2e" x="63.623047"/>
       <use xlink:href="#DejaVuSans-30" x="95.410156"/>
      </g>
     </g>
    </g>
    <g id="xtick_11">
     <g id="line2d_51">
      <g>
       <use xlink:href="#m366ff8d0d7" x="765.605771" y="174.04" style="stroke: #000000; stroke-width: 0.8"/>
      </g>
     </g>
     <g id="text_36">
      <!-- 0.5 -->
      <g transform="translate(757.654208 188.638438)scale(0.1 -0.1)">
       <use xlink:href="#DejaVuSans-30"/>
       <use xlink:href="#DejaVuSans-2e" x="63.623047"/>
       <use xlink:href="#DejaVuSans-35" x="95.410156"/>
      </g>
     </g>
    </g>
    <g id="xtick_12">
     <g id="line2d_52">
      <g>
       <use xlink:href="#m366ff8d0d7" x="823.565405" y="174.04" style="stroke: #000000; stroke-width: 0.8"/>
      </g>
     </g>
     <g id="text_37">
      <!-- 1.0 -->
      <g transform="translate(815.613843 188.638438)scale(0.1 -0.1)">
       <use xlink:href="#DejaVuSans-31"/>
       <use xlink:href="#DejaVuSans-2e" x="63.623047"/>
       <use xlink:href="#DejaVuSans-30" x="95.410156"/>
      </g>
     </g>
    </g>
    <g id="text_38">
     <!-- Time -->
     <g transform="translate(764.723906 202.316563)scale(0.1 -0.1)">
      <use xlink:href="#DejaVuSans-54"/>
      <use xlink:href="#DejaVuSans-69" x="57.958984"/>
      <use xlink:href="#DejaVuSans-6d" x="85.742188"/>
      <use xlink:href="#DejaVuSans-65" x="183.154297"/>
     </g>
    </g>
   </g>
   <g id="matplotlib.axis_8">
    <g id="ytick_20">
     <g id="line2d_53">
      <g>
       <use xlink:href="#m039057d264" x="700.715" y="166.664937" style="stroke: #000000; stroke-width: 0.8"/>
      </g>
     </g>
     <g id="text_39">
      <!-- −8000 -->
      <g transform="translate(659.885312 170.464156)scale(0.1 -0.1)">
       <defs>
        <path id="DejaVuSans-38" d="M 2034 2216 
Q 1584 2216 1326 1975 
Q 1069 1734 1069 1313 
Q 1069 891 1326 650 
Q 1584 409 2034 409 
Q 2484 409 2743 651 
Q 3003 894 3003 1313 
Q 3003 1734 2745 1975 
Q 2488 2216 2034 2216 
z
M 1403 2484 
Q 997 2584 770 2862 
Q 544 3141 544 3541 
Q 544 4100 942 4425 
Q 1341 4750 2034 4750 
Q 2731 4750 3128 4425 
Q 3525 4100 3525 3541 
Q 3525 3141 3298 2862 
Q 3072 2584 2669 2484 
Q 3125 2378 3379 2068 
Q 3634 1759 3634 1313 
Q 3634 634 3220 271 
Q 2806 -91 2034 -91 
Q 1263 -91 848 271 
Q 434 634 434 1313 
Q 434 1759 690 2068 
Q 947 2378 1403 2484 
z
M 1172 3481 
Q 1172 3119 1398 2916 
Q 1625 2713 2034 2713 
Q 2441 2713 2670 2916 
Q 2900 3119 2900 3481 
Q 2900 3844 2670 4047 
Q 2441 4250 2034 4250 
Q 1625 4250 1398 4047 
Q 1172 3844 1172 3481 
z
" transform="scale(0.015625)"/>
       </defs>
       <use xlink:href="#DejaVuSans-2212"/>
       <use xlink:href="#DejaVuSans-38" x="83.789062"/>
       <use xlink:href="#DejaVuSans-30" x="147.412109"/>
       <use xlink:href="#DejaVuSans-30" x="211.035156"/>
       <use xlink:href="#DejaVuSans-30" x="274.658203"/>
      </g>
     </g>
    </g>
    <g id="ytick_21">
     <g id="line2d_54">
      <g>
       <use xlink:href="#m039057d264" x="700.715" y="144.574031" style="stroke: #000000; stroke-width: 0.8"/>
      </g>
     </g>
     <g id="text_40">
      <!-- −6000 -->
      <g transform="translate(659.885312 148.37325)scale(0.1 -0.1)">
       <defs>
        <path id="DejaVuSans-36" d="M 2113 2584 
Q 1688 2584 1439 2293 
Q 1191 2003 1191 1497 
Q 1191 994 1439 701 
Q 1688 409 2113 409 
Q 2538 409 2786 701 
Q 3034 994 3034 1497 
Q 3034 2003 2786 2293 
Q 2538 2584 2113 2584 
z
M 3366 4563 
L 3366 3988 
Q 3128 4100 2886 4159 
Q 2644 4219 2406 4219 
Q 1781 4219 1451 3797 
Q 1122 3375 1075 2522 
Q 1259 2794 1537 2939 
Q 1816 3084 2150 3084 
Q 2853 3084 3261 2657 
Q 3669 2231 3669 1497 
Q 3669 778 3244 343 
Q 2819 -91 2113 -91 
Q 1303 -91 875 529 
Q 447 1150 447 2328 
Q 447 3434 972 4092 
Q 1497 4750 2381 4750 
Q 2619 4750 2861 4703 
Q 3103 4656 3366 4563 
z
" transform="scale(0.015625)"/>
       </defs>
       <use xlink:href="#DejaVuSans-2212"/>
       <use xlink:href="#DejaVuSans-36" x="83.789062"/>
       <use xlink:href="#DejaVuSans-30" x="147.412109"/>
       <use xlink:href="#DejaVuSans-30" x="211.035156"/>
       <use xlink:href="#DejaVuSans-30" x="274.658203"/>
      </g>
     </g>
    </g>
    <g id="ytick_22">
     <g id="line2d_55">
      <g>
       <use xlink:href="#m039057d264" x="700.715" y="122.483126" style="stroke: #000000; stroke-width: 0.8"/>
      </g>
     </g>
     <g id="text_41">
      <!-- −4000 -->
      <g transform="translate(659.885312 126.282344)scale(0.1 -0.1)">
       <defs>
        <path id="DejaVuSans-34" d="M 2419 4116 
L 825 1625 
L 2419 1625 
L 2419 4116 
z
M 2253 4666 
L 3047 4666 
L 3047 1625 
L 3713 1625 
L 3713 1100 
L 3047 1100 
L 3047 0 
L 2419 0 
L 2419 1100 
L 313 1100 
L 313 1709 
L 2253 4666 
z
" transform="scale(0.015625)"/>
       </defs>
       <use xlink:href="#DejaVuSans-2212"/>
       <use xlink:href="#DejaVuSans-34" x="83.789062"/>
       <use xlink:href="#DejaVuSans-30" x="147.412109"/>
       <use xlink:href="#DejaVuSans-30" x="211.035156"/>
       <use xlink:href="#DejaVuSans-30" x="274.658203"/>
      </g>
     </g>
    </g>
    <g id="ytick_23">
     <g id="line2d_56">
      <g>
       <use xlink:href="#m039057d264" x="700.715" y="100.39222" style="stroke: #000000; stroke-width: 0.8"/>
      </g>
     </g>
     <g id="text_42">
      <!-- −2000 -->
      <g transform="translate(659.885312 104.191439)scale(0.1 -0.1)">
       <use xlink:href="#DejaVuSans-2212"/>
       <use xlink:href="#DejaVuSans-32" x="83.789062"/>
       <use xlink:href="#DejaVuSans-30" x="147.412109"/>
       <use xlink:href="#DejaVuSans-30" x="211.035156"/>
       <use xlink:href="#DejaVuSans-30" x="274.658203"/>
      </g>
     </g>
    </g>
    <g id="ytick_24">
     <g id="line2d_57">
      <g>
       <use xlink:href="#m039057d264" x="700.715" y="78.301314" style="stroke: #000000; stroke-width: 0.8"/>
      </g>
     </g>
     <g id="text_43">
      <!-- 0 -->
      <g transform="translate(687.3525 82.100533)scale(0.1 -0.1)">
       <use xlink:href="#DejaVuSans-30"/>
      </g>
     </g>
    </g>
    <g id="ytick_25">
     <g id="line2d_58">
      <g>
       <use xlink:href="#m039057d264" x="700.715" y="56.210408" style="stroke: #000000; stroke-width: 0.8"/>
      </g>
     </g>
     <g id="text_44">
      <!-- 2000 -->
      <g transform="translate(668.265 60.009627)scale(0.1 -0.1)">
       <use xlink:href="#DejaVuSans-32"/>
       <use xlink:href="#DejaVuSans-30" x="63.623047"/>
       <use xlink:href="#DejaVuSans-30" x="127.246094"/>
       <use xlink:href="#DejaVuSans-30" x="190.869141"/>
      </g>
     </g>
    </g>
    <g id="ytick_26">
     <g id="line2d_59">
      <g>
       <use xlink:href="#m039057d264" x="700.715" y="34.119503" style="stroke: #000000; stroke-width: 0.8"/>
      </g>
     </g>
     <g id="text_45">
      <!-- 4000 -->
      <g transform="translate(668.265 37.918722)scale(0.1 -0.1)">
       <use xlink:href="#DejaVuSans-34"/>
       <use xlink:href="#DejaVuSans-30" x="63.623047"/>
       <use xlink:href="#DejaVuSans-30" x="127.246094"/>
       <use xlink:href="#DejaVuSans-30" x="190.869141"/>
      </g>
     </g>
    </g>
    <g id="text_46">
     <!-- Jerk -->
     <g transform="translate(653.805625 102.992146)rotate(-90)scale(0.1 -0.1)">
      <defs>
       <path id="DejaVuSans-4a" d="M 628 4666 
L 1259 4666 
L 1259 325 
Q 1259 -519 939 -900 
Q 619 -1281 -91 -1281 
L -331 -1281 
L -331 -750 
L -134 -750 
Q 284 -750 456 -515 
Q 628 -281 628 325 
L 628 4666 
z
" transform="scale(0.015625)"/>
       <path id="DejaVuSans-6b" d="M 581 4863 
L 1159 4863 
L 1159 1991 
L 2875 3500 
L 3609 3500 
L 1753 1863 
L 3688 0 
L 2938 0 
L 1159 1709 
L 1159 0 
L 581 0 
L 581 4863 
z
" transform="scale(0.015625)"/>
      </defs>
      <use xlink:href="#DejaVuSans-4a"/>
      <use xlink:href="#DejaVuSans-65" x="29.492188"/>
      <use xlink:href="#DejaVuSans-72" x="91.015625"/>
      <use xlink:href="#DejaVuSans-6b" x="132.128906"/>
     </g>
    </g>
   </g>
   <g id="line2d_60">
    <path d="M 707.646136 74.304487 
L 713.751642 74.304487 
L 713.890403 80.770473 
L 718.608294 80.770473 
L 718.747055 78.952536 
L 722.9099 78.952536 
L 723.048662 77.90841 
L 726.65646 77.90841 
L 726.795222 79.581526 
L 732.761966 79.581526 
L 732.900727 71.947806 
L 735.675957 71.947806 
L 735.814719 81.840242 
L 739.144994 81.840242 
L 739.283756 77.717774 
L 742.197747 77.717774 
L 742.336509 72.780208 
L 744.834215 72.780208 
L 744.972977 87.176953 
L 747.609445 87.176953 
L 747.748207 72.162096 
L 749.690867 72.162096 
L 749.829629 67.167822 
L 751.77229 67.167822 
L 751.911051 84.632356 
L 753.576189 84.632356 
L 753.714951 86.707197 
L 755.935134 86.707197 
L 756.073896 66.500785 
L 758.016557 66.500785 
L 758.155318 83.461952 
L 760.236741 83.461952 
L 760.375502 88.491943 
L 762.734447 88.491943 
L 762.873209 75.948352 
L 765.232154 75.948352 
L 765.370916 69.096139 
L 767.452338 69.096139 
L 767.5911 87.100623 
L 769.53376 87.100623 
L 769.672522 74.740819 
L 771.615183 74.740819 
L 771.753944 77.097557 
L 773.696605 77.097557 
L 773.835367 73.951632 
L 775.500504 73.951632 
L 775.639266 85.645233 
L 777.443165 85.645233 
L 777.581927 74.638976 
L 778.83078 74.638976 
L 778.969542 53.590407 
L 780.773441 53.590407 
L 780.912202 92.252116 
L 783.826194 92.252116 
L 783.964955 76.323441 
L 787.433992 76.323441 
L 787.572754 80.636616 
L 791.596837 80.636616 
L 791.735599 77.04333 
L 795.759682 77.04333 
L 795.898443 79.072136 
L 799.922526 79.072136 
L 800.061288 77.724734 
L 804.640417 77.724734 
L 804.779178 78.192505 
L 809.913354 78.192505 
L 810.052115 78.950735 
L 815.18629 78.950735 
L 815.325052 77.795267 
L 820.042942 77.795267 
L 820.181704 78.951577 
L 823.511979 78.951577 
L 823.650741 77.930667 
L 826.842255 77.930667 
L 826.981017 79.011159 
L 830.450054 79.011159 
L 830.588815 79.30994 
L 833.919091 79.30994 
L 834.057853 76.094532 
L 838.081936 76.094532 
L 838.220697 79.385425 
L 842.522303 79.385425 
L 842.661065 78.564395 
L 846.268864 78.564395 
L 846.268864 78.564395 
" clip-path="url(#pe4bcf54ab4)" style="fill: none; stroke: #1f77b4; stroke-width: 1.5; stroke-linecap: square"/>
   </g>
   <g id="line2d_61">
    <path d="M 707.646136 70.5707 
L 713.751642 70.5707 
L 713.890403 78.301314 
L 722.9099 78.301314 
L 723.048662 72.861147 
L 726.65646 72.861147 
L 726.795222 85.389482 
L 732.761966 85.389482 
L 732.900727 70.540973 
L 735.675957 70.540973 
L 735.814719 78.301314 
L 742.197747 78.301314 
L 742.336509 65.150288 
L 744.834215 65.150288 
L 744.972977 99.91795 
L 747.609445 99.91795 
L 747.748207 70.78653 
L 749.690867 70.78653 
L 749.829629 72.431572 
L 751.77229 72.431572 
L 751.911051 78.301314 
L 755.935134 78.301314 
L 756.073896 66.192293 
L 758.016557 66.192293 
L 758.155318 90.854212 
L 760.236741 90.854212 
L 760.375502 75.414236 
L 762.734447 75.414236 
L 762.873209 75.865426 
L 765.232154 75.865426 
L 765.370916 81.002099 
L 767.452338 81.002099 
L 767.5911 72.432563 
L 769.53376 72.432563 
L 769.672522 81.956057 
L 771.615183 81.956057 
L 771.753944 84.260601 
L 773.696605 84.260601 
L 773.835367 61.531545 
L 775.500504 61.531545 
L 775.639266 86.810944 
L 777.443165 86.810944 
L 777.581927 58.084725 
L 778.83078 58.084725 
L 778.969542 100.187701 
L 780.773441 100.187701 
L 780.912202 78.301314 
L 795.759682 78.301314 
L 795.898443 79.123357 
L 799.922526 79.123357 
L 800.061288 76.926118 
L 804.640417 76.926118 
L 804.779178 78.899496 
L 809.913354 78.899496 
L 810.052115 78.301314 
L 842.522303 78.301314 
L 842.661065 100.691611 
L 846.268864 100.691611 
L 846.268864 100.691611 
" clip-path="url(#pe4bcf54ab4)" style="fill: none; stroke: #ff7f0e; stroke-width: 1.5; stroke-linecap: square"/>
   </g>
   <g id="line2d_62">
    <path d="M 707.646136 77.81139 
L 713.751642 77.81139 
L 713.890403 78.447825 
L 718.608294 78.447825 
L 718.747055 78.869565 
L 722.9099 78.869565 
L 723.048662 77.435953 
L 726.65646 77.435953 
L 726.795222 78.466996 
L 735.675957 78.467498 
L 735.814719 80.110662 
L 739.144994 80.110662 
L 739.283756 82.445256 
L 742.197747 82.445256 
L 742.336509 64.041623 
L 744.834215 64.041623 
L 744.972977 97.210143 
L 747.609445 97.210143 
L 747.748207 53.981642 
L 749.690867 53.981642 
L 749.829629 93.791341 
L 751.77229 93.791341 
L 751.911051 67.766996 
L 753.576189 67.766996 
L 753.714951 88.037462 
L 755.935134 88.037462 
L 756.073896 65.677349 
L 758.016557 65.677349 
L 758.155318 77.434173 
L 760.236741 77.434173 
L 760.375502 83.44721 
L 762.734447 83.44721 
L 762.873209 74.134238 
L 765.232154 74.134238 
L 765.370916 78.301313 
L 775.500504 78.301314 
L 775.639266 69.235272 
L 777.443165 69.235272 
L 777.581927 91.825349 
L 778.83078 91.825349 
L 778.969542 53.654496 
L 780.773441 53.654496 
L 780.912202 91.141656 
L 783.826194 91.141656 
L 783.964955 79.886714 
L 787.433992 79.886714 
L 787.572754 77.812561 
L 791.596837 77.812561 
L 791.735599 79.39845 
L 795.759682 79.39845 
L 795.898443 75.952439 
L 799.922526 75.952439 
L 800.061288 79.645643 
L 804.640417 79.645643 
L 804.779178 78.697015 
L 809.913354 78.697015 
L 810.052115 78.297181 
L 820.042942 78.38673 
L 820.181704 77.327779 
L 823.511979 77.327779 
L 823.650741 72.154194 
L 826.842255 72.154194 
L 826.981017 88.71878 
L 830.450054 88.71878 
L 830.588815 77.319831 
L 833.919091 77.319831 
L 834.057853 74.955481 
L 838.081936 74.955481 
L 838.220697 78.849296 
L 842.522303 78.849296 
L 842.661065 78.620941 
L 846.268864 78.620941 
L 846.268864 78.620941 
" clip-path="url(#pe4bcf54ab4)" style="fill: none; stroke: #2ca02c; stroke-width: 1.5; stroke-linecap: square"/>
   </g>
   <g id="line2d_63">
    <path d="M 707.646136 79.971352 
L 713.751642 79.971352 
L 713.890403 75.628158 
L 718.608294 75.628158 
L 718.747055 77.965511 
L 722.9099 77.965511 
L 723.187423 78.145793 
L 726.65646 78.145793 
L 726.795222 79.222429 
L 732.761966 79.222429 
L 732.900727 81.599672 
L 735.675957 81.599672 
L 735.814719 76.585892 
L 739.144994 76.585892 
L 739.283756 78.517553 
L 742.197747 78.517553 
L 742.336509 65.978862 
L 744.834215 65.978862 
L 744.972977 89.383909 
L 747.609445 89.383909 
L 747.748207 76.623135 
L 749.690867 76.623135 
L 749.829629 83.494591 
L 751.77229 83.494591 
L 751.911051 69.993194 
L 753.576189 69.993194 
L 753.714951 76.837595 
L 758.016557 76.931485 
L 758.155318 83.222352 
L 760.236741 83.222352 
L 760.375502 77.736199 
L 762.734447 77.736199 
L 762.873209 74.164755 
L 765.232154 74.164755 
L 765.370916 72.506349 
L 767.452338 72.506349 
L 767.5911 78.960827 
L 769.53376 78.960827 
L 769.672522 85.857888 
L 771.615183 85.857888 
L 771.753944 82.437389 
L 773.696605 82.437389 
L 773.835367 73.724472 
L 775.500504 73.724472 
L 775.639266 90.430363 
L 777.443165 90.430363 
L 777.581927 65.143598 
L 778.83078 65.143598 
L 778.969542 84.200943 
L 780.773441 84.200943 
L 780.912202 72.600635 
L 783.826194 72.600635 
L 783.964955 79.908005 
L 787.433992 79.908005 
L 787.572754 79.15269 
L 791.596837 79.15269 
L 791.735599 80.857232 
L 795.759682 80.857232 
L 795.898443 76.634644 
L 799.922526 76.634644 
L 800.200049 76.49087 
L 804.640417 76.49087 
L 804.779178 77.755743 
L 809.913354 77.755743 
L 810.052115 79.035467 
L 815.18629 79.035467 
L 815.325052 75.898925 
L 820.042942 75.898925 
L 820.181704 86.691849 
L 823.511979 86.691849 
L 823.650741 69.968588 
L 826.842255 69.968588 
L 826.981017 78.993602 
L 830.450054 78.993602 
L 830.588815 83.819102 
L 833.919091 83.819102 
L 834.057853 78.089755 
L 838.081936 78.089755 
L 838.220697 68.108962 
L 842.522303 68.108962 
L 842.661065 109.652437 
L 846.268864 109.652437 
L 846.268864 109.652437 
" clip-path="url(#pe4bcf54ab4)" style="fill: none; stroke: #d62728; stroke-width: 1.5; stroke-linecap: square"/>
   </g>
   <g id="line2d_64">
    <path d="M 707.646136 78.382268 
L 713.751642 78.382268 
L 714.029165 78.223953 
L 718.608294 78.223953 
L 718.885817 78.349849 
L 732.761966 78.269871 
L 732.900727 77.104502 
L 735.675957 77.104502 
L 735.814719 80.752354 
L 739.144994 80.752354 
L 739.283756 76.511576 
L 742.197747 76.511576 
L 742.336509 78.826552 
L 744.834215 78.826552 
L 744.972977 76.979056 
L 747.609445 76.979056 
L 747.748207 77.924785 
L 749.690867 77.924785 
L 749.829629 77.107528 
L 751.77229 77.107528 
L 751.911051 88.483994 
L 753.576189 88.483994 
L 753.714951 42.761294 
L 755.935134 42.761294 
L 756.073896 91.455944 
L 758.016557 91.455944 
L 758.155318 137.46929 
L 760.236741 137.46929 
L 760.375502 61.022591 
L 762.734447 61.022591 
L 762.873209 56.268417 
L 765.232154 56.268417 
L 765.370916 84.923647 
L 767.452338 84.923647 
L 767.5911 76.51986 
L 769.53376 76.51986 
L 769.672522 78.664902 
L 773.696605 78.59488 
L 773.835367 78.014123 
L 775.500504 78.014123 
L 775.639266 79.626745 
L 777.443165 79.626745 
L 777.581927 74.844757 
L 778.83078 74.844757 
L 778.969542 78.713116 
L 780.773441 78.713116 
L 780.912202 79.11181 
L 783.826194 79.11181 
L 783.964955 77.800244 
L 787.433992 77.800244 
L 787.572754 78.55526 
L 791.596837 78.55526 
L 791.735599 78.244191 
L 795.759682 78.244191 
L 796.037205 78.385085 
L 799.922526 78.385085 
L 800.061288 77.965467 
L 804.640417 77.965467 
L 804.779178 78.567836 
L 809.913354 78.567836 
L 810.052115 76.96108 
L 815.18629 76.96108 
L 815.325052 76.432796 
L 820.042942 76.432796 
L 820.181704 79.068394 
L 823.511979 79.068394 
L 823.650741 85.693116 
L 826.842255 85.693116 
L 826.981017 79.7254 
L 830.450054 79.7254 
L 830.588815 57.739539 
L 833.919091 57.739539 
L 834.057853 104.845573 
L 838.081936 104.845573 
L 838.220697 63.108076 
L 842.522303 63.108076 
L 842.661065 92.273681 
L 846.268864 92.273681 
L 846.268864 92.273681 
" clip-path="url(#pe4bcf54ab4)" style="fill: none; stroke: #9467bd; stroke-width: 1.5; stroke-linecap: square"/>
   </g>
   <g id="line2d_65">
    <path d="M 707.646136 77.603938 
L 713.751642 77.603938 
L 713.890403 79.93268 
L 718.608294 79.93268 
L 718.747055 77.454951 
L 722.9099 77.454951 
L 723.048662 86.38676 
L 726.65646 86.38676 
L 726.795222 67.808273 
L 732.761966 67.808273 
L 732.900727 76.104722 
L 735.675957 76.104722 
L 735.814719 92.168183 
L 739.144994 92.168183 
L 739.283756 83.081481 
L 742.197747 83.081481 
L 742.336509 88.013883 
L 744.834215 88.013883 
L 744.972977 60.307353 
L 747.609445 60.307353 
L 747.748207 45.875955 
L 749.690867 45.875955 
L 749.829629 109.353259 
L 751.77229 109.353259 
L 751.911051 83.275212 
L 753.576189 83.275212 
L 753.714951 86.537607 
L 755.935134 86.537607 
L 756.073896 36.179419 
L 758.016557 36.179419 
L 758.155318 111.20154 
L 760.236741 111.20154 
L 760.375502 76.628241 
L 762.734447 76.628241 
L 762.873209 87.453128 
L 765.232154 87.453128 
L 765.370916 63.258832 
L 767.452338 63.258832 
L 767.5911 78.515076 
L 769.53376 78.515076 
L 769.672522 68.15047 
L 771.615183 68.15047 
L 771.753944 109.282153 
L 773.696605 109.282153 
L 773.835367 40.258006 
L 775.500504 40.258006 
L 775.639266 42.178675 
L 777.443165 42.178675 
L 777.581927 166.717255 
L 778.83078 166.717255 
L 778.969542 61.802979 
L 780.773441 61.802979 
L 780.912202 81.954949 
L 783.826194 81.954949 
L 783.964955 76.420348 
L 787.433992 76.420348 
L 787.572754 76.859106 
L 791.596837 76.859106 
L 791.735599 73.487733 
L 795.759682 73.487733 
L 795.898443 84.191524 
L 799.922526 84.191524 
L 800.061288 82.664944 
L 804.640417 82.664944 
L 804.779178 75.062443 
L 809.913354 75.062443 
L 810.052115 80.09629 
L 815.18629 80.09629 
L 815.325052 82.162924 
L 820.042942 82.162924 
L 820.181704 72.583451 
L 823.511979 72.583451 
L 823.650741 74.852597 
L 826.842255 74.852597 
L 826.981017 83.501432 
L 830.450054 83.501432 
L 830.588815 55.010203 
L 833.919091 55.010203 
L 834.057853 98.161685 
L 838.081936 98.161685 
L 838.220697 79.042173 
L 842.522303 79.042173 
L 842.661065 80.750287 
L 846.268864 80.750287 
L 846.268864 80.750287 
" clip-path="url(#pe4bcf54ab4)" style="fill: none; stroke: #8c564b; stroke-width: 1.5; stroke-linecap: square"/>
   </g>
   <g id="line2d_66">
    <path d="M 707.646136 77.870323 
L 713.751642 77.870323 
L 713.890403 80.586882 
L 718.608294 80.586882 
L 718.747055 73.556458 
L 722.9099 73.556458 
L 723.048662 80.949545 
L 726.65646 80.949545 
L 726.795222 83.754268 
L 732.761966 83.754268 
L 732.900727 65.600339 
L 735.675957 65.600339 
L 735.814719 69.835794 
L 739.144994 69.835794 
L 739.283756 94.152097 
L 742.197747 94.152097 
L 742.336509 57.989385 
L 744.834215 57.989385 
L 744.972977 123.251434 
L 747.609445 123.251434 
L 747.748207 29.327001 
L 749.690867 29.327001 
L 749.829629 78.760823 
L 751.77229 78.760823 
L 751.911051 71.87694 
L 753.576189 71.87694 
L 753.714951 115.075654 
L 755.935134 115.075654 
L 756.073896 50.742931 
L 758.016557 50.742931 
L 758.155318 70.623695 
L 760.236741 70.623695 
L 760.375502 51.685402 
L 762.734447 51.685402 
L 762.873209 127.494671 
L 765.232154 127.494671 
L 765.370916 38.174424 
L 767.452338 38.174424 
L 767.5911 100.502661 
L 769.53376 100.502661 
L 769.672522 91.112974 
L 771.615183 91.112974 
L 771.753944 64.33216 
L 773.696605 64.33216 
L 773.835367 49.394845 
L 775.500504 49.394845 
L 775.639266 128.895801 
L 777.443165 128.895801 
L 777.581927 28.338559 
L 778.83078 28.338559 
L 778.969542 20.262351 
L 780.773441 20.262351 
L 780.912202 124.934166 
L 783.826194 124.934166 
L 783.964955 77.721473 
L 787.433992 77.721473 
L 787.572754 74.088917 
L 791.596837 74.088917 
L 791.735599 74.994934 
L 795.759682 74.994934 
L 795.898443 83.093119 
L 799.922526 83.093119 
L 800.061288 78.853217 
L 804.640417 78.853217 
L 804.779178 78.529353 
L 809.913354 78.529353 
L 810.052115 78.256373 
L 820.042942 78.358844 
L 820.181704 77.950901 
L 823.511979 77.950901 
L 823.650741 85.793806 
L 826.842255 85.793806 
L 826.981017 80.199887 
L 830.450054 80.199887 
L 830.588815 81.901762 
L 833.919091 81.901762 
L 834.057853 45.638468 
L 838.081936 45.638468 
L 838.220697 102.93291 
L 842.522303 102.93291 
L 842.661065 71.022935 
L 846.268864 71.022935 
L 846.268864 71.022935 
" clip-path="url(#pe4bcf54ab4)" style="fill: none; stroke: #e377c2; stroke-width: 1.5; stroke-linecap: square"/>
   </g>
   <g id="patch_18">
    <path d="M 700.715 174.04 
L 700.715 12.939605 
" style="fill: none; stroke: #000000; stroke-width: 0.8; stroke-linejoin: miter; stroke-linecap: square"/>
   </g>
   <g id="patch_19">
    <path d="M 853.2 174.04 
L 853.2 12.939605 
" style="fill: none; stroke: #000000; stroke-width: 0.8; stroke-linejoin: miter; stroke-linecap: square"/>
   </g>
   <g id="patch_20">
    <path d="M 700.715 174.04 
L 853.2 174.04 
" style="fill: none; stroke: #000000; stroke-width: 0.8; stroke-linejoin: miter; stroke-linecap: square"/>
   </g>
   <g id="patch_21">
    <path d="M 700.715 12.939605 
L 853.2 12.939605 
" style="fill: none; stroke: #000000; stroke-width: 0.8; stroke-linejoin: miter; stroke-linecap: square"/>
   </g>
  </g>
 </g>
 <defs>
  <clipPath id="p5d3819abb7">
   <rect x="46.64" y="12.939605" width="152.485" height="161.100395"/>
  </clipPath>
  <clipPath id="pb99d138ad5">
   <rect x="264.665" y="12.939605" width="152.485" height="161.100395"/>
  </clipPath>
  <clipPath id="p04e400325e">
   <rect x="482.69" y="12.939605" width="152.485" height="161.100395"/>
  </clipPath>
  <clipPath id="pe4bcf54ab4">
   <rect x="700.715" y="12.939605" width="152.485" height="161.100395"/>
  </clipPath>
 </defs>
</svg>
