<?xml version="1.0" encoding="utf-8" standalone="no"?>
<!DOCTYPE svg PUBLIC "-//W3C//DTD SVG 1.1//EN"
  "http://www.w3.org/Graphics/SVG/1.1/DTD/svg11.dtd">
<svg xmlns:xlink="http://www.w3.org/1999/xlink" width="864pt" height="216pt" viewBox="0 0 864 216" xmlns="http://www.w3.org/2000/svg" version="1.1">
 <metadata>
  <rdf:RDF xmlns:dc="http://purl.org/dc/elements/1.1/" xmlns:cc="http://creativecommons.org/ns#" xmlns:rdf="http://www.w3.org/1999/02/22-rdf-syntax-ns#">
   <cc:Work>
    <dc:type rdf:resource="http://purl.org/dc/dcmitype/StillImage"/>
    <dc:date>2023-07-24T16:39:48.242373</dc:date>
    <dc:format>image/svg+xml</dc:format>
    <dc:creator>
     <cc:Agent>
      <dc:title>Matplotlib v3.5.2, https://matplotlib.org/</dc:title>
     </cc:Agent>
    </dc:creator>
   </cc:Work>
  </rdf:RDF>
 </metadata>
 <defs>
  <style type="text/css">*{stroke-linejoin: round; stroke-linecap: butt}</style>
 </defs>
 <g id="figure_1">
  <g id="patch_1">
   <path d="M 0 216 
L 864 216 
L 864 0 
L 0 0 
z
" style="fill: #ffffff"/>
  </g>
  <g id="axes_1">
   <g id="patch_2">
    <path d="M 46.64 174.04 
L 206.2125 174.04 
L 206.2125 10.8 
L 46.64 10.8 
z
" style="fill: #ffffff"/>
   </g>
   <g id="matplotlib.axis_1">
    <g id="xtick_1">
     <g id="line2d_1">
      <defs>
       <path id="m19b88647e2" d="M 0 0 
L 0 3.5 
" style="stroke: #000000; stroke-width: 0.8"/>
      </defs>
      <g>
       <use xlink:href="#m19b88647e2" x="53.893295" y="174.04" style="stroke: #000000; stroke-width: 0.8"/>
      </g>
     </g>
     <g id="text_1">
      <!-- 0.0 -->
      <g transform="translate(45.941733 188.638438)scale(0.1 -0.1)">
       <defs>
        <path id="DejaVuSans-30" d="M 2034 4250 
Q 1547 4250 1301 3770 
Q 1056 3291 1056 2328 
Q 1056 1369 1301 889 
Q 1547 409 2034 409 
Q 2525 409 2770 889 
Q 3016 1369 3016 2328 
Q 3016 3291 2770 3770 
Q 2525 4250 2034 4250 
z
M 2034 4750 
Q 2819 4750 3233 4129 
Q 3647 3509 3647 2328 
Q 3647 1150 3233 529 
Q 2819 -91 2034 -91 
Q 1250 -91 836 529 
Q 422 1150 422 2328 
Q 422 3509 836 4129 
Q 1250 4750 2034 4750 
z
" transform="scale(0.015625)"/>
        <path id="DejaVuSans-2e" d="M 684 794 
L 1344 794 
L 1344 0 
L 684 0 
L 684 794 
z
" transform="scale(0.015625)"/>
       </defs>
       <use xlink:href="#DejaVuSans-30"/>
       <use xlink:href="#DejaVuSans-2e" x="63.623047"/>
       <use xlink:href="#DejaVuSans-30" x="95.410156"/>
      </g>
     </g>
    </g>
    <g id="xtick_2">
     <g id="line2d_2">
      <g>
       <use xlink:href="#m19b88647e2" x="95.304902" y="174.04" style="stroke: #000000; stroke-width: 0.8"/>
      </g>
     </g>
     <g id="text_2">
      <!-- 0.5 -->
      <g transform="translate(87.353339 188.638438)scale(0.1 -0.1)">
       <defs>
        <path id="DejaVuSans-35" d="M 691 4666 
L 3169 4666 
L 3169 4134 
L 1269 4134 
L 1269 2991 
Q 1406 3038 1543 3061 
Q 1681 3084 1819 3084 
Q 2600 3084 3056 2656 
Q 3513 2228 3513 1497 
Q 3513 744 3044 326 
Q 2575 -91 1722 -91 
Q 1428 -91 1123 -41 
Q 819 9 494 109 
L 494 744 
Q 775 591 1075 516 
Q 1375 441 1709 441 
Q 2250 441 2565 725 
Q 2881 1009 2881 1497 
Q 2881 1984 2565 2268 
Q 2250 2553 1709 2553 
Q 1456 2553 1204 2497 
Q 953 2441 691 2322 
L 691 4666 
z
" transform="scale(0.015625)"/>
       </defs>
       <use xlink:href="#DejaVuSans-30"/>
       <use xlink:href="#DejaVuSans-2e" x="63.623047"/>
       <use xlink:href="#DejaVuSans-35" x="95.410156"/>
      </g>
     </g>
    </g>
    <g id="xtick_3">
     <g id="line2d_3">
      <g>
       <use xlink:href="#m19b88647e2" x="136.716508" y="174.04" style="stroke: #000000; stroke-width: 0.8"/>
      </g>
     </g>
     <g id="text_3">
      <!-- 1.0 -->
      <g transform="translate(128.764946 188.638438)scale(0.1 -0.1)">
       <defs>
        <path id="DejaVuSans-31" d="M 794 531 
L 1825 531 
L 1825 4091 
L 703 3866 
L 703 4441 
L 1819 4666 
L 2450 4666 
L 2450 531 
L 3481 531 
L 3481 0 
L 794 0 
L 794 531 
z
" transform="scale(0.015625)"/>
       </defs>
       <use xlink:href="#DejaVuSans-31"/>
       <use xlink:href="#DejaVuSans-2e" x="63.623047"/>
       <use xlink:href="#DejaVuSans-30" x="95.410156"/>
      </g>
     </g>
    </g>
    <g id="xtick_4">
     <g id="line2d_4">
      <g>
       <use xlink:href="#m19b88647e2" x="178.128114" y="174.04" style="stroke: #000000; stroke-width: 0.8"/>
      </g>
     </g>
     <g id="text_4">
      <!-- 1.5 -->
      <g transform="translate(170.176552 188.638438)scale(0.1 -0.1)">
       <use xlink:href="#DejaVuSans-31"/>
       <use xlink:href="#DejaVuSans-2e" x="63.623047"/>
       <use xlink:href="#DejaVuSans-35" x="95.410156"/>
      </g>
     </g>
    </g>
    <g id="text_5">
     <!-- Time -->
     <g transform="translate(114.192656 202.316563)scale(0.1 -0.1)">
      <defs>
       <path id="DejaVuSans-54" d="M -19 4666 
L 3928 4666 
L 3928 4134 
L 2272 4134 
L 2272 0 
L 1638 0 
L 1638 4134 
L -19 4134 
L -19 4666 
z
" transform="scale(0.015625)"/>
       <path id="DejaVuSans-69" d="M 603 3500 
L 1178 3500 
L 1178 0 
L 603 0 
L 603 3500 
z
M 603 4863 
L 1178 4863 
L 1178 4134 
L 603 4134 
L 603 4863 
z
" transform="scale(0.015625)"/>
       <path id="DejaVuSans-6d" d="M 3328 2828 
Q 3544 3216 3844 3400 
Q 4144 3584 4550 3584 
Q 5097 3584 5394 3201 
Q 5691 2819 5691 2113 
L 5691 0 
L 5113 0 
L 5113 2094 
Q 5113 2597 4934 2840 
Q 4756 3084 4391 3084 
Q 3944 3084 3684 2787 
Q 3425 2491 3425 1978 
L 3425 0 
L 2847 0 
L 2847 2094 
Q 2847 2600 2669 2842 
Q 2491 3084 2119 3084 
Q 1678 3084 1418 2786 
Q 1159 2488 1159 1978 
L 1159 0 
L 581 0 
L 581 3500 
L 1159 3500 
L 1159 2956 
Q 1356 3278 1631 3431 
Q 1906 3584 2284 3584 
Q 2666 3584 2933 3390 
Q 3200 3197 3328 2828 
z
" transform="scale(0.015625)"/>
       <path id="DejaVuSans-65" d="M 3597 1894 
L 3597 1613 
L 953 1613 
Q 991 1019 1311 708 
Q 1631 397 2203 397 
Q 2534 397 2845 478 
Q 3156 559 3463 722 
L 3463 178 
Q 3153 47 2828 -22 
Q 2503 -91 2169 -91 
Q 1331 -91 842 396 
Q 353 884 353 1716 
Q 353 2575 817 3079 
Q 1281 3584 2069 3584 
Q 2775 3584 3186 3129 
Q 3597 2675 3597 1894 
z
M 3022 2063 
Q 3016 2534 2758 2815 
Q 2500 3097 2075 3097 
Q 1594 3097 1305 2825 
Q 1016 2553 972 2059 
L 3022 2063 
z
" transform="scale(0.015625)"/>
      </defs>
      <use xlink:href="#DejaVuSans-54"/>
      <use xlink:href="#DejaVuSans-69" x="57.958984"/>
      <use xlink:href="#DejaVuSans-6d" x="85.742188"/>
      <use xlink:href="#DejaVuSans-65" x="183.154297"/>
     </g>
    </g>
   </g>
   <g id="matplotlib.axis_2">
    <g id="ytick_1">
     <g id="line2d_5">
      <defs>
       <path id="m2aebdd27e5" d="M 0 0 
L -3.5 0 
" style="stroke: #000000; stroke-width: 0.8"/>
      </defs>
      <g>
       <use xlink:href="#m2aebdd27e5" x="46.64" y="149.866077" style="stroke: #000000; stroke-width: 0.8"/>
      </g>
     </g>
     <g id="text_6">
      <!-- −2 -->
      <g transform="translate(24.897813 153.665296)scale(0.1 -0.1)">
       <defs>
        <path id="DejaVuSans-2212" d="M 678 2272 
L 4684 2272 
L 4684 1741 
L 678 1741 
L 678 2272 
z
" transform="scale(0.015625)"/>
        <path id="DejaVuSans-32" d="M 1228 531 
L 3431 531 
L 3431 0 
L 469 0 
L 469 531 
Q 828 903 1448 1529 
Q 2069 2156 2228 2338 
Q 2531 2678 2651 2914 
Q 2772 3150 2772 3378 
Q 2772 3750 2511 3984 
Q 2250 4219 1831 4219 
Q 1534 4219 1204 4116 
Q 875 4013 500 3803 
L 500 4441 
Q 881 4594 1212 4672 
Q 1544 4750 1819 4750 
Q 2544 4750 2975 4387 
Q 3406 4025 3406 3419 
Q 3406 3131 3298 2873 
Q 3191 2616 2906 2266 
Q 2828 2175 2409 1742 
Q 1991 1309 1228 531 
z
" transform="scale(0.015625)"/>
       </defs>
       <use xlink:href="#DejaVuSans-2212"/>
       <use xlink:href="#DejaVuSans-32" x="83.789062"/>
      </g>
     </g>
    </g>
    <g id="ytick_2">
     <g id="line2d_6">
      <g>
       <use xlink:href="#m2aebdd27e5" x="46.64" y="121.101684" style="stroke: #000000; stroke-width: 0.8"/>
      </g>
     </g>
     <g id="text_7">
      <!-- −1 -->
      <g transform="translate(24.897813 124.900903)scale(0.1 -0.1)">
       <use xlink:href="#DejaVuSans-2212"/>
       <use xlink:href="#DejaVuSans-31" x="83.789062"/>
      </g>
     </g>
    </g>
    <g id="ytick_3">
     <g id="line2d_7">
      <g>
       <use xlink:href="#m2aebdd27e5" x="46.64" y="92.337292" style="stroke: #000000; stroke-width: 0.8"/>
      </g>
     </g>
     <g id="text_8">
      <!-- 0 -->
      <g transform="translate(33.2775 96.13651)scale(0.1 -0.1)">
       <use xlink:href="#DejaVuSans-30"/>
      </g>
     </g>
    </g>
    <g id="ytick_4">
     <g id="line2d_8">
      <g>
       <use xlink:href="#m2aebdd27e5" x="46.64" y="63.572899" style="stroke: #000000; stroke-width: 0.8"/>
      </g>
     </g>
     <g id="text_9">
      <!-- 1 -->
      <g transform="translate(33.2775 67.372118)scale(0.1 -0.1)">
       <use xlink:href="#DejaVuSans-31"/>
      </g>
     </g>
    </g>
    <g id="ytick_5">
     <g id="line2d_9">
      <g>
       <use xlink:href="#m2aebdd27e5" x="46.64" y="34.808506" style="stroke: #000000; stroke-width: 0.8"/>
      </g>
     </g>
     <g id="text_10">
      <!-- 2 -->
      <g transform="translate(33.2775 38.607725)scale(0.1 -0.1)">
       <use xlink:href="#DejaVuSans-32"/>
      </g>
     </g>
    </g>
    <g id="text_11">
     <!-- Position -->
     <g transform="translate(18.818125 111.884062)rotate(-90)scale(0.1 -0.1)">
      <defs>
       <path id="DejaVuSans-50" d="M 1259 4147 
L 1259 2394 
L 2053 2394 
Q 2494 2394 2734 2622 
Q 2975 2850 2975 3272 
Q 2975 3691 2734 3919 
Q 2494 4147 2053 4147 
L 1259 4147 
z
M 628 4666 
L 2053 4666 
Q 2838 4666 3239 4311 
Q 3641 3956 3641 3272 
Q 3641 2581 3239 2228 
Q 2838 1875 2053 1875 
L 1259 1875 
L 1259 0 
L 628 0 
L 628 4666 
z
" transform="scale(0.015625)"/>
       <path id="DejaVuSans-6f" d="M 1959 3097 
Q 1497 3097 1228 2736 
Q 959 2375 959 1747 
Q 959 1119 1226 758 
Q 1494 397 1959 397 
Q 2419 397 2687 759 
Q 2956 1122 2956 1747 
Q 2956 2369 2687 2733 
Q 2419 3097 1959 3097 
z
M 1959 3584 
Q 2709 3584 3137 3096 
Q 3566 2609 3566 1747 
Q 3566 888 3137 398 
Q 2709 -91 1959 -91 
Q 1206 -91 779 398 
Q 353 888 353 1747 
Q 353 2609 779 3096 
Q 1206 3584 1959 3584 
z
" transform="scale(0.015625)"/>
       <path id="DejaVuSans-73" d="M 2834 3397 
L 2834 2853 
Q 2591 2978 2328 3040 
Q 2066 3103 1784 3103 
Q 1356 3103 1142 2972 
Q 928 2841 928 2578 
Q 928 2378 1081 2264 
Q 1234 2150 1697 2047 
L 1894 2003 
Q 2506 1872 2764 1633 
Q 3022 1394 3022 966 
Q 3022 478 2636 193 
Q 2250 -91 1575 -91 
Q 1294 -91 989 -36 
Q 684 19 347 128 
L 347 722 
Q 666 556 975 473 
Q 1284 391 1588 391 
Q 1994 391 2212 530 
Q 2431 669 2431 922 
Q 2431 1156 2273 1281 
Q 2116 1406 1581 1522 
L 1381 1569 
Q 847 1681 609 1914 
Q 372 2147 372 2553 
Q 372 3047 722 3315 
Q 1072 3584 1716 3584 
Q 2034 3584 2315 3537 
Q 2597 3491 2834 3397 
z
" transform="scale(0.015625)"/>
       <path id="DejaVuSans-74" d="M 1172 4494 
L 1172 3500 
L 2356 3500 
L 2356 3053 
L 1172 3053 
L 1172 1153 
Q 1172 725 1289 603 
Q 1406 481 1766 481 
L 2356 481 
L 2356 0 
L 1766 0 
Q 1100 0 847 248 
Q 594 497 594 1153 
L 594 3053 
L 172 3053 
L 172 3500 
L 594 3500 
L 594 4494 
L 1172 4494 
z
" transform="scale(0.015625)"/>
       <path id="DejaVuSans-6e" d="M 3513 2113 
L 3513 0 
L 2938 0 
L 2938 2094 
Q 2938 2591 2744 2837 
Q 2550 3084 2163 3084 
Q 1697 3084 1428 2787 
Q 1159 2491 1159 1978 
L 1159 0 
L 581 0 
L 581 3500 
L 1159 3500 
L 1159 2956 
Q 1366 3272 1645 3428 
Q 1925 3584 2291 3584 
Q 2894 3584 3203 3211 
Q 3513 2838 3513 2113 
z
" transform="scale(0.015625)"/>
      </defs>
      <use xlink:href="#DejaVuSans-50"/>
      <use xlink:href="#DejaVuSans-6f" x="56.677734"/>
      <use xlink:href="#DejaVuSans-73" x="117.859375"/>
      <use xlink:href="#DejaVuSans-69" x="169.958984"/>
      <use xlink:href="#DejaVuSans-74" x="197.742188"/>
      <use xlink:href="#DejaVuSans-69" x="236.951172"/>
      <use xlink:href="#DejaVuSans-6f" x="264.734375"/>
      <use xlink:href="#DejaVuSans-6e" x="325.916016"/>
     </g>
    </g>
   </g>
   <g id="line2d_10">
    <path d="M 53.893295 94.612346 
L 60.282585 94.499263 
L 67.688352 94.129371 
L 89.760442 92.864429 
L 98.763532 92.700109 
L 111.106477 92.718823 
L 140.584334 92.830905 
L 160.333047 92.608638 
L 184.438093 92.356683 
L 198.959205 92.349204 
L 198.959205 92.349204 
" clip-path="url(#p8be099ba1b)" style="fill: none; stroke: #1f77b4; stroke-width: 1.5; stroke-linecap: square"/>
   </g>
   <g id="line2d_11">
    <path d="M 53.893295 120.759569 
L 56.942729 120.6464 
L 59.992163 120.313958 
L 63.332018 119.722244 
L 67.107507 118.814223 
L 71.609052 117.487904 
L 78.288764 115.255004 
L 137.970534 94.533619 
L 182.695559 79.116611 
L 187.197104 77.835683 
L 190.827382 77.020723 
L 194.022026 76.518143 
L 197.07146 76.258528 
L 198.959205 76.213525 
L 198.959205 76.213525 
" clip-path="url(#p8be099ba1b)" style="fill: none; stroke: #ff7f0e; stroke-width: 1.5; stroke-linecap: square"/>
   </g>
   <g id="line2d_12">
    <path d="M 53.893295 90.748087 
L 57.378362 90.641139 
L 61.00864 90.308481 
L 64.929341 89.717789 
L 69.285674 88.825571 
L 74.513275 87.517581 
L 83.806786 84.910337 
L 92.955087 82.437226 
L 100.215643 80.710232 
L 107.185777 79.279984 
L 114.446333 78.017112 
L 122.287733 76.88193 
L 130.564767 75.912195 
L 138.987012 75.151217 
L 147.118835 74.640215 
L 154.960235 74.36902 
L 162.946847 74.317647 
L 171.369092 74.490668 
L 182.84077 74.974597 
L 194.312449 75.397687 
L 198.959205 75.44498 
L 198.959205 75.44498 
" clip-path="url(#p8be099ba1b)" style="fill: none; stroke: #2ca02c; stroke-width: 1.5; stroke-linecap: square"/>
   </g>
   <g id="line2d_13">
    <path d="M 53.893295 166.62 
L 58.975685 166.508751 
L 64.203285 166.171272 
L 70.01173 165.565067 
L 76.836652 164.616352 
L 87.146642 162.926653 
L 103.265076 160.30494 
L 112.122955 159.104799 
L 120.109566 158.247817 
L 128.677022 157.562127 
L 140.729545 156.847779 
L 161.930369 155.589023 
L 184.292881 154.191005 
L 193.005549 153.912027 
L 198.959205 153.855636 
L 198.959205 153.855636 
" clip-path="url(#p8be099ba1b)" style="fill: none; stroke: #d62728; stroke-width: 1.5; stroke-linecap: square"/>
   </g>
   <g id="line2d_14">
    <path d="M 53.893295 90.723456 
L 59.846951 90.610881 
L 66.09103 90.266676 
L 73.206374 89.642746 
L 82.499886 88.583781 
L 101.667754 86.345361 
L 108.783099 85.782973 
L 114.736755 85.528344 
L 119.964355 85.518271 
L 124.756322 85.724383 
L 129.257867 86.136098 
L 133.6142 86.75868 
L 137.825323 87.58539 
L 142.036445 88.640801 
L 146.247568 89.924833 
L 150.603902 91.483134 
L 155.395868 93.441373 
L 160.76868 95.88649 
L 169.336136 100.073437 
L 176.741903 103.59434 
L 181.243448 105.497554 
L 185.018937 106.867121 
L 188.504004 107.897219 
L 191.698649 108.61072 
L 194.748082 109.06331 
L 197.652304 109.273518 
L 198.959205 109.296033 
L 198.959205 109.296033 
" clip-path="url(#p8be099ba1b)" style="fill: none; stroke: #9467bd; stroke-width: 1.5; stroke-linecap: square"/>
   </g>
   <g id="line2d_15">
    <path d="M 53.893295 46.565782 
L 57.959207 46.45603 
L 62.170329 46.118313 
L 66.671874 45.530194 
L 71.754263 44.634997 
L 78.143553 43.269209 
L 105.733665 37.089863 
L 117.205344 34.968733 
L 131.0004 32.377496 
L 139.132223 30.609593 
L 147.118835 28.642685 
L 157.428824 25.854061 
L 171.369092 22.097116 
L 177.758381 20.619319 
L 183.131192 19.598665 
L 188.068371 18.886267 
L 192.715126 18.441719 
L 197.216671 18.237357 
L 198.959205 18.22 
L 198.959205 18.22 
" clip-path="url(#p8be099ba1b)" style="fill: none; stroke: #8c564b; stroke-width: 1.5; stroke-linecap: square"/>
   </g>
   <g id="line2d_16">
    <path d="M 53.893295 70.380641 
L 58.830474 70.272241 
L 64.058074 69.932455 
L 69.721308 69.337581 
L 76.401019 68.402494 
L 85.258897 66.919961 
L 108.637888 62.674992 
L 119.673933 60.521388 
L 127.224911 58.823974 
L 134.049834 57.060641 
L 140.729545 55.104222 
L 148.135312 52.694992 
L 159.026146 48.88327 
L 169.481347 45.294183 
L 175.580214 43.43627 
L 180.662603 42.114099 
L 185.309359 41.134736 
L 189.520482 40.467552 
L 193.586393 40.043144 
L 197.507093 39.851721 
L 198.959205 39.83656 
L 198.959205 39.83656 
" clip-path="url(#p8be099ba1b)" style="fill: none; stroke: #e377c2; stroke-width: 1.5; stroke-linecap: square"/>
   </g>
   <g id="patch_3">
    <path d="M 46.64 174.04 
L 46.64 10.8 
" style="fill: none; stroke: #000000; stroke-width: 0.8; stroke-linejoin: miter; stroke-linecap: square"/>
   </g>
   <g id="patch_4">
    <path d="M 206.2125 174.04 
L 206.2125 10.8 
" style="fill: none; stroke: #000000; stroke-width: 0.8; stroke-linejoin: miter; stroke-linecap: square"/>
   </g>
   <g id="patch_5">
    <path d="M 46.64 174.04 
L 206.2125 174.04 
" style="fill: none; stroke: #000000; stroke-width: 0.8; stroke-linejoin: miter; stroke-linecap: square"/>
   </g>
   <g id="patch_6">
    <path d="M 46.64 10.8 
L 206.2125 10.8 
" style="fill: none; stroke: #000000; stroke-width: 0.8; stroke-linejoin: miter; stroke-linecap: square"/>
   </g>
  </g>
  <g id="axes_2">
   <g id="patch_7">
    <path d="M 262.3025 174.04 
L 421.875 174.04 
L 421.875 10.8 
L 262.3025 10.8 
z
" style="fill: #ffffff"/>
   </g>
   <g id="matplotlib.axis_3">
    <g id="xtick_5">
     <g id="line2d_17">
      <g>
       <use xlink:href="#m19b88647e2" x="269.555795" y="174.04" style="stroke: #000000; stroke-width: 0.8"/>
      </g>
     </g>
     <g id="text_12">
      <!-- 0.0 -->
      <g transform="translate(261.604233 188.638438)scale(0.1 -0.1)">
       <use xlink:href="#DejaVuSans-30"/>
       <use xlink:href="#DejaVuSans-2e" x="63.623047"/>
       <use xlink:href="#DejaVuSans-30" x="95.410156"/>
      </g>
     </g>
    </g>
    <g id="xtick_6">
     <g id="line2d_18">
      <g>
       <use xlink:href="#m19b88647e2" x="310.967402" y="174.04" style="stroke: #000000; stroke-width: 0.8"/>
      </g>
     </g>
     <g id="text_13">
      <!-- 0.5 -->
      <g transform="translate(303.015839 188.638438)scale(0.1 -0.1)">
       <use xlink:href="#DejaVuSans-30"/>
       <use xlink:href="#DejaVuSans-2e" x="63.623047"/>
       <use xlink:href="#DejaVuSans-35" x="95.410156"/>
      </g>
     </g>
    </g>
    <g id="xtick_7">
     <g id="line2d_19">
      <g>
       <use xlink:href="#m19b88647e2" x="352.379008" y="174.04" style="stroke: #000000; stroke-width: 0.8"/>
      </g>
     </g>
     <g id="text_14">
      <!-- 1.0 -->
      <g transform="translate(344.427446 188.638438)scale(0.1 -0.1)">
       <use xlink:href="#DejaVuSans-31"/>
       <use xlink:href="#DejaVuSans-2e" x="63.623047"/>
       <use xlink:href="#DejaVuSans-30" x="95.410156"/>
      </g>
     </g>
    </g>
    <g id="xtick_8">
     <g id="line2d_20">
      <g>
       <use xlink:href="#m19b88647e2" x="393.790614" y="174.04" style="stroke: #000000; stroke-width: 0.8"/>
      </g>
     </g>
     <g id="text_15">
      <!-- 1.5 -->
      <g transform="translate(385.839052 188.638438)scale(0.1 -0.1)">
       <use xlink:href="#DejaVuSans-31"/>
       <use xlink:href="#DejaVuSans-2e" x="63.623047"/>
       <use xlink:href="#DejaVuSans-35" x="95.410156"/>
      </g>
     </g>
    </g>
    <g id="text_16">
     <!-- Time -->
     <g transform="translate(329.855156 202.316563)scale(0.1 -0.1)">
      <use xlink:href="#DejaVuSans-54"/>
      <use xlink:href="#DejaVuSans-69" x="57.958984"/>
      <use xlink:href="#DejaVuSans-6d" x="85.742188"/>
      <use xlink:href="#DejaVuSans-65" x="183.154297"/>
     </g>
    </g>
   </g>
   <g id="matplotlib.axis_4">
    <g id="ytick_6">
     <g id="line2d_21">
      <g>
       <use xlink:href="#m2aebdd27e5" x="262.3025" y="171.312134" style="stroke: #000000; stroke-width: 0.8"/>
      </g>
     </g>
     <g id="text_17">
      <!-- −1.5 -->
      <g transform="translate(231.019687 175.111353)scale(0.1 -0.1)">
       <use xlink:href="#DejaVuSans-2212"/>
       <use xlink:href="#DejaVuSans-31" x="83.789062"/>
       <use xlink:href="#DejaVuSans-2e" x="147.412109"/>
       <use xlink:href="#DejaVuSans-35" x="179.199219"/>
      </g>
     </g>
    </g>
    <g id="ytick_7">
     <g id="line2d_22">
      <g>
       <use xlink:href="#m2aebdd27e5" x="262.3025" y="140.95784" style="stroke: #000000; stroke-width: 0.8"/>
      </g>
     </g>
     <g id="text_18">
      <!-- −1.0 -->
      <g transform="translate(231.019687 144.757059)scale(0.1 -0.1)">
       <use xlink:href="#DejaVuSans-2212"/>
       <use xlink:href="#DejaVuSans-31" x="83.789062"/>
       <use xlink:href="#DejaVuSans-2e" x="147.412109"/>
       <use xlink:href="#DejaVuSans-30" x="179.199219"/>
      </g>
     </g>
    </g>
    <g id="ytick_8">
     <g id="line2d_23">
      <g>
       <use xlink:href="#m2aebdd27e5" x="262.3025" y="110.603546" style="stroke: #000000; stroke-width: 0.8"/>
      </g>
     </g>
     <g id="text_19">
      <!-- −0.5 -->
      <g transform="translate(231.019687 114.402765)scale(0.1 -0.1)">
       <use xlink:href="#DejaVuSans-2212"/>
       <use xlink:href="#DejaVuSans-30" x="83.789062"/>
       <use xlink:href="#DejaVuSans-2e" x="147.412109"/>
       <use xlink:href="#DejaVuSans-35" x="179.199219"/>
      </g>
     </g>
    </g>
    <g id="ytick_9">
     <g id="line2d_24">
      <g>
       <use xlink:href="#m2aebdd27e5" x="262.3025" y="80.249252" style="stroke: #000000; stroke-width: 0.8"/>
      </g>
     </g>
     <g id="text_20">
      <!-- 0.0 -->
      <g transform="translate(239.399375 84.048471)scale(0.1 -0.1)">
       <use xlink:href="#DejaVuSans-30"/>
       <use xlink:href="#DejaVuSans-2e" x="63.623047"/>
       <use xlink:href="#DejaVuSans-30" x="95.410156"/>
      </g>
     </g>
    </g>
    <g id="ytick_10">
     <g id="line2d_25">
      <g>
       <use xlink:href="#m2aebdd27e5" x="262.3025" y="49.894959" style="stroke: #000000; stroke-width: 0.8"/>
      </g>
     </g>
     <g id="text_21">
      <!-- 0.5 -->
      <g transform="translate(239.399375 53.694177)scale(0.1 -0.1)">
       <use xlink:href="#DejaVuSans-30"/>
       <use xlink:href="#DejaVuSans-2e" x="63.623047"/>
       <use xlink:href="#DejaVuSans-35" x="95.410156"/>
      </g>
     </g>
    </g>
    <g id="ytick_11">
     <g id="line2d_26">
      <g>
       <use xlink:href="#m2aebdd27e5" x="262.3025" y="19.540665" style="stroke: #000000; stroke-width: 0.8"/>
      </g>
     </g>
     <g id="text_22">
      <!-- 1.0 -->
      <g transform="translate(239.399375 23.339883)scale(0.1 -0.1)">
       <use xlink:href="#DejaVuSans-31"/>
       <use xlink:href="#DejaVuSans-2e" x="63.623047"/>
       <use xlink:href="#DejaVuSans-30" x="95.410156"/>
      </g>
     </g>
    </g>
    <g id="text_23">
     <!-- Velocity -->
     <g transform="translate(224.94 112.035625)rotate(-90)scale(0.1 -0.1)">
      <defs>
       <path id="DejaVuSans-56" d="M 1831 0 
L 50 4666 
L 709 4666 
L 2188 738 
L 3669 4666 
L 4325 4666 
L 2547 0 
L 1831 0 
z
" transform="scale(0.015625)"/>
       <path id="DejaVuSans-6c" d="M 603 4863 
L 1178 4863 
L 1178 0 
L 603 0 
L 603 4863 
z
" transform="scale(0.015625)"/>
       <path id="DejaVuSans-63" d="M 3122 3366 
L 3122 2828 
Q 2878 2963 2633 3030 
Q 2388 3097 2138 3097 
Q 1578 3097 1268 2742 
Q 959 2388 959 1747 
Q 959 1106 1268 751 
Q 1578 397 2138 397 
Q 2388 397 2633 464 
Q 2878 531 3122 666 
L 3122 134 
Q 2881 22 2623 -34 
Q 2366 -91 2075 -91 
Q 1284 -91 818 406 
Q 353 903 353 1747 
Q 353 2603 823 3093 
Q 1294 3584 2113 3584 
Q 2378 3584 2631 3529 
Q 2884 3475 3122 3366 
z
" transform="scale(0.015625)"/>
       <path id="DejaVuSans-79" d="M 2059 -325 
Q 1816 -950 1584 -1140 
Q 1353 -1331 966 -1331 
L 506 -1331 
L 506 -850 
L 844 -850 
Q 1081 -850 1212 -737 
Q 1344 -625 1503 -206 
L 1606 56 
L 191 3500 
L 800 3500 
L 1894 763 
L 2988 3500 
L 3597 3500 
L 2059 -325 
z
" transform="scale(0.015625)"/>
      </defs>
      <use xlink:href="#DejaVuSans-56"/>
      <use xlink:href="#DejaVuSans-65" x="60.658203"/>
      <use xlink:href="#DejaVuSans-6c" x="122.181641"/>
      <use xlink:href="#DejaVuSans-6f" x="149.964844"/>
      <use xlink:href="#DejaVuSans-63" x="211.146484"/>
      <use xlink:href="#DejaVuSans-69" x="266.126953"/>
      <use xlink:href="#DejaVuSans-74" x="293.910156"/>
      <use xlink:href="#DejaVuSans-79" x="333.119141"/>
     </g>
    </g>
   </g>
   <g id="line2d_27">
    <path d="M 269.555795 80.249252 
L 274.638185 75.356709 
L 277.397196 73.006837 
L 279.720574 71.330848 
L 281.75353 70.136565 
L 283.641274 69.275768 
L 285.529019 68.667131 
L 287.271552 68.336759 
L 289.014086 68.228651 
L 290.756619 68.339406 
L 292.644364 68.692118 
L 294.532108 69.269229 
L 296.710275 70.157512 
L 299.614497 71.622451 
L 309.488854 76.934276 
L 312.683498 78.297959 
L 315.732932 79.370732 
L 318.782365 80.216444 
L 322.412643 80.99891 
L 325.607288 81.457398 
L 328.801933 81.683569 
L 332.577422 81.7223 
L 337.078966 81.545655 
L 341.870933 81.128415 
L 348.986278 80.247575 
L 361.764857 78.624628 
L 369.170624 77.965711 
L 374.688646 77.655785 
L 379.04498 77.642561 
L 383.401314 77.850512 
L 388.338492 78.307714 
L 396.615526 79.348389 
L 402.133548 79.951294 
L 406.780304 80.226018 
L 411.717482 80.278806 
L 414.621705 80.249252 
L 414.621705 80.249252 
" clip-path="url(#p5f554bf532)" style="fill: none; stroke: #1f77b4; stroke-width: 1.5; stroke-linecap: square"/>
   </g>
   <g id="line2d_28">
    <path d="M 269.555795 80.249252 
L 273.912129 62.010689 
L 276.525929 52.024005 
L 278.704096 44.582654 
L 280.591841 38.889874 
L 282.334374 34.311033 
L 283.931696 30.700304 
L 285.529019 27.65282 
L 286.98113 25.362869 
L 288.28803 23.68663 
L 289.59493 22.335148 
L 290.90183 21.300008 
L 292.20873 20.540871 
L 293.51563 20.034175 
L 295.112953 19.694181 
L 296.710275 19.56255 
L 305.858576 19.540817 
L 389.35497 19.651687 
L 391.097503 19.957891 
L 392.404403 20.420808 
L 393.711303 21.113641 
L 394.872992 21.973374 
L 396.179892 23.24654 
L 397.486792 24.862803 
L 398.793692 26.866786 
L 400.100593 29.262798 
L 401.552704 32.406423 
L 403.150026 36.453325 
L 404.747348 41.104315 
L 406.489882 46.849268 
L 408.522837 54.344209 
L 410.991427 64.393209 
L 414.621705 80.249252 
L 414.621705 80.249252 
" clip-path="url(#p5f554bf532)" style="fill: none; stroke: #ff7f0e; stroke-width: 1.5; stroke-linecap: square"/>
   </g>
   <g id="line2d_29">
    <path d="M 269.555795 80.249252 
L 274.638185 64.829631 
L 277.542407 56.687615 
L 280.010996 50.430615 
L 282.189163 45.532195 
L 284.076907 41.818753 
L 285.819441 38.851731 
L 287.416763 36.532567 
L 289.014086 34.597584 
L 290.466197 33.17197 
L 291.918308 32.060434 
L 293.225208 31.323034 
L 294.532108 30.828324 
L 295.839008 30.551294 
L 297.145908 30.487676 
L 298.598019 30.634888 
L 300.050131 30.999285 
L 301.792664 31.662739 
L 303.680409 32.617295 
L 306.003787 34.033906 
L 309.05322 36.185568 
L 313.554765 39.690512 
L 325.89771 49.456572 
L 330.399255 52.603889 
L 335.336433 55.787342 
L 340.999667 59.163169 
L 349.567123 63.955692 
L 357.408523 68.465512 
L 364.088235 72.562165 
L 378.899769 81.712164 
L 383.256103 84.121569 
L 386.741169 85.795716 
L 389.645392 86.944841 
L 392.259192 87.732089 
L 394.58257 88.200767 
L 396.760737 88.409272 
L 398.648481 88.380351 
L 400.536226 88.138366 
L 402.42397 87.670737 
L 404.456926 86.922358 
L 406.489882 85.934211 
L 408.668049 84.630957 
L 411.42706 82.698637 
L 414.621705 80.249252 
L 414.621705 80.249252 
" clip-path="url(#p5f554bf532)" style="fill: none; stroke: #2ca02c; stroke-width: 1.5; stroke-linecap: square"/>
   </g>
   <g id="line2d_30">
    <path d="M 269.555795 80.249252 
L 276.235507 70.343059 
L 279.575363 65.821672 
L 282.479585 62.266977 
L 285.093385 59.427327 
L 287.416763 57.220604 
L 289.59493 55.441998 
L 291.773097 53.958305 
L 293.806053 52.832156 
L 295.839008 51.95032 
L 297.871964 51.305629 
L 299.90492 50.879984 
L 302.083086 50.64928 
L 304.406464 50.629157 
L 307.020264 50.819352 
L 309.779276 51.251496 
L 312.538287 51.915036 
L 315.152087 52.765629 
L 318.201521 53.995476 
L 321.97701 55.778701 
L 325.462077 57.68054 
L 330.544466 60.724031 
L 338.676289 65.613747 
L 341.725722 67.146796 
L 344.775156 68.428105 
L 347.679378 69.408059 
L 350.293178 70.066884 
L 352.906978 70.501466 
L 355.66599 70.740723 
L 358.715423 70.796105 
L 361.764857 70.633071 
L 365.540346 70.198423 
L 380.206669 68.264267 
L 383.401314 68.211489 
L 386.305536 68.386558 
L 389.064547 68.775901 
L 391.823559 69.394987 
L 394.58257 70.238737 
L 397.632003 71.408976 
L 400.971859 72.931159 
L 405.473404 75.242507 
L 414.621705 80.249252 
L 414.621705 80.249252 
" clip-path="url(#p5f554bf532)" style="fill: none; stroke: #d62728; stroke-width: 1.5; stroke-linecap: square"/>
   </g>
   <g id="line2d_31">
    <path d="M 269.555795 80.249252 
L 275.219029 74.023309 
L 278.849307 70.355477 
L 281.898741 67.573414 
L 284.802963 65.220163 
L 287.416763 63.37393 
L 289.885352 61.883483 
L 292.353941 60.652698 
L 294.677319 59.745542 
L 297.000697 59.082601 
L 299.324075 58.660543 
L 301.502242 58.482146 
L 303.680409 58.514652 
L 306.003787 58.777638 
L 308.181953 59.243301 
L 310.36012 59.927942 
L 312.538287 60.838722 
L 314.861665 62.062444 
L 317.185043 63.543582 
L 319.944054 65.596446 
L 322.703065 67.908285 
L 325.171654 70.275112 
L 327.640244 72.946692 
L 330.254044 76.1113 
L 332.867844 79.641595 
L 335.481644 83.553161 
L 338.240655 88.090289 
L 341.144878 93.296279 
L 344.339522 99.497663 
L 347.9698 107.063011 
L 352.761767 117.647148 
L 363.652601 141.911212 
L 366.702035 148.04813 
L 369.751468 153.701268 
L 371.929635 157.305215 
L 373.81738 160.038193 
L 375.559913 162.190628 
L 377.157236 163.82128 
L 378.609347 165.003046 
L 379.916247 165.800995 
L 381.223147 166.336015 
L 382.384836 166.582536 
L 383.546525 166.599376 
L 384.708214 166.385789 
L 385.869903 165.930915 
L 387.031592 165.230541 
L 388.193281 164.282249 
L 389.500181 162.909553 
L 390.807081 161.212143 
L 392.259192 158.94271 
L 393.711303 156.268785 
L 395.308626 152.862769 
L 397.051159 148.594597 
L 398.938904 143.339126 
L 400.971859 136.968892 
L 403.150026 129.382148 
L 405.618615 119.926059 
L 408.377626 108.434541 
L 412.153116 91.587146 
L 414.621705 80.249252 
L 414.621705 80.249252 
" clip-path="url(#p5f554bf532)" style="fill: none; stroke: #9467bd; stroke-width: 1.5; stroke-linecap: square"/>
   </g>
   <g id="line2d_32">
    <path d="M 269.555795 80.249252 
L 275.073818 67.620649 
L 278.123252 61.16814 
L 280.737052 56.137256 
L 283.06043 52.13494 
L 285.238596 48.837189 
L 287.126341 46.355334 
L 289.014086 44.23059 
L 290.756619 42.589426 
L 292.499152 41.248387 
L 294.241686 40.199844 
L 295.984219 39.428175 
L 297.581542 38.955554 
L 299.324075 38.672609 
L 301.066609 38.618149 
L 302.954353 38.786219 
L 305.13252 39.230789 
L 307.455898 39.950161 
L 310.214909 41.045814 
L 314.28082 42.922383 
L 321.105743 46.078494 
L 324.155177 47.261254 
L 326.768977 48.044905 
L 329.237566 48.551581 
L 331.560944 48.801425 
L 333.739111 48.820728 
L 335.917277 48.621676 
L 338.095444 48.205497 
L 340.418822 47.530973 
L 342.887411 46.570486 
L 345.646422 45.243588 
L 348.841067 43.439762 
L 353.342612 40.606447 
L 359.877112 36.506898 
L 362.926546 34.853553 
L 365.540346 33.674415 
L 368.154146 32.740847 
L 370.622735 32.070654 
L 372.655691 31.74253 
L 374.543435 31.645949 
L 376.43118 31.76138 
L 378.318924 32.096078 
L 380.206669 32.657845 
L 382.094414 33.455071 
L 383.982158 34.496885 
L 385.869903 35.786374 
L 387.902858 37.45355 
L 389.935814 39.403969 
L 392.113981 41.800545 
L 394.437359 44.692458 
L 396.905948 48.122354 
L 399.664959 52.356227 
L 402.714393 57.467168 
L 406.19946 63.769594 
L 410.410582 71.871309 
L 414.621705 80.249252 
L 414.621705 80.249252 
" clip-path="url(#p5f554bf532)" style="fill: none; stroke: #8c564b; stroke-width: 1.5; stroke-linecap: square"/>
   </g>
   <g id="line2d_33">
    <path d="M 269.555795 80.249252 
L 274.928607 71.991739 
L 278.413674 67.040385 
L 281.317896 63.290848 
L 283.931696 60.267763 
L 286.400285 57.746751 
L 288.723663 55.677994 
L 291.047041 53.902227 
L 293.370419 52.413863 
L 295.693797 51.200922 
L 298.017175 50.242579 
L 300.340553 49.512864 
L 302.809142 48.967118 
L 305.568153 48.602158 
L 308.617587 48.437605 
L 313.119132 48.462439 
L 318.782365 48.456453 
L 322.267432 48.211968 
L 324.881232 47.796029 
L 327.349821 47.185946 
L 329.673199 46.396776 
L 332.141788 45.319872 
L 334.610377 44.003141 
L 337.224177 42.359546 
L 340.1284 40.262656 
L 343.468256 37.564922 
L 347.824589 33.744028 
L 356.537256 26.032932 
L 359.58669 23.657773 
L 362.20049 21.897188 
L 364.523868 20.597437 
L 366.702035 19.640884 
L 369.170624 18.817019 
L 371.058368 18.39893 
L 372.800902 18.228728 
L 374.543435 18.277584 
L 376.285969 18.551621 
L 378.028502 19.059813 
L 379.771036 19.805765 
L 381.513569 20.794181 
L 383.256103 22.028992 
L 385.143847 23.647756 
L 387.031592 25.557015 
L 389.064547 27.934521 
L 391.242714 30.844105 
L 393.566092 34.34788 
L 396.034681 38.501552 
L 398.648481 43.35103 
L 401.552704 49.235899 
L 404.747348 56.243745 
L 408.377626 64.757201 
L 413.460016 77.329953 
L 414.621705 80.249252 
L 414.621705 80.249252 
" clip-path="url(#p5f554bf532)" style="fill: none; stroke: #e377c2; stroke-width: 1.5; stroke-linecap: square"/>
   </g>
   <g id="patch_8">
    <path d="M 262.3025 174.04 
L 262.3025 10.8 
" style="fill: none; stroke: #000000; stroke-width: 0.8; stroke-linejoin: miter; stroke-linecap: square"/>
   </g>
   <g id="patch_9">
    <path d="M 421.875 174.04 
L 421.875 10.8 
" style="fill: none; stroke: #000000; stroke-width: 0.8; stroke-linejoin: miter; stroke-linecap: square"/>
   </g>
   <g id="patch_10">
    <path d="M 262.3025 174.04 
L 421.875 174.04 
" style="fill: none; stroke: #000000; stroke-width: 0.8; stroke-linejoin: miter; stroke-linecap: square"/>
   </g>
   <g id="patch_11">
    <path d="M 262.3025 10.8 
L 421.875 10.8 
" style="fill: none; stroke: #000000; stroke-width: 0.8; stroke-linejoin: miter; stroke-linecap: square"/>
   </g>
  </g>
  <g id="axes_3">
   <g id="patch_12">
    <path d="M 477.965 174.04 
L 637.5375 174.04 
L 637.5375 10.8 
L 477.965 10.8 
z
" style="fill: #ffffff"/>
   </g>
   <g id="matplotlib.axis_5">
    <g id="xtick_9">
     <g id="line2d_34">
      <g>
       <use xlink:href="#m19b88647e2" x="485.218295" y="174.04" style="stroke: #000000; stroke-width: 0.8"/>
      </g>
     </g>
     <g id="text_24">
      <!-- 0.0 -->
      <g transform="translate(477.266733 188.638438)scale(0.1 -0.1)">
       <use xlink:href="#DejaVuSans-30"/>
       <use xlink:href="#DejaVuSans-2e" x="63.623047"/>
       <use xlink:href="#DejaVuSans-30" x="95.410156"/>
      </g>
     </g>
    </g>
    <g id="xtick_10">
     <g id="line2d_35">
      <g>
       <use xlink:href="#m19b88647e2" x="526.629902" y="174.04" style="stroke: #000000; stroke-width: 0.8"/>
      </g>
     </g>
     <g id="text_25">
      <!-- 0.5 -->
      <g transform="translate(518.678339 188.638438)scale(0.1 -0.1)">
       <use xlink:href="#DejaVuSans-30"/>
       <use xlink:href="#DejaVuSans-2e" x="63.623047"/>
       <use xlink:href="#DejaVuSans-35" x="95.410156"/>
      </g>
     </g>
    </g>
    <g id="xtick_11">
     <g id="line2d_36">
      <g>
       <use xlink:href="#m19b88647e2" x="568.041508" y="174.04" style="stroke: #000000; stroke-width: 0.8"/>
      </g>
     </g>
     <g id="text_26">
      <!-- 1.0 -->
      <g transform="translate(560.089946 188.638438)scale(0.1 -0.1)">
       <use xlink:href="#DejaVuSans-31"/>
       <use xlink:href="#DejaVuSans-2e" x="63.623047"/>
       <use xlink:href="#DejaVuSans-30" x="95.410156"/>
      </g>
     </g>
    </g>
    <g id="xtick_12">
     <g id="line2d_37">
      <g>
       <use xlink:href="#m19b88647e2" x="609.453114" y="174.04" style="stroke: #000000; stroke-width: 0.8"/>
      </g>
     </g>
     <g id="text_27">
      <!-- 1.5 -->
      <g transform="translate(601.501552 188.638438)scale(0.1 -0.1)">
       <use xlink:href="#DejaVuSans-31"/>
       <use xlink:href="#DejaVuSans-2e" x="63.623047"/>
       <use xlink:href="#DejaVuSans-35" x="95.410156"/>
      </g>
     </g>
    </g>
    <g id="text_28">
     <!-- Time -->
     <g transform="translate(545.517656 202.316563)scale(0.1 -0.1)">
      <use xlink:href="#DejaVuSans-54"/>
      <use xlink:href="#DejaVuSans-69" x="57.958984"/>
      <use xlink:href="#DejaVuSans-6d" x="85.742188"/>
      <use xlink:href="#DejaVuSans-65" x="183.154297"/>
     </g>
    </g>
   </g>
   <g id="matplotlib.axis_6">
    <g id="ytick_12">
     <g id="line2d_38">
      <g>
       <use xlink:href="#m2aebdd27e5" x="477.965" y="165.977248" style="stroke: #000000; stroke-width: 0.8"/>
      </g>
     </g>
     <g id="text_29">
      <!-- −6 -->
      <g transform="translate(456.222812 169.776467)scale(0.1 -0.1)">
       <defs>
        <path id="DejaVuSans-36" d="M 2113 2584 
Q 1688 2584 1439 2293 
Q 1191 2003 1191 1497 
Q 1191 994 1439 701 
Q 1688 409 2113 409 
Q 2538 409 2786 701 
Q 3034 994 3034 1497 
Q 3034 2003 2786 2293 
Q 2538 2584 2113 2584 
z
M 3366 4563 
L 3366 3988 
Q 3128 4100 2886 4159 
Q 2644 4219 2406 4219 
Q 1781 4219 1451 3797 
Q 1122 3375 1075 2522 
Q 1259 2794 1537 2939 
Q 1816 3084 2150 3084 
Q 2853 3084 3261 2657 
Q 3669 2231 3669 1497 
Q 3669 778 3244 343 
Q 2819 -91 2113 -91 
Q 1303 -91 875 529 
Q 447 1150 447 2328 
Q 447 3434 972 4092 
Q 1497 4750 2381 4750 
Q 2619 4750 2861 4703 
Q 3103 4656 3366 4563 
z
" transform="scale(0.015625)"/>
       </defs>
       <use xlink:href="#DejaVuSans-2212"/>
       <use xlink:href="#DejaVuSans-36" x="83.789062"/>
      </g>
     </g>
    </g>
    <g id="ytick_13">
     <g id="line2d_39">
      <g>
       <use xlink:href="#m2aebdd27e5" x="477.965" y="141.949131" style="stroke: #000000; stroke-width: 0.8"/>
      </g>
     </g>
     <g id="text_30">
      <!-- −4 -->
      <g transform="translate(456.222812 145.748349)scale(0.1 -0.1)">
       <defs>
        <path id="DejaVuSans-34" d="M 2419 4116 
L 825 1625 
L 2419 1625 
L 2419 4116 
z
M 2253 4666 
L 3047 4666 
L 3047 1625 
L 3713 1625 
L 3713 1100 
L 3047 1100 
L 3047 0 
L 2419 0 
L 2419 1100 
L 313 1100 
L 313 1709 
L 2253 4666 
z
" transform="scale(0.015625)"/>
       </defs>
       <use xlink:href="#DejaVuSans-2212"/>
       <use xlink:href="#DejaVuSans-34" x="83.789062"/>
      </g>
     </g>
    </g>
    <g id="ytick_14">
     <g id="line2d_40">
      <g>
       <use xlink:href="#m2aebdd27e5" x="477.965" y="117.921013" style="stroke: #000000; stroke-width: 0.8"/>
      </g>
     </g>
     <g id="text_31">
      <!-- −2 -->
      <g transform="translate(456.222812 121.720231)scale(0.1 -0.1)">
       <use xlink:href="#DejaVuSans-2212"/>
       <use xlink:href="#DejaVuSans-32" x="83.789062"/>
      </g>
     </g>
    </g>
    <g id="ytick_15">
     <g id="line2d_41">
      <g>
       <use xlink:href="#m2aebdd27e5" x="477.965" y="93.892895" style="stroke: #000000; stroke-width: 0.8"/>
      </g>
     </g>
     <g id="text_32">
      <!-- 0 -->
      <g transform="translate(464.6025 97.692114)scale(0.1 -0.1)">
       <use xlink:href="#DejaVuSans-30"/>
      </g>
     </g>
    </g>
    <g id="ytick_16">
     <g id="line2d_42">
      <g>
       <use xlink:href="#m2aebdd27e5" x="477.965" y="69.864777" style="stroke: #000000; stroke-width: 0.8"/>
      </g>
     </g>
     <g id="text_33">
      <!-- 2 -->
      <g transform="translate(464.6025 73.663996)scale(0.1 -0.1)">
       <use xlink:href="#DejaVuSans-32"/>
      </g>
     </g>
    </g>
    <g id="ytick_17">
     <g id="line2d_43">
      <g>
       <use xlink:href="#m2aebdd27e5" x="477.965" y="45.836659" style="stroke: #000000; stroke-width: 0.8"/>
      </g>
     </g>
     <g id="text_34">
      <!-- 4 -->
      <g transform="translate(464.6025 49.635878)scale(0.1 -0.1)">
       <use xlink:href="#DejaVuSans-34"/>
      </g>
     </g>
    </g>
    <g id="ytick_18">
     <g id="line2d_44">
      <g>
       <use xlink:href="#m2aebdd27e5" x="477.965" y="21.808541" style="stroke: #000000; stroke-width: 0.8"/>
      </g>
     </g>
     <g id="text_35">
      <!-- 6 -->
      <g transform="translate(464.6025 25.60776)scale(0.1 -0.1)">
       <use xlink:href="#DejaVuSans-36"/>
      </g>
     </g>
    </g>
    <g id="text_36">
     <!-- Acceleration -->
     <g transform="translate(450.143125 123.490313)rotate(-90)scale(0.1 -0.1)">
      <defs>
       <path id="DejaVuSans-41" d="M 2188 4044 
L 1331 1722 
L 3047 1722 
L 2188 4044 
z
M 1831 4666 
L 2547 4666 
L 4325 0 
L 3669 0 
L 3244 1197 
L 1141 1197 
L 716 0 
L 50 0 
L 1831 4666 
z
" transform="scale(0.015625)"/>
       <path id="DejaVuSans-72" d="M 2631 2963 
Q 2534 3019 2420 3045 
Q 2306 3072 2169 3072 
Q 1681 3072 1420 2755 
Q 1159 2438 1159 1844 
L 1159 0 
L 581 0 
L 581 3500 
L 1159 3500 
L 1159 2956 
Q 1341 3275 1631 3429 
Q 1922 3584 2338 3584 
Q 2397 3584 2469 3576 
Q 2541 3569 2628 3553 
L 2631 2963 
z
" transform="scale(0.015625)"/>
       <path id="DejaVuSans-61" d="M 2194 1759 
Q 1497 1759 1228 1600 
Q 959 1441 959 1056 
Q 959 750 1161 570 
Q 1363 391 1709 391 
Q 2188 391 2477 730 
Q 2766 1069 2766 1631 
L 2766 1759 
L 2194 1759 
z
M 3341 1997 
L 3341 0 
L 2766 0 
L 2766 531 
Q 2569 213 2275 61 
Q 1981 -91 1556 -91 
Q 1019 -91 701 211 
Q 384 513 384 1019 
Q 384 1609 779 1909 
Q 1175 2209 1959 2209 
L 2766 2209 
L 2766 2266 
Q 2766 2663 2505 2880 
Q 2244 3097 1772 3097 
Q 1472 3097 1187 3025 
Q 903 2953 641 2809 
L 641 3341 
Q 956 3463 1253 3523 
Q 1550 3584 1831 3584 
Q 2591 3584 2966 3190 
Q 3341 2797 3341 1997 
z
" transform="scale(0.015625)"/>
      </defs>
      <use xlink:href="#DejaVuSans-41"/>
      <use xlink:href="#DejaVuSans-63" x="66.658203"/>
      <use xlink:href="#DejaVuSans-63" x="121.638672"/>
      <use xlink:href="#DejaVuSans-65" x="176.619141"/>
      <use xlink:href="#DejaVuSans-6c" x="238.142578"/>
      <use xlink:href="#DejaVuSans-65" x="265.925781"/>
      <use xlink:href="#DejaVuSans-72" x="327.449219"/>
      <use xlink:href="#DejaVuSans-61" x="368.5625"/>
      <use xlink:href="#DejaVuSans-74" x="429.841797"/>
      <use xlink:href="#DejaVuSans-69" x="469.050781"/>
      <use xlink:href="#DejaVuSans-6f" x="496.833984"/>
      <use xlink:href="#DejaVuSans-6e" x="558.015625"/>
     </g>
    </g>
   </g>
   <g id="line2d_45">
    <path d="M 485.218295 77.610616 
L 488.558151 78.191996 
L 491.607585 79.812467 
L 494.947441 82.759718 
L 498.577719 86.670374 
L 503.660108 92.705913 
L 507.726019 97.339008 
L 509.904186 99.500517 
L 512.808408 101.656185 
L 515.712631 102.994035 
L 518.762064 103.252192 
L 522.392342 102.402859 
L 526.313042 101.055859 
L 531.831065 98.864598 
L 534.299654 97.964915 
L 537.63951 96.992244 
L 545.771333 94.158862 
L 553.322311 92.749857 
L 557.533433 92.125889 
L 559.566389 91.957686 
L 564.648778 91.674066 
L 569.731167 91.660171 
L 572.344968 91.835536 
L 588.463402 93.065434 
L 601.241981 95.372908 
L 604.727047 95.789384 
L 608.647748 96.01129 
L 611.697181 96.031739 
L 613.149292 95.925503 
L 616.77957 95.433905 
L 626.508715 93.872062 
L 628.977304 93.719993 
L 630.284205 93.664999 
L 630.284205 93.664999 
" clip-path="url(#p10950e238f)" style="fill: none; stroke: #1f77b4; stroke-width: 1.5; stroke-linecap: square"/>
   </g>
   <g id="line2d_46">
    <path d="M 485.218295 23.426914 
L 488.267729 25.652775 
L 491.462374 32.516353 
L 494.802229 42.68969 
L 500.175041 61.850419 
L 503.514897 73.629939 
L 506.854752 83.492742 
L 509.613764 89.938165 
L 512.517986 93.670965 
L 516.87432 93.893018 
L 603.129725 93.937058 
L 606.179159 96.995216 
L 609.373803 104.217253 
L 612.713659 114.954582 
L 616.924781 131.106481 
L 621.281115 148.029289 
L 624.47576 158.434053 
L 627.379982 164.940271 
L 630.284205 166.62 
L 630.284205 166.62 
" clip-path="url(#p10950e238f)" style="fill: none; stroke: #ff7f0e; stroke-width: 1.5; stroke-linecap: square"/>
   </g>
   <g id="line2d_47">
    <path d="M 485.218295 43.053397 
L 488.41294 44.215865 
L 491.462374 47.375005 
L 494.657018 52.69217 
L 497.996874 59.760648 
L 503.079263 72.066255 
L 509.468553 87.570748 
L 513.098831 94.815102 
L 515.857842 99.280157 
L 518.762064 102.568185 
L 521.956709 104.860259 
L 525.006142 106.219518 
L 528.345998 106.926523 
L 531.395432 107.185924 
L 535.02571 107.075453 
L 537.494299 106.795026 
L 540.834154 106.072402 
L 544.028799 105.299005 
L 550.418088 104.139817 
L 554.774422 103.538948 
L 559.566389 103.078093 
L 563.196667 102.970724 
L 565.084412 103.045732 
L 574.087501 103.738101 
L 578.008201 104.078468 
L 581.928902 104.216831 
L 591.512835 103.89604 
L 596.159591 103.115147 
L 598.047336 102.638444 
L 601.096769 101.609335 
L 603.855781 100.388988 
L 607.195636 98.465053 
L 609.954648 96.55462 
L 612.85887 94.134046 
L 617.069993 89.908608 
L 619.974215 87.021192 
L 622.733226 84.522472 
L 624.620971 83.016153 
L 627.525193 81.512231 
L 630.284205 81.065731 
L 630.284205 81.065731 
" clip-path="url(#p10950e238f)" style="fill: none; stroke: #2ca02c; stroke-width: 1.5; stroke-linecap: square"/>
   </g>
   <g id="line2d_48">
    <path d="M 485.218295 69.088368 
L 488.558151 69.365568 
L 491.752796 70.636998 
L 495.092652 72.675675 
L 498.142085 74.967349 
L 501.917574 78.325368 
L 505.112219 81.474279 
L 509.904186 86.228537 
L 513.970097 89.962518 
L 516.87432 92.32365 
L 519.052486 93.854065 
L 525.877409 97.365789 
L 533.137965 100.828437 
L 534.444865 101.251721 
L 537.929932 102.354039 
L 540.25331 103.108658 
L 544.028799 103.773783 
L 547.078233 104.053307 
L 549.111188 104.077619 
L 552.160622 103.546343 
L 555.7909 102.16808 
L 564.213145 98.265983 
L 569.440745 95.516307 
L 570.747645 94.980117 
L 579.024679 92.020025 
L 582.654957 91.459469 
L 587.446924 91.33917 
L 588.753824 91.433638 
L 591.948469 91.934568 
L 594.997902 92.748413 
L 598.62818 94.078013 
L 601.968036 95.54701 
L 607.195636 98.104636 
L 611.55197 100.10242 
L 613.875348 100.998769 
L 616.198726 101.736537 
L 619.102948 102.369893 
L 622.007171 102.676622 
L 625.347026 102.829912 
L 628.106038 103.03869 
L 630.284205 103.022752 
L 630.284205 103.022752 
" clip-path="url(#p10950e238f)" style="fill: none; stroke: #d62728; stroke-width: 1.5; stroke-linecap: square"/>
   </g>
   <g id="line2d_49">
    <path d="M 485.218295 75.379462 
L 488.848573 75.983563 
L 492.043218 77.049184 
L 495.383074 78.592835 
L 499.448985 80.867004 
L 502.353208 82.691076 
L 506.419119 85.443283 
L 519.633331 95.127171 
L 524.860931 98.984515 
L 534.009232 106.008238 
L 536.913454 107.521261 
L 541.995843 111.570939 
L 547.223444 116.030484 
L 555.210055 123.159154 
L 558.985545 126.142483 
L 561.889767 128.103329 
L 564.358356 129.479504 
L 567.407789 130.584676 
L 570.312012 131.076381 
L 573.216234 131.009054 
L 576.120457 130.191235 
L 579.315101 128.225902 
L 584.107068 124.125358 
L 585.123546 123.163911 
L 588.463402 117.775916 
L 591.803258 111.109201 
L 594.852691 104.08357 
L 598.047336 95.752179 
L 601.677614 85.310119 
L 605.598314 73.284806 
L 615.327459 43.303837 
L 618.957737 33.682687 
L 621.716748 27.400637 
L 624.47576 22.383612 
L 627.379982 19.146221 
L 630.284205 18.22 
L 630.284205 18.22 
" clip-path="url(#p10950e238f)" style="fill: none; stroke: #9467bd; stroke-width: 1.5; stroke-linecap: square"/>
   </g>
   <g id="line2d_50">
    <path d="M 485.218295 55.566111 
L 488.41294 56.290558 
L 491.607585 58.522314 
L 494.802229 61.952327 
L 497.996874 66.286264 
L 502.207997 72.938202 
L 510.049397 85.571095 
L 513.534464 90.481593 
L 516.293475 93.863657 
L 519.052486 96.696082 
L 521.956709 98.992354 
L 524.860931 100.612331 
L 528.055576 101.547413 
L 530.959798 101.777149 
L 535.02571 101.257358 
L 536.913454 100.845818 
L 540.398521 99.227652 
L 544.319221 96.830077 
L 547.659077 94.513787 
L 551.8702 91.345862 
L 557.243011 87.548453 
L 558.695122 86.683889 
L 561.744556 85.122624 
L 564.503567 84.060916 
L 567.407789 83.418546 
L 570.312012 83.285285 
L 573.361445 83.711848 
L 576.410879 84.691267 
L 579.750735 86.405657 
L 582.945379 88.268717 
L 585.268757 89.537322 
L 589.044246 92.843569 
L 594.126636 97.908794 
L 599.789869 104.175653 
L 607.776481 113.081813 
L 611.116337 116.456518 
L 613.584926 118.727147 
L 616.198726 120.880462 
L 619.248159 123.00673 
L 622.007171 124.586315 
L 624.766182 125.775187 
L 627.815616 126.508882 
L 630.284205 126.690879 
L 630.284205 126.690879 
" clip-path="url(#p10950e238f)" style="fill: none; stroke: #8c564b; stroke-width: 1.5; stroke-linecap: square"/>
   </g>
   <g id="line2d_51">
    <path d="M 485.218295 68.094301 
L 488.558151 68.76733 
L 491.898007 70.329545 
L 495.092652 72.399046 
L 498.577719 75.185386 
L 505.693063 81.495223 
L 510.049397 85.223968 
L 513.679675 87.953259 
L 517.309953 90.314163 
L 519.48812 91.541948 
L 522.247131 92.824944 
L 525.151354 93.765688 
L 528.055576 94.194352 
L 531.105009 94.040674 
L 535.316132 93.046816 
L 536.913454 92.529114 
L 542.431477 89.468386 
L 544.028799 88.422433 
L 550.5633 84.198937 
L 553.467522 82.517916 
L 555.7909 81.353273 
L 558.549911 80.240841 
L 561.454134 79.447044 
L 564.503567 79.071491 
L 567.407789 79.14012 
L 570.312012 79.708414 
L 573.361445 80.904542 
L 576.55609 82.839465 
L 579.750735 85.338014 
L 582.509746 87.684011 
L 585.123546 89.532356 
L 589.770302 94.877736 
L 593.545791 99.595558 
L 597.756914 105.116977 
L 606.179159 116.262281 
L 610.971126 122.058287 
L 613.584926 124.911289 
L 616.77957 128.074022 
L 618.957737 129.984958 
L 622.297593 132.387927 
L 624.766182 133.826818 
L 627.670404 134.845888 
L 630.284205 135.149231 
L 630.284205 135.149231 
" clip-path="url(#p10950e238f)" style="fill: none; stroke: #e377c2; stroke-width: 1.5; stroke-linecap: square"/>
   </g>
   <g id="patch_13">
    <path d="M 477.965 174.04 
L 477.965 10.8 
" style="fill: none; stroke: #000000; stroke-width: 0.8; stroke-linejoin: miter; stroke-linecap: square"/>
   </g>
   <g id="patch_14">
    <path d="M 637.5375 174.04 
L 637.5375 10.8 
" style="fill: none; stroke: #000000; stroke-width: 0.8; stroke-linejoin: miter; stroke-linecap: square"/>
   </g>
   <g id="patch_15">
    <path d="M 477.965 174.04 
L 637.5375 174.04 
" style="fill: none; stroke: #000000; stroke-width: 0.8; stroke-linejoin: miter; stroke-linecap: square"/>
   </g>
   <g id="patch_16">
    <path d="M 477.965 10.8 
L 637.5375 10.8 
" style="fill: none; stroke: #000000; stroke-width: 0.8; stroke-linejoin: miter; stroke-linecap: square"/>
   </g>
  </g>
  <g id="axes_4">
   <g id="patch_17">
    <path d="M 693.6275 174.04 
L 853.2 174.04 
L 853.2 10.8 
L 693.6275 10.8 
z
" style="fill: #ffffff"/>
   </g>
   <g id="matplotlib.axis_7">
    <g id="xtick_13">
     <g id="line2d_52">
      <g>
       <use xlink:href="#m19b88647e2" x="700.880795" y="174.04" style="stroke: #000000; stroke-width: 0.8"/>
      </g>
     </g>
     <g id="text_37">
      <!-- 0.0 -->
      <g transform="translate(692.929233 188.638438)scale(0.1 -0.1)">
       <use xlink:href="#DejaVuSans-30"/>
       <use xlink:href="#DejaVuSans-2e" x="63.623047"/>
       <use xlink:href="#DejaVuSans-30" x="95.410156"/>
      </g>
     </g>
    </g>
    <g id="xtick_14">
     <g id="line2d_53">
      <g>
       <use xlink:href="#m19b88647e2" x="742.292402" y="174.04" style="stroke: #000000; stroke-width: 0.8"/>
      </g>
     </g>
     <g id="text_38">
      <!-- 0.5 -->
      <g transform="translate(734.340839 188.638438)scale(0.1 -0.1)">
       <use xlink:href="#DejaVuSans-30"/>
       <use xlink:href="#DejaVuSans-2e" x="63.623047"/>
       <use xlink:href="#DejaVuSans-35" x="95.410156"/>
      </g>
     </g>
    </g>
    <g id="xtick_15">
     <g id="line2d_54">
      <g>
       <use xlink:href="#m19b88647e2" x="783.704008" y="174.04" style="stroke: #000000; stroke-width: 0.8"/>
      </g>
     </g>
     <g id="text_39">
      <!-- 1.0 -->
      <g transform="translate(775.752446 188.638438)scale(0.1 -0.1)">
       <use xlink:href="#DejaVuSans-31"/>
       <use xlink:href="#DejaVuSans-2e" x="63.623047"/>
       <use xlink:href="#DejaVuSans-30" x="95.410156"/>
      </g>
     </g>
    </g>
    <g id="xtick_16">
     <g id="line2d_55">
      <g>
       <use xlink:href="#m19b88647e2" x="825.115614" y="174.04" style="stroke: #000000; stroke-width: 0.8"/>
      </g>
     </g>
     <g id="text_40">
      <!-- 1.5 -->
      <g transform="translate(817.164052 188.638438)scale(0.1 -0.1)">
       <use xlink:href="#DejaVuSans-31"/>
       <use xlink:href="#DejaVuSans-2e" x="63.623047"/>
       <use xlink:href="#DejaVuSans-35" x="95.410156"/>
      </g>
     </g>
    </g>
    <g id="text_41">
     <!-- Time -->
     <g transform="translate(761.180156 202.316563)scale(0.1 -0.1)">
      <use xlink:href="#DejaVuSans-54"/>
      <use xlink:href="#DejaVuSans-69" x="57.958984"/>
      <use xlink:href="#DejaVuSans-6d" x="85.742188"/>
      <use xlink:href="#DejaVuSans-65" x="183.154297"/>
     </g>
    </g>
   </g>
   <g id="matplotlib.axis_8">
    <g id="ytick_19">
     <g id="line2d_56">
      <g>
       <use xlink:href="#m2aebdd27e5" x="693.6275" y="144.286552" style="stroke: #000000; stroke-width: 0.8"/>
      </g>
     </g>
     <g id="text_42">
      <!-- −20 -->
      <g transform="translate(665.522812 148.08577)scale(0.1 -0.1)">
       <use xlink:href="#DejaVuSans-2212"/>
       <use xlink:href="#DejaVuSans-32" x="83.789062"/>
       <use xlink:href="#DejaVuSans-30" x="147.412109"/>
      </g>
     </g>
    </g>
    <g id="ytick_20">
     <g id="line2d_57">
      <g>
       <use xlink:href="#m2aebdd27e5" x="693.6275" y="114.0387" style="stroke: #000000; stroke-width: 0.8"/>
      </g>
     </g>
     <g id="text_43">
      <!-- −10 -->
      <g transform="translate(665.522812 117.837919)scale(0.1 -0.1)">
       <use xlink:href="#DejaVuSans-2212"/>
       <use xlink:href="#DejaVuSans-31" x="83.789062"/>
       <use xlink:href="#DejaVuSans-30" x="147.412109"/>
      </g>
     </g>
    </g>
    <g id="ytick_21">
     <g id="line2d_58">
      <g>
       <use xlink:href="#m2aebdd27e5" x="693.6275" y="83.790848" style="stroke: #000000; stroke-width: 0.8"/>
      </g>
     </g>
     <g id="text_44">
      <!-- 0 -->
      <g transform="translate(680.265 87.590067)scale(0.1 -0.1)">
       <use xlink:href="#DejaVuSans-30"/>
      </g>
     </g>
    </g>
    <g id="ytick_22">
     <g id="line2d_59">
      <g>
       <use xlink:href="#m2aebdd27e5" x="693.6275" y="53.542996" style="stroke: #000000; stroke-width: 0.8"/>
      </g>
     </g>
     <g id="text_45">
      <!-- 10 -->
      <g transform="translate(673.9025 57.342215)scale(0.1 -0.1)">
       <use xlink:href="#DejaVuSans-31"/>
       <use xlink:href="#DejaVuSans-30" x="63.623047"/>
      </g>
     </g>
    </g>
    <g id="ytick_23">
     <g id="line2d_60">
      <g>
       <use xlink:href="#m2aebdd27e5" x="693.6275" y="23.295145" style="stroke: #000000; stroke-width: 0.8"/>
      </g>
     </g>
     <g id="text_46">
      <!-- 20 -->
      <g transform="translate(673.9025 27.094363)scale(0.1 -0.1)">
       <use xlink:href="#DejaVuSans-32"/>
       <use xlink:href="#DejaVuSans-30" x="63.623047"/>
      </g>
     </g>
    </g>
    <g id="text_47">
     <!-- Jerk -->
     <g transform="translate(659.443125 101.922344)rotate(-90)scale(0.1 -0.1)">
      <defs>
       <path id="DejaVuSans-4a" d="M 628 4666 
L 1259 4666 
L 1259 325 
Q 1259 -519 939 -900 
Q 619 -1281 -91 -1281 
L -331 -1281 
L -331 -750 
L -134 -750 
Q 284 -750 456 -515 
Q 628 -281 628 325 
L 628 4666 
z
" transform="scale(0.015625)"/>
       <path id="DejaVuSans-6b" d="M 581 4863 
L 1159 4863 
L 1159 1991 
L 2875 3500 
L 3609 3500 
L 1753 1863 
L 3688 0 
L 2938 0 
L 1159 1709 
L 1159 0 
L 581 0 
L 581 4863 
z
" transform="scale(0.015625)"/>
      </defs>
      <use xlink:href="#DejaVuSans-4a"/>
      <use xlink:href="#DejaVuSans-65" x="29.492188"/>
      <use xlink:href="#DejaVuSans-72" x="91.015625"/>
      <use xlink:href="#DejaVuSans-6b" x="132.128906"/>
     </g>
    </g>
   </g>
   <g id="line2d_61">
    <path d="M 700.880795 86.725053 
L 703.785018 86.725053 
L 703.930229 94.039285 
L 706.834451 94.039285 
L 706.979663 101.400902 
L 709.883885 101.400902 
L 710.029096 105.389164 
L 712.933318 105.389164 
L 713.07853 107.859521 
L 715.982752 107.859521 
L 716.127963 108.971018 
L 718.886974 108.971018 
L 719.032185 108.410988 
L 721.936408 108.410988 
L 722.081619 105.828706 
L 724.985841 105.828706 
L 725.131053 100.064882 
L 728.035275 100.064882 
L 728.180486 94.139303 
L 731.084708 94.139303 
L 731.22992 86.217842 
L 733.988931 86.217842 
L 734.134142 79.480699 
L 737.038364 79.480699 
L 737.183576 77.206913 
L 740.087798 77.206913 
L 740.233009 75.947488 
L 743.137231 75.947488 
L 743.282443 75.432217 
L 746.186665 75.432217 
L 746.477087 75.278539 
L 749.090887 75.278539 
L 749.236098 78.381348 
L 752.140321 78.381348 
L 752.285532 76.258522 
L 755.189754 76.258522 
L 755.334966 75.639205 
L 758.239188 75.639205 
L 758.384399 77.47543 
L 761.288621 77.47543 
L 761.433833 79.587636 
L 764.338055 79.587636 
L 764.483266 80.061905 
L 770.291711 80.159504 
L 770.436922 80.97279 
L 773.341144 80.97279 
L 773.486356 82.196687 
L 776.390578 82.196687 
L 776.535789 82.608037 
L 779.440011 82.608037 
L 779.585223 83.304151 
L 782.344234 83.304151 
L 782.489445 84.053764 
L 785.393667 84.053764 
L 785.538879 85.239273 
L 794.541968 85.142996 
L 794.687179 85.427956 
L 797.44619 85.427956 
L 797.591402 84.66924 
L 800.495624 84.66924 
L 800.640835 86.064371 
L 803.545057 86.064371 
L 803.690269 87.732386 
L 806.594491 87.732386 
L 806.884913 87.852507 
L 812.693358 87.873853 
L 812.838569 87.032117 
L 818.647014 86.948375 
L 818.792225 85.536281 
L 821.696447 85.536281 
L 821.841659 84.664231 
L 824.745881 84.664231 
L 824.891092 83.793305 
L 827.795315 83.793305 
L 827.940526 81.570737 
L 830.699537 81.570737 
L 830.844748 80.206568 
L 836.798404 80.260446 
L 836.943615 79.88438 
L 839.847837 79.88438 
L 839.993049 81.579308 
L 842.897271 81.579308 
L 843.042482 82.91339 
L 845.946705 82.91339 
L 845.946705 82.91339 
" clip-path="url(#p4928dc74ff)" style="fill: none; stroke: #1f77b4; stroke-width: 1.5; stroke-linecap: square"/>
   </g>
   <g id="line2d_62">
    <path d="M 700.880795 98.75531 
L 703.785018 98.75531 
L 703.930229 127.457631 
L 706.834451 127.457631 
L 706.979663 145.600429 
L 709.883885 145.600429 
L 710.029096 156.62621 
L 712.933318 156.62621 
L 713.07853 159.491446 
L 715.982752 159.491446 
L 716.127963 157.772689 
L 718.886974 157.772689 
L 719.032185 147.230827 
L 721.936408 147.230827 
L 722.081619 134.306227 
L 724.985841 134.306227 
L 725.131053 111.490184 
L 728.035275 111.490184 
L 728.180486 85.376106 
L 731.084708 85.376106 
L 731.22992 83.789193 
L 737.038364 83.798383 
L 737.328787 83.964983 
L 743.137231 83.940927 
L 743.282443 83.66461 
L 749.090887 83.741362 
L 749.38131 83.913267 
L 752.140321 83.913267 
L 752.285532 83.670721 
L 758.239188 83.608002 
L 758.52961 83.481156 
L 764.338055 83.552001 
L 764.483266 84.052376 
L 770.291711 84.078829 
L 770.436922 83.796537 
L 800.495624 83.751231 
L 800.640835 83.441502 
L 803.545057 83.441502 
L 803.690269 84.038366 
L 806.594491 84.038366 
L 806.739702 83.798535 
L 818.647014 83.791552 
L 818.792225 104.099072 
L 821.696447 104.099072 
L 821.841659 129.46193 
L 824.745881 129.46193 
L 824.891092 148.618471 
L 827.795315 148.618471 
L 827.940526 161.742117 
L 830.699537 161.742117 
L 830.844748 166.62 
L 833.74897 166.62 
L 833.894182 164.270029 
L 836.798404 164.270029 
L 836.943615 153.279757 
L 839.847837 153.279757 
L 839.993049 131.973215 
L 842.897271 131.973215 
L 843.042482 95.851372 
L 845.946705 95.851372 
L 845.946705 95.851372 
" clip-path="url(#p4928dc74ff)" style="fill: none; stroke: #ff7f0e; stroke-width: 1.5; stroke-linecap: square"/>
   </g>
   <g id="line2d_63">
    <path d="M 700.880795 90.627127 
L 703.785018 90.627127 
L 703.930229 104.549874 
L 706.834451 104.549874 
L 706.979663 117.434 
L 709.883885 117.434 
L 710.029096 126.565723 
L 712.933318 126.565723 
L 713.07853 133.137759 
L 715.982752 133.137759 
L 716.127963 135.247518 
L 721.936408 135.267342 
L 722.081619 133.621435 
L 724.985841 133.621435 
L 725.131053 126.837507 
L 728.035275 126.837507 
L 728.180486 119.184997 
L 731.084708 119.184997 
L 731.22992 108.29694 
L 733.988931 108.29694 
L 734.134142 99.589923 
L 737.038364 99.589923 
L 737.183576 93.917313 
L 740.087798 93.917313 
L 740.233009 88.836597 
L 743.137231 88.836597 
L 743.282443 86.254233 
L 746.186665 86.254233 
L 746.331876 83.762903 
L 749.090887 83.762903 
L 749.236098 82.246402 
L 752.140321 82.246402 
L 752.285532 79.981504 
L 755.189754 79.981504 
L 755.334966 78.052605 
L 758.239188 78.052605 
L 758.384399 79.640154 
L 761.288621 79.640154 
L 761.433833 79.989918 
L 764.338055 79.989918 
L 764.483266 80.384923 
L 767.242277 80.384923 
L 767.387489 81.13462 
L 770.291711 81.13462 
L 770.436922 81.311242 
L 773.341144 81.311242 
L 773.486356 82.563067 
L 776.390578 82.563067 
L 776.535789 83.478493 
L 779.440011 83.478493 
L 779.585223 85.149696 
L 785.393667 85.130395 
L 785.538879 85.47709 
L 788.443101 85.47709 
L 788.588312 86.188383 
L 791.492534 86.188383 
L 791.637746 85.104183 
L 794.541968 85.104183 
L 794.687179 84.35507 
L 797.44619 84.35507 
L 797.591402 83.330741 
L 800.495624 83.330741 
L 800.640835 83.118722 
L 806.594491 83.228312 
L 806.739702 80.761081 
L 809.643924 80.761081 
L 809.789136 79.731636 
L 812.693358 79.731636 
L 812.838569 77.470714 
L 815.59758 77.470714 
L 815.742792 75.357296 
L 818.647014 75.357296 
L 818.792225 72.532749 
L 821.696447 72.532749 
L 821.841659 70.220438 
L 824.745881 70.220438 
L 824.891092 67.318983 
L 827.795315 67.318983 
L 827.940526 63.594016 
L 830.699537 63.594016 
L 830.844748 61.981133 
L 833.74897 61.981133 
L 833.894182 63.741048 
L 836.798404 63.741048 
L 836.943615 65.861083 
L 839.847837 65.861083 
L 839.993049 72.25282 
L 842.897271 72.25282 
L 843.042482 80.416223 
L 845.946705 80.416223 
L 845.946705 80.416223 
" clip-path="url(#p4928dc74ff)" style="fill: none; stroke: #2ca02c; stroke-width: 1.5; stroke-linecap: square"/>
   </g>
   <g id="line2d_64">
    <path d="M 700.880795 84.902563 
L 703.785018 84.902563 
L 703.930229 91.410784 
L 706.834451 91.410784 
L 706.979663 95.837415 
L 709.883885 95.837415 
L 710.029096 98.657129 
L 712.933318 98.657129 
L 713.07853 101.595279 
L 715.982752 101.595279 
L 716.127963 103.359775 
L 718.886974 103.359775 
L 719.032185 105.146978 
L 721.936408 105.146978 
L 722.081619 104.330958 
L 724.985841 104.330958 
L 725.131053 103.703126 
L 728.035275 103.703126 
L 728.180486 101.706314 
L 731.084708 101.706314 
L 731.22992 99.757073 
L 733.988931 99.757073 
L 734.134142 94.9018 
L 737.038364 94.9018 
L 737.183576 94.409158 
L 740.087798 94.409158 
L 740.233009 94.088544 
L 743.137231 94.088544 
L 743.282443 94.824663 
L 746.186665 94.824663 
L 746.331876 92.237814 
L 749.090887 92.237814 
L 749.236098 89.698023 
L 752.140321 89.698023 
L 752.285532 91.496295 
L 755.189754 91.496295 
L 755.334966 88.085261 
L 758.239188 88.085261 
L 758.384399 86.397195 
L 761.288621 86.397195 
L 761.433833 84.900424 
L 764.338055 84.900424 
L 764.483266 80.800765 
L 767.242277 80.800765 
L 767.387489 76.480777 
L 770.291711 76.480777 
L 770.436922 74.406529 
L 773.341144 74.406529 
L 773.486356 74.702303 
L 776.390578 74.702303 
L 776.535789 73.625558 
L 779.440011 73.625558 
L 779.585223 72.335001 
L 782.344234 72.335001 
L 782.489445 73.306882 
L 785.393667 73.306882 
L 785.538879 76.084218 
L 788.443101 76.084218 
L 788.588312 75.454465 
L 791.492534 75.454465 
L 791.637746 77.243099 
L 794.541968 77.243099 
L 794.687179 80.014989 
L 797.44619 80.014989 
L 797.591402 82.795032 
L 800.495624 82.795032 
L 800.640835 83.701908 
L 803.545057 83.701908 
L 803.690269 86.374665 
L 806.594491 86.374665 
L 806.739702 88.674102 
L 809.643924 88.674102 
L 809.789136 90.795643 
L 812.693358 90.795643 
L 812.838569 92.241294 
L 815.59758 92.241294 
L 815.742792 93.505224 
L 818.647014 93.505224 
L 818.792225 94.196013 
L 821.696447 94.196013 
L 821.841659 93.929574 
L 824.745881 93.929574 
L 824.891092 92.894168 
L 827.795315 92.894168 
L 827.940526 91.46792 
L 830.699537 91.46792 
L 830.844748 89.076561 
L 833.74897 89.076561 
L 833.894182 86.714355 
L 836.798404 86.714355 
L 836.943615 84.061733 
L 839.847837 84.061733 
L 839.993049 86.131523 
L 842.897271 86.131523 
L 843.042482 83.638265 
L 845.946705 83.638265 
L 845.946705 83.638265 
" clip-path="url(#p4928dc74ff)" style="fill: none; stroke: #d62728; stroke-width: 1.5; stroke-linecap: square"/>
   </g>
   <g id="line2d_65">
    <path d="M 700.880795 86.689176 
L 703.785018 86.689176 
L 703.930229 90.102028 
L 706.834451 90.102028 
L 706.979663 92.739801 
L 709.883885 92.739801 
L 710.029096 94.834829 
L 712.933318 94.834829 
L 713.07853 96.010505 
L 715.982752 96.010505 
L 716.127963 97.26935 
L 718.886974 97.26935 
L 719.032185 98.095319 
L 721.936408 98.095319 
L 722.081619 99.287241 
L 728.035275 99.2486 
L 728.180486 98.904832 
L 731.084708 98.904832 
L 731.375131 99.016571 
L 733.988931 99.016571 
L 734.134142 98.647144 
L 737.038364 98.647144 
L 737.183576 99.393824 
L 740.087798 99.393824 
L 740.233009 100.103897 
L 743.137231 100.103897 
L 743.282443 100.327253 
L 746.186665 100.327253 
L 746.331876 99.839935 
L 749.090887 99.839935 
L 749.236098 94.015761 
L 752.140321 94.015761 
L 752.285532 99.854911 
L 755.189754 99.854911 
L 755.334966 101.033227 
L 761.288621 101.076819 
L 761.433833 102.778481 
L 764.338055 102.778481 
L 764.483266 102.973141 
L 767.242277 102.973141 
L 767.387489 101.87846 
L 770.291711 101.87846 
L 770.436922 100.980317 
L 773.341144 100.980317 
L 773.486356 98.80176 
L 776.390578 98.80176 
L 776.535789 96.377157 
L 779.440011 96.377157 
L 779.585223 92.158511 
L 782.344234 92.158511 
L 782.489445 87.969612 
L 785.393667 87.969612 
L 785.538879 83.980062 
L 788.443101 83.980062 
L 788.588312 78.461109 
L 791.492534 78.461109 
L 791.637746 71.787492 
L 794.541968 71.787492 
L 794.687179 65.334281 
L 797.44619 65.334281 
L 797.591402 66.682621 
L 800.495624 66.682621 
L 800.640835 51.266272 
L 803.545057 51.266272 
L 803.690269 43.664678 
L 806.594491 43.664678 
L 806.739702 37.472515 
L 809.643924 37.472515 
L 809.789136 31.176603 
L 812.693358 31.176603 
L 812.838569 25.57207 
L 815.59758 25.57207 
L 815.742792 21.615301 
L 818.647014 21.615301 
L 818.792225 18.836658 
L 821.696447 18.836658 
L 821.841659 18.22 
L 824.745881 18.22 
L 824.891092 18.752853 
L 827.795315 18.752853 
L 827.940526 21.364231 
L 830.699537 21.364231 
L 830.844748 26.941907 
L 833.74897 26.941907 
L 833.894182 34.488249 
L 836.798404 34.488249 
L 836.943615 44.565837 
L 839.847837 44.565837 
L 839.993049 59.843552 
L 842.897271 59.843552 
L 843.042482 77.140542 
L 845.946705 77.140542 
L 845.946705 77.140542 
" clip-path="url(#p4928dc74ff)" style="fill: none; stroke: #9467bd; stroke-width: 1.5; stroke-linecap: square"/>
   </g>
   <g id="line2d_66">
    <path d="M 700.880795 88.005668 
L 703.785018 88.005668 
L 703.930229 97.525881 
L 706.834451 97.525881 
L 706.979663 105.235887 
L 709.883885 105.235887 
L 710.029096 111.06377 
L 712.933318 111.06377 
L 713.07853 115.769602 
L 715.982752 115.769602 
L 716.127963 117.921493 
L 718.886974 117.921493 
L 719.032185 118.407346 
L 721.936408 118.407346 
L 722.081619 116.820317 
L 724.985841 116.820317 
L 725.131053 114.331614 
L 728.035275 114.331614 
L 728.180486 110.711868 
L 731.084708 110.711868 
L 731.22992 106.314913 
L 733.988931 106.314913 
L 734.134142 101.091876 
L 737.038364 101.091876 
L 737.183576 96.084511 
L 740.087798 96.084511 
L 740.233009 90.651395 
L 743.137231 90.651395 
L 743.282443 86.057308 
L 746.186665 86.057308 
L 746.331876 81.670148 
L 749.090887 81.670148 
L 749.236098 80.143868 
L 752.140321 80.143868 
L 752.285532 74.801333 
L 755.189754 74.801333 
L 755.334966 71.708942 
L 758.239188 71.708942 
L 758.384399 70.145075 
L 761.288621 70.145075 
L 761.433833 68.780095 
L 764.338055 68.780095 
L 764.483266 67.852055 
L 767.242277 67.852055 
L 767.387489 68.522315 
L 770.291711 68.522315 
L 770.436922 69.655867 
L 773.341144 69.655867 
L 773.486356 72.301671 
L 776.390578 72.301671 
L 776.535789 74.854746 
L 779.440011 74.854746 
L 779.585223 78.40836 
L 782.344234 78.40836 
L 782.489445 82.20033 
L 785.393667 82.20033 
L 785.538879 86.100028 
L 788.443101 86.100028 
L 788.588312 89.812585 
L 791.492534 89.812585 
L 791.637746 93.726768 
L 794.541968 93.726768 
L 794.687179 96.765344 
L 797.44619 96.765344 
L 797.591402 94.207935 
L 800.495624 94.207935 
L 800.640835 101.293328 
L 803.545057 101.293328 
L 803.690269 103.966594 
L 806.594491 103.966594 
L 806.739702 104.902495 
L 809.643924 104.902495 
L 809.789136 106.288097 
L 812.693358 106.288097 
L 812.838569 107.477981 
L 815.59758 107.477981 
L 815.742792 107.699863 
L 818.647014 107.699863 
L 818.792225 107.0147 
L 821.696447 107.0147 
L 821.841659 105.84005 
L 824.745881 105.84005 
L 824.891092 104.194671 
L 827.795315 104.194671 
L 827.940526 102.088257 
L 830.699537 102.088257 
L 830.844748 99.237217 
L 833.74897 99.237217 
L 833.894182 96.611028 
L 836.798404 96.611028 
L 836.943615 93.529896 
L 839.847837 93.529896 
L 839.993049 89.57983 
L 842.897271 89.57983 
L 843.042482 85.328194 
L 845.946705 85.328194 
L 845.946705 85.328194 
" clip-path="url(#p4928dc74ff)" style="fill: none; stroke: #8c564b; stroke-width: 1.5; stroke-linecap: square"/>
   </g>
   <g id="line2d_67">
    <path d="M 700.880795 87.482371 
L 703.785018 87.482371 
L 703.930229 92.85038 
L 706.834451 92.85038 
L 706.979663 96.499795 
L 709.883885 96.499795 
L 710.029096 99.66119 
L 712.933318 99.66119 
L 713.07853 101.859199 
L 715.982752 101.859199 
L 716.127963 102.499617 
L 718.886974 102.499617 
L 719.032185 102.319351 
L 721.936408 102.319351 
L 722.081619 101.796508 
L 724.985841 101.796508 
L 725.131053 100.203228 
L 728.035275 100.203228 
L 728.180486 98.087428 
L 731.084708 98.087428 
L 731.22992 96.659333 
L 733.988931 96.659333 
L 734.134142 94.29243 
L 737.038364 94.29243 
L 737.183576 91.379908 
L 740.087798 91.379908 
L 740.233009 87.618874 
L 743.137231 87.618874 
L 743.282443 83.479829 
L 746.186665 83.479829 
L 746.331876 79.404575 
L 749.090887 79.404575 
L 749.236098 78.111497 
L 752.140321 78.111497 
L 752.285532 72.685428 
L 755.189754 72.685428 
L 755.334966 71.78132 
L 758.239188 71.78132 
L 758.384399 69.889037 
L 761.288621 69.889037 
L 761.433833 70.21186 
L 764.338055 70.21186 
L 764.483266 70.844799 
L 767.242277 70.844799 
L 767.387489 72.290152 
L 770.291711 72.290152 
L 770.436922 74.583137 
L 773.341144 74.583137 
L 773.486356 77.346842 
L 776.390578 77.346842 
L 776.535789 80.523409 
L 779.440011 80.523409 
L 779.585223 83.536037 
L 782.344234 83.536037 
L 782.489445 87.216371 
L 785.393667 87.216371 
L 785.538879 91.246215 
L 788.443101 91.246215 
L 788.588312 95.668728 
L 791.492534 95.668728 
L 791.637746 99.245618 
L 794.541968 99.245618 
L 794.687179 102.478116 
L 797.44619 102.478116 
L 797.591402 97.935375 
L 800.495624 97.935375 
L 800.640835 107.048876 
L 803.545057 107.048876 
L 803.690269 108.935278 
L 806.594491 108.935278 
L 806.739702 110.286342 
L 809.643924 110.286342 
L 809.789136 111.094628 
L 812.693358 111.094628 
L 812.838569 111.843528 
L 815.59758 111.843528 
L 815.742792 111.609134 
L 818.647014 111.609134 
L 818.792225 110.851487 
L 821.696447 110.851487 
L 821.841659 109.733007 
L 824.745881 109.733007 
L 824.891092 107.858727 
L 827.795315 107.858727 
L 827.940526 105.4761 
L 830.699537 105.4761 
L 830.844748 103.405641 
L 833.74897 103.405641 
L 833.894182 99.632354 
L 836.798404 99.632354 
L 836.943615 97.039236 
L 839.847837 97.039236 
L 839.993049 91.909129 
L 842.897271 91.909129 
L 843.042482 86.210866 
L 845.946705 86.210866 
L 845.946705 86.210866 
" clip-path="url(#p4928dc74ff)" style="fill: none; stroke: #e377c2; stroke-width: 1.5; stroke-linecap: square"/>
   </g>
   <g id="patch_18">
    <path d="M 693.6275 174.04 
L 693.6275 10.8 
" style="fill: none; stroke: #000000; stroke-width: 0.8; stroke-linejoin: miter; stroke-linecap: square"/>
   </g>
   <g id="patch_19">
    <path d="M 853.2 174.04 
L 853.2 10.8 
" style="fill: none; stroke: #000000; stroke-width: 0.8; stroke-linejoin: miter; stroke-linecap: square"/>
   </g>
   <g id="patch_20">
    <path d="M 693.6275 174.04 
L 853.2 174.04 
" style="fill: none; stroke: #000000; stroke-width: 0.8; stroke-linejoin: miter; stroke-linecap: square"/>
   </g>
   <g id="patch_21">
    <path d="M 693.6275 10.8 
L 853.2 10.8 
" style="fill: none; stroke: #000000; stroke-width: 0.8; stroke-linejoin: miter; stroke-linecap: square"/>
   </g>
  </g>
 </g>
 <defs>
  <clipPath id="p8be099ba1b">
   <rect x="46.64" y="10.8" width="159.5725" height="163.24"/>
  </clipPath>
  <clipPath id="p5f554bf532">
   <rect x="262.3025" y="10.8" width="159.5725" height="163.24"/>
  </clipPath>
  <clipPath id="p10950e238f">
   <rect x="477.965" y="10.8" width="159.5725" height="163.24"/>
  </clipPath>
  <clipPath id="p4928dc74ff">
   <rect x="693.6275" y="10.8" width="159.5725" height="163.24"/>
  </clipPath>
 </defs>
</svg>
