<?xml version="1.0" encoding="utf-8" standalone="no"?>
<!DOCTYPE svg PUBLIC "-//W3C//DTD SVG 1.1//EN"
  "http://www.w3.org/Graphics/SVG/1.1/DTD/svg11.dtd">
<svg xmlns:xlink="http://www.w3.org/1999/xlink" width="864pt" height="216pt" viewBox="0 0 864 216" xmlns="http://www.w3.org/2000/svg" version="1.1">
 <metadata>
  <rdf:RDF xmlns:dc="http://purl.org/dc/elements/1.1/" xmlns:cc="http://creativecommons.org/ns#" xmlns:rdf="http://www.w3.org/1999/02/22-rdf-syntax-ns#">
   <cc:Work>
    <dc:type rdf:resource="http://purl.org/dc/dcmitype/StillImage"/>
    <dc:date>2023-07-24T16:38:12.287914</dc:date>
    <dc:format>image/svg+xml</dc:format>
    <dc:creator>
     <cc:Agent>
      <dc:title>Matplotlib v3.5.2, https://matplotlib.org/</dc:title>
     </cc:Agent>
    </dc:creator>
   </cc:Work>
  </rdf:RDF>
 </metadata>
 <defs>
  <style type="text/css">*{stroke-linejoin: round; stroke-linecap: butt}</style>
 </defs>
 <g id="figure_1">
  <g id="patch_1">
   <path d="M 0 216 
L 864 216 
L 864 0 
L 0 0 
z
" style="fill: #ffffff"/>
  </g>
  <g id="axes_1">
   <g id="patch_2">
    <path d="M 46.64 174.04 
L 194.4 174.04 
L 194.4 10.8 
L 46.64 10.8 
z
" style="fill: #ffffff"/>
   </g>
   <g id="matplotlib.axis_1">
    <g id="xtick_1">
     <g id="line2d_1">
      <defs>
       <path id="md2261ff7a8" d="M 0 0 
L 0 3.5 
" style="stroke: #000000; stroke-width: 0.8"/>
      </defs>
      <g>
       <use xlink:href="#md2261ff7a8" x="53.356364" y="174.04" style="stroke: #000000; stroke-width: 0.8"/>
      </g>
     </g>
     <g id="text_1">
      <!-- 0.0 -->
      <g transform="translate(45.404801 188.638438)scale(0.1 -0.1)">
       <defs>
        <path id="DejaVuSans-30" d="M 2034 4250 
Q 1547 4250 1301 3770 
Q 1056 3291 1056 2328 
Q 1056 1369 1301 889 
Q 1547 409 2034 409 
Q 2525 409 2770 889 
Q 3016 1369 3016 2328 
Q 3016 3291 2770 3770 
Q 2525 4250 2034 4250 
z
M 2034 4750 
Q 2819 4750 3233 4129 
Q 3647 3509 3647 2328 
Q 3647 1150 3233 529 
Q 2819 -91 2034 -91 
Q 1250 -91 836 529 
Q 422 1150 422 2328 
Q 422 3509 836 4129 
Q 1250 4750 2034 4750 
z
" transform="scale(0.015625)"/>
        <path id="DejaVuSans-2e" d="M 684 794 
L 1344 794 
L 1344 0 
L 684 0 
L 684 794 
z
" transform="scale(0.015625)"/>
       </defs>
       <use xlink:href="#DejaVuSans-30"/>
       <use xlink:href="#DejaVuSans-2e" x="63.623047"/>
       <use xlink:href="#DejaVuSans-30" x="95.410156"/>
      </g>
     </g>
    </g>
    <g id="xtick_2">
     <g id="line2d_2">
      <g>
       <use xlink:href="#md2261ff7a8" x="94.941648" y="174.04" style="stroke: #000000; stroke-width: 0.8"/>
      </g>
     </g>
     <g id="text_2">
      <!-- 0.5 -->
      <g transform="translate(86.990085 188.638438)scale(0.1 -0.1)">
       <defs>
        <path id="DejaVuSans-35" d="M 691 4666 
L 3169 4666 
L 3169 4134 
L 1269 4134 
L 1269 2991 
Q 1406 3038 1543 3061 
Q 1681 3084 1819 3084 
Q 2600 3084 3056 2656 
Q 3513 2228 3513 1497 
Q 3513 744 3044 326 
Q 2575 -91 1722 -91 
Q 1428 -91 1123 -41 
Q 819 9 494 109 
L 494 744 
Q 775 591 1075 516 
Q 1375 441 1709 441 
Q 2250 441 2565 725 
Q 2881 1009 2881 1497 
Q 2881 1984 2565 2268 
Q 2250 2553 1709 2553 
Q 1456 2553 1204 2497 
Q 953 2441 691 2322 
L 691 4666 
z
" transform="scale(0.015625)"/>
       </defs>
       <use xlink:href="#DejaVuSans-30"/>
       <use xlink:href="#DejaVuSans-2e" x="63.623047"/>
       <use xlink:href="#DejaVuSans-35" x="95.410156"/>
      </g>
     </g>
    </g>
    <g id="xtick_3">
     <g id="line2d_3">
      <g>
       <use xlink:href="#md2261ff7a8" x="136.526932" y="174.04" style="stroke: #000000; stroke-width: 0.8"/>
      </g>
     </g>
     <g id="text_3">
      <!-- 1.0 -->
      <g transform="translate(128.57537 188.638438)scale(0.1 -0.1)">
       <defs>
        <path id="DejaVuSans-31" d="M 794 531 
L 1825 531 
L 1825 4091 
L 703 3866 
L 703 4441 
L 1819 4666 
L 2450 4666 
L 2450 531 
L 3481 531 
L 3481 0 
L 794 0 
L 794 531 
z
" transform="scale(0.015625)"/>
       </defs>
       <use xlink:href="#DejaVuSans-31"/>
       <use xlink:href="#DejaVuSans-2e" x="63.623047"/>
       <use xlink:href="#DejaVuSans-30" x="95.410156"/>
      </g>
     </g>
    </g>
    <g id="xtick_4">
     <g id="line2d_4">
      <g>
       <use xlink:href="#md2261ff7a8" x="178.112216" y="174.04" style="stroke: #000000; stroke-width: 0.8"/>
      </g>
     </g>
     <g id="text_4">
      <!-- 1.5 -->
      <g transform="translate(170.160654 188.638438)scale(0.1 -0.1)">
       <use xlink:href="#DejaVuSans-31"/>
       <use xlink:href="#DejaVuSans-2e" x="63.623047"/>
       <use xlink:href="#DejaVuSans-35" x="95.410156"/>
      </g>
     </g>
    </g>
    <g id="text_5">
     <!-- Time -->
     <g transform="translate(108.286406 202.316563)scale(0.1 -0.1)">
      <defs>
       <path id="DejaVuSans-54" d="M -19 4666 
L 3928 4666 
L 3928 4134 
L 2272 4134 
L 2272 0 
L 1638 0 
L 1638 4134 
L -19 4134 
L -19 4666 
z
" transform="scale(0.015625)"/>
       <path id="DejaVuSans-69" d="M 603 3500 
L 1178 3500 
L 1178 0 
L 603 0 
L 603 3500 
z
M 603 4863 
L 1178 4863 
L 1178 4134 
L 603 4134 
L 603 4863 
z
" transform="scale(0.015625)"/>
       <path id="DejaVuSans-6d" d="M 3328 2828 
Q 3544 3216 3844 3400 
Q 4144 3584 4550 3584 
Q 5097 3584 5394 3201 
Q 5691 2819 5691 2113 
L 5691 0 
L 5113 0 
L 5113 2094 
Q 5113 2597 4934 2840 
Q 4756 3084 4391 3084 
Q 3944 3084 3684 2787 
Q 3425 2491 3425 1978 
L 3425 0 
L 2847 0 
L 2847 2094 
Q 2847 2600 2669 2842 
Q 2491 3084 2119 3084 
Q 1678 3084 1418 2786 
Q 1159 2488 1159 1978 
L 1159 0 
L 581 0 
L 581 3500 
L 1159 3500 
L 1159 2956 
Q 1356 3278 1631 3431 
Q 1906 3584 2284 3584 
Q 2666 3584 2933 3390 
Q 3200 3197 3328 2828 
z
" transform="scale(0.015625)"/>
       <path id="DejaVuSans-65" d="M 3597 1894 
L 3597 1613 
L 953 1613 
Q 991 1019 1311 708 
Q 1631 397 2203 397 
Q 2534 397 2845 478 
Q 3156 559 3463 722 
L 3463 178 
Q 3153 47 2828 -22 
Q 2503 -91 2169 -91 
Q 1331 -91 842 396 
Q 353 884 353 1716 
Q 353 2575 817 3079 
Q 1281 3584 2069 3584 
Q 2775 3584 3186 3129 
Q 3597 2675 3597 1894 
z
M 3022 2063 
Q 3016 2534 2758 2815 
Q 2500 3097 2075 3097 
Q 1594 3097 1305 2825 
Q 1016 2553 972 2059 
L 3022 2063 
z
" transform="scale(0.015625)"/>
      </defs>
      <use xlink:href="#DejaVuSans-54"/>
      <use xlink:href="#DejaVuSans-69" x="57.958984"/>
      <use xlink:href="#DejaVuSans-6d" x="85.742188"/>
      <use xlink:href="#DejaVuSans-65" x="183.154297"/>
     </g>
    </g>
   </g>
   <g id="matplotlib.axis_2">
    <g id="ytick_1">
     <g id="line2d_5">
      <defs>
       <path id="m02444b927d" d="M 0 0 
L -3.5 0 
" style="stroke: #000000; stroke-width: 0.8"/>
      </defs>
      <g>
       <use xlink:href="#m02444b927d" x="46.64" y="149.866077" style="stroke: #000000; stroke-width: 0.8"/>
      </g>
     </g>
     <g id="text_6">
      <!-- −2 -->
      <g transform="translate(24.897813 153.665296)scale(0.1 -0.1)">
       <defs>
        <path id="DejaVuSans-2212" d="M 678 2272 
L 4684 2272 
L 4684 1741 
L 678 1741 
L 678 2272 
z
" transform="scale(0.015625)"/>
        <path id="DejaVuSans-32" d="M 1228 531 
L 3431 531 
L 3431 0 
L 469 0 
L 469 531 
Q 828 903 1448 1529 
Q 2069 2156 2228 2338 
Q 2531 2678 2651 2914 
Q 2772 3150 2772 3378 
Q 2772 3750 2511 3984 
Q 2250 4219 1831 4219 
Q 1534 4219 1204 4116 
Q 875 4013 500 3803 
L 500 4441 
Q 881 4594 1212 4672 
Q 1544 4750 1819 4750 
Q 2544 4750 2975 4387 
Q 3406 4025 3406 3419 
Q 3406 3131 3298 2873 
Q 3191 2616 2906 2266 
Q 2828 2175 2409 1742 
Q 1991 1309 1228 531 
z
" transform="scale(0.015625)"/>
       </defs>
       <use xlink:href="#DejaVuSans-2212"/>
       <use xlink:href="#DejaVuSans-32" x="83.789062"/>
      </g>
     </g>
    </g>
    <g id="ytick_2">
     <g id="line2d_6">
      <g>
       <use xlink:href="#m02444b927d" x="46.64" y="121.101684" style="stroke: #000000; stroke-width: 0.8"/>
      </g>
     </g>
     <g id="text_7">
      <!-- −1 -->
      <g transform="translate(24.897813 124.900903)scale(0.1 -0.1)">
       <use xlink:href="#DejaVuSans-2212"/>
       <use xlink:href="#DejaVuSans-31" x="83.789062"/>
      </g>
     </g>
    </g>
    <g id="ytick_3">
     <g id="line2d_7">
      <g>
       <use xlink:href="#m02444b927d" x="46.64" y="92.337292" style="stroke: #000000; stroke-width: 0.8"/>
      </g>
     </g>
     <g id="text_8">
      <!-- 0 -->
      <g transform="translate(33.2775 96.13651)scale(0.1 -0.1)">
       <use xlink:href="#DejaVuSans-30"/>
      </g>
     </g>
    </g>
    <g id="ytick_4">
     <g id="line2d_8">
      <g>
       <use xlink:href="#m02444b927d" x="46.64" y="63.572899" style="stroke: #000000; stroke-width: 0.8"/>
      </g>
     </g>
     <g id="text_9">
      <!-- 1 -->
      <g transform="translate(33.2775 67.372118)scale(0.1 -0.1)">
       <use xlink:href="#DejaVuSans-31"/>
      </g>
     </g>
    </g>
    <g id="ytick_5">
     <g id="line2d_9">
      <g>
       <use xlink:href="#m02444b927d" x="46.64" y="34.808506" style="stroke: #000000; stroke-width: 0.8"/>
      </g>
     </g>
     <g id="text_10">
      <!-- 2 -->
      <g transform="translate(33.2775 38.607725)scale(0.1 -0.1)">
       <use xlink:href="#DejaVuSans-32"/>
      </g>
     </g>
    </g>
    <g id="text_11">
     <!-- Position -->
     <g transform="translate(18.818125 111.884062)rotate(-90)scale(0.1 -0.1)">
      <defs>
       <path id="DejaVuSans-50" d="M 1259 4147 
L 1259 2394 
L 2053 2394 
Q 2494 2394 2734 2622 
Q 2975 2850 2975 3272 
Q 2975 3691 2734 3919 
Q 2494 4147 2053 4147 
L 1259 4147 
z
M 628 4666 
L 2053 4666 
Q 2838 4666 3239 4311 
Q 3641 3956 3641 3272 
Q 3641 2581 3239 2228 
Q 2838 1875 2053 1875 
L 1259 1875 
L 1259 0 
L 628 0 
L 628 4666 
z
" transform="scale(0.015625)"/>
       <path id="DejaVuSans-6f" d="M 1959 3097 
Q 1497 3097 1228 2736 
Q 959 2375 959 1747 
Q 959 1119 1226 758 
Q 1494 397 1959 397 
Q 2419 397 2687 759 
Q 2956 1122 2956 1747 
Q 2956 2369 2687 2733 
Q 2419 3097 1959 3097 
z
M 1959 3584 
Q 2709 3584 3137 3096 
Q 3566 2609 3566 1747 
Q 3566 888 3137 398 
Q 2709 -91 1959 -91 
Q 1206 -91 779 398 
Q 353 888 353 1747 
Q 353 2609 779 3096 
Q 1206 3584 1959 3584 
z
" transform="scale(0.015625)"/>
       <path id="DejaVuSans-73" d="M 2834 3397 
L 2834 2853 
Q 2591 2978 2328 3040 
Q 2066 3103 1784 3103 
Q 1356 3103 1142 2972 
Q 928 2841 928 2578 
Q 928 2378 1081 2264 
Q 1234 2150 1697 2047 
L 1894 2003 
Q 2506 1872 2764 1633 
Q 3022 1394 3022 966 
Q 3022 478 2636 193 
Q 2250 -91 1575 -91 
Q 1294 -91 989 -36 
Q 684 19 347 128 
L 347 722 
Q 666 556 975 473 
Q 1284 391 1588 391 
Q 1994 391 2212 530 
Q 2431 669 2431 922 
Q 2431 1156 2273 1281 
Q 2116 1406 1581 1522 
L 1381 1569 
Q 847 1681 609 1914 
Q 372 2147 372 2553 
Q 372 3047 722 3315 
Q 1072 3584 1716 3584 
Q 2034 3584 2315 3537 
Q 2597 3491 2834 3397 
z
" transform="scale(0.015625)"/>
       <path id="DejaVuSans-74" d="M 1172 4494 
L 1172 3500 
L 2356 3500 
L 2356 3053 
L 1172 3053 
L 1172 1153 
Q 1172 725 1289 603 
Q 1406 481 1766 481 
L 2356 481 
L 2356 0 
L 1766 0 
Q 1100 0 847 248 
Q 594 497 594 1153 
L 594 3053 
L 172 3053 
L 172 3500 
L 594 3500 
L 594 4494 
L 1172 4494 
z
" transform="scale(0.015625)"/>
       <path id="DejaVuSans-6e" d="M 3513 2113 
L 3513 0 
L 2938 0 
L 2938 2094 
Q 2938 2591 2744 2837 
Q 2550 3084 2163 3084 
Q 1697 3084 1428 2787 
Q 1159 2491 1159 1978 
L 1159 0 
L 581 0 
L 581 3500 
L 1159 3500 
L 1159 2956 
Q 1366 3272 1645 3428 
Q 1925 3584 2291 3584 
Q 2894 3584 3203 3211 
Q 3513 2838 3513 2113 
z
" transform="scale(0.015625)"/>
      </defs>
      <use xlink:href="#DejaVuSans-50"/>
      <use xlink:href="#DejaVuSans-6f" x="56.677734"/>
      <use xlink:href="#DejaVuSans-73" x="117.859375"/>
      <use xlink:href="#DejaVuSans-69" x="169.958984"/>
      <use xlink:href="#DejaVuSans-74" x="197.742188"/>
      <use xlink:href="#DejaVuSans-69" x="236.951172"/>
      <use xlink:href="#DejaVuSans-6f" x="264.734375"/>
      <use xlink:href="#DejaVuSans-6e" x="325.916016"/>
     </g>
    </g>
   </g>
   <g id="line2d_10">
    <path d="M 53.356364 94.612346 
L 64.651149 94.501809 
L 69.222848 94.268653 
L 78.904093 93.817124 
L 87.106259 93.800208 
L 146.807269 93.636498 
L 157.295284 93.269359 
L 177.599006 93.106367 
L 186.339019 92.668558 
L 187.683636 92.349204 
L 187.683636 92.349204 
" clip-path="url(#p3acb76bb06)" style="fill: none; stroke: #1f77b4; stroke-width: 1.5; stroke-linecap: square"/>
   </g>
   <g id="line2d_11">
    <path d="M 53.356364 120.759569 
L 54.700981 120.63482 
L 56.314522 120.23564 
L 63.440994 117.923732 
L 71.777621 115.05215 
L 123.679851 97.212688 
L 125.696777 96.869348 
L 128.386011 96.41089 
L 130.537399 95.747843 
L 187.549175 76.217912 
L 187.683636 76.213525 
L 187.683636 76.213525 
" clip-path="url(#p3acb76bb06)" style="fill: none; stroke: #ff7f0e; stroke-width: 1.5; stroke-linecap: square"/>
   </g>
   <g id="line2d_12">
    <path d="M 53.356364 90.748087 
L 55.104366 90.631108 
L 57.659139 90.196914 
L 61.827453 89.494228 
L 64.651149 88.967832 
L 68.147154 88.057923 
L 71.105313 87.082799 
L 77.290552 84.591328 
L 80.921019 83.442393 
L 84.417024 82.594513 
L 97.190889 79.945594 
L 102.569358 78.965911 
L 114.401991 76.446597 
L 118.570305 75.863455 
L 128.25155 74.771991 
L 132.823249 73.920438 
L 136.588177 73.68949 
L 148.555272 73.24054 
L 167.514376 73.424483 
L 172.48946 73.664905 
L 180.019317 74.317231 
L 184.322093 74.687128 
L 186.204557 75.131633 
L 187.549175 75.44087 
L 187.683636 75.44498 
L 187.683636 75.44498 
" clip-path="url(#p3acb76bb06)" style="fill: none; stroke: #2ca02c; stroke-width: 1.5; stroke-linecap: square"/>
   </g>
   <g id="line2d_13">
    <path d="M 53.356364 166.62 
L 57.390216 166.507628 
L 60.213912 166.208165 
L 65.323458 165.558949 
L 71.912083 165.170241 
L 75.139165 164.377261 
L 79.710864 163.235175 
L 81.862251 163.000687 
L 89.392108 162.415701 
L 92.61919 161.763605 
L 98.401045 160.512562 
L 101.224741 160.2161 
L 106.065364 159.762792 
L 117.897996 158.30284 
L 121.528463 158.073783 
L 133.898943 157.888415 
L 141.294338 157.837625 
L 155.816205 157.296029 
L 162.270369 157.013781 
L 165.49745 156.843841 
L 169.127917 156.386349 
L 172.623922 156.022628 
L 176.523312 155.637674 
L 182.977476 154.497151 
L 187.280251 153.862706 
L 187.683636 153.855636 
L 187.683636 153.855636 
" clip-path="url(#p3acb76bb06)" style="fill: none; stroke: #d62728; stroke-width: 1.5; stroke-linecap: square"/>
   </g>
   <g id="line2d_14">
    <path d="M 53.356364 90.723456 
L 59.541603 90.607281 
L 60.348374 90.300519 
L 61.424068 89.569359 
L 62.634223 88.785225 
L 63.440994 88.550149 
L 64.382226 88.532516 
L 67.071461 88.646947 
L 68.416078 88.39774 
L 69.491772 87.993637 
L 72.181006 86.750791 
L 73.525624 86.684445 
L 76.34932 86.586855 
L 79.038555 86.187067 
L 83.610254 85.329711 
L 86.299489 85.310043 
L 95.308425 85.310515 
L 116.822302 85.401606 
L 121.125078 85.656696 
L 122.604157 85.978239 
L 123.679851 86.421863 
L 124.890006 87.191668 
L 127.713703 89.115218 
L 128.654935 89.430184 
L 129.730629 89.532856 
L 136.319254 89.656405 
L 137.394948 89.962585 
L 138.470642 90.526 
L 142.773417 93.130161 
L 143.983573 93.464776 
L 146.672807 94.058449 
L 148.286348 94.771781 
L 151.378968 96.236256 
L 152.723585 96.512229 
L 155.009435 96.937321 
L 156.354052 97.486004 
L 158.236517 98.54192 
L 160.253443 99.639081 
L 161.463598 100.022238 
L 162.942677 100.232098 
L 165.631912 100.559817 
L 166.842068 100.963998 
L 168.186685 101.693676 
L 170.203611 102.794184 
L 174.237463 104.567964 
L 175.58208 105.168715 
L 176.926698 105.476714 
L 179.884856 106.051627 
L 181.632858 106.673273 
L 186.607942 108.910073 
L 187.414713 109.263828 
L 187.683636 109.296033 
L 187.683636 109.296033 
" clip-path="url(#p3acb76bb06)" style="fill: none; stroke: #9467bd; stroke-width: 1.5; stroke-linecap: square"/>
   </g>
   <g id="line2d_15">
    <path d="M 53.356364 46.565782 
L 55.642213 46.457455 
L 57.659139 46.142043 
L 64.920073 44.42566 
L 69.088387 42.938854 
L 72.181006 41.665321 
L 73.2567 41.453846 
L 74.735779 41.453704 
L 76.887167 41.417321 
L 78.769631 41.145311 
L 81.593328 40.495005 
L 84.82041 39.425148 
L 87.644106 38.623917 
L 91.005649 37.941254 
L 93.291499 37.661724 
L 96.921966 37.298362 
L 100.552432 36.582394 
L 102.70382 35.941598 
L 107.544443 34.407748 
L 112.250603 33.40839 
L 121.662925 31.398829 
L 124.352159 30.5402 
L 126.100162 30.315402 
L 128.386011 30.001697 
L 130.134014 29.484326 
L 134.705713 27.774386 
L 138.470642 26.436568 
L 141.563261 25.613637 
L 144.386958 24.814478 
L 146.807269 23.876648 
L 148.824195 23.159517 
L 153.530356 21.891404 
L 155.143897 21.426238 
L 156.757437 21.236837 
L 160.253443 20.929629 
L 161.59806 20.501727 
L 164.287295 19.562241 
L 165.766374 19.348062 
L 168.052223 19.277862 
L 177.061159 19.196476 
L 184.994402 18.545199 
L 187.011328 18.237335 
L 187.683636 18.22 
L 187.683636 18.22 
" clip-path="url(#p3acb76bb06)" style="fill: none; stroke: #8c564b; stroke-width: 1.5; stroke-linecap: square"/>
   </g>
   <g id="line2d_16">
    <path d="M 53.356364 70.380641 
L 56.98683 70.266293 
L 61.289606 70.201429 
L 63.709917 70.083619 
L 68.953925 69.440326 
L 72.315468 68.674154 
L 76.214858 66.958483 
L 78.63517 66.01093 
L 79.979787 65.709399 
L 89.392108 64.398372 
L 90.871188 63.937521 
L 93.022575 63.260908 
L 98.80443 62.156545 
L 102.569358 61.716579 
L 107.141057 60.781509 
L 110.905986 60.044904 
L 113.191835 59.742239 
L 117.091226 59.294869 
L 120.183846 59.061979 
L 121.931848 58.774965 
L 123.276466 58.332011 
L 124.486621 57.711661 
L 126.503547 56.366521 
L 128.386011 55.188384 
L 129.730629 54.600999 
L 131.075246 54.241859 
L 132.554325 54.081038 
L 134.571251 54.112318 
L 136.453716 54.099429 
L 137.394948 53.886795 
L 138.33618 53.445075 
L 142.504494 51.121192 
L 143.714649 50.840028 
L 146.941731 50.294502 
L 148.958657 49.517694 
L 150.841121 48.863348 
L 152.051277 48.692179 
L 155.816205 48.432428 
L 157.160823 47.954379 
L 158.908825 47.052859 
L 160.387904 46.372797 
L 161.463598 46.137631 
L 162.808215 46.097309 
L 165.631912 46.080361 
L 166.842068 45.805665 
L 168.186685 45.218254 
L 170.606996 44.100702 
L 172.758384 43.469452 
L 175.851004 42.720525 
L 178.136853 42.45051 
L 183.111937 41.970151 
L 184.187631 41.590153 
L 185.532249 40.814806 
L 187.011328 39.979533 
L 187.683636 39.83656 
L 187.683636 39.83656 
" clip-path="url(#p3acb76bb06)" style="fill: none; stroke: #e377c2; stroke-width: 1.5; stroke-linecap: square"/>
   </g>
   <g id="patch_3">
    <path d="M 46.64 174.04 
L 46.64 10.8 
" style="fill: none; stroke: #000000; stroke-width: 0.8; stroke-linejoin: miter; stroke-linecap: square"/>
   </g>
   <g id="patch_4">
    <path d="M 194.4 174.04 
L 194.4 10.8 
" style="fill: none; stroke: #000000; stroke-width: 0.8; stroke-linejoin: miter; stroke-linecap: square"/>
   </g>
   <g id="patch_5">
    <path d="M 46.64 174.04 
L 194.4 174.04 
" style="fill: none; stroke: #000000; stroke-width: 0.8; stroke-linejoin: miter; stroke-linecap: square"/>
   </g>
   <g id="patch_6">
    <path d="M 46.64 10.8 
L 194.4 10.8 
" style="fill: none; stroke: #000000; stroke-width: 0.8; stroke-linejoin: miter; stroke-linecap: square"/>
   </g>
  </g>
  <g id="axes_2">
   <g id="patch_7">
    <path d="M 266.24 174.04 
L 414 174.04 
L 414 10.8 
L 266.24 10.8 
z
" style="fill: #ffffff"/>
   </g>
   <g id="matplotlib.axis_3">
    <g id="xtick_5">
     <g id="line2d_17">
      <g>
       <use xlink:href="#md2261ff7a8" x="272.956364" y="174.04" style="stroke: #000000; stroke-width: 0.8"/>
      </g>
     </g>
     <g id="text_12">
      <!-- 0.0 -->
      <g transform="translate(265.004801 188.638438)scale(0.1 -0.1)">
       <use xlink:href="#DejaVuSans-30"/>
       <use xlink:href="#DejaVuSans-2e" x="63.623047"/>
       <use xlink:href="#DejaVuSans-30" x="95.410156"/>
      </g>
     </g>
    </g>
    <g id="xtick_6">
     <g id="line2d_18">
      <g>
       <use xlink:href="#md2261ff7a8" x="314.541648" y="174.04" style="stroke: #000000; stroke-width: 0.8"/>
      </g>
     </g>
     <g id="text_13">
      <!-- 0.5 -->
      <g transform="translate(306.590085 188.638438)scale(0.1 -0.1)">
       <use xlink:href="#DejaVuSans-30"/>
       <use xlink:href="#DejaVuSans-2e" x="63.623047"/>
       <use xlink:href="#DejaVuSans-35" x="95.410156"/>
      </g>
     </g>
    </g>
    <g id="xtick_7">
     <g id="line2d_19">
      <g>
       <use xlink:href="#md2261ff7a8" x="356.126932" y="174.04" style="stroke: #000000; stroke-width: 0.8"/>
      </g>
     </g>
     <g id="text_14">
      <!-- 1.0 -->
      <g transform="translate(348.17537 188.638438)scale(0.1 -0.1)">
       <use xlink:href="#DejaVuSans-31"/>
       <use xlink:href="#DejaVuSans-2e" x="63.623047"/>
       <use xlink:href="#DejaVuSans-30" x="95.410156"/>
      </g>
     </g>
    </g>
    <g id="xtick_8">
     <g id="line2d_20">
      <g>
       <use xlink:href="#md2261ff7a8" x="397.712216" y="174.04" style="stroke: #000000; stroke-width: 0.8"/>
      </g>
     </g>
     <g id="text_15">
      <!-- 1.5 -->
      <g transform="translate(389.760654 188.638438)scale(0.1 -0.1)">
       <use xlink:href="#DejaVuSans-31"/>
       <use xlink:href="#DejaVuSans-2e" x="63.623047"/>
       <use xlink:href="#DejaVuSans-35" x="95.410156"/>
      </g>
     </g>
    </g>
    <g id="text_16">
     <!-- Time -->
     <g transform="translate(327.886406 202.316563)scale(0.1 -0.1)">
      <use xlink:href="#DejaVuSans-54"/>
      <use xlink:href="#DejaVuSans-69" x="57.958984"/>
      <use xlink:href="#DejaVuSans-6d" x="85.742188"/>
      <use xlink:href="#DejaVuSans-65" x="183.154297"/>
     </g>
    </g>
   </g>
   <g id="matplotlib.axis_4">
    <g id="ytick_6">
     <g id="line2d_21">
      <g>
       <use xlink:href="#m02444b927d" x="266.24" y="160.412348" style="stroke: #000000; stroke-width: 0.8"/>
      </g>
     </g>
     <g id="text_17">
      <!-- −2 -->
      <g transform="translate(244.497812 164.211567)scale(0.1 -0.1)">
       <use xlink:href="#DejaVuSans-2212"/>
       <use xlink:href="#DejaVuSans-32" x="83.789062"/>
      </g>
     </g>
    </g>
    <g id="ytick_7">
     <g id="line2d_22">
      <g>
       <use xlink:href="#m02444b927d" x="266.24" y="126.14697" style="stroke: #000000; stroke-width: 0.8"/>
      </g>
     </g>
     <g id="text_18">
      <!-- −1 -->
      <g transform="translate(244.497812 129.946189)scale(0.1 -0.1)">
       <use xlink:href="#DejaVuSans-2212"/>
       <use xlink:href="#DejaVuSans-31" x="83.789062"/>
      </g>
     </g>
    </g>
    <g id="ytick_8">
     <g id="line2d_23">
      <g>
       <use xlink:href="#m02444b927d" x="266.24" y="91.881592" style="stroke: #000000; stroke-width: 0.8"/>
      </g>
     </g>
     <g id="text_19">
      <!-- 0 -->
      <g transform="translate(252.8775 95.680811)scale(0.1 -0.1)">
       <use xlink:href="#DejaVuSans-30"/>
      </g>
     </g>
    </g>
    <g id="ytick_9">
     <g id="line2d_24">
      <g>
       <use xlink:href="#m02444b927d" x="266.24" y="57.616215" style="stroke: #000000; stroke-width: 0.8"/>
      </g>
     </g>
     <g id="text_20">
      <!-- 1 -->
      <g transform="translate(252.8775 61.415433)scale(0.1 -0.1)">
       <use xlink:href="#DejaVuSans-31"/>
      </g>
     </g>
    </g>
    <g id="ytick_10">
     <g id="line2d_25">
      <g>
       <use xlink:href="#m02444b927d" x="266.24" y="23.350837" style="stroke: #000000; stroke-width: 0.8"/>
      </g>
     </g>
     <g id="text_21">
      <!-- 2 -->
      <g transform="translate(252.8775 27.150055)scale(0.1 -0.1)">
       <use xlink:href="#DejaVuSans-32"/>
      </g>
     </g>
    </g>
    <g id="text_22">
     <!-- Velocity -->
     <g transform="translate(238.418125 112.035625)rotate(-90)scale(0.1 -0.1)">
      <defs>
       <path id="DejaVuSans-56" d="M 1831 0 
L 50 4666 
L 709 4666 
L 2188 738 
L 3669 4666 
L 4325 4666 
L 2547 0 
L 1831 0 
z
" transform="scale(0.015625)"/>
       <path id="DejaVuSans-6c" d="M 603 4863 
L 1178 4863 
L 1178 0 
L 603 0 
L 603 4863 
z
" transform="scale(0.015625)"/>
       <path id="DejaVuSans-63" d="M 3122 3366 
L 3122 2828 
Q 2878 2963 2633 3030 
Q 2388 3097 2138 3097 
Q 1578 3097 1268 2742 
Q 959 2388 959 1747 
Q 959 1106 1268 751 
Q 1578 397 2138 397 
Q 2388 397 2633 464 
Q 2878 531 3122 666 
L 3122 134 
Q 2881 22 2623 -34 
Q 2366 -91 2075 -91 
Q 1284 -91 818 406 
Q 353 903 353 1747 
Q 353 2603 823 3093 
Q 1294 3584 2113 3584 
Q 2378 3584 2631 3529 
Q 2884 3475 3122 3366 
z
" transform="scale(0.015625)"/>
       <path id="DejaVuSans-79" d="M 2059 -325 
Q 1816 -950 1584 -1140 
Q 1353 -1331 966 -1331 
L 506 -1331 
L 506 -850 
L 844 -850 
Q 1081 -850 1212 -737 
Q 1344 -625 1503 -206 
L 1606 56 
L 191 3500 
L 800 3500 
L 1894 763 
L 2988 3500 
L 3597 3500 
L 2059 -325 
z
" transform="scale(0.015625)"/>
      </defs>
      <use xlink:href="#DejaVuSans-56"/>
      <use xlink:href="#DejaVuSans-65" x="60.658203"/>
      <use xlink:href="#DejaVuSans-6c" x="122.181641"/>
      <use xlink:href="#DejaVuSans-6f" x="149.964844"/>
      <use xlink:href="#DejaVuSans-63" x="211.146484"/>
      <use xlink:href="#DejaVuSans-69" x="266.126953"/>
      <use xlink:href="#DejaVuSans-74" x="293.910156"/>
      <use xlink:href="#DejaVuSans-79" x="333.119141"/>
     </g>
    </g>
   </g>
   <g id="line2d_26">
    <path d="M 272.956364 91.881592 
L 274.435443 91.415665 
L 275.914522 91.173347 
L 277.393601 91.154639 
L 278.469295 91.137298 
L 279.544989 90.904184 
L 281.024068 90.531906 
L 282.099762 90.508183 
L 282.77207 90.492258 
L 283.309917 90.242428 
L 283.847764 89.768945 
L 284.520073 88.862579 
L 285.461305 87.085148 
L 285.999152 86.318653 
L 286.536999 85.921293 
L 286.940384 85.865517 
L 287.343769 86.017379 
L 287.747154 86.37688 
L 288.15054 86.768159 
L 288.419463 86.753714 
L 288.688387 86.499379 
L 289.091772 85.668083 
L 290.033004 83.143118 
L 290.301927 82.986557 
L 290.570851 83.12329 
L 291.377621 84.357194 
L 293.797932 88.263843 
L 294.604703 88.965989 
L 295.545935 89.449687 
L 296.487167 89.664954 
L 297.831785 89.843105 
L 298.504093 90.285111 
L 299.310864 91.145759 
L 299.983172 91.702386 
L 300.521019 91.907241 
L 301.193328 91.893071 
L 303.479177 91.788598 
L 314.50504 91.76705 
L 316.656427 91.475768 
L 317.866583 91.631663 
L 319.2112 91.854275 
L 320.421356 91.820542 
L 324.186284 91.425695 
L 325.127517 91.58842 
L 326.472134 91.889534 
L 327.68229 91.900315 
L 331.178295 91.876084 
L 337.363534 91.879984 
L 347.582626 91.860902 
L 357.263871 91.679848 
L 362.238955 90.937591 
L 363.449111 90.472643 
L 364.255881 89.84662 
L 365.062652 88.928679 
L 366.138346 87.58507 
L 366.676193 87.309796 
L 367.079578 87.304525 
L 367.617425 87.565741 
L 368.155272 88.133524 
L 368.962042 89.109627 
L 369.365427 89.257539 
L 369.768812 89.158773 
L 370.172198 88.813329 
L 370.710045 87.969015 
L 371.516815 86.476175 
L 372.054662 85.995282 
L 372.458047 85.921699 
L 372.861432 86.09419 
L 373.264818 86.512754 
L 373.802664 87.453623 
L 375.550667 91.226227 
L 376.088514 91.6793 
L 376.491899 91.771126 
L 376.895284 91.650398 
L 377.567593 91.093226 
L 378.508825 90.471501 
L 379.315596 90.179812 
L 380.122366 90.110786 
L 381.19806 90.285635 
L 382.273754 90.692784 
L 383.483909 91.412582 
L 384.425142 91.864819 
L 385.366374 92.078564 
L 386.307606 92.05383 
L 389.265764 91.717821 
L 390.47592 91.730773 
L 391.551613 91.986631 
L 392.896231 92.386215 
L 393.434078 92.160894 
L 393.971925 91.64883 
L 394.644233 90.605518 
L 395.585465 89.007785 
L 396.257774 88.330309 
L 396.795621 88.073253 
L 397.333468 88.069463 
L 397.871315 88.318939 
L 401.098397 90.582509 
L 401.636244 90.802388 
L 402.039629 90.753647 
L 402.443014 90.520412 
L 402.980861 89.922438 
L 403.518708 88.996473 
L 403.787631 88.347134 
L 404.191016 86.373825 
L 404.594402 83.09024 
L 405.132249 76.673918 
L 405.804557 65.377823 
L 406.073481 60.804375 
L 406.207942 59.960703 
L 406.342404 60.191206 
L 406.611328 63.874732 
L 406.880251 71.854955 
L 407.283636 91.881592 
L 407.283636 91.881592 
" clip-path="url(#p5f20a50c14)" style="fill: none; stroke: #1f77b4; stroke-width: 1.5; stroke-linecap: square"/>
   </g>
   <g id="line2d_27">
    <path d="M 272.956364 91.881592 
L 273.897596 79.08373 
L 274.838828 69.264417 
L 275.645598 63.218547 
L 276.317907 59.851957 
L 276.855754 58.252846 
L 277.259139 57.691774 
L 277.528063 57.61784 
L 278.06591 57.793771 
L 278.603756 58.260102 
L 279.141603 59.016834 
L 279.948374 60.642399 
L 280.486221 61.444438 
L 280.889606 61.724322 
L 281.292991 61.728508 
L 281.696376 61.456999 
L 282.099762 60.909792 
L 283.444379 58.678684 
L 284.116688 58.016262 
L 284.788996 57.671075 
L 285.461305 57.616215 
L 340.590616 57.677655 
L 340.85954 57.929769 
L 341.262925 58.67318 
L 341.800772 60.34618 
L 342.338619 62.798361 
L 343.010927 66.959313 
L 344.355545 75.981041 
L 344.893392 77.837542 
L 345.296777 78.495715 
L 345.5657 78.584876 
L 345.834624 78.394341 
L 346.103547 77.92411 
L 346.506932 76.694334 
L 347.044779 74.075694 
L 347.582626 70.338269 
L 348.523858 63.524158 
L 349.196167 60.227 
L 349.734014 58.545368 
L 350.137399 57.841864 
L 350.406323 57.638443 
L 351.213093 57.616215 
L 378.10544 57.724007 
L 379.046672 58.06051 
L 379.987904 58.625822 
L 380.929136 59.186204 
L 381.601445 59.327833 
L 382.273754 59.248948 
L 382.946062 58.949549 
L 384.694065 57.928183 
L 385.635297 57.669576 
L 386.710991 57.616215 
L 405.939019 57.637775 
L 406.073481 58.131045 
L 406.342404 61.07166 
L 406.745789 70.367769 
L 407.149175 85.526099 
L 407.283636 91.881592 
L 407.283636 91.881592 
" clip-path="url(#p5f20a50c14)" style="fill: none; stroke: #ff7f0e; stroke-width: 1.5; stroke-linecap: square"/>
   </g>
   <g id="line2d_28">
    <path d="M 272.956364 91.881592 
L 273.897596 84.5323 
L 274.838828 78.938022 
L 275.645598 75.539776 
L 276.317907 73.692862 
L 276.855754 72.86003 
L 277.259139 72.611481 
L 277.662524 72.670364 
L 278.06591 72.937349 
L 278.603756 73.588566 
L 279.141603 74.577196 
L 280.620683 77.628305 
L 280.889606 77.71172 
L 281.158529 77.612041 
L 281.561915 77.119222 
L 281.9653 76.214442 
L 282.77207 73.53314 
L 283.847764 70.397365 
L 284.788996 68.281742 
L 289.091772 60.358763 
L 289.495157 59.827968 
L 289.76408 58.964258 
L 290.167466 56.478054 
L 290.705313 50.948657 
L 291.24316 46.086293 
L 291.512083 44.884181 
L 291.781006 44.501447 
L 291.915468 44.617348 
L 292.184392 45.463684 
L 293.797932 53.668405 
L 294.335779 54.857637 
L 294.873626 55.381537 
L 296.890552 57.301697 
L 297.562861 58.124059 
L 298.369631 59.534813 
L 299.310864 61.74926 
L 300.789943 65.18181 
L 302.13456 67.777245 
L 303.344716 69.655903 
L 304.017024 70.430583 
L 304.554871 70.758546 
L 305.092718 70.821596 
L 305.630565 70.619734 
L 306.168412 70.15296 
L 306.975182 69.32409 
L 307.513029 69.065118 
L 308.050876 69.053431 
L 308.588723 69.289027 
L 309.12657 69.771907 
L 310.067802 70.708135 
L 310.874573 71.195633 
L 311.546881 71.378243 
L 313.294884 71.63493 
L 313.967193 72.214283 
L 314.639501 73.106834 
L 316.11858 75.344429 
L 316.790889 75.826159 
L 317.328736 75.94092 
L 317.866583 75.815129 
L 318.538892 75.369931 
L 319.345662 74.532353 
L 320.152432 73.366854 
L 322.976129 68.804637 
L 323.917361 67.668493 
L 324.58967 67.208502 
L 325.127517 67.069195 
L 325.665364 67.138435 
L 326.20321 67.432191 
L 326.875519 68.116648 
L 327.68229 69.35167 
L 329.968139 72.857245 
L 330.774909 73.759754 
L 331.58168 74.353016 
L 332.791835 74.85391 
L 334.539838 75.723338 
L 335.077685 76.161788 
L 335.749994 77.031354 
L 336.422302 78.258149 
L 338.035843 81.498694 
L 338.708152 82.170222 
L 339.245999 82.385049 
L 339.783846 82.3133 
L 340.321693 81.954976 
L 340.994001 81.428901 
L 341.531848 81.238962 
L 342.069695 81.256145 
L 342.607542 81.48045 
L 343.279851 82.052096 
L 343.817698 82.543998 
L 344.221083 82.616759 
L 344.624468 82.423478 
L 345.027853 81.964155 
L 345.5657 80.937881 
L 346.103547 79.438643 
L 346.775856 76.899491 
L 347.582626 72.87702 
L 348.120473 70.18161 
L 348.523858 68.962196 
L 348.792782 68.541508 
L 349.061705 68.434625 
L 349.330629 68.641545 
L 349.599552 69.162269 
L 350.002937 70.531737 
L 350.540784 73.455612 
L 351.482017 78.851071 
L 352.288787 82.273584 
L 352.961096 84.277996 
L 353.498943 85.32668 
L 354.03679 85.902218 
L 355.246945 86.764849 
L 356.457101 87.364186 
L 357.532795 87.650334 
L 358.070642 87.58431 
L 358.74295 87.250414 
L 359.415259 86.637222 
L 360.490953 85.540134 
L 361.0288 85.355792 
L 361.566647 85.436901 
L 362.104494 85.783461 
L 362.642341 86.395472 
L 366.003884 91.085492 
L 366.810654 91.774419 
L 367.617425 92.166882 
L 368.289733 92.267469 
L 369.230966 92.127827 
L 370.172198 91.740683 
L 371.651277 91.0085 
L 372.189124 91.171259 
L 372.726971 91.627307 
L 373.264818 92.376646 
L 373.937126 93.725758 
L 375.01282 96.060932 
L 375.416205 96.455455 
L 375.81959 96.55525 
L 376.222976 96.360314 
L 376.626361 95.870648 
L 377.164208 94.759291 
L 377.970978 92.964827 
L 378.643287 91.968437 
L 379.181134 91.498526 
L 379.718981 91.319462 
L 380.256828 91.423734 
L 382.408215 92.063245 
L 384.559603 92.688272 
L 385.635297 93.302768 
L 390.206996 96.574981 
L 390.744843 97.547204 
L 391.417152 99.299722 
L 392.223922 102.190692 
L 392.761769 104.011373 
L 393.165154 104.779187 
L 393.434078 105.005867 
L 393.703001 105.004391 
L 393.971925 104.774757 
L 394.37531 104.002514 
L 394.913157 102.218129 
L 395.719927 99.729394 
L 396.392236 98.315944 
L 396.930083 97.617508 
L 397.46793 97.303361 
L 397.871315 97.319941 
L 399.484856 97.79848 
L 400.829473 97.954794 
L 401.36732 98.022261 
L 401.636244 98.297611 
L 402.039629 99.120364 
L 402.577476 100.982191 
L 403.115323 103.718103 
L 403.922093 109.303216 
L 404.997787 116.256072 
L 405.939019 121.074607 
L 406.073481 121.180167 
L 406.207942 120.613535 
L 406.476866 117.463698 
L 406.880251 107.697507 
L 407.283636 91.881592 
L 407.283636 91.881592 
" clip-path="url(#p5f20a50c14)" style="fill: none; stroke: #2ca02c; stroke-width: 1.5; stroke-linecap: square"/>
   </g>
   <g id="line2d_29">
    <path d="M 272.956364 91.881592 
L 273.763134 91.09612 
L 274.704366 89.834666 
L 275.645598 88.201599 
L 276.721292 85.8802 
L 278.06591 82.350005 
L 280.351759 76.177874 
L 280.755144 75.744695 
L 281.024068 75.667296 
L 281.292991 75.759009 
L 281.696376 76.21366 
L 282.099762 77.048811 
L 282.906532 79.523232 
L 284.116688 83.941324 
L 285.999152 91.128088 
L 286.402537 91.640779 
L 286.671461 91.691045 
L 286.940384 91.50809 
L 287.343769 90.796364 
L 287.747154 89.55989 
L 288.553925 86.746521 
L 289.091772 85.60542 
L 289.629619 84.808709 
L 289.898542 83.8284 
L 290.301927 81.364327 
L 291.781006 69.931553 
L 292.184392 68.647286 
L 292.587777 68.136799 
L 293.529009 66.96516 
L 294.470241 65.420426 
L 295.008088 64.584692 
L 295.411473 64.255017 
L 295.814858 64.183728 
L 296.218244 64.370825 
L 296.621629 64.816309 
L 297.159476 65.821213 
L 297.697323 67.397322 
L 298.369631 70.211676 
L 299.176402 74.819999 
L 300.117634 80.109277 
L 300.924404 83.574831 
L 301.731175 86.08178 
L 302.403483 87.458591 
L 302.94133 88.093797 
L 303.344716 88.298227 
L 303.748101 88.275409 
L 304.151486 88.048925 
L 304.689333 87.433976 
L 305.22718 86.461345 
L 305.899489 84.742568 
L 309.261032 74.772631 
L 311.009034 70.94622 
L 312.353652 68.431354 
L 312.891499 67.793237 
L 313.294884 67.56392 
L 313.698269 67.548265 
L 314.101654 67.74627 
L 314.639501 68.342639 
L 315.177348 69.314859 
L 316.11858 71.518604 
L 317.194274 74.617991 
L 319.749047 82.546904 
L 320.690279 84.44971 
L 321.228126 85.044395 
L 321.631512 85.184689 
L 322.034897 85.062937 
L 322.438282 84.679139 
L 322.976129 83.759782 
L 324.993055 79.488995 
L 325.665364 78.810383 
L 326.472134 78.32497 
L 327.144443 78.175437 
L 328.085675 78.264657 
L 329.161369 78.583071 
L 331.447218 79.410809 
L 333.464144 79.932558 
L 334.6743 80.579511 
L 336.825688 82.063258 
L 337.632458 82.808634 
L 338.439228 83.872072 
L 339.38046 85.516008 
L 340.456154 87.922891 
L 341.397386 89.890759 
L 342.204157 91.096444 
L 342.876466 91.761973 
L 343.548774 92.120002 
L 344.221083 92.196587 
L 344.893392 92.003893 
L 345.5657 91.54192 
L 346.238009 90.810668 
L 347.044779 89.577716 
L 348.523858 87.124095 
L 348.927244 86.971951 
L 349.330629 87.095532 
L 349.734014 87.494838 
L 350.271861 88.456152 
L 351.616478 91.415723 
L 352.288787 92.266676 
L 352.826634 92.624217 
L 353.364481 92.694452 
L 353.902328 92.477845 
L 354.978022 91.92047 
L 356.053716 91.618914 
L 357.129409 91.573176 
L 357.801718 91.52132 
L 358.474027 91.199452 
L 359.146335 90.606002 
L 360.625415 89.023831 
L 361.163261 88.912244 
L 361.701108 89.098739 
L 362.238955 89.583316 
L 362.776802 90.365976 
L 363.449111 91.379627 
L 363.986958 91.795111 
L 364.390343 91.871712 
L 364.793728 91.746876 
L 365.197113 91.420601 
L 365.869422 90.510913 
L 367.348501 88.104001 
L 369.096504 85.137233 
L 369.499889 84.893092 
L 369.903274 84.890245 
L 370.306659 85.128693 
L 370.710045 85.608434 
L 371.785738 87.125588 
L 372.323585 87.528994 
L 372.861432 87.683038 
L 373.399279 87.587718 
L 373.937126 87.243036 
L 375.550667 85.863994 
L 376.222976 85.675231 
L 376.895284 85.73269 
L 377.567593 86.032191 
L 378.374363 86.684408 
L 379.181134 87.652652 
L 380.122366 89.181694 
L 380.660213 89.969564 
L 381.063598 90.264977 
L 381.466983 90.306963 
L 381.870369 90.095519 
L 382.273754 89.630648 
L 382.811601 88.616597 
L 383.618371 86.393862 
L 385.09745 82.507408 
L 386.442068 79.517893 
L 386.979914 78.684011 
L 387.517761 78.223695 
L 387.921147 78.123609 
L 388.324532 78.233653 
L 388.727917 78.553827 
L 389.265764 79.307595 
L 392.358384 84.76407 
L 392.761769 85.082291 
L 393.030693 85.082966 
L 393.299616 84.914463 
L 393.703001 84.3445 
L 394.106386 83.393886 
L 394.644233 81.534278 
L 395.719927 77.422014 
L 396.526698 75.313371 
L 397.199006 74.209879 
L 397.736853 73.754968 
L 398.2747 73.624272 
L 399.081471 73.649524 
L 399.888241 73.907425 
L 400.695011 74.397977 
L 401.770705 75.153706 
L 402.308552 75.155801 
L 402.846399 74.85689 
L 403.384246 74.256972 
L 403.922093 73.544814 
L 404.191016 73.545325 
L 404.45994 73.84567 
L 404.863325 74.858377 
L 405.26671 76.545711 
L 405.804557 79.844911 
L 407.149175 90.717088 
L 407.283636 91.881592 
L 407.283636 91.881592 
" clip-path="url(#p5f20a50c14)" style="fill: none; stroke: #d62728; stroke-width: 1.5; stroke-linecap: square"/>
   </g>
   <g id="line2d_30">
    <path d="M 272.956364 91.881592 
L 273.628672 90.97619 
L 274.166519 90.558735 
L 274.704366 90.414051 
L 275.242213 90.542138 
L 275.78006 90.942996 
L 276.317907 91.616625 
L 276.990216 92.842246 
L 277.662524 94.096318 
L 277.796986 93.72255 
L 278.06591 91.848047 
L 278.469295 86.218876 
L 278.87268 77.208804 
L 279.410527 59.936197 
L 280.351759 25.576483 
L 280.755144 19.212928 
L 281.024068 18.22 
L 281.158529 18.698369 
L 281.427453 21.604773 
L 281.830838 30.838543 
L 282.234223 45.92131 
L 283.040994 78.021624 
L 283.578841 92.22475 
L 284.116688 100.61587 
L 284.385611 102.631928 
L 284.654535 103.194985 
L 284.788996 102.931638 
L 285.05792 101.315193 
L 285.86469 92.182646 
L 287.612693 69.993684 
L 288.419463 57.643612 
L 289.091772 43.257738 
L 289.76408 29.201835 
L 289.898542 28.700216 
L 290.033004 29.153428 
L 290.301927 32.924349 
L 290.570851 40.514596 
L 291.377621 68.661357 
L 291.915468 80.950064 
L 292.318853 86.625915 
L 292.8567 90.6972 
L 293.260086 92.308361 
L 293.529009 92.705257 
L 293.663471 92.700542 
L 293.932394 92.284787 
L 294.201318 91.327263 
L 294.604703 88.891821 
L 295.411473 83.936354 
L 296.083782 80.8911 
L 296.756091 78.831576 
L 297.562861 76.804301 
L 298.100708 74.565481 
L 298.773017 70.687828 
L 299.579787 65.771491 
L 299.848711 65.270532 
L 299.983172 65.2774 
L 300.252096 65.805831 
L 300.521019 67.020522 
L 300.924404 70.1288 
L 302.000098 79.231852 
L 302.94133 85.341193 
L 303.748101 89.197807 
L 304.42041 91.423082 
L 304.958256 92.552358 
L 305.361642 93.019597 
L 305.765027 93.161364 
L 306.168412 92.977658 
L 307.513029 91.777522 
L 308.185338 91.51405 
L 308.857647 91.486007 
L 311.950267 91.916094 
L 315.715195 91.809968 
L 329.564754 92.058931 
L 331.312756 92.183547 
L 332.522912 92.250891 
L 333.195221 92.606769 
L 333.867529 93.249109 
L 335.615532 95.24148 
L 336.153379 95.354984 
L 336.691226 95.188901 
L 337.229073 94.900256 
L 337.632458 94.987904 
L 338.035843 95.37314 
L 338.439228 96.055963 
L 338.977075 97.429307 
L 339.649384 99.889956 
L 340.321693 103.177237 
L 340.85954 106.84407 
L 341.397386 112.132097 
L 342.069695 121.030103 
L 342.876466 135.063403 
L 344.221083 160.545215 
L 344.624468 164.515783 
L 345.027853 166.435718 
L 345.162315 166.62 
L 345.296777 166.576434 
L 345.5657 165.805758 
L 345.834624 164.12369 
L 346.238009 159.891727 
L 346.775856 151.059237 
L 347.448165 134.892042 
L 348.523858 105.962209 
L 349.196167 94.584789 
L 349.734014 89.427249 
L 350.002937 88.163278 
L 350.271861 87.77584 
L 350.406323 87.910821 
L 352.288787 92.55737 
L 352.961096 93.424341 
L 353.498943 93.8042 
L 354.03679 94.018758 
L 354.305713 94.653697 
L 354.709098 96.646678 
L 355.112483 99.888349 
L 355.65033 106.152982 
L 356.322639 117.105497 
L 357.129409 134.827041 
L 357.801718 149.5974 
L 358.339565 157.283753 
L 358.74295 160.621158 
L 359.011874 161.690209 
L 359.146335 161.877969 
L 359.280797 161.834552 
L 359.549721 161.054186 
L 359.953106 158.41314 
L 360.625415 152.482494 
L 361.432185 143.176221 
L 362.373417 129.300051 
L 363.583573 110.929009 
L 363.986958 108.326381 
L 364.255881 107.756393 
L 364.390343 107.820927 
L 364.659267 108.649054 
L 364.92819 110.409258 
L 365.331575 114.797209 
L 366.541731 130.840574 
L 367.348501 138.324865 
L 368.02081 142.530718 
L 368.424195 144.160571 
L 368.693119 144.622284 
L 368.82758 144.602608 
L 369.096504 144.06219 
L 369.365427 142.853686 
L 369.768812 139.788267 
L 370.306659 133.362737 
L 370.978968 121.652872 
L 371.651277 111.406688 
L 372.189124 106.707478 
L 372.458047 105.523786 
L 372.726971 105.117369 
L 372.861432 105.205638 
L 373.130356 105.965134 
L 373.399279 107.501904 
L 373.802664 111.26445 
L 374.340511 118.966848 
L 375.281744 132.596868 
L 376.088514 141.59991 
L 376.895284 148.129261 
L 377.433131 150.969979 
L 377.702055 151.568374 
L 377.836517 151.636052 
L 377.970978 151.549383 
L 378.239902 150.913004 
L 378.643287 148.800835 
L 379.046672 145.299546 
L 379.584519 138.470306 
L 380.256828 126.569249 
L 381.063598 113.488582 
L 381.735907 105.918869 
L 382.273754 102.043288 
L 382.677139 100.408379 
L 382.946062 99.924047 
L 383.214986 99.924202 
L 383.483909 100.401594 
L 383.887295 101.997044 
L 384.29068 104.647713 
L 384.828527 109.823393 
L 385.500835 118.931043 
L 386.307606 133.728692 
L 386.979914 144.970748 
L 387.517761 150.015575 
L 387.786685 151.221716 
L 388.055608 151.550342 
L 388.19007 151.385587 
L 388.458994 150.397941 
L 388.862379 147.271131 
L 389.265764 142.169912 
L 390.072534 130.362182 
L 390.47592 127.233676 
L 390.744843 126.281694 
L 390.879305 126.14581 
L 391.013766 126.236664 
L 391.28269 127.098585 
L 391.551613 128.867457 
L 391.954999 133.221299 
L 392.896231 145.513094 
L 393.165154 146.880201 
L 393.299616 147.148223 
L 393.434078 147.139225 
L 393.568539 146.853205 
L 393.837463 145.450103 
L 394.240848 141.267794 
L 394.644233 134.592296 
L 395.585465 117.380797 
L 396.123312 111.056838 
L 396.526698 108.045216 
L 396.930083 106.517605 
L 397.199006 106.323649 
L 397.46793 106.789253 
L 397.736853 107.914418 
L 398.409162 112.595025 
L 401.905167 137.314557 
L 402.17409 137.954603 
L 402.443014 138.154004 
L 402.711937 137.912758 
L 402.980861 137.230866 
L 403.384246 135.381817 
L 404.056555 131.516391 
L 404.325478 131.148093 
L 404.45994 131.26984 
L 404.728863 132.125125 
L 405.132249 134.93753 
L 405.535634 139.585309 
L 406.073481 147.299371 
L 406.207942 147.097419 
L 406.342404 145.406573 
L 406.611328 137.558195 
L 407.014713 114.618918 
L 407.283636 91.881592 
L 407.283636 91.881592 
" clip-path="url(#p5f20a50c14)" style="fill: none; stroke: #9467bd; stroke-width: 1.5; stroke-linecap: square"/>
   </g>
   <g id="line2d_31">
    <path d="M 272.956364 91.881592 
L 274.166519 87.030772 
L 275.376675 81.249488 
L 276.721292 73.734556 
L 277.931448 66.739894 
L 278.334833 65.844137 
L 278.603756 65.83032 
L 278.87268 66.283189 
L 279.141603 67.202742 
L 279.544989 69.457105 
L 280.351759 74.711927 
L 280.755144 75.828752 
L 281.024068 75.963332 
L 281.292991 75.609934 
L 281.561915 74.76856 
L 281.9653 72.591542 
L 283.578841 61.558986 
L 284.116688 59.859644 
L 284.520073 59.296432 
L 284.788996 59.259669 
L 285.05792 59.493875 
L 285.595767 60.161004 
L 285.86469 60.142653 
L 286.133614 59.870344 
L 286.536999 58.98571 
L 286.940384 57.52967 
L 287.478231 54.69943 
L 288.553925 48.305546 
L 288.822848 47.685519 
L 289.091772 47.535159 
L 289.360695 47.854468 
L 290.570851 50.838922 
L 290.839774 51.732075 
L 291.108698 53.449555 
L 291.512083 57.697872 
L 292.04993 66.483542 
L 293.260086 89.632808 
L 293.663471 93.5743 
L 293.932394 95.01865 
L 294.201318 95.516351 
L 294.335779 95.410208 
L 294.604703 94.508269 
L 295.545935 89.706696 
L 296.621629 82.825398 
L 297.831785 74.938764 
L 298.369631 72.76689 
L 298.907478 71.486909 
L 299.579787 70.470364 
L 299.983172 69.268872 
L 300.521019 66.884964 
L 302.000098 59.343904 
L 302.537945 58.09038 
L 302.94133 57.732091 
L 303.210254 57.770306 
L 303.479177 58.030181 
L 304.151486 59.171294 
L 304.958256 61.011109 
L 305.899489 63.805141 
L 307.647491 69.388561 
L 308.454262 71.118965 
L 309.12657 72.117833 
L 309.664417 72.883703 
L 310.202264 74.044592 
L 310.874573 76.057414 
L 311.681343 79.296642 
L 312.891499 84.506625 
L 313.294884 85.254339 
L 313.563807 85.424508 
L 313.832731 85.332032 
L 314.101654 84.976911 
L 314.50504 83.95177 
L 315.042887 81.665657 
L 315.849657 77.867064 
L 316.521966 75.552552 
L 317.194274 74.013885 
L 317.732121 73.341561 
L 318.538892 72.680045 
L 318.942277 71.900461 
L 319.480124 70.332621 
L 320.152432 67.523618 
L 321.765973 59.941844 
L 322.438282 57.97442 
L 322.976129 56.945546 
L 323.379514 56.491861 
L 323.648438 56.401828 
L 323.917361 56.550976 
L 324.186284 56.939306 
L 324.58967 57.970267 
L 325.127517 60.182018 
L 326.20321 65.38213 
L 326.875519 67.632421 
L 327.547828 69.104248 
L 328.354598 70.316696 
L 329.026907 70.977112 
L 329.699216 71.325356 
L 331.043833 71.676394 
L 332.119527 71.764322 
L 332.522912 71.623448 
L 333.060759 71.161901 
L 333.598606 70.387535 
L 334.270915 68.979679 
L 334.808761 67.767432 
L 335.077685 67.542329 
L 335.346608 67.611457 
L 335.615532 67.974814 
L 336.018917 69.071532 
L 336.422302 70.830268 
L 337.76692 77.768605 
L 338.035843 78.145697 
L 338.304767 78.113854 
L 338.57369 77.673074 
L 338.977075 76.24515 
L 339.38046 73.89712 
L 339.918307 69.335137 
L 341.262925 56.417176 
L 341.66631 55.16458 
L 341.800772 55.062609 
L 341.935233 55.118418 
L 342.204157 55.703377 
L 342.47308 56.919458 
L 342.876466 59.92693 
L 343.414312 66.145413 
L 344.086621 74.118954 
L 344.75893 79.482461 
L 345.296777 81.894042 
L 345.5657 82.473424 
L 345.834624 82.635201 
L 346.103547 82.379372 
L 346.372471 81.705938 
L 346.775856 79.912777 
L 347.313703 76.060276 
L 349.061705 60.827126 
L 349.734014 57.559848 
L 350.271861 56.078609 
L 350.675246 55.593513 
L 351.885402 54.665872 
L 352.961096 54.095883 
L 354.03679 53.77665 
L 354.440175 53.838997 
L 354.978022 54.189199 
L 355.515869 54.844626 
L 356.188177 56.09313 
L 356.860486 57.818548 
L 359.953106 66.749452 
L 360.356491 67.385427 
L 360.759876 67.657931 
L 361.0288 67.637673 
L 361.432185 67.304393 
L 361.83557 66.607644 
L 362.373417 65.113248 
L 363.045726 62.374395 
L 365.600499 51.505878 
L 366.003884 50.666783 
L 366.272807 50.663437 
L 366.541731 51.104932 
L 366.945116 52.60125 
L 367.348501 55.09846 
L 367.886348 59.985017 
L 369.096504 73.018753 
L 369.365427 74.207928 
L 369.634351 74.61558 
L 369.768812 74.526335 
L 370.037736 73.761703 
L 370.306659 72.215547 
L 370.710045 68.430958 
L 371.516815 59.303726 
L 372.054662 55.939313 
L 372.323585 55.134045 
L 372.592509 54.913404 
L 372.726971 55.022318 
L 372.995894 55.678615 
L 373.399279 57.759235 
L 373.802664 61.155263 
L 374.340511 67.699309 
L 375.147282 77.133926 
L 375.81959 82.740473 
L 376.357437 85.749297 
L 376.760823 87.144673 
L 377.164208 87.801842 
L 377.433131 87.798136 
L 377.702055 87.388008 
L 378.10544 86.009999 
L 378.508825 83.716608 
L 379.046672 79.234828 
L 379.718981 71.344149 
L 380.929136 55.516491 
L 381.332522 52.932996 
L 381.601445 52.082429 
L 381.870369 51.929272 
L 382.139292 52.473526 
L 382.408215 53.715191 
L 382.811601 56.885333 
L 383.349448 63.451001 
L 384.29068 74.571049 
L 385.09745 81.779315 
L 385.769759 86.148048 
L 386.442068 89.045795 
L 387.114376 91.011297 
L 387.786685 92.294759 
L 388.324532 92.830459 
L 388.727917 92.945777 
L 389.131302 92.815561 
L 389.669149 92.300165 
L 390.341458 91.79134 
L 390.879305 91.631227 
L 391.417152 91.690621 
L 391.954999 91.969522 
L 392.761769 92.490626 
L 393.165154 92.410671 
L 393.568539 92.0692 
L 394.106386 91.207104 
L 394.644233 89.880092 
L 395.719927 86.915544 
L 396.526698 85.294292 
L 397.199006 84.347423 
L 397.871315 83.767986 
L 398.409162 83.607151 
L 398.812547 83.704092 
L 399.350394 84.124062 
L 399.888241 84.876277 
L 400.56055 86.283765 
L 401.636244 88.818306 
L 401.905167 88.702753 
L 402.17409 88.160704 
L 402.577476 86.547955 
L 402.980861 83.975592 
L 403.518708 79.053043 
L 404.056555 73.778436 
L 404.45994 71.737536 
L 404.728863 71.341666 
L 404.863325 71.433151 
L 405.132249 72.194959 
L 405.401172 73.728551 
L 405.804557 77.476037 
L 406.745789 87.691831 
L 407.283636 91.881592 
L 407.283636 91.881592 
" clip-path="url(#p5f20a50c14)" style="fill: none; stroke: #8c564b; stroke-width: 1.5; stroke-linecap: square"/>
   </g>
   <g id="line2d_32">
    <path d="M 272.956364 91.881592 
L 273.763134 89.857409 
L 274.435443 88.657386 
L 275.107751 87.899904 
L 275.645598 87.612549 
L 276.183445 87.60842 
L 276.721292 87.887519 
L 277.259139 88.449844 
L 280.082836 92.217896 
L 280.351759 92.215359 
L 280.620683 92.012834 
L 281.024068 91.33407 
L 281.427453 90.205335 
L 281.9653 88.000397 
L 283.175455 82.320172 
L 283.713302 81.030963 
L 284.116688 80.618236 
L 284.385611 80.606979 
L 284.654535 80.806839 
L 285.05792 81.502472 
L 285.595767 82.582966 
L 285.86469 82.716422 
L 286.133614 82.560227 
L 286.402537 82.114381 
L 286.805922 80.902515 
L 287.343769 78.272916 
L 288.419463 71.96331 
L 288.553925 71.888234 
L 288.688387 72.035318 
L 288.95731 72.995965 
L 289.360695 76.103131 
L 289.629619 78.238276 
L 289.76408 78.640838 
L 289.898542 78.593918 
L 290.033004 78.097517 
L 290.301927 75.756272 
L 290.705313 68.887819 
L 291.377621 57.298591 
L 291.915468 51.719469 
L 292.318853 49.688946 
L 292.991162 48.508644 
L 293.663471 47.759757 
L 294.201318 47.453148 
L 294.739165 47.419066 
L 295.14255 47.661692 
L 295.545935 48.15984 
L 296.083782 49.221513 
L 296.756091 51.187408 
L 297.293938 53.475355 
L 297.831785 57.239834 
L 298.504093 64.141996 
L 299.983172 81.961371 
L 300.386557 83.688079 
L 300.655481 83.903242 
L 300.789943 83.730031 
L 301.462251 81.641271 
L 303.210254 76.494607 
L 303.882563 74.878142 
L 304.285948 74.413845 
L 304.554871 74.340503 
L 304.823795 74.456113 
L 305.22718 74.983812 
L 305.630565 75.936653 
L 306.168412 77.868437 
L 306.706259 79.923974 
L 306.975182 80.322974 
L 307.109644 80.350594 
L 307.378568 80.062074 
L 307.647491 79.315207 
L 308.050876 77.335506 
L 308.588723 73.091692 
L 309.261032 65.248131 
L 309.798879 59.660918 
L 310.202264 57.146563 
L 310.471188 56.268447 
L 310.740111 56.028828 
L 310.874573 56.148455 
L 311.143496 56.866582 
L 311.546881 59.140953 
L 311.950267 62.851943 
L 312.891499 72.823973 
L 313.429346 75.851995 
L 313.698269 76.581683 
L 313.967193 76.78849 
L 314.236116 76.472414 
L 314.50504 75.633457 
L 314.908425 73.394618 
L 315.580733 68.874023 
L 315.984119 67.581522 
L 316.253042 67.361789 
L 316.521966 67.655603 
L 316.790889 68.462965 
L 317.194274 70.636908 
L 317.732121 75.332914 
L 318.673353 84.668146 
L 319.076739 86.439284 
L 319.345662 86.803255 
L 319.480124 86.740204 
L 319.749047 86.124029 
L 320.017971 84.854423 
L 320.421356 81.724833 
L 321.228126 74.537666 
L 321.900435 70.573689 
L 322.438282 68.751053 
L 322.841667 68.170728 
L 323.110591 68.158441 
L 323.379514 68.445801 
L 323.917361 69.494675 
L 324.58967 71.316216 
L 326.068749 75.781692 
L 326.337672 75.911554 
L 326.606596 75.759727 
L 326.875519 75.326212 
L 327.278904 74.147774 
L 327.951213 72.023925 
L 328.354598 71.30839 
L 328.757983 71.015925 
L 329.026907 71.055986 
L 329.29583 71.284077 
L 329.699216 71.966172 
L 330.371524 73.678336 
L 331.043833 76.027064 
L 331.850603 79.685802 
L 332.38845 82.134792 
L 332.791835 83.224306 
L 333.060759 83.582816 
L 333.329682 83.64706 
L 333.598606 83.417038 
L 333.867529 82.892749 
L 334.270915 81.554567 
L 335.077685 78.390887 
L 335.48107 77.815023 
L 335.749994 77.841024 
L 336.018917 78.194952 
L 336.422302 79.340708 
L 336.825688 81.224302 
L 337.497996 84.458236 
L 337.901381 85.557168 
L 338.304767 86.016167 
L 338.57369 85.966648 
L 338.842614 85.632714 
L 339.245999 84.598536 
L 339.649384 82.924425 
L 340.187231 79.696825 
L 340.85954 74.201175 
L 341.66631 65.945013 
L 342.607542 54.057633 
L 344.490006 28.632801 
L 345.027853 24.960628 
L 345.431239 23.509932 
L 345.700162 23.163483 
L 345.834624 23.176463 
L 346.103547 23.574833 
L 346.372471 24.469749 
L 346.775856 26.743147 
L 347.313703 31.512254 
L 348.120473 41.683849 
L 350.675246 73.539702 
L 351.616478 83.230902 
L 352.423249 89.610788 
L 353.230019 94.212036 
L 353.902328 96.685032 
L 354.171251 97.022872 
L 354.305713 96.927006 
L 354.574636 96.205704 
L 354.84356 94.778307 
L 355.246945 91.313285 
L 355.784792 84.221923 
L 356.457101 71.385938 
L 357.129409 54.136862 
L 357.801718 37.280906 
L 358.339565 28.972243 
L 358.74295 25.783118 
L 359.011874 25.105782 
L 359.146335 25.201739 
L 359.415259 26.262901 
L 359.818644 29.947372 
L 361.0288 44.550539 
L 362.373417 63.672086 
L 363.449111 78.841734 
L 363.852496 81.567064 
L 364.12142 82.295742 
L 364.255881 82.333619 
L 364.390343 82.153854 
L 364.659267 81.1414 
L 365.062652 77.990406 
L 365.600499 70.884701 
L 366.407269 60.939393 
L 367.079578 55.313174 
L 367.617425 52.554297 
L 368.02081 51.501362 
L 368.289733 51.283321 
L 368.424195 51.32232 
L 368.693119 51.785364 
L 368.962042 52.779154 
L 369.365427 55.264987 
L 369.903274 60.437039 
L 370.575583 69.887546 
L 371.651277 86.872901 
L 372.189124 91.447991 
L 372.592509 92.97837 
L 372.726971 93.126413 
L 372.861432 93.093414 
L 373.130356 92.48429 
L 373.399279 91.150998 
L 373.802664 87.793248 
L 374.340511 80.808569 
L 375.954052 58.294718 
L 377.29867 42.055358 
L 377.702055 38.948858 
L 377.970978 37.968543 
L 378.10544 37.805591 
L 378.239902 37.860777 
L 378.508825 38.625558 
L 378.777749 40.262888 
L 379.181134 44.35491 
L 379.718981 52.864858 
L 381.466983 86.426205 
L 382.00483 92.063393 
L 382.408215 94.671604 
L 382.811601 95.891518 
L 382.946062 95.989645 
L 383.080524 95.933517 
L 383.349448 95.379203 
L 383.752833 93.706149 
L 384.29068 89.979855 
L 384.828527 84.544354 
L 385.500835 75.346406 
L 386.307606 60.784218 
L 386.979914 49.501443 
L 387.517761 43.876239 
L 387.921147 41.641262 
L 388.19007 41.096005 
L 388.324532 41.106794 
L 388.593455 41.695209 
L 388.862379 43.039405 
L 389.265764 46.472789 
L 390.47592 59.247868 
L 391.013766 62.659798 
L 391.417152 64.238806 
L 391.820537 64.977868 
L 392.08946 65.003938 
L 392.761769 64.515336 
L 393.030693 64.670162 
L 393.434078 65.323834 
L 393.837463 66.483227 
L 394.37531 68.815759 
L 396.795621 81.234443 
L 397.602391 83.679505 
L 398.2747 85.012652 
L 398.812547 85.569056 
L 399.215932 85.683679 
L 399.619317 85.538861 
L 400.022703 85.134603 
L 400.56055 84.192018 
L 401.098397 82.788206 
L 401.36732 81.763713 
L 401.770705 79.082061 
L 402.308552 73.331522 
L 402.846399 65.095266 
L 403.518708 51.304408 
L 404.191016 37.217388 
L 404.594402 32.132707 
L 404.997787 29.672948 
L 405.132249 29.436345 
L 405.26671 29.491399 
L 405.535634 30.476481 
L 405.804557 32.628196 
L 406.073481 36.345682 
L 406.476866 47.687839 
L 406.880251 66.199809 
L 407.283636 91.881592 
L 407.283636 91.881592 
" clip-path="url(#p5f20a50c14)" style="fill: none; stroke: #e377c2; stroke-width: 1.5; stroke-linecap: square"/>
   </g>
   <g id="patch_8">
    <path d="M 266.24 174.04 
L 266.24 10.8 
" style="fill: none; stroke: #000000; stroke-width: 0.8; stroke-linejoin: miter; stroke-linecap: square"/>
   </g>
   <g id="patch_9">
    <path d="M 414 174.04 
L 414 10.8 
" style="fill: none; stroke: #000000; stroke-width: 0.8; stroke-linejoin: miter; stroke-linecap: square"/>
   </g>
   <g id="patch_10">
    <path d="M 266.24 174.04 
L 414 174.04 
" style="fill: none; stroke: #000000; stroke-width: 0.8; stroke-linejoin: miter; stroke-linecap: square"/>
   </g>
   <g id="patch_11">
    <path d="M 266.24 10.8 
L 414 10.8 
" style="fill: none; stroke: #000000; stroke-width: 0.8; stroke-linejoin: miter; stroke-linecap: square"/>
   </g>
  </g>
  <g id="axes_3">
   <g id="patch_12">
    <path d="M 485.84 174.04 
L 633.6 174.04 
L 633.6 10.8 
L 485.84 10.8 
z
" style="fill: #ffffff"/>
   </g>
   <g id="matplotlib.axis_5">
    <g id="xtick_9">
     <g id="line2d_33">
      <g>
       <use xlink:href="#md2261ff7a8" x="492.556364" y="174.04" style="stroke: #000000; stroke-width: 0.8"/>
      </g>
     </g>
     <g id="text_23">
      <!-- 0.0 -->
      <g transform="translate(484.604801 188.638438)scale(0.1 -0.1)">
       <use xlink:href="#DejaVuSans-30"/>
       <use xlink:href="#DejaVuSans-2e" x="63.623047"/>
       <use xlink:href="#DejaVuSans-30" x="95.410156"/>
      </g>
     </g>
    </g>
    <g id="xtick_10">
     <g id="line2d_34">
      <g>
       <use xlink:href="#md2261ff7a8" x="534.141648" y="174.04" style="stroke: #000000; stroke-width: 0.8"/>
      </g>
     </g>
     <g id="text_24">
      <!-- 0.5 -->
      <g transform="translate(526.190085 188.638438)scale(0.1 -0.1)">
       <use xlink:href="#DejaVuSans-30"/>
       <use xlink:href="#DejaVuSans-2e" x="63.623047"/>
       <use xlink:href="#DejaVuSans-35" x="95.410156"/>
      </g>
     </g>
    </g>
    <g id="xtick_11">
     <g id="line2d_35">
      <g>
       <use xlink:href="#md2261ff7a8" x="575.726932" y="174.04" style="stroke: #000000; stroke-width: 0.8"/>
      </g>
     </g>
     <g id="text_25">
      <!-- 1.0 -->
      <g transform="translate(567.77537 188.638438)scale(0.1 -0.1)">
       <use xlink:href="#DejaVuSans-31"/>
       <use xlink:href="#DejaVuSans-2e" x="63.623047"/>
       <use xlink:href="#DejaVuSans-30" x="95.410156"/>
      </g>
     </g>
    </g>
    <g id="xtick_12">
     <g id="line2d_36">
      <g>
       <use xlink:href="#md2261ff7a8" x="617.312216" y="174.04" style="stroke: #000000; stroke-width: 0.8"/>
      </g>
     </g>
     <g id="text_26">
      <!-- 1.5 -->
      <g transform="translate(609.360654 188.638438)scale(0.1 -0.1)">
       <use xlink:href="#DejaVuSans-31"/>
       <use xlink:href="#DejaVuSans-2e" x="63.623047"/>
       <use xlink:href="#DejaVuSans-35" x="95.410156"/>
      </g>
     </g>
    </g>
    <g id="text_27">
     <!-- Time -->
     <g transform="translate(547.486406 202.316563)scale(0.1 -0.1)">
      <use xlink:href="#DejaVuSans-54"/>
      <use xlink:href="#DejaVuSans-69" x="57.958984"/>
      <use xlink:href="#DejaVuSans-6d" x="85.742188"/>
      <use xlink:href="#DejaVuSans-65" x="183.154297"/>
     </g>
    </g>
   </g>
   <g id="matplotlib.axis_6">
    <g id="ytick_11">
     <g id="line2d_37">
      <g>
       <use xlink:href="#m02444b927d" x="485.84" y="138.952997" style="stroke: #000000; stroke-width: 0.8"/>
      </g>
     </g>
     <g id="text_28">
      <!-- −100 -->
      <g transform="translate(451.372813 142.752215)scale(0.1 -0.1)">
       <use xlink:href="#DejaVuSans-2212"/>
       <use xlink:href="#DejaVuSans-31" x="83.789062"/>
       <use xlink:href="#DejaVuSans-30" x="147.412109"/>
       <use xlink:href="#DejaVuSans-30" x="211.035156"/>
      </g>
     </g>
    </g>
    <g id="ytick_12">
     <g id="line2d_38">
      <g>
       <use xlink:href="#m02444b927d" x="485.84" y="102.598515" style="stroke: #000000; stroke-width: 0.8"/>
      </g>
     </g>
     <g id="text_29">
      <!-- 0 -->
      <g transform="translate(472.4775 106.397733)scale(0.1 -0.1)">
       <use xlink:href="#DejaVuSans-30"/>
      </g>
     </g>
    </g>
    <g id="ytick_13">
     <g id="line2d_39">
      <g>
       <use xlink:href="#m02444b927d" x="485.84" y="66.244032" style="stroke: #000000; stroke-width: 0.8"/>
      </g>
     </g>
     <g id="text_30">
      <!-- 100 -->
      <g transform="translate(459.7525 70.043251)scale(0.1 -0.1)">
       <use xlink:href="#DejaVuSans-31"/>
       <use xlink:href="#DejaVuSans-30" x="63.623047"/>
       <use xlink:href="#DejaVuSans-30" x="127.246094"/>
      </g>
     </g>
    </g>
    <g id="ytick_14">
     <g id="line2d_40">
      <g>
       <use xlink:href="#m02444b927d" x="485.84" y="29.88955" style="stroke: #000000; stroke-width: 0.8"/>
      </g>
     </g>
     <g id="text_31">
      <!-- 200 -->
      <g transform="translate(459.7525 33.688769)scale(0.1 -0.1)">
       <use xlink:href="#DejaVuSans-32"/>
       <use xlink:href="#DejaVuSans-30" x="63.623047"/>
       <use xlink:href="#DejaVuSans-30" x="127.246094"/>
      </g>
     </g>
    </g>
    <g id="text_32">
     <!-- Acceleration -->
     <g transform="translate(445.293125 123.490313)rotate(-90)scale(0.1 -0.1)">
      <defs>
       <path id="DejaVuSans-41" d="M 2188 4044 
L 1331 1722 
L 3047 1722 
L 2188 4044 
z
M 1831 4666 
L 2547 4666 
L 4325 0 
L 3669 0 
L 3244 1197 
L 1141 1197 
L 716 0 
L 50 0 
L 1831 4666 
z
" transform="scale(0.015625)"/>
       <path id="DejaVuSans-72" d="M 2631 2963 
Q 2534 3019 2420 3045 
Q 2306 3072 2169 3072 
Q 1681 3072 1420 2755 
Q 1159 2438 1159 1844 
L 1159 0 
L 581 0 
L 581 3500 
L 1159 3500 
L 1159 2956 
Q 1341 3275 1631 3429 
Q 1922 3584 2338 3584 
Q 2397 3584 2469 3576 
Q 2541 3569 2628 3553 
L 2631 2963 
z
" transform="scale(0.015625)"/>
       <path id="DejaVuSans-61" d="M 2194 1759 
Q 1497 1759 1228 1600 
Q 959 1441 959 1056 
Q 959 750 1161 570 
Q 1363 391 1709 391 
Q 2188 391 2477 730 
Q 2766 1069 2766 1631 
L 2766 1759 
L 2194 1759 
z
M 3341 1997 
L 3341 0 
L 2766 0 
L 2766 531 
Q 2569 213 2275 61 
Q 1981 -91 1556 -91 
Q 1019 -91 701 211 
Q 384 513 384 1019 
Q 384 1609 779 1909 
Q 1175 2209 1959 2209 
L 2766 2209 
L 2766 2266 
Q 2766 2663 2505 2880 
Q 2244 3097 1772 3097 
Q 1472 3097 1187 3025 
Q 903 2953 641 2809 
L 641 3341 
Q 956 3463 1253 3523 
Q 1550 3584 1831 3584 
Q 2591 3584 2966 3190 
Q 3341 2797 3341 1997 
z
" transform="scale(0.015625)"/>
      </defs>
      <use xlink:href="#DejaVuSans-41"/>
      <use xlink:href="#DejaVuSans-63" x="66.658203"/>
      <use xlink:href="#DejaVuSans-63" x="121.638672"/>
      <use xlink:href="#DejaVuSans-65" x="176.619141"/>
      <use xlink:href="#DejaVuSans-6c" x="238.142578"/>
      <use xlink:href="#DejaVuSans-65" x="265.925781"/>
      <use xlink:href="#DejaVuSans-72" x="327.449219"/>
      <use xlink:href="#DejaVuSans-61" x="368.5625"/>
      <use xlink:href="#DejaVuSans-74" x="429.841797"/>
      <use xlink:href="#DejaVuSans-69" x="469.050781"/>
      <use xlink:href="#DejaVuSans-6f" x="496.833984"/>
      <use xlink:href="#DejaVuSans-6e" x="558.015625"/>
     </g>
    </g>
   </g>
   <g id="line2d_41">
    <path d="M 492.556364 102.253841 
L 497.396986 102.607218 
L 499.682836 102.339124 
L 501.968685 102.647302 
L 504.792381 100.735356 
L 507.481616 103.731834 
L 508.960695 99.402533 
L 509.229619 100.160037 
L 510.305313 103.914235 
L 512.053315 104.240719 
L 514.608088 103.069962 
L 516.625014 102.576479 
L 518.776402 103.635917 
L 520.658866 102.508006 
L 525.63395 102.597571 
L 533.836116 102.470688 
L 535.046272 102.439666 
L 537.869968 102.78233 
L 540.828126 102.48442 
L 543.517361 102.602025 
L 545.130902 102.842558 
L 547.551213 102.568447 
L 554.005376 102.576489 
L 568.930629 102.598742 
L 575.788177 102.521199 
L 578.880797 102.513141 
L 580.6288 102.429349 
L 582.780187 102.179868 
L 585.066037 101.275219 
L 587.486348 103.530042 
L 588.024195 103.911368 
L 590.444506 100.673685 
L 590.71343 100.912388 
L 593.940511 105.046716 
L 596.89867 101.792397 
L 600.663598 102.813415 
L 603.083909 103.134284 
L 606.310991 102.474606 
L 609.672534 102.640873 
L 611.823922 103.023793 
L 612.496231 102.464066 
L 614.378695 100.826341 
L 617.605777 103.260553 
L 620.832858 103.097274 
L 623.25317 100.670409 
L 625.404557 85.383703 
L 625.539019 86.48787 
L 626.883636 156.981195 
L 626.883636 156.981195 
" clip-path="url(#p9af58715ab)" style="fill: none; stroke: #1f77b4; stroke-width: 1.5; stroke-linecap: square"/>
   </g>
   <g id="line2d_42">
    <path d="M 492.556364 89.204197 
L 497.128063 102.648931 
L 499.27945 104.554705 
L 499.413912 104.517464 
L 501.968685 100.854686 
L 504.926843 102.598515 
L 559.921693 102.598515 
L 560.190616 103.106179 
L 563.014312 109.774294 
L 567.317088 95.308034 
L 570.140784 102.598515 
L 597.167593 102.684156 
L 599.856828 103.218543 
L 602.949448 101.968123 
L 606.310991 102.598515 
L 625.404557 102.598515 
L 625.539019 103.698344 
L 626.883636 146.444118 
L 626.883636 146.444118 
" clip-path="url(#p9af58715ab)" style="fill: none; stroke: #ff7f0e; stroke-width: 1.5; stroke-linecap: square"/>
   </g>
   <g id="line2d_43">
    <path d="M 492.556364 94.885817 
L 497.262524 102.974961 
L 499.27945 105.050861 
L 499.413912 104.97496 
L 501.968685 99.476513 
L 504.926843 101.099797 
L 507.616078 100.806233 
L 508.960695 101.585816 
L 509.36408 98.72262 
L 510.305313 91.93251 
L 512.053315 108.595053 
L 514.204703 103.352257 
L 516.759476 103.633028 
L 518.776402 104.850065 
L 523.079177 103.775265 
L 524.558256 102.593301 
L 525.902874 101.506737 
L 526.306259 101.767932 
L 528.861032 103.612038 
L 531.81919 102.495661 
L 534.642887 104.222184 
L 535.046272 103.970782 
L 538.00443 101.921517 
L 540.290279 101.019697 
L 543.113976 101.536206 
L 546.744443 103.913285 
L 547.013366 104.037574 
L 549.433677 103.811137 
L 551.719527 102.930007 
L 554.139838 103.130306 
L 556.560149 104.714091 
L 560.056154 101.777176 
L 563.014312 103.63064 
L 567.317088 97.614245 
L 570.140784 108.364818 
L 573.502328 103.344847 
L 576.998333 102.710142 
L 579.284182 101.463769 
L 579.822029 101.860565 
L 582.511264 103.997931 
L 585.33496 103.622251 
L 588.696504 102.38438 
L 590.578968 102.023472 
L 593.80605 104.910572 
L 593.940511 104.858454 
L 596.764208 100.34536 
L 597.033131 100.515333 
L 599.856828 102.909338 
L 603.218371 102.844388 
L 606.310991 103.276351 
L 609.134687 103.096712 
L 611.823922 106.23063 
L 612.227307 105.213932 
L 614.378695 99.245955 
L 617.605777 102.934692 
L 620.698397 102.598898 
L 620.96732 103.143502 
L 623.25317 109.234903 
L 625.404557 106.747383 
L 625.539019 105.496908 
L 626.883636 61.38393 
L 626.883636 61.38393 
" clip-path="url(#p9af58715ab)" style="fill: none; stroke: #2ca02c; stroke-width: 1.5; stroke-linecap: square"/>
   </g>
   <g id="line2d_44">
    <path d="M 492.556364 101.888706 
L 497.396986 100.184944 
L 499.27945 99.996341 
L 499.548374 100.402401 
L 501.968685 105.278609 
L 504.792381 106.589789 
L 507.481616 98.973826 
L 508.960695 101.727836 
L 509.229619 100.251263 
L 510.305313 93.615942 
L 512.053315 101.724951 
L 514.204703 101.029506 
L 516.893938 104.93811 
L 518.776402 108.186323 
L 522.944716 102.790731 
L 524.02041 101.589604 
L 526.037336 99.542923 
L 529.398879 100.608687 
L 531.81919 101.084206 
L 534.91181 104.505725 
L 537.601045 105.758595 
L 540.155818 104.14741 
L 542.979514 100.145006 
L 545.265364 101.885048 
L 547.28229 102.698863 
L 549.433677 102.98483 
L 551.853989 102.775174 
L 555.08107 103.19284 
L 556.694611 103.35452 
L 560.056154 104.726727 
L 564.627853 102.098199 
L 567.317088 100.757811 
L 570.140784 104.952741 
L 573.502328 102.036363 
L 576.863871 102.639449 
L 579.284182 101.356214 
L 579.822029 101.804132 
L 582.511264 104.161476 
L 585.200499 101.341034 
L 588.024195 100.920805 
L 590.444506 104.087823 
L 590.71343 103.976309 
L 593.940511 101.607474 
L 599.050057 103.945591 
L 599.722366 104.233639 
L 600.663598 102.967548 
L 602.814986 100.010855 
L 603.89068 100.263204 
L 605.907606 100.770752 
L 609.134687 104.378004 
L 611.823922 103.937393 
L 612.496231 102.60073 
L 614.378695 98.732159 
L 617.605777 102.414081 
L 620.832858 103.342716 
L 623.25317 101.124429 
L 625.539019 109.383716 
L 626.883636 110.285745 
L 626.883636 110.285745 
" clip-path="url(#p9af58715ab)" style="fill: none; stroke: #d62728; stroke-width: 1.5; stroke-linecap: square"/>
   </g>
   <g id="line2d_45">
    <path d="M 492.556364 101.130463 
L 496.993601 104.822495 
L 497.128063 103.843533 
L 499.27945 64.399325 
L 499.413912 65.220971 
L 501.834223 141.989778 
L 501.968685 142.587705 
L 504.792381 92.662042 
L 507.481616 90.409075 
L 508.960695 79.083817 
L 509.36408 96.173537 
L 510.305313 138.25048 
L 512.053315 110.122771 
L 514.204703 96.402152 
L 516.490552 100.801011 
L 516.625014 100.813909 
L 518.64194 96.092678 
L 518.776402 96.451105 
L 520.524404 110.993855 
L 526.037336 101.603796 
L 528.995494 102.845175 
L 532.491499 102.550868 
L 539.214585 102.607415 
L 547.954598 102.65089 
L 549.971524 102.665742 
L 551.719527 102.652026 
L 554.139838 103.93149 
L 556.425688 101.982005 
L 556.560149 102.030771 
L 559.921693 107.455593 
L 560.325078 109.27227 
L 563.014312 122.498716 
L 567.317088 75.441874 
L 570.140784 105.509276 
L 573.367866 102.764217 
L 573.502328 102.860903 
L 576.729409 124.713169 
L 576.863871 124.311738 
L 579.418644 96.338423 
L 582.376802 86.759281 
L 582.511264 86.965392 
L 585.066037 116.020254 
L 585.603884 114.177354 
L 588.024195 105.209614 
L 590.444506 85.479989 
L 590.578968 85.962199 
L 593.940511 116.95506 
L 596.764208 107.485371 
L 597.70544 100.510377 
L 599.722366 85.316728 
L 600.125751 87.496532 
L 605.773144 120.323207 
L 605.907606 120.953068 
L 609.134687 87.570949 
L 611.823922 117.330567 
L 612.092846 114.356242 
L 614.378695 83.566357 
L 617.605777 108.956226 
L 620.698397 109.415954 
L 620.832858 109.036337 
L 623.25317 96.036802 
L 625.404557 117.449698 
L 625.539019 115.929639 
L 626.883636 18.22 
L 626.883636 18.22 
" clip-path="url(#p9af58715ab)" style="fill: none; stroke: #9467bd; stroke-width: 1.5; stroke-linecap: square"/>
   </g>
   <g id="line2d_46">
    <path d="M 492.556364 99.400659 
L 496.993601 96.91294 
L 497.128063 97.193549 
L 499.27945 109.444134 
L 499.413912 109.444864 
L 501.834223 95.034161 
L 501.968685 94.920309 
L 504.792381 104.204915 
L 507.481616 95.94069 
L 509.095157 104.629531 
L 510.170851 104.96642 
L 510.305313 105.307851 
L 511.918853 122.865034 
L 512.053315 122.868937 
L 514.204703 98.630561 
L 516.490552 96.038966 
L 516.625014 96.108697 
L 518.64194 101.595983 
L 518.776402 101.619598 
L 520.524404 96.905304 
L 523.213639 103.957015 
L 525.902874 105.825059 
L 526.440721 105.442904 
L 528.72657 103.645168 
L 528.861032 103.683946 
L 531.684728 107.124458 
L 531.81919 107.035043 
L 534.642887 97.986013 
L 534.777348 98.033228 
L 537.601045 102.255436 
L 540.155818 97.730929 
L 542.979514 101.910679 
L 544.861978 107.404435 
L 544.99644 107.345287 
L 547.147828 104.175183 
L 549.299216 102.91143 
L 551.585065 102.611113 
L 554.005376 100.301617 
L 554.139838 100.411711 
L 556.425688 108.618053 
L 556.560149 108.53228 
L 559.921693 91.759356 
L 560.056154 92.092615 
L 563.014312 114.776737 
L 567.317088 93.148609 
L 570.140784 101.786972 
L 573.502328 102.421925 
L 576.863871 105.466086 
L 579.284182 104.868078 
L 579.956491 103.592172 
L 582.511264 98.648658 
L 585.066037 98.972343 
L 587.486348 112.075244 
L 587.889733 114.264715 
L 588.024195 114.193723 
L 590.444506 91.114152 
L 590.578968 91.323755 
L 593.940511 114.532567 
L 597.167593 101.252771 
L 599.722366 88.570806 
L 600.260213 92.942365 
L 602.814986 114.682165 
L 603.218371 113.610048 
L 606.042068 105.625853 
L 609.134687 101.61556 
L 611.823922 103.416225 
L 612.227307 102.900335 
L 614.378695 99.860736 
L 617.8747 102.469892 
L 620.698397 105.331639 
L 620.832858 105.018248 
L 623.25317 92.436005 
L 625.539019 113.506242 
L 626.883636 108.463947 
L 626.883636 108.463947 
" clip-path="url(#p9af58715ab)" style="fill: none; stroke: #8c564b; stroke-width: 1.5; stroke-linecap: square"/>
   </g>
   <g id="line2d_47">
    <path d="M 492.556364 100.036038 
L 497.128063 103.931545 
L 499.27945 103.740852 
L 499.548374 103.246405 
L 501.834223 97.668574 
L 501.968685 97.712459 
L 504.792381 104.937275 
L 507.481616 95.545117 
L 508.960695 111.582408 
L 509.229619 106.715223 
L 510.305313 84.022138 
L 512.053315 100.922421 
L 514.339165 102.849786 
L 516.490552 105.830893 
L 516.759476 106.85266 
L 518.64194 115.822044 
L 518.776402 115.589316 
L 520.524404 99.706094 
L 523.079177 100.238675 
L 523.751486 101.737856 
L 525.902874 106.697883 
L 526.306259 104.659727 
L 528.72657 91.124049 
L 528.861032 91.33682 
L 531.81919 113.571437 
L 534.642887 95.556355 
L 534.777348 95.979684 
L 537.601045 113.441204 
L 540.155818 93.708279 
L 543.113976 104.170456 
L 544.861978 106.105928 
L 545.130902 105.335375 
L 546.878904 99.327433 
L 547.013366 99.336572 
L 549.299216 104.428002 
L 551.585065 107.154382 
L 554.139838 98.379739 
L 556.425688 107.525931 
L 556.560149 107.568873 
L 560.325078 94.869337 
L 563.014312 88.427267 
L 567.317088 114.262213 
L 570.140784 113.143153 
L 573.502328 104.86551 
L 576.729409 77.06277 
L 576.863871 77.557986 
L 579.418644 112.346571 
L 582.376802 116.747478 
L 582.511264 116.415805 
L 585.066037 89.278361 
L 585.738346 92.355878 
L 588.158657 104.117895 
L 590.444506 118.920852 
L 590.578968 118.42128 
L 593.940511 89.405429 
L 596.764208 92.487904 
L 597.302055 97.950289 
L 599.722366 123.717968 
L 600.125751 120.957899 
L 603.083909 99.2892 
L 605.907606 84.689818 
L 609.134687 113.708469 
L 611.823922 101.459124 
L 611.958384 101.631512 
L 614.378695 108.247871 
L 618.412547 103.133019 
L 620.698397 99.91701 
L 620.96732 98.261657 
L 623.25317 80.948541 
L 625.539019 114.339621 
L 626.883636 166.62 
L 626.883636 166.62 
" clip-path="url(#p9af58715ab)" style="fill: none; stroke: #e377c2; stroke-width: 1.5; stroke-linecap: square"/>
   </g>
   <g id="patch_13">
    <path d="M 485.84 174.04 
L 485.84 10.8 
" style="fill: none; stroke: #000000; stroke-width: 0.8; stroke-linejoin: miter; stroke-linecap: square"/>
   </g>
   <g id="patch_14">
    <path d="M 633.6 174.04 
L 633.6 10.8 
" style="fill: none; stroke: #000000; stroke-width: 0.8; stroke-linejoin: miter; stroke-linecap: square"/>
   </g>
   <g id="patch_15">
    <path d="M 485.84 174.04 
L 633.6 174.04 
" style="fill: none; stroke: #000000; stroke-width: 0.8; stroke-linejoin: miter; stroke-linecap: square"/>
   </g>
   <g id="patch_16">
    <path d="M 485.84 10.8 
L 633.6 10.8 
" style="fill: none; stroke: #000000; stroke-width: 0.8; stroke-linejoin: miter; stroke-linecap: square"/>
   </g>
  </g>
  <g id="axes_4">
   <g id="patch_17">
    <path d="M 705.44 174.04 
L 853.2 174.04 
L 853.2 10.8 
L 705.44 10.8 
z
" style="fill: #ffffff"/>
   </g>
   <g id="matplotlib.axis_7">
    <g id="xtick_13">
     <g id="line2d_48">
      <g>
       <use xlink:href="#md2261ff7a8" x="712.156364" y="174.04" style="stroke: #000000; stroke-width: 0.8"/>
      </g>
     </g>
     <g id="text_33">
      <!-- 0.0 -->
      <g transform="translate(704.204801 188.638438)scale(0.1 -0.1)">
       <use xlink:href="#DejaVuSans-30"/>
       <use xlink:href="#DejaVuSans-2e" x="63.623047"/>
       <use xlink:href="#DejaVuSans-30" x="95.410156"/>
      </g>
     </g>
    </g>
    <g id="xtick_14">
     <g id="line2d_49">
      <g>
       <use xlink:href="#md2261ff7a8" x="753.741648" y="174.04" style="stroke: #000000; stroke-width: 0.8"/>
      </g>
     </g>
     <g id="text_34">
      <!-- 0.5 -->
      <g transform="translate(745.790085 188.638438)scale(0.1 -0.1)">
       <use xlink:href="#DejaVuSans-30"/>
       <use xlink:href="#DejaVuSans-2e" x="63.623047"/>
       <use xlink:href="#DejaVuSans-35" x="95.410156"/>
      </g>
     </g>
    </g>
    <g id="xtick_15">
     <g id="line2d_50">
      <g>
       <use xlink:href="#md2261ff7a8" x="795.326932" y="174.04" style="stroke: #000000; stroke-width: 0.8"/>
      </g>
     </g>
     <g id="text_35">
      <!-- 1.0 -->
      <g transform="translate(787.37537 188.638438)scale(0.1 -0.1)">
       <use xlink:href="#DejaVuSans-31"/>
       <use xlink:href="#DejaVuSans-2e" x="63.623047"/>
       <use xlink:href="#DejaVuSans-30" x="95.410156"/>
      </g>
     </g>
    </g>
    <g id="xtick_16">
     <g id="line2d_51">
      <g>
       <use xlink:href="#md2261ff7a8" x="836.912216" y="174.04" style="stroke: #000000; stroke-width: 0.8"/>
      </g>
     </g>
     <g id="text_36">
      <!-- 1.5 -->
      <g transform="translate(828.960654 188.638438)scale(0.1 -0.1)">
       <use xlink:href="#DejaVuSans-31"/>
       <use xlink:href="#DejaVuSans-2e" x="63.623047"/>
       <use xlink:href="#DejaVuSans-35" x="95.410156"/>
      </g>
     </g>
    </g>
    <g id="text_37">
     <!-- Time -->
     <g transform="translate(767.086406 202.316563)scale(0.1 -0.1)">
      <use xlink:href="#DejaVuSans-54"/>
      <use xlink:href="#DejaVuSans-69" x="57.958984"/>
      <use xlink:href="#DejaVuSans-6d" x="85.742188"/>
      <use xlink:href="#DejaVuSans-65" x="183.154297"/>
     </g>
    </g>
   </g>
   <g id="matplotlib.axis_8">
    <g id="ytick_15">
     <g id="line2d_52">
      <g>
       <use xlink:href="#m02444b927d" x="705.44" y="156.28063" style="stroke: #000000; stroke-width: 0.8"/>
      </g>
     </g>
     <g id="text_38">
      <!-- −10000 -->
      <g transform="translate(658.247812 160.079849)scale(0.1 -0.1)">
       <use xlink:href="#DejaVuSans-2212"/>
       <use xlink:href="#DejaVuSans-31" x="83.789062"/>
       <use xlink:href="#DejaVuSans-30" x="147.412109"/>
       <use xlink:href="#DejaVuSans-30" x="211.035156"/>
       <use xlink:href="#DejaVuSans-30" x="274.658203"/>
       <use xlink:href="#DejaVuSans-30" x="338.28125"/>
      </g>
     </g>
    </g>
    <g id="ytick_16">
     <g id="line2d_53">
      <g>
       <use xlink:href="#m02444b927d" x="705.44" y="130.353332" style="stroke: #000000; stroke-width: 0.8"/>
      </g>
     </g>
     <g id="text_39">
      <!-- −5000 -->
      <g transform="translate(664.610312 134.152551)scale(0.1 -0.1)">
       <use xlink:href="#DejaVuSans-2212"/>
       <use xlink:href="#DejaVuSans-35" x="83.789062"/>
       <use xlink:href="#DejaVuSans-30" x="147.412109"/>
       <use xlink:href="#DejaVuSans-30" x="211.035156"/>
       <use xlink:href="#DejaVuSans-30" x="274.658203"/>
      </g>
     </g>
    </g>
    <g id="ytick_17">
     <g id="line2d_54">
      <g>
       <use xlink:href="#m02444b927d" x="705.44" y="104.426034" style="stroke: #000000; stroke-width: 0.8"/>
      </g>
     </g>
     <g id="text_40">
      <!-- 0 -->
      <g transform="translate(692.0775 108.225253)scale(0.1 -0.1)">
       <use xlink:href="#DejaVuSans-30"/>
      </g>
     </g>
    </g>
    <g id="ytick_18">
     <g id="line2d_55">
      <g>
       <use xlink:href="#m02444b927d" x="705.44" y="78.498736" style="stroke: #000000; stroke-width: 0.8"/>
      </g>
     </g>
     <g id="text_41">
      <!-- 5000 -->
      <g transform="translate(672.99 82.297955)scale(0.1 -0.1)">
       <use xlink:href="#DejaVuSans-35"/>
       <use xlink:href="#DejaVuSans-30" x="63.623047"/>
       <use xlink:href="#DejaVuSans-30" x="127.246094"/>
       <use xlink:href="#DejaVuSans-30" x="190.869141"/>
      </g>
     </g>
    </g>
    <g id="ytick_19">
     <g id="line2d_56">
      <g>
       <use xlink:href="#m02444b927d" x="705.44" y="52.571438" style="stroke: #000000; stroke-width: 0.8"/>
      </g>
     </g>
     <g id="text_42">
      <!-- 10000 -->
      <g transform="translate(666.6275 56.370656)scale(0.1 -0.1)">
       <use xlink:href="#DejaVuSans-31"/>
       <use xlink:href="#DejaVuSans-30" x="63.623047"/>
       <use xlink:href="#DejaVuSans-30" x="127.246094"/>
       <use xlink:href="#DejaVuSans-30" x="190.869141"/>
       <use xlink:href="#DejaVuSans-30" x="254.492188"/>
      </g>
     </g>
    </g>
    <g id="ytick_20">
     <g id="line2d_57">
      <g>
       <use xlink:href="#m02444b927d" x="705.44" y="26.644139" style="stroke: #000000; stroke-width: 0.8"/>
      </g>
     </g>
     <g id="text_43">
      <!-- 15000 -->
      <g transform="translate(666.6275 30.443358)scale(0.1 -0.1)">
       <use xlink:href="#DejaVuSans-31"/>
       <use xlink:href="#DejaVuSans-35" x="63.623047"/>
       <use xlink:href="#DejaVuSans-30" x="127.246094"/>
       <use xlink:href="#DejaVuSans-30" x="190.869141"/>
       <use xlink:href="#DejaVuSans-30" x="254.492188"/>
      </g>
     </g>
    </g>
    <g id="text_44">
     <!-- Jerk -->
     <g transform="translate(652.168125 101.922344)rotate(-90)scale(0.1 -0.1)">
      <defs>
       <path id="DejaVuSans-4a" d="M 628 4666 
L 1259 4666 
L 1259 325 
Q 1259 -519 939 -900 
Q 619 -1281 -91 -1281 
L -331 -1281 
L -331 -750 
L -134 -750 
Q 284 -750 456 -515 
Q 628 -281 628 325 
L 628 4666 
z
" transform="scale(0.015625)"/>
       <path id="DejaVuSans-6b" d="M 581 4863 
L 1159 4863 
L 1159 1991 
L 2875 3500 
L 3609 3500 
L 1753 1863 
L 3688 0 
L 2938 0 
L 1159 1709 
L 1159 0 
L 581 0 
L 581 4863 
z
" transform="scale(0.015625)"/>
      </defs>
      <use xlink:href="#DejaVuSans-4a"/>
      <use xlink:href="#DejaVuSans-65" x="29.492188"/>
      <use xlink:href="#DejaVuSans-72" x="91.015625"/>
      <use xlink:href="#DejaVuSans-6b" x="132.128906"/>
     </g>
    </g>
   </g>
   <g id="line2d_58">
    <path d="M 712.156364 104.533033 
L 716.593601 104.533033 
L 716.728063 104.230042 
L 718.87945 104.230042 
L 719.013912 104.618473 
L 721.434223 104.618473 
L 721.568685 103.616698 
L 724.25792 103.616698 
L 724.392381 105.761823 
L 726.947154 105.761823 
L 727.081616 100.95367 
L 728.560695 100.95367 
L 728.695157 108.671411 
L 729.770851 108.671411 
L 729.905313 104.679118 
L 731.518853 104.679118 
L 731.653315 103.832388 
L 733.670241 103.832388 
L 733.804703 104.10885 
L 736.090552 104.10885 
L 736.225014 105.051068 
L 738.24194 105.051068 
L 738.376402 103.652605 
L 739.989943 103.652605 
L 740.124404 104.472635 
L 751.284728 104.469753 
L 751.553652 104.303711 
L 754.242887 104.303711 
L 754.377348 104.604136 
L 757.066583 104.604136 
L 757.201045 104.266142 
L 759.621356 104.266142 
L 759.890279 104.430615 
L 762.445052 104.430615 
L 762.579514 104.665121 
L 764.461978 104.665121 
L 764.59644 104.237925 
L 766.478904 104.237925 
L 766.613366 104.447741 
L 801.976802 104.344943 
L 802.111264 103.956538 
L 804.666037 103.956538 
L 804.800499 105.535407 
L 807.489733 105.535407 
L 807.624195 102.839088 
L 810.044506 102.839088 
L 810.178968 106.009093 
L 813.40605 106.009093 
L 813.540511 103.058622 
L 816.364208 103.058622 
L 816.49867 104.784146 
L 819.322366 104.784146 
L 819.591289 104.636176 
L 822.414986 104.636176 
L 822.549448 104.144228 
L 825.373144 104.144228 
L 825.507606 104.452146 
L 828.600226 104.452146 
L 828.869149 104.637182 
L 831.423922 104.637182 
L 831.558384 103.388393 
L 833.844233 103.388393 
L 833.978695 105.342531 
L 837.071315 105.342531 
L 837.205777 104.391845 
L 840.298397 104.391845 
L 840.432858 103.239129 
L 842.718708 103.239129 
L 842.85317 95.996682 
L 845.004557 95.996682 
L 845.139019 166.62 
L 846.483636 166.62 
L 846.483636 166.62 
" clip-path="url(#p6d8cc0890c)" style="fill: none; stroke: #1f77b4; stroke-width: 1.5; stroke-linecap: square"/>
   </g>
   <g id="line2d_59">
    <path d="M 712.156364 107.945547 
L 716.593601 107.945547 
L 716.728063 105.47691 
L 718.87945 105.47691 
L 719.013912 102.652406 
L 721.434223 102.652406 
L 721.568685 105.160745 
L 724.25792 105.160745 
L 724.392381 104.426034 
L 779.521693 104.426034 
L 779.656154 107.245667 
L 782.479851 107.245667 
L 782.614312 100.377476 
L 786.782626 100.377476 
L 786.917088 107.501432 
L 789.606323 107.501432 
L 789.740784 104.426034 
L 816.364208 104.426034 
L 816.49867 104.696399 
L 819.322366 104.696399 
L 819.456828 103.915331 
L 822.414986 103.915331 
L 822.549448 104.679568 
L 825.373144 104.679568 
L 825.507606 104.426034 
L 845.004557 104.426034 
L 845.139019 142.139239 
L 846.483636 142.139239 
L 846.483636 142.139239 
" clip-path="url(#p6d8cc0890c)" style="fill: none; stroke: #ff7f0e; stroke-width: 1.5; stroke-linecap: square"/>
   </g>
   <g id="line2d_60">
    <path d="M 712.156364 106.499794 
L 716.593601 106.499794 
L 716.728063 105.647034 
L 718.87945 105.647034 
L 719.013912 101.775781 
L 721.434223 101.775781 
L 721.568685 105.118819 
L 724.25792 105.118819 
L 724.392381 104.250883 
L 726.947154 104.250883 
L 727.081616 105.113835 
L 728.560695 105.113835 
L 728.695157 95.234409 
L 729.770851 95.234409 
L 729.905313 116.286417 
L 731.518853 116.286417 
L 731.653315 101.451736 
L 733.670241 101.451736 
L 733.804703 104.506213 
L 736.090552 104.506213 
L 736.225014 105.173775 
L 738.24194 105.173775 
L 738.376402 104.14954 
L 742.679177 104.11625 
L 742.813639 103.467394 
L 745.502874 103.467394 
L 745.637336 105.320882 
L 748.32657 105.320882 
L 748.461032 103.95518 
L 751.284728 103.95518 
L 751.41919 105.151393 
L 754.242887 105.151393 
L 754.377348 103.555541 
L 757.066583 103.555541 
L 757.201045 103.898633 
L 759.621356 103.898633 
L 759.755818 104.61618 
L 762.445052 104.61618 
L 762.579514 105.161629 
L 766.478904 105.242447 
L 766.613366 104.365567 
L 768.630292 104.365567 
L 768.764754 103.928668 
L 771.050603 103.928668 
L 771.185065 104.508055 
L 773.605376 104.508055 
L 773.739838 105.253365 
L 776.025688 105.253365 
L 776.160149 103.389003 
L 779.521693 103.389003 
L 779.656154 105.175547 
L 782.479851 105.175547 
L 782.614312 102.714516 
L 786.782626 102.714516 
L 786.917088 108.968294 
L 789.606323 108.968294 
L 789.740784 102.6413 
L 792.967866 102.6413 
L 793.102328 104.23783 
L 796.329409 104.23783 
L 796.463871 103.77919 
L 798.884182 103.77919 
L 799.018644 105.386625 
L 801.976802 105.386625 
L 802.111264 104.300896 
L 804.666037 104.300896 
L 804.800499 103.949227 
L 807.489733 103.949227 
L 807.758657 104.134265 
L 810.044506 104.134265 
L 810.178968 105.487365 
L 813.40605 105.487365 
L 813.540511 102.52996 
L 816.364208 102.52996 
L 816.49867 105.478521 
L 819.322366 105.478521 
L 819.456828 104.372523 
L 822.414986 104.372523 
L 822.549448 104.633134 
L 825.373144 104.633134 
L 825.507606 104.32227 
L 828.600226 104.32227 
L 828.734687 105.808511 
L 831.423922 105.808511 
L 831.558384 101.123502 
L 833.844233 101.123502 
L 833.978695 105.816662 
L 837.071315 105.816662 
L 837.205777 104.297225 
L 840.298397 104.297225 
L 840.432858 107.58909 
L 842.718708 107.58909 
L 842.85317 103.054372 
L 845.004557 103.054372 
L 845.139019 65.50659 
L 846.483636 65.50659 
L 846.483636 65.50659 
" clip-path="url(#p6d8cc0890c)" style="fill: none; stroke: #2ca02c; stroke-width: 1.5; stroke-linecap: square"/>
   </g>
   <g id="line2d_61">
    <path d="M 712.156364 103.986929 
L 716.593601 103.986929 
L 716.728063 104.307178 
L 718.87945 104.307178 
L 719.013912 106.873884 
L 721.434223 106.873884 
L 721.568685 104.98805 
L 724.25792 104.98805 
L 724.392381 101.050182 
L 726.947154 101.050182 
L 727.081616 106.634919 
L 728.560695 106.634919 
L 728.695157 96.755453 
L 729.770851 96.755453 
L 729.905313 110.159111 
L 731.518853 110.159111 
L 731.653315 103.985177 
L 733.670241 103.985177 
L 733.804703 106.0883 
L 736.090552 106.0883 
L 736.225014 106.598462 
L 738.24194 106.598462 
L 738.376402 102.840311 
L 742.679177 102.926306 
L 742.813639 103.13169 
L 745.502874 103.13169 
L 745.637336 104.839987 
L 748.32657 104.839987 
L 748.461032 104.631452 
L 751.284728 104.631452 
L 751.41919 105.800571 
L 754.242887 105.800571 
L 754.377348 104.98652 
L 757.066583 104.98652 
L 757.201045 103.698386 
L 759.621356 103.698386 
L 759.755818 102.740225 
L 762.445052 102.740225 
L 762.579514 105.399705 
L 764.461978 105.399705 
L 764.59644 104.96287 
L 766.478904 104.96287 
L 766.613366 104.62877 
L 768.630292 104.62877 
L 768.764754 104.282481 
L 771.050603 104.282481 
L 771.185065 104.61992 
L 773.605376 104.61992 
L 773.8743 104.488888 
L 776.025688 104.488888 
L 776.160149 104.939186 
L 779.521693 104.939186 
L 779.656154 103.711854 
L 786.782626 103.80239 
L 786.917088 106.199845 
L 789.606323 106.199845 
L 789.740784 103.386353 
L 792.967866 103.386353 
L 793.102328 104.657467 
L 796.329409 104.657467 
L 796.463871 103.797058 
L 798.884182 103.797058 
L 799.018644 105.504707 
L 801.976802 105.504707 
L 802.111264 103.130128 
L 804.666037 103.130128 
L 804.800499 104.216084 
L 807.489733 104.216084 
L 807.624195 105.978343 
L 810.044506 105.978343 
L 810.178968 103.523663 
L 813.40605 103.523663 
L 813.540511 104.996276 
L 819.322366 104.934306 
L 819.456828 102.795663 
L 822.414986 102.795663 
L 822.549448 104.720107 
L 825.373144 104.720107 
L 825.507606 105.777855 
L 828.600226 105.777855 
L 828.734687 104.231666 
L 831.423922 104.231666 
L 831.558384 101.977209 
L 833.844233 101.977209 
L 833.978695 105.802376 
L 837.071315 105.802376 
L 837.205777 104.800208 
L 840.298397 104.800208 
L 840.432858 103.33678 
L 842.718708 103.33678 
L 842.85317 108.766088 
L 845.004557 108.766088 
L 845.139019 105.221865 
L 846.483636 105.221865 
L 846.483636 105.221865 
" clip-path="url(#p6d8cc0890c)" style="fill: none; stroke: #d62728; stroke-width: 1.5; stroke-linecap: square"/>
   </g>
   <g id="line2d_62">
    <path d="M 712.156364 105.413113 
L 716.593601 105.413113 
L 716.728063 82.675821 
L 718.87945 82.675821 
L 719.013912 142.054156 
L 721.434223 142.054156 
L 721.568685 83.394078 
L 724.25792 83.394078 
L 724.392381 103.4557 
L 726.947154 103.4557 
L 727.081616 95.342483 
L 728.560695 95.342483 
L 728.695157 159.710167 
L 729.770851 159.710167 
L 729.905313 84.901939 
L 731.518853 84.901939 
L 731.653315 96.584028 
L 733.670241 96.584028 
L 733.804703 106.708958 
L 736.090552 106.708958 
L 736.225014 101.649108 
L 738.24194 101.649108 
L 738.376402 114.359535 
L 739.989943 114.359535 
L 740.124404 102.379343 
L 745.502874 102.332185 
L 745.637336 104.971282 
L 748.32657 104.971282 
L 748.461032 104.292181 
L 751.284728 104.292181 
L 751.553652 104.455031 
L 771.050603 104.349821 
L 771.185065 105.089472 
L 773.605376 105.089472 
L 773.739838 103.414288 
L 776.025688 103.414288 
L 776.160149 106.340492 
L 779.521693 106.340492 
L 779.656154 110.313684 
L 782.479851 110.313684 
L 782.614312 91.233779 
L 786.782626 91.233779 
L 786.917088 117.1137 
L 789.606323 117.1137 
L 789.740784 103.416919 
L 792.967866 103.416919 
L 793.102328 112.459177 
L 796.329409 112.459177 
L 796.463871 91.041032 
L 798.884182 91.041032 
L 799.018644 100.584504 
L 801.976802 100.584504 
L 802.111264 117.917697 
L 804.666037 117.917697 
L 804.800499 100.149785 
L 807.489733 100.149785 
L 807.624195 94.755586 
L 810.044506 94.755586 
L 810.178968 115.676963 
L 813.40605 115.676963 
L 813.540511 100.447559 
L 816.364208 100.447559 
L 816.49867 95.489459 
L 819.322366 95.489459 
L 819.456828 111.438895 
L 822.414986 111.438895 
L 822.549448 111.21454 
L 825.373144 111.21454 
L 825.507606 91.724148 
L 828.600226 91.724148 
L 828.734687 117.554005 
L 831.423922 117.554005 
L 831.558384 88.386706 
L 833.844233 88.386706 
L 833.978695 113.973067 
L 837.071315 113.973067 
L 837.205777 104.602383 
L 840.298397 104.602383 
L 840.432858 98.047754 
L 842.718708 98.047754 
L 842.85317 116.233472 
L 845.004557 116.233472 
L 845.139019 18.22 
L 846.483636 18.22 
L 846.483636 18.22 
" clip-path="url(#p6d8cc0890c)" style="fill: none; stroke: #9467bd; stroke-width: 1.5; stroke-linecap: square"/>
   </g>
   <g id="line2d_63">
    <path d="M 712.156364 103.760933 
L 716.593601 103.760933 
L 716.728063 111.181216 
L 718.87945 111.181216 
L 719.013912 97.362648 
L 721.434223 97.362648 
L 721.568685 108.348271 
L 724.25792 108.348271 
L 724.392381 100.750033 
L 726.947154 100.750033 
L 727.081616 111.224404 
L 728.560695 111.224404 
L 728.695157 104.797567 
L 729.770851 104.797567 
L 729.905313 117.334476 
L 731.518853 117.334476 
L 731.653315 90.723446 
L 733.670241 90.723446 
L 733.804703 103.081045 
L 736.090552 103.081045 
L 736.225014 107.653537 
L 738.24194 107.653537 
L 738.376402 101.192282 
L 739.989943 101.192282 
L 740.124404 107.634513 
L 742.679177 107.634513 
L 742.813639 105.250091 
L 745.502874 105.250091 
L 745.637336 103.493043 
L 748.32657 103.493043 
L 748.461032 105.871487 
L 751.284728 105.871487 
L 751.41919 100.624289 
L 754.242887 100.624289 
L 754.377348 106.222872 
L 757.066583 106.222872 
L 757.201045 102.240773 
L 759.621356 102.240773 
L 759.755818 106.179305 
L 762.445052 106.179305 
L 762.579514 107.88815 
L 764.461978 107.88815 
L 764.59644 102.564722 
L 766.478904 102.564722 
L 766.613366 103.689223 
L 768.630292 103.689223 
L 768.764754 104.280381 
L 771.050603 104.280381 
L 771.185065 103.294037 
L 773.605376 103.294037 
L 773.739838 108.684968 
L 776.025688 108.684968 
L 776.160149 98.506752 
L 779.521693 98.506752 
L 779.656154 113.561409 
L 782.479851 113.561409 
L 782.614312 98.381263 
L 786.782626 98.381263 
L 786.917088 108.069137 
L 789.606323 108.069137 
L 789.740784 104.6428 
L 792.967866 104.6428 
L 793.102328 105.530552 
L 796.329409 105.530552 
L 796.463871 104.132921 
L 798.884182 104.132921 
L 799.018644 102.087737 
L 801.976802 102.087737 
L 802.111264 104.576337 
L 804.666037 104.576337 
L 804.800499 110.865031 
L 807.489733 110.865031 
L 807.624195 93.113615 
L 810.044506 93.113615 
L 810.178968 112.8884 
L 813.40605 112.8884 
L 813.540511 99.676954 
L 816.364208 99.676954 
L 816.49867 98.537147 
L 819.322366 98.537147 
L 819.456828 114.520938 
L 822.414986 114.520938 
L 822.549448 100.977009 
L 825.373144 100.977009 
L 825.507606 102.846447 
L 828.600226 102.846447 
L 828.734687 105.220368 
L 831.423922 105.220368 
L 831.558384 102.743638 
L 833.844233 102.743638 
L 833.978695 105.276996 
L 837.071315 105.276996 
L 837.205777 105.628332 
L 840.298397 105.628332 
L 840.432858 98.252593 
L 842.718708 98.252593 
L 842.85317 115.597494 
L 845.004557 115.597494 
L 845.139019 99.977382 
L 846.483636 99.977382 
L 846.483636 99.977382 
" clip-path="url(#p6d8cc0890c)" style="fill: none; stroke: #8c564b; stroke-width: 1.5; stroke-linecap: square"/>
   </g>
   <g id="line2d_64">
    <path d="M 712.156364 105.450949 
L 716.593601 105.450949 
L 716.728063 104.320882 
L 718.87945 104.320882 
L 719.013912 101.531247 
L 721.434223 101.531247 
L 721.568685 107.481906 
L 724.25792 107.481906 
L 724.392381 100.233381 
L 726.947154 100.233381 
L 727.081616 117.288925 
L 728.560695 117.288925 
L 728.695157 78.401371 
L 729.770851 78.401371 
L 729.905313 116.302669 
L 731.518853 116.302669 
L 731.653315 105.366898 
L 733.670241 105.366898 
L 733.804703 106.069867 
L 736.090552 106.069867 
L 736.225014 110.078459 
L 738.24194 110.078459 
L 738.376402 93.587563 
L 739.989943 93.587563 
L 740.124404 104.673339 
L 742.679177 104.673339 
L 742.813639 107.161078 
L 745.502874 107.161078 
L 745.637336 97.791541 
L 748.32657 97.791541 
L 748.461032 113.668172 
L 751.284728 113.668172 
L 751.41919 96.857405 
L 754.242887 96.857405 
L 754.377348 111.859546 
L 757.066583 111.859546 
L 757.201045 94.967735 
L 759.621356 94.967735 
L 759.755818 108.763809 
L 762.445052 108.763809 
L 762.579514 105.739575 
L 764.461978 105.739575 
L 764.59644 100.34864 
L 766.478904 100.34864 
L 766.613366 107.147744 
L 768.630292 107.147744 
L 768.764754 105.9003 
L 771.050603 105.9003 
L 771.185065 100.166578 
L 773.605376 100.166578 
L 773.739838 109.172732 
L 776.025688 109.172732 
L 776.160149 100.309178 
L 779.521693 100.309178 
L 779.656154 101.556273 
L 782.479851 101.556273 
L 782.614312 111.613454 
L 786.782626 111.613454 
L 786.917088 103.965617 
L 789.606323 103.965617 
L 789.740784 101.565424 
L 792.967866 101.565424 
L 793.102328 94.205429 
L 796.329409 94.205429 
L 796.463871 121.20235 
L 798.884182 121.20235 
L 799.018644 106.190933 
L 801.976802 106.190933 
L 802.111264 91.824727 
L 804.666037 91.824727 
L 804.800499 110.029717 
L 807.489733 110.029717 
L 807.624195 112.108485 
L 810.044506 112.108485 
L 810.178968 93.943831 
L 813.40605 93.943831 
L 813.540511 105.721066 
L 816.364208 105.721066 
L 816.49867 117.056026 
L 819.322366 117.056026 
L 819.456828 95.494756 
L 822.414986 95.494756 
L 822.549448 98.240911 
L 825.373144 98.240911 
L 825.507606 115.365847 
L 828.600226 115.365847 
L 828.734687 99.022435 
L 831.423922 99.022435 
L 831.558384 107.679462 
L 833.844233 107.679462 
L 833.978695 102.96782 
L 837.071315 102.96782 
L 837.205777 102.756986 
L 840.298397 102.756986 
L 840.432858 95.430949 
L 842.718708 95.430949 
L 842.85317 121.31284 
L 845.004557 121.31284 
L 845.139019 150.55131 
L 846.483636 150.55131 
L 846.483636 150.55131 
" clip-path="url(#p6d8cc0890c)" style="fill: none; stroke: #e377c2; stroke-width: 1.5; stroke-linecap: square"/>
   </g>
   <g id="patch_18">
    <path d="M 705.44 174.04 
L 705.44 10.8 
" style="fill: none; stroke: #000000; stroke-width: 0.8; stroke-linejoin: miter; stroke-linecap: square"/>
   </g>
   <g id="patch_19">
    <path d="M 853.2 174.04 
L 853.2 10.8 
" style="fill: none; stroke: #000000; stroke-width: 0.8; stroke-linejoin: miter; stroke-linecap: square"/>
   </g>
   <g id="patch_20">
    <path d="M 705.44 174.04 
L 853.2 174.04 
" style="fill: none; stroke: #000000; stroke-width: 0.8; stroke-linejoin: miter; stroke-linecap: square"/>
   </g>
   <g id="patch_21">
    <path d="M 705.44 10.8 
L 853.2 10.8 
" style="fill: none; stroke: #000000; stroke-width: 0.8; stroke-linejoin: miter; stroke-linecap: square"/>
   </g>
  </g>
 </g>
 <defs>
  <clipPath id="p3acb76bb06">
   <rect x="46.64" y="10.8" width="147.76" height="163.24"/>
  </clipPath>
  <clipPath id="p5f20a50c14">
   <rect x="266.24" y="10.8" width="147.76" height="163.24"/>
  </clipPath>
  <clipPath id="p9af58715ab">
   <rect x="485.84" y="10.8" width="147.76" height="163.24"/>
  </clipPath>
  <clipPath id="p6d8cc0890c">
   <rect x="705.44" y="10.8" width="147.76" height="163.24"/>
  </clipPath>
 </defs>
</svg>
