<?xml version="1.0" encoding="utf-8" standalone="no"?>
<!DOCTYPE svg PUBLIC "-//W3C//DTD SVG 1.1//EN"
  "http://www.w3.org/Graphics/SVG/1.1/DTD/svg11.dtd">
<svg xmlns:xlink="http://www.w3.org/1999/xlink" width="864pt" height="216pt" viewBox="0 0 864 216" xmlns="http://www.w3.org/2000/svg" version="1.1">
 <metadata>
  <rdf:RDF xmlns:dc="http://purl.org/dc/elements/1.1/" xmlns:cc="http://creativecommons.org/ns#" xmlns:rdf="http://www.w3.org/1999/02/22-rdf-syntax-ns#">
   <cc:Work>
    <dc:type rdf:resource="http://purl.org/dc/dcmitype/StillImage"/>
    <dc:date>2023-07-24T16:43:40.775648</dc:date>
    <dc:format>image/svg+xml</dc:format>
    <dc:creator>
     <cc:Agent>
      <dc:title>Matplotlib v3.5.2, https://matplotlib.org/</dc:title>
     </cc:Agent>
    </dc:creator>
   </cc:Work>
  </rdf:RDF>
 </metadata>
 <defs>
  <style type="text/css">*{stroke-linejoin: round; stroke-linecap: butt}</style>
 </defs>
 <g id="figure_1">
  <g id="patch_1">
   <path d="M 0 216 
L 864 216 
L 864 0 
L 0 0 
z
" style="fill: #ffffff"/>
  </g>
  <g id="axes_1">
   <g id="patch_2">
    <path d="M 46.64 174.04 
L 206.2125 174.04 
L 206.2125 10.8 
L 46.64 10.8 
z
" style="fill: #ffffff"/>
   </g>
   <g id="matplotlib.axis_1">
    <g id="xtick_1">
     <g id="line2d_1">
      <defs>
       <path id="md5ef5a2aea" d="M 0 0 
L 0 3.5 
" style="stroke: #000000; stroke-width: 0.8"/>
      </defs>
      <g>
       <use xlink:href="#md5ef5a2aea" x="53.893295" y="174.04" style="stroke: #000000; stroke-width: 0.8"/>
      </g>
     </g>
     <g id="text_1">
      <!-- 0 -->
      <g transform="translate(50.712045 188.638438)scale(0.1 -0.1)">
       <defs>
        <path id="DejaVuSans-30" d="M 2034 4250 
Q 1547 4250 1301 3770 
Q 1056 3291 1056 2328 
Q 1056 1369 1301 889 
Q 1547 409 2034 409 
Q 2525 409 2770 889 
Q 3016 1369 3016 2328 
Q 3016 3291 2770 3770 
Q 2525 4250 2034 4250 
z
M 2034 4750 
Q 2819 4750 3233 4129 
Q 3647 3509 3647 2328 
Q 3647 1150 3233 529 
Q 2819 -91 2034 -91 
Q 1250 -91 836 529 
Q 422 1150 422 2328 
Q 422 3509 836 4129 
Q 1250 4750 2034 4750 
z
" transform="scale(0.015625)"/>
       </defs>
       <use xlink:href="#DejaVuSans-30"/>
      </g>
     </g>
    </g>
    <g id="xtick_2">
     <g id="line2d_2">
      <g>
       <use xlink:href="#md5ef5a2aea" x="116.444124" y="174.04" style="stroke: #000000; stroke-width: 0.8"/>
      </g>
     </g>
     <g id="text_2">
      <!-- 1 -->
      <g transform="translate(113.262874 188.638438)scale(0.1 -0.1)">
       <defs>
        <path id="DejaVuSans-31" d="M 794 531 
L 1825 531 
L 1825 4091 
L 703 3866 
L 703 4441 
L 1819 4666 
L 2450 4666 
L 2450 531 
L 3481 531 
L 3481 0 
L 794 0 
L 794 531 
z
" transform="scale(0.015625)"/>
       </defs>
       <use xlink:href="#DejaVuSans-31"/>
      </g>
     </g>
    </g>
    <g id="xtick_3">
     <g id="line2d_3">
      <g>
       <use xlink:href="#md5ef5a2aea" x="178.994952" y="174.04" style="stroke: #000000; stroke-width: 0.8"/>
      </g>
     </g>
     <g id="text_3">
      <!-- 2 -->
      <g transform="translate(175.813702 188.638438)scale(0.1 -0.1)">
       <defs>
        <path id="DejaVuSans-32" d="M 1228 531 
L 3431 531 
L 3431 0 
L 469 0 
L 469 531 
Q 828 903 1448 1529 
Q 2069 2156 2228 2338 
Q 2531 2678 2651 2914 
Q 2772 3150 2772 3378 
Q 2772 3750 2511 3984 
Q 2250 4219 1831 4219 
Q 1534 4219 1204 4116 
Q 875 4013 500 3803 
L 500 4441 
Q 881 4594 1212 4672 
Q 1544 4750 1819 4750 
Q 2544 4750 2975 4387 
Q 3406 4025 3406 3419 
Q 3406 3131 3298 2873 
Q 3191 2616 2906 2266 
Q 2828 2175 2409 1742 
Q 1991 1309 1228 531 
z
" transform="scale(0.015625)"/>
       </defs>
       <use xlink:href="#DejaVuSans-32"/>
      </g>
     </g>
    </g>
    <g id="text_4">
     <!-- Time -->
     <g transform="translate(114.192656 202.316563)scale(0.1 -0.1)">
      <defs>
       <path id="DejaVuSans-54" d="M -19 4666 
L 3928 4666 
L 3928 4134 
L 2272 4134 
L 2272 0 
L 1638 0 
L 1638 4134 
L -19 4134 
L -19 4666 
z
" transform="scale(0.015625)"/>
       <path id="DejaVuSans-69" d="M 603 3500 
L 1178 3500 
L 1178 0 
L 603 0 
L 603 3500 
z
M 603 4863 
L 1178 4863 
L 1178 4134 
L 603 4134 
L 603 4863 
z
" transform="scale(0.015625)"/>
       <path id="DejaVuSans-6d" d="M 3328 2828 
Q 3544 3216 3844 3400 
Q 4144 3584 4550 3584 
Q 5097 3584 5394 3201 
Q 5691 2819 5691 2113 
L 5691 0 
L 5113 0 
L 5113 2094 
Q 5113 2597 4934 2840 
Q 4756 3084 4391 3084 
Q 3944 3084 3684 2787 
Q 3425 2491 3425 1978 
L 3425 0 
L 2847 0 
L 2847 2094 
Q 2847 2600 2669 2842 
Q 2491 3084 2119 3084 
Q 1678 3084 1418 2786 
Q 1159 2488 1159 1978 
L 1159 0 
L 581 0 
L 581 3500 
L 1159 3500 
L 1159 2956 
Q 1356 3278 1631 3431 
Q 1906 3584 2284 3584 
Q 2666 3584 2933 3390 
Q 3200 3197 3328 2828 
z
" transform="scale(0.015625)"/>
       <path id="DejaVuSans-65" d="M 3597 1894 
L 3597 1613 
L 953 1613 
Q 991 1019 1311 708 
Q 1631 397 2203 397 
Q 2534 397 2845 478 
Q 3156 559 3463 722 
L 3463 178 
Q 3153 47 2828 -22 
Q 2503 -91 2169 -91 
Q 1331 -91 842 396 
Q 353 884 353 1716 
Q 353 2575 817 3079 
Q 1281 3584 2069 3584 
Q 2775 3584 3186 3129 
Q 3597 2675 3597 1894 
z
M 3022 2063 
Q 3016 2534 2758 2815 
Q 2500 3097 2075 3097 
Q 1594 3097 1305 2825 
Q 1016 2553 972 2059 
L 3022 2063 
z
" transform="scale(0.015625)"/>
      </defs>
      <use xlink:href="#DejaVuSans-54"/>
      <use xlink:href="#DejaVuSans-69" x="57.958984"/>
      <use xlink:href="#DejaVuSans-6d" x="85.742188"/>
      <use xlink:href="#DejaVuSans-65" x="183.154297"/>
     </g>
    </g>
   </g>
   <g id="matplotlib.axis_2">
    <g id="ytick_1">
     <g id="line2d_4">
      <defs>
       <path id="md071d94b25" d="M 0 0 
L -3.5 0 
" style="stroke: #000000; stroke-width: 0.8"/>
      </defs>
      <g>
       <use xlink:href="#md071d94b25" x="46.64" y="154.771015" style="stroke: #000000; stroke-width: 0.8"/>
      </g>
     </g>
     <g id="text_5">
      <!-- −2 -->
      <g transform="translate(24.897813 158.570233)scale(0.1 -0.1)">
       <defs>
        <path id="DejaVuSans-2212" d="M 678 2272 
L 4684 2272 
L 4684 1741 
L 678 1741 
L 678 2272 
z
" transform="scale(0.015625)"/>
       </defs>
       <use xlink:href="#DejaVuSans-2212"/>
       <use xlink:href="#DejaVuSans-32" x="83.789062"/>
      </g>
     </g>
    </g>
    <g id="ytick_2">
     <g id="line2d_5">
      <g>
       <use xlink:href="#md071d94b25" x="46.64" y="124.934877" style="stroke: #000000; stroke-width: 0.8"/>
      </g>
     </g>
     <g id="text_6">
      <!-- −1 -->
      <g transform="translate(24.897813 128.734096)scale(0.1 -0.1)">
       <use xlink:href="#DejaVuSans-2212"/>
       <use xlink:href="#DejaVuSans-31" x="83.789062"/>
      </g>
     </g>
    </g>
    <g id="ytick_3">
     <g id="line2d_6">
      <g>
       <use xlink:href="#md071d94b25" x="46.64" y="95.09874" style="stroke: #000000; stroke-width: 0.8"/>
      </g>
     </g>
     <g id="text_7">
      <!-- 0 -->
      <g transform="translate(33.2775 98.897959)scale(0.1 -0.1)">
       <use xlink:href="#DejaVuSans-30"/>
      </g>
     </g>
    </g>
    <g id="ytick_4">
     <g id="line2d_7">
      <g>
       <use xlink:href="#md071d94b25" x="46.64" y="65.262603" style="stroke: #000000; stroke-width: 0.8"/>
      </g>
     </g>
     <g id="text_8">
      <!-- 1 -->
      <g transform="translate(33.2775 69.061821)scale(0.1 -0.1)">
       <use xlink:href="#DejaVuSans-31"/>
      </g>
     </g>
    </g>
    <g id="ytick_5">
     <g id="line2d_8">
      <g>
       <use xlink:href="#md071d94b25" x="46.64" y="35.426465" style="stroke: #000000; stroke-width: 0.8"/>
      </g>
     </g>
     <g id="text_9">
      <!-- 2 -->
      <g transform="translate(33.2775 39.225684)scale(0.1 -0.1)">
       <use xlink:href="#DejaVuSans-32"/>
      </g>
     </g>
    </g>
    <g id="text_10">
     <!-- Position -->
     <g transform="translate(18.818125 111.884062)rotate(-90)scale(0.1 -0.1)">
      <defs>
       <path id="DejaVuSans-50" d="M 1259 4147 
L 1259 2394 
L 2053 2394 
Q 2494 2394 2734 2622 
Q 2975 2850 2975 3272 
Q 2975 3691 2734 3919 
Q 2494 4147 2053 4147 
L 1259 4147 
z
M 628 4666 
L 2053 4666 
Q 2838 4666 3239 4311 
Q 3641 3956 3641 3272 
Q 3641 2581 3239 2228 
Q 2838 1875 2053 1875 
L 1259 1875 
L 1259 0 
L 628 0 
L 628 4666 
z
" transform="scale(0.015625)"/>
       <path id="DejaVuSans-6f" d="M 1959 3097 
Q 1497 3097 1228 2736 
Q 959 2375 959 1747 
Q 959 1119 1226 758 
Q 1494 397 1959 397 
Q 2419 397 2687 759 
Q 2956 1122 2956 1747 
Q 2956 2369 2687 2733 
Q 2419 3097 1959 3097 
z
M 1959 3584 
Q 2709 3584 3137 3096 
Q 3566 2609 3566 1747 
Q 3566 888 3137 398 
Q 2709 -91 1959 -91 
Q 1206 -91 779 398 
Q 353 888 353 1747 
Q 353 2609 779 3096 
Q 1206 3584 1959 3584 
z
" transform="scale(0.015625)"/>
       <path id="DejaVuSans-73" d="M 2834 3397 
L 2834 2853 
Q 2591 2978 2328 3040 
Q 2066 3103 1784 3103 
Q 1356 3103 1142 2972 
Q 928 2841 928 2578 
Q 928 2378 1081 2264 
Q 1234 2150 1697 2047 
L 1894 2003 
Q 2506 1872 2764 1633 
Q 3022 1394 3022 966 
Q 3022 478 2636 193 
Q 2250 -91 1575 -91 
Q 1294 -91 989 -36 
Q 684 19 347 128 
L 347 722 
Q 666 556 975 473 
Q 1284 391 1588 391 
Q 1994 391 2212 530 
Q 2431 669 2431 922 
Q 2431 1156 2273 1281 
Q 2116 1406 1581 1522 
L 1381 1569 
Q 847 1681 609 1914 
Q 372 2147 372 2553 
Q 372 3047 722 3315 
Q 1072 3584 1716 3584 
Q 2034 3584 2315 3537 
Q 2597 3491 2834 3397 
z
" transform="scale(0.015625)"/>
       <path id="DejaVuSans-74" d="M 1172 4494 
L 1172 3500 
L 2356 3500 
L 2356 3053 
L 1172 3053 
L 1172 1153 
Q 1172 725 1289 603 
Q 1406 481 1766 481 
L 2356 481 
L 2356 0 
L 1766 0 
Q 1100 0 847 248 
Q 594 497 594 1153 
L 594 3053 
L 172 3053 
L 172 3500 
L 594 3500 
L 594 4494 
L 1172 4494 
z
" transform="scale(0.015625)"/>
       <path id="DejaVuSans-6e" d="M 3513 2113 
L 3513 0 
L 2938 0 
L 2938 2094 
Q 2938 2591 2744 2837 
Q 2550 3084 2163 3084 
Q 1697 3084 1428 2787 
Q 1159 2491 1159 1978 
L 1159 0 
L 581 0 
L 581 3500 
L 1159 3500 
L 1159 2956 
Q 1366 3272 1645 3428 
Q 1925 3584 2291 3584 
Q 2894 3584 3203 3211 
Q 3513 2838 3513 2113 
z
" transform="scale(0.015625)"/>
      </defs>
      <use xlink:href="#DejaVuSans-50"/>
      <use xlink:href="#DejaVuSans-6f" x="56.677734"/>
      <use xlink:href="#DejaVuSans-73" x="117.859375"/>
      <use xlink:href="#DejaVuSans-69" x="169.958984"/>
      <use xlink:href="#DejaVuSans-74" x="197.742188"/>
      <use xlink:href="#DejaVuSans-69" x="236.951172"/>
      <use xlink:href="#DejaVuSans-6f" x="264.734375"/>
      <use xlink:href="#DejaVuSans-6e" x="325.916016"/>
     </g>
    </g>
   </g>
   <g id="line2d_9">
    <path d="M 53.893295 95.111156 
L 58.39484 95.223135 
L 62.896385 95.555705 
L 67.543141 96.125386 
L 72.189897 96.922364 
L 76.836652 97.945575 
L 81.483408 99.197502 
L 86.130164 100.683999 
L 90.77692 102.407578 
L 95.568887 104.429022 
L 100.651276 106.824133 
L 106.604932 109.889775 
L 123.304211 118.654343 
L 127.370122 120.448829 
L 131.0004 121.819151 
L 134.340256 122.847125 
L 137.534901 123.599553 
L 140.584334 124.093425 
L 143.633768 124.36326 
L 146.683201 124.409529 
L 149.732635 124.239151 
L 152.927279 123.841467 
L 156.412346 123.179433 
L 160.333047 122.193426 
L 164.834591 120.823839 
L 171.949936 118.390025 
L 179.936548 115.712747 
L 184.583304 114.395699 
L 188.504004 113.509572 
L 192.134282 112.913539 
L 195.619349 112.568042 
L 198.959205 112.457803 
L 198.959205 112.457803 
" clip-path="url(#p4e9609131c)" style="fill: none; stroke: #1f77b4; stroke-width: 1.5; stroke-linecap: square"/>
   </g>
   <g id="line2d_10">
    <path d="M 53.893295 78.373954 
L 56.652307 78.479932 
L 59.556529 78.807581 
L 62.751174 79.392282 
L 66.526663 80.316191 
L 71.028208 81.654827 
L 76.836652 83.625604 
L 85.113686 86.690165 
L 103.991132 93.74916 
L 109.218732 95.411797 
L 113.720277 96.611841 
L 117.786188 97.466183 
L 121.561677 98.035433 
L 125.191955 98.359492 
L 128.677022 98.45156 
L 132.162089 98.325701 
L 135.792367 97.966326 
L 139.422645 97.383528 
L 143.198134 96.551996 
L 147.118835 95.461023 
L 151.329957 94.056835 
L 155.976713 92.266109 
L 161.349524 89.949271 
L 169.045714 86.360458 
L 180.372181 81.089954 
L 184.728515 79.323372 
L 188.213582 78.135156 
L 191.408226 77.281617 
L 194.312449 76.740046 
L 197.07146 76.457027 
L 198.959205 76.400424 
L 198.959205 76.400424 
" clip-path="url(#p4e9609131c)" style="fill: none; stroke: #ff7f0e; stroke-width: 1.5; stroke-linecap: square"/>
   </g>
   <g id="line2d_11">
    <path d="M 53.893295 77.57704 
L 57.668785 77.467016 
L 61.734696 77.121545 
L 66.526663 76.478534 
L 73.061163 75.35241 
L 88.743964 72.564433 
L 94.842831 71.749426 
L 100.215643 71.245445 
L 105.152821 70.996262 
L 109.944788 70.977716 
L 114.446333 71.180677 
L 118.802666 71.595562 
L 123.013789 72.214753 
L 127.224911 73.05784 
L 131.436034 74.127828 
L 135.792367 75.466471 
L 140.439123 77.13628 
L 145.376301 79.152315 
L 151.329957 81.838199 
L 171.804725 91.312688 
L 176.596692 93.152907 
L 180.807815 94.538655 
L 184.728515 95.602386 
L 188.504004 96.401448 
L 192.134282 96.94861 
L 195.76456 97.269286 
L 198.959205 97.359749 
L 198.959205 97.359749 
" clip-path="url(#p4e9609131c)" style="fill: none; stroke: #2ca02c; stroke-width: 1.5; stroke-linecap: square"/>
   </g>
   <g id="line2d_12">
    <path d="M 53.893295 158.909234 
L 63.332018 159.017717 
L 68.850041 159.298935 
L 74.222852 159.794058 
L 80.176508 160.570998 
L 87.872698 161.816666 
L 107.185777 165.042026 
L 113.865488 165.882162 
L 119.528722 166.37465 
L 124.611111 166.597026 
L 129.403078 166.585966 
L 133.904623 166.359999 
L 138.406167 165.913308 
L 143.052923 165.223226 
L 147.84489 164.285729 
L 153.217702 163.002278 
L 159.897413 161.16165 
L 176.596692 156.450529 
L 181.824292 155.27239 
L 186.471048 154.45022 
L 190.827382 153.903962 
L 195.038504 153.594129 
L 198.959205 153.500531 
L 198.959205 153.500531 
" clip-path="url(#p4e9609131c)" style="fill: none; stroke: #d62728; stroke-width: 1.5; stroke-linecap: square"/>
   </g>
   <g id="line2d_13">
    <path d="M 53.893295 112.689449 
L 57.523573 112.579353 
L 61.299063 112.2369 
L 65.219763 111.651741 
L 69.430885 110.79185 
L 74.077641 109.612164 
L 79.595664 107.974951 
L 87.437064 105.391324 
L 102.103387 100.530837 
L 108.347466 98.727935 
L 113.720277 97.407195 
L 118.657455 96.420888 
L 123.304211 95.713377 
L 127.950967 95.228005 
L 132.742934 94.952882 
L 137.970534 94.882818 
L 144.214612 95.030682 
L 163.237269 95.64767 
L 169.045714 95.507547 
L 175.144581 95.132921 
L 184.728515 94.278228 
L 192.279493 93.699781 
L 197.507093 93.515921 
L 198.959205 93.506452 
L 198.959205 93.506452 
" clip-path="url(#p4e9609131c)" style="fill: none; stroke: #9467bd; stroke-width: 1.5; stroke-linecap: square"/>
   </g>
   <g id="line2d_14">
    <path d="M 53.893295 18.22 
L 63.912863 18.329519 
L 70.156941 18.616935 
L 75.674963 19.093742 
L 81.192986 19.796526 
L 87.437064 20.824915 
L 98.327898 22.904009 
L 106.169299 24.279378 
L 111.977744 25.077449 
L 117.495766 25.61014 
L 123.013789 25.919369 
L 128.967445 26.025495 
L 135.501945 25.913451 
L 142.61729 25.565002 
L 149.877846 24.985353 
L 156.702769 24.221955 
L 163.527691 23.234397 
L 171.514303 21.842191 
L 185.599781 19.345334 
L 190.682171 18.70787 
L 195.038504 18.376409 
L 198.959205 18.277682 
L 198.959205 18.277682 
" clip-path="url(#p4e9609131c)" style="fill: none; stroke: #8c564b; stroke-width: 1.5; stroke-linecap: square"/>
   </g>
   <g id="line2d_15">
    <path d="M 53.893295 40.641799 
L 57.08794 40.74831 
L 60.427796 41.082982 
L 63.912863 41.663219 
L 67.543141 42.495697 
L 71.463841 43.626216 
L 75.674963 45.071291 
L 80.321719 46.899179 
L 85.54932 49.201466 
L 91.067342 51.880474 
L 96.730576 54.882137 
L 102.539021 58.218155 
L 108.783099 62.070727 
L 116.914922 67.377674 
L 128.096178 74.670409 
L 133.323778 77.799249 
L 137.825323 80.236705 
L 141.891234 82.192734 
L 145.957146 83.900311 
L 150.023057 85.363385 
L 154.23418 86.640601 
L 158.880935 87.810345 
L 164.253747 88.924767 
L 171.078669 90.101159 
L 179.500914 91.320337 
L 186.76147 92.163898 
L 192.569915 92.621521 
L 197.652304 92.80087 
L 198.959205 92.808897 
L 198.959205 92.808897 
" clip-path="url(#p4e9609131c)" style="fill: none; stroke: #e377c2; stroke-width: 1.5; stroke-linecap: square"/>
   </g>
   <g id="patch_3">
    <path d="M 46.64 174.04 
L 46.64 10.8 
" style="fill: none; stroke: #000000; stroke-width: 0.8; stroke-linejoin: miter; stroke-linecap: square"/>
   </g>
   <g id="patch_4">
    <path d="M 206.2125 174.04 
L 206.2125 10.8 
" style="fill: none; stroke: #000000; stroke-width: 0.8; stroke-linejoin: miter; stroke-linecap: square"/>
   </g>
   <g id="patch_5">
    <path d="M 46.64 174.04 
L 206.2125 174.04 
" style="fill: none; stroke: #000000; stroke-width: 0.8; stroke-linejoin: miter; stroke-linecap: square"/>
   </g>
   <g id="patch_6">
    <path d="M 46.64 10.8 
L 206.2125 10.8 
" style="fill: none; stroke: #000000; stroke-width: 0.8; stroke-linejoin: miter; stroke-linecap: square"/>
   </g>
  </g>
  <g id="axes_2">
   <g id="patch_7">
    <path d="M 262.3025 174.04 
L 421.875 174.04 
L 421.875 10.8 
L 262.3025 10.8 
z
" style="fill: #ffffff"/>
   </g>
   <g id="matplotlib.axis_3">
    <g id="xtick_4">
     <g id="line2d_16">
      <g>
       <use xlink:href="#md5ef5a2aea" x="269.555795" y="174.04" style="stroke: #000000; stroke-width: 0.8"/>
      </g>
     </g>
     <g id="text_11">
      <!-- 0 -->
      <g transform="translate(266.374545 188.638438)scale(0.1 -0.1)">
       <use xlink:href="#DejaVuSans-30"/>
      </g>
     </g>
    </g>
    <g id="xtick_5">
     <g id="line2d_17">
      <g>
       <use xlink:href="#md5ef5a2aea" x="332.106624" y="174.04" style="stroke: #000000; stroke-width: 0.8"/>
      </g>
     </g>
     <g id="text_12">
      <!-- 1 -->
      <g transform="translate(328.925374 188.638438)scale(0.1 -0.1)">
       <use xlink:href="#DejaVuSans-31"/>
      </g>
     </g>
    </g>
    <g id="xtick_6">
     <g id="line2d_18">
      <g>
       <use xlink:href="#md5ef5a2aea" x="394.657452" y="174.04" style="stroke: #000000; stroke-width: 0.8"/>
      </g>
     </g>
     <g id="text_13">
      <!-- 2 -->
      <g transform="translate(391.476202 188.638438)scale(0.1 -0.1)">
       <use xlink:href="#DejaVuSans-32"/>
      </g>
     </g>
    </g>
    <g id="text_14">
     <!-- Time -->
     <g transform="translate(329.855156 202.316563)scale(0.1 -0.1)">
      <use xlink:href="#DejaVuSans-54"/>
      <use xlink:href="#DejaVuSans-69" x="57.958984"/>
      <use xlink:href="#DejaVuSans-6d" x="85.742188"/>
      <use xlink:href="#DejaVuSans-65" x="183.154297"/>
     </g>
    </g>
   </g>
   <g id="matplotlib.axis_4">
    <g id="ytick_6">
     <g id="line2d_19">
      <g>
       <use xlink:href="#md071d94b25" x="262.3025" y="173.282979" style="stroke: #000000; stroke-width: 0.8"/>
      </g>
     </g>
     <g id="text_15">
      <!-- −1.5 -->
      <g transform="translate(231.019687 177.082198)scale(0.1 -0.1)">
       <defs>
        <path id="DejaVuSans-2e" d="M 684 794 
L 1344 794 
L 1344 0 
L 684 0 
L 684 794 
z
" transform="scale(0.015625)"/>
        <path id="DejaVuSans-35" d="M 691 4666 
L 3169 4666 
L 3169 4134 
L 1269 4134 
L 1269 2991 
Q 1406 3038 1543 3061 
Q 1681 3084 1819 3084 
Q 2600 3084 3056 2656 
Q 3513 2228 3513 1497 
Q 3513 744 3044 326 
Q 2575 -91 1722 -91 
Q 1428 -91 1123 -41 
Q 819 9 494 109 
L 494 744 
Q 775 591 1075 516 
Q 1375 441 1709 441 
Q 2250 441 2565 725 
Q 2881 1009 2881 1497 
Q 2881 1984 2565 2268 
Q 2250 2553 1709 2553 
Q 1456 2553 1204 2497 
Q 953 2441 691 2322 
L 691 4666 
z
" transform="scale(0.015625)"/>
       </defs>
       <use xlink:href="#DejaVuSans-2212"/>
       <use xlink:href="#DejaVuSans-31" x="83.789062"/>
       <use xlink:href="#DejaVuSans-2e" x="147.412109"/>
       <use xlink:href="#DejaVuSans-35" x="179.199219"/>
      </g>
     </g>
    </g>
    <g id="ytick_7">
     <g id="line2d_20">
      <g>
       <use xlink:href="#md071d94b25" x="262.3025" y="142.268428" style="stroke: #000000; stroke-width: 0.8"/>
      </g>
     </g>
     <g id="text_16">
      <!-- −1.0 -->
      <g transform="translate(231.019687 146.067646)scale(0.1 -0.1)">
       <use xlink:href="#DejaVuSans-2212"/>
       <use xlink:href="#DejaVuSans-31" x="83.789062"/>
       <use xlink:href="#DejaVuSans-2e" x="147.412109"/>
       <use xlink:href="#DejaVuSans-30" x="179.199219"/>
      </g>
     </g>
    </g>
    <g id="ytick_8">
     <g id="line2d_21">
      <g>
       <use xlink:href="#md071d94b25" x="262.3025" y="111.253877" style="stroke: #000000; stroke-width: 0.8"/>
      </g>
     </g>
     <g id="text_17">
      <!-- −0.5 -->
      <g transform="translate(231.019687 115.053095)scale(0.1 -0.1)">
       <use xlink:href="#DejaVuSans-2212"/>
       <use xlink:href="#DejaVuSans-30" x="83.789062"/>
       <use xlink:href="#DejaVuSans-2e" x="147.412109"/>
       <use xlink:href="#DejaVuSans-35" x="179.199219"/>
      </g>
     </g>
    </g>
    <g id="ytick_9">
     <g id="line2d_22">
      <g>
       <use xlink:href="#md071d94b25" x="262.3025" y="80.239326" style="stroke: #000000; stroke-width: 0.8"/>
      </g>
     </g>
     <g id="text_18">
      <!-- 0.0 -->
      <g transform="translate(239.399375 84.038544)scale(0.1 -0.1)">
       <use xlink:href="#DejaVuSans-30"/>
       <use xlink:href="#DejaVuSans-2e" x="63.623047"/>
       <use xlink:href="#DejaVuSans-30" x="95.410156"/>
      </g>
     </g>
    </g>
    <g id="ytick_10">
     <g id="line2d_23">
      <g>
       <use xlink:href="#md071d94b25" x="262.3025" y="49.224775" style="stroke: #000000; stroke-width: 0.8"/>
      </g>
     </g>
     <g id="text_19">
      <!-- 0.5 -->
      <g transform="translate(239.399375 53.023993)scale(0.1 -0.1)">
       <use xlink:href="#DejaVuSans-30"/>
       <use xlink:href="#DejaVuSans-2e" x="63.623047"/>
       <use xlink:href="#DejaVuSans-35" x="95.410156"/>
      </g>
     </g>
    </g>
    <g id="ytick_11">
     <g id="line2d_24">
      <g>
       <use xlink:href="#md071d94b25" x="262.3025" y="18.210223" style="stroke: #000000; stroke-width: 0.8"/>
      </g>
     </g>
     <g id="text_20">
      <!-- 1.0 -->
      <g transform="translate(239.399375 22.009442)scale(0.1 -0.1)">
       <use xlink:href="#DejaVuSans-31"/>
       <use xlink:href="#DejaVuSans-2e" x="63.623047"/>
       <use xlink:href="#DejaVuSans-30" x="95.410156"/>
      </g>
     </g>
    </g>
    <g id="text_21">
     <!-- Velocity -->
     <g transform="translate(224.94 112.035625)rotate(-90)scale(0.1 -0.1)">
      <defs>
       <path id="DejaVuSans-56" d="M 1831 0 
L 50 4666 
L 709 4666 
L 2188 738 
L 3669 4666 
L 4325 4666 
L 2547 0 
L 1831 0 
z
" transform="scale(0.015625)"/>
       <path id="DejaVuSans-6c" d="M 603 4863 
L 1178 4863 
L 1178 0 
L 603 0 
L 603 4863 
z
" transform="scale(0.015625)"/>
       <path id="DejaVuSans-63" d="M 3122 3366 
L 3122 2828 
Q 2878 2963 2633 3030 
Q 2388 3097 2138 3097 
Q 1578 3097 1268 2742 
Q 959 2388 959 1747 
Q 959 1106 1268 751 
Q 1578 397 2138 397 
Q 2388 397 2633 464 
Q 2878 531 3122 666 
L 3122 134 
Q 2881 22 2623 -34 
Q 2366 -91 2075 -91 
Q 1284 -91 818 406 
Q 353 903 353 1747 
Q 353 2603 823 3093 
Q 1294 3584 2113 3584 
Q 2378 3584 2631 3529 
Q 2884 3475 3122 3366 
z
" transform="scale(0.015625)"/>
       <path id="DejaVuSans-79" d="M 2059 -325 
Q 1816 -950 1584 -1140 
Q 1353 -1331 966 -1331 
L 506 -1331 
L 506 -850 
L 844 -850 
Q 1081 -850 1212 -737 
Q 1344 -625 1503 -206 
L 1606 56 
L 191 3500 
L 800 3500 
L 1894 763 
L 2988 3500 
L 3597 3500 
L 2059 -325 
z
" transform="scale(0.015625)"/>
      </defs>
      <use xlink:href="#DejaVuSans-56"/>
      <use xlink:href="#DejaVuSans-65" x="60.658203"/>
      <use xlink:href="#DejaVuSans-6c" x="122.181641"/>
      <use xlink:href="#DejaVuSans-6f" x="149.964844"/>
      <use xlink:href="#DejaVuSans-63" x="211.146484"/>
      <use xlink:href="#DejaVuSans-69" x="266.126953"/>
      <use xlink:href="#DejaVuSans-74" x="293.910156"/>
      <use xlink:href="#DejaVuSans-79" x="333.119141"/>
     </g>
    </g>
   </g>
   <g id="line2d_25">
    <path d="M 269.555795 80.239326 
L 277.251985 91.171315 
L 287.126341 104.719349 
L 297.145908 118.531529 
L 311.521809 138.737711 
L 314.426032 142.346835 
L 316.894621 145.115606 
L 318.782365 146.892316 
L 320.815321 148.47481 
L 322.412643 149.507128 
L 323.864754 150.176651 
L 325.171654 150.540607 
L 326.914188 150.75786 
L 328.221088 150.726323 
L 329.382777 150.47169 
L 330.980099 149.885076 
L 332.141788 149.276342 
L 333.303477 148.429766 
L 334.610377 147.192365 
L 336.2077 145.322054 
L 337.950233 142.984348 
L 339.547555 140.418113 
L 341.144878 137.431759 
L 343.613467 132.258907 
L 345.501211 127.803595 
L 347.679378 122.084453 
L 350.874023 113.054258 
L 354.504301 101.984849 
L 365.249924 68.90465 
L 367.863724 61.674518 
L 370.332313 55.49555 
L 372.51048 50.512326 
L 374.398224 46.761031 
L 376.43118 43.259185 
L 378.173713 40.62239 
L 379.625825 38.834731 
L 380.932725 37.564612 
L 382.675258 36.217366 
L 383.836947 35.529865 
L 384.998636 35.098863 
L 386.595958 34.78046 
L 387.757647 34.742813 
L 388.919336 34.951692 
L 390.081025 35.402144 
L 391.387925 36.175318 
L 393.130459 37.46679 
L 394.437359 38.707991 
L 395.88947 40.413975 
L 397.486792 42.652918 
L 399.664959 46.070998 
L 401.552704 49.496748 
L 403.730871 53.939801 
L 406.635093 60.341561 
L 409.684526 67.693025 
L 414.331282 79.491343 
L 414.621705 80.239326 
L 414.621705 80.239326 
" clip-path="url(#pa6d20e404f)" style="fill: none; stroke: #1f77b4; stroke-width: 1.5; stroke-linecap: square"/>
   </g>
   <g id="line2d_26">
    <path d="M 269.555795 80.239325 
L 272.895651 92.099045 
L 275.36424 99.956108 
L 277.106774 104.921255 
L 278.704096 108.814214 
L 280.301418 112.135088 
L 282.334374 115.883239 
L 283.931696 118.342232 
L 285.529019 120.390164 
L 287.852397 122.921789 
L 289.59493 124.496684 
L 291.337463 125.776451 
L 293.951264 127.346685 
L 295.839008 128.234832 
L 297.871964 128.943059 
L 300.485764 129.612952 
L 303.099564 130.020568 
L 305.422942 130.199633 
L 307.455898 130.143832 
L 309.924487 129.846484 
L 311.66702 129.411493 
L 313.409554 128.730003 
L 315.587721 127.609057 
L 317.185043 126.552767 
L 318.927576 125.115569 
L 321.105743 122.981689 
L 322.848277 121.025015 
L 324.736021 118.545153 
L 327.20461 114.851173 
L 329.382777 111.24093 
L 332.432211 105.702764 
L 335.046011 100.477973 
L 338.966711 92.03581 
L 343.468256 81.643494 
L 351.164445 63.934338 
L 355.375567 54.875395 
L 359.151057 47.220464 
L 362.055279 41.751298 
L 365.249924 36.233177 
L 367.718513 32.344402 
L 370.041891 29.093013 
L 372.365269 26.154026 
L 374.253013 24.128919 
L 376.285969 22.296249 
L 378.173713 20.84666 
L 379.771036 19.89873 
L 381.368358 19.208445 
L 383.401314 18.557161 
L 384.853425 18.310882 
L 386.886381 18.220867 
L 388.193281 18.340388 
L 389.500181 18.672026 
L 390.807081 19.261522 
L 392.549614 20.350283 
L 393.856514 21.402335 
L 395.163414 22.785489 
L 396.325103 24.332678 
L 397.922426 26.88962 
L 399.664959 30.085228 
L 401.11707 33.262501 
L 402.714393 37.344847 
L 405.037771 44.05613 
L 406.925515 50.20115 
L 409.103682 58.130463 
L 412.443538 71.261738 
L 414.621705 80.239326 
L 414.621705 80.239326 
" clip-path="url(#pa6d20e404f)" style="fill: none; stroke: #ff7f0e; stroke-width: 1.5; stroke-linecap: square"/>
   </g>
   <g id="line2d_27">
    <path d="M 269.555795 80.239326 
L 273.186073 73.050485 
L 275.945085 68.136769 
L 277.687618 65.423804 
L 279.284941 63.303719 
L 281.463107 60.848102 
L 283.06043 59.331709 
L 284.512541 58.238195 
L 286.109863 57.320022 
L 288.142819 56.409295 
L 289.59493 55.998805 
L 291.047041 55.806091 
L 292.934786 55.809541 
L 294.677319 55.993165 
L 296.274642 56.379386 
L 298.162386 57.079289 
L 300.630975 58.23513 
L 303.099564 59.680967 
L 305.568153 61.349214 
L 308.181953 63.407197 
L 311.231387 66.079368 
L 313.990398 68.826079 
L 317.330254 72.456052 
L 320.524899 76.292018 
L 324.155177 80.957456 
L 328.221088 86.598675 
L 332.432211 92.824039 
L 336.352911 99.000528 
L 342.161356 108.575689 
L 348.695856 119.295725 
L 352.471345 125.10598 
L 356.101623 130.230186 
L 359.005846 133.923426 
L 361.038801 136.235808 
L 362.926546 138.067116 
L 365.395135 140.091954 
L 366.992457 141.1357 
L 368.444568 141.843231 
L 370.187102 142.423553 
L 371.929635 142.798174 
L 373.381746 142.860498 
L 374.833858 142.680784 
L 376.866813 142.136837 
L 378.318924 141.547628 
L 379.771036 140.726914 
L 381.368358 139.574215 
L 383.546525 137.732146 
L 385.289058 135.956122 
L 387.757647 133.104962 
L 389.645392 130.575212 
L 391.823559 127.271236 
L 394.58257 122.704426 
L 397.341581 117.634959 
L 400.971859 110.487931 
L 405.037771 101.909575 
L 409.248893 92.557188 
L 414.621705 80.239326 
L 414.621705 80.239326 
" clip-path="url(#pa6d20e404f)" style="fill: none; stroke: #2ca02c; stroke-width: 1.5; stroke-linecap: square"/>
   </g>
   <g id="line2d_28">
    <path d="M 269.555795 80.239326 
L 272.169596 80.75708 
L 273.912129 81.333407 
L 275.945085 82.233528 
L 277.397196 83.104357 
L 278.994518 84.319364 
L 281.317896 86.416495 
L 284.802963 89.852453 
L 289.59493 94.523165 
L 292.20873 96.744043 
L 294.967741 98.821031 
L 297.000697 100.078212 
L 299.469286 101.323772 
L 301.357031 102.062381 
L 303.82562 102.748921 
L 305.713364 103.048567 
L 307.601109 103.127112 
L 310.36012 103.000244 
L 312.538287 102.673321 
L 315.297298 102.010614 
L 317.620676 101.259422 
L 320.089265 100.206718 
L 322.848277 98.804336 
L 325.171654 97.360156 
L 328.221088 95.16118 
L 330.980099 92.858707 
L 333.448688 90.559367 
L 336.2077 87.65847 
L 339.547555 83.845898 
L 343.032622 79.494499 
L 346.517689 74.839629 
L 352.761767 65.988478 
L 357.844157 58.952037 
L 361.329223 54.489248 
L 364.088235 51.32472 
L 366.702035 48.600646 
L 368.734991 46.79167 
L 371.20358 44.920018 
L 372.946113 43.835603 
L 374.688646 43.01356 
L 376.866813 42.28579 
L 378.464136 41.962554 
L 379.916247 41.891725 
L 381.368358 42.039798 
L 383.401314 42.477529 
L 384.998636 43.066193 
L 387.176803 44.145965 
L 388.774125 45.171726 
L 390.516659 46.550251 
L 392.985248 48.837556 
L 395.018203 51.011755 
L 397.19637 53.684323 
L 400.245804 57.797704 
L 403.295237 62.357221 
L 409.394104 71.940602 
L 414.621705 80.239326 
L 414.621705 80.239326 
" clip-path="url(#pa6d20e404f)" style="fill: none; stroke: #d62728; stroke-width: 1.5; stroke-linecap: square"/>
   </g>
   <g id="line2d_29">
    <path d="M 269.555795 80.239326 
L 275.219029 68.124944 
L 278.413674 61.748776 
L 281.463107 56.206811 
L 283.786485 52.347503 
L 285.964652 49.141475 
L 288.578452 45.680573 
L 290.466197 43.53955 
L 292.499152 41.580757 
L 294.677319 39.755111 
L 296.419853 38.590959 
L 298.307597 37.617688 
L 300.340553 36.785559 
L 302.083086 36.319636 
L 304.261253 35.95378 
L 306.003787 35.902531 
L 307.74632 36.07591 
L 310.069698 36.527276 
L 311.957443 37.130448 
L 313.990398 38.036553 
L 316.458987 39.373654 
L 318.491943 40.739574 
L 320.960532 42.686877 
L 323.28391 44.742594 
L 325.752499 47.229336 
L 329.092355 50.921711 
L 333.013055 55.685195 
L 337.369389 61.400834 
L 346.372478 73.253469 
L 349.712334 77.174791 
L 352.035712 79.580516 
L 354.213879 81.513861 
L 356.392045 83.192573 
L 358.425001 84.436386 
L 360.312746 85.365292 
L 361.910068 85.885761 
L 363.50739 86.160978 
L 365.540346 86.283573 
L 366.992457 86.156751 
L 368.589779 85.784541 
L 370.622735 85.0395 
L 372.51048 84.139977 
L 374.398224 82.980643 
L 377.157236 80.972436 
L 380.061458 78.606956 
L 387.902858 72.06488 
L 390.081025 70.60264 
L 392.259192 69.441751 
L 394.146937 68.658702 
L 395.599048 68.290327 
L 397.051159 68.140954 
L 398.938904 68.168121 
L 400.391015 68.40548 
L 401.843126 68.885674 
L 403.440448 69.677543 
L 405.473404 70.932791 
L 407.070726 72.185584 
L 408.958471 73.963817 
L 411.862693 77.049517 
L 414.621705 80.239326 
L 414.621705 80.239326 
" clip-path="url(#pa6d20e404f)" style="fill: none; stroke: #9467bd; stroke-width: 1.5; stroke-linecap: square"/>
   </g>
   <g id="line2d_30">
    <path d="M 269.555795 80.239326 
L 272.75044 80.916165 
L 275.219029 81.698132 
L 277.106774 82.480161 
L 278.994518 83.52427 
L 281.317896 85.105121 
L 283.641274 86.915524 
L 286.255074 89.252462 
L 291.047041 93.875904 
L 295.984219 98.563699 
L 298.598019 100.712802 
L 300.921397 102.390048 
L 303.244775 103.756231 
L 304.987309 104.570864 
L 306.584631 105.079403 
L 308.327165 105.391645 
L 310.214909 105.538145 
L 311.812231 105.41961 
L 313.409554 105.067171 
L 315.732932 104.28255 
L 317.475465 103.463126 
L 319.36321 102.319893 
L 322.122221 100.344353 
L 324.59081 98.283788 
L 328.221088 94.909266 
L 338.8215 84.883421 
L 342.161356 82.125669 
L 345.646422 79.5005 
L 349.131489 77.182285 
L 353.05219 74.807261 
L 361.038801 70.356878 
L 366.847246 67.004073 
L 373.236535 62.994112 
L 378.464136 59.796632 
L 381.223147 58.352149 
L 384.127369 57.085728 
L 386.450747 56.350785 
L 388.338492 55.943826 
L 389.935814 55.822059 
L 391.678348 55.933749 
L 393.566092 56.258156 
L 395.018203 56.736033 
L 396.470315 57.441092 
L 398.358059 58.633909 
L 400.100593 59.970072 
L 401.697915 61.488423 
L 403.585659 63.606076 
L 405.909037 66.514922 
L 408.087204 69.637613 
L 411.281849 74.678539 
L 414.621705 80.239326 
L 414.621705 80.239326 
" clip-path="url(#pa6d20e404f)" style="fill: none; stroke: #8c564b; stroke-width: 1.5; stroke-linecap: square"/>
   </g>
   <g id="line2d_31">
    <path d="M 269.555795 80.239326 
L 275.219029 95.362198 
L 278.268463 102.975701 
L 281.172685 109.614423 
L 283.786485 115.122133 
L 286.255074 119.781818 
L 289.159297 124.805166 
L 291.482675 128.365801 
L 294.677319 132.799307 
L 297.291119 136.028925 
L 301.357031 140.601911 
L 307.455898 147.008799 
L 315.587721 155.230128 
L 319.508421 158.938631 
L 322.848277 161.786447 
L 325.026443 163.344101 
L 327.495032 164.805254 
L 329.237566 165.59656 
L 331.415733 166.309554 
L 332.867844 166.57361 
L 334.174744 166.608698 
L 335.626855 166.410681 
L 337.5146 165.910787 
L 338.8215 165.340103 
L 340.1284 164.540312 
L 341.580511 163.386486 
L 343.613467 161.483601 
L 345.210789 159.683366 
L 346.953323 157.382137 
L 349.567123 153.480322 
L 351.745289 149.833484 
L 354.649512 144.481569 
L 359.005846 135.992667 
L 363.943024 126.474116 
L 367.282879 120.478514 
L 369.751468 116.514511 
L 372.365269 112.696455 
L 374.398224 110.13994 
L 376.721602 107.629888 
L 378.609347 105.853244 
L 380.497091 104.382799 
L 382.96568 102.780856 
L 385.143847 101.59637 
L 388.628914 99.994301 
L 397.341581 96.236462 
L 400.100593 94.649834 
L 402.133548 93.221245 
L 404.747348 91.072012 
L 406.925515 89.044104 
L 409.394104 86.420714 
L 412.73396 82.541669 
L 414.621705 80.239326 
L 414.621705 80.239326 
" clip-path="url(#pa6d20e404f)" style="fill: none; stroke: #e377c2; stroke-width: 1.5; stroke-linecap: square"/>
   </g>
   <g id="patch_8">
    <path d="M 262.3025 174.04 
L 262.3025 10.8 
" style="fill: none; stroke: #000000; stroke-width: 0.8; stroke-linejoin: miter; stroke-linecap: square"/>
   </g>
   <g id="patch_9">
    <path d="M 421.875 174.04 
L 421.875 10.8 
" style="fill: none; stroke: #000000; stroke-width: 0.8; stroke-linejoin: miter; stroke-linecap: square"/>
   </g>
   <g id="patch_10">
    <path d="M 262.3025 174.04 
L 421.875 174.04 
" style="fill: none; stroke: #000000; stroke-width: 0.8; stroke-linejoin: miter; stroke-linecap: square"/>
   </g>
   <g id="patch_11">
    <path d="M 262.3025 10.8 
L 421.875 10.8 
" style="fill: none; stroke: #000000; stroke-width: 0.8; stroke-linejoin: miter; stroke-linecap: square"/>
   </g>
  </g>
  <g id="axes_3">
   <g id="patch_12">
    <path d="M 477.965 174.04 
L 637.5375 174.04 
L 637.5375 10.8 
L 477.965 10.8 
z
" style="fill: #ffffff"/>
   </g>
   <g id="matplotlib.axis_5">
    <g id="xtick_7">
     <g id="line2d_32">
      <g>
       <use xlink:href="#md5ef5a2aea" x="485.218295" y="174.04" style="stroke: #000000; stroke-width: 0.8"/>
      </g>
     </g>
     <g id="text_22">
      <!-- 0 -->
      <g transform="translate(482.037045 188.638438)scale(0.1 -0.1)">
       <use xlink:href="#DejaVuSans-30"/>
      </g>
     </g>
    </g>
    <g id="xtick_8">
     <g id="line2d_33">
      <g>
       <use xlink:href="#md5ef5a2aea" x="547.769124" y="174.04" style="stroke: #000000; stroke-width: 0.8"/>
      </g>
     </g>
     <g id="text_23">
      <!-- 1 -->
      <g transform="translate(544.587874 188.638438)scale(0.1 -0.1)">
       <use xlink:href="#DejaVuSans-31"/>
      </g>
     </g>
    </g>
    <g id="xtick_9">
     <g id="line2d_34">
      <g>
       <use xlink:href="#md5ef5a2aea" x="610.319952" y="174.04" style="stroke: #000000; stroke-width: 0.8"/>
      </g>
     </g>
     <g id="text_24">
      <!-- 2 -->
      <g transform="translate(607.138702 188.638438)scale(0.1 -0.1)">
       <use xlink:href="#DejaVuSans-32"/>
      </g>
     </g>
    </g>
    <g id="text_25">
     <!-- Time -->
     <g transform="translate(545.517656 202.316563)scale(0.1 -0.1)">
      <use xlink:href="#DejaVuSans-54"/>
      <use xlink:href="#DejaVuSans-69" x="57.958984"/>
      <use xlink:href="#DejaVuSans-6d" x="85.742188"/>
      <use xlink:href="#DejaVuSans-65" x="183.154297"/>
     </g>
    </g>
   </g>
   <g id="matplotlib.axis_6">
    <g id="ytick_12">
     <g id="line2d_35">
      <g>
       <use xlink:href="#md071d94b25" x="477.965" y="163.024973" style="stroke: #000000; stroke-width: 0.8"/>
      </g>
     </g>
     <g id="text_26">
      <!-- −4 -->
      <g transform="translate(456.222812 166.824192)scale(0.1 -0.1)">
       <defs>
        <path id="DejaVuSans-34" d="M 2419 4116 
L 825 1625 
L 2419 1625 
L 2419 4116 
z
M 2253 4666 
L 3047 4666 
L 3047 1625 
L 3713 1625 
L 3713 1100 
L 3047 1100 
L 3047 0 
L 2419 0 
L 2419 1100 
L 313 1100 
L 313 1709 
L 2253 4666 
z
" transform="scale(0.015625)"/>
       </defs>
       <use xlink:href="#DejaVuSans-2212"/>
       <use xlink:href="#DejaVuSans-34" x="83.789062"/>
      </g>
     </g>
    </g>
    <g id="ytick_13">
     <g id="line2d_36">
      <g>
       <use xlink:href="#md071d94b25" x="477.965" y="122.659961" style="stroke: #000000; stroke-width: 0.8"/>
      </g>
     </g>
     <g id="text_27">
      <!-- −2 -->
      <g transform="translate(456.222812 126.45918)scale(0.1 -0.1)">
       <use xlink:href="#DejaVuSans-2212"/>
       <use xlink:href="#DejaVuSans-32" x="83.789062"/>
      </g>
     </g>
    </g>
    <g id="ytick_14">
     <g id="line2d_37">
      <g>
       <use xlink:href="#md071d94b25" x="477.965" y="82.294949" style="stroke: #000000; stroke-width: 0.8"/>
      </g>
     </g>
     <g id="text_28">
      <!-- 0 -->
      <g transform="translate(464.6025 86.094167)scale(0.1 -0.1)">
       <use xlink:href="#DejaVuSans-30"/>
      </g>
     </g>
    </g>
    <g id="ytick_15">
     <g id="line2d_38">
      <g>
       <use xlink:href="#md071d94b25" x="477.965" y="41.929937" style="stroke: #000000; stroke-width: 0.8"/>
      </g>
     </g>
     <g id="text_29">
      <!-- 2 -->
      <g transform="translate(464.6025 45.729155)scale(0.1 -0.1)">
       <use xlink:href="#DejaVuSans-32"/>
      </g>
     </g>
    </g>
    <g id="text_30">
     <!-- Acceleration -->
     <g transform="translate(450.143125 123.490313)rotate(-90)scale(0.1 -0.1)">
      <defs>
       <path id="DejaVuSans-41" d="M 2188 4044 
L 1331 1722 
L 3047 1722 
L 2188 4044 
z
M 1831 4666 
L 2547 4666 
L 4325 0 
L 3669 0 
L 3244 1197 
L 1141 1197 
L 716 0 
L 50 0 
L 1831 4666 
z
" transform="scale(0.015625)"/>
       <path id="DejaVuSans-72" d="M 2631 2963 
Q 2534 3019 2420 3045 
Q 2306 3072 2169 3072 
Q 1681 3072 1420 2755 
Q 1159 2438 1159 1844 
L 1159 0 
L 581 0 
L 581 3500 
L 1159 3500 
L 1159 2956 
Q 1341 3275 1631 3429 
Q 1922 3584 2338 3584 
Q 2397 3584 2469 3576 
Q 2541 3569 2628 3553 
L 2631 2963 
z
" transform="scale(0.015625)"/>
       <path id="DejaVuSans-61" d="M 2194 1759 
Q 1497 1759 1228 1600 
Q 959 1441 959 1056 
Q 959 750 1161 570 
Q 1363 391 1709 391 
Q 2188 391 2477 730 
Q 2766 1069 2766 1631 
L 2766 1759 
L 2194 1759 
z
M 3341 1997 
L 3341 0 
L 2766 0 
L 2766 531 
Q 2569 213 2275 61 
Q 1981 -91 1556 -91 
Q 1019 -91 701 211 
Q 384 513 384 1019 
Q 384 1609 779 1909 
Q 1175 2209 1959 2209 
L 2766 2209 
L 2766 2266 
Q 2766 2663 2505 2880 
Q 2244 3097 1772 3097 
Q 1472 3097 1187 3025 
Q 903 2953 641 2809 
L 641 3341 
Q 956 3463 1253 3523 
Q 1550 3584 1831 3584 
Q 2591 3584 2966 3190 
Q 3341 2797 3341 1997 
z
" transform="scale(0.015625)"/>
      </defs>
      <use xlink:href="#DejaVuSans-41"/>
      <use xlink:href="#DejaVuSans-63" x="66.658203"/>
      <use xlink:href="#DejaVuSans-63" x="121.638672"/>
      <use xlink:href="#DejaVuSans-65" x="176.619141"/>
      <use xlink:href="#DejaVuSans-6c" x="238.142578"/>
      <use xlink:href="#DejaVuSans-65" x="265.925781"/>
      <use xlink:href="#DejaVuSans-72" x="327.449219"/>
      <use xlink:href="#DejaVuSans-61" x="368.5625"/>
      <use xlink:href="#DejaVuSans-74" x="429.841797"/>
      <use xlink:href="#DejaVuSans-69" x="469.050781"/>
      <use xlink:href="#DejaVuSans-6f" x="496.833984"/>
      <use xlink:href="#DejaVuSans-6e" x="558.015625"/>
     </g>
    </g>
   </g>
   <g id="line2d_39">
    <path d="M 485.218295 111.722978 
L 488.41294 111.287338 
L 490.445896 111.008006 
L 492.624063 110.675261 
L 495.237863 110.31608 
L 504.676586 110.010509 
L 507.145175 110.19302 
L 509.758975 110.496427 
L 513.534464 111.224003 
L 517.309953 111.407769 
L 519.923753 111.299083 
L 521.666287 111.012124 
L 524.570509 110.401771 
L 525.151354 110.216597 
L 527.32952 108.761033 
L 529.362476 106.955524 
L 530.959798 105.871835 
L 533.573598 101.317638 
L 535.170921 98.421763 
L 536.913454 96.425964 
L 540.108099 88.161081 
L 540.979366 85.927598 
L 542.86711 83.044244 
L 545.045277 76.221243 
L 546.933022 72.703986 
L 550.998933 58.439876 
L 552.886677 54.890644 
L 556.662167 42.082082 
L 556.952589 41.456504 
L 558.840333 38.325611 
L 561.744556 30.059546 
L 562.906245 27.284709 
L 564.9392 24.934202 
L 567.117367 21.489228 
L 568.859901 19.506173 
L 572.490179 18.265115 
L 572.925812 18.227021 
L 574.813557 18.397214 
L 576.846512 19.53155 
L 579.315101 21.758493 
L 580.622001 22.760531 
L 583.235802 28.184789 
L 584.833124 31.667338 
L 586.575657 34.078187 
L 590.351146 45.796348 
L 590.78678 46.824003 
L 592.529313 49.81298 
L 596.304802 63.921234 
L 596.595225 64.862451 
L 598.482969 68.539432 
L 600.661136 76.681165 
L 602.548881 80.51474 
L 606.469581 94.801372 
L 608.502537 98.447839 
L 612.423237 111.325638 
L 614.456192 114.385703 
L 617.215204 121.564211 
L 618.522104 124.442437 
L 620.555059 126.58288 
L 623.023649 130.422157 
L 624.47576 132.265121 
L 626.799138 133.522606 
L 628.39646 134.613853 
L 630.284205 134.720421 
L 630.284205 134.720421 
" clip-path="url(#p311b512296)" style="fill: none; stroke: #1f77b4; stroke-width: 1.5; stroke-linecap: square"/>
   </g>
   <g id="line2d_40">
    <path d="M 485.218295 157.146257 
L 487.251251 154.587394 
L 489.429418 147.779051 
L 491.171951 143.973624 
L 495.383074 123.60315 
L 497.270818 119.256937 
L 499.739407 110.433399 
L 501.191519 106.020495 
L 503.224474 103.25736 
L 505.693063 98.033153 
L 507.290386 95.352783 
L 509.17813 93.802866 
L 512.082353 89.887739 
L 513.244042 88.574896 
L 515.276997 87.239401 
L 517.309953 85.461741 
L 519.197698 84.52891 
L 521.956709 81.88667 
L 523.263609 80.628594 
L 525.006142 79.44458 
L 528.055576 74.579781 
L 529.217265 72.792532 
L 530.959798 71.008328 
L 535.02571 63.026472 
L 536.913454 61.001825 
L 540.979366 52.435704 
L 543.012321 50.28743 
L 545.045277 46.762113 
L 546.933022 45.132964 
L 549.982455 40.835884 
L 550.998933 39.654863 
L 552.886677 38.523841 
L 555.064844 36.236556 
L 556.952589 35.013232 
L 559.7116 34.71831 
L 561.0185 34.749714 
L 564.358356 35.693712 
L 564.9392 35.959171 
L 569.440745 38.835176 
L 570.892856 39.466017 
L 573.071023 41.206924 
L 574.813557 42.307634 
L 579.024679 46.994773 
L 580.767213 48.297259 
L 583.235802 51.874716 
L 584.833124 54.305908 
L 586.575657 55.824709 
L 590.931991 64.031968 
L 592.674524 66.128516 
L 596.740436 74.405285 
L 598.482969 76.110149 
L 600.806347 80.629298 
L 602.548881 82.57533 
L 604.727047 88.046636 
L 606.614792 93.742321 
L 608.502537 97.211583 
L 610.971126 107.354361 
L 612.568448 114.471393 
L 614.456192 119.181128 
L 618.667315 138.926369 
L 620.409848 143.257702 
L 623.023649 154.067282 
L 624.47576 159.102111 
L 626.653927 162.582561 
L 628.39646 165.879274 
L 630.284205 166.62 
L 630.284205 166.62 
" clip-path="url(#p311b512296)" style="fill: none; stroke: #ff7f0e; stroke-width: 1.5; stroke-linecap: square"/>
   </g>
   <g id="line2d_41">
    <path d="M 485.218295 40.597428 
L 487.251251 41.780375 
L 489.574629 45.277829 
L 491.171951 47.054671 
L 493.785752 54.247533 
L 495.237863 58.262339 
L 497.270818 61.234083 
L 500.901096 70.596513 
L 501.33673 71.385071 
L 503.224474 73.677271 
L 506.854752 81.374342 
L 507.290386 82.029957 
L 509.17813 83.894248 
L 512.517986 89.410087 
L 513.244042 90.376809 
L 515.276997 91.944179 
L 517.164742 94.085942 
L 519.197698 95.271961 
L 522.827976 98.639368 
L 523.263609 98.902828 
L 525.151354 99.850812 
L 529.217265 103.29984 
L 531.250221 104.27389 
L 535.170921 107.172434 
L 537.203876 107.936672 
L 541.414999 110.406478 
L 543.157532 111.027114 
L 545.190488 112.129084 
L 547.223444 112.831787 
L 550.998933 114.881312 
L 553.757944 115.566626 
L 555.936111 116.154092 
L 557.0978 116.336318 
L 559.275967 116.211034 
L 561.308922 115.70171 
L 563.777511 114.901225 
L 564.9392 114.510681 
L 567.262578 112.914728 
L 569.005112 111.571887 
L 570.747645 110.67955 
L 572.925812 108.316231 
L 574.668346 107.086501 
L 577.427357 102.442043 
L 578.879468 99.977553 
L 580.622001 98.218318 
L 583.961857 90.872881 
L 584.687913 89.327711 
L 586.575657 87.175002 
L 590.78678 77.685145 
L 592.674524 75.348022 
L 596.450014 67.047113 
L 597.030858 66.370138 
L 598.62818 64.518624 
L 600.661136 60.468883 
L 602.548881 58.525135 
L 606.469581 51.059846 
L 608.647748 49.035357 
L 611.261548 45.312716 
L 612.568448 43.772402 
L 614.746615 42.382584 
L 617.360415 40.101781 
L 618.667315 39.202288 
L 620.700271 38.360535 
L 623.023649 36.917814 
L 624.766182 36.182562 
L 627.525193 35.629572 
L 630.284205 35.214775 
L 630.284205 35.214775 
" clip-path="url(#p311b512296)" style="fill: none; stroke: #2ca02c; stroke-width: 1.5; stroke-linecap: square"/>
   </g>
   <g id="line2d_42">
    <path d="M 485.218295 85.498999 
L 487.251251 86.712376 
L 489.429418 90.078158 
L 491.171951 91.832635 
L 494.511807 99.058802 
L 495.237863 100.371441 
L 499.158563 102.746374 
L 501.481941 102.713239 
L 503.224474 102.220288 
L 505.693063 100.342979 
L 507.435597 98.877621 
L 509.17813 97.871766 
L 513.534464 92.786277 
L 515.131786 91.651882 
L 517.164742 88.764895 
L 519.197698 87.185514 
L 522.537553 82.856889 
L 523.118398 82.241854 
L 525.151354 81.10165 
L 528.781632 77.752276 
L 529.217265 77.503792 
L 531.105009 76.655869 
L 535.02571 73.155637 
L 537.058665 72.126818 
L 541.414999 68.192347 
L 543.012321 67.289056 
L 545.045277 65.327174 
L 546.933022 64.351181 
L 549.837244 61.394641 
L 550.998933 60.425978 
L 553.1771 59.365805 
L 556.807378 56.822057 
L 559.130756 55.899968 
L 562.615823 53.861007 
L 563.196667 53.702946 
L 565.665256 53.297451 
L 567.262578 53.259075 
L 570.02159 53.638846 
L 570.892856 53.887513 
L 573.071023 55.073141 
L 574.813557 55.760035 
L 577.572568 58.261947 
L 578.879468 59.444364 
L 580.622001 60.397486 
L 583.671435 64.615609 
L 584.833124 66.1812 
L 586.720868 67.901721 
L 591.077202 75.143426 
L 592.674524 76.868739 
L 595.723958 83.202345 
L 596.740436 85.169709 
L 598.62818 87.366283 
L 600.661136 91.212198 
L 602.548881 93.269073 
L 605.453103 98.644267 
L 606.614792 100.479644 
L 608.502537 102.141476 
L 611.55197 106.985031 
L 612.568448 108.346723 
L 614.601404 109.798625 
L 616.634359 112.154213 
L 618.522104 113.526733 
L 620.700271 113.936422 
L 622.588015 114.582375 
L 626.799138 114.696006 
L 628.686882 114.465895 
L 630.284205 114.582184 
L 630.284205 114.582184 
" clip-path="url(#p311b512296)" style="fill: none; stroke: #d62728; stroke-width: 1.5; stroke-linecap: square"/>
   </g>
   <g id="line2d_43">
    <path d="M 485.218295 37.787895 
L 487.396462 38.300112 
L 490.155474 39.725152 
L 491.317163 40.325698 
L 493.930963 43.437818 
L 495.383074 45.251907 
L 497.270818 46.80416 
L 500.755885 52.778228 
L 501.33673 53.625126 
L 503.224474 55.494505 
L 507.290386 63.037229 
L 509.17813 64.931663 
L 513.098831 72.094157 
L 515.131786 73.984598 
L 517.164742 77.356726 
L 519.052486 78.945519 
L 522.973187 85.024938 
L 525.151354 86.703262 
L 529.072054 91.947618 
L 531.105009 93.393581 
L 534.880499 98.109866 
L 536.623032 99.147691 
L 537.058665 99.493427 
L 540.834154 103.497609 
L 542.286266 104.202502 
L 543.157532 104.738273 
L 545.045277 106.272205 
L 547.223444 107.207963 
L 549.546822 108.562539 
L 551.144144 109.205662 
L 554.919633 109.693096 
L 558.695122 109.239592 
L 559.7116 108.736981 
L 561.163711 107.889374 
L 563.196667 106.479287 
L 564.793989 105.609796 
L 567.553001 101.957407 
L 568.859901 100.159311 
L 570.747645 98.513763 
L 572.925812 94.811132 
L 574.668346 93.113558 
L 578.879468 84.942202 
L 580.622001 83.147963 
L 584.542702 75.491913 
L 585.268757 74.809981 
L 586.720868 73.411605 
L 589.334669 69.499793 
L 590.641569 67.864115 
L 593.110158 66.4712 
L 594.852691 65.329094 
L 596.740436 64.66424 
L 598.773391 64.750263 
L 602.548881 66.170161 
L 604.872259 68.886208 
L 606.760003 71.448874 
L 608.502537 73.058354 
L 611.842392 79.922873 
L 612.568448 81.316423 
L 614.456192 83.577938 
L 618.522104 92.90764 
L 620.409848 95.104572 
L 623.16886 100.587676 
L 624.47576 102.748253 
L 627.08956 104.727043 
L 628.39646 105.806423 
L 630.284205 106.154117 
L 630.284205 106.154117 
" clip-path="url(#p311b512296)" style="fill: none; stroke: #9467bd; stroke-width: 1.5; stroke-linecap: square"/>
   </g>
   <g id="line2d_44">
    <path d="M 485.218295 85.890605 
L 487.396462 86.797513 
L 489.574629 88.736417 
L 491.317163 89.94318 
L 495.383074 95.899903 
L 497.41603 97.363873 
L 500.02983 100.039066 
L 501.33673 101.089992 
L 505.402641 102.258898 
L 507.726019 102.162558 
L 509.17813 101.900797 
L 511.356297 100.449829 
L 513.389253 98.636758 
L 515.131786 97.501212 
L 517.309953 94.59434 
L 519.052486 93.120349 
L 523.263609 85.665523 
L 525.006142 83.979032 
L 528.926843 76.585934 
L 531.250221 74.345529 
L 534.590076 69.215886 
L 535.02571 68.678105 
L 537.203876 67.133503 
L 539.527254 64.830738 
L 541.124577 63.641612 
L 545.335699 62.45835 
L 547.513866 62.540474 
L 549.692033 62.949793 
L 553.467522 64.034392 
L 557.243011 66.016192 
L 558.985545 66.579621 
L 562.906245 68.827356 
L 565.374834 69.477816 
L 568.71469 70.622081 
L 573.361445 71.074216 
L 576.55609 70.989857 
L 579.16989 70.647073 
L 581.348057 70.256595 
L 583.816646 69.697384 
L 585.55918 69.488564 
L 588.899035 69.344332 
L 592.529313 69.941535 
L 594.997902 71.279789 
L 597.030858 72.599051 
L 598.62818 73.457413 
L 600.806347 75.804965 
L 602.548881 77.072477 
L 605.162681 81.393827 
L 606.614792 83.912835 
L 608.502537 85.909126 
L 612.85887 94.922103 
L 614.456192 96.856404 
L 617.941259 104.591355 
L 618.522104 105.64228 
L 620.409848 107.561001 
L 622.878437 111.836381 
L 624.47576 113.995213 
L 627.08956 115.473497 
L 628.39646 116.303504 
L 630.284205 116.545036 
L 630.284205 116.545036 
" clip-path="url(#p311b512296)" style="fill: none; stroke: #8c564b; stroke-width: 1.5; stroke-linecap: square"/>
   </g>
   <g id="line2d_45">
    <path d="M 485.218295 137.806191 
L 487.396462 137.222611 
L 490.010262 135.526449 
L 491.317163 134.685916 
L 494.076174 130.583387 
L 495.383074 128.627629 
L 497.270818 126.825612 
L 501.046308 119.946645 
L 501.481941 119.512005 
L 503.224474 117.933368 
L 506.56433 112.597704 
L 507.290386 111.670287 
L 509.17813 110.317018 
L 511.79193 107.274645 
L 513.244042 105.921728 
L 516.003053 104.731829 
L 517.309953 104.168652 
L 522.973187 103.266812 
L 526.748676 102.949413 
L 531.250221 102.342174 
L 533.283176 101.586698 
L 535.606554 100.391863 
L 537.058665 99.705273 
L 539.382043 97.146615 
L 541.124577 94.98115 
L 542.86711 93.6009 
L 545.045277 89.898185 
L 546.933022 87.916246 
L 549.692033 81.586482 
L 550.998933 78.577108 
L 552.886677 75.963625 
L 556.952589 65.076057 
L 558.840333 62.436454 
L 562.034978 54.758208 
L 562.906245 53.010715 
L 564.793989 50.976303 
L 567.262578 46.666962 
L 568.859901 44.537824 
L 571.618912 42.952164 
L 572.780601 42.258347 
L 574.813557 42.112126 
L 576.846512 42.728702 
L 579.16989 44.156372 
L 580.767213 45.024618 
L 583.09059 48.016447 
L 584.833124 50.551966 
L 586.575657 52.040848 
L 590.060724 58.722691 
L 590.78678 59.925224 
L 592.674524 61.924233 
L 595.288325 66.560885 
L 596.595225 68.547452 
L 598.773391 70.191886 
L 600.661136 72.163926 
L 603.420147 73.324872 
L 604.872259 73.935218 
L 606.760003 74.30271 
L 608.647748 74.118091 
L 610.680703 73.086251 
L 612.713659 71.603325 
L 614.456192 70.748092 
L 617.650837 66.887888 
L 618.522104 65.878507 
L 620.555059 64.498547 
L 624.330549 60.00934 
L 626.799138 58.651924 
L 628.39646 57.574912 
L 630.284205 57.370659 
L 630.284205 57.370659 
" clip-path="url(#p311b512296)" style="fill: none; stroke: #e377c2; stroke-width: 1.5; stroke-linecap: square"/>
   </g>
   <g id="patch_13">
    <path d="M 477.965 174.04 
L 477.965 10.8 
" style="fill: none; stroke: #000000; stroke-width: 0.8; stroke-linejoin: miter; stroke-linecap: square"/>
   </g>
   <g id="patch_14">
    <path d="M 637.5375 174.04 
L 637.5375 10.8 
" style="fill: none; stroke: #000000; stroke-width: 0.8; stroke-linejoin: miter; stroke-linecap: square"/>
   </g>
   <g id="patch_15">
    <path d="M 477.965 174.04 
L 637.5375 174.04 
" style="fill: none; stroke: #000000; stroke-width: 0.8; stroke-linejoin: miter; stroke-linecap: square"/>
   </g>
   <g id="patch_16">
    <path d="M 477.965 10.8 
L 637.5375 10.8 
" style="fill: none; stroke: #000000; stroke-width: 0.8; stroke-linejoin: miter; stroke-linecap: square"/>
   </g>
  </g>
  <g id="axes_4">
   <g id="patch_17">
    <path d="M 693.6275 174.04 
L 853.2 174.04 
L 853.2 10.8 
L 693.6275 10.8 
z
" style="fill: #ffffff"/>
   </g>
   <g id="matplotlib.axis_7">
    <g id="xtick_10">
     <g id="line2d_46">
      <g>
       <use xlink:href="#md5ef5a2aea" x="700.880795" y="174.04" style="stroke: #000000; stroke-width: 0.8"/>
      </g>
     </g>
     <g id="text_31">
      <!-- 0 -->
      <g transform="translate(697.699545 188.638438)scale(0.1 -0.1)">
       <use xlink:href="#DejaVuSans-30"/>
      </g>
     </g>
    </g>
    <g id="xtick_11">
     <g id="line2d_47">
      <g>
       <use xlink:href="#md5ef5a2aea" x="763.431624" y="174.04" style="stroke: #000000; stroke-width: 0.8"/>
      </g>
     </g>
     <g id="text_32">
      <!-- 1 -->
      <g transform="translate(760.250374 188.638438)scale(0.1 -0.1)">
       <use xlink:href="#DejaVuSans-31"/>
      </g>
     </g>
    </g>
    <g id="xtick_12">
     <g id="line2d_48">
      <g>
       <use xlink:href="#md5ef5a2aea" x="825.982452" y="174.04" style="stroke: #000000; stroke-width: 0.8"/>
      </g>
     </g>
     <g id="text_33">
      <!-- 2 -->
      <g transform="translate(822.801202 188.638438)scale(0.1 -0.1)">
       <use xlink:href="#DejaVuSans-32"/>
      </g>
     </g>
    </g>
    <g id="text_34">
     <!-- Time -->
     <g transform="translate(761.180156 202.316563)scale(0.1 -0.1)">
      <use xlink:href="#DejaVuSans-54"/>
      <use xlink:href="#DejaVuSans-69" x="57.958984"/>
      <use xlink:href="#DejaVuSans-6d" x="85.742188"/>
      <use xlink:href="#DejaVuSans-65" x="183.154297"/>
     </g>
    </g>
   </g>
   <g id="matplotlib.axis_8">
    <g id="ytick_16">
     <g id="line2d_49">
      <g>
       <use xlink:href="#md071d94b25" x="693.6275" y="164.984953" style="stroke: #000000; stroke-width: 0.8"/>
      </g>
     </g>
     <g id="text_35">
      <!-- −15 -->
      <g transform="translate(665.522812 168.784171)scale(0.1 -0.1)">
       <use xlink:href="#DejaVuSans-2212"/>
       <use xlink:href="#DejaVuSans-31" x="83.789062"/>
       <use xlink:href="#DejaVuSans-35" x="147.412109"/>
      </g>
     </g>
    </g>
    <g id="ytick_17">
     <g id="line2d_50">
      <g>
       <use xlink:href="#md071d94b25" x="693.6275" y="141.124409" style="stroke: #000000; stroke-width: 0.8"/>
      </g>
     </g>
     <g id="text_36">
      <!-- −10 -->
      <g transform="translate(665.522812 144.923628)scale(0.1 -0.1)">
       <use xlink:href="#DejaVuSans-2212"/>
       <use xlink:href="#DejaVuSans-31" x="83.789062"/>
       <use xlink:href="#DejaVuSans-30" x="147.412109"/>
      </g>
     </g>
    </g>
    <g id="ytick_18">
     <g id="line2d_51">
      <g>
       <use xlink:href="#md071d94b25" x="693.6275" y="117.263866" style="stroke: #000000; stroke-width: 0.8"/>
      </g>
     </g>
     <g id="text_37">
      <!-- −5 -->
      <g transform="translate(671.885312 121.063085)scale(0.1 -0.1)">
       <use xlink:href="#DejaVuSans-2212"/>
       <use xlink:href="#DejaVuSans-35" x="83.789062"/>
      </g>
     </g>
    </g>
    <g id="ytick_19">
     <g id="line2d_52">
      <g>
       <use xlink:href="#md071d94b25" x="693.6275" y="93.403323" style="stroke: #000000; stroke-width: 0.8"/>
      </g>
     </g>
     <g id="text_38">
      <!-- 0 -->
      <g transform="translate(680.265 97.202541)scale(0.1 -0.1)">
       <use xlink:href="#DejaVuSans-30"/>
      </g>
     </g>
    </g>
    <g id="ytick_20">
     <g id="line2d_53">
      <g>
       <use xlink:href="#md071d94b25" x="693.6275" y="69.542779" style="stroke: #000000; stroke-width: 0.8"/>
      </g>
     </g>
     <g id="text_39">
      <!-- 5 -->
      <g transform="translate(680.265 73.341998)scale(0.1 -0.1)">
       <use xlink:href="#DejaVuSans-35"/>
      </g>
     </g>
    </g>
    <g id="ytick_21">
     <g id="line2d_54">
      <g>
       <use xlink:href="#md071d94b25" x="693.6275" y="45.682236" style="stroke: #000000; stroke-width: 0.8"/>
      </g>
     </g>
     <g id="text_40">
      <!-- 10 -->
      <g transform="translate(673.9025 49.481455)scale(0.1 -0.1)">
       <use xlink:href="#DejaVuSans-31"/>
       <use xlink:href="#DejaVuSans-30" x="63.623047"/>
      </g>
     </g>
    </g>
    <g id="ytick_22">
     <g id="line2d_55">
      <g>
       <use xlink:href="#md071d94b25" x="693.6275" y="21.821693" style="stroke: #000000; stroke-width: 0.8"/>
      </g>
     </g>
     <g id="text_41">
      <!-- 15 -->
      <g transform="translate(673.9025 25.620911)scale(0.1 -0.1)">
       <use xlink:href="#DejaVuSans-31"/>
       <use xlink:href="#DejaVuSans-35" x="63.623047"/>
      </g>
     </g>
    </g>
    <g id="text_42">
     <!-- Jerk -->
     <g transform="translate(659.443125 101.922344)rotate(-90)scale(0.1 -0.1)">
      <defs>
       <path id="DejaVuSans-4a" d="M 628 4666 
L 1259 4666 
L 1259 325 
Q 1259 -519 939 -900 
Q 619 -1281 -91 -1281 
L -331 -1281 
L -331 -750 
L -134 -750 
Q 284 -750 456 -515 
Q 628 -281 628 325 
L 628 4666 
z
" transform="scale(0.015625)"/>
       <path id="DejaVuSans-6b" d="M 581 4863 
L 1159 4863 
L 1159 1991 
L 2875 3500 
L 3609 3500 
L 1753 1863 
L 3688 0 
L 2938 0 
L 1159 1709 
L 1159 0 
L 581 0 
L 581 4863 
z
" transform="scale(0.015625)"/>
      </defs>
      <use xlink:href="#DejaVuSans-4a"/>
      <use xlink:href="#DejaVuSans-65" x="29.492188"/>
      <use xlink:href="#DejaVuSans-72" x="91.015625"/>
      <use xlink:href="#DejaVuSans-6b" x="132.128906"/>
     </g>
    </g>
   </g>
   <g id="line2d_56">
    <path d="M 700.880795 91.88904 
L 702.76854 91.88904 
L 702.913751 90.559357 
L 704.801496 90.559357 
L 704.946707 91.876257 
L 706.834451 91.876257 
L 706.979663 90.771742 
L 708.722196 90.771742 
L 708.867407 91.476655 
L 710.755152 91.476655 
L 710.900363 92.750528 
L 712.788107 92.750528 
L 713.07853 92.921463 
L 714.675852 92.921463 
L 714.821063 92.282411 
L 716.708808 92.282411 
L 716.854019 93.013991 
L 718.741763 93.013991 
L 718.886974 93.836776 
L 720.629508 93.836776 
L 720.774719 94.631712 
L 724.695419 94.570531 
L 724.84063 96.63979 
L 726.583164 96.63979 
L 726.728375 96.43185 
L 728.616119 96.43185 
L 728.761331 94.529622 
L 730.649075 94.529622 
L 730.794286 93.93305 
L 732.53682 93.93305 
L 732.682031 93.352425 
L 734.569775 93.352425 
L 734.714986 91.754957 
L 736.602731 91.754957 
L 736.747942 89.732612 
L 738.635687 89.732612 
L 738.780898 90.756499 
L 740.523431 90.756499 
L 740.668642 84.399298 
L 742.556387 84.399298 
L 742.701598 79.357593 
L 744.589343 79.357593 
L 744.734554 83.705531 
L 746.477087 83.705531 
L 746.622298 68.70024 
L 748.510043 68.70024 
L 748.655254 64.491804 
L 750.542999 64.491804 
L 750.68821 76.788239 
L 752.430743 76.788239 
L 752.575954 56.480906 
L 754.463699 56.480906 
L 754.60891 53.013164 
L 756.496654 53.013164 
L 756.641866 71.089054 
L 758.384399 71.089054 
L 758.52961 44.88882 
L 760.417355 44.88882 
L 760.562566 67.465816 
L 762.45031 67.465816 
L 762.595522 40.024077 
L 764.338055 40.024077 
L 764.483266 40.327269 
L 766.371011 40.327269 
L 766.516222 66.966397 
L 768.403966 66.966397 
L 768.549177 41.956339 
L 770.291711 41.956339 
L 770.436922 44.493094 
L 772.324667 44.493094 
L 772.469878 69.897298 
L 774.357622 69.897298 
L 774.502833 49.657236 
L 776.390578 49.657236 
L 776.535789 54.391295 
L 778.278323 54.391295 
L 778.423534 77.2809 
L 780.311278 77.2809 
L 780.456489 68.739716 
L 782.344234 68.739716 
L 782.489445 75.278008 
L 784.231978 75.278008 
L 784.37719 87.871507 
L 786.264934 87.871507 
L 786.410145 88.819184 
L 788.29789 88.819184 
L 788.443101 94.118379 
L 790.185634 94.118379 
L 790.330846 100.941982 
L 792.21859 100.941982 
L 792.363801 107.634409 
L 794.251546 107.634409 
L 794.396757 104.491788 
L 796.13929 104.491788 
L 796.284501 122.847973 
L 798.172246 122.847973 
L 798.317457 127.909838 
L 800.205202 127.909838 
L 800.350413 113.727295 
L 802.092946 113.727295 
L 802.238157 137.98576 
L 804.125902 137.98576 
L 804.271113 140.761342 
L 806.158858 140.761342 
L 806.304069 118.74032 
L 808.046602 118.74032 
L 808.191813 147.097819 
L 810.079558 147.097819 
L 810.224769 150.414717 
L 812.112514 150.414717 
L 812.257725 122.211541 
L 814.145469 122.211541 
L 814.29068 151.228712 
L 816.033214 151.228712 
L 816.178425 122.233773 
L 818.066169 122.233773 
L 818.211381 148.820105 
L 820.099125 148.820105 
L 820.244336 146.291691 
L 821.98687 146.291691 
L 822.132081 119.00973 
L 824.019825 119.00973 
L 824.165037 143.17335 
L 826.052781 143.17335 
L 826.197992 141.160946 
L 827.940526 141.160946 
L 828.085737 115.037911 
L 829.973481 115.037911 
L 830.118692 133.368558 
L 832.006437 133.368558 
L 832.151648 128.502585 
L 833.894182 128.502585 
L 834.039393 108.007568 
L 835.927137 108.007568 
L 836.072348 117.517479 
L 837.960093 117.517479 
L 838.105304 113.529149 
L 839.847837 113.529149 
L 839.993049 100.683796 
L 841.880793 100.683796 
L 842.026004 104.122935 
L 843.913749 104.122935 
L 844.05896 94.238253 
L 845.946705 94.238253 
L 845.946705 94.238253 
" clip-path="url(#pedd04725b1)" style="fill: none; stroke: #1f77b4; stroke-width: 1.5; stroke-linecap: square"/>
   </g>
   <g id="line2d_57">
    <path d="M 700.880795 75.462123 
L 702.76854 75.462123 
L 702.913751 45.475418 
L 704.801496 45.475418 
L 704.946707 61.104214 
L 706.834451 61.104214 
L 706.979663 18.22 
L 708.722196 18.22 
L 708.867407 20.848777 
L 710.755152 20.848777 
L 710.900363 60.892466 
L 712.788107 60.892466 
L 712.933318 38.399328 
L 714.675852 38.399328 
L 714.821063 47.048821 
L 716.708808 47.048821 
L 716.854019 74.103142 
L 718.741763 74.103142 
L 718.886974 60.666918 
L 720.629508 60.666918 
L 720.774719 66.551324 
L 722.662463 66.551324 
L 722.807675 81.814279 
L 724.695419 81.814279 
L 724.84063 72.58779 
L 726.583164 72.58779 
L 726.728375 75.060809 
L 728.616119 75.060809 
L 728.761331 84.291901 
L 730.649075 84.291901 
L 730.794286 79.388972 
L 732.53682 79.388972 
L 732.682031 86.808125 
L 734.569775 86.808125 
L 734.714986 79.97051 
L 736.602731 79.97051 
L 736.747942 77.887952 
L 738.635687 77.887952 
L 738.780898 83.678174 
L 740.523431 83.678174 
L 740.668642 70.763464 
L 742.556387 70.763464 
L 742.701598 68.130841 
L 744.589343 68.130841 
L 744.734554 78.560759 
L 746.477087 78.560759 
L 746.622298 63.905988 
L 750.542999 63.964298 
L 750.68821 77.777781 
L 752.430743 77.777781 
L 752.575954 61.708395 
L 756.496654 61.776933 
L 756.641866 78.797438 
L 758.384399 78.797438 
L 758.52961 66.200053 
L 760.417355 66.200053 
L 760.562566 81.20369 
L 762.45031 81.20369 
L 762.595522 71.640214 
L 764.338055 71.640214 
L 764.483266 74.035627 
L 766.371011 74.035627 
L 766.516222 84.974785 
L 768.403966 84.974785 
L 768.549177 77.077423 
L 770.291711 77.077423 
L 770.436922 82.959091 
L 772.324667 82.959091 
L 772.469878 91.285123 
L 774.357622 91.285123 
L 774.502833 92.818338 
L 776.390578 92.818338 
L 776.535789 97.108811 
L 778.278323 97.108811 
L 778.423534 98.076386 
L 780.311278 98.076386 
L 780.456489 103.283184 
L 782.344234 103.283184 
L 782.489445 104.060953 
L 784.231978 104.060953 
L 784.37719 98.698079 
L 786.264934 98.698079 
L 786.410145 106.001109 
L 788.29789 106.001109 
L 788.443101 101.931135 
L 790.185634 101.931135 
L 790.330846 110.228913 
L 792.21859 110.228913 
L 792.363801 110.840309 
L 794.251546 110.840309 
L 794.396757 103.493025 
L 796.13929 103.493025 
L 796.284501 113.805666 
L 798.172246 113.805666 
L 798.317457 117.755415 
L 800.205202 117.755415 
L 800.350413 106.205461 
L 802.092946 106.205461 
L 802.238157 121.781502 
L 804.125902 121.781502 
L 804.271113 122.977548 
L 806.158858 122.977548 
L 806.304069 110.001593 
L 808.046602 110.001593 
L 808.191813 124.165335 
L 810.079558 124.165335 
L 810.224769 124.782645 
L 812.112514 124.782645 
L 812.257725 107.873608 
L 814.145469 107.873608 
L 814.29068 124.414808 
L 816.033214 124.414808 
L 816.178425 108.926108 
L 818.066169 108.926108 
L 818.211381 129.185015 
L 820.099125 129.185015 
L 820.244336 139.970425 
L 821.98687 139.970425 
L 822.132081 119.254005 
L 824.019825 119.254005 
L 824.165037 151.620164 
L 826.052781 151.620164 
L 826.197992 162.887923 
L 827.940526 162.887923 
L 828.085737 129.008565 
L 829.973481 129.008565 
L 830.118692 164.103954 
L 832.006437 164.103954 
L 832.151648 166.62 
L 833.894182 166.62 
L 834.039393 129.185686 
L 835.927137 129.185686 
L 836.072348 156.891392 
L 837.960093 156.891392 
L 838.105304 148.070022 
L 839.847837 148.070022 
L 839.993049 115.968117 
L 841.880793 115.968117 
L 842.026004 122.727139 
L 843.913749 122.727139 
L 844.05896 99.206726 
L 845.946705 99.206726 
L 845.946705 99.206726 
" clip-path="url(#pedd04725b1)" style="fill: none; stroke: #ff7f0e; stroke-width: 1.5; stroke-linecap: square"/>
   </g>
   <g id="line2d_58">
    <path d="M 700.880795 101.668644 
L 702.76854 101.668644 
L 702.913751 116.810452 
L 704.801496 116.810452 
L 704.946707 109.85555 
L 706.834451 109.85555 
L 706.979663 133.752021 
L 708.722196 133.752021 
L 708.867407 135.544912 
L 710.755152 135.544912 
L 710.900363 113.817176 
L 712.788107 113.817176 
L 712.933318 132.778441 
L 714.675852 132.778441 
L 714.821063 130.25513 
L 716.708808 130.25513 
L 716.854019 110.3679 
L 718.741763 110.3679 
L 718.886974 125.835544 
L 720.629508 125.835544 
L 720.774719 123.626168 
L 722.662463 123.626168 
L 722.807675 107.325324 
L 724.695419 107.325324 
L 724.84063 118.71746 
L 726.583164 118.71746 
L 726.728375 116.694124 
L 728.616119 116.694124 
L 728.761331 103.942688 
L 730.649075 103.942688 
L 730.794286 110.946224 
L 732.53682 110.946224 
L 732.682031 101.422103 
L 734.569775 101.422103 
L 734.714986 107.715772 
L 736.602731 107.715772 
L 736.747942 106.545007 
L 738.635687 106.545007 
L 738.780898 100.205998 
L 740.523431 100.205998 
L 740.668642 106.444781 
L 744.589343 106.389417 
L 744.734554 99.655453 
L 746.477087 99.655453 
L 746.622298 104.853939 
L 748.510043 104.853939 
L 748.800465 104.733048 
L 750.542999 104.733048 
L 750.68821 98.30501 
L 752.430743 98.30501 
L 752.575954 102.509508 
L 754.463699 102.509508 
L 754.60891 102.880122 
L 756.496654 102.880122 
L 756.641866 97.905212 
L 758.384399 97.905212 
L 758.52961 102.205776 
L 760.417355 102.205776 
L 760.562566 97.72104 
L 762.45031 97.72104 
L 762.595522 101.740921 
L 766.371011 101.68916 
L 766.516222 96.500958 
L 768.403966 96.500958 
L 768.549177 98.131591 
L 770.291711 98.131591 
L 770.436922 96.75012 
L 772.324667 96.75012 
L 772.469878 93.243417 
L 774.357622 93.243417 
L 774.502833 90.410429 
L 776.390578 90.410429 
L 776.535789 87.899468 
L 778.278323 87.899468 
L 778.423534 89.550845 
L 780.311278 89.550845 
L 780.456489 83.961827 
L 782.344234 83.961827 
L 782.489445 81.029917 
L 784.231978 81.029917 
L 784.37719 86.274348 
L 786.264934 86.274348 
L 786.410145 76.531846 
L 788.29789 76.531846 
L 788.443101 83.1684 
L 790.185634 83.1684 
L 790.330846 69.517483 
L 792.21859 69.517483 
L 792.363801 66.019454 
L 794.251546 66.019454 
L 794.396757 78.642986 
L 796.13929 78.642986 
L 796.284501 61.957965 
L 798.172246 61.957965 
L 798.317457 59.319558 
L 800.205202 59.319558 
L 800.350413 76.62798 
L 802.092946 76.62798 
L 802.238157 59.432777 
L 804.125902 59.432777 
L 804.271113 58.689003 
L 806.158858 58.689003 
L 806.304069 76.367601 
L 808.046602 76.367601 
L 808.191813 60.015915 
L 810.079558 60.015915 
L 810.224769 61.712297 
L 812.112514 61.712297 
L 812.257725 77.578266 
L 814.145469 77.578266 
L 814.29068 62.452426 
L 816.033214 62.452426 
L 816.178425 78.810207 
L 818.066169 78.810207 
L 818.211381 64.781332 
L 820.099125 64.781332 
L 820.244336 65.436803 
L 821.98687 65.436803 
L 822.132081 80.617863 
L 824.019825 80.617863 
L 824.165037 71.221841 
L 826.052781 71.221841 
L 826.197992 74.659725 
L 827.940526 74.659725 
L 828.085737 84.80134 
L 829.973481 84.80134 
L 830.118692 79.749558 
L 832.006437 79.749558 
L 832.151648 81.73116 
L 833.894182 81.73116 
L 834.039393 88.09946 
L 835.927137 88.09946 
L 836.072348 83.364821 
L 837.960093 83.364821 
L 838.105304 86.249461 
L 839.847837 86.249461 
L 839.993049 89.837161 
L 841.880793 89.837161 
L 842.026004 91.203257 
L 845.946705 91.170623 
L 845.946705 91.170623 
" clip-path="url(#pedd04725b1)" style="fill: none; stroke: #2ca02c; stroke-width: 1.5; stroke-linecap: square"/>
   </g>
   <g id="line2d_59">
    <path d="M 700.880795 101.8855 
L 702.76854 101.8855 
L 702.913751 117.228234 
L 704.801496 117.228234 
L 704.946707 108.294697 
L 706.834451 108.294697 
L 706.979663 127.496413 
L 708.722196 127.496413 
L 708.867407 122.41111 
L 710.755152 122.41111 
L 710.900363 102.693419 
L 712.788107 102.693419 
L 712.933318 102.172865 
L 714.675852 102.172865 
L 714.821063 93.847138 
L 716.708808 93.847138 
L 716.854019 89.690906 
L 718.741763 89.690906 
L 718.886974 82.918747 
L 720.629508 82.918747 
L 720.774719 79.794115 
L 722.662463 79.794115 
L 722.807675 85.496744 
L 724.695419 85.496744 
L 724.84063 75.802941 
L 726.583164 75.802941 
L 726.728375 74.568465 
L 728.616119 74.568465 
L 728.761331 83.700803 
L 730.649075 83.700803 
L 730.794286 71.563025 
L 732.53682 71.563025 
L 732.682031 82.819988 
L 734.569775 82.819988 
L 734.714986 73.458231 
L 736.602731 73.458231 
L 736.747942 75.131808 
L 738.635687 75.131808 
L 738.780898 85.720548 
L 740.523431 85.720548 
L 740.668642 79.132978 
L 742.556387 79.132978 
L 742.701598 80.370973 
L 744.589343 80.370973 
L 744.734554 87.509685 
L 746.477087 87.509685 
L 746.622298 79.692178 
L 748.510043 79.692178 
L 748.655254 80.256397 
L 750.542999 80.256397 
L 750.68821 86.507313 
L 752.430743 86.507313 
L 752.575954 79.590941 
L 754.463699 79.590941 
L 754.60891 78.849035 
L 756.496654 78.849035 
L 756.641866 85.81599 
L 758.384399 85.81599 
L 758.52961 78.303991 
L 760.417355 78.303991 
L 760.562566 86.271701 
L 762.45031 86.271701 
L 762.595522 77.543665 
L 764.338055 77.543665 
L 764.483266 79.811952 
L 766.371011 79.811952 
L 766.516222 87.019546 
L 768.403966 87.019546 
L 768.549177 82.512814 
L 770.291711 82.512814 
L 770.436922 83.333855 
L 772.324667 83.333855 
L 772.469878 88.182339 
L 774.357622 88.182339 
L 774.502833 84.276232 
L 776.390578 84.276232 
L 776.535789 85.153349 
L 778.278323 85.153349 
L 778.423534 90.2941 
L 780.311278 90.2941 
L 780.456489 92.044354 
L 782.344234 92.044354 
L 782.489445 94.862232 
L 784.231978 94.862232 
L 784.37719 96.049419 
L 786.264934 96.049419 
L 786.410145 102.154618 
L 788.29789 102.154618 
L 788.443101 98.483252 
L 790.185634 98.483252 
L 790.330846 106.124675 
L 792.21859 106.124675 
L 792.363801 108.145021 
L 794.251546 108.145021 
L 794.396757 101.373677 
L 796.13929 101.373677 
L 796.284501 112.995938 
L 798.172246 112.995938 
L 798.317457 115.439783 
L 800.205202 115.439783 
L 800.350413 105.839387 
L 802.092946 105.839387 
L 802.238157 118.538797 
L 804.125902 118.538797 
L 804.271113 120.183779 
L 806.158858 120.183779 
L 806.304069 107.995567 
L 808.046602 107.995567 
L 808.191813 123.001503 
L 810.079558 123.001503 
L 810.224769 125.82628 
L 812.112514 125.82628 
L 812.257725 109.656002 
L 814.145469 109.656002 
L 814.29068 122.629199 
L 816.033214 122.629199 
L 816.178425 108.932584 
L 818.066169 108.932584 
L 818.211381 121.86188 
L 820.099125 121.86188 
L 820.244336 118.719055 
L 821.98687 118.719055 
L 822.132081 105.932152 
L 824.019825 105.932152 
L 824.165037 117.884956 
L 826.052781 117.884956 
L 826.197992 115.236339 
L 827.940526 115.236339 
L 828.085737 103.092182 
L 829.973481 103.092182 
L 830.118692 111.36193 
L 832.006437 111.36193 
L 832.151648 104.953638 
L 833.894182 104.953638 
L 834.039393 95.616391 
L 835.927137 95.616391 
L 836.072348 99.135039 
L 837.960093 99.135039 
L 838.105304 94.122248 
L 839.847837 94.122248 
L 840.13826 94.250017 
L 841.880793 94.250017 
L 842.026004 90.850927 
L 843.913749 90.850927 
L 844.05896 94.480067 
L 845.946705 94.480067 
L 845.946705 94.480067 
" clip-path="url(#pedd04725b1)" style="fill: none; stroke: #d62728; stroke-width: 1.5; stroke-linecap: square"/>
   </g>
   <g id="line2d_60">
    <path d="M 700.880795 96.419378 
L 702.76854 96.419378 
L 702.913751 101.688591 
L 704.801496 101.688591 
L 704.946707 99.836843 
L 706.834451 99.836843 
L 706.979663 110.097576 
L 708.722196 110.097576 
L 708.867407 113.230165 
L 710.755152 113.230165 
L 710.900363 104.66036 
L 712.788107 104.66036 
L 712.933318 117.865675 
L 714.675852 117.865675 
L 714.821063 119.773019 
L 716.708808 119.773019 
L 716.854019 107.132394 
L 718.741763 107.132394 
L 718.886974 121.399166 
L 720.629508 121.399166 
L 720.774719 121.751246 
L 722.662463 121.751246 
L 722.807675 107.43888 
L 724.695419 107.43888 
L 724.84063 120.872343 
L 726.583164 120.872343 
L 726.728375 120.415648 
L 728.616119 120.415648 
L 728.761331 106.512469 
L 730.649075 106.512469 
L 730.794286 118.931684 
L 732.53682 118.931684 
L 732.682031 105.541997 
L 734.569775 105.541997 
L 734.714986 116.824731 
L 736.602731 116.824731 
L 736.747942 115.860765 
L 738.635687 115.860765 
L 738.780898 103.93688 
L 740.523431 103.93688 
L 740.668642 113.752271 
L 742.556387 113.752271 
L 742.701598 113.360827 
L 744.589343 113.360827 
L 744.734554 103.105014 
L 746.477087 103.105014 
L 746.622298 112.290344 
L 748.510043 112.290344 
L 748.655254 111.501295 
L 750.542999 111.501295 
L 750.68821 102.115585 
L 752.430743 102.115585 
L 752.575954 109.731978 
L 754.463699 109.731978 
L 754.60891 108.494666 
L 756.496654 108.494666 
L 756.641866 100.439325 
L 758.384399 100.439325 
L 758.52961 106.220012 
L 760.417355 106.220012 
L 760.562566 99.069245 
L 762.45031 99.069245 
L 762.595522 102.798634 
L 764.338055 102.798634 
L 764.483266 100.366796 
L 766.371011 100.366796 
L 766.516222 95.738591 
L 768.403966 95.738591 
L 768.549177 95.209239 
L 770.291711 95.209239 
L 770.436922 92.01375 
L 772.324667 92.01375 
L 772.469878 91.259672 
L 774.357622 91.259672 
L 774.502833 85.824291 
L 776.390578 85.824291 
L 776.535789 82.2786 
L 778.278323 82.2786 
L 778.423534 85.967036 
L 780.311278 85.967036 
L 780.456489 74.751457 
L 782.344234 74.751457 
L 782.489445 71.774564 
L 784.231978 71.774564 
L 784.37719 81.118255 
L 786.264934 81.118255 
L 786.410145 66.70805 
L 788.29789 66.70805 
L 788.443101 79.219872 
L 790.185634 79.219872 
L 790.330846 64.061272 
L 792.21859 64.061272 
L 792.363801 63.539535 
L 794.251546 63.539535 
L 794.396757 78.325418 
L 796.13929 78.325418 
L 796.284501 63.632316 
L 798.172246 63.632316 
L 798.317457 65.420865 
L 800.205202 65.420865 
L 800.350413 80.243092 
L 802.092946 80.243092 
L 802.238157 70.112267 
L 804.125902 70.112267 
L 804.271113 73.978519 
L 806.158858 73.978519 
L 806.304069 85.753829 
L 808.046602 85.753829 
L 808.191813 82.806564 
L 810.079558 82.806564 
L 810.224769 87.459505 
L 812.112514 87.459505 
L 812.257725 93.270966 
L 814.145469 93.270966 
L 814.29068 98.689625 
L 818.066169 98.737937 
L 818.211381 109.748384 
L 820.099125 109.748384 
L 820.244336 114.952408 
L 821.98687 114.952408 
L 822.132081 106.333843 
L 824.019825 106.333843 
L 824.165037 122.734655 
L 826.052781 122.734655 
L 826.197992 125.226454 
L 827.940526 125.226454 
L 828.085737 110.471713 
L 829.973481 110.471713 
L 830.118692 128.096433 
L 833.894182 128.004507 
L 834.039393 110.159377 
L 835.927137 110.159377 
L 836.072348 124.129623 
L 837.960093 124.129623 
L 838.105304 119.715469 
L 839.847837 119.715469 
L 839.993049 103.834814 
L 841.880793 103.834814 
L 842.026004 106.400312 
L 843.913749 106.400312 
L 844.05896 96.127421 
L 845.946705 96.127421 
L 845.946705 96.127421 
" clip-path="url(#pedd04725b1)" style="fill: none; stroke: #9467bd; stroke-width: 1.5; stroke-linecap: square"/>
   </g>
   <g id="line2d_61">
    <path d="M 700.880795 98.807367 
L 702.76854 98.807367 
L 702.913751 107.407282 
L 704.801496 107.407282 
L 704.946707 102.624794 
L 706.834451 102.624794 
L 706.979663 115.588357 
L 708.722196 115.588357 
L 708.867407 115.955456 
L 710.755152 115.955456 
L 710.900363 103.208727 
L 712.788107 103.208727 
L 712.933318 109.467803 
L 714.675852 109.467803 
L 714.821063 106.778631 
L 716.708808 106.778631 
L 716.854019 98.006025 
L 720.629508 98.016726 
L 720.774719 93.37171 
L 722.662463 93.37171 
L 722.807675 91.287708 
L 724.695419 91.287708 
L 724.84063 84.237885 
L 726.583164 84.237885 
L 726.728375 79.322538 
L 728.616119 79.322538 
L 728.761331 84.493325 
L 730.649075 84.493325 
L 730.794286 72.458869 
L 732.53682 72.458869 
L 732.682031 81.325103 
L 734.569775 81.325103 
L 734.714986 66.75362 
L 736.602731 66.75362 
L 736.747942 65.901225 
L 738.635687 65.901225 
L 738.780898 79.450247 
L 740.523431 79.450247 
L 740.668642 65.065608 
L 742.556387 65.065608 
L 742.701598 65.955595 
L 744.589343 65.955595 
L 744.734554 80.742941 
L 746.477087 80.742941 
L 746.622298 69.788419 
L 748.510043 69.788419 
L 748.655254 71.577066 
L 750.542999 71.577066 
L 750.68821 83.787348 
L 752.430743 83.787348 
L 752.575954 77.819233 
L 754.463699 77.819233 
L 754.60891 81.104198 
L 756.496654 81.104198 
L 756.641866 88.884933 
L 758.384399 88.884933 
L 758.52961 88.544578 
L 760.417355 88.544578 
L 760.562566 93.280501 
L 762.45031 93.280501 
L 762.595522 95.421577 
L 764.338055 95.421577 
L 764.483266 97.298536 
L 766.371011 97.298536 
L 766.516222 96.49536 
L 768.403966 96.49536 
L 768.549177 101.581791 
L 770.291711 101.581791 
L 770.436922 101.781155 
L 772.324667 101.781155 
L 772.469878 97.537258 
L 774.357622 97.537258 
L 774.502833 102.230427 
L 776.390578 102.230427 
L 776.681 102.062556 
L 778.278323 102.062556 
L 778.423534 96.717508 
L 780.311278 96.717508 
L 780.456489 98.870431 
L 782.344234 98.870431 
L 782.489445 98.261145 
L 784.231978 98.261145 
L 784.37719 95.176904 
L 786.264934 95.176904 
L 786.410145 95.001687 
L 788.29789 95.001687 
L 788.443101 93.468894 
L 790.185634 93.468894 
L 790.330846 92.707427 
L 792.21859 92.707427 
L 792.363801 91.425701 
L 796.13929 91.434738 
L 796.284501 89.435611 
L 798.172246 89.435611 
L 798.317457 90.679285 
L 800.205202 90.679285 
L 800.350413 92.370234 
L 804.125902 92.474686 
L 804.271113 95.576103 
L 806.158858 95.576103 
L 806.304069 96.046314 
L 808.046602 96.046314 
L 808.191813 100.821198 
L 810.079558 100.821198 
L 810.224769 103.885277 
L 812.112514 103.885277 
L 812.257725 100.488251 
L 814.145469 100.488251 
L 814.29068 110.386445 
L 816.033214 110.386445 
L 816.178425 103.506597 
L 818.066169 103.506597 
L 818.211381 116.84848 
L 820.099125 116.84848 
L 820.244336 120.544198 
L 821.98687 120.544198 
L 822.132081 108.369216 
L 824.019825 108.369216 
L 824.165037 124.783162 
L 826.052781 124.783162 
L 826.197992 126.356619 
L 827.940526 126.356619 
L 828.085737 110.581178 
L 829.973481 110.581178 
L 830.118692 127.382758 
L 832.006437 127.382758 
L 832.151648 124.817728 
L 833.894182 124.817728 
L 834.039393 108.037531 
L 835.927137 108.037531 
L 836.072348 120.236304 
L 837.960093 120.236304 
L 838.105304 114.699605 
L 839.847837 114.699605 
L 839.993049 101.068205 
L 841.880793 101.068205 
L 842.026004 103.414241 
L 843.913749 103.414241 
L 844.05896 95.295666 
L 845.946705 95.295666 
L 845.946705 95.295666 
" clip-path="url(#pedd04725b1)" style="fill: none; stroke: #8c564b; stroke-width: 1.5; stroke-linecap: square"/>
   </g>
   <g id="line2d_62">
    <path d="M 700.880795 90.044868 
L 702.76854 90.044868 
L 702.913751 83.154153 
L 704.801496 83.154153 
L 704.946707 85.237232 
L 706.834451 85.237232 
L 706.979663 72.419941 
L 708.722196 72.419941 
L 708.867407 69.358517 
L 710.755152 69.358517 
L 710.900363 80.280513 
L 712.788107 80.280513 
L 712.933318 65.745547 
L 714.675852 65.745547 
L 714.821063 67.144018 
L 716.708808 67.144018 
L 716.854019 80.835139 
L 718.741763 80.835139 
L 718.886974 68.905381 
L 720.629508 68.905381 
L 720.774719 70.876284 
L 722.662463 70.876284 
L 722.807675 83.276881 
L 724.695419 83.276881 
L 724.84063 75.350502 
L 726.583164 75.350502 
L 726.728375 78.309709 
L 728.616119 78.309709 
L 728.761331 87.621931 
L 730.649075 87.621931 
L 730.794286 85.934933 
L 732.53682 85.934933 
L 732.682031 90.763217 
L 734.569775 90.763217 
L 734.714986 90.269092 
L 736.602731 90.269092 
L 736.747942 92.070504 
L 738.635687 92.070504 
L 738.780898 92.59316 
L 740.523431 92.59316 
L 740.668642 91.678118 
L 742.556387 91.678118 
L 742.701598 91.345666 
L 744.589343 91.345666 
L 744.734554 91.912535 
L 746.477087 91.912535 
L 746.622298 88.550945 
L 748.510043 88.550945 
L 748.655254 85.032425 
L 750.542999 85.032425 
L 750.68821 87.541972 
L 752.430743 87.541972 
L 752.575954 78.046142 
L 754.463699 78.046142 
L 754.60891 73.800507 
L 756.496654 73.800507 
L 756.641866 81.856523 
L 758.384399 81.856523 
L 758.52961 67.116316 
L 760.417355 67.116316 
L 760.562566 78.945859 
L 762.45031 78.945859 
L 762.595522 60.804192 
L 764.338055 60.804192 
L 764.483266 56.642212 
L 766.371011 56.642212 
L 766.516222 74.062044 
L 768.403966 74.062044 
L 768.549177 53.353648 
L 770.291711 53.353648 
L 770.436922 52.280202 
L 772.324667 52.280202 
L 772.469878 73.587482 
L 774.357622 73.587482 
L 774.502833 56.490019 
L 776.390578 56.490019 
L 776.535789 59.839101 
L 778.278323 59.839101 
L 778.423534 78.011629 
L 780.311278 78.011629 
L 780.456489 66.204909 
L 782.344234 66.204909 
L 782.489445 72.192729 
L 784.231978 72.192729 
L 784.37719 85.543719 
L 786.264934 85.543719 
L 786.410145 83.685165 
L 788.29789 83.685165 
L 788.443101 91.887601 
L 790.185634 91.887601 
L 790.330846 97.258379 
L 792.21859 97.258379 
L 792.363801 103.171102 
L 794.251546 103.171102 
L 794.396757 100.315751 
L 796.13929 100.315751 
L 796.284501 111.350865 
L 798.172246 111.350865 
L 798.317457 116.458617 
L 800.205202 116.458617 
L 800.350413 105.955428 
L 802.092946 105.955428 
L 802.238157 120.847324 
L 804.125902 120.847324 
L 804.271113 122.956544 
L 806.158858 122.956544 
L 806.304069 108.070441 
L 808.046602 108.070441 
L 808.191813 120.825706 
L 810.079558 120.825706 
L 810.224769 116.818791 
L 812.112514 116.818791 
L 812.257725 103.765907 
L 814.145469 103.765907 
L 814.29068 109.917142 
L 816.033214 109.917142 
L 816.178425 99.066103 
L 818.066169 99.066103 
L 818.211381 100.68266 
L 820.099125 100.68266 
L 820.244336 97.022796 
L 821.98687 97.022796 
L 822.132081 92.686312 
L 824.019825 92.686312 
L 824.165037 86.505718 
L 826.052781 86.505718 
L 826.197992 81.894112 
L 827.940526 81.894112 
L 828.085737 86.556145 
L 829.973481 86.556145 
L 830.118692 76.250819 
L 832.006437 76.250819 
L 832.151648 74.452729 
L 833.894182 74.452729 
L 834.039393 84.272901 
L 835.927137 84.272901 
L 836.072348 75.340615 
L 837.960093 75.340615 
L 838.105304 76.204366 
L 839.847837 76.204366 
L 839.993049 85.862941 
L 841.880793 85.862941 
L 842.026004 82.875082 
L 843.913749 82.875082 
L 844.05896 91.803052 
L 845.946705 91.803052 
L 845.946705 91.803052 
" clip-path="url(#pedd04725b1)" style="fill: none; stroke: #e377c2; stroke-width: 1.5; stroke-linecap: square"/>
   </g>
   <g id="patch_18">
    <path d="M 693.6275 174.04 
L 693.6275 10.8 
" style="fill: none; stroke: #000000; stroke-width: 0.8; stroke-linejoin: miter; stroke-linecap: square"/>
   </g>
   <g id="patch_19">
    <path d="M 853.2 174.04 
L 853.2 10.8 
" style="fill: none; stroke: #000000; stroke-width: 0.8; stroke-linejoin: miter; stroke-linecap: square"/>
   </g>
   <g id="patch_20">
    <path d="M 693.6275 174.04 
L 853.2 174.04 
" style="fill: none; stroke: #000000; stroke-width: 0.8; stroke-linejoin: miter; stroke-linecap: square"/>
   </g>
   <g id="patch_21">
    <path d="M 693.6275 10.8 
L 853.2 10.8 
" style="fill: none; stroke: #000000; stroke-width: 0.8; stroke-linejoin: miter; stroke-linecap: square"/>
   </g>
  </g>
 </g>
 <defs>
  <clipPath id="p4e9609131c">
   <rect x="46.64" y="10.8" width="159.5725" height="163.24"/>
  </clipPath>
  <clipPath id="pa6d20e404f">
   <rect x="262.3025" y="10.8" width="159.5725" height="163.24"/>
  </clipPath>
  <clipPath id="p311b512296">
   <rect x="477.965" y="10.8" width="159.5725" height="163.24"/>
  </clipPath>
  <clipPath id="pedd04725b1">
   <rect x="693.6275" y="10.8" width="159.5725" height="163.24"/>
  </clipPath>
 </defs>
</svg>
