<?xml version="1.0" encoding="utf-8" standalone="no"?>
<!DOCTYPE svg PUBLIC "-//W3C//DTD SVG 1.1//EN"
  "http://www.w3.org/Graphics/SVG/1.1/DTD/svg11.dtd">
<svg xmlns:xlink="http://www.w3.org/1999/xlink" width="3600pt" height="720pt" viewBox="0 0 3600 720" xmlns="http://www.w3.org/2000/svg" version="1.1">
 <metadata>
  <rdf:RDF xmlns:dc="http://purl.org/dc/elements/1.1/" xmlns:cc="http://creativecommons.org/ns#" xmlns:rdf="http://www.w3.org/1999/02/22-rdf-syntax-ns#">
   <cc:Work>
    <dc:type rdf:resource="http://purl.org/dc/dcmitype/StillImage"/>
    <dc:date>2023-07-12T09:30:35.704671</dc:date>
    <dc:format>image/svg+xml</dc:format>
    <dc:creator>
     <cc:Agent>
      <dc:title>Matplotlib v3.5.2, https://matplotlib.org/</dc:title>
     </cc:Agent>
    </dc:creator>
   </cc:Work>
  </rdf:RDF>
 </metadata>
 <defs>
  <style type="text/css">*{stroke-linejoin: round; stroke-linecap: butt}</style>
 </defs>
 <g id="figure_1">
  <g id="patch_1">
   <path d="M 0 720 
L 3600 720 
L 3600 0 
L 0 0 
z
" style="fill: #ffffff"/>
  </g>
  <g id="axes_1">
   <g id="patch_2">
    <path d="M 46.55 678.2 
L 890.08125 678.2 
L 890.08125 10.8 
L 46.55 10.8 
z
" style="fill: #ffffff"/>
   </g>
   <g id="matplotlib.axis_1">
    <g id="xtick_1">
     <g id="line2d_1">
      <defs>
       <path id="m8396d8aafb" d="M 0 0 
L 0 3.5 
" style="stroke: #000000; stroke-width: 0.8"/>
      </defs>
      <g>
       <use xlink:href="#m8396d8aafb" x="84.89233" y="678.2" style="stroke: #000000; stroke-width: 0.8"/>
      </g>
     </g>
     <g id="text_1">
      <!-- 0.00 -->
      <g transform="translate(73.759517 692.798437)scale(0.1 -0.1)">
       <defs>
        <path id="DejaVuSans-30" d="M 2034 4250 
Q 1547 4250 1301 3770 
Q 1056 3291 1056 2328 
Q 1056 1369 1301 889 
Q 1547 409 2034 409 
Q 2525 409 2770 889 
Q 3016 1369 3016 2328 
Q 3016 3291 2770 3770 
Q 2525 4250 2034 4250 
z
M 2034 4750 
Q 2819 4750 3233 4129 
Q 3647 3509 3647 2328 
Q 3647 1150 3233 529 
Q 2819 -91 2034 -91 
Q 1250 -91 836 529 
Q 422 1150 422 2328 
Q 422 3509 836 4129 
Q 1250 4750 2034 4750 
z
" transform="scale(0.015625)"/>
        <path id="DejaVuSans-2e" d="M 684 794 
L 1344 794 
L 1344 0 
L 684 0 
L 684 794 
z
" transform="scale(0.015625)"/>
       </defs>
       <use xlink:href="#DejaVuSans-30"/>
       <use xlink:href="#DejaVuSans-2e" x="63.623047"/>
       <use xlink:href="#DejaVuSans-30" x="95.410156"/>
       <use xlink:href="#DejaVuSans-30" x="159.033203"/>
      </g>
     </g>
    </g>
    <g id="xtick_2">
     <g id="line2d_2">
      <g>
       <use xlink:href="#m8396d8aafb" x="194.34723" y="678.2" style="stroke: #000000; stroke-width: 0.8"/>
      </g>
     </g>
     <g id="text_2">
      <!-- 0.25 -->
      <g transform="translate(183.214417 692.798437)scale(0.1 -0.1)">
       <defs>
        <path id="DejaVuSans-32" d="M 1228 531 
L 3431 531 
L 3431 0 
L 469 0 
L 469 531 
Q 828 903 1448 1529 
Q 2069 2156 2228 2338 
Q 2531 2678 2651 2914 
Q 2772 3150 2772 3378 
Q 2772 3750 2511 3984 
Q 2250 4219 1831 4219 
Q 1534 4219 1204 4116 
Q 875 4013 500 3803 
L 500 4441 
Q 881 4594 1212 4672 
Q 1544 4750 1819 4750 
Q 2544 4750 2975 4387 
Q 3406 4025 3406 3419 
Q 3406 3131 3298 2873 
Q 3191 2616 2906 2266 
Q 2828 2175 2409 1742 
Q 1991 1309 1228 531 
z
" transform="scale(0.015625)"/>
        <path id="DejaVuSans-35" d="M 691 4666 
L 3169 4666 
L 3169 4134 
L 1269 4134 
L 1269 2991 
Q 1406 3038 1543 3061 
Q 1681 3084 1819 3084 
Q 2600 3084 3056 2656 
Q 3513 2228 3513 1497 
Q 3513 744 3044 326 
Q 2575 -91 1722 -91 
Q 1428 -91 1123 -41 
Q 819 9 494 109 
L 494 744 
Q 775 591 1075 516 
Q 1375 441 1709 441 
Q 2250 441 2565 725 
Q 2881 1009 2881 1497 
Q 2881 1984 2565 2268 
Q 2250 2553 1709 2553 
Q 1456 2553 1204 2497 
Q 953 2441 691 2322 
L 691 4666 
z
" transform="scale(0.015625)"/>
       </defs>
       <use xlink:href="#DejaVuSans-30"/>
       <use xlink:href="#DejaVuSans-2e" x="63.623047"/>
       <use xlink:href="#DejaVuSans-32" x="95.410156"/>
       <use xlink:href="#DejaVuSans-35" x="159.033203"/>
      </g>
     </g>
    </g>
    <g id="xtick_3">
     <g id="line2d_3">
      <g>
       <use xlink:href="#m8396d8aafb" x="303.80213" y="678.2" style="stroke: #000000; stroke-width: 0.8"/>
      </g>
     </g>
     <g id="text_3">
      <!-- 0.50 -->
      <g transform="translate(292.669317 692.798437)scale(0.1 -0.1)">
       <use xlink:href="#DejaVuSans-30"/>
       <use xlink:href="#DejaVuSans-2e" x="63.623047"/>
       <use xlink:href="#DejaVuSans-35" x="95.410156"/>
       <use xlink:href="#DejaVuSans-30" x="159.033203"/>
      </g>
     </g>
    </g>
    <g id="xtick_4">
     <g id="line2d_4">
      <g>
       <use xlink:href="#m8396d8aafb" x="413.25703" y="678.2" style="stroke: #000000; stroke-width: 0.8"/>
      </g>
     </g>
     <g id="text_4">
      <!-- 0.75 -->
      <g transform="translate(402.124217 692.798437)scale(0.1 -0.1)">
       <defs>
        <path id="DejaVuSans-37" d="M 525 4666 
L 3525 4666 
L 3525 4397 
L 1831 0 
L 1172 0 
L 2766 4134 
L 525 4134 
L 525 4666 
z
" transform="scale(0.015625)"/>
       </defs>
       <use xlink:href="#DejaVuSans-30"/>
       <use xlink:href="#DejaVuSans-2e" x="63.623047"/>
       <use xlink:href="#DejaVuSans-37" x="95.410156"/>
       <use xlink:href="#DejaVuSans-35" x="159.033203"/>
      </g>
     </g>
    </g>
    <g id="xtick_5">
     <g id="line2d_5">
      <g>
       <use xlink:href="#m8396d8aafb" x="522.711929" y="678.2" style="stroke: #000000; stroke-width: 0.8"/>
      </g>
     </g>
     <g id="text_5">
      <!-- 1.00 -->
      <g transform="translate(511.579117 692.798437)scale(0.1 -0.1)">
       <defs>
        <path id="DejaVuSans-31" d="M 794 531 
L 1825 531 
L 1825 4091 
L 703 3866 
L 703 4441 
L 1819 4666 
L 2450 4666 
L 2450 531 
L 3481 531 
L 3481 0 
L 794 0 
L 794 531 
z
" transform="scale(0.015625)"/>
       </defs>
       <use xlink:href="#DejaVuSans-31"/>
       <use xlink:href="#DejaVuSans-2e" x="63.623047"/>
       <use xlink:href="#DejaVuSans-30" x="95.410156"/>
       <use xlink:href="#DejaVuSans-30" x="159.033203"/>
      </g>
     </g>
    </g>
    <g id="xtick_6">
     <g id="line2d_6">
      <g>
       <use xlink:href="#m8396d8aafb" x="632.166829" y="678.2" style="stroke: #000000; stroke-width: 0.8"/>
      </g>
     </g>
     <g id="text_6">
      <!-- 1.25 -->
      <g transform="translate(621.034017 692.798437)scale(0.1 -0.1)">
       <use xlink:href="#DejaVuSans-31"/>
       <use xlink:href="#DejaVuSans-2e" x="63.623047"/>
       <use xlink:href="#DejaVuSans-32" x="95.410156"/>
       <use xlink:href="#DejaVuSans-35" x="159.033203"/>
      </g>
     </g>
    </g>
    <g id="xtick_7">
     <g id="line2d_7">
      <g>
       <use xlink:href="#m8396d8aafb" x="741.621729" y="678.2" style="stroke: #000000; stroke-width: 0.8"/>
      </g>
     </g>
     <g id="text_7">
      <!-- 1.50 -->
      <g transform="translate(730.488917 692.798437)scale(0.1 -0.1)">
       <use xlink:href="#DejaVuSans-31"/>
       <use xlink:href="#DejaVuSans-2e" x="63.623047"/>
       <use xlink:href="#DejaVuSans-35" x="95.410156"/>
       <use xlink:href="#DejaVuSans-30" x="159.033203"/>
      </g>
     </g>
    </g>
    <g id="xtick_8">
     <g id="line2d_8">
      <g>
       <use xlink:href="#m8396d8aafb" x="851.076629" y="678.2" style="stroke: #000000; stroke-width: 0.8"/>
      </g>
     </g>
     <g id="text_8">
      <!-- 1.75 -->
      <g transform="translate(839.943817 692.798437)scale(0.1 -0.1)">
       <use xlink:href="#DejaVuSans-31"/>
       <use xlink:href="#DejaVuSans-2e" x="63.623047"/>
       <use xlink:href="#DejaVuSans-37" x="95.410156"/>
       <use xlink:href="#DejaVuSans-35" x="159.033203"/>
      </g>
     </g>
    </g>
    <g id="text_9">
     <!-- Time -->
     <g transform="translate(456.082031 706.476562)scale(0.1 -0.1)">
      <defs>
       <path id="DejaVuSans-54" d="M -19 4666 
L 3928 4666 
L 3928 4134 
L 2272 4134 
L 2272 0 
L 1638 0 
L 1638 4134 
L -19 4134 
L -19 4666 
z
" transform="scale(0.015625)"/>
       <path id="DejaVuSans-69" d="M 603 3500 
L 1178 3500 
L 1178 0 
L 603 0 
L 603 3500 
z
M 603 4863 
L 1178 4863 
L 1178 4134 
L 603 4134 
L 603 4863 
z
" transform="scale(0.015625)"/>
       <path id="DejaVuSans-6d" d="M 3328 2828 
Q 3544 3216 3844 3400 
Q 4144 3584 4550 3584 
Q 5097 3584 5394 3201 
Q 5691 2819 5691 2113 
L 5691 0 
L 5113 0 
L 5113 2094 
Q 5113 2597 4934 2840 
Q 4756 3084 4391 3084 
Q 3944 3084 3684 2787 
Q 3425 2491 3425 1978 
L 3425 0 
L 2847 0 
L 2847 2094 
Q 2847 2600 2669 2842 
Q 2491 3084 2119 3084 
Q 1678 3084 1418 2786 
Q 1159 2488 1159 1978 
L 1159 0 
L 581 0 
L 581 3500 
L 1159 3500 
L 1159 2956 
Q 1356 3278 1631 3431 
Q 1906 3584 2284 3584 
Q 2666 3584 2933 3390 
Q 3200 3197 3328 2828 
z
" transform="scale(0.015625)"/>
       <path id="DejaVuSans-65" d="M 3597 1894 
L 3597 1613 
L 953 1613 
Q 991 1019 1311 708 
Q 1631 397 2203 397 
Q 2534 397 2845 478 
Q 3156 559 3463 722 
L 3463 178 
Q 3153 47 2828 -22 
Q 2503 -91 2169 -91 
Q 1331 -91 842 396 
Q 353 884 353 1716 
Q 353 2575 817 3079 
Q 1281 3584 2069 3584 
Q 2775 3584 3186 3129 
Q 3597 2675 3597 1894 
z
M 3022 2063 
Q 3016 2534 2758 2815 
Q 2500 3097 2075 3097 
Q 1594 3097 1305 2825 
Q 1016 2553 972 2059 
L 3022 2063 
z
" transform="scale(0.015625)"/>
      </defs>
      <use xlink:href="#DejaVuSans-54"/>
      <use xlink:href="#DejaVuSans-69" x="57.958984"/>
      <use xlink:href="#DejaVuSans-6d" x="85.742188"/>
      <use xlink:href="#DejaVuSans-65" x="183.154297"/>
     </g>
    </g>
   </g>
   <g id="matplotlib.axis_2">
    <g id="ytick_1">
     <g id="line2d_9">
      <defs>
       <path id="m22b0423e4c" d="M 0 0 
L -3.5 0 
" style="stroke: #000000; stroke-width: 0.8"/>
      </defs>
      <g>
       <use xlink:href="#m22b0423e4c" x="46.55" y="579.365914" style="stroke: #000000; stroke-width: 0.8"/>
      </g>
     </g>
     <g id="text_10">
      <!-- −2 -->
      <g transform="translate(24.807812 583.165133)scale(0.1 -0.1)">
       <defs>
        <path id="DejaVuSans-2212" d="M 678 2272 
L 4684 2272 
L 4684 1741 
L 678 1741 
L 678 2272 
z
" transform="scale(0.015625)"/>
       </defs>
       <use xlink:href="#DejaVuSans-2212"/>
       <use xlink:href="#DejaVuSans-32" x="83.789062"/>
      </g>
     </g>
    </g>
    <g id="ytick_2">
     <g id="line2d_10">
      <g>
       <use xlink:href="#m22b0423e4c" x="46.55" y="461.763882" style="stroke: #000000; stroke-width: 0.8"/>
      </g>
     </g>
     <g id="text_11">
      <!-- −1 -->
      <g transform="translate(24.807812 465.563101)scale(0.1 -0.1)">
       <use xlink:href="#DejaVuSans-2212"/>
       <use xlink:href="#DejaVuSans-31" x="83.789062"/>
      </g>
     </g>
    </g>
    <g id="ytick_3">
     <g id="line2d_11">
      <g>
       <use xlink:href="#m22b0423e4c" x="46.55" y="344.16185" style="stroke: #000000; stroke-width: 0.8"/>
      </g>
     </g>
     <g id="text_12">
      <!-- 0 -->
      <g transform="translate(33.1875 347.961069)scale(0.1 -0.1)">
       <use xlink:href="#DejaVuSans-30"/>
      </g>
     </g>
    </g>
    <g id="ytick_4">
     <g id="line2d_12">
      <g>
       <use xlink:href="#m22b0423e4c" x="46.55" y="226.559818" style="stroke: #000000; stroke-width: 0.8"/>
      </g>
     </g>
     <g id="text_13">
      <!-- 1 -->
      <g transform="translate(33.1875 230.359037)scale(0.1 -0.1)">
       <use xlink:href="#DejaVuSans-31"/>
      </g>
     </g>
    </g>
    <g id="ytick_5">
     <g id="line2d_13">
      <g>
       <use xlink:href="#m22b0423e4c" x="46.55" y="108.957786" style="stroke: #000000; stroke-width: 0.8"/>
      </g>
     </g>
     <g id="text_14">
      <!-- 2 -->
      <g transform="translate(33.1875 112.757005)scale(0.1 -0.1)">
       <use xlink:href="#DejaVuSans-32"/>
      </g>
     </g>
    </g>
    <g id="text_15">
     <!-- Position -->
     <g transform="translate(18.728125 363.964063)rotate(-90)scale(0.1 -0.1)">
      <defs>
       <path id="DejaVuSans-50" d="M 1259 4147 
L 1259 2394 
L 2053 2394 
Q 2494 2394 2734 2622 
Q 2975 2850 2975 3272 
Q 2975 3691 2734 3919 
Q 2494 4147 2053 4147 
L 1259 4147 
z
M 628 4666 
L 2053 4666 
Q 2838 4666 3239 4311 
Q 3641 3956 3641 3272 
Q 3641 2581 3239 2228 
Q 2838 1875 2053 1875 
L 1259 1875 
L 1259 0 
L 628 0 
L 628 4666 
z
" transform="scale(0.015625)"/>
       <path id="DejaVuSans-6f" d="M 1959 3097 
Q 1497 3097 1228 2736 
Q 959 2375 959 1747 
Q 959 1119 1226 758 
Q 1494 397 1959 397 
Q 2419 397 2687 759 
Q 2956 1122 2956 1747 
Q 2956 2369 2687 2733 
Q 2419 3097 1959 3097 
z
M 1959 3584 
Q 2709 3584 3137 3096 
Q 3566 2609 3566 1747 
Q 3566 888 3137 398 
Q 2709 -91 1959 -91 
Q 1206 -91 779 398 
Q 353 888 353 1747 
Q 353 2609 779 3096 
Q 1206 3584 1959 3584 
z
" transform="scale(0.015625)"/>
       <path id="DejaVuSans-73" d="M 2834 3397 
L 2834 2853 
Q 2591 2978 2328 3040 
Q 2066 3103 1784 3103 
Q 1356 3103 1142 2972 
Q 928 2841 928 2578 
Q 928 2378 1081 2264 
Q 1234 2150 1697 2047 
L 1894 2003 
Q 2506 1872 2764 1633 
Q 3022 1394 3022 966 
Q 3022 478 2636 193 
Q 2250 -91 1575 -91 
Q 1294 -91 989 -36 
Q 684 19 347 128 
L 347 722 
Q 666 556 975 473 
Q 1284 391 1588 391 
Q 1994 391 2212 530 
Q 2431 669 2431 922 
Q 2431 1156 2273 1281 
Q 2116 1406 1581 1522 
L 1381 1569 
Q 847 1681 609 1914 
Q 372 2147 372 2553 
Q 372 3047 722 3315 
Q 1072 3584 1716 3584 
Q 2034 3584 2315 3537 
Q 2597 3491 2834 3397 
z
" transform="scale(0.015625)"/>
       <path id="DejaVuSans-74" d="M 1172 4494 
L 1172 3500 
L 2356 3500 
L 2356 3053 
L 1172 3053 
L 1172 1153 
Q 1172 725 1289 603 
Q 1406 481 1766 481 
L 2356 481 
L 2356 0 
L 1766 0 
Q 1100 0 847 248 
Q 594 497 594 1153 
L 594 3053 
L 172 3053 
L 172 3500 
L 594 3500 
L 594 4494 
L 1172 4494 
z
" transform="scale(0.015625)"/>
       <path id="DejaVuSans-6e" d="M 3513 2113 
L 3513 0 
L 2938 0 
L 2938 2094 
Q 2938 2591 2744 2837 
Q 2550 3084 2163 3084 
Q 1697 3084 1428 2787 
Q 1159 2491 1159 1978 
L 1159 0 
L 581 0 
L 581 3500 
L 1159 3500 
L 1159 2956 
Q 1366 3272 1645 3428 
Q 1925 3584 2291 3584 
Q 2894 3584 3203 3211 
Q 3513 2838 3513 2113 
z
" transform="scale(0.015625)"/>
      </defs>
      <use xlink:href="#DejaVuSans-50"/>
      <use xlink:href="#DejaVuSans-6f" x="56.677734"/>
      <use xlink:href="#DejaVuSans-73" x="117.859375"/>
      <use xlink:href="#DejaVuSans-69" x="169.958984"/>
      <use xlink:href="#DejaVuSans-74" x="197.742188"/>
      <use xlink:href="#DejaVuSans-69" x="236.951172"/>
      <use xlink:href="#DejaVuSans-6f" x="264.734375"/>
      <use xlink:href="#DejaVuSans-6e" x="325.916016"/>
     </g>
    </g>
   </g>
   <g id="line2d_14">
    <path d="M 84.89233 353.463317 
L 101.012228 353.356236 
L 117.89974 353.021312 
L 136.322481 352.423866 
L 157.815679 351.488694 
L 190.055476 349.825214 
L 226.900957 347.973349 
L 249.929384 347.041509 
L 271.422581 346.3921 
L 293.683393 345.941516 
L 318.247048 345.669641 
L 347.416388 345.580855 
L 384.26187 345.704185 
L 503.242071 346.264464 
L 546.996081 346.162443 
L 596.12339 345.815832 
L 660.602983 345.119644 
L 726.617805 344.465323 
L 771.907043 344.248198 
L 834.083794 344.209113 
L 851.73892 344.210554 
L 851.73892 344.210554 
" clip-path="url(#pe822e3897a)" style="fill: none; stroke: #1f77b4; stroke-width: 1.5; stroke-linecap: square"/>
   </g>
   <g id="line2d_15">
    <path d="M 84.89233 460.365159 
L 92.568472 460.259666 
L 100.244614 459.945277 
L 107.920756 459.425905 
L 116.364512 458.6273 
L 124.808268 457.603091 
L 134.019639 456.247595 
L 143.231009 454.666281 
L 153.209994 452.728474 
L 163.956593 450.418448 
L 176.23842 447.549358 
L 190.82309 443.908654 
L 210.781059 438.678545 
L 268.352125 423.230798 
L 745.040546 295.302411 
L 761.928058 291.03767 
L 774.9775 287.965918 
L 786.491713 285.488515 
L 796.470698 283.565115 
L 805.682068 282.00802 
L 814.125824 280.789509 
L 822.569581 279.79097 
L 831.013337 279.029562 
L 838.689479 278.554644 
L 846.365621 278.293967 
L 851.73892 278.240497 
L 851.73892 278.240497 
" clip-path="url(#pe822e3897a)" style="fill: none; stroke: #ff7f0e; stroke-width: 1.5; stroke-linecap: square"/>
   </g>
   <g id="line2d_16">
    <path d="M 84.89233 337.664454 
L 94.1037 337.554724 
L 103.31507 337.227201 
L 112.526441 336.686015 
L 122.505426 335.867141 
L 132.48441 334.818943 
L 143.231009 333.452122 
L 153.977608 331.86171 
L 165.491821 329.939658 
L 178.541263 327.532091 
L 193.893547 324.456661 
L 213.083902 320.367776 
L 276.028267 306.770924 
L 295.986236 302.787917 
L 314.408977 299.332368 
L 332.831718 296.102805 
L 351.254459 293.103271 
L 369.6772 290.331015 
L 388.867555 287.67481 
L 408.825524 285.145742 
L 428.783493 282.839092 
L 449.509077 280.664856 
L 471.002275 278.635263 
L 492.495472 276.82485 
L 514.756284 275.176411 
L 536.249482 273.806834 
L 557.74268 272.662066 
L 578.468263 271.779355 
L 599.193847 271.120449 
L 619.919431 270.687279 
L 640.645014 270.478043 
L 661.370598 270.489277 
L 682.863795 270.72223 
L 705.892221 271.196668 
L 732.758719 271.985234 
L 821.034352 274.799112 
L 840.224707 275.055306 
L 851.73892 275.09833 
L 851.73892 275.09833 
" clip-path="url(#pe822e3897a)" style="fill: none; stroke: #2ca02c; stroke-width: 1.5; stroke-linecap: square"/>
   </g>
   <g id="line2d_17">
    <path d="M 84.89233 647.863636 
L 97.941771 647.755977 
L 110.991213 647.434284 
L 124.808268 646.867076 
L 138.625324 646.07898 
L 153.209994 645.025387 
L 168.562278 643.694993 
L 185.44979 642.00529 
L 204.640146 639.852746 
L 227.668572 637.035748 
L 262.978825 632.461626 
L 315.176591 625.729119 
L 342.810702 622.398819 
L 366.606743 619.752272 
L 388.867555 617.501819 
L 409.593138 615.62602 
L 430.318722 613.971844 
L 451.81192 612.485745 
L 474.840346 611.120767 
L 501.706843 609.75899 
L 538.552325 608.136135 
L 615.313745 604.794014 
L 657.532527 602.683819 
L 745.80816 598.174609 
L 771.907043 597.128751 
L 794.935469 596.420603 
L 817.196281 595.954468 
L 839.457093 595.712247 
L 851.73892 595.677062 
L 851.73892 595.677062 
" clip-path="url(#pe822e3897a)" style="fill: none; stroke: #d62728; stroke-width: 1.5; stroke-linecap: square"/>
   </g>
   <g id="line2d_18">
    <path d="M 84.89233 337.56375 
L 100.244614 337.453147 
L 115.596898 337.125417 
L 131.716796 336.558707 
L 148.604309 335.738633 
L 166.259435 334.659488 
L 185.44979 333.265517 
L 207.710602 331.417645 
L 235.344714 328.888438 
L 315.944205 321.365941 
L 337.437403 319.664089 
L 356.627758 318.368789 
L 374.282885 317.401375 
L 390.402783 316.739685 
L 405.755067 316.337487 
L 419.572123 316.190494 
L 432.621564 316.260123 
L 445.671006 316.552275 
L 457.952833 317.047532 
L 470.234661 317.771895 
L 481.748874 318.671793 
L 493.263087 319.796262 
L 504.7773 321.154684 
L 515.523899 322.640405 
L 526.270497 324.341175 
L 537.017096 326.259849 
L 547.763695 328.397776 
L 558.510294 330.754662 
L 569.256893 333.327968 
L 580.771106 336.319621 
L 592.285319 339.544813 
L 604.567146 343.228496 
L 616.848974 347.148608 
L 629.898415 351.550042 
L 644.483085 356.715096 
L 661.370598 362.945258 
L 685.934252 372.275515 
L 714.335978 383.010617 
L 729.688262 388.572419 
L 742.737703 393.061828 
L 754.251916 396.784344 
L 764.998515 400.01447 
L 774.9775 402.770242 
L 784.18887 405.081061 
L 792.632627 406.984715 
L 801.076383 408.66793 
L 809.520139 410.117071 
L 817.196281 411.221243 
L 824.872423 412.11399 
L 832.548565 412.789077 
L 840.224707 413.241586 
L 847.900849 413.46853 
L 851.73892 413.496963 
L 851.73892 413.496963 
" clip-path="url(#pe822e3897a)" style="fill: none; stroke: #9467bd; stroke-width: 1.5; stroke-linecap: square"/>
   </g>
   <g id="line2d_19">
    <path d="M 84.89233 157.026924 
L 95.638928 156.914309 
L 106.385527 156.578205 
L 117.132126 156.023826 
L 128.646339 155.197465 
L 140.160552 154.144958 
L 152.44238 152.792963 
L 165.491821 151.124337 
L 179.308877 149.132989 
L 195.428775 146.57217 
L 214.61913 143.27803 
L 241.485627 138.410297 
L 292.148165 129.2006 
L 316.711819 124.983194 
L 340.50786 121.122686 
L 365.071514 117.366393 
L 393.47324 113.260416 
L 481.748874 100.683401 
L 504.009686 97.175953 
L 524.735269 93.689113 
L 545.460853 89.972048 
L 566.186436 86.029035 
L 589.214862 81.413561 
L 616.848974 75.632253 
L 693.610394 59.40312 
L 712.800749 55.673918 
L 728.920648 52.757248 
L 744.272932 50.205967 
L 758.089987 48.129184 
L 771.139429 46.381483 
L 784.18887 44.860407 
L 796.470698 43.650464 
L 808.752525 42.667497 
L 820.266738 41.960921 
L 831.780951 41.468967 
L 843.295164 41.195999 
L 851.73892 41.136364 
L 851.73892 41.136364 
" clip-path="url(#pe822e3897a)" style="fill: none; stroke: #8c564b; stroke-width: 1.5; stroke-linecap: square"/>
   </g>
   <g id="line2d_20">
    <path d="M 84.89233 254.392991 
L 97.941771 254.281452 
L 110.991213 253.9498 
L 124.808268 253.367421 
L 138.625324 252.560601 
L 153.209994 251.4845 
L 168.562278 250.128482 
L 185.44979 248.40813 
L 203.872531 246.305418 
L 225.365729 243.622849 
L 252.232226 240.03411 
L 295.986236 233.926857 
L 395.776083 219.768534 
L 421.874966 215.799677 
L 443.368163 212.309282 
L 462.558518 208.972981 
L 480.981259 205.542397 
L 498.636386 202.025702 
L 516.291513 198.274959 
L 533.94664 194.289423 
L 551.601766 190.078549 
L 570.792121 185.270664 
L 592.285319 179.652121 
L 619.919431 172.184749 
L 676.722882 156.762798 
L 695.913237 151.828041 
L 712.033135 147.901659 
L 726.617805 144.569031 
L 740.434861 141.640634 
L 753.484302 139.10823 
L 765.766129 136.954565 
L 777.280343 135.155295 
L 788.794556 133.583703 
L 799.541155 132.334104 
L 810.287753 131.303813 
L 821.034352 130.50108 
L 831.780951 129.932855 
L 841.759936 129.619488 
L 851.73892 129.514776 
L 851.73892 129.514776 
" clip-path="url(#pe822e3897a)" style="fill: none; stroke: #e377c2; stroke-width: 1.5; stroke-linecap: square"/>
   </g>
   <g id="patch_3">
    <path d="M 46.55 678.2 
L 46.55 10.8 
" style="fill: none; stroke: #000000; stroke-width: 0.8; stroke-linejoin: miter; stroke-linecap: square"/>
   </g>
   <g id="patch_4">
    <path d="M 890.08125 678.2 
L 890.08125 10.8 
" style="fill: none; stroke: #000000; stroke-width: 0.8; stroke-linejoin: miter; stroke-linecap: square"/>
   </g>
   <g id="patch_5">
    <path d="M 46.55 678.2 
L 890.08125 678.2 
" style="fill: none; stroke: #000000; stroke-width: 0.8; stroke-linejoin: miter; stroke-linecap: square"/>
   </g>
   <g id="patch_6">
    <path d="M 46.55 10.8 
L 890.08125 10.8 
" style="fill: none; stroke: #000000; stroke-width: 0.8; stroke-linejoin: miter; stroke-linecap: square"/>
   </g>
  </g>
  <g id="axes_2">
   <g id="patch_7">
    <path d="M 946.25625 678.2 
L 1789.7875 678.2 
L 1789.7875 10.8 
L 946.25625 10.8 
z
" style="fill: #ffffff"/>
   </g>
   <g id="matplotlib.axis_3">
    <g id="xtick_9">
     <g id="line2d_21">
      <g>
       <use xlink:href="#m8396d8aafb" x="984.59858" y="678.2" style="stroke: #000000; stroke-width: 0.8"/>
      </g>
     </g>
     <g id="text_16">
      <!-- 0.00 -->
      <g transform="translate(973.465767 692.798437)scale(0.1 -0.1)">
       <use xlink:href="#DejaVuSans-30"/>
       <use xlink:href="#DejaVuSans-2e" x="63.623047"/>
       <use xlink:href="#DejaVuSans-30" x="95.410156"/>
       <use xlink:href="#DejaVuSans-30" x="159.033203"/>
      </g>
     </g>
    </g>
    <g id="xtick_10">
     <g id="line2d_22">
      <g>
       <use xlink:href="#m8396d8aafb" x="1094.05348" y="678.2" style="stroke: #000000; stroke-width: 0.8"/>
      </g>
     </g>
     <g id="text_17">
      <!-- 0.25 -->
      <g transform="translate(1082.920667 692.798437)scale(0.1 -0.1)">
       <use xlink:href="#DejaVuSans-30"/>
       <use xlink:href="#DejaVuSans-2e" x="63.623047"/>
       <use xlink:href="#DejaVuSans-32" x="95.410156"/>
       <use xlink:href="#DejaVuSans-35" x="159.033203"/>
      </g>
     </g>
    </g>
    <g id="xtick_11">
     <g id="line2d_23">
      <g>
       <use xlink:href="#m8396d8aafb" x="1203.50838" y="678.2" style="stroke: #000000; stroke-width: 0.8"/>
      </g>
     </g>
     <g id="text_18">
      <!-- 0.50 -->
      <g transform="translate(1192.375567 692.798437)scale(0.1 -0.1)">
       <use xlink:href="#DejaVuSans-30"/>
       <use xlink:href="#DejaVuSans-2e" x="63.623047"/>
       <use xlink:href="#DejaVuSans-35" x="95.410156"/>
       <use xlink:href="#DejaVuSans-30" x="159.033203"/>
      </g>
     </g>
    </g>
    <g id="xtick_12">
     <g id="line2d_24">
      <g>
       <use xlink:href="#m8396d8aafb" x="1312.96328" y="678.2" style="stroke: #000000; stroke-width: 0.8"/>
      </g>
     </g>
     <g id="text_19">
      <!-- 0.75 -->
      <g transform="translate(1301.830467 692.798437)scale(0.1 -0.1)">
       <use xlink:href="#DejaVuSans-30"/>
       <use xlink:href="#DejaVuSans-2e" x="63.623047"/>
       <use xlink:href="#DejaVuSans-37" x="95.410156"/>
       <use xlink:href="#DejaVuSans-35" x="159.033203"/>
      </g>
     </g>
    </g>
    <g id="xtick_13">
     <g id="line2d_25">
      <g>
       <use xlink:href="#m8396d8aafb" x="1422.418179" y="678.2" style="stroke: #000000; stroke-width: 0.8"/>
      </g>
     </g>
     <g id="text_20">
      <!-- 1.00 -->
      <g transform="translate(1411.285367 692.798437)scale(0.1 -0.1)">
       <use xlink:href="#DejaVuSans-31"/>
       <use xlink:href="#DejaVuSans-2e" x="63.623047"/>
       <use xlink:href="#DejaVuSans-30" x="95.410156"/>
       <use xlink:href="#DejaVuSans-30" x="159.033203"/>
      </g>
     </g>
    </g>
    <g id="xtick_14">
     <g id="line2d_26">
      <g>
       <use xlink:href="#m8396d8aafb" x="1531.873079" y="678.2" style="stroke: #000000; stroke-width: 0.8"/>
      </g>
     </g>
     <g id="text_21">
      <!-- 1.25 -->
      <g transform="translate(1520.740267 692.798437)scale(0.1 -0.1)">
       <use xlink:href="#DejaVuSans-31"/>
       <use xlink:href="#DejaVuSans-2e" x="63.623047"/>
       <use xlink:href="#DejaVuSans-32" x="95.410156"/>
       <use xlink:href="#DejaVuSans-35" x="159.033203"/>
      </g>
     </g>
    </g>
    <g id="xtick_15">
     <g id="line2d_27">
      <g>
       <use xlink:href="#m8396d8aafb" x="1641.327979" y="678.2" style="stroke: #000000; stroke-width: 0.8"/>
      </g>
     </g>
     <g id="text_22">
      <!-- 1.50 -->
      <g transform="translate(1630.195167 692.798437)scale(0.1 -0.1)">
       <use xlink:href="#DejaVuSans-31"/>
       <use xlink:href="#DejaVuSans-2e" x="63.623047"/>
       <use xlink:href="#DejaVuSans-35" x="95.410156"/>
       <use xlink:href="#DejaVuSans-30" x="159.033203"/>
      </g>
     </g>
    </g>
    <g id="xtick_16">
     <g id="line2d_28">
      <g>
       <use xlink:href="#m8396d8aafb" x="1750.782879" y="678.2" style="stroke: #000000; stroke-width: 0.8"/>
      </g>
     </g>
     <g id="text_23">
      <!-- 1.75 -->
      <g transform="translate(1739.650067 692.798437)scale(0.1 -0.1)">
       <use xlink:href="#DejaVuSans-31"/>
       <use xlink:href="#DejaVuSans-2e" x="63.623047"/>
       <use xlink:href="#DejaVuSans-37" x="95.410156"/>
       <use xlink:href="#DejaVuSans-35" x="159.033203"/>
      </g>
     </g>
    </g>
    <g id="text_24">
     <!-- Time -->
     <g transform="translate(1355.788281 706.476562)scale(0.1 -0.1)">
      <use xlink:href="#DejaVuSans-54"/>
      <use xlink:href="#DejaVuSans-69" x="57.958984"/>
      <use xlink:href="#DejaVuSans-6d" x="85.742188"/>
      <use xlink:href="#DejaVuSans-65" x="183.154297"/>
     </g>
    </g>
   </g>
   <g id="matplotlib.axis_4">
    <g id="ytick_6">
     <g id="line2d_29">
      <g>
       <use xlink:href="#m22b0423e4c" x="946.25625" y="667.047232" style="stroke: #000000; stroke-width: 0.8"/>
      </g>
     </g>
     <g id="text_25">
      <!-- −1.5 -->
      <g transform="translate(914.973437 670.846451)scale(0.1 -0.1)">
       <use xlink:href="#DejaVuSans-2212"/>
       <use xlink:href="#DejaVuSans-31" x="83.789062"/>
       <use xlink:href="#DejaVuSans-2e" x="147.412109"/>
       <use xlink:href="#DejaVuSans-35" x="179.199219"/>
      </g>
     </g>
    </g>
    <g id="ytick_7">
     <g id="line2d_30">
      <g>
       <use xlink:href="#m22b0423e4c" x="946.25625" y="542.944955" style="stroke: #000000; stroke-width: 0.8"/>
      </g>
     </g>
     <g id="text_26">
      <!-- −1.0 -->
      <g transform="translate(914.973437 546.744174)scale(0.1 -0.1)">
       <use xlink:href="#DejaVuSans-2212"/>
       <use xlink:href="#DejaVuSans-31" x="83.789062"/>
       <use xlink:href="#DejaVuSans-2e" x="147.412109"/>
       <use xlink:href="#DejaVuSans-30" x="179.199219"/>
      </g>
     </g>
    </g>
    <g id="ytick_8">
     <g id="line2d_31">
      <g>
       <use xlink:href="#m22b0423e4c" x="946.25625" y="418.842678" style="stroke: #000000; stroke-width: 0.8"/>
      </g>
     </g>
     <g id="text_27">
      <!-- −0.5 -->
      <g transform="translate(914.973437 422.641897)scale(0.1 -0.1)">
       <use xlink:href="#DejaVuSans-2212"/>
       <use xlink:href="#DejaVuSans-30" x="83.789062"/>
       <use xlink:href="#DejaVuSans-2e" x="147.412109"/>
       <use xlink:href="#DejaVuSans-35" x="179.199219"/>
      </g>
     </g>
    </g>
    <g id="ytick_9">
     <g id="line2d_32">
      <g>
       <use xlink:href="#m22b0423e4c" x="946.25625" y="294.740401" style="stroke: #000000; stroke-width: 0.8"/>
      </g>
     </g>
     <g id="text_28">
      <!-- 0.0 -->
      <g transform="translate(923.353125 298.53962)scale(0.1 -0.1)">
       <use xlink:href="#DejaVuSans-30"/>
       <use xlink:href="#DejaVuSans-2e" x="63.623047"/>
       <use xlink:href="#DejaVuSans-30" x="95.410156"/>
      </g>
     </g>
    </g>
    <g id="ytick_10">
     <g id="line2d_33">
      <g>
       <use xlink:href="#m22b0423e4c" x="946.25625" y="170.638124" style="stroke: #000000; stroke-width: 0.8"/>
      </g>
     </g>
     <g id="text_29">
      <!-- 0.5 -->
      <g transform="translate(923.353125 174.437342)scale(0.1 -0.1)">
       <use xlink:href="#DejaVuSans-30"/>
       <use xlink:href="#DejaVuSans-2e" x="63.623047"/>
       <use xlink:href="#DejaVuSans-35" x="95.410156"/>
      </g>
     </g>
    </g>
    <g id="ytick_11">
     <g id="line2d_34">
      <g>
       <use xlink:href="#m22b0423e4c" x="946.25625" y="46.535847" style="stroke: #000000; stroke-width: 0.8"/>
      </g>
     </g>
     <g id="text_30">
      <!-- 1.0 -->
      <g transform="translate(923.353125 50.335065)scale(0.1 -0.1)">
       <use xlink:href="#DejaVuSans-31"/>
       <use xlink:href="#DejaVuSans-2e" x="63.623047"/>
       <use xlink:href="#DejaVuSans-30" x="95.410156"/>
      </g>
     </g>
    </g>
    <g id="text_31">
     <!-- Velocity -->
     <g transform="translate(908.89375 364.115625)rotate(-90)scale(0.1 -0.1)">
      <defs>
       <path id="DejaVuSans-56" d="M 1831 0 
L 50 4666 
L 709 4666 
L 2188 738 
L 3669 4666 
L 4325 4666 
L 2547 0 
L 1831 0 
z
" transform="scale(0.015625)"/>
       <path id="DejaVuSans-6c" d="M 603 4863 
L 1178 4863 
L 1178 0 
L 603 0 
L 603 4863 
z
" transform="scale(0.015625)"/>
       <path id="DejaVuSans-63" d="M 3122 3366 
L 3122 2828 
Q 2878 2963 2633 3030 
Q 2388 3097 2138 3097 
Q 1578 3097 1268 2742 
Q 959 2388 959 1747 
Q 959 1106 1268 751 
Q 1578 397 2138 397 
Q 2388 397 2633 464 
Q 2878 531 3122 666 
L 3122 134 
Q 2881 22 2623 -34 
Q 2366 -91 2075 -91 
Q 1284 -91 818 406 
Q 353 903 353 1747 
Q 353 2603 823 3093 
Q 1294 3584 2113 3584 
Q 2378 3584 2631 3529 
Q 2884 3475 3122 3366 
z
" transform="scale(0.015625)"/>
       <path id="DejaVuSans-79" d="M 2059 -325 
Q 1816 -950 1584 -1140 
Q 1353 -1331 966 -1331 
L 506 -1331 
L 506 -850 
L 844 -850 
Q 1081 -850 1212 -737 
Q 1344 -625 1503 -206 
L 1606 56 
L 191 3500 
L 800 3500 
L 1894 763 
L 2988 3500 
L 3597 3500 
L 2059 -325 
z
" transform="scale(0.015625)"/>
      </defs>
      <use xlink:href="#DejaVuSans-56"/>
      <use xlink:href="#DejaVuSans-65" x="60.658203"/>
      <use xlink:href="#DejaVuSans-6c" x="122.181641"/>
      <use xlink:href="#DejaVuSans-6f" x="149.964844"/>
      <use xlink:href="#DejaVuSans-63" x="211.146484"/>
      <use xlink:href="#DejaVuSans-69" x="266.126953"/>
      <use xlink:href="#DejaVuSans-74" x="293.910156"/>
      <use xlink:href="#DejaVuSans-79" x="333.119141"/>
     </g>
    </g>
   </g>
   <g id="line2d_35">
    <path d="M 984.59858 294.740401 
L 999.183249 283.668355 
L 1007.627006 277.458207 
L 1015.303148 272.081294 
L 1021.444061 268.003619 
L 1027.584975 264.207776 
L 1033.725889 260.697445 
L 1039.099188 257.893681 
L 1044.472488 255.356865 
L 1049.845787 253.087952 
L 1054.451472 251.372579 
L 1059.057157 249.875763 
L 1063.662843 248.597505 
L 1068.268528 247.541221 
L 1072.874213 246.71343 
L 1077.479898 246.114289 
L 1082.085584 245.74348 
L 1086.691269 245.597296 
L 1091.296954 245.674677 
L 1095.902639 245.975623 
L 1100.508325 246.490943 
L 1105.11401 247.206533 
L 1109.719695 248.122239 
L 1115.092994 249.434583 
L 1121.233908 251.190878 
L 1127.374822 253.209889 
L 1134.28335 255.751138 
L 1141.959492 258.824154 
L 1152.70609 263.446751 
L 1177.269745 274.071516 
L 1186.481115 277.750523 
L 1195.692486 281.187259 
L 1204.136242 284.09566 
L 1212.579998 286.762619 
L 1221.023755 289.176343 
L 1228.699897 291.148605 
L 1236.376039 292.906493 
L 1244.819795 294.606265 
L 1254.79878 296.390665 
L 1263.242536 297.697831 
L 1271.686292 298.775984 
L 1279.362434 299.549764 
L 1287.038576 300.117959 
L 1296.249947 300.554218 
L 1305.461317 300.761424 
L 1316.207916 300.777553 
L 1327.722129 300.570145 
L 1339.236342 300.149783 
L 1351.51817 299.472685 
L 1365.335225 298.461408 
L 1382.222738 296.96541 
L 1402.948321 294.894035 
L 1455.146087 289.545194 
L 1474.336442 287.913895 
L 1492.759183 286.560205 
L 1515.019995 285.182879 
L 1529.604665 284.473212 
L 1541.118878 284.120567 
L 1552.633091 283.993645 
L 1564.147304 284.097146 
L 1575.661517 284.432142 
L 1588.710959 285.06148 
L 1601.7604 285.925276 
L 1615.577456 287.071994 
L 1634.767811 288.892794 
L 1673.916136 292.678163 
L 1686.197963 293.571249 
L 1698.47979 294.234267 
L 1710.761618 294.665072 
L 1722.275831 294.844578 
L 1737.628115 294.853131 
L 1751.44517 294.740401 
L 1751.44517 294.740401 
" clip-path="url(#pf9b50b3060)" style="fill: none; stroke: #1f77b4; stroke-width: 1.5; stroke-linecap: square"/>
   </g>
   <g id="line2d_36">
    <path d="M 984.59858 294.740401 
L 995.345178 259.376832 
L 1004.556549 229.751452 
L 1010.697463 210.770353 
L 1016.838376 192.494499 
L 1022.211676 177.205235 
L 1026.817361 164.708191 
L 1031.423046 152.772413 
L 1036.028731 141.426848 
L 1040.634417 130.739796 
L 1044.472488 122.339146 
L 1048.310559 114.397792 
L 1052.14863 106.923888 
L 1055.986701 99.927326 
L 1059.824772 93.408128 
L 1063.662843 87.366295 
L 1067.500914 81.798466 
L 1071.338985 76.697408 
L 1074.409442 72.95246 
L 1077.479898 69.506088 
L 1080.550355 66.358273 
L 1083.620812 63.486453 
L 1086.691269 60.870665 
L 1089.761726 58.510909 
L 1092.832182 56.407184 
L 1095.902639 54.559491 
L 1098.973096 52.949944 
L 1102.043553 51.545038 
L 1105.11401 50.344003 
L 1108.184467 49.346838 
L 1111.254923 48.553543 
L 1115.092994 47.813368 
L 1119.69868 47.163493 
L 1124.304365 46.765143 
L 1128.91005 46.616763 
L 1147.332791 46.535991 
L 1256.334008 46.647942 
L 1310.834617 46.641573 
L 1381.455124 46.538851 
L 1611.739385 46.608138 
L 1617.112685 46.924125 
L 1622.485984 47.491115 
L 1626.324055 48.088968 
L 1629.394512 48.768852 
L 1632.464969 49.633056 
L 1636.30304 50.972511 
L 1640.141111 52.601107 
L 1643.211568 54.162375 
L 1646.282024 55.985275 
L 1649.352481 58.069806 
L 1652.422938 60.41597 
L 1655.493395 63.023766 
L 1658.563852 65.918046 
L 1661.634308 69.126898 
L 1664.704765 72.650346 
L 1667.775222 76.48839 
L 1670.845679 80.641031 
L 1673.916136 85.114039 
L 1676.986593 89.920789 
L 1680.824664 96.399311 
L 1684.662735 103.40015 
L 1688.500806 110.922843 
L 1692.338877 118.957201 
L 1696.176948 127.499058 
L 1700.015019 136.548413 
L 1703.85309 146.105 
L 1708.458775 158.185945 
L 1713.06446 170.897889 
L 1717.670145 184.240832 
L 1723.043445 200.547632 
L 1729.184359 219.930504 
L 1735.325272 240.091195 
L 1747.607099 281.606962 
L 1751.44517 294.740401 
L 1751.44517 294.740401 
" clip-path="url(#pf9b50b3060)" style="fill: none; stroke: #ff7f0e; stroke-width: 1.5; stroke-linecap: square"/>
   </g>
   <g id="line2d_37">
    <path d="M 984.59858 294.740401 
L 998.415635 261.872953 
L 1007.627006 240.419926 
L 1015.303148 223.106813 
L 1021.444061 209.699368 
L 1027.584975 196.830742 
L 1033.725889 184.508038 
L 1039.099188 174.250357 
L 1044.472488 164.521358 
L 1049.078173 156.603472 
L 1053.683858 149.110839 
L 1058.289543 142.066304 
L 1062.895228 135.469867 
L 1066.733299 130.31743 
L 1070.571371 125.488344 
L 1074.409442 120.983742 
L 1078.247513 116.803623 
L 1082.085584 112.947998 
L 1085.923655 109.416962 
L 1089.761726 106.210534 
L 1093.599797 103.328714 
L 1097.437868 100.771145 
L 1101.275939 98.530628 
L 1105.11401 96.604341 
L 1108.184467 95.289556 
L 1111.254923 94.175878 
L 1115.092994 93.056106 
L 1118.931065 92.20971 
L 1122.769136 91.634764 
L 1126.607207 91.331268 
L 1130.445279 91.292251 
L 1134.28335 91.48159 
L 1138.121421 91.894122 
L 1141.959492 92.529848 
L 1145.797563 93.383941 
L 1150.403248 94.628929 
L 1155.008933 96.096447 
L 1159.614618 97.786494 
L 1165.755532 100.331274 
L 1171.896446 103.132068 
L 1178.037359 106.184288 
L 1185.713501 110.259015 
L 1193.389643 114.587847 
L 1204.136242 120.9278 
L 1217.185684 128.917667 
L 1239.446496 142.854601 
L 1259.404465 155.243975 
L 1271.686292 162.629109 
L 1281.665277 168.411152 
L 1292.411876 174.370707 
L 1304.693703 180.914089 
L 1316.97553 187.201776 
L 1330.024972 193.621854 
L 1343.842028 200.157789 
L 1358.426697 206.816676 
L 1374.546596 213.922403 
L 1400.645479 225.151875 
L 1421.371062 234.153977 
L 1441.329032 243.062964 
L 1458.216544 250.835117 
L 1475.871671 259.233249 
L 1507.343853 274.501482 
L 1538.048421 289.268208 
L 1555.703548 297.575798 
L 1568.75299 303.451153 
L 1580.267203 308.38266 
L 1589.478573 312.088345 
L 1597.922329 315.265962 
L 1606.366086 318.188384 
L 1613.274614 320.368954 
L 1620.183141 322.320521 
L 1627.091669 324.036165 
L 1633.232583 325.333669 
L 1639.373497 326.412103 
L 1644.746796 327.15966 
L 1650.120095 327.703667 
L 1655.493395 328.044087 
L 1660.866694 328.158715 
L 1666.239994 328.023724 
L 1671.613293 327.639106 
L 1676.218978 327.103277 
L 1680.824664 326.369403 
L 1685.430349 325.437484 
L 1690.803648 324.103949 
L 1696.176948 322.520925 
L 1701.550247 320.690093 
L 1706.923547 318.616717 
L 1712.296846 316.319979 
L 1717.670145 313.801635 
L 1723.811059 310.677679 
L 1730.719587 306.935474 
L 1738.395729 302.515951 
L 1751.44517 294.740401 
L 1751.44517 294.740401 
" clip-path="url(#pf9b50b3060)" style="fill: none; stroke: #2ca02c; stroke-width: 1.5; stroke-linecap: square"/>
   </g>
   <g id="line2d_38">
    <path d="M 984.59858 294.740401 
L 1006.859391 268.858 
L 1016.838376 257.620958 
L 1024.514518 249.258069 
L 1032.19066 241.199041 
L 1039.099188 234.231789 
L 1046.007716 227.568206 
L 1052.916244 221.220612 
L 1059.057157 215.880212 
L 1065.198071 210.827429 
L 1071.338985 206.079452 
L 1077.479898 201.647381 
L 1082.853198 198.030662 
L 1088.226497 194.674513 
L 1093.599797 191.582318 
L 1098.973096 188.75295 
L 1104.346396 186.178849 
L 1109.719695 183.858618 
L 1115.092994 181.791285 
L 1120.466294 179.971032 
L 1125.839593 178.396888 
L 1131.212893 177.065428 
L 1136.586192 175.958161 
L 1141.959492 175.072324 
L 1147.332791 174.404224 
L 1152.70609 173.935863 
L 1158.07939 173.664838 
L 1164.220304 173.58104 
L 1171.128831 173.707111 
L 1178.037359 174.059878 
L 1184.945887 174.632422 
L 1191.854415 175.421911 
L 1198.762943 176.425468 
L 1205.671471 177.639433 
L 1212.579998 179.06673 
L 1219.488526 180.718405 
L 1226.397054 182.592935 
L 1234.073196 184.892035 
L 1242.516952 187.664253 
L 1252.495937 191.19718 
L 1261.707308 194.693561 
L 1270.151064 198.139629 
L 1280.130049 202.469152 
L 1291.644262 207.691218 
L 1306.996546 214.91234 
L 1340.003957 230.561863 
L 1349.215327 234.580812 
L 1357.659083 238.01761 
L 1365.335225 240.896661 
L 1373.011367 243.54058 
L 1380.687509 245.954795 
L 1388.363651 248.135368 
L 1395.272179 249.880929 
L 1402.180707 251.417455 
L 1409.089235 252.726029 
L 1415.997763 253.800546 
L 1422.906291 254.651071 
L 1429.814819 255.287395 
L 1437.490961 255.761609 
L 1445.934717 256.05581 
L 1453.610859 256.114762 
L 1461.287001 255.96396 
L 1469.730757 255.568325 
L 1478.942128 254.906 
L 1490.456341 253.810343 
L 1504.273396 252.25452 
L 1548.027406 247.234577 
L 1558.006391 246.400508 
L 1567.217761 245.840795 
L 1575.661517 245.549993 
L 1583.33766 245.489155 
L 1591.013802 245.641469 
L 1598.689944 246.020208 
L 1606.366086 246.643859 
L 1613.274614 247.419307 
L 1620.183141 248.407098 
L 1627.091669 249.606799 
L 1634.000197 251.014328 
L 1640.908725 252.628633 
L 1648.584867 254.648203 
L 1656.261009 256.897255 
L 1664.704765 259.611348 
L 1673.148522 262.558469 
L 1683.127506 266.277889 
L 1694.641719 270.824022 
L 1709.994003 277.132946 
L 1733.02243 286.795756 
L 1751.44517 294.740401 
L 1751.44517 294.740401 
" clip-path="url(#pf9b50b3060)" style="fill: none; stroke: #d62728; stroke-width: 1.5; stroke-linecap: square"/>
   </g>
   <g id="line2d_39">
    <path d="M 984.59858 294.740401 
L 999.950864 281.474886 
L 1010.697463 272.437876 
L 1020.676447 264.335095 
L 1029.120203 257.76049 
L 1037.56396 251.470393 
L 1045.240102 246.039892 
L 1052.916244 240.892866 
L 1059.824772 236.521665 
L 1066.733299 232.401498 
L 1073.641827 228.550879 
L 1080.550355 224.975644 
L 1086.691269 222.035718 
L 1092.832182 219.326712 
L 1098.973096 216.850276 
L 1105.11401 214.620699 
L 1111.254923 212.641284 
L 1117.395837 210.911826 
L 1123.536751 209.431916 
L 1129.677664 208.201422 
L 1135.818578 207.216643 
L 1141.959492 206.475853 
L 1148.100405 205.979387 
L 1154.241319 205.728576 
L 1160.382233 205.723558 
L 1166.523146 205.961303 
L 1172.66406 206.438877 
L 1178.804973 207.157275 
L 1184.945887 208.125431 
L 1191.086801 209.345469 
L 1196.4601 210.622273 
L 1201.8334 212.100482 
L 1207.974313 214.03675 
L 1214.115227 216.238002 
L 1220.256141 218.706201 
L 1226.397054 221.440864 
L 1232.537968 224.436266 
L 1238.678881 227.690753 
L 1245.587409 231.625744 
L 1253.263551 236.246237 
L 1260.172079 240.645013 
L 1266.312993 244.821054 
L 1272.453906 249.256443 
L 1278.59482 253.961539 
L 1284.735734 258.944984 
L 1290.876647 264.206846 
L 1297.017561 269.747651 
L 1303.158475 275.567508 
L 1309.299388 281.676195 
L 1315.440302 288.091069 
L 1321.581216 294.812556 
L 1327.722129 301.842806 
L 1333.863043 309.18272 
L 1340.771571 317.80509 
L 1347.680099 326.798155 
L 1354.588626 336.159529 
L 1361.497154 345.875771 
L 1368.405682 355.943147 
L 1376.081824 367.510878 
L 1383.757966 379.457242 
L 1392.201722 393.000635 
L 1401.413093 408.211523 
L 1412.159692 426.405329 
L 1425.209133 448.977094 
L 1447.469945 488.000561 
L 1461.287001 512.054478 
L 1472.0336 530.367098 
L 1481.24497 545.596851 
L 1488.921112 557.846602 
L 1495.82964 568.473337 
L 1503.505782 579.855558 
L 1511.181924 590.806243 
L 1516.555224 598.140523 
L 1521.928523 605.074092 
L 1527.301823 611.605669 
L 1531.907508 616.856512 
L 1536.513193 621.743361 
L 1541.118878 626.265841 
L 1544.956949 629.754331 
L 1548.79502 632.959967 
L 1552.633091 635.873522 
L 1556.471162 638.494996 
L 1560.309233 640.823942 
L 1563.37969 642.459689 
L 1566.450147 643.883094 
L 1569.520604 645.094159 
L 1572.591061 646.092882 
L 1575.661517 646.879264 
L 1578.731974 647.442346 
L 1581.802431 647.770471 
L 1584.872888 647.863636 
L 1587.943345 647.721841 
L 1591.013802 647.345087 
L 1594.084258 646.728498 
L 1597.154715 645.861364 
L 1600.225172 644.7433 
L 1603.295629 643.374308 
L 1606.366086 641.754387 
L 1609.436543 639.881663 
L 1612.506999 637.747794 
L 1615.577456 635.351783 
L 1618.647913 632.693628 
L 1621.71837 629.773331 
L 1624.788827 626.590716 
L 1627.859283 623.143955 
L 1631.697354 618.463367 
L 1635.535425 613.369291 
L 1639.373497 607.861729 
L 1643.211568 601.942157 
L 1647.049639 595.612451 
L 1650.88771 588.872619 
L 1654.725781 581.72266 
L 1659.331466 572.609169 
L 1663.937151 562.928392 
L 1668.542836 552.680746 
L 1673.148522 541.869222 
L 1677.754207 530.530571 
L 1683.127506 516.649699 
L 1688.500806 502.067679 
L 1693.874105 486.844829 
L 1699.247405 471.012615 
L 1705.388318 452.180048 
L 1712.296846 430.192274 
L 1719.205374 407.403082 
L 1727.64913 378.6788 
L 1736.860501 346.516511 
L 1751.44517 294.740401 
L 1751.44517 294.740401 
" clip-path="url(#pf9b50b3060)" style="fill: none; stroke: #9467bd; stroke-width: 1.5; stroke-linecap: square"/>
   </g>
   <g id="line2d_40">
    <path d="M 984.59858 294.740401 
L 1000.718478 265.821448 
L 1009.162234 251.010751 
L 1017.60599 236.621096 
L 1024.514518 225.260872 
L 1031.423046 214.338798 
L 1037.56396 205.029772 
L 1043.704873 196.1595 
L 1049.078173 188.759507 
L 1054.451472 181.731578 
L 1059.824772 175.098896 
L 1065.198071 168.8617 
L 1069.803756 163.842734 
L 1074.409442 159.133695 
L 1079.015127 154.734581 
L 1083.620812 150.646436 
L 1088.226497 146.872413 
L 1092.832182 143.412728 
L 1097.437868 140.267036 
L 1102.043553 137.425668 
L 1106.649238 134.884226 
L 1110.487309 132.995469 
L 1115.092994 131.000048 
L 1119.69868 129.283917 
L 1124.304365 127.845113 
L 1128.142436 126.857957 
L 1132.748121 125.91282 
L 1137.353806 125.212186 
L 1141.959492 124.75601 
L 1146.565177 124.539709 
L 1151.170862 124.533355 
L 1155.776547 124.731532 
L 1160.382233 125.134238 
L 1165.755532 125.829716 
L 1171.128831 126.739029 
L 1176.502131 127.862137 
L 1183.410659 129.566396 
L 1190.319187 131.52183 
L 1197.995329 133.951219 
L 1207.206699 137.10031 
L 1221.791369 142.416014 
L 1242.516952 150.011009 
L 1254.79878 154.264334 
L 1263.242536 156.995014 
L 1270.918678 159.241375 
L 1277.827206 161.048016 
L 1284.735734 162.608837 
L 1290.876647 163.7865 
L 1297.017561 164.74776 
L 1303.158475 165.488732 
L 1309.299388 166.001574 
L 1315.440302 166.272362 
L 1321.581216 166.300389 
L 1326.954515 166.117607 
L 1332.327814 165.737827 
L 1337.701114 165.161431 
L 1343.842028 164.269317 
L 1349.982941 163.13072 
L 1356.123855 161.749674 
L 1362.264768 160.139411 
L 1368.405682 158.301047 
L 1375.31421 155.990074 
L 1382.222738 153.444362 
L 1389.89888 150.359511 
L 1397.575022 147.047536 
L 1406.786392 142.810935 
L 1417.532991 137.618067 
L 1458.216544 117.650527 
L 1467.427915 113.527431 
L 1475.104057 110.344826 
L 1482.780199 107.418413 
L 1489.688727 105.051249 
L 1495.82964 103.169645 
L 1502.738168 101.277073 
L 1509.646696 99.597336 
L 1515.787609 98.306959 
L 1521.160909 97.403471 
L 1526.534208 96.716308 
L 1531.907508 96.25521 
L 1537.280807 96.042588 
L 1542.654107 96.079331 
L 1548.027406 96.369091 
L 1552.633091 96.82493 
L 1558.006391 97.599037 
L 1562.612076 98.472696 
L 1567.217761 99.549758 
L 1571.823446 100.831108 
L 1576.429132 102.316878 
L 1581.034817 104.013895 
L 1585.640502 105.926004 
L 1590.246187 108.053206 
L 1594.851873 110.395977 
L 1599.457558 112.955758 
L 1604.830857 116.216568 
L 1610.204157 119.771938 
L 1615.577456 123.615521 
L 1620.950756 127.746144 
L 1626.324055 132.161992 
L 1631.697354 136.852175 
L 1637.070654 141.814878 
L 1643.211568 147.815679 
L 1649.352481 154.148141 
L 1655.493395 160.809987 
L 1662.401923 168.677355 
L 1669.310451 176.918567 
L 1676.218978 185.520403 
L 1683.89512 195.451582 
L 1691.571262 205.763248 
L 1700.015019 217.487798 
L 1709.226389 230.702977 
L 1719.205374 245.427374 
L 1732.254815 265.171087 
L 1750.677556 293.552599 
L 1751.44517 294.740401 
L 1751.44517 294.740401 
" clip-path="url(#pf9b50b3060)" style="fill: none; stroke: #8c564b; stroke-width: 1.5; stroke-linecap: square"/>
   </g>
   <g id="line2d_41">
    <path d="M 984.59858 294.740401 
L 999.183249 277.153605 
L 1009.162234 265.398946 
L 1018.373605 254.891809 
L 1026.049747 246.452954 
L 1033.725889 238.33564 
L 1040.634417 231.346777 
L 1047.542944 224.682166 
L 1053.683858 219.042909 
L 1059.824772 213.6949 
L 1065.965685 208.638876 
L 1072.106599 203.881904 
L 1078.247513 199.426952 
L 1084.388426 195.273424 
L 1090.52934 191.419193 
L 1095.902639 188.292105 
L 1101.275939 185.391395 
L 1106.649238 182.713261 
L 1112.022538 180.257671 
L 1118.163451 177.712481 
L 1124.304365 175.432292 
L 1130.445279 173.415124 
L 1136.586192 171.63628 
L 1142.727106 170.088229 
L 1148.868019 168.764755 
L 1155.008933 167.649833 
L 1161.149847 166.742313 
L 1168.058375 165.940158 
L 1174.966902 165.352563 
L 1182.643044 164.926324 
L 1191.086801 164.679794 
L 1201.8334 164.627647 
L 1216.418069 164.802225 
L 1234.073196 164.935615 
L 1244.819795 164.756852 
L 1254.031166 164.389096 
L 1261.707308 163.8897 
L 1268.615835 163.205611 
L 1275.524363 162.292442 
L 1282.432891 161.136342 
L 1289.341419 159.734289 
L 1295.482333 158.261307 
L 1301.623246 156.563905 
L 1307.76416 154.643002 
L 1313.905074 152.50246 
L 1320.045987 150.142708 
L 1326.954515 147.232341 
L 1333.863043 144.05747 
L 1340.771571 140.624932 
L 1347.680099 136.955914 
L 1355.356241 132.609018 
L 1363.799997 127.548889 
L 1372.243753 122.218278 
L 1382.222738 115.652437 
L 1394.504565 107.26936 
L 1414.462534 93.328744 
L 1429.047204 83.234929 
L 1439.793803 76.049089 
L 1449.005174 70.178186 
L 1455.913701 66.011466 
L 1462.822229 62.087426 
L 1468.963143 58.822922 
L 1475.104057 55.807055 
L 1481.24497 53.042017 
L 1486.61827 50.856418 
L 1491.991569 48.901788 
L 1497.364869 47.175835 
L 1503.505782 45.433753 
L 1509.646696 43.92001 
L 1515.019995 42.802949 
L 1519.625681 42.06647 
L 1524.231366 41.541188 
L 1528.837051 41.227552 
L 1533.442736 41.137153 
L 1538.048421 41.27508 
L 1542.654107 41.641332 
L 1547.259792 42.239457 
L 1551.865477 43.077825 
L 1556.471162 44.156787 
L 1561.076848 45.476655 
L 1565.682533 47.042616 
L 1570.288218 48.856511 
L 1574.893903 50.91834 
L 1579.499589 53.230406 
L 1584.105274 55.7971 
L 1588.710959 58.618527 
L 1593.316644 61.694556 
L 1597.922329 65.023635 
L 1602.528015 68.60532 
L 1607.1337 72.439611 
L 1612.506999 77.228408 
L 1617.880299 82.351712 
L 1623.253598 87.809476 
L 1628.626898 93.59574 
L 1634.000197 99.702677 
L 1639.373497 106.13025 
L 1645.51441 113.854694 
L 1651.655324 121.967695 
L 1657.796237 130.466746 
L 1663.937151 139.323759 
L 1670.845679 149.706343 
L 1677.754207 160.515011 
L 1684.662735 171.724664 
L 1692.338877 184.631266 
L 1700.782633 199.297408 
L 1709.226389 214.428956 
L 1718.43776 231.401788 
L 1729.951973 253.174422 
L 1743.769028 279.827211 
L 1751.44517 294.740401 
L 1751.44517 294.740401 
" clip-path="url(#pf9b50b3060)" style="fill: none; stroke: #e377c2; stroke-width: 1.5; stroke-linecap: square"/>
   </g>
   <g id="patch_8">
    <path d="M 946.25625 678.2 
L 946.25625 10.8 
" style="fill: none; stroke: #000000; stroke-width: 0.8; stroke-linejoin: miter; stroke-linecap: square"/>
   </g>
   <g id="patch_9">
    <path d="M 1789.7875 678.2 
L 1789.7875 10.8 
" style="fill: none; stroke: #000000; stroke-width: 0.8; stroke-linejoin: miter; stroke-linecap: square"/>
   </g>
   <g id="patch_10">
    <path d="M 946.25625 678.2 
L 1789.7875 678.2 
" style="fill: none; stroke: #000000; stroke-width: 0.8; stroke-linejoin: miter; stroke-linecap: square"/>
   </g>
   <g id="patch_11">
    <path d="M 946.25625 10.8 
L 1789.7875 10.8 
" style="fill: none; stroke: #000000; stroke-width: 0.8; stroke-linejoin: miter; stroke-linecap: square"/>
   </g>
  </g>
  <g id="axes_3">
   <g id="patch_12">
    <path d="M 1845.9625 678.2 
L 2689.49375 678.2 
L 2689.49375 10.8 
L 1845.9625 10.8 
z
" style="fill: #ffffff"/>
   </g>
   <g id="matplotlib.axis_5">
    <g id="xtick_17">
     <g id="line2d_42">
      <g>
       <use xlink:href="#m8396d8aafb" x="1884.30483" y="678.2" style="stroke: #000000; stroke-width: 0.8"/>
      </g>
     </g>
     <g id="text_32">
      <!-- 0.00 -->
      <g transform="translate(1873.172017 692.798437)scale(0.1 -0.1)">
       <use xlink:href="#DejaVuSans-30"/>
       <use xlink:href="#DejaVuSans-2e" x="63.623047"/>
       <use xlink:href="#DejaVuSans-30" x="95.410156"/>
       <use xlink:href="#DejaVuSans-30" x="159.033203"/>
      </g>
     </g>
    </g>
    <g id="xtick_18">
     <g id="line2d_43">
      <g>
       <use xlink:href="#m8396d8aafb" x="1993.75973" y="678.2" style="stroke: #000000; stroke-width: 0.8"/>
      </g>
     </g>
     <g id="text_33">
      <!-- 0.25 -->
      <g transform="translate(1982.626917 692.798437)scale(0.1 -0.1)">
       <use xlink:href="#DejaVuSans-30"/>
       <use xlink:href="#DejaVuSans-2e" x="63.623047"/>
       <use xlink:href="#DejaVuSans-32" x="95.410156"/>
       <use xlink:href="#DejaVuSans-35" x="159.033203"/>
      </g>
     </g>
    </g>
    <g id="xtick_19">
     <g id="line2d_44">
      <g>
       <use xlink:href="#m8396d8aafb" x="2103.21463" y="678.2" style="stroke: #000000; stroke-width: 0.8"/>
      </g>
     </g>
     <g id="text_34">
      <!-- 0.50 -->
      <g transform="translate(2092.081817 692.798437)scale(0.1 -0.1)">
       <use xlink:href="#DejaVuSans-30"/>
       <use xlink:href="#DejaVuSans-2e" x="63.623047"/>
       <use xlink:href="#DejaVuSans-35" x="95.410156"/>
       <use xlink:href="#DejaVuSans-30" x="159.033203"/>
      </g>
     </g>
    </g>
    <g id="xtick_20">
     <g id="line2d_45">
      <g>
       <use xlink:href="#m8396d8aafb" x="2212.66953" y="678.2" style="stroke: #000000; stroke-width: 0.8"/>
      </g>
     </g>
     <g id="text_35">
      <!-- 0.75 -->
      <g transform="translate(2201.536717 692.798437)scale(0.1 -0.1)">
       <use xlink:href="#DejaVuSans-30"/>
       <use xlink:href="#DejaVuSans-2e" x="63.623047"/>
       <use xlink:href="#DejaVuSans-37" x="95.410156"/>
       <use xlink:href="#DejaVuSans-35" x="159.033203"/>
      </g>
     </g>
    </g>
    <g id="xtick_21">
     <g id="line2d_46">
      <g>
       <use xlink:href="#m8396d8aafb" x="2322.124429" y="678.2" style="stroke: #000000; stroke-width: 0.8"/>
      </g>
     </g>
     <g id="text_36">
      <!-- 1.00 -->
      <g transform="translate(2310.991617 692.798437)scale(0.1 -0.1)">
       <use xlink:href="#DejaVuSans-31"/>
       <use xlink:href="#DejaVuSans-2e" x="63.623047"/>
       <use xlink:href="#DejaVuSans-30" x="95.410156"/>
       <use xlink:href="#DejaVuSans-30" x="159.033203"/>
      </g>
     </g>
    </g>
    <g id="xtick_22">
     <g id="line2d_47">
      <g>
       <use xlink:href="#m8396d8aafb" x="2431.579329" y="678.2" style="stroke: #000000; stroke-width: 0.8"/>
      </g>
     </g>
     <g id="text_37">
      <!-- 1.25 -->
      <g transform="translate(2420.446517 692.798437)scale(0.1 -0.1)">
       <use xlink:href="#DejaVuSans-31"/>
       <use xlink:href="#DejaVuSans-2e" x="63.623047"/>
       <use xlink:href="#DejaVuSans-32" x="95.410156"/>
       <use xlink:href="#DejaVuSans-35" x="159.033203"/>
      </g>
     </g>
    </g>
    <g id="xtick_23">
     <g id="line2d_48">
      <g>
       <use xlink:href="#m8396d8aafb" x="2541.034229" y="678.2" style="stroke: #000000; stroke-width: 0.8"/>
      </g>
     </g>
     <g id="text_38">
      <!-- 1.50 -->
      <g transform="translate(2529.901417 692.798437)scale(0.1 -0.1)">
       <use xlink:href="#DejaVuSans-31"/>
       <use xlink:href="#DejaVuSans-2e" x="63.623047"/>
       <use xlink:href="#DejaVuSans-35" x="95.410156"/>
       <use xlink:href="#DejaVuSans-30" x="159.033203"/>
      </g>
     </g>
    </g>
    <g id="xtick_24">
     <g id="line2d_49">
      <g>
       <use xlink:href="#m8396d8aafb" x="2650.489129" y="678.2" style="stroke: #000000; stroke-width: 0.8"/>
      </g>
     </g>
     <g id="text_39">
      <!-- 1.75 -->
      <g transform="translate(2639.356317 692.798437)scale(0.1 -0.1)">
       <use xlink:href="#DejaVuSans-31"/>
       <use xlink:href="#DejaVuSans-2e" x="63.623047"/>
       <use xlink:href="#DejaVuSans-37" x="95.410156"/>
       <use xlink:href="#DejaVuSans-35" x="159.033203"/>
      </g>
     </g>
    </g>
    <g id="text_40">
     <!-- Time -->
     <g transform="translate(2255.494531 706.476562)scale(0.1 -0.1)">
      <use xlink:href="#DejaVuSans-54"/>
      <use xlink:href="#DejaVuSans-69" x="57.958984"/>
      <use xlink:href="#DejaVuSans-6d" x="85.742188"/>
      <use xlink:href="#DejaVuSans-65" x="183.154297"/>
     </g>
    </g>
   </g>
   <g id="matplotlib.axis_6">
    <g id="ytick_12">
     <g id="line2d_50">
      <g>
       <use xlink:href="#m22b0423e4c" x="1845.9625" y="645.235773" style="stroke: #000000; stroke-width: 0.8"/>
      </g>
     </g>
     <g id="text_41">
      <!-- −6 -->
      <g transform="translate(1824.220312 649.034992)scale(0.1 -0.1)">
       <defs>
        <path id="DejaVuSans-36" d="M 2113 2584 
Q 1688 2584 1439 2293 
Q 1191 2003 1191 1497 
Q 1191 994 1439 701 
Q 1688 409 2113 409 
Q 2538 409 2786 701 
Q 3034 994 3034 1497 
Q 3034 2003 2786 2293 
Q 2538 2584 2113 2584 
z
M 3366 4563 
L 3366 3988 
Q 3128 4100 2886 4159 
Q 2644 4219 2406 4219 
Q 1781 4219 1451 3797 
Q 1122 3375 1075 2522 
Q 1259 2794 1537 2939 
Q 1816 3084 2150 3084 
Q 2853 3084 3261 2657 
Q 3669 2231 3669 1497 
Q 3669 778 3244 343 
Q 2819 -91 2113 -91 
Q 1303 -91 875 529 
Q 447 1150 447 2328 
Q 447 3434 972 4092 
Q 1497 4750 2381 4750 
Q 2619 4750 2861 4703 
Q 3103 4656 3366 4563 
z
" transform="scale(0.015625)"/>
       </defs>
       <use xlink:href="#DejaVuSans-2212"/>
       <use xlink:href="#DejaVuSans-36" x="83.789062"/>
      </g>
     </g>
    </g>
    <g id="ytick_13">
     <g id="line2d_51">
      <g>
       <use xlink:href="#m22b0423e4c" x="1845.9625" y="546.997805" style="stroke: #000000; stroke-width: 0.8"/>
      </g>
     </g>
     <g id="text_42">
      <!-- −4 -->
      <g transform="translate(1824.220312 550.797024)scale(0.1 -0.1)">
       <defs>
        <path id="DejaVuSans-34" d="M 2419 4116 
L 825 1625 
L 2419 1625 
L 2419 4116 
z
M 2253 4666 
L 3047 4666 
L 3047 1625 
L 3713 1625 
L 3713 1100 
L 3047 1100 
L 3047 0 
L 2419 0 
L 2419 1100 
L 313 1100 
L 313 1709 
L 2253 4666 
z
" transform="scale(0.015625)"/>
       </defs>
       <use xlink:href="#DejaVuSans-2212"/>
       <use xlink:href="#DejaVuSans-34" x="83.789062"/>
      </g>
     </g>
    </g>
    <g id="ytick_14">
     <g id="line2d_52">
      <g>
       <use xlink:href="#m22b0423e4c" x="1845.9625" y="448.759837" style="stroke: #000000; stroke-width: 0.8"/>
      </g>
     </g>
     <g id="text_43">
      <!-- −2 -->
      <g transform="translate(1824.220312 452.559056)scale(0.1 -0.1)">
       <use xlink:href="#DejaVuSans-2212"/>
       <use xlink:href="#DejaVuSans-32" x="83.789062"/>
      </g>
     </g>
    </g>
    <g id="ytick_15">
     <g id="line2d_53">
      <g>
       <use xlink:href="#m22b0423e4c" x="1845.9625" y="350.521869" style="stroke: #000000; stroke-width: 0.8"/>
      </g>
     </g>
     <g id="text_44">
      <!-- 0 -->
      <g transform="translate(1832.6 354.321088)scale(0.1 -0.1)">
       <use xlink:href="#DejaVuSans-30"/>
      </g>
     </g>
    </g>
    <g id="ytick_16">
     <g id="line2d_54">
      <g>
       <use xlink:href="#m22b0423e4c" x="1845.9625" y="252.283901" style="stroke: #000000; stroke-width: 0.8"/>
      </g>
     </g>
     <g id="text_45">
      <!-- 2 -->
      <g transform="translate(1832.6 256.08312)scale(0.1 -0.1)">
       <use xlink:href="#DejaVuSans-32"/>
      </g>
     </g>
    </g>
    <g id="ytick_17">
     <g id="line2d_55">
      <g>
       <use xlink:href="#m22b0423e4c" x="1845.9625" y="154.045933" style="stroke: #000000; stroke-width: 0.8"/>
      </g>
     </g>
     <g id="text_46">
      <!-- 4 -->
      <g transform="translate(1832.6 157.845152)scale(0.1 -0.1)">
       <use xlink:href="#DejaVuSans-34"/>
      </g>
     </g>
    </g>
    <g id="ytick_18">
     <g id="line2d_56">
      <g>
       <use xlink:href="#m22b0423e4c" x="1845.9625" y="55.807965" style="stroke: #000000; stroke-width: 0.8"/>
      </g>
     </g>
     <g id="text_47">
      <!-- 6 -->
      <g transform="translate(1832.6 59.607184)scale(0.1 -0.1)">
       <use xlink:href="#DejaVuSans-36"/>
      </g>
     </g>
    </g>
    <g id="text_48">
     <!-- Acceleration -->
     <g transform="translate(1818.140625 375.570313)rotate(-90)scale(0.1 -0.1)">
      <defs>
       <path id="DejaVuSans-41" d="M 2188 4044 
L 1331 1722 
L 3047 1722 
L 2188 4044 
z
M 1831 4666 
L 2547 4666 
L 4325 0 
L 3669 0 
L 3244 1197 
L 1141 1197 
L 716 0 
L 50 0 
L 1831 4666 
z
" transform="scale(0.015625)"/>
       <path id="DejaVuSans-72" d="M 2631 2963 
Q 2534 3019 2420 3045 
Q 2306 3072 2169 3072 
Q 1681 3072 1420 2755 
Q 1159 2438 1159 1844 
L 1159 0 
L 581 0 
L 581 3500 
L 1159 3500 
L 1159 2956 
Q 1341 3275 1631 3429 
Q 1922 3584 2338 3584 
Q 2397 3584 2469 3576 
Q 2541 3569 2628 3553 
L 2631 2963 
z
" transform="scale(0.015625)"/>
       <path id="DejaVuSans-61" d="M 2194 1759 
Q 1497 1759 1228 1600 
Q 959 1441 959 1056 
Q 959 750 1161 570 
Q 1363 391 1709 391 
Q 2188 391 2477 730 
Q 2766 1069 2766 1631 
L 2766 1759 
L 2194 1759 
z
M 3341 1997 
L 3341 0 
L 2766 0 
L 2766 531 
Q 2569 213 2275 61 
Q 1981 -91 1556 -91 
Q 1019 -91 701 211 
Q 384 513 384 1019 
Q 384 1609 779 1909 
Q 1175 2209 1959 2209 
L 2766 2209 
L 2766 2266 
Q 2766 2663 2505 2880 
Q 2244 3097 1772 3097 
Q 1472 3097 1187 3025 
Q 903 2953 641 2809 
L 641 3341 
Q 956 3463 1253 3523 
Q 1550 3584 1831 3584 
Q 2591 3584 2966 3190 
Q 3341 2797 3341 1997 
z
" transform="scale(0.015625)"/>
      </defs>
      <use xlink:href="#DejaVuSans-41"/>
      <use xlink:href="#DejaVuSans-63" x="66.658203"/>
      <use xlink:href="#DejaVuSans-63" x="121.638672"/>
      <use xlink:href="#DejaVuSans-65" x="176.619141"/>
      <use xlink:href="#DejaVuSans-6c" x="238.142578"/>
      <use xlink:href="#DejaVuSans-65" x="265.925781"/>
      <use xlink:href="#DejaVuSans-72" x="327.449219"/>
      <use xlink:href="#DejaVuSans-61" x="368.5625"/>
      <use xlink:href="#DejaVuSans-74" x="429.841797"/>
      <use xlink:href="#DejaVuSans-69" x="469.050781"/>
      <use xlink:href="#DejaVuSans-6f" x="496.833984"/>
      <use xlink:href="#DejaVuSans-6e" x="558.015625"/>
     </g>
    </g>
   </g>
   <g id="line2d_57">
    <path d="M 1884.30483 283.952446 
L 1900.424728 285.745826 
L 1916.544626 291.95187 
L 1932.664524 302.544633 
L 1949.552037 316.196078 
L 1967.207164 332.08164 
L 1987.165133 350.575662 
L 1997.144118 359.591645 
L 2012.496402 372.058389 
L 2028.6163 381.6725 
L 2043.968584 387.565116 
L 2047.039041 387.869703 
L 2060.088483 389.032397 
L 2076.975995 386.251762 
L 2093.863508 382.040434 
L 2113.821477 376.122559 
L 2141.455588 367.632198 
L 2156.807872 364.48015 
L 2176.765842 358.791969 
L 2189.047669 355.160289 
L 2205.167567 351.489597 
L 2225.893151 348.365696 
L 2252.759648 344.741732 
L 2269.647161 343.063721 
L 2290.372744 341.940007 
L 2303.422186 341.464136 
L 2319.542084 341.281189 
L 2334.126754 341.533109 
L 2403.212032 345.142502 
L 2413.191017 345.554504 
L 2428.543301 346.914392 
L 2466.924011 352.635815 
L 2478.438224 354.285161 
L 2508.375178 357.778646 
L 2526.030305 358.834714 
L 2542.150203 359.265466 
L 2555.967259 359.211357 
L 2572.854772 357.740658 
L 2615.073553 352.018334 
L 2620.446852 351.318203 
L 2637.334365 350.039805 
L 2651.15142 349.590127 
L 2651.15142 349.590127 
" clip-path="url(#p06a00c4f90)" style="fill: none; stroke: #1f77b4; stroke-width: 1.5; stroke-linecap: square"/>
   </g>
   <g id="line2d_58">
    <path d="M 1884.30483 62.424618 
L 1899.657114 70.94568 
L 1900.424728 71.524956 
L 1916.544626 97.826631 
L 1932.664524 134.958593 
L 1951.087265 185.033189 
L 1968.742392 234.31388 
L 1980.256605 265.871412 
L 1996.376503 303.686604 
L 2011.728788 332.451066 
L 2012.496402 333.564491 
L 2027.848686 349.337044 
L 2028.6163 349.61452 
L 2045.503813 350.522751 
L 2091.560665 350.626718 
L 2116.891934 350.676655 
L 2146.828888 350.64568 
L 2167.554471 350.634908 
L 2198.259039 350.38774 
L 2222.822694 350.211604 
L 2265.041475 350.510702 
L 2422.402387 350.434324 
L 2432.381372 350.413355 
L 2455.409798 350.518503 
L 2506.83995 350.521728 
L 2507.607564 350.702428 
L 2522.959848 362.266335 
L 2523.727462 363.205583 
L 2539.079747 389.211606 
L 2540.614975 392.73258 
L 2555.199645 427.801012 
L 2561.340558 445.509108 
L 2572.854772 479.085796 
L 2591.277512 535.33202 
L 2603.55934 571.856282 
L 2618.911624 611.424649 
L 2620.446852 614.395731 
L 2635.031522 640.459929 
L 2635.799136 640.996134 
L 2651.15142 647.863636 
L 2651.15142 647.863636 
" clip-path="url(#p06a00c4f90)" style="fill: none; stroke: #ff7f0e; stroke-width: 1.5; stroke-linecap: square"/>
   </g>
   <g id="line2d_59">
    <path d="M 1884.30483 142.666681 
L 1900.424728 146.828353 
L 1916.544626 159.377544 
L 1932.664524 179.638722 
L 1948.784423 205.353765 
L 1966.439549 237.844191 
L 2000.214575 302.070983 
L 2012.496402 324.674032 
L 2028.6163 350.261449 
L 2043.968584 370.415581 
L 2047.039041 373.245182 
L 2060.088483 385.090806 
L 2076.208381 394.496552 
L 2092.328279 400.487788 
L 2108.448177 403.458643 
L 2124.568076 404.873848 
L 2141.455588 404.769991 
L 2156.807872 403.813979 
L 2172.927771 401.460895 
L 2189.047669 398.100675 
L 2212.076095 394.662493 
L 2227.428379 392.609927 
L 2239.710207 391.167797 
L 2267.344318 388.547424 
L 2272.717617 388.284911 
L 2286.534673 387.751808 
L 2301.119343 387.672054 
L 2341.035282 389.786565 
L 2351.78188 390.568807 
L 2365.598936 391.716461 
L 2383.254063 392.473835 
L 2397.838733 392.691559 
L 2425.472844 392.110183 
L 2445.430813 391.505575 
L 2462.318326 389.497935 
L 2476.135382 387.357331 
L 2492.25528 383.510887 
L 2508.375178 378.362995 
L 2524.495077 371.53313 
L 2539.847361 363.749075 
L 2555.967259 353.8079 
L 2572.854772 341.062664 
L 2588.97467 328.135574 
L 2604.326954 316.805586 
L 2619.679238 306.709758 
L 2635.031522 300.139775 
L 2637.334365 299.807959 
L 2651.15142 298.078539 
L 2651.15142 298.078539 
" clip-path="url(#p06a00c4f90)" style="fill: none; stroke: #2ca02c; stroke-width: 1.5; stroke-linecap: square"/>
   </g>
   <g id="line2d_60">
    <path d="M 1884.30483 249.109585 
L 1900.424728 249.809013 
L 1916.544626 254.412164 
L 1932.664524 261.659854 
L 1948.784423 270.611007 
L 1965.671935 281.860358 
L 1981.791834 293.668568 
L 2000.214575 308.13787 
L 2017.869701 321.454147 
L 2029.383914 329.862046 
L 2045.503813 340.469483 
L 2060.088483 349.097755 
L 2082.349294 358.155896 
L 2101.53965 365.60021 
L 2112.286248 369.822698 
L 2124.568076 374.789156 
L 2140.687974 379.76721 
L 2157.575487 383.579236 
L 2172.160156 387.71107 
L 2189.047669 390.325832 
L 2205.167567 391.809568 
L 2220.519851 392.331956 
L 2235.872135 390.613969 
L 2252.759648 385.957708 
L 2278.090917 377.254421 
L 2286.534673 374.295018 
L 2301.886957 368.401062 
L 2318.77447 361.337967 
L 2332.591525 356.064008 
L 2352.549495 350.243785 
L 2364.831322 346.529015 
L 2380.183606 342.864717 
L 2396.303504 340.686316 
L 2414.726245 340.113991 
L 2428.543301 340.173044 
L 2444.663199 341.820177 
L 2460.783098 344.845534 
L 2476.902996 349.113382 
L 2493.790508 354.518874 
L 2511.445635 360.98465 
L 2535.241675 370.050677 
L 2542.150203 372.539909 
L 2557.502487 377.606777 
L 2572.087157 381.687341 
L 2588.207056 384.763552 
L 2604.326954 386.402927 
L 2620.446852 386.660646 
L 2635.799136 387.935797 
L 2651.15142 387.848913 
L 2651.15142 387.848913 
" clip-path="url(#p06a00c4f90)" style="fill: none; stroke: #d62728; stroke-width: 1.5; stroke-linecap: square"/>
   </g>
   <g id="line2d_61">
    <path d="M 1884.30483 274.830462 
L 1900.424728 276.581565 
L 1917.31224 280.637909 
L 1933.432139 286.081606 
L 1950.319651 293.091185 
L 1966.439549 300.502488 
L 1984.094676 309.449174 
L 1998.679346 317.299572 
L 2034.757214 337.918382 
L 2087.722594 367.735612 
L 2096.16635 372.732094 
L 2123.032847 389.112599 
L 2130.708989 393.698409 
L 2139.92036 399.181611 
L 2156.040258 405.326164 
L 2174.462999 416.416024 
L 2205.167567 436.165118 
L 2242.780663 462.535883 
L 2255.062491 470.665165 
L 2268.879546 479.381349 
L 2284.999445 488.239747 
L 2300.351729 495.301546 
L 2315.704013 500.058806 
L 2331.823911 502.528854 
L 2347.943809 502.573239 
L 2363.296094 499.53838 
L 2364.831322 498.926136 
L 2379.415992 492.432934 
L 2382.486449 490.365476 
L 2397.838733 479.971105 
L 2411.655788 471.121219 
L 2427.775687 451.593912 
L 2443.895585 427.503674 
L 2460.015483 399.675926 
L 2476.135382 368.068754 
L 2493.022894 331.363342 
L 2509.910407 292.156895 
L 2536.00929 228.990652 
L 2553.664416 186.33621 
L 2558.270102 175.514132 
L 2572.087157 143.690597 
L 2587.439441 111.373392 
L 2603.55934 82.021344 
L 2618.911624 59.685842 
L 2620.446852 58.159121 
L 2635.031522 45.204858 
L 2636.566751 44.733839 
L 2651.15142 41.136364 
L 2651.15142 41.136364 
" clip-path="url(#p06a00c4f90)" style="fill: none; stroke: #9467bd; stroke-width: 1.5; stroke-linecap: square"/>
   </g>
   <g id="line2d_62">
    <path d="M 1884.30483 193.824395 
L 1900.424728 196.39522 
L 1916.544626 204.689588 
L 1932.664524 217.604714 
L 1948.784423 234.011431 
L 1965.671935 254.160407 
L 1989.467976 284.451865 
L 1998.679346 296.128985 
L 2013.264016 313.889956 
L 2028.6163 331.209624 
L 2044.736198 347.195919 
L 2060.088483 360.012276 
L 2076.208381 370.320762 
L 2092.328279 377.603355 
L 2108.448177 381.623464 
L 2124.568076 382.877073 
L 2141.455588 381.461838 
L 2156.040258 379.460488 
L 2172.160156 374.052722 
L 2189.815283 366.026998 
L 2205.935181 357.761443 
L 2222.822694 348.255242 
L 2240.477821 337.934879 
L 2254.294876 330.216998 
L 2268.879546 322.683689 
L 2284.23183 316.191496 
L 2300.351729 310.93721 
L 2315.704013 307.879062 
L 2331.823911 306.955862 
L 2347.943809 308.382744 
L 2364.063708 312.052736 
L 2380.183606 318.063623 
L 2396.303504 325.748143 
L 2411.655788 331.717664 
L 2428.543301 342.785202 
L 2446.966042 356.69294 
L 2461.550712 368.221748 
L 2478.438224 382.446558 
L 2522.959848 421.425094 
L 2529.868376 427.09168 
L 2541.382589 436.382223 
L 2556.734873 447.888119 
L 2572.087157 458.220783 
L 2588.207056 467.362563 
L 2603.55934 474.62425 
L 2619.679238 480.376849 
L 2635.799136 483.739676 
L 2651.15142 484.615072 
L 2651.15142 484.615072 
" clip-path="url(#p06a00c4f90)" style="fill: none; stroke: #8c564b; stroke-width: 1.5; stroke-linecap: square"/>
   </g>
   <g id="line2d_63">
    <path d="M 1884.30483 245.045382 
L 1900.424728 247.281166 
L 1916.544626 252.736741 
L 1932.664524 260.385934 
L 1949.552037 270.436026 
L 1969.510006 283.937541 
L 1997.144118 302.980112 
L 2014.03163 314.144765 
L 2029.383914 323.388648 
L 2046.271427 332.226585 
L 2060.856097 339.116178 
L 2076.975995 345.291325 
L 2092.328279 349.565839 
L 2108.448177 351.780929 
L 2124.568076 351.500702 
L 2142.223202 348.517981 
L 2156.040258 345.578473 
L 2175.230613 337.561298 
L 2189.047669 331.3225 
L 2213.611324 318.774138 
L 2224.357922 313.468632 
L 2237.407364 307.2901 
L 2252.759648 300.82706 
L 2268.111932 295.623348 
L 2284.23183 291.832714 
L 2300.351729 289.954192 
L 2315.704013 289.815647 
L 2331.823911 291.892419 
L 2347.943809 296.405002 
L 2364.063708 303.570326 
L 2380.183606 312.885369 
L 2396.303504 323.92898 
L 2411.655788 332.031806 
L 2429.310915 347.389483 
L 2446.198428 363.276031 
L 2464.621169 381.53584 
L 2480.741067 398.008443 
L 2507.607564 425.814795 
L 2526.797919 444.932579 
L 2541.382589 458.822549 
L 2556.734873 472.400086 
L 2572.854772 485.243921 
L 2588.207056 496.278688 
L 2604.326954 505.644051 
L 2619.679238 513.09666 
L 2635.031522 517.719371 
L 2638.101979 518.025391 
L 2651.15142 519.196697 
L 2651.15142 519.196697 
" clip-path="url(#p06a00c4f90)" style="fill: none; stroke: #e377c2; stroke-width: 1.5; stroke-linecap: square"/>
   </g>
   <g id="patch_13">
    <path d="M 1845.9625 678.2 
L 1845.9625 10.8 
" style="fill: none; stroke: #000000; stroke-width: 0.8; stroke-linejoin: miter; stroke-linecap: square"/>
   </g>
   <g id="patch_14">
    <path d="M 2689.49375 678.2 
L 2689.49375 10.8 
" style="fill: none; stroke: #000000; stroke-width: 0.8; stroke-linejoin: miter; stroke-linecap: square"/>
   </g>
   <g id="patch_15">
    <path d="M 1845.9625 678.2 
L 2689.49375 678.2 
" style="fill: none; stroke: #000000; stroke-width: 0.8; stroke-linejoin: miter; stroke-linecap: square"/>
   </g>
   <g id="patch_16">
    <path d="M 1845.9625 10.8 
L 2689.49375 10.8 
" style="fill: none; stroke: #000000; stroke-width: 0.8; stroke-linejoin: miter; stroke-linecap: square"/>
   </g>
  </g>
  <g id="axes_4">
   <g id="patch_17">
    <path d="M 2745.66875 678.2 
L 3589.2 678.2 
L 3589.2 10.8 
L 2745.66875 10.8 
z
" style="fill: #ffffff"/>
   </g>
   <g id="matplotlib.axis_7">
    <g id="xtick_25">
     <g id="line2d_64">
      <g>
       <use xlink:href="#m8396d8aafb" x="2784.01108" y="678.2" style="stroke: #000000; stroke-width: 0.8"/>
      </g>
     </g>
     <g id="text_49">
      <!-- 0.00 -->
      <g transform="translate(2772.878267 692.798437)scale(0.1 -0.1)">
       <use xlink:href="#DejaVuSans-30"/>
       <use xlink:href="#DejaVuSans-2e" x="63.623047"/>
       <use xlink:href="#DejaVuSans-30" x="95.410156"/>
       <use xlink:href="#DejaVuSans-30" x="159.033203"/>
      </g>
     </g>
    </g>
    <g id="xtick_26">
     <g id="line2d_65">
      <g>
       <use xlink:href="#m8396d8aafb" x="2893.46598" y="678.2" style="stroke: #000000; stroke-width: 0.8"/>
      </g>
     </g>
     <g id="text_50">
      <!-- 0.25 -->
      <g transform="translate(2882.333167 692.798437)scale(0.1 -0.1)">
       <use xlink:href="#DejaVuSans-30"/>
       <use xlink:href="#DejaVuSans-2e" x="63.623047"/>
       <use xlink:href="#DejaVuSans-32" x="95.410156"/>
       <use xlink:href="#DejaVuSans-35" x="159.033203"/>
      </g>
     </g>
    </g>
    <g id="xtick_27">
     <g id="line2d_66">
      <g>
       <use xlink:href="#m8396d8aafb" x="3002.92088" y="678.2" style="stroke: #000000; stroke-width: 0.8"/>
      </g>
     </g>
     <g id="text_51">
      <!-- 0.50 -->
      <g transform="translate(2991.788067 692.798437)scale(0.1 -0.1)">
       <use xlink:href="#DejaVuSans-30"/>
       <use xlink:href="#DejaVuSans-2e" x="63.623047"/>
       <use xlink:href="#DejaVuSans-35" x="95.410156"/>
       <use xlink:href="#DejaVuSans-30" x="159.033203"/>
      </g>
     </g>
    </g>
    <g id="xtick_28">
     <g id="line2d_67">
      <g>
       <use xlink:href="#m8396d8aafb" x="3112.37578" y="678.2" style="stroke: #000000; stroke-width: 0.8"/>
      </g>
     </g>
     <g id="text_52">
      <!-- 0.75 -->
      <g transform="translate(3101.242967 692.798437)scale(0.1 -0.1)">
       <use xlink:href="#DejaVuSans-30"/>
       <use xlink:href="#DejaVuSans-2e" x="63.623047"/>
       <use xlink:href="#DejaVuSans-37" x="95.410156"/>
       <use xlink:href="#DejaVuSans-35" x="159.033203"/>
      </g>
     </g>
    </g>
    <g id="xtick_29">
     <g id="line2d_68">
      <g>
       <use xlink:href="#m8396d8aafb" x="3221.830679" y="678.2" style="stroke: #000000; stroke-width: 0.8"/>
      </g>
     </g>
     <g id="text_53">
      <!-- 1.00 -->
      <g transform="translate(3210.697867 692.798437)scale(0.1 -0.1)">
       <use xlink:href="#DejaVuSans-31"/>
       <use xlink:href="#DejaVuSans-2e" x="63.623047"/>
       <use xlink:href="#DejaVuSans-30" x="95.410156"/>
       <use xlink:href="#DejaVuSans-30" x="159.033203"/>
      </g>
     </g>
    </g>
    <g id="xtick_30">
     <g id="line2d_69">
      <g>
       <use xlink:href="#m8396d8aafb" x="3331.285579" y="678.2" style="stroke: #000000; stroke-width: 0.8"/>
      </g>
     </g>
     <g id="text_54">
      <!-- 1.25 -->
      <g transform="translate(3320.152767 692.798437)scale(0.1 -0.1)">
       <use xlink:href="#DejaVuSans-31"/>
       <use xlink:href="#DejaVuSans-2e" x="63.623047"/>
       <use xlink:href="#DejaVuSans-32" x="95.410156"/>
       <use xlink:href="#DejaVuSans-35" x="159.033203"/>
      </g>
     </g>
    </g>
    <g id="xtick_31">
     <g id="line2d_70">
      <g>
       <use xlink:href="#m8396d8aafb" x="3440.740479" y="678.2" style="stroke: #000000; stroke-width: 0.8"/>
      </g>
     </g>
     <g id="text_55">
      <!-- 1.50 -->
      <g transform="translate(3429.607667 692.798437)scale(0.1 -0.1)">
       <use xlink:href="#DejaVuSans-31"/>
       <use xlink:href="#DejaVuSans-2e" x="63.623047"/>
       <use xlink:href="#DejaVuSans-35" x="95.410156"/>
       <use xlink:href="#DejaVuSans-30" x="159.033203"/>
      </g>
     </g>
    </g>
    <g id="xtick_32">
     <g id="line2d_71">
      <g>
       <use xlink:href="#m8396d8aafb" x="3550.195379" y="678.2" style="stroke: #000000; stroke-width: 0.8"/>
      </g>
     </g>
     <g id="text_56">
      <!-- 1.75 -->
      <g transform="translate(3539.062567 692.798437)scale(0.1 -0.1)">
       <use xlink:href="#DejaVuSans-31"/>
       <use xlink:href="#DejaVuSans-2e" x="63.623047"/>
       <use xlink:href="#DejaVuSans-37" x="95.410156"/>
       <use xlink:href="#DejaVuSans-35" x="159.033203"/>
      </g>
     </g>
    </g>
    <g id="text_57">
     <!-- Time -->
     <g transform="translate(3155.200781 706.476562)scale(0.1 -0.1)">
      <use xlink:href="#DejaVuSans-54"/>
      <use xlink:href="#DejaVuSans-69" x="57.958984"/>
      <use xlink:href="#DejaVuSans-6d" x="85.742188"/>
      <use xlink:href="#DejaVuSans-65" x="183.154297"/>
     </g>
    </g>
   </g>
   <g id="matplotlib.axis_8">
    <g id="ytick_19">
     <g id="line2d_72">
      <g>
       <use xlink:href="#m22b0423e4c" x="2745.66875" y="556.554255" style="stroke: #000000; stroke-width: 0.8"/>
      </g>
     </g>
     <g id="text_58">
      <!-- −20 -->
      <g transform="translate(2717.564062 560.353474)scale(0.1 -0.1)">
       <use xlink:href="#DejaVuSans-2212"/>
       <use xlink:href="#DejaVuSans-32" x="83.789062"/>
       <use xlink:href="#DejaVuSans-30" x="147.412109"/>
      </g>
     </g>
    </g>
    <g id="ytick_20">
     <g id="line2d_73">
      <g>
       <use xlink:href="#m22b0423e4c" x="2745.66875" y="432.887162" style="stroke: #000000; stroke-width: 0.8"/>
      </g>
     </g>
     <g id="text_59">
      <!-- −10 -->
      <g transform="translate(2717.564062 436.686381)scale(0.1 -0.1)">
       <use xlink:href="#DejaVuSans-2212"/>
       <use xlink:href="#DejaVuSans-31" x="83.789062"/>
       <use xlink:href="#DejaVuSans-30" x="147.412109"/>
      </g>
     </g>
    </g>
    <g id="ytick_21">
     <g id="line2d_74">
      <g>
       <use xlink:href="#m22b0423e4c" x="2745.66875" y="309.220069" style="stroke: #000000; stroke-width: 0.8"/>
      </g>
     </g>
     <g id="text_60">
      <!-- 0 -->
      <g transform="translate(2732.30625 313.019288)scale(0.1 -0.1)">
       <use xlink:href="#DejaVuSans-30"/>
      </g>
     </g>
    </g>
    <g id="ytick_22">
     <g id="line2d_75">
      <g>
       <use xlink:href="#m22b0423e4c" x="2745.66875" y="185.552976" style="stroke: #000000; stroke-width: 0.8"/>
      </g>
     </g>
     <g id="text_61">
      <!-- 10 -->
      <g transform="translate(2725.94375 189.352195)scale(0.1 -0.1)">
       <use xlink:href="#DejaVuSans-31"/>
       <use xlink:href="#DejaVuSans-30" x="63.623047"/>
      </g>
     </g>
    </g>
    <g id="ytick_23">
     <g id="line2d_76">
      <g>
       <use xlink:href="#m22b0423e4c" x="2745.66875" y="61.885883" style="stroke: #000000; stroke-width: 0.8"/>
      </g>
     </g>
     <g id="text_62">
      <!-- 20 -->
      <g transform="translate(2725.94375 65.685102)scale(0.1 -0.1)">
       <use xlink:href="#DejaVuSans-32"/>
       <use xlink:href="#DejaVuSans-30" x="63.623047"/>
      </g>
     </g>
    </g>
    <g id="text_63">
     <!-- Jerk -->
     <g transform="translate(2711.484375 354.002344)rotate(-90)scale(0.1 -0.1)">
      <defs>
       <path id="DejaVuSans-4a" d="M 628 4666 
L 1259 4666 
L 1259 325 
Q 1259 -519 939 -900 
Q 619 -1281 -91 -1281 
L -331 -1281 
L -331 -750 
L -134 -750 
Q 284 -750 456 -515 
Q 628 -281 628 325 
L 628 4666 
z
" transform="scale(0.015625)"/>
       <path id="DejaVuSans-6b" d="M 581 4863 
L 1159 4863 
L 1159 1991 
L 2875 3500 
L 3609 3500 
L 1753 1863 
L 3688 0 
L 2938 0 
L 1159 1709 
L 1159 0 
L 581 0 
L 581 4863 
z
" transform="scale(0.015625)"/>
      </defs>
      <use xlink:href="#DejaVuSans-4a"/>
      <use xlink:href="#DejaVuSans-65" x="29.492188"/>
      <use xlink:href="#DejaVuSans-72" x="91.015625"/>
      <use xlink:href="#DejaVuSans-6b" x="132.128906"/>
     </g>
    </g>
   </g>
   <g id="line2d_77">
    <path d="M 2784.01108 321.216443 
L 2799.363364 321.216443 
L 2800.130978 351.12038 
L 2815.483262 351.12038 
L 2816.250876 381.218049 
L 2831.60316 381.218049 
L 2832.370774 397.523891 
L 2847.723059 397.523891 
L 2848.490673 407.623844 
L 2863.842957 407.623844 
L 2864.610571 412.168153 
L 2879.195241 412.168153 
L 2879.962855 409.878493 
L 2895.315139 409.878493 
L 2896.082753 399.320941 
L 2911.435038 399.320941 
L 2912.202652 375.755785 
L 2927.554936 375.755785 
L 2928.32255 351.529301 
L 2943.674834 351.529301 
L 2944.442448 319.142734 
L 2959.027118 319.142734 
L 2959.794733 291.598201 
L 2975.147017 291.598201 
L 2975.914631 282.301922 
L 2991.266915 282.301922 
L 2992.034529 277.152814 
L 3007.386813 277.152814 
L 3008.154427 275.046152 
L 3023.506712 275.046152 
L 3024.274326 274.417844 
L 3038.858996 274.417844 
L 3039.62661 287.10355 
L 3054.978894 287.10355 
L 3055.746508 278.424464 
L 3071.098792 278.424464 
L 3071.866406 275.892414 
L 3087.218691 275.892414 
L 3087.986305 283.399743 
L 3103.338589 283.399743 
L 3104.106203 292.03541 
L 3119.458487 292.03541 
L 3120.226101 293.974437 
L 3134.810771 293.974437 
L 3135.578385 294.37347 
L 3150.93067 294.37347 
L 3151.698284 297.698553 
L 3167.050568 297.698553 
L 3167.818182 302.702406 
L 3183.170466 302.702406 
L 3183.93808 304.384195 
L 3199.290365 304.384195 
L 3200.057979 307.230229 
L 3214.642649 307.230229 
L 3215.410263 310.29499 
L 3230.762547 310.29499 
L 3231.530161 315.141894 
L 3263.002344 315.179858 
L 3263.769958 314.748268 
L 3279.122242 314.748268 
L 3279.889856 315.913318 
L 3294.474526 315.913318 
L 3295.24214 312.811339 
L 3310.594424 312.811339 
L 3311.362038 318.515275 
L 3326.714323 318.515275 
L 3327.481937 325.334883 
L 3342.834221 325.334883 
L 3343.601835 325.825994 
L 3375.074017 325.913266 
L 3375.841632 322.471861 
L 3390.426302 322.471861 
L 3391.193916 322.129487 
L 3406.5462 322.129487 
L 3407.313814 316.356198 
L 3422.666098 316.356198 
L 3423.433712 312.790858 
L 3438.785997 312.790858 
L 3439.553611 309.230115 
L 3454.905895 309.230115 
L 3455.673509 300.143237 
L 3470.258179 300.143237 
L 3471.025793 294.565889 
L 3486.378077 294.565889 
L 3487.145691 294.786165 
L 3502.497976 294.786165 
L 3503.26559 293.248635 
L 3518.617874 293.248635 
L 3519.385488 300.178279 
L 3534.737772 300.178279 
L 3535.505386 305.632616 
L 3550.85767 305.632616 
L 3550.85767 305.632616 
" clip-path="url(#p01e3b9e59f)" style="fill: none; stroke: #1f77b4; stroke-width: 1.5; stroke-linecap: square"/>
   </g>
   <g id="line2d_78">
    <path d="M 2784.01108 370.401654 
L 2799.363364 370.401654 
L 2800.130978 487.749907 
L 2815.483262 487.749907 
L 2816.250876 561.925987 
L 2831.60316 561.925987 
L 2832.370774 607.004439 
L 2847.723059 607.004439 
L 2848.490673 618.718839 
L 2863.842957 618.718839 
L 2864.610571 611.691771 
L 2879.195241 611.691771 
L 2879.962855 568.591801 
L 2895.315139 568.591801 
L 2896.082753 515.75011 
L 2911.435038 515.75011 
L 2912.202652 422.467658 
L 2927.554936 422.467658 
L 2928.32255 315.701332 
L 2943.674834 315.701332 
L 2944.442448 309.213302 
L 2975.147017 309.250876 
L 2975.914631 309.932011 
L 3007.386813 309.833661 
L 3008.154427 308.703951 
L 3023.506712 308.703951 
L 3024.274326 309.017749 
L 3038.858996 309.017749 
L 3039.62661 309.720572 
L 3054.978894 309.720572 
L 3055.746508 308.728935 
L 3071.098792 308.728935 
L 3071.866406 308.47251 
L 3087.218691 308.47251 
L 3087.986305 307.953907 
L 3103.338589 307.953907 
L 3104.106203 308.243551 
L 3119.458487 308.243551 
L 3120.226101 310.289316 
L 3150.93067 310.397465 
L 3151.698284 309.243329 
L 3246.882445 309.288485 
L 3247.650059 309.080584 
L 3263.002344 309.080584 
L 3263.769958 309.529438 
L 3294.474526 309.512079 
L 3295.24214 309.058095 
L 3310.594424 309.058095 
L 3311.362038 307.791781 
L 3326.714323 307.791781 
L 3327.481937 310.232034 
L 3342.834221 310.232034 
L 3343.601835 309.251498 
L 3406.5462 309.222946 
L 3407.313814 392.249405 
L 3422.666098 392.249405 
L 3423.433712 495.9444 
L 3438.785997 495.9444 
L 3439.553611 574.265128 
L 3454.905895 574.265128 
L 3455.673509 627.920613 
L 3470.258179 627.920613 
L 3471.025793 647.863636 
L 3486.378077 647.863636 
L 3487.145691 638.255877 
L 3502.497976 638.255877 
L 3503.26559 593.322602 
L 3518.617874 593.322602 
L 3519.385488 506.211686 
L 3534.737772 506.211686 
L 3535.505386 358.529023 
L 3550.85767 358.529023 
L 3550.85767 358.529023 
" clip-path="url(#p01e3b9e59f)" style="fill: none; stroke: #ff7f0e; stroke-width: 1.5; stroke-linecap: square"/>
   </g>
   <g id="line2d_79">
    <path d="M 2784.01108 337.169911 
L 2799.363364 337.169911 
L 2800.130978 394.092488 
L 2815.483262 394.092488 
L 2816.250876 446.768706 
L 2831.60316 446.768706 
L 2832.370774 484.103381 
L 2847.723059 484.103381 
L 2848.490673 510.972875 
L 2863.842957 510.972875 
L 2864.610571 519.59854 
L 2895.315139 519.679588 
L 2896.082753 512.950364 
L 2911.435038 512.950364 
L 2912.202652 485.214558 
L 2927.554936 485.214558 
L 2928.32255 453.927584 
L 2943.674834 453.927584 
L 2944.442448 409.412213 
L 2959.027118 409.412213 
L 2959.794733 373.813932 
L 2975.147017 373.813932 
L 2975.914631 350.621704 
L 2991.266915 350.621704 
L 2992.034529 329.849404 
L 3007.386813 329.849404 
L 3008.154427 319.291517 
L 3023.506712 319.291517 
L 3024.274326 309.105816 
L 3038.858996 309.105816 
L 3039.62661 302.905666 
L 3054.978894 302.905666 
L 3055.746508 293.645724 
L 3071.098792 293.645724 
L 3071.866406 285.759499 
L 3087.218691 285.759499 
L 3087.986305 292.250128 
L 3103.338589 292.250128 
L 3104.106203 293.680124 
L 3119.458487 293.680124 
L 3120.226101 295.295084 
L 3134.810771 295.295084 
L 3135.578385 298.360191 
L 3150.93067 298.360191 
L 3151.698284 299.082303 
L 3167.050568 299.082303 
L 3167.818182 304.200338 
L 3183.170466 304.200338 
L 3183.93808 307.943016 
L 3199.290365 307.943016 
L 3200.057979 314.775663 
L 3230.762547 314.696751 
L 3231.530161 316.114199 
L 3246.882445 316.114199 
L 3247.650059 319.022293 
L 3263.002344 319.022293 
L 3263.769958 314.589582 
L 3279.122242 314.589582 
L 3279.889856 311.526867 
L 3294.474526 311.526867 
L 3295.24214 307.338939 
L 3310.594424 307.338939 
L 3311.362038 306.472107 
L 3326.714323 306.472107 
L 3327.481937 306.920163 
L 3342.834221 306.920163 
L 3343.601835 296.832992 
L 3358.954119 296.832992 
L 3359.721733 292.624146 
L 3375.074017 292.624146 
L 3375.841632 283.380461 
L 3390.426302 283.380461 
L 3391.193916 274.73984 
L 3406.5462 274.73984 
L 3407.313814 263.191795 
L 3422.666098 263.191795 
L 3423.433712 253.738005 
L 3438.785997 253.738005 
L 3439.553611 241.875528 
L 3454.905895 241.875528 
L 3455.673509 226.646156 
L 3470.258179 226.646156 
L 3471.025793 220.051951 
L 3486.378077 220.051951 
L 3487.145691 227.24729 
L 3502.497976 227.24729 
L 3503.26559 235.914965 
L 3518.617874 235.914965 
L 3519.385488 262.047317 
L 3534.737772 262.047317 
L 3535.505386 295.423055 
L 3550.85767 295.423055 
L 3550.85767 295.423055 
" clip-path="url(#p01e3b9e59f)" style="fill: none; stroke: #2ca02c; stroke-width: 1.5; stroke-linecap: square"/>
   </g>
   <g id="line2d_80">
    <path d="M 2784.01108 313.765271 
L 2799.363364 313.765271 
L 2800.130978 340.373861 
L 2815.483262 340.373861 
L 2816.250876 358.47196 
L 2831.60316 358.47196 
L 2832.370774 370.000243 
L 2847.723059 370.000243 
L 2848.490673 382.012748 
L 2863.842957 382.012748 
L 2864.610571 389.226819 
L 2879.195241 389.226819 
L 2879.962855 396.533725 
L 2895.315139 396.533725 
L 2896.082753 393.197459 
L 2911.435038 393.197459 
L 2912.202652 390.630596 
L 2927.554936 390.630596 
L 2928.32255 382.466711 
L 2943.674834 382.466711 
L 2944.442448 374.497318 
L 2959.027118 374.497318 
L 2959.794733 354.646738 
L 2975.147017 354.646738 
L 2975.914631 352.632589 
L 2991.266915 352.632589 
L 2992.034529 351.321774 
L 3007.386813 351.321774 
L 3008.154427 354.331365 
L 3023.506712 354.331365 
L 3024.274326 343.755139 
L 3038.858996 343.755139 
L 3039.62661 333.371309 
L 3054.978894 333.371309 
L 3055.746508 340.723471 
L 3071.098792 340.723471 
L 3071.866406 326.7776 
L 3087.218691 326.7776 
L 3087.986305 319.876011 
L 3103.338589 319.876011 
L 3104.106203 313.756523 
L 3119.458487 313.756523 
L 3120.226101 296.995237 
L 3134.810771 296.995237 
L 3135.578385 279.333144 
L 3150.93067 279.333144 
L 3151.698284 270.852667 
L 3167.050568 270.852667 
L 3167.818182 272.061925 
L 3183.170466 272.061925 
L 3183.93808 267.659701 
L 3199.290365 267.659701 
L 3200.057979 262.383311 
L 3214.642649 262.383311 
L 3215.410263 266.356808 
L 3230.762547 266.356808 
L 3231.530161 277.711831 
L 3246.882445 277.711831 
L 3247.650059 275.137112 
L 3263.002344 275.137112 
L 3263.769958 282.449866 
L 3279.122242 282.449866 
L 3279.889856 293.782626 
L 3294.474526 293.782626 
L 3295.24214 305.148716 
L 3310.594424 305.148716 
L 3311.362038 308.856442 
L 3326.714323 308.856442 
L 3327.481937 319.783897 
L 3342.834221 319.783897 
L 3343.601835 329.185049 
L 3358.954119 329.185049 
L 3359.721733 337.858885 
L 3375.074017 337.858885 
L 3375.841632 343.769367 
L 3390.426302 343.769367 
L 3391.193916 348.936893 
L 3406.5462 348.936893 
L 3407.313814 351.761154 
L 3422.666098 351.761154 
L 3423.433712 350.671829 
L 3438.785997 350.671829 
L 3439.553611 346.438617 
L 3454.905895 346.438617 
L 3455.673509 340.607462 
L 3470.258179 340.607462 
L 3471.025793 330.830489 
L 3486.378077 330.830489 
L 3487.145691 321.172707 
L 3502.497976 321.172707 
L 3503.26559 310.327569 
L 3518.617874 310.327569 
L 3519.385488 318.789823 
L 3534.737772 318.789823 
L 3535.505386 308.59624 
L 3550.85767 308.59624 
L 3550.85767 308.59624 
" clip-path="url(#p01e3b9e59f)" style="fill: none; stroke: #d62728; stroke-width: 1.5; stroke-linecap: square"/>
   </g>
   <g id="line2d_81">
    <path d="M 2784.01108 321.069761 
L 2799.363364 321.069761 
L 2800.130978 335.023065 
L 2815.483262 335.023065 
L 2816.250876 345.807494 
L 2831.60316 345.807494 
L 2832.370774 354.372928 
L 2847.723059 354.372928 
L 2848.490673 359.17963 
L 2863.842957 359.17963 
L 2864.610571 364.326368 
L 2879.195241 364.326368 
L 2879.962855 367.703308 
L 2895.315139 367.703308 
L 2896.082753 372.57643 
L 2911.435038 372.57643 
L 2912.202652 372.418447 
L 2927.554936 372.418447 
L 2928.32255 371.012968 
L 2943.674834 371.012968 
L 2944.442448 371.46981 
L 2959.027118 371.46981 
L 2959.794733 369.959419 
L 2975.147017 369.959419 
L 2975.914631 373.012192 
L 2991.266915 373.012192 
L 2992.034529 375.915296 
L 3007.386813 375.915296 
L 3008.154427 376.828479 
L 3023.506712 376.828479 
L 3024.274326 374.836097 
L 3038.858996 374.836097 
L 3039.62661 351.024202 
L 3054.978894 351.024202 
L 3055.746508 374.897326 
L 3071.098792 374.897326 
L 3071.866406 379.714822 
L 3087.218691 379.714822 
L 3087.986305 379.893048 
L 3103.338589 379.893048 
L 3104.106203 386.850221 
L 3119.458487 386.850221 
L 3120.226101 387.646081 
L 3134.810771 387.646081 
L 3135.578385 383.170522 
L 3150.93067 383.170522 
L 3151.698284 379.498501 
L 3167.050568 379.498501 
L 3167.818182 370.591562 
L 3183.170466 370.591562 
L 3183.93808 360.678673 
L 3199.290365 360.678673 
L 3200.057979 343.430915 
L 3214.642649 343.430915 
L 3215.410263 326.30477 
L 3230.762547 326.30477 
L 3231.530161 309.993662 
L 3246.882445 309.993662 
L 3247.650059 287.42965 
L 3263.002344 287.42965 
L 3263.769958 260.144843 
L 3279.122242 260.144843 
L 3279.889856 233.761155 
L 3294.474526 233.761155 
L 3295.24214 239.273789 
L 3310.594424 239.273789 
L 3311.362038 176.244683 
L 3326.714323 176.244683 
L 3327.481937 145.165879 
L 3342.834221 145.165879 
L 3343.601835 119.849475 
L 3358.954119 119.849475 
L 3359.721733 94.108899 
L 3375.074017 94.108899 
L 3375.841632 71.194997 
L 3390.426302 71.194997 
L 3391.193916 55.017912 
L 3406.5462 55.017912 
L 3407.313814 43.657543 
L 3422.666098 43.657543 
L 3423.433712 41.136364 
L 3438.785997 41.136364 
L 3439.553611 43.31491 
L 3454.905895 43.31491 
L 3455.673509 53.991421 
L 3470.258179 53.991421 
L 3471.025793 76.795521 
L 3486.378077 76.795521 
L 3487.145691 107.648428 
L 3502.497976 107.648428 
L 3503.26559 148.850229 
L 3518.617874 148.850229 
L 3519.385488 211.312539 
L 3534.737772 211.312539 
L 3535.505386 282.030568 
L 3550.85767 282.030568 
L 3550.85767 282.030568 
" clip-path="url(#p01e3b9e59f)" style="fill: none; stroke: #9467bd; stroke-width: 1.5; stroke-linecap: square"/>
   </g>
   <g id="line2d_82">
    <path d="M 2784.01108 326.452187 
L 2799.363364 326.452187 
L 2800.130978 365.375185 
L 2815.483262 365.375185 
L 2816.250876 396.897225 
L 2831.60316 396.897225 
L 2832.370774 420.724286 
L 2847.723059 420.724286 
L 2848.490673 439.963884 
L 2863.842957 439.963884 
L 2864.610571 448.7618 
L 2879.195241 448.7618 
L 2879.962855 450.748192 
L 2895.315139 450.748192 
L 2896.082753 444.259688 
L 2911.435038 444.259688 
L 2912.202652 434.08473 
L 2927.554936 434.08473 
L 2928.32255 419.285548 
L 2943.674834 419.285548 
L 2944.442448 401.308776 
L 2959.027118 401.308776 
L 2959.794733 379.954609 
L 2975.147017 379.954609 
L 2975.914631 359.4822 
L 2991.266915 359.4822 
L 2992.034529 337.26913 
L 3007.386813 337.26913 
L 3008.154427 318.486397 
L 3023.506712 318.486397 
L 3024.274326 300.549672 
L 3038.858996 300.549672 
L 3039.62661 294.30954 
L 3054.978894 294.30954 
L 3055.746508 272.466806 
L 3071.098792 272.466806 
L 3071.866406 259.823694 
L 3087.218691 259.823694 
L 3087.986305 253.429889 
L 3103.338589 253.429889 
L 3104.106203 247.849225 
L 3119.458487 247.849225 
L 3120.226101 244.054971 
L 3134.810771 244.054971 
L 3135.578385 246.7953 
L 3150.93067 246.7953 
L 3151.698284 251.429781 
L 3167.050568 251.429781 
L 3167.818182 262.247043 
L 3183.170466 262.247043 
L 3183.93808 272.685185 
L 3199.290365 272.685185 
L 3200.057979 287.213988 
L 3214.642649 287.213988 
L 3215.410263 302.717301 
L 3230.762547 302.717301 
L 3231.530161 318.661057 
L 3246.882445 318.661057 
L 3247.650059 333.839692 
L 3263.002344 333.839692 
L 3263.769958 349.842668 
L 3279.122242 349.842668 
L 3279.889856 362.265758 
L 3294.474526 362.265758 
L 3295.24214 351.809898 
L 3310.594424 351.809898 
L 3311.362038 380.778234 
L 3326.714323 380.778234 
L 3327.481937 391.707772 
L 3342.834221 391.707772 
L 3343.601835 395.534164 
L 3358.954119 395.534164 
L 3359.721733 401.199143 
L 3375.074017 401.199143 
L 3375.841632 406.063934 
L 3390.426302 406.063934 
L 3391.193916 406.97109 
L 3406.5462 406.97109 
L 3407.313814 404.169828 
L 3422.666098 404.169828 
L 3423.433712 399.367321 
L 3438.785997 399.367321 
L 3439.553611 392.640257 
L 3454.905895 392.640257 
L 3455.673509 384.028271 
L 3470.258179 384.028271 
L 3471.025793 372.371912 
L 3486.378077 372.371912 
L 3487.145691 361.634843 
L 3502.497976 361.634843 
L 3503.26559 349.037764 
L 3518.617874 349.037764 
L 3519.385488 332.88808 
L 3534.737772 332.88808 
L 3535.505386 315.505446 
L 3550.85767 315.505446 
L 3550.85767 315.505446 
" clip-path="url(#p01e3b9e59f)" style="fill: none; stroke: #8c564b; stroke-width: 1.5; stroke-linecap: square"/>
   </g>
   <g id="line2d_83">
    <path d="M 2784.01108 324.312709 
L 2799.363364 324.312709 
L 2800.130978 346.259589 
L 2815.483262 346.259589 
L 2816.250876 361.180075 
L 2831.60316 361.180075 
L 2832.370774 374.105306 
L 2847.723059 374.105306 
L 2848.490673 383.091777 
L 2863.842957 383.091777 
L 2864.610571 385.710097 
L 2879.195241 385.710097 
L 2879.962855 384.973087 
L 2895.315139 384.973087 
L 2896.082753 382.835467 
L 2911.435038 382.835467 
L 2912.202652 376.321408 
L 2927.554936 376.321408 
L 2928.32255 367.671046 
L 2943.674834 367.671046 
L 2944.442448 361.832338 
L 2959.027118 361.832338 
L 2959.794733 352.155352 
L 2975.147017 352.155352 
L 2975.914631 340.247628 
L 2991.266915 340.247628 
L 2992.034529 324.870793 
L 3007.386813 324.870793 
L 3008.154427 307.948482 
L 3023.506712 307.948482 
L 3024.274326 291.286973 
L 3038.858996 291.286973 
L 3039.62661 286.000277 
L 3054.978894 286.000277 
L 3055.746508 263.816017 
L 3071.098792 263.816017 
L 3071.866406 260.119609 
L 3087.218691 260.119609 
L 3087.986305 252.38309 
L 3103.338589 252.38309 
L 3104.106203 253.702938 
L 3119.458487 253.702938 
L 3120.226101 256.290683 
L 3134.810771 256.290683 
L 3135.578385 262.199948 
L 3150.93067 262.199948 
L 3151.698284 271.574722 
L 3167.050568 271.574722 
L 3167.818182 282.874017 
L 3183.170466 282.874017 
L 3183.93808 295.861279 
L 3199.290365 295.861279 
L 3200.057979 308.178283 
L 3214.642649 308.178283 
L 3215.410263 323.225177 
L 3230.762547 323.225177 
L 3231.530161 339.701029 
L 3246.882445 339.701029 
L 3247.650059 357.782289 
L 3263.002344 357.782289 
L 3263.769958 372.406258 
L 3279.122242 372.406258 
L 3279.889856 385.622194 
L 3294.474526 385.622194 
L 3295.24214 367.049384 
L 3310.594424 367.049384 
L 3311.362038 404.309554 
L 3326.714323 404.309554 
L 3327.481937 412.022031 
L 3342.834221 412.022031 
L 3343.601835 417.545802 
L 3358.954119 417.545802 
L 3359.721733 420.850447 
L 3375.074017 420.850447 
L 3375.841632 423.912291 
L 3390.426302 423.912291 
L 3391.193916 422.953982 
L 3406.5462 422.953982 
L 3407.313814 419.856375 
L 3422.666098 419.856375 
L 3423.433712 415.283516 
L 3438.785997 415.283516 
L 3439.553611 407.620598 
L 3454.905895 407.620598 
L 3455.673509 397.879327 
L 3470.258179 397.879327 
L 3471.025793 389.414342 
L 3486.378077 389.414342 
L 3487.145691 373.987413 
L 3502.497976 373.987413 
L 3503.26559 363.385557 
L 3518.617874 363.385557 
L 3519.385488 342.411326 
L 3534.737772 342.411326 
L 3535.505386 319.114212 
L 3550.85767 319.114212 
L 3550.85767 319.114212 
" clip-path="url(#p01e3b9e59f)" style="fill: none; stroke: #e377c2; stroke-width: 1.5; stroke-linecap: square"/>
   </g>
   <g id="patch_18">
    <path d="M 2745.66875 678.2 
L 2745.66875 10.8 
" style="fill: none; stroke: #000000; stroke-width: 0.8; stroke-linejoin: miter; stroke-linecap: square"/>
   </g>
   <g id="patch_19">
    <path d="M 3589.2 678.2 
L 3589.2 10.8 
" style="fill: none; stroke: #000000; stroke-width: 0.8; stroke-linejoin: miter; stroke-linecap: square"/>
   </g>
   <g id="patch_20">
    <path d="M 2745.66875 678.2 
L 3589.2 678.2 
" style="fill: none; stroke: #000000; stroke-width: 0.8; stroke-linejoin: miter; stroke-linecap: square"/>
   </g>
   <g id="patch_21">
    <path d="M 2745.66875 10.8 
L 3589.2 10.8 
" style="fill: none; stroke: #000000; stroke-width: 0.8; stroke-linejoin: miter; stroke-linecap: square"/>
   </g>
  </g>
 </g>
 <defs>
  <clipPath id="pe822e3897a">
   <rect x="46.55" y="10.8" width="843.53125" height="667.4"/>
  </clipPath>
  <clipPath id="pf9b50b3060">
   <rect x="946.25625" y="10.8" width="843.53125" height="667.4"/>
  </clipPath>
  <clipPath id="p06a00c4f90">
   <rect x="1845.9625" y="10.8" width="843.53125" height="667.4"/>
  </clipPath>
  <clipPath id="p01e3b9e59f">
   <rect x="2745.66875" y="10.8" width="843.53125" height="667.4"/>
  </clipPath>
 </defs>
</svg>
