<?xml version="1.0" encoding="utf-8" standalone="no"?>
<!DOCTYPE svg PUBLIC "-//W3C//DTD SVG 1.1//EN"
  "http://www.w3.org/Graphics/SVG/1.1/DTD/svg11.dtd">
<svg xmlns:xlink="http://www.w3.org/1999/xlink" width="864pt" height="216pt" viewBox="0 0 864 216" xmlns="http://www.w3.org/2000/svg" version="1.1">
 <metadata>
  <rdf:RDF xmlns:dc="http://purl.org/dc/elements/1.1/" xmlns:cc="http://creativecommons.org/ns#" xmlns:rdf="http://www.w3.org/1999/02/22-rdf-syntax-ns#">
   <cc:Work>
    <dc:type rdf:resource="http://purl.org/dc/dcmitype/StillImage"/>
    <dc:date>2023-07-24T21:20:49.645369</dc:date>
    <dc:format>image/svg+xml</dc:format>
    <dc:creator>
     <cc:Agent>
      <dc:title>Matplotlib v3.5.2, https://matplotlib.org/</dc:title>
     </cc:Agent>
    </dc:creator>
   </cc:Work>
  </rdf:RDF>
 </metadata>
 <defs>
  <style type="text/css">*{stroke-linejoin: round; stroke-linecap: butt}</style>
 </defs>
 <g id="figure_1">
  <g id="patch_1">
   <path d="M 0 216 
L 864 216 
L 864 0 
L 0 0 
z
" style="fill: #ffffff"/>
  </g>
  <g id="axes_1">
   <g id="patch_2">
    <path d="M 46.64 174.04 
L 192.437858 174.04 
L 192.437858 12.761809 
L 46.64 12.761809 
z
" style="fill: #ffffff"/>
   </g>
   <g id="matplotlib.axis_1">
    <g id="xtick_1">
     <g id="line2d_1">
      <defs>
       <path id="m6fa4a83a2a" d="M 0 0 
L 0 3.5 
" style="stroke: #000000; stroke-width: 0.8"/>
      </defs>
      <g>
       <use xlink:href="#m6fa4a83a2a" x="53.267175" y="174.04" style="stroke: #000000; stroke-width: 0.8"/>
      </g>
     </g>
     <g id="text_1">
      <!-- 0.0 -->
      <g transform="translate(45.315613 188.638438)scale(0.1 -0.1)">
       <defs>
        <path id="DejaVuSans-30" d="M 2034 4250 
Q 1547 4250 1301 3770 
Q 1056 3291 1056 2328 
Q 1056 1369 1301 889 
Q 1547 409 2034 409 
Q 2525 409 2770 889 
Q 3016 1369 3016 2328 
Q 3016 3291 2770 3770 
Q 2525 4250 2034 4250 
z
M 2034 4750 
Q 2819 4750 3233 4129 
Q 3647 3509 3647 2328 
Q 3647 1150 3233 529 
Q 2819 -91 2034 -91 
Q 1250 -91 836 529 
Q 422 1150 422 2328 
Q 422 3509 836 4129 
Q 1250 4750 2034 4750 
z
" transform="scale(0.015625)"/>
        <path id="DejaVuSans-2e" d="M 684 794 
L 1344 794 
L 1344 0 
L 684 0 
L 684 794 
z
" transform="scale(0.015625)"/>
       </defs>
       <use xlink:href="#DejaVuSans-30"/>
       <use xlink:href="#DejaVuSans-2e" x="63.623047"/>
       <use xlink:href="#DejaVuSans-30" x="95.410156"/>
      </g>
     </g>
    </g>
    <g id="xtick_2">
     <g id="line2d_2">
      <g>
       <use xlink:href="#m6fa4a83a2a" x="97.668276" y="174.04" style="stroke: #000000; stroke-width: 0.8"/>
      </g>
     </g>
     <g id="text_2">
      <!-- 0.5 -->
      <g transform="translate(89.716714 188.638438)scale(0.1 -0.1)">
       <defs>
        <path id="DejaVuSans-35" d="M 691 4666 
L 3169 4666 
L 3169 4134 
L 1269 4134 
L 1269 2991 
Q 1406 3038 1543 3061 
Q 1681 3084 1819 3084 
Q 2600 3084 3056 2656 
Q 3513 2228 3513 1497 
Q 3513 744 3044 326 
Q 2575 -91 1722 -91 
Q 1428 -91 1123 -41 
Q 819 9 494 109 
L 494 744 
Q 775 591 1075 516 
Q 1375 441 1709 441 
Q 2250 441 2565 725 
Q 2881 1009 2881 1497 
Q 2881 1984 2565 2268 
Q 2250 2553 1709 2553 
Q 1456 2553 1204 2497 
Q 953 2441 691 2322 
L 691 4666 
z
" transform="scale(0.015625)"/>
       </defs>
       <use xlink:href="#DejaVuSans-30"/>
       <use xlink:href="#DejaVuSans-2e" x="63.623047"/>
       <use xlink:href="#DejaVuSans-35" x="95.410156"/>
      </g>
     </g>
    </g>
    <g id="xtick_3">
     <g id="line2d_3">
      <g>
       <use xlink:href="#m6fa4a83a2a" x="142.069377" y="174.04" style="stroke: #000000; stroke-width: 0.8"/>
      </g>
     </g>
     <g id="text_3">
      <!-- 1.0 -->
      <g transform="translate(134.117815 188.638438)scale(0.1 -0.1)">
       <defs>
        <path id="DejaVuSans-31" d="M 794 531 
L 1825 531 
L 1825 4091 
L 703 3866 
L 703 4441 
L 1819 4666 
L 2450 4666 
L 2450 531 
L 3481 531 
L 3481 0 
L 794 0 
L 794 531 
z
" transform="scale(0.015625)"/>
       </defs>
       <use xlink:href="#DejaVuSans-31"/>
       <use xlink:href="#DejaVuSans-2e" x="63.623047"/>
       <use xlink:href="#DejaVuSans-30" x="95.410156"/>
      </g>
     </g>
    </g>
    <g id="xtick_4">
     <g id="line2d_4">
      <g>
       <use xlink:href="#m6fa4a83a2a" x="186.470478" y="174.04" style="stroke: #000000; stroke-width: 0.8"/>
      </g>
     </g>
     <g id="text_4">
      <!-- 1.5 -->
      <g transform="translate(178.518916 188.638438)scale(0.1 -0.1)">
       <use xlink:href="#DejaVuSans-31"/>
       <use xlink:href="#DejaVuSans-2e" x="63.623047"/>
       <use xlink:href="#DejaVuSans-35" x="95.410156"/>
      </g>
     </g>
    </g>
    <g id="text_5">
     <!-- Time -->
     <g transform="translate(107.305335 202.316563)scale(0.1 -0.1)">
      <defs>
       <path id="DejaVuSans-54" d="M -19 4666 
L 3928 4666 
L 3928 4134 
L 2272 4134 
L 2272 0 
L 1638 0 
L 1638 4134 
L -19 4134 
L -19 4666 
z
" transform="scale(0.015625)"/>
       <path id="DejaVuSans-69" d="M 603 3500 
L 1178 3500 
L 1178 0 
L 603 0 
L 603 3500 
z
M 603 4863 
L 1178 4863 
L 1178 4134 
L 603 4134 
L 603 4863 
z
" transform="scale(0.015625)"/>
       <path id="DejaVuSans-6d" d="M 3328 2828 
Q 3544 3216 3844 3400 
Q 4144 3584 4550 3584 
Q 5097 3584 5394 3201 
Q 5691 2819 5691 2113 
L 5691 0 
L 5113 0 
L 5113 2094 
Q 5113 2597 4934 2840 
Q 4756 3084 4391 3084 
Q 3944 3084 3684 2787 
Q 3425 2491 3425 1978 
L 3425 0 
L 2847 0 
L 2847 2094 
Q 2847 2600 2669 2842 
Q 2491 3084 2119 3084 
Q 1678 3084 1418 2786 
Q 1159 2488 1159 1978 
L 1159 0 
L 581 0 
L 581 3500 
L 1159 3500 
L 1159 2956 
Q 1356 3278 1631 3431 
Q 1906 3584 2284 3584 
Q 2666 3584 2933 3390 
Q 3200 3197 3328 2828 
z
" transform="scale(0.015625)"/>
       <path id="DejaVuSans-65" d="M 3597 1894 
L 3597 1613 
L 953 1613 
Q 991 1019 1311 708 
Q 1631 397 2203 397 
Q 2534 397 2845 478 
Q 3156 559 3463 722 
L 3463 178 
Q 3153 47 2828 -22 
Q 2503 -91 2169 -91 
Q 1331 -91 842 396 
Q 353 884 353 1716 
Q 353 2575 817 3079 
Q 1281 3584 2069 3584 
Q 2775 3584 3186 3129 
Q 3597 2675 3597 1894 
z
M 3022 2063 
Q 3016 2534 2758 2815 
Q 2500 3097 2075 3097 
Q 1594 3097 1305 2825 
Q 1016 2553 972 2059 
L 3022 2063 
z
" transform="scale(0.015625)"/>
      </defs>
      <use xlink:href="#DejaVuSans-54"/>
      <use xlink:href="#DejaVuSans-69" x="57.958984"/>
      <use xlink:href="#DejaVuSans-6d" x="85.742188"/>
      <use xlink:href="#DejaVuSans-65" x="183.154297"/>
     </g>
    </g>
   </g>
   <g id="matplotlib.axis_2">
    <g id="ytick_1">
     <g id="line2d_5">
      <defs>
       <path id="mcaa27a4619" d="M 0 0 
L -3.5 0 
" style="stroke: #000000; stroke-width: 0.8"/>
      </defs>
      <g>
       <use xlink:href="#mcaa27a4619" x="46.64" y="149.852176" style="stroke: #000000; stroke-width: 0.8"/>
      </g>
     </g>
     <g id="text_6">
      <!-- −2 -->
      <g transform="translate(24.897813 153.651395)scale(0.1 -0.1)">
       <defs>
        <path id="DejaVuSans-2212" d="M 678 2272 
L 4684 2272 
L 4684 1741 
L 678 1741 
L 678 2272 
z
" transform="scale(0.015625)"/>
        <path id="DejaVuSans-32" d="M 1228 531 
L 3431 531 
L 3431 0 
L 469 0 
L 469 531 
Q 828 903 1448 1529 
Q 2069 2156 2228 2338 
Q 2531 2678 2651 2914 
Q 2772 3150 2772 3378 
Q 2772 3750 2511 3984 
Q 2250 4219 1831 4219 
Q 1534 4219 1204 4116 
Q 875 4013 500 3803 
L 500 4441 
Q 881 4594 1212 4672 
Q 1544 4750 1819 4750 
Q 2544 4750 2975 4387 
Q 3406 4025 3406 3419 
Q 3406 3131 3298 2873 
Q 3191 2616 2906 2266 
Q 2828 2175 2409 1742 
Q 1991 1309 1228 531 
z
" transform="scale(0.015625)"/>
       </defs>
       <use xlink:href="#DejaVuSans-2212"/>
       <use xlink:href="#DejaVuSans-32" x="83.789062"/>
      </g>
     </g>
    </g>
    <g id="ytick_2">
     <g id="line2d_6">
      <g>
       <use xlink:href="#mcaa27a4619" x="46.64" y="121.561972" style="stroke: #000000; stroke-width: 0.8"/>
      </g>
     </g>
     <g id="text_7">
      <!-- −1 -->
      <g transform="translate(24.897813 125.36119)scale(0.1 -0.1)">
       <use xlink:href="#DejaVuSans-2212"/>
       <use xlink:href="#DejaVuSans-31" x="83.789062"/>
      </g>
     </g>
    </g>
    <g id="ytick_3">
     <g id="line2d_7">
      <g>
       <use xlink:href="#mcaa27a4619" x="46.64" y="93.271767" style="stroke: #000000; stroke-width: 0.8"/>
      </g>
     </g>
     <g id="text_8">
      <!-- 0 -->
      <g transform="translate(33.2775 97.070986)scale(0.1 -0.1)">
       <use xlink:href="#DejaVuSans-30"/>
      </g>
     </g>
    </g>
    <g id="ytick_4">
     <g id="line2d_8">
      <g>
       <use xlink:href="#mcaa27a4619" x="46.64" y="64.981563" style="stroke: #000000; stroke-width: 0.8"/>
      </g>
     </g>
     <g id="text_9">
      <!-- 1 -->
      <g transform="translate(33.2775 68.780781)scale(0.1 -0.1)">
       <use xlink:href="#DejaVuSans-31"/>
      </g>
     </g>
    </g>
    <g id="ytick_5">
     <g id="line2d_9">
      <g>
       <use xlink:href="#mcaa27a4619" x="46.64" y="36.691358" style="stroke: #000000; stroke-width: 0.8"/>
      </g>
     </g>
     <g id="text_10">
      <!-- 2 -->
      <g transform="translate(33.2775 40.490577)scale(0.1 -0.1)">
       <use xlink:href="#DejaVuSans-32"/>
      </g>
     </g>
    </g>
    <g id="text_11">
     <!-- Position -->
     <g transform="translate(18.818125 112.864967)rotate(-90)scale(0.1 -0.1)">
      <defs>
       <path id="DejaVuSans-50" d="M 1259 4147 
L 1259 2394 
L 2053 2394 
Q 2494 2394 2734 2622 
Q 2975 2850 2975 3272 
Q 2975 3691 2734 3919 
Q 2494 4147 2053 4147 
L 1259 4147 
z
M 628 4666 
L 2053 4666 
Q 2838 4666 3239 4311 
Q 3641 3956 3641 3272 
Q 3641 2581 3239 2228 
Q 2838 1875 2053 1875 
L 1259 1875 
L 1259 0 
L 628 0 
L 628 4666 
z
" transform="scale(0.015625)"/>
       <path id="DejaVuSans-6f" d="M 1959 3097 
Q 1497 3097 1228 2736 
Q 959 2375 959 1747 
Q 959 1119 1226 758 
Q 1494 397 1959 397 
Q 2419 397 2687 759 
Q 2956 1122 2956 1747 
Q 2956 2369 2687 2733 
Q 2419 3097 1959 3097 
z
M 1959 3584 
Q 2709 3584 3137 3096 
Q 3566 2609 3566 1747 
Q 3566 888 3137 398 
Q 2709 -91 1959 -91 
Q 1206 -91 779 398 
Q 353 888 353 1747 
Q 353 2609 779 3096 
Q 1206 3584 1959 3584 
z
" transform="scale(0.015625)"/>
       <path id="DejaVuSans-73" d="M 2834 3397 
L 2834 2853 
Q 2591 2978 2328 3040 
Q 2066 3103 1784 3103 
Q 1356 3103 1142 2972 
Q 928 2841 928 2578 
Q 928 2378 1081 2264 
Q 1234 2150 1697 2047 
L 1894 2003 
Q 2506 1872 2764 1633 
Q 3022 1394 3022 966 
Q 3022 478 2636 193 
Q 2250 -91 1575 -91 
Q 1294 -91 989 -36 
Q 684 19 347 128 
L 347 722 
Q 666 556 975 473 
Q 1284 391 1588 391 
Q 1994 391 2212 530 
Q 2431 669 2431 922 
Q 2431 1156 2273 1281 
Q 2116 1406 1581 1522 
L 1381 1569 
Q 847 1681 609 1914 
Q 372 2147 372 2553 
Q 372 3047 722 3315 
Q 1072 3584 1716 3584 
Q 2034 3584 2315 3537 
Q 2597 3491 2834 3397 
z
" transform="scale(0.015625)"/>
       <path id="DejaVuSans-74" d="M 1172 4494 
L 1172 3500 
L 2356 3500 
L 2356 3053 
L 1172 3053 
L 1172 1153 
Q 1172 725 1289 603 
Q 1406 481 1766 481 
L 2356 481 
L 2356 0 
L 1766 0 
Q 1100 0 847 248 
Q 594 497 594 1153 
L 594 3053 
L 172 3053 
L 172 3500 
L 594 3500 
L 594 4494 
L 1172 4494 
z
" transform="scale(0.015625)"/>
       <path id="DejaVuSans-6e" d="M 3513 2113 
L 3513 0 
L 2938 0 
L 2938 2094 
Q 2938 2591 2744 2837 
Q 2550 3084 2163 3084 
Q 1697 3084 1428 2787 
Q 1159 2491 1159 1978 
L 1159 0 
L 581 0 
L 581 3500 
L 1159 3500 
L 1159 2956 
Q 1366 3272 1645 3428 
Q 1925 3584 2291 3584 
Q 2894 3584 3203 3211 
Q 3513 2838 3513 2113 
z
" transform="scale(0.015625)"/>
      </defs>
      <use xlink:href="#DejaVuSans-50"/>
      <use xlink:href="#DejaVuSans-6f" x="56.677734"/>
      <use xlink:href="#DejaVuSans-73" x="117.859375"/>
      <use xlink:href="#DejaVuSans-69" x="169.958984"/>
      <use xlink:href="#DejaVuSans-74" x="197.742188"/>
      <use xlink:href="#DejaVuSans-69" x="236.951172"/>
      <use xlink:href="#DejaVuSans-6f" x="264.734375"/>
      <use xlink:href="#DejaVuSans-6e" x="325.916016"/>
     </g>
    </g>
   </g>
   <g id="line2d_10">
    <path d="M 53.267175 95.75404 
L 54.063232 95.879644 
L 55.389994 96.389807 
L 63.483242 99.51254 
L 65.340708 99.913301 
L 68.922965 100.405009 
L 75.291422 100.941415 
L 81.527203 101.262747 
L 102.357363 101.691569 
L 162.459675 101.676087 
L 183.422512 101.760268 
L 185.810683 101.790058 
L 185.810683 101.790058 
" clip-path="url(#p3bd0fcd413)" style="fill: none; stroke: #1f77b4; stroke-width: 1.5; stroke-linecap: square"/>
   </g>
   <g id="line2d_11">
    <path d="M 53.267175 120.746123 
L 54.328585 120.619312 
L 56.053375 120.115037 
L 60.166337 118.91252 
L 63.217889 118.246723 
L 69.586346 116.225563 
L 183.687864 79.980644 
L 185.014626 79.846987 
L 185.810683 79.859993 
L 185.810683 79.859993 
" clip-path="url(#p3bd0fcd413)" style="fill: none; stroke: #ff7f0e; stroke-width: 1.5; stroke-linecap: square"/>
   </g>
   <g id="line2d_12">
    <path d="M 53.267175 91.859499 
L 54.328585 91.982188 
L 57.645489 92.803525 
L 59.104927 93.37098 
L 66.534794 96.687188 
L 69.45367 97.794937 
L 72.107193 98.56295 
L 84.844107 101.585471 
L 88.824393 102.288234 
L 94.927497 103.090883 
L 115.890334 105.584844 
L 126.504429 106.514451 
L 135.659085 106.825731 
L 142.690923 106.865423 
L 156.091218 106.7585 
L 163.521084 106.427275 
L 168.695455 105.96355 
L 180.238283 104.494362 
L 182.891807 104.177086 
L 185.279978 104.12582 
L 185.810683 104.133109 
L 185.810683 104.133109 
" clip-path="url(#p3bd0fcd413)" style="fill: none; stroke: #2ca02c; stroke-width: 1.5; stroke-linecap: square"/>
   </g>
   <g id="line2d_13">
    <path d="M 53.267175 166.709173 
L 56.982109 166.597818 
L 60.299013 166.548011 
L 88.293688 166.403957 
L 94.13144 166.01058 
L 101.163278 165.317785 
L 114.430896 163.961937 
L 129.157952 162.553266 
L 178.646169 156.253708 
L 185.545331 155.04062 
L 185.810683 155.036199 
L 185.810683 155.036199 
" clip-path="url(#p3bd0fcd413)" style="fill: none; stroke: #d62728; stroke-width: 1.5; stroke-linecap: square"/>
   </g>
   <g id="line2d_14">
    <path d="M 53.267175 91.937805 
L 54.593937 92.049315 
L 56.451404 92.451612 
L 57.512813 92.885077 
L 58.706899 93.418435 
L 59.502956 93.45799 
L 61.227746 93.488607 
L 62.289156 93.736415 
L 63.483242 94.267722 
L 65.208032 95.040722 
L 67.596203 95.795281 
L 70.913108 96.542462 
L 75.954803 98.117809 
L 77.812269 98.270841 
L 81.394526 98.25953 
L 85.242136 98.373557 
L 89.355097 98.740191 
L 93.202707 99.034405 
L 97.448345 99.054439 
L 114.563572 98.904273 
L 119.339915 98.613632 
L 121.860762 98.256155 
L 124.38161 97.664549 
L 130.61739 96.047996 
L 133.005562 95.786934 
L 137.649228 95.327572 
L 141.231485 94.692822 
L 143.885009 94.018355 
L 147.33459 93.129386 
L 154.499104 91.519889 
L 163.521084 89.19638 
L 165.511227 88.597633 
L 168.960808 87.38959 
L 173.471798 86.416415 
L 177.452083 85.683032 
L 181.432369 84.498356 
L 183.555188 84.157227 
L 185.412654 84.083237 
L 185.810683 84.086052 
L 185.810683 84.086052 
" clip-path="url(#p3bd0fcd413)" style="fill: none; stroke: #9467bd; stroke-width: 1.5; stroke-linecap: square"/>
   </g>
   <g id="line2d_15">
    <path d="M 53.267175 48.000033 
L 56.186051 47.899052 
L 57.380137 47.665453 
L 58.706899 47.143761 
L 59.900985 46.732506 
L 61.09507 46.653039 
L 62.421832 46.509895 
L 64.146622 46.076361 
L 67.861556 44.958931 
L 73.168603 42.927073 
L 86.170869 37.574874 
L 90.151154 36.403309 
L 96.652287 34.749646 
L 115.624982 29.961787 
L 125.177667 27.446537 
L 127.565838 27.193011 
L 132.740209 26.749385 
L 140.0374 25.557705 
L 151.314875 23.871102 
L 155.825865 23.444593 
L 164.847846 22.813219 
L 173.604474 21.213757 
L 175.992645 20.757536 
L 178.115464 20.568737 
L 183.024483 20.299834 
L 185.014626 20.093509 
L 185.810683 20.097921 
L 185.810683 20.097921 
" clip-path="url(#p3bd0fcd413)" style="fill: none; stroke: #8c564b; stroke-width: 1.5; stroke-linecap: square"/>
   </g>
   <g id="line2d_16">
    <path d="M 53.267175 72.198343 
L 59.900985 72.281912 
L 61.09507 72.653393 
L 65.60606 74.420208 
L 70.249727 76.570413 
L 72.372546 77.119212 
L 77.546917 78.339721 
L 81.129174 79.537208 
L 84.976783 80.753296 
L 88.426364 81.571652 
L 101.030602 84.336992 
L 105.806944 85.397496 
L 110.185258 86.107343 
L 116.553715 87.179496 
L 121.993439 88.297662 
L 125.044991 89.165867 
L 130.750067 90.885685 
L 133.005562 91.231143 
L 142.292895 92.366455 
L 156.887275 94.758862 
L 160.602208 95.226136 
L 163.786436 95.632179 
L 168.297427 96.322077 
L 171.481655 96.41004 
L 174.79856 96.332602 
L 176.656026 96.369468 
L 178.115464 96.638112 
L 180.636312 97.116513 
L 182.891807 97.290868 
L 185.810683 97.315617 
L 185.810683 97.315617 
" clip-path="url(#p3bd0fcd413)" style="fill: none; stroke: #e377c2; stroke-width: 1.5; stroke-linecap: square"/>
   </g>
   <g id="patch_3">
    <path d="M 46.64 174.04 
L 46.64 12.761809 
" style="fill: none; stroke: #000000; stroke-width: 0.8; stroke-linejoin: miter; stroke-linecap: square"/>
   </g>
   <g id="patch_4">
    <path d="M 192.437858 174.04 
L 192.437858 12.761809 
" style="fill: none; stroke: #000000; stroke-width: 0.8; stroke-linejoin: miter; stroke-linecap: square"/>
   </g>
   <g id="patch_5">
    <path d="M 46.64 174.04 
L 192.437858 174.04 
" style="fill: none; stroke: #000000; stroke-width: 0.8; stroke-linejoin: miter; stroke-linecap: square"/>
   </g>
   <g id="patch_6">
    <path d="M 46.64 12.761809 
L 192.437858 12.761809 
" style="fill: none; stroke: #000000; stroke-width: 0.8; stroke-linejoin: miter; stroke-linecap: square"/>
   </g>
  </g>
  <g id="axes_2">
   <g id="patch_7">
    <path d="M 266.24 174.04 
L 412.037858 174.04 
L 412.037858 12.761809 
L 266.24 12.761809 
z
" style="fill: #ffffff"/>
   </g>
   <g id="matplotlib.axis_3">
    <g id="xtick_5">
     <g id="line2d_17">
      <g>
       <use xlink:href="#m6fa4a83a2a" x="272.867175" y="174.04" style="stroke: #000000; stroke-width: 0.8"/>
      </g>
     </g>
     <g id="text_12">
      <!-- 0.0 -->
      <g transform="translate(264.915613 188.638438)scale(0.1 -0.1)">
       <use xlink:href="#DejaVuSans-30"/>
       <use xlink:href="#DejaVuSans-2e" x="63.623047"/>
       <use xlink:href="#DejaVuSans-30" x="95.410156"/>
      </g>
     </g>
    </g>
    <g id="xtick_6">
     <g id="line2d_18">
      <g>
       <use xlink:href="#m6fa4a83a2a" x="317.268276" y="174.04" style="stroke: #000000; stroke-width: 0.8"/>
      </g>
     </g>
     <g id="text_13">
      <!-- 0.5 -->
      <g transform="translate(309.316714 188.638438)scale(0.1 -0.1)">
       <use xlink:href="#DejaVuSans-30"/>
       <use xlink:href="#DejaVuSans-2e" x="63.623047"/>
       <use xlink:href="#DejaVuSans-35" x="95.410156"/>
      </g>
     </g>
    </g>
    <g id="xtick_7">
     <g id="line2d_19">
      <g>
       <use xlink:href="#m6fa4a83a2a" x="361.669377" y="174.04" style="stroke: #000000; stroke-width: 0.8"/>
      </g>
     </g>
     <g id="text_14">
      <!-- 1.0 -->
      <g transform="translate(353.717815 188.638438)scale(0.1 -0.1)">
       <use xlink:href="#DejaVuSans-31"/>
       <use xlink:href="#DejaVuSans-2e" x="63.623047"/>
       <use xlink:href="#DejaVuSans-30" x="95.410156"/>
      </g>
     </g>
    </g>
    <g id="xtick_8">
     <g id="line2d_20">
      <g>
       <use xlink:href="#m6fa4a83a2a" x="406.070478" y="174.04" style="stroke: #000000; stroke-width: 0.8"/>
      </g>
     </g>
     <g id="text_15">
      <!-- 1.5 -->
      <g transform="translate(398.118916 188.638438)scale(0.1 -0.1)">
       <use xlink:href="#DejaVuSans-31"/>
       <use xlink:href="#DejaVuSans-2e" x="63.623047"/>
       <use xlink:href="#DejaVuSans-35" x="95.410156"/>
      </g>
     </g>
    </g>
    <g id="text_16">
     <!-- Time -->
     <g transform="translate(326.905335 202.316563)scale(0.1 -0.1)">
      <use xlink:href="#DejaVuSans-54"/>
      <use xlink:href="#DejaVuSans-69" x="57.958984"/>
      <use xlink:href="#DejaVuSans-6d" x="85.742188"/>
      <use xlink:href="#DejaVuSans-65" x="183.154297"/>
     </g>
    </g>
   </g>
   <g id="matplotlib.axis_4">
    <g id="ytick_6">
     <g id="line2d_21">
      <g>
       <use xlink:href="#mcaa27a4619" x="266.24" y="153.948808" style="stroke: #000000; stroke-width: 0.8"/>
      </g>
     </g>
     <g id="text_17">
      <!-- −1.5 -->
      <g transform="translate(234.957187 157.748027)scale(0.1 -0.1)">
       <use xlink:href="#DejaVuSans-2212"/>
       <use xlink:href="#DejaVuSans-31" x="83.789062"/>
       <use xlink:href="#DejaVuSans-2e" x="147.412109"/>
       <use xlink:href="#DejaVuSans-35" x="179.199219"/>
      </g>
     </g>
    </g>
    <g id="ytick_7">
     <g id="line2d_22">
      <g>
       <use xlink:href="#mcaa27a4619" x="266.24" y="130.740578" style="stroke: #000000; stroke-width: 0.8"/>
      </g>
     </g>
     <g id="text_18">
      <!-- −1.0 -->
      <g transform="translate(234.957187 134.539797)scale(0.1 -0.1)">
       <use xlink:href="#DejaVuSans-2212"/>
       <use xlink:href="#DejaVuSans-31" x="83.789062"/>
       <use xlink:href="#DejaVuSans-2e" x="147.412109"/>
       <use xlink:href="#DejaVuSans-30" x="179.199219"/>
      </g>
     </g>
    </g>
    <g id="ytick_8">
     <g id="line2d_23">
      <g>
       <use xlink:href="#mcaa27a4619" x="266.24" y="107.532348" style="stroke: #000000; stroke-width: 0.8"/>
      </g>
     </g>
     <g id="text_19">
      <!-- −0.5 -->
      <g transform="translate(234.957187 111.331566)scale(0.1 -0.1)">
       <use xlink:href="#DejaVuSans-2212"/>
       <use xlink:href="#DejaVuSans-30" x="83.789062"/>
       <use xlink:href="#DejaVuSans-2e" x="147.412109"/>
       <use xlink:href="#DejaVuSans-35" x="179.199219"/>
      </g>
     </g>
    </g>
    <g id="ytick_9">
     <g id="line2d_24">
      <g>
       <use xlink:href="#mcaa27a4619" x="266.24" y="84.324118" style="stroke: #000000; stroke-width: 0.8"/>
      </g>
     </g>
     <g id="text_20">
      <!-- 0.0 -->
      <g transform="translate(243.336875 88.123336)scale(0.1 -0.1)">
       <use xlink:href="#DejaVuSans-30"/>
       <use xlink:href="#DejaVuSans-2e" x="63.623047"/>
       <use xlink:href="#DejaVuSans-30" x="95.410156"/>
      </g>
     </g>
    </g>
    <g id="ytick_10">
     <g id="line2d_25">
      <g>
       <use xlink:href="#mcaa27a4619" x="266.24" y="61.115887" style="stroke: #000000; stroke-width: 0.8"/>
      </g>
     </g>
     <g id="text_21">
      <!-- 0.5 -->
      <g transform="translate(243.336875 64.915106)scale(0.1 -0.1)">
       <use xlink:href="#DejaVuSans-30"/>
       <use xlink:href="#DejaVuSans-2e" x="63.623047"/>
       <use xlink:href="#DejaVuSans-35" x="95.410156"/>
      </g>
     </g>
    </g>
    <g id="ytick_11">
     <g id="line2d_26">
      <g>
       <use xlink:href="#mcaa27a4619" x="266.24" y="37.907657" style="stroke: #000000; stroke-width: 0.8"/>
      </g>
     </g>
     <g id="text_22">
      <!-- 1.0 -->
      <g transform="translate(243.336875 41.706876)scale(0.1 -0.1)">
       <use xlink:href="#DejaVuSans-31"/>
       <use xlink:href="#DejaVuSans-2e" x="63.623047"/>
       <use xlink:href="#DejaVuSans-30" x="95.410156"/>
      </g>
     </g>
    </g>
    <g id="ytick_12">
     <g id="line2d_27">
      <g>
       <use xlink:href="#mcaa27a4619" x="266.24" y="14.699427" style="stroke: #000000; stroke-width: 0.8"/>
      </g>
     </g>
     <g id="text_23">
      <!-- 1.5 -->
      <g transform="translate(243.336875 18.498646)scale(0.1 -0.1)">
       <use xlink:href="#DejaVuSans-31"/>
       <use xlink:href="#DejaVuSans-2e" x="63.623047"/>
       <use xlink:href="#DejaVuSans-35" x="95.410156"/>
      </g>
     </g>
    </g>
    <g id="text_24">
     <!-- Velocity -->
     <g transform="translate(228.8775 113.016529)rotate(-90)scale(0.1 -0.1)">
      <defs>
       <path id="DejaVuSans-56" d="M 1831 0 
L 50 4666 
L 709 4666 
L 2188 738 
L 3669 4666 
L 4325 4666 
L 2547 0 
L 1831 0 
z
" transform="scale(0.015625)"/>
       <path id="DejaVuSans-6c" d="M 603 4863 
L 1178 4863 
L 1178 0 
L 603 0 
L 603 4863 
z
" transform="scale(0.015625)"/>
       <path id="DejaVuSans-63" d="M 3122 3366 
L 3122 2828 
Q 2878 2963 2633 3030 
Q 2388 3097 2138 3097 
Q 1578 3097 1268 2742 
Q 959 2388 959 1747 
Q 959 1106 1268 751 
Q 1578 397 2138 397 
Q 2388 397 2633 464 
Q 2878 531 3122 666 
L 3122 134 
Q 2881 22 2623 -34 
Q 2366 -91 2075 -91 
Q 1284 -91 818 406 
Q 353 903 353 1747 
Q 353 2603 823 3093 
Q 1294 3584 2113 3584 
Q 2378 3584 2631 3529 
Q 2884 3475 3122 3366 
z
" transform="scale(0.015625)"/>
       <path id="DejaVuSans-79" d="M 2059 -325 
Q 1816 -950 1584 -1140 
Q 1353 -1331 966 -1331 
L 506 -1331 
L 506 -850 
L 844 -850 
Q 1081 -850 1212 -737 
Q 1344 -625 1503 -206 
L 1606 56 
L 191 3500 
L 800 3500 
L 1894 763 
L 2988 3500 
L 3597 3500 
L 2059 -325 
z
" transform="scale(0.015625)"/>
      </defs>
      <use xlink:href="#DejaVuSans-56"/>
      <use xlink:href="#DejaVuSans-65" x="60.658203"/>
      <use xlink:href="#DejaVuSans-6c" x="122.181641"/>
      <use xlink:href="#DejaVuSans-6f" x="149.964844"/>
      <use xlink:href="#DejaVuSans-63" x="211.146484"/>
      <use xlink:href="#DejaVuSans-69" x="266.126953"/>
      <use xlink:href="#DejaVuSans-74" x="293.910156"/>
      <use xlink:href="#DejaVuSans-79" x="333.119141"/>
     </g>
    </g>
   </g>
   <g id="line2d_28">
    <path d="M 272.867175 84.324118 
L 273.530556 120.982805 
L 274.061261 138.383793 
L 274.45929 144.477722 
L 274.591966 145.183924 
L 274.724642 145.227573 
L 274.857318 144.608669 
L 275.12267 141.383199 
L 275.786051 130.451121 
L 276.051404 129.58081 
L 276.18408 129.972034 
L 276.449432 132.407242 
L 276.847461 140.191954 
L 277.378166 153.024896 
L 277.776194 158.279825 
L 278.041547 159.607446 
L 278.174223 159.654986 
L 278.306899 159.411798 
L 278.572251 158.074607 
L 278.97028 153.941784 
L 280.297042 135.708354 
L 280.562394 134.663258 
L 280.69507 134.517122 
L 281.225775 134.928901 
L 281.491127 134.602323 
L 281.75648 133.849991 
L 282.154508 131.923202 
L 282.817889 126.928037 
L 283.746622 118.020029 
L 284.410003 111.718585 
L 284.940708 108.815093 
L 285.338737 107.92087 
L 285.736765 107.588376 
L 286.134794 106.758988 
L 286.665498 104.847274 
L 287.594232 101.492142 
L 288.390289 99.466938 
L 289.186346 98.118505 
L 289.849727 97.370683 
L 290.513108 96.962207 
L 291.176489 96.858739 
L 291.972546 96.652663 
L 292.768603 96.232499 
L 293.697336 95.471727 
L 295.024098 94.28065 
L 296.218184 93.490862 
L 297.810298 92.531363 
L 298.606355 91.697913 
L 299.535088 90.387038 
L 300.86185 88.421096 
L 301.657907 87.727712 
L 302.321288 87.444895 
L 302.984669 87.430261 
L 303.913402 87.739495 
L 305.505517 88.160364 
L 307.097631 88.355557 
L 309.618478 88.366419 
L 312.404678 88.186033 
L 313.864116 87.874209 
L 315.323554 87.342007 
L 317.048345 86.455188 
L 319.171163 85.466579 
L 321.161306 84.775106 
L 322.886097 84.392317 
L 324.610887 84.235169 
L 326.999058 84.291125 
L 332.306106 84.315103 
L 349.288657 84.346089 
L 366.536561 84.321732 
L 368.128675 84.40445 
L 369.853466 84.504108 
L 371.180228 84.332157 
L 372.506989 83.939407 
L 373.833751 83.513568 
L 374.762484 83.464756 
L 375.691218 83.632991 
L 378.477418 84.404593 
L 379.538827 84.292212 
L 381.263617 84.138917 
L 383.651789 84.203583 
L 389.887569 84.321176 
L 391.745036 84.346896 
L 396.654055 84.639319 
L 397.582788 84.412941 
L 399.042226 83.946745 
L 399.440255 84.207393 
L 399.970959 84.929913 
L 400.501664 86.080993 
L 401.69575 89.068865 
L 402.093778 89.490622 
L 402.491807 89.579081 
L 402.889835 89.334241 
L 403.287864 88.756104 
L 403.818569 87.46679 
L 404.349273 85.584947 
L 404.879978 83.803599 
L 405.012654 83.702631 
L 405.145331 83.755727 
L 405.410683 84.324118 
L 405.410683 84.324118 
" clip-path="url(#p45a094afb0)" style="fill: none; stroke: #1f77b4; stroke-width: 1.5; stroke-linecap: square"/>
   </g>
   <g id="line2d_29">
    <path d="M 272.867175 84.324118 
L 273.530556 62.331521 
L 274.193937 47.339549 
L 274.724642 40.38642 
L 275.12267 38.111836 
L 275.388023 37.907657 
L 277.112813 37.942925 
L 277.378166 38.142333 
L 277.776194 38.771419 
L 278.174223 39.832147 
L 278.439575 41.238058 
L 278.837604 44.789797 
L 279.368308 52.205695 
L 279.766337 57.254482 
L 280.164365 59.628733 
L 280.297042 59.825809 
L 280.429718 59.725714 
L 280.69507 58.634013 
L 281.491127 51.85459 
L 282.817889 41.078456 
L 283.348594 38.695124 
L 283.746622 37.954934 
L 284.144651 37.907657 
L 401.032369 37.972826 
L 401.297721 38.45571 
L 401.69575 40.062213 
L 402.093778 42.72733 
L 402.624483 47.927552 
L 403.287864 57.074363 
L 404.083921 71.93212 
L 404.879978 87.497904 
L 405.012654 87.986615 
L 405.145331 87.620554 
L 405.410683 84.324118 
L 405.410683 84.324118 
" clip-path="url(#p45a094afb0)" style="fill: none; stroke: #ff7f0e; stroke-width: 1.5; stroke-linecap: square"/>
   </g>
   <g id="line2d_30">
    <path d="M 272.867175 84.324118 
L 273.530556 105.66589 
L 274.061261 116.480054 
L 274.45929 120.939447 
L 274.724642 122.173694 
L 274.857318 122.269213 
L 274.989994 122.016996 
L 275.255347 120.469352 
L 275.653375 117.869777 
L 275.918728 117.377478 
L 276.051404 117.50613 
L 276.316756 118.513036 
L 276.582109 120.519411 
L 276.980137 125.395646 
L 278.837604 152.220165 
L 279.102956 153.568114 
L 279.368308 153.948808 
L 280.960423 153.920399 
L 281.225775 153.658268 
L 281.623804 152.750397 
L 282.021832 151.224917 
L 283.215918 145.653661 
L 283.613946 144.864323 
L 283.879299 144.681599 
L 284.277327 144.695343 
L 284.808032 144.980045 
L 285.338737 145.569178 
L 285.604089 145.870575 
L 285.869441 145.851147 
L 286.134794 145.494812 
L 286.532822 144.328609 
L 288.124937 137.327204 
L 290.911136 123.83491 
L 291.707193 120.42591 
L 292.370574 118.473078 
L 292.901279 117.492193 
L 293.299308 117.095668 
L 293.697336 116.989833 
L 294.360717 117.231214 
L 295.156774 117.780666 
L 295.952831 118.605708 
L 296.881565 119.910592 
L 297.677622 120.881049 
L 298.341003 121.351749 
L 298.871707 121.507065 
L 299.402412 121.465718 
L 299.933117 121.228769 
L 300.729174 120.597996 
L 301.525231 119.678592 
L 302.453964 118.241157 
L 303.515374 116.126219 
L 307.362983 108.127226 
L 308.557069 105.992023 
L 309.618478 104.546548 
L 310.547212 103.631128 
L 311.475945 103.041786 
L 312.404678 102.736109 
L 313.864116 102.471959 
L 315.323554 102.43671 
L 316.782992 102.625597 
L 322.488068 103.566043 
L 323.682154 103.423699 
L 324.876239 103.061014 
L 326.335677 102.354829 
L 328.458496 101.089149 
L 331.642725 99.110427 
L 332.704134 98.837458 
L 335.092306 98.642272 
L 338.674562 98.395541 
L 340.134001 98.619798 
L 340.930058 98.731676 
L 341.460762 98.570497 
L 341.991467 98.202515 
L 342.654848 97.45172 
L 343.318229 96.377796 
L 346.502457 90.488066 
L 347.431191 89.247043 
L 348.094572 88.707362 
L 348.625276 88.505313 
L 349.155981 88.50744 
L 349.686686 88.713742 
L 350.350067 89.248017 
L 351.146124 89.798862 
L 351.809505 90.006533 
L 352.472886 89.98569 
L 353.136267 89.736332 
L 353.799647 89.25846 
L 354.595705 88.383373 
L 356.055143 86.593598 
L 357.116552 85.635808 
L 358.177961 84.973004 
L 359.106695 84.635029 
L 360.698809 84.388363 
L 362.423599 84.341217 
L 365.209799 84.30404 
L 367.597971 84.274763 
L 369.322761 84.250654 
L 370.118818 83.968452 
L 371.047551 83.380662 
L 371.976285 82.514429 
L 374.23178 80.127356 
L 374.895161 79.885483 
L 375.558542 79.897208 
L 376.221922 80.162532 
L 376.885303 80.500259 
L 377.416008 80.490616 
L 377.946713 80.215754 
L 378.477418 79.675673 
L 379.140799 78.627608 
L 380.202208 76.738933 
L 380.998265 75.716891 
L 381.794322 75.040592 
L 383.917141 73.65051 
L 385.111227 72.461263 
L 386.03996 71.169967 
L 386.968693 69.49904 
L 388.030103 67.533595 
L 388.560808 66.99392 
L 389.091512 66.781789 
L 389.489541 66.837642 
L 390.152922 67.227487 
L 391.214331 68.080229 
L 392.408417 69.343404 
L 393.602503 70.67246 
L 394.000531 70.668282 
L 394.39856 70.344604 
L 394.796588 69.701424 
L 395.327293 68.346849 
L 395.990674 65.854877 
L 397.450112 59.594193 
L 397.84814 58.78726 
L 398.246169 58.43091 
L 398.511521 58.441301 
L 398.90955 58.752065 
L 399.307578 59.393355 
L 399.838283 60.762562 
L 400.501664 63.300388 
L 401.430397 68.133882 
L 403.553216 80.3873 
L 404.747302 87.324166 
L 404.879978 87.410888 
L 405.012654 87.154244 
L 405.278007 85.610859 
L 405.410683 84.324118 
L 405.410683 84.324118 
" clip-path="url(#p45a094afb0)" style="fill: none; stroke: #2ca02c; stroke-width: 1.5; stroke-linecap: square"/>
   </g>
   <g id="line2d_31">
    <path d="M 272.867175 84.324118 
L 275.918728 77.191658 
L 276.18408 77.097293 
L 276.449432 77.210431 
L 276.847461 77.769207 
L 277.245489 78.792189 
L 277.776194 80.868206 
L 278.572251 84.469955 
L 278.837604 84.995422 
L 279.102956 85.115904 
L 279.368308 84.83478 
L 279.899013 84.175862 
L 280.297042 83.942011 
L 280.69507 83.931308 
L 282.154508 84.337847 
L 284.410003 84.59316 
L 286.134794 84.947015 
L 287.461556 85.670072 
L 287.859584 85.575517 
L 288.390289 85.185232 
L 289.319022 84.334752 
L 289.982403 84.045571 
L 290.645784 84.028334 
L 292.635927 84.373125 
L 293.56466 84.239928 
L 295.156774 83.915089 
L 296.35086 83.928627 
L 299.269736 84.15962 
L 300.596498 83.995999 
L 301.657907 83.599791 
L 302.719317 82.951733 
L 303.913402 81.93996 
L 305.505517 80.304209 
L 307.230307 78.195814 
L 308.955097 76.079048 
L 310.414535 74.650036 
L 311.741297 73.640978 
L 315.190878 71.287515 
L 318.24243 69.18744 
L 319.701868 68.537655 
L 321.02863 68.179748 
L 322.222716 68.06156 
L 323.416801 68.150145 
L 324.610887 68.445503 
L 326.203001 69.103065 
L 327.927792 69.690606 
L 329.652582 70.055317 
L 331.377372 70.393637 
L 332.83681 70.943417 
L 334.428925 71.583021 
L 335.62301 71.817959 
L 336.817096 71.838003 
L 340.266677 71.443393 
L 341.593439 71.158342 
L 342.9202 70.637924 
L 344.379638 69.803712 
L 346.237105 68.467725 
L 347.961895 66.96377 
L 349.686686 65.165749 
L 351.146124 63.668053 
L 351.942181 63.251482 
L 352.605562 63.145106 
L 353.268943 63.257609 
L 353.932324 63.58899 
L 354.728381 64.275568 
L 357.514581 67.094569 
L 359.902752 69.220403 
L 361.096838 69.979988 
L 362.158247 70.419524 
L 362.821628 70.530351 
L 363.485009 70.388485 
L 364.14839 69.989644 
L 364.811771 69.333827 
L 365.740504 68.034483 
L 367.067266 66.30557 
L 368.394028 64.944162 
L 369.322761 64.263389 
L 370.251494 63.86823 
L 371.047551 63.756849 
L 371.843608 63.855308 
L 372.639666 64.163606 
L 374.23178 64.904364 
L 375.293189 65.14065 
L 376.354599 65.165566 
L 377.283332 64.978316 
L 378.212065 64.551059 
L 379.140799 63.883714 
L 379.804179 63.45293 
L 380.334884 63.435377 
L 380.865589 63.71615 
L 381.396294 64.295249 
L 382.059675 65.438642 
L 384.049817 69.349854 
L 385.111227 71.147759 
L 385.641932 71.575874 
L 386.03996 71.606476 
L 386.437989 71.388091 
L 386.836017 70.920719 
L 387.366722 69.912892 
L 388.428131 67.822777 
L 389.356865 66.425663 
L 390.285598 65.426159 
L 391.081655 64.872364 
L 391.877712 64.597172 
L 392.541093 64.580666 
L 393.867855 64.686701 
L 394.39856 64.266703 
L 394.929264 63.520207 
L 395.592645 62.12795 
L 396.256026 60.22554 
L 397.052083 57.815944 
L 397.582788 56.880797 
L 397.980817 56.556949 
L 398.378845 56.556681 
L 398.90955 56.681585 
L 399.307578 56.542167 
L 399.705607 56.199876 
L 400.236312 55.427907 
L 400.899693 53.95589 
L 401.297721 53.233515 
L 401.563074 53.10231 
L 401.828426 53.251408 
L 402.093778 53.680809 
L 402.491807 54.85048 
L 403.022512 57.3911 
L 403.553216 61.052933 
L 404.216597 67.206929 
L 404.879978 75.375951 
L 405.410683 84.324118 
L 405.410683 84.324118 
" clip-path="url(#p45a094afb0)" style="fill: none; stroke: #d62728; stroke-width: 1.5; stroke-linecap: square"/>
   </g>
   <g id="line2d_32">
    <path d="M 272.867175 84.324118 
L 273.663232 99.254141 
L 274.326613 108.462006 
L 274.989994 114.730031 
L 275.520699 118.467741 
L 275.918728 124.571164 
L 276.316756 134.322402 
L 276.847461 152.998429 
L 277.112813 162.786288 
L 277.245489 164.912164 
L 277.378166 164.970754 
L 277.510842 162.962058 
L 277.776194 152.74281 
L 278.174223 122.731692 
L 278.704927 89.53338 
L 279.102956 78.847154 
L 279.235632 77.992223 
L 279.368308 78.461201 
L 279.766337 82.328738 
L 280.297042 90.938865 
L 280.827746 103.495748 
L 282.817889 157.21984 
L 283.083242 159.599995 
L 283.215918 159.837367 
L 283.348594 159.439602 
L 283.613946 156.738662 
L 284.808032 137.041223 
L 285.073384 135.907021 
L 285.20606 135.839281 
L 285.338737 136.104448 
L 285.604089 136.838225 
L 285.736765 136.61646 
L 286.002118 134.876458 
L 286.26747 131.407829 
L 287.594232 109.492822 
L 287.859584 108.523814 
L 287.99226 108.52414 
L 288.124937 108.847686 
L 288.390289 110.464436 
L 291.441841 139.531206 
L 291.83987 140.868006 
L 292.105222 141.016 
L 292.370574 140.56943 
L 292.635927 139.528295 
L 293.033955 136.851786 
L 293.56466 131.202131 
L 295.687479 103.868809 
L 296.748888 93.67423 
L 297.544946 87.911293 
L 298.208326 84.645146 
L 298.739031 83.038061 
L 299.13706 82.419483 
L 299.402412 82.286496 
L 299.667764 82.377027 
L 300.065793 82.861094 
L 300.994526 84.334463 
L 302.055936 86.443938 
L 303.250021 89.359768 
L 304.842136 93.390429 
L 306.301574 96.530935 
L 307.628336 98.890066 
L 308.15904 99.424036 
L 308.557069 99.575532 
L 308.955097 99.513614 
L 309.353126 99.238282 
L 309.883831 98.539198 
L 310.414535 97.460711 
L 311.077916 95.57907 
L 311.873973 92.539598 
L 312.802707 89.002339 
L 313.598764 86.676343 
L 314.394821 85.001984 
L 315.058202 84.104462 
L 315.588907 83.712264 
L 316.119611 83.609682 
L 316.650316 83.779425 
L 318.109754 84.27081 
L 319.436516 84.491762 
L 320.763278 84.497703 
L 322.886097 84.208468 
L 325.274268 83.669588 
L 329.121877 82.499001 
L 330.846668 81.814011 
L 331.908077 81.081721 
L 332.969487 80.076468 
L 335.62301 77.020175 
L 337.215124 74.988367 
L 337.745829 73.909291 
L 338.40921 72.016234 
L 339.205267 68.946387 
L 340.134001 64.26438 
L 342.654848 50.315654 
L 343.98161 44.319381 
L 344.644991 42.320547 
L 345.175695 41.432125 
L 345.573724 41.180351 
L 345.839076 41.209904 
L 346.237105 41.550334 
L 346.635134 42.246088 
L 347.165838 43.712405 
L 347.829219 46.223313 
L 348.625276 50.171451 
L 349.55401 56.066842 
L 351.544152 69.664873 
L 352.207533 72.207463 
L 352.738238 73.413099 
L 353.136267 73.834071 
L 353.401619 73.884598 
L 353.666971 73.751028 
L 354.065 73.205491 
L 354.463028 72.245736 
L 355.391762 69.009263 
L 356.983876 63.922194 
L 358.443314 59.995332 
L 360.30078 55.231609 
L 361.096838 52.22233 
L 362.025571 47.822664 
L 362.821628 43.934419 
L 363.219656 42.787241 
L 363.617685 42.235631 
L 363.883037 42.198763 
L 364.14839 42.426592 
L 364.546418 43.264642 
L 364.944447 44.698261 
L 365.607828 48.261498 
L 366.403885 51.954808 
L 367.067266 53.973992 
L 367.597971 54.896455 
L 367.995999 55.184119 
L 368.261351 55.183427 
L 368.792056 54.856438 
L 369.588113 54.069613 
L 370.38417 52.950867 
L 371.312904 51.226154 
L 372.374313 48.701852 
L 373.568399 45.725884 
L 374.099104 45.034183 
L 374.497132 44.810794 
L 374.895161 44.840594 
L 375.293189 45.123584 
L 375.691218 45.659762 
L 376.221922 46.768517 
L 377.01798 48.572234 
L 377.416008 49.01563 
L 377.814037 49.13483 
L 378.212065 48.929835 
L 378.610094 48.400644 
L 379.140799 47.190752 
L 379.804179 45.510623 
L 380.202208 44.990427 
L 380.600237 44.85215 
L 380.865589 44.972143 
L 381.263617 45.470398 
L 381.661646 46.350572 
L 382.590379 48.700977 
L 382.723055 48.684049 
L 382.988408 48.303024 
L 383.25376 47.459109 
L 383.651789 45.325318 
L 384.182494 40.860148 
L 384.845874 32.712474 
L 385.376579 27.273915 
L 385.774608 25.354632 
L 386.03996 25.103507 
L 386.172636 25.286464 
L 386.437989 26.269416 
L 386.836017 29.286441 
L 387.234046 34.154582 
L 388.030103 44.574424 
L 388.560808 48.957855 
L 388.958836 50.877495 
L 389.224188 51.505858 
L 389.489541 51.613103 
L 390.418274 50.777793 
L 390.683627 50.928575 
L 391.081655 51.515413 
L 391.479684 52.535047 
L 392.010388 54.567798 
L 392.673769 58.190729 
L 393.735179 64.60229 
L 394.000531 65.161457 
L 394.265883 65.200155 
L 394.531236 64.718385 
L 394.796588 63.716145 
L 395.194617 61.236905 
L 395.725321 56.109612 
L 396.388702 46.772856 
L 396.919407 38.966469 
L 397.317436 35.332189 
L 397.715464 33.640631 
L 397.84814 33.508494 
L 397.980817 33.592215 
L 398.246169 34.407231 
L 398.776874 37.888752 
L 402.624483 65.028688 
L 403.951245 77.256988 
L 404.879978 85.599131 
L 405.012654 85.832577 
L 405.145331 85.69789 
L 405.410683 84.324118 
L 405.410683 84.324118 
" clip-path="url(#p45a094afb0)" style="fill: none; stroke: #9467bd; stroke-width: 1.5; stroke-linecap: square"/>
   </g>
   <g id="line2d_33">
    <path d="M 272.867175 84.324118 
L 273.132528 84.232537 
L 273.39788 83.884393 
L 273.795909 82.881118 
L 274.326613 80.645443 
L 274.857318 77.383511 
L 275.388023 73.043338 
L 275.786051 68.014989 
L 276.316756 58.094434 
L 276.980137 40.546121 
L 277.510842 27.753862 
L 277.90887 22.0006 
L 278.174223 20.110786 
L 278.306899 20.235456 
L 278.439575 21.211274 
L 278.704927 25.716349 
L 279.102956 38.857566 
L 279.899013 72.987434 
L 280.297042 80.044634 
L 280.429718 80.718602 
L 280.562394 80.553355 
L 280.827746 77.705212 
L 282.552537 49.407498 
L 282.950565 45.39775 
L 283.215918 44.047611 
L 283.348594 43.769449 
L 283.48127 43.755892 
L 283.613946 44.006941 
L 283.879299 45.302694 
L 284.277327 47.140306 
L 284.54268 47.405426 
L 284.675356 47.249999 
L 284.940708 46.363172 
L 285.338737 43.592998 
L 286.134794 36.950974 
L 286.665498 34.163244 
L 287.196203 32.346881 
L 287.726908 31.277928 
L 288.124937 30.966701 
L 288.390289 30.992783 
L 288.920994 31.218103 
L 289.319022 31.069991 
L 289.717051 30.63088 
L 290.247755 29.592735 
L 290.77846 28.037259 
L 291.707193 25.055995 
L 292.370574 23.643754 
L 292.901279 22.959769 
L 293.299308 22.706835 
L 293.697336 22.676805 
L 295.952831 23.225534 
L 297.146917 23.309695 
L 297.810298 23.09134 
L 298.473679 22.616191 
L 299.13706 21.884247 
L 300.596498 20.103223 
L 300.994526 20.175851 
L 301.392555 20.561651 
L 301.790583 21.260623 
L 302.321288 22.679743 
L 302.984669 25.236573 
L 305.240164 35.278127 
L 306.168897 38.242864 
L 307.097631 40.485911 
L 308.15904 42.353494 
L 309.485802 44.307445 
L 310.812564 45.87217 
L 312.00665 46.94793 
L 313.200735 47.728534 
L 314.262145 48.184692 
L 315.323554 48.417121 
L 316.384964 48.425819 
L 318.375106 48.31842 
L 320.232573 48.458224 
L 323.018773 48.745554 
L 324.478211 48.58921 
L 326.070325 48.176159 
L 331.244696 46.557335 
L 332.704134 45.760369 
L 334.959629 44.431104 
L 336.419067 43.875773 
L 339.072591 43.002387 
L 340.797381 42.271909 
L 341.062734 42.466251 
L 341.460762 43.096696 
L 341.991467 44.569963 
L 342.522172 46.766286 
L 343.185553 50.528486 
L 344.246962 58.362565 
L 345.441048 66.188743 
L 346.502457 71.752319 
L 347.298514 74.961628 
L 347.829219 76.196233 
L 348.227248 76.584568 
L 348.4926 76.58745 
L 348.757952 76.385524 
L 349.155981 75.698623 
L 349.55401 74.550907 
L 350.084714 72.303794 
L 351.2788 66.578492 
L 352.207533 63.310402 
L 353.00359 61.354548 
L 353.666971 60.320761 
L 354.197676 59.883901 
L 354.595705 59.783854 
L 355.524438 59.949822 
L 357.779933 60.547835 
L 359.770076 61.115163 
L 360.168104 60.95443 
L 360.698809 60.467802 
L 361.229514 59.669957 
L 361.892895 58.235 
L 362.954304 55.761155 
L 363.352333 55.540202 
L 363.617685 55.645828 
L 364.015714 56.183662 
L 364.413742 57.176769 
L 364.944447 59.209112 
L 366.669237 67.034355 
L 367.199942 68.154857 
L 367.597971 68.549279 
L 367.863323 68.599868 
L 368.128675 68.480569 
L 368.65938 67.849678 
L 369.322761 67.227762 
L 369.853466 66.969406 
L 370.38417 66.923653 
L 370.914875 67.090501 
L 371.44558 67.469952 
L 372.108961 68.243236 
L 372.772342 69.348711 
L 373.966427 71.913733 
L 375.293189 75.34146 
L 377.150656 80.374741 
L 377.548684 80.728137 
L 377.814037 80.750842 
L 378.079389 80.603234 
L 378.477418 80.062483 
L 378.875446 79.138527 
L 379.538827 76.866156 
L 380.600237 73.574623 
L 381.52897 71.442087 
L 382.723055 69.03949 
L 383.25376 67.060013 
L 383.917141 63.608148 
L 384.713198 58.032217 
L 385.243903 54.601369 
L 385.509255 53.755173 
L 385.774608 53.496935 
L 385.907284 53.588299 
L 386.172636 54.211996 
L 386.570665 56.249962 
L 386.968693 59.610831 
L 388.030103 70.089032 
L 388.295455 71.054572 
L 388.560808 71.241644 
L 388.82616 70.650248 
L 389.091512 69.280383 
L 389.489541 65.765959 
L 390.55095 54.213332 
L 391.214331 49.770107 
L 391.61236 48.185484 
L 392.010388 47.411844 
L 392.275741 47.346632 
L 392.541093 47.641856 
L 392.806445 48.297518 
L 393.204474 49.943138 
L 394.39856 56.299648 
L 395.725321 64.705573 
L 398.776874 85.165498 
L 399.042226 85.756862 
L 399.174902 85.829322 
L 399.307578 85.752968 
L 399.572931 85.153814 
L 399.970959 83.138974 
L 400.368988 79.784801 
L 400.899693 73.229595 
L 401.430397 66.83734 
L 401.961102 63.02233 
L 402.226454 62.081291 
L 402.491807 61.784562 
L 402.624483 61.877815 
L 402.889835 62.547553 
L 403.287864 64.760243 
L 403.685893 68.422633 
L 404.216597 75.560907 
L 404.879978 85.40079 
L 405.012654 86.009755 
L 405.145331 86.033297 
L 405.278007 85.471418 
L 405.410683 84.324118 
L 405.410683 84.324118 
" clip-path="url(#p45a094afb0)" style="fill: none; stroke: #8c564b; stroke-width: 1.5; stroke-linecap: square"/>
   </g>
   <g id="line2d_34">
    <path d="M 272.867175 84.324118 
L 274.45929 84.671315 
L 277.112813 85.411932 
L 277.378166 85.023211 
L 277.776194 83.682988 
L 278.174223 81.633053 
L 278.306899 81.668696 
L 278.439575 82.430553 
L 278.704927 86.132906 
L 279.102956 97.133036 
L 280.031689 130.229244 
L 280.429718 136.469826 
L 280.69507 137.688721 
L 280.827746 137.41572 
L 281.225775 136.117983 
L 281.491127 135.912559 
L 281.75648 136.236481 
L 282.021832 137.089749 
L 282.419861 139.352805 
L 282.950565 142.102739 
L 283.348594 143.102902 
L 283.613946 143.263825 
L 284.011975 142.93952 
L 284.144651 143.124264 
L 284.410003 144.290011 
L 284.808032 148.029277 
L 285.20606 154.157317 
L 285.869441 165.263399 
L 286.134794 166.707318 
L 286.26747 166.709173 
L 286.400146 166.230958 
L 286.665498 163.898425 
L 290.115079 127.597884 
L 291.043813 120.626395 
L 291.707193 117.039642 
L 292.237898 115.204071 
L 292.635927 114.430461 
L 292.901279 114.201896 
L 293.166631 114.203072 
L 293.431984 114.433989 
L 293.830012 115.209181 
L 294.62607 117.477274 
L 295.554803 120.815491 
L 296.616212 125.543267 
L 297.677622 130.297933 
L 298.473679 132.793276 
L 299.13706 134.156481 
L 299.667764 134.778228 
L 300.065793 134.974499 
L 300.463822 134.955675 
L 300.86185 134.723745 
L 301.392555 134.083006 
L 301.92326 133.06341 
L 302.586641 131.25615 
L 303.382698 128.309191 
L 304.709459 123.315717 
L 305.903545 119.657279 
L 306.964955 117.069974 
L 307.893688 115.319263 
L 308.822421 114.047713 
L 309.618478 113.339206 
L 310.281859 113.017714 
L 310.94524 112.940706 
L 311.608621 113.108179 
L 312.404678 113.579388 
L 313.466088 114.437757 
L 314.660173 115.700742 
L 315.854259 117.278536 
L 317.579049 119.641698 
L 318.375106 120.244191 
L 319.038487 120.477209 
L 319.701868 120.465629 
L 320.365249 120.209451 
L 321.02863 119.708765 
L 321.957363 118.668413 
L 322.886097 117.282094 
L 323.947506 115.274095 
L 325.141592 112.474963 
L 326.60103 108.970275 
L 327.397087 107.650492 
L 328.193144 106.772334 
L 328.856525 106.377886 
L 329.38723 106.28314 
L 329.917934 106.384672 
L 330.846668 106.86023 
L 331.908077 107.687608 
L 332.969487 108.817612 
L 334.163572 110.127573 
L 335.224982 110.957369 
L 336.153715 111.422775 
L 337.878505 112.12156 
L 338.541886 112.873278 
L 339.205267 113.958003 
L 340.001324 115.699241 
L 341.062734 118.686448 
L 342.522172 123.520733 
L 344.777667 131.371596 
L 345.308372 132.312775 
L 345.7064 132.706521 
L 346.104429 132.832719 
L 346.502457 132.691369 
L 346.900486 132.282472 
L 347.298514 131.573429 
L 347.829219 130.076815 
L 348.4926 127.318396 
L 349.155981 123.573699 
L 349.952038 117.778175 
L 351.2788 107.431885 
L 352.074857 102.949858 
L 352.738238 100.257287 
L 353.268943 98.785561 
L 353.799647 97.920352 
L 354.197676 97.669471 
L 354.463028 97.691754 
L 354.861057 97.996878 
L 356.055143 99.373835 
L 357.249228 101.098801 
L 358.57599 103.423588 
L 361.229514 108.313571 
L 362.423599 109.893899 
L 364.015714 111.58996 
L 365.475152 112.857068 
L 365.87318 112.997692 
L 366.271209 112.899513 
L 366.669237 112.56253 
L 367.199942 111.741748 
L 367.730647 110.496426 
L 368.394028 108.342833 
L 369.190085 105.802549 
L 369.853466 104.33726 
L 370.38417 103.591538 
L 370.914875 103.224937 
L 371.312904 103.198784 
L 371.710932 103.385886 
L 372.241637 103.967085 
L 372.772342 104.927405 
L 373.568399 106.458283 
L 374.23178 107.269858 
L 374.762484 107.612755 
L 375.293189 107.68333 
L 375.823894 107.481581 
L 376.354599 107.00751 
L 377.01798 106.050572 
L 377.681361 104.710467 
L 378.477418 102.596672 
L 379.936856 98.29102 
L 380.202208 98.078394 
L 380.46756 98.119196 
L 380.732913 98.413425 
L 381.130941 99.329945 
L 381.52897 100.816676 
L 382.059675 103.685979 
L 382.723055 107.379665 
L 383.386436 109.886349 
L 383.917141 111.036451 
L 384.31517 111.400133 
L 384.580522 111.40502 
L 384.845874 111.218599 
L 385.243903 110.520688 
L 385.641932 109.29864 
L 386.172636 106.853919 
L 386.836017 102.487676 
L 388.428131 90.526532 
L 388.958836 88.458291 
L 389.356865 87.627401 
L 389.622217 87.416471 
L 390.020246 87.278908 
L 390.418274 86.931527 
L 390.948979 86.135311 
L 391.61236 84.604796 
L 392.275741 82.479565 
L 393.071798 79.144261 
L 393.469826 77.673584 
L 393.735179 77.332257 
L 393.867855 77.355778 
L 394.133207 77.791191 
L 394.39856 78.744429 
L 394.796588 81.14521 
L 395.327293 86.158642 
L 395.990674 95.338204 
L 397.317436 115.782804 
L 397.715464 117.9128 
L 397.84814 118.138269 
L 397.980817 118.121472 
L 398.246169 117.361082 
L 398.644198 114.712145 
L 401.69575 93.22817 
L 402.491807 89.233003 
L 403.155188 86.792165 
L 403.818569 85.159025 
L 404.349273 84.434055 
L 404.747302 84.216073 
L 405.145331 84.212206 
L 405.410683 84.324118 
L 405.410683 84.324118 
" clip-path="url(#p45a094afb0)" style="fill: none; stroke: #e377c2; stroke-width: 1.5; stroke-linecap: square"/>
   </g>
   <g id="patch_8">
    <path d="M 266.24 174.04 
L 266.24 12.761809 
" style="fill: none; stroke: #000000; stroke-width: 0.8; stroke-linejoin: miter; stroke-linecap: square"/>
   </g>
   <g id="patch_9">
    <path d="M 412.037858 174.04 
L 412.037858 12.761809 
" style="fill: none; stroke: #000000; stroke-width: 0.8; stroke-linejoin: miter; stroke-linecap: square"/>
   </g>
   <g id="patch_10">
    <path d="M 266.24 174.04 
L 412.037858 174.04 
" style="fill: none; stroke: #000000; stroke-width: 0.8; stroke-linejoin: miter; stroke-linecap: square"/>
   </g>
   <g id="patch_11">
    <path d="M 266.24 12.761809 
L 412.037858 12.761809 
" style="fill: none; stroke: #000000; stroke-width: 0.8; stroke-linejoin: miter; stroke-linecap: square"/>
   </g>
  </g>
  <g id="axes_3">
   <g id="patch_12">
    <path d="M 485.84 174.04 
L 631.637858 174.04 
L 631.637858 12.761809 
L 485.84 12.761809 
z
" style="fill: #ffffff"/>
   </g>
   <g id="matplotlib.axis_5">
    <g id="xtick_9">
     <g id="line2d_35">
      <g>
       <use xlink:href="#m6fa4a83a2a" x="492.467175" y="174.04" style="stroke: #000000; stroke-width: 0.8"/>
      </g>
     </g>
     <g id="text_25">
      <!-- 0.0 -->
      <g transform="translate(484.515613 188.638438)scale(0.1 -0.1)">
       <use xlink:href="#DejaVuSans-30"/>
       <use xlink:href="#DejaVuSans-2e" x="63.623047"/>
       <use xlink:href="#DejaVuSans-30" x="95.410156"/>
      </g>
     </g>
    </g>
    <g id="xtick_10">
     <g id="line2d_36">
      <g>
       <use xlink:href="#m6fa4a83a2a" x="536.868276" y="174.04" style="stroke: #000000; stroke-width: 0.8"/>
      </g>
     </g>
     <g id="text_26">
      <!-- 0.5 -->
      <g transform="translate(528.916714 188.638438)scale(0.1 -0.1)">
       <use xlink:href="#DejaVuSans-30"/>
       <use xlink:href="#DejaVuSans-2e" x="63.623047"/>
       <use xlink:href="#DejaVuSans-35" x="95.410156"/>
      </g>
     </g>
    </g>
    <g id="xtick_11">
     <g id="line2d_37">
      <g>
       <use xlink:href="#m6fa4a83a2a" x="581.269377" y="174.04" style="stroke: #000000; stroke-width: 0.8"/>
      </g>
     </g>
     <g id="text_27">
      <!-- 1.0 -->
      <g transform="translate(573.317815 188.638438)scale(0.1 -0.1)">
       <use xlink:href="#DejaVuSans-31"/>
       <use xlink:href="#DejaVuSans-2e" x="63.623047"/>
       <use xlink:href="#DejaVuSans-30" x="95.410156"/>
      </g>
     </g>
    </g>
    <g id="xtick_12">
     <g id="line2d_38">
      <g>
       <use xlink:href="#m6fa4a83a2a" x="625.670478" y="174.04" style="stroke: #000000; stroke-width: 0.8"/>
      </g>
     </g>
     <g id="text_28">
      <!-- 1.5 -->
      <g transform="translate(617.718916 188.638438)scale(0.1 -0.1)">
       <use xlink:href="#DejaVuSans-31"/>
       <use xlink:href="#DejaVuSans-2e" x="63.623047"/>
       <use xlink:href="#DejaVuSans-35" x="95.410156"/>
      </g>
     </g>
    </g>
    <g id="text_29">
     <!-- Time -->
     <g transform="translate(546.505335 202.316563)scale(0.1 -0.1)">
      <use xlink:href="#DejaVuSans-54"/>
      <use xlink:href="#DejaVuSans-69" x="57.958984"/>
      <use xlink:href="#DejaVuSans-6d" x="85.742188"/>
      <use xlink:href="#DejaVuSans-65" x="183.154297"/>
     </g>
    </g>
   </g>
   <g id="matplotlib.axis_6">
    <g id="ytick_13">
     <g id="line2d_39">
      <g>
       <use xlink:href="#mcaa27a4619" x="485.84" y="151.879634" style="stroke: #000000; stroke-width: 0.8"/>
      </g>
     </g>
     <g id="text_30">
      <!-- −100 -->
      <g transform="translate(451.372813 155.678853)scale(0.1 -0.1)">
       <use xlink:href="#DejaVuSans-2212"/>
       <use xlink:href="#DejaVuSans-31" x="83.789062"/>
       <use xlink:href="#DejaVuSans-30" x="147.412109"/>
       <use xlink:href="#DejaVuSans-30" x="211.035156"/>
      </g>
     </g>
    </g>
    <g id="ytick_14">
     <g id="line2d_40">
      <g>
       <use xlink:href="#mcaa27a4619" x="485.84" y="126.835461" style="stroke: #000000; stroke-width: 0.8"/>
      </g>
     </g>
     <g id="text_31">
      <!-- −50 -->
      <g transform="translate(457.735313 130.63468)scale(0.1 -0.1)">
       <use xlink:href="#DejaVuSans-2212"/>
       <use xlink:href="#DejaVuSans-35" x="83.789062"/>
       <use xlink:href="#DejaVuSans-30" x="147.412109"/>
      </g>
     </g>
    </g>
    <g id="ytick_15">
     <g id="line2d_41">
      <g>
       <use xlink:href="#mcaa27a4619" x="485.84" y="101.791288" style="stroke: #000000; stroke-width: 0.8"/>
      </g>
     </g>
     <g id="text_32">
      <!-- 0 -->
      <g transform="translate(472.4775 105.590507)scale(0.1 -0.1)">
       <use xlink:href="#DejaVuSans-30"/>
      </g>
     </g>
    </g>
    <g id="ytick_16">
     <g id="line2d_42">
      <g>
       <use xlink:href="#mcaa27a4619" x="485.84" y="76.747115" style="stroke: #000000; stroke-width: 0.8"/>
      </g>
     </g>
     <g id="text_33">
      <!-- 50 -->
      <g transform="translate(466.115 80.546334)scale(0.1 -0.1)">
       <use xlink:href="#DejaVuSans-35"/>
       <use xlink:href="#DejaVuSans-30" x="63.623047"/>
      </g>
     </g>
    </g>
    <g id="ytick_17">
     <g id="line2d_43">
      <g>
       <use xlink:href="#mcaa27a4619" x="485.84" y="51.702942" style="stroke: #000000; stroke-width: 0.8"/>
      </g>
     </g>
     <g id="text_34">
      <!-- 100 -->
      <g transform="translate(459.7525 55.502161)scale(0.1 -0.1)">
       <use xlink:href="#DejaVuSans-31"/>
       <use xlink:href="#DejaVuSans-30" x="63.623047"/>
       <use xlink:href="#DejaVuSans-30" x="127.246094"/>
      </g>
     </g>
    </g>
    <g id="ytick_18">
     <g id="line2d_44">
      <g>
       <use xlink:href="#mcaa27a4619" x="485.84" y="26.658769" style="stroke: #000000; stroke-width: 0.8"/>
      </g>
     </g>
     <g id="text_35">
      <!-- 150 -->
      <g transform="translate(459.7525 30.457988)scale(0.1 -0.1)">
       <use xlink:href="#DejaVuSans-31"/>
       <use xlink:href="#DejaVuSans-35" x="63.623047"/>
       <use xlink:href="#DejaVuSans-30" x="127.246094"/>
      </g>
     </g>
    </g>
    <g id="text_36">
     <!-- Acceleration -->
     <g transform="translate(445.293125 124.471217)rotate(-90)scale(0.1 -0.1)">
      <defs>
       <path id="DejaVuSans-41" d="M 2188 4044 
L 1331 1722 
L 3047 1722 
L 2188 4044 
z
M 1831 4666 
L 2547 4666 
L 4325 0 
L 3669 0 
L 3244 1197 
L 1141 1197 
L 716 0 
L 50 0 
L 1831 4666 
z
" transform="scale(0.015625)"/>
       <path id="DejaVuSans-72" d="M 2631 2963 
Q 2534 3019 2420 3045 
Q 2306 3072 2169 3072 
Q 1681 3072 1420 2755 
Q 1159 2438 1159 1844 
L 1159 0 
L 581 0 
L 581 3500 
L 1159 3500 
L 1159 2956 
Q 1341 3275 1631 3429 
Q 1922 3584 2338 3584 
Q 2397 3584 2469 3576 
Q 2541 3569 2628 3553 
L 2631 2963 
z
" transform="scale(0.015625)"/>
       <path id="DejaVuSans-61" d="M 2194 1759 
Q 1497 1759 1228 1600 
Q 959 1441 959 1056 
Q 959 750 1161 570 
Q 1363 391 1709 391 
Q 2188 391 2477 730 
Q 2766 1069 2766 1631 
L 2766 1759 
L 2194 1759 
z
M 3341 1997 
L 3341 0 
L 2766 0 
L 2766 531 
Q 2569 213 2275 61 
Q 1981 -91 1556 -91 
Q 1019 -91 701 211 
Q 384 513 384 1019 
Q 384 1609 779 1909 
Q 1175 2209 1959 2209 
L 2766 2209 
L 2766 2266 
Q 2766 2663 2505 2880 
Q 2244 3097 1772 3097 
Q 1472 3097 1187 3025 
Q 903 2953 641 2809 
L 641 3341 
Q 956 3463 1253 3523 
Q 1550 3584 1831 3584 
Q 2591 3584 2966 3190 
Q 3341 2797 3341 1997 
z
" transform="scale(0.015625)"/>
      </defs>
      <use xlink:href="#DejaVuSans-41"/>
      <use xlink:href="#DejaVuSans-63" x="66.658203"/>
      <use xlink:href="#DejaVuSans-63" x="121.638672"/>
      <use xlink:href="#DejaVuSans-65" x="176.619141"/>
      <use xlink:href="#DejaVuSans-6c" x="238.142578"/>
      <use xlink:href="#DejaVuSans-65" x="265.925781"/>
      <use xlink:href="#DejaVuSans-72" x="327.449219"/>
      <use xlink:href="#DejaVuSans-61" x="368.5625"/>
      <use xlink:href="#DejaVuSans-74" x="429.841797"/>
      <use xlink:href="#DejaVuSans-69" x="469.050781"/>
      <use xlink:href="#DejaVuSans-6f" x="496.833984"/>
      <use xlink:href="#DejaVuSans-6e" x="558.015625"/>
     </g>
    </g>
   </g>
   <g id="line2d_45">
    <path d="M 492.467175 166.709173 
L 494.855347 80.572341 
L 494.988023 82.731954 
L 496.580137 128.585388 
L 497.906899 99.010646 
L 498.968308 83.517465 
L 500.427746 103.454488 
L 500.693099 102.149446 
L 502.152537 94.286144 
L 503.479299 91.251723 
L 505.071413 101.269169 
L 506.265498 97.778087 
L 508.388317 100.171828 
L 510.643813 101.715027 
L 513.562689 100.857369 
L 516.481565 101.325361 
L 519.533117 100.181815 
L 523.115374 102.146477 
L 528.687774 101.777695 
L 532.800735 101.579966 
L 536.781021 101.293894 
L 547.92582 101.803355 
L 561.326115 101.789814 
L 583.615714 101.76065 
L 585.738533 101.748216 
L 588.524732 101.858465 
L 592.637694 101.436992 
L 596.219951 102.19847 
L 599.138827 101.643277 
L 603.119113 101.825783 
L 612.141093 101.913627 
L 613.467855 101.898237 
L 616.652083 101.573769 
L 617.978845 101.25259 
L 618.244198 101.548248 
L 620.499693 104.812761 
L 624.08195 97.590893 
L 624.347302 99.392889 
L 625.010683 104.956683 
L 625.010683 104.956683 
" clip-path="url(#pc5d6d96602)" style="fill: none; stroke: #1f77b4; stroke-width: 1.5; stroke-linecap: square"/>
   </g>
   <g id="line2d_46">
    <path d="M 492.467175 64.966113 
L 494.988023 101.791288 
L 496.580137 101.87587 
L 497.641547 104.418039 
L 498.039575 108.257988 
L 498.968308 117.165993 
L 500.427746 93.556102 
L 500.560423 93.387734 
L 501.887184 93.661984 
L 502.019861 93.885743 
L 503.479299 101.791288 
L 620.499693 101.836027 
L 624.08195 124.773955 
L 624.347302 114.581617 
L 625.010683 83.713115 
L 625.010683 83.713115 
" clip-path="url(#pc5d6d96602)" style="fill: none; stroke: #ff7f0e; stroke-width: 1.5; stroke-linecap: square"/>
   </g>
   <g id="line2d_47">
    <path d="M 492.467175 138.898965 
L 494.855347 93.690689 
L 494.988023 94.599344 
L 496.580137 115.857747 
L 497.641547 118.333365 
L 497.906899 115.450707 
L 498.968308 101.791288 
L 500.427746 101.791288 
L 501.621832 97.375168 
L 502.019861 96.169257 
L 503.611975 101.755665 
L 504.938737 103.12991 
L 505.071413 102.937805 
L 506.265498 97.759482 
L 508.65367 97.188466 
L 510.511136 97.017987 
L 511.43987 98.620446 
L 513.430012 102.065666 
L 516.481565 103.225825 
L 519.931145 101.031982 
L 523.115374 99.731855 
L 527.228336 99.957565 
L 531.872002 101.529034 
L 537.179049 101.968076 
L 541.292011 101.883354 
L 546.20103 101.262591 
L 549.915963 101.160425 
L 553.100191 101.725892 
L 557.345829 101.760569 
L 560.132029 101.967024 
L 563.448934 99.76063 
L 566.765838 100.59695 
L 569.81739 102.716804 
L 574.461057 100.493797 
L 579.370076 101.634373 
L 582.952333 101.791293 
L 586.53459 101.801851 
L 588.25938 101.779923 
L 592.505018 100.526072 
L 595.954599 102.430986 
L 596.219951 102.25277 
L 598.873475 99.867323 
L 601.792351 101.309381 
L 604.843903 100.598818 
L 606.966722 99.781812 
L 609.354893 102.360362 
L 612.671798 103.077527 
L 612.93715 102.678646 
L 615.988702 96.781346 
L 616.121379 96.774973 
L 618.376874 102.672091 
L 620.632369 106.938891 
L 624.08195 107.845978 
L 624.347302 103.657654 
L 625.010683 91.257626 
L 625.010683 91.257626 
" clip-path="url(#pc5d6d96602)" style="fill: none; stroke: #2ca02c; stroke-width: 1.5; stroke-linecap: square"/>
   </g>
   <g id="line2d_48">
    <path d="M 492.467175 99.492986 
L 494.855347 99.282632 
L 495.386051 100.701145 
L 497.641547 107.008466 
L 497.906899 105.882706 
L 498.968308 100.24335 
L 500.427746 102.213216 
L 501.223804 102.015597 
L 502.152537 101.827314 
L 504.010003 101.93497 
L 505.071413 101.906603 
L 506.265498 102.58595 
L 508.122965 100.705748 
L 510.643813 102.104261 
L 513.695365 101.549427 
L 516.746917 101.928415 
L 520.196498 101.547269 
L 524.044107 100.836651 
L 527.361012 100.563701 
L 532.004678 101.163978 
L 536.781021 101.148457 
L 546.068354 102.160573 
L 550.048639 101.96734 
L 553.100191 102.200189 
L 557.345829 101.693829 
L 560.928086 101.535091 
L 565.439076 101.060203 
L 570.082743 100.78395 
L 574.461057 102.811345 
L 579.502752 102.5135 
L 582.156276 101.920446 
L 585.075152 100.356756 
L 588.922761 101.236212 
L 592.637694 102.314715 
L 597.281361 101.368137 
L 598.873475 100.951584 
L 601.792351 103.781752 
L 604.445874 103.363582 
L 606.966722 99.666689 
L 612.671798 102.130767 
L 612.93715 101.91723 
L 616.121379 98.544661 
L 617.978845 102.180162 
L 618.111521 102.188274 
L 620.499693 99.292941 
L 624.214626 113.827869 
L 625.010683 120.008987 
L 625.010683 120.008987 
" clip-path="url(#pc5d6d96602)" style="fill: none; stroke: #d62728; stroke-width: 1.5; stroke-linecap: square"/>
   </g>
   <g id="line2d_49">
    <path d="M 492.467175 122.311635 
L 494.855347 107.023609 
L 495.253375 115.021836 
L 496.447461 141.368648 
L 496.580137 139.542565 
L 497.641547 20.092636 
L 497.774223 22.293794 
L 498.968308 108.430118 
L 500.560423 128.333024 
L 501.887184 129.922004 
L 502.019861 128.736213 
L 503.479299 78.459592 
L 504.938737 104.908726 
L 505.071413 104.871524 
L 506.132822 79.901041 
L 506.265498 79.615915 
L 508.122965 111.984861 
L 510.511136 110.789139 
L 511.43987 103.399321 
L 513.430012 87.703852 
L 516.614241 94.449867 
L 519.533117 103.080957 
L 523.115374 104.345367 
L 526.962983 103.424826 
L 528.422421 101.556584 
L 531.473973 97.683949 
L 536.11764 102.214874 
L 541.955392 101.639803 
L 550.579344 101.222571 
L 553.232868 100.7131 
L 556.549772 100.541629 
L 559.999353 95.999547 
L 560.530058 96.229327 
L 563.316257 97.620738 
L 566.898514 105.111384 
L 569.81739 109.613718 
L 574.461057 98.309065 
L 578.839371 99.696345 
L 579.768104 98.733179 
L 581.890923 96.475676 
L 582.554304 98.79043 
L 584.942475 107.393574 
L 585.075152 107.349292 
L 588.126704 101.177094 
L 592.372342 99.046126 
L 592.505018 99.119997 
L 595.954599 104.402883 
L 596.087275 104.289726 
L 598.873475 98.853167 
L 601.659675 105.289577 
L 602.323055 101.251109 
L 604.313198 88.713793 
L 604.445874 89.000018 
L 606.966722 116.292983 
L 609.222217 100.296666 
L 609.354893 100.251858 
L 612.671798 108.934998 
L 612.804474 108.509561 
L 615.988702 85.954628 
L 616.121379 86.025823 
L 618.111521 108.468406 
L 620.499693 108.023396 
L 624.08195 111.923309 
L 624.347302 107.465722 
L 625.010683 94.17127 
L 625.010683 94.17127 
" clip-path="url(#pc5d6d96602)" style="fill: none; stroke: #9467bd; stroke-width: 1.5; stroke-linecap: square"/>
   </g>
   <g id="line2d_50">
    <path d="M 492.467175 101.923831 
L 494.855347 93.585018 
L 495.518728 85.537349 
L 496.580137 73.408726 
L 497.641547 94.545207 
L 498.172251 118.060539 
L 498.968308 152.11921 
L 500.427746 85.4444 
L 500.560423 85.048706 
L 501.887184 86.699979 
L 502.019861 87.359781 
L 503.479299 108.295441 
L 505.071413 92.535113 
L 506.398175 98.174166 
L 508.122965 102.485588 
L 510.511136 98.282041 
L 511.041841 98.946292 
L 513.430012 102.108604 
L 516.481565 101.809719 
L 519.400441 100.177558 
L 519.665793 100.583854 
L 522.982698 106.711926 
L 527.095659 103.483678 
L 536.11764 101.683276 
L 541.159335 101.914422 
L 546.068354 101.510567 
L 550.446668 101.403235 
L 553.100191 101.182233 
L 556.947801 101.523099 
L 559.999353 101.234972 
L 560.79541 103.145913 
L 563.316257 109.329574 
L 566.633162 105.499806 
L 569.81739 96.624338 
L 573.930352 101.472142 
L 574.461057 101.967764 
L 578.839371 102.157444 
L 579.90078 101.053094 
L 581.890923 98.945769 
L 582.554304 100.71129 
L 584.942475 107.287818 
L 585.075152 107.188874 
L 587.994028 100.461042 
L 592.77037 103.784643 
L 595.954599 104.837078 
L 596.219951 104.333508 
L 598.873475 98.202533 
L 601.659675 100.362258 
L 602.323055 98.844608 
L 604.313198 94.137773 
L 604.445874 94.488809 
L 606.834046 113.598502 
L 606.966722 113.712041 
L 609.222217 89.816039 
L 609.354893 89.840908 
L 612.804474 106.432959 
L 616.121379 108.913033 
L 617.978845 107.822894 
L 618.244198 106.076558 
L 620.499693 87.922255 
L 624.08195 119.334188 
L 624.347302 112.532041 
L 625.010683 91.390615 
L 625.010683 91.390615 
" clip-path="url(#pc5d6d96602)" style="fill: none; stroke: #8c564b; stroke-width: 1.5; stroke-linecap: square"/>
   </g>
   <g id="line2d_51">
    <path d="M 492.467175 101.934556 
L 495.651404 102.090433 
L 496.447461 102.045362 
L 496.580137 101.845771 
L 497.641547 96.012656 
L 497.906899 104.671312 
L 498.968308 144.434687 
L 500.427746 97.69497 
L 500.560423 98.181983 
L 502.019861 108.218161 
L 503.479299 100.250089 
L 504.938737 121.337378 
L 505.071413 120.875208 
L 506.265498 91.450276 
L 508.122965 90.917758 
L 510.643813 95.573047 
L 513.430012 104.191961 
L 516.348888 106.608984 
L 516.746917 106.111923 
L 520.859879 100.463311 
L 522.982698 97.831712 
L 531.739326 102.397822 
L 536.11764 103.293876 
L 541.424687 100.590359 
L 545.13962 99.227945 
L 549.783287 102.230895 
L 552.834839 102.934923 
L 556.549772 101.963196 
L 560.264705 104.565567 
L 563.316257 105.637846 
L 566.898514 99.658798 
L 569.81739 93.390093 
L 574.593733 102.787706 
L 578.972047 103.752374 
L 582.554304 102.844305 
L 584.942475 102.554676 
L 585.340504 102.034026 
L 587.994028 98.219946 
L 592.505018 103.885608 
L 597.546713 99.357436 
L 598.873475 98.277812 
L 601.659675 107.887474 
L 602.057703 106.956541 
L 604.843903 99.480095 
L 606.966722 93.102088 
L 609.222217 101.525018 
L 609.354893 101.556312 
L 612.671798 97.260893 
L 612.804474 97.7536 
L 615.988702 120.193996 
L 616.121379 120.042794 
L 618.111521 94.838823 
L 620.499693 94.881885 
L 624.479978 101.699288 
L 625.010683 102.360818 
L 625.010683 102.360818 
" clip-path="url(#pc5d6d96602)" style="fill: none; stroke: #e377c2; stroke-width: 1.5; stroke-linecap: square"/>
   </g>
   <g id="patch_13">
    <path d="M 485.84 174.04 
L 485.84 12.761809 
" style="fill: none; stroke: #000000; stroke-width: 0.8; stroke-linejoin: miter; stroke-linecap: square"/>
   </g>
   <g id="patch_14">
    <path d="M 631.637858 174.04 
L 631.637858 12.761809 
" style="fill: none; stroke: #000000; stroke-width: 0.8; stroke-linejoin: miter; stroke-linecap: square"/>
   </g>
   <g id="patch_15">
    <path d="M 485.84 174.04 
L 631.637858 174.04 
" style="fill: none; stroke: #000000; stroke-width: 0.8; stroke-linejoin: miter; stroke-linecap: square"/>
   </g>
   <g id="patch_16">
    <path d="M 485.84 12.761809 
L 631.637858 12.761809 
" style="fill: none; stroke: #000000; stroke-width: 0.8; stroke-linejoin: miter; stroke-linecap: square"/>
   </g>
  </g>
  <g id="axes_4">
   <g id="patch_17">
    <path d="M 705.44 174.04 
L 851.237858 174.04 
L 851.237858 12.761809 
L 705.44 12.761809 
z
" style="fill: #ffffff"/>
   </g>
   <g id="matplotlib.axis_7">
    <g id="xtick_13">
     <g id="line2d_52">
      <g>
       <use xlink:href="#m6fa4a83a2a" x="712.067175" y="174.04" style="stroke: #000000; stroke-width: 0.8"/>
      </g>
     </g>
     <g id="text_37">
      <!-- 0.0 -->
      <g transform="translate(704.115613 188.638438)scale(0.1 -0.1)">
       <use xlink:href="#DejaVuSans-30"/>
       <use xlink:href="#DejaVuSans-2e" x="63.623047"/>
       <use xlink:href="#DejaVuSans-30" x="95.410156"/>
      </g>
     </g>
    </g>
    <g id="xtick_14">
     <g id="line2d_53">
      <g>
       <use xlink:href="#m6fa4a83a2a" x="756.468276" y="174.04" style="stroke: #000000; stroke-width: 0.8"/>
      </g>
     </g>
     <g id="text_38">
      <!-- 0.5 -->
      <g transform="translate(748.516714 188.638438)scale(0.1 -0.1)">
       <use xlink:href="#DejaVuSans-30"/>
       <use xlink:href="#DejaVuSans-2e" x="63.623047"/>
       <use xlink:href="#DejaVuSans-35" x="95.410156"/>
      </g>
     </g>
    </g>
    <g id="xtick_15">
     <g id="line2d_54">
      <g>
       <use xlink:href="#m6fa4a83a2a" x="800.869377" y="174.04" style="stroke: #000000; stroke-width: 0.8"/>
      </g>
     </g>
     <g id="text_39">
      <!-- 1.0 -->
      <g transform="translate(792.917815 188.638438)scale(0.1 -0.1)">
       <use xlink:href="#DejaVuSans-31"/>
       <use xlink:href="#DejaVuSans-2e" x="63.623047"/>
       <use xlink:href="#DejaVuSans-30" x="95.410156"/>
      </g>
     </g>
    </g>
    <g id="xtick_16">
     <g id="line2d_55">
      <g>
       <use xlink:href="#m6fa4a83a2a" x="845.270478" y="174.04" style="stroke: #000000; stroke-width: 0.8"/>
      </g>
     </g>
     <g id="text_40">
      <!-- 1.5 -->
      <g transform="translate(837.318916 188.638438)scale(0.1 -0.1)">
       <use xlink:href="#DejaVuSans-31"/>
       <use xlink:href="#DejaVuSans-2e" x="63.623047"/>
       <use xlink:href="#DejaVuSans-35" x="95.410156"/>
      </g>
     </g>
    </g>
    <g id="text_41">
     <!-- Time -->
     <g transform="translate(766.105335 202.316563)scale(0.1 -0.1)">
      <use xlink:href="#DejaVuSans-54"/>
      <use xlink:href="#DejaVuSans-69" x="57.958984"/>
      <use xlink:href="#DejaVuSans-6d" x="85.742188"/>
      <use xlink:href="#DejaVuSans-65" x="183.154297"/>
     </g>
    </g>
   </g>
   <g id="matplotlib.axis_8">
    <g id="ytick_19">
     <g id="line2d_56">
      <g>
       <use xlink:href="#mcaa27a4619" x="705.44" y="153.103351" style="stroke: #000000; stroke-width: 0.8"/>
      </g>
     </g>
     <g id="text_42">
      <!-- −10000 -->
      <g transform="translate(658.247812 156.90257)scale(0.1 -0.1)">
       <use xlink:href="#DejaVuSans-2212"/>
       <use xlink:href="#DejaVuSans-31" x="83.789062"/>
       <use xlink:href="#DejaVuSans-30" x="147.412109"/>
       <use xlink:href="#DejaVuSans-30" x="211.035156"/>
       <use xlink:href="#DejaVuSans-30" x="274.658203"/>
       <use xlink:href="#DejaVuSans-30" x="338.28125"/>
      </g>
     </g>
    </g>
    <g id="ytick_20">
     <g id="line2d_57">
      <g>
       <use xlink:href="#mcaa27a4619" x="705.44" y="130.899493" style="stroke: #000000; stroke-width: 0.8"/>
      </g>
     </g>
     <g id="text_43">
      <!-- −5000 -->
      <g transform="translate(664.610312 134.698712)scale(0.1 -0.1)">
       <use xlink:href="#DejaVuSans-2212"/>
       <use xlink:href="#DejaVuSans-35" x="83.789062"/>
       <use xlink:href="#DejaVuSans-30" x="147.412109"/>
       <use xlink:href="#DejaVuSans-30" x="211.035156"/>
       <use xlink:href="#DejaVuSans-30" x="274.658203"/>
      </g>
     </g>
    </g>
    <g id="ytick_21">
     <g id="line2d_58">
      <g>
       <use xlink:href="#mcaa27a4619" x="705.44" y="108.695635" style="stroke: #000000; stroke-width: 0.8"/>
      </g>
     </g>
     <g id="text_44">
      <!-- 0 -->
      <g transform="translate(692.0775 112.494854)scale(0.1 -0.1)">
       <use xlink:href="#DejaVuSans-30"/>
      </g>
     </g>
    </g>
    <g id="ytick_22">
     <g id="line2d_59">
      <g>
       <use xlink:href="#mcaa27a4619" x="705.44" y="86.491777" style="stroke: #000000; stroke-width: 0.8"/>
      </g>
     </g>
     <g id="text_45">
      <!-- 5000 -->
      <g transform="translate(672.99 90.290996)scale(0.1 -0.1)">
       <use xlink:href="#DejaVuSans-35"/>
       <use xlink:href="#DejaVuSans-30" x="63.623047"/>
       <use xlink:href="#DejaVuSans-30" x="127.246094"/>
       <use xlink:href="#DejaVuSans-30" x="190.869141"/>
      </g>
     </g>
    </g>
    <g id="ytick_23">
     <g id="line2d_60">
      <g>
       <use xlink:href="#mcaa27a4619" x="705.44" y="64.287919" style="stroke: #000000; stroke-width: 0.8"/>
      </g>
     </g>
     <g id="text_46">
      <!-- 10000 -->
      <g transform="translate(666.6275 68.087137)scale(0.1 -0.1)">
       <use xlink:href="#DejaVuSans-31"/>
       <use xlink:href="#DejaVuSans-30" x="63.623047"/>
       <use xlink:href="#DejaVuSans-30" x="127.246094"/>
       <use xlink:href="#DejaVuSans-30" x="190.869141"/>
       <use xlink:href="#DejaVuSans-30" x="254.492188"/>
      </g>
     </g>
    </g>
    <g id="ytick_24">
     <g id="line2d_61">
      <g>
       <use xlink:href="#mcaa27a4619" x="705.44" y="42.084061" style="stroke: #000000; stroke-width: 0.8"/>
      </g>
     </g>
     <g id="text_47">
      <!-- 15000 -->
      <g transform="translate(666.6275 45.883279)scale(0.1 -0.1)">
       <use xlink:href="#DejaVuSans-31"/>
       <use xlink:href="#DejaVuSans-35" x="63.623047"/>
       <use xlink:href="#DejaVuSans-30" x="127.246094"/>
       <use xlink:href="#DejaVuSans-30" x="190.869141"/>
       <use xlink:href="#DejaVuSans-30" x="254.492188"/>
      </g>
     </g>
    </g>
    <g id="ytick_25">
     <g id="line2d_62">
      <g>
       <use xlink:href="#mcaa27a4619" x="705.44" y="19.880203" style="stroke: #000000; stroke-width: 0.8"/>
      </g>
     </g>
     <g id="text_48">
      <!-- 20000 -->
      <g transform="translate(666.6275 23.679421)scale(0.1 -0.1)">
       <use xlink:href="#DejaVuSans-32"/>
       <use xlink:href="#DejaVuSans-30" x="63.623047"/>
       <use xlink:href="#DejaVuSans-30" x="127.246094"/>
       <use xlink:href="#DejaVuSans-30" x="190.869141"/>
       <use xlink:href="#DejaVuSans-30" x="254.492188"/>
      </g>
     </g>
    </g>
    <g id="text_49">
     <!-- Jerk -->
     <g transform="translate(652.168125 102.903248)rotate(-90)scale(0.1 -0.1)">
      <defs>
       <path id="DejaVuSans-4a" d="M 628 4666 
L 1259 4666 
L 1259 325 
Q 1259 -519 939 -900 
Q 619 -1281 -91 -1281 
L -331 -1281 
L -331 -750 
L -134 -750 
Q 284 -750 456 -515 
Q 628 -281 628 325 
L 628 4666 
z
" transform="scale(0.015625)"/>
       <path id="DejaVuSans-6b" d="M 581 4863 
L 1159 4863 
L 1159 1991 
L 2875 3500 
L 3609 3500 
L 1753 1863 
L 3688 0 
L 2938 0 
L 1159 1709 
L 1159 0 
L 581 0 
L 581 4863 
z
" transform="scale(0.015625)"/>
      </defs>
      <use xlink:href="#DejaVuSans-4a"/>
      <use xlink:href="#DejaVuSans-65" x="29.492188"/>
      <use xlink:href="#DejaVuSans-72" x="91.015625"/>
      <use xlink:href="#DejaVuSans-6b" x="132.128906"/>
     </g>
    </g>
   </g>
   <g id="line2d_63">
    <path d="M 712.067175 80.298868 
L 714.455347 80.298868 
L 714.588023 132.307833 
L 716.047461 132.307833 
L 716.180137 90.046011 
L 717.241547 90.046011 
L 717.374223 96.540442 
L 718.435632 96.540442 
L 718.568308 119.450876 
L 720.027746 119.450876 
L 720.160423 104.133719 
L 721.487184 104.133719 
L 721.619861 106.876382 
L 722.946622 106.876382 
L 723.079299 113.934282 
L 724.538737 113.934282 
L 724.671413 106.195412 
L 725.732822 106.195412 
L 725.865498 109.630439 
L 727.590289 109.630439 
L 727.722965 109.277403 
L 730.111136 109.277403 
L 730.243813 108.440755 
L 732.897336 108.440755 
L 733.030012 108.838101 
L 735.948888 108.838101 
L 736.081565 108.376763 
L 739.000441 108.376763 
L 739.133117 109.155405 
L 742.450021 109.155405 
L 742.582698 108.628466 
L 760.095954 108.738972 
L 761.29004 108.752859 
L 807.461351 108.75686 
L 807.726704 108.601001 
L 811.972342 108.601001 
L 812.105018 108.885482 
L 815.554599 108.885482 
L 815.687275 108.524625 
L 818.340799 108.524625 
L 818.473475 108.753006 
L 832.271798 108.745422 
L 832.53715 108.640216 
L 835.588702 108.640216 
L 835.854055 108.505046 
L 837.578845 108.505046 
L 837.711521 109.843628 
L 839.967016 109.843628 
L 840.099693 107.10841 
L 843.68195 107.10841 
L 843.814626 115.298821 
L 844.610683 115.298821 
L 844.610683 115.298821 
" clip-path="url(#p75f6c19125)" style="fill: none; stroke: #1f77b4; stroke-width: 1.5; stroke-linecap: square"/>
   </g>
   <g id="line2d_64">
    <path d="M 712.067175 120.697388 
L 714.455347 120.697388 
L 714.588023 108.695635 
L 716.047461 108.695635 
L 716.180137 110.58131 
L 717.241547 110.58131 
L 717.374223 116.941097 
L 718.435632 116.941097 
L 718.568308 95.959026 
L 720.027746 95.959026 
L 720.160423 108.858376 
L 721.487184 108.858376 
L 721.619861 112.970612 
L 722.946622 112.970612 
L 723.079299 108.695635 
L 839.967016 108.695635 
L 840.099693 113.736939 
L 843.68195 113.736939 
L 843.814626 72.060477 
L 844.610683 72.060477 
L 844.610683 72.060477 
" clip-path="url(#p75f6c19125)" style="fill: none; stroke: #ff7f0e; stroke-width: 1.5; stroke-linecap: square"/>
   </g>
   <g id="line2d_65">
    <path d="M 712.067175 93.791803 
L 714.455347 93.791803 
L 714.588023 119.404847 
L 716.047461 119.404847 
L 716.180137 110.531946 
L 717.241547 110.531946 
L 717.374223 98.261702 
L 718.435632 98.261702 
L 718.568308 108.695635 
L 720.027746 108.695635 
L 720.160423 105.754471 
L 721.487184 105.754471 
L 721.619861 111.64025 
L 722.946622 111.64025 
L 723.079299 109.511122 
L 724.538737 109.511122 
L 724.671413 105.085711 
L 725.732822 105.085711 
L 725.865498 108.472842 
L 727.590289 108.472842 
L 727.855641 108.623376 
L 730.111136 108.623376 
L 730.243813 110.079953 
L 732.897336 110.079953 
L 733.030012 109.023736 
L 735.948888 109.023736 
L 736.081565 108.168831 
L 739.000441 108.168831 
L 739.265793 108.352007 
L 742.450021 108.352007 
L 742.582698 108.72315 
L 746.562983 108.72315 
L 746.695659 108.980851 
L 750.941297 108.980851 
L 751.073973 108.776715 
L 760.095954 108.699924 
L 760.361306 108.579045 
L 769.117934 108.653454 
L 769.250611 108.858575 
L 772.169487 108.858575 
L 772.434839 108.683138 
L 779.599353 108.78012 
L 779.732029 108.141666 
L 782.783581 108.141666 
L 782.916257 108.870492 
L 786.100486 108.870492 
L 786.233162 109.242563 
L 789.41739 109.242563 
L 789.550067 108.303873 
L 793.928381 108.303873 
L 794.061057 108.893181 
L 798.439371 108.893181 
L 798.704723 108.753269 
L 807.461351 108.729393 
L 807.594028 108.452085 
L 811.972342 108.452085 
L 812.105018 109.1304 
L 815.554599 109.1304 
L 815.687275 107.985187 
L 818.340799 107.985187 
L 818.473475 109.107257 
L 821.259675 109.107257 
L 821.392351 108.538853 
L 823.913198 108.538853 
L 824.178551 108.363577 
L 826.434046 108.363577 
L 826.566722 109.573035 
L 828.822217 109.573035 
L 828.954893 108.865863 
L 832.271798 108.865863 
L 832.404474 107.174114 
L 835.588702 107.174114 
L 835.721379 110.841387 
L 837.578845 110.841387 
L 837.711521 110.269662 
L 839.967016 110.269662 
L 840.099693 108.902662 
L 843.68195 108.902662 
L 843.814626 93.979114 
L 844.610683 93.979114 
L 844.610683 93.979114 
" clip-path="url(#p75f6c19125)" style="fill: none; stroke: #2ca02c; stroke-width: 1.5; stroke-linecap: square"/>
   </g>
   <g id="line2d_66">
    <path d="M 712.067175 108.626288 
L 714.455347 108.626288 
L 714.588023 110.919013 
L 717.241547 110.87433 
L 717.374223 104.356268 
L 718.435632 104.356268 
L 718.568308 109.7583 
L 720.027746 109.7583 
L 720.160423 108.481013 
L 721.487184 108.481013 
L 721.619861 108.781068 
L 722.946622 108.781068 
L 723.211975 108.642673 
L 724.538737 108.642673 
L 724.671413 109.220599 
L 725.732822 109.220599 
L 725.865498 107.886777 
L 727.590289 107.886777 
L 727.722965 109.161851 
L 730.111136 109.161851 
L 730.243813 108.5232 
L 732.897336 108.5232 
L 733.030012 108.81561 
L 735.948888 108.81561 
L 736.214241 108.631597 
L 746.562983 108.606927 
L 746.695659 108.814027 
L 750.941297 108.814027 
L 751.20665 108.676205 
L 755.584964 108.676205 
L 755.850316 108.790659 
L 764.606944 108.805045 
L 764.872296 108.639123 
L 769.117934 108.639123 
L 769.383287 108.783428 
L 772.169487 108.783428 
L 772.434839 108.581928 
L 789.41739 108.619873 
L 789.550067 109.070877 
L 793.928381 109.070877 
L 794.061057 108.664106 
L 798.439371 108.664106 
L 798.704723 108.547107 
L 801.490923 108.547107 
L 801.623599 108.255081 
L 804.542475 108.255081 
L 804.675152 108.853144 
L 811.972342 108.945458 
L 812.105018 108.554084 
L 818.340799 108.485634 
L 818.473475 109.494766 
L 821.259675 109.494766 
L 821.392351 108.597856 
L 823.913198 108.597856 
L 824.045874 107.509914 
L 826.434046 107.509914 
L 826.566722 109.048092 
L 832.271798 109.027323 
L 832.404474 107.821038 
L 835.588702 107.821038 
L 835.721379 110.236585 
L 837.578845 110.236585 
L 837.711521 107.729516 
L 839.967016 107.729516 
L 840.099693 111.699053 
L 843.68195 111.699053 
L 843.814626 114.80883 
L 844.610683 114.80883 
L 844.610683 114.80883 
" clip-path="url(#p75f6c19125)" style="fill: none; stroke: #d62728; stroke-width: 1.5; stroke-linecap: square"/>
   </g>
   <g id="line2d_67">
    <path d="M 712.067175 103.655625 
L 714.455347 103.655625 
L 714.588023 126.067165 
L 716.047461 126.067165 
L 716.180137 20.092636 
L 717.241547 20.092636 
L 717.374223 166.709173 
L 718.435632 166.709173 
L 718.568308 119.267904 
L 720.027746 119.267904 
L 720.160423 109.638546 
L 721.487184 109.638546 
L 721.619861 81.473936 
L 722.946622 81.473936 
L 723.079299 122.963904 
L 724.538737 122.963904 
L 724.671413 90.173567 
L 725.732822 90.173567 
L 725.865498 122.548701 
L 727.590289 122.548701 
L 727.722965 108.301441 
L 730.111136 108.301441 
L 730.243813 102.32494 
L 732.897336 102.32494 
L 733.030012 110.305573 
L 735.948888 110.305573 
L 736.081565 111.090612 
L 739.000441 111.090612 
L 739.133117 108.99967 
L 742.450021 108.99967 
L 742.582698 108.507271 
L 746.562983 108.507271 
L 746.695659 107.679323 
L 750.941297 107.679323 
L 751.073973 109.471437 
L 755.584964 109.471437 
L 755.71764 108.603482 
L 776.017096 108.664798 
L 776.149772 107.65898 
L 779.599353 107.65898 
L 779.732029 109.086475 
L 782.783581 109.086475 
L 782.916257 110.387743 
L 786.100486 110.387743 
L 786.233162 109.910051 
L 789.41739 109.910051 
L 789.550067 106.723055 
L 793.928381 106.723055 
L 794.061057 108.945096 
L 798.439371 108.945096 
L 798.572047 107.858374 
L 801.490923 107.858374 
L 801.623599 111.531837 
L 804.542475 111.531837 
L 804.675152 107.045815 
L 807.461351 107.045815 
L 807.594028 108.300469 
L 811.972342 108.300469 
L 812.105018 109.901366 
L 815.554599 109.901366 
L 815.687275 107.151759 
L 818.340799 107.151759 
L 818.473475 110.514401 
L 821.259675 110.514401 
L 821.392351 103.735816 
L 823.913198 103.735816 
L 824.045874 117.510974 
L 826.434046 117.510974 
L 826.566722 103.111915 
L 828.822217 103.111915 
L 828.954893 110.756689 
L 832.271798 110.756689 
L 832.404474 103.118864 
L 835.588702 103.118864 
L 835.721379 117.947215 
L 837.578845 117.947215 
L 837.711521 108.545983 
L 839.967016 108.545983 
L 840.099693 109.552759 
L 843.68195 109.552759 
L 843.814626 92.917599 
L 844.610683 92.917599 
L 844.610683 92.917599 
" clip-path="url(#p75f6c19125)" style="fill: none; stroke: #9467bd; stroke-width: 1.5; stroke-linecap: square"/>
   </g>
   <g id="line2d_68">
    <path d="M 712.067175 105.946575 
L 714.455347 105.946575 
L 714.588023 98.849902 
L 716.047461 98.849902 
L 716.180137 124.373799 
L 717.241547 124.373799 
L 717.374223 145.175441 
L 718.435632 145.175441 
L 718.568308 72.727194 
L 720.027746 72.727194 
L 720.160423 109.675511 
L 721.487184 109.675511 
L 721.619861 120.036503 
L 722.946622 120.036503 
L 723.079299 100.466977 
L 724.538737 100.466977 
L 724.671413 112.28279 
L 725.732822 112.28279 
L 725.865498 110.697741 
L 727.590289 110.697741 
L 727.722965 107.30985 
L 730.111136 107.30985 
L 730.243813 109.757143 
L 732.897336 109.757143 
L 733.030012 108.631171 
L 735.948888 108.631171 
L 736.081565 108.255391 
L 739.000441 108.255391 
L 739.133117 110.187016 
L 742.450021 110.187016 
L 742.582698 108.064383 
L 746.562983 108.064383 
L 746.695659 108.528814 
L 755.584964 108.545807 
L 755.850316 108.746537 
L 760.095954 108.746537 
L 760.361306 108.614431 
L 772.169487 108.601222 
L 772.434839 108.783539 
L 776.017096 108.783539 
L 776.282448 108.621297 
L 779.599353 108.621297 
L 779.732029 110.632501 
L 782.783581 110.632501 
L 782.916257 107.817627 
L 786.100486 107.817627 
L 786.233162 106.50115 
L 789.41739 106.50115 
L 789.550067 109.624662 
L 793.928381 109.624662 
L 794.061057 108.729743 
L 798.439371 108.729743 
L 798.572047 107.861967 
L 801.490923 107.861967 
L 801.623599 110.863722 
L 804.542475 110.863722 
L 804.675152 106.875309 
L 807.461351 106.875309 
L 807.594028 109.265137 
L 811.972342 109.265137 
L 812.105018 108.955852 
L 815.554599 108.955852 
L 815.687275 106.870743 
L 818.340799 106.870743 
L 818.473475 109.305919 
L 821.259675 109.305919 
L 821.392351 106.83359 
L 823.913198 106.83359 
L 824.045874 114.995536 
L 826.434046 114.995536 
L 826.566722 100.354429 
L 828.822217 100.354429 
L 828.954893 112.557683 
L 832.271798 112.557683 
L 832.404474 109.301596 
L 835.588702 109.301596 
L 835.721379 108.233566 
L 837.578845 108.233566 
L 837.711521 102.317499 
L 839.967016 102.317499 
L 840.099693 115.599359 
L 843.68195 115.599359 
L 843.814626 83.604703 
L 844.610683 83.604703 
L 844.610683 83.604703 
" clip-path="url(#p75f6c19125)" style="fill: none; stroke: #8c564b; stroke-width: 1.5; stroke-linecap: square"/>
   </g>
   <g id="line2d_69">
    <path d="M 712.067175 108.760618 
L 716.047461 108.651058 
L 716.180137 104.368872 
L 717.241547 104.368872 
L 717.374223 139.820836 
L 718.435632 139.820836 
L 718.568308 83.481394 
L 720.027746 83.481394 
L 720.160423 114.367525 
L 721.487184 114.367525 
L 721.619861 104.359517 
L 722.946622 104.359517 
L 723.079299 120.071399 
L 724.538737 120.071399 
L 724.671413 88.120038 
L 725.732822 88.120038 
L 725.865498 108.45454 
L 727.590289 108.45454 
L 727.722965 110.100886 
L 730.111136 110.100886 
L 730.243813 111.157279 
L 732.897336 111.157279 
L 733.030012 109.347579 
L 735.948888 109.347579 
L 736.081565 107.579342 
L 742.450021 107.680784 
L 742.582698 109.11455 
L 750.941297 109.114772 
L 751.073973 108.86221 
L 755.584964 108.86221 
L 755.71764 108.276299 
L 760.095954 108.276299 
L 760.361306 108.393022 
L 764.606944 108.393022 
L 764.73962 109.221407 
L 769.117934 109.221407 
L 769.250611 108.898299 
L 772.169487 108.898299 
L 772.302163 108.482833 
L 776.017096 108.482833 
L 776.149772 109.266535 
L 779.599353 109.266535 
L 779.732029 108.974834 
L 782.783581 108.974834 
L 782.916257 107.421526 
L 786.100486 107.421526 
L 786.233162 107.004775 
L 789.41739 107.004775 
L 789.550067 110.320325 
L 793.928381 110.320325 
L 794.061057 108.879777 
L 798.439371 108.879777 
L 798.572047 108.473101 
L 801.490923 108.473101 
L 801.756276 108.600153 
L 804.542475 108.600153 
L 804.675152 107.558411 
L 807.461351 107.558411 
L 807.594028 109.711193 
L 811.972342 109.711193 
L 812.105018 107.966157 
L 818.340799 108.038885 
L 818.473475 111.411082 
L 821.259675 111.411082 
L 821.392351 106.659219 
L 823.913198 106.659219 
L 824.045874 106.199604 
L 826.434046 106.199604 
L 826.566722 111.635767 
L 828.822217 111.635767 
L 828.954893 107.676063 
L 832.271798 107.676063 
L 832.404474 114.244086 
L 835.588702 114.244086 
L 835.721379 98.312245 
L 837.578845 98.312245 
L 837.711521 108.70581 
L 839.967016 108.70581 
L 840.099693 110.080339 
L 843.68195 110.080339 
L 843.814626 109.677026 
L 844.610683 109.677026 
L 844.610683 109.677026 
" clip-path="url(#p75f6c19125)" style="fill: none; stroke: #e377c2; stroke-width: 1.5; stroke-linecap: square"/>
   </g>
   <g id="patch_18">
    <path d="M 705.44 174.04 
L 705.44 12.761809 
" style="fill: none; stroke: #000000; stroke-width: 0.8; stroke-linejoin: miter; stroke-linecap: square"/>
   </g>
   <g id="patch_19">
    <path d="M 851.237858 174.04 
L 851.237858 12.761809 
" style="fill: none; stroke: #000000; stroke-width: 0.8; stroke-linejoin: miter; stroke-linecap: square"/>
   </g>
   <g id="patch_20">
    <path d="M 705.44 174.04 
L 851.237858 174.04 
" style="fill: none; stroke: #000000; stroke-width: 0.8; stroke-linejoin: miter; stroke-linecap: square"/>
   </g>
   <g id="patch_21">
    <path d="M 705.44 12.761809 
L 851.237858 12.761809 
" style="fill: none; stroke: #000000; stroke-width: 0.8; stroke-linejoin: miter; stroke-linecap: square"/>
   </g>
  </g>
 </g>
 <defs>
  <clipPath id="p3bd0fcd413">
   <rect x="46.64" y="12.761809" width="145.797858" height="161.278191"/>
  </clipPath>
  <clipPath id="p45a094afb0">
   <rect x="266.24" y="12.761809" width="145.797858" height="161.278191"/>
  </clipPath>
  <clipPath id="pc5d6d96602">
   <rect x="485.84" y="12.761809" width="145.797858" height="161.278191"/>
  </clipPath>
  <clipPath id="p75f6c19125">
   <rect x="705.44" y="12.761809" width="145.797858" height="161.278191"/>
  </clipPath>
 </defs>
</svg>
