<?xml version="1.0" encoding="utf-8" standalone="no"?>
<!DOCTYPE svg PUBLIC "-//W3C//DTD SVG 1.1//EN"
  "http://www.w3.org/Graphics/SVG/1.1/DTD/svg11.dtd">
<svg xmlns:xlink="http://www.w3.org/1999/xlink" width="864pt" height="216pt" viewBox="0 0 864 216" xmlns="http://www.w3.org/2000/svg" version="1.1">
 <metadata>
  <rdf:RDF xmlns:dc="http://purl.org/dc/elements/1.1/" xmlns:cc="http://creativecommons.org/ns#" xmlns:rdf="http://www.w3.org/1999/02/22-rdf-syntax-ns#">
   <cc:Work>
    <dc:type rdf:resource="http://purl.org/dc/dcmitype/StillImage"/>
    <dc:date>2023-07-24T21:29:07.787460</dc:date>
    <dc:format>image/svg+xml</dc:format>
    <dc:creator>
     <cc:Agent>
      <dc:title>Matplotlib v3.5.2, https://matplotlib.org/</dc:title>
     </cc:Agent>
    </dc:creator>
   </cc:Work>
  </rdf:RDF>
 </metadata>
 <defs>
  <style type="text/css">*{stroke-linejoin: round; stroke-linecap: butt}</style>
 </defs>
 <g id="figure_1">
  <g id="patch_1">
   <path d="M 0 216 
L 864 216 
L 864 0 
L 0 0 
z
" style="fill: #ffffff"/>
  </g>
  <g id="axes_1">
   <g id="patch_2">
    <path d="M 46.64 174.04 
L 199.890376 174.04 
L 199.890376 10.8 
L 46.64 10.8 
z
" style="fill: #ffffff"/>
   </g>
   <g id="matplotlib.axis_1">
    <g id="xtick_1">
     <g id="line2d_1">
      <defs>
       <path id="m2321b1ed09" d="M 0 0 
L 0 3.5 
" style="stroke: #000000; stroke-width: 0.8"/>
      </defs>
      <g>
       <use xlink:href="#m2321b1ed09" x="53.605926" y="174.04" style="stroke: #000000; stroke-width: 0.8"/>
      </g>
     </g>
     <g id="text_1">
      <!-- 0.0 -->
      <g transform="translate(45.654364 188.638438)scale(0.1 -0.1)">
       <defs>
        <path id="DejaVuSans-30" d="M 2034 4250 
Q 1547 4250 1301 3770 
Q 1056 3291 1056 2328 
Q 1056 1369 1301 889 
Q 1547 409 2034 409 
Q 2525 409 2770 889 
Q 3016 1369 3016 2328 
Q 3016 3291 2770 3770 
Q 2525 4250 2034 4250 
z
M 2034 4750 
Q 2819 4750 3233 4129 
Q 3647 3509 3647 2328 
Q 3647 1150 3233 529 
Q 2819 -91 2034 -91 
Q 1250 -91 836 529 
Q 422 1150 422 2328 
Q 422 3509 836 4129 
Q 1250 4750 2034 4750 
z
" transform="scale(0.015625)"/>
        <path id="DejaVuSans-2e" d="M 684 794 
L 1344 794 
L 1344 0 
L 684 0 
L 684 794 
z
" transform="scale(0.015625)"/>
       </defs>
       <use xlink:href="#DejaVuSans-30"/>
       <use xlink:href="#DejaVuSans-2e" x="63.623047"/>
       <use xlink:href="#DejaVuSans-30" x="95.410156"/>
      </g>
     </g>
    </g>
    <g id="xtick_2">
     <g id="line2d_2">
      <g>
       <use xlink:href="#m2321b1ed09" x="101.806664" y="174.04" style="stroke: #000000; stroke-width: 0.8"/>
      </g>
     </g>
     <g id="text_2">
      <!-- 0.5 -->
      <g transform="translate(93.855102 188.638438)scale(0.1 -0.1)">
       <defs>
        <path id="DejaVuSans-35" d="M 691 4666 
L 3169 4666 
L 3169 4134 
L 1269 4134 
L 1269 2991 
Q 1406 3038 1543 3061 
Q 1681 3084 1819 3084 
Q 2600 3084 3056 2656 
Q 3513 2228 3513 1497 
Q 3513 744 3044 326 
Q 2575 -91 1722 -91 
Q 1428 -91 1123 -41 
Q 819 9 494 109 
L 494 744 
Q 775 591 1075 516 
Q 1375 441 1709 441 
Q 2250 441 2565 725 
Q 2881 1009 2881 1497 
Q 2881 1984 2565 2268 
Q 2250 2553 1709 2553 
Q 1456 2553 1204 2497 
Q 953 2441 691 2322 
L 691 4666 
z
" transform="scale(0.015625)"/>
       </defs>
       <use xlink:href="#DejaVuSans-30"/>
       <use xlink:href="#DejaVuSans-2e" x="63.623047"/>
       <use xlink:href="#DejaVuSans-35" x="95.410156"/>
      </g>
     </g>
    </g>
    <g id="xtick_3">
     <g id="line2d_3">
      <g>
       <use xlink:href="#m2321b1ed09" x="150.007402" y="174.04" style="stroke: #000000; stroke-width: 0.8"/>
      </g>
     </g>
     <g id="text_3">
      <!-- 1.0 -->
      <g transform="translate(142.055839 188.638438)scale(0.1 -0.1)">
       <defs>
        <path id="DejaVuSans-31" d="M 794 531 
L 1825 531 
L 1825 4091 
L 703 3866 
L 703 4441 
L 1819 4666 
L 2450 4666 
L 2450 531 
L 3481 531 
L 3481 0 
L 794 0 
L 794 531 
z
" transform="scale(0.015625)"/>
       </defs>
       <use xlink:href="#DejaVuSans-31"/>
       <use xlink:href="#DejaVuSans-2e" x="63.623047"/>
       <use xlink:href="#DejaVuSans-30" x="95.410156"/>
      </g>
     </g>
    </g>
    <g id="xtick_4">
     <g id="line2d_4">
      <g>
       <use xlink:href="#m2321b1ed09" x="198.20814" y="174.04" style="stroke: #000000; stroke-width: 0.8"/>
      </g>
     </g>
     <g id="text_4">
      <!-- 1.5 -->
      <g transform="translate(190.256577 188.638438)scale(0.1 -0.1)">
       <use xlink:href="#DejaVuSans-31"/>
       <use xlink:href="#DejaVuSans-2e" x="63.623047"/>
       <use xlink:href="#DejaVuSans-35" x="95.410156"/>
      </g>
     </g>
    </g>
    <g id="text_5">
     <!-- Time -->
     <g transform="translate(111.031594 202.316563)scale(0.1 -0.1)">
      <defs>
       <path id="DejaVuSans-54" d="M -19 4666 
L 3928 4666 
L 3928 4134 
L 2272 4134 
L 2272 0 
L 1638 0 
L 1638 4134 
L -19 4134 
L -19 4666 
z
" transform="scale(0.015625)"/>
       <path id="DejaVuSans-69" d="M 603 3500 
L 1178 3500 
L 1178 0 
L 603 0 
L 603 3500 
z
M 603 4863 
L 1178 4863 
L 1178 4134 
L 603 4134 
L 603 4863 
z
" transform="scale(0.015625)"/>
       <path id="DejaVuSans-6d" d="M 3328 2828 
Q 3544 3216 3844 3400 
Q 4144 3584 4550 3584 
Q 5097 3584 5394 3201 
Q 5691 2819 5691 2113 
L 5691 0 
L 5113 0 
L 5113 2094 
Q 5113 2597 4934 2840 
Q 4756 3084 4391 3084 
Q 3944 3084 3684 2787 
Q 3425 2491 3425 1978 
L 3425 0 
L 2847 0 
L 2847 2094 
Q 2847 2600 2669 2842 
Q 2491 3084 2119 3084 
Q 1678 3084 1418 2786 
Q 1159 2488 1159 1978 
L 1159 0 
L 581 0 
L 581 3500 
L 1159 3500 
L 1159 2956 
Q 1356 3278 1631 3431 
Q 1906 3584 2284 3584 
Q 2666 3584 2933 3390 
Q 3200 3197 3328 2828 
z
" transform="scale(0.015625)"/>
       <path id="DejaVuSans-65" d="M 3597 1894 
L 3597 1613 
L 953 1613 
Q 991 1019 1311 708 
Q 1631 397 2203 397 
Q 2534 397 2845 478 
Q 3156 559 3463 722 
L 3463 178 
Q 3153 47 2828 -22 
Q 2503 -91 2169 -91 
Q 1331 -91 842 396 
Q 353 884 353 1716 
Q 353 2575 817 3079 
Q 1281 3584 2069 3584 
Q 2775 3584 3186 3129 
Q 3597 2675 3597 1894 
z
M 3022 2063 
Q 3016 2534 2758 2815 
Q 2500 3097 2075 3097 
Q 1594 3097 1305 2825 
Q 1016 2553 972 2059 
L 3022 2063 
z
" transform="scale(0.015625)"/>
      </defs>
      <use xlink:href="#DejaVuSans-54"/>
      <use xlink:href="#DejaVuSans-69" x="57.958984"/>
      <use xlink:href="#DejaVuSans-6d" x="85.742188"/>
      <use xlink:href="#DejaVuSans-65" x="183.154297"/>
     </g>
    </g>
   </g>
   <g id="matplotlib.axis_2">
    <g id="ytick_1">
     <g id="line2d_5">
      <defs>
       <path id="m2cf68590a3" d="M 0 0 
L -3.5 0 
" style="stroke: #000000; stroke-width: 0.8"/>
      </defs>
      <g>
       <use xlink:href="#m2cf68590a3" x="46.64" y="159.032974" style="stroke: #000000; stroke-width: 0.8"/>
      </g>
     </g>
     <g id="text_6">
      <!-- −2 -->
      <g transform="translate(24.897813 162.832192)scale(0.1 -0.1)">
       <defs>
        <path id="DejaVuSans-2212" d="M 678 2272 
L 4684 2272 
L 4684 1741 
L 678 1741 
L 678 2272 
z
" transform="scale(0.015625)"/>
        <path id="DejaVuSans-32" d="M 1228 531 
L 3431 531 
L 3431 0 
L 469 0 
L 469 531 
Q 828 903 1448 1529 
Q 2069 2156 2228 2338 
Q 2531 2678 2651 2914 
Q 2772 3150 2772 3378 
Q 2772 3750 2511 3984 
Q 2250 4219 1831 4219 
Q 1534 4219 1204 4116 
Q 875 4013 500 3803 
L 500 4441 
Q 881 4594 1212 4672 
Q 1544 4750 1819 4750 
Q 2544 4750 2975 4387 
Q 3406 4025 3406 3419 
Q 3406 3131 3298 2873 
Q 3191 2616 2906 2266 
Q 2828 2175 2409 1742 
Q 1991 1309 1228 531 
z
" transform="scale(0.015625)"/>
       </defs>
       <use xlink:href="#DejaVuSans-2212"/>
       <use xlink:href="#DejaVuSans-32" x="83.789062"/>
      </g>
     </g>
    </g>
    <g id="ytick_2">
     <g id="line2d_6">
      <g>
       <use xlink:href="#m2cf68590a3" x="46.64" y="128.35608" style="stroke: #000000; stroke-width: 0.8"/>
      </g>
     </g>
     <g id="text_7">
      <!-- −1 -->
      <g transform="translate(24.897813 132.155299)scale(0.1 -0.1)">
       <use xlink:href="#DejaVuSans-2212"/>
       <use xlink:href="#DejaVuSans-31" x="83.789062"/>
      </g>
     </g>
    </g>
    <g id="ytick_3">
     <g id="line2d_7">
      <g>
       <use xlink:href="#m2cf68590a3" x="46.64" y="97.679187" style="stroke: #000000; stroke-width: 0.8"/>
      </g>
     </g>
     <g id="text_8">
      <!-- 0 -->
      <g transform="translate(33.2775 101.478406)scale(0.1 -0.1)">
       <use xlink:href="#DejaVuSans-30"/>
      </g>
     </g>
    </g>
    <g id="ytick_4">
     <g id="line2d_8">
      <g>
       <use xlink:href="#m2cf68590a3" x="46.64" y="67.002294" style="stroke: #000000; stroke-width: 0.8"/>
      </g>
     </g>
     <g id="text_9">
      <!-- 1 -->
      <g transform="translate(33.2775 70.801512)scale(0.1 -0.1)">
       <use xlink:href="#DejaVuSans-31"/>
      </g>
     </g>
    </g>
    <g id="ytick_5">
     <g id="line2d_9">
      <g>
       <use xlink:href="#m2cf68590a3" x="46.64" y="36.3254" style="stroke: #000000; stroke-width: 0.8"/>
      </g>
     </g>
     <g id="text_10">
      <!-- 2 -->
      <g transform="translate(33.2775 40.124619)scale(0.1 -0.1)">
       <use xlink:href="#DejaVuSans-32"/>
      </g>
     </g>
    </g>
    <g id="text_11">
     <!-- Position -->
     <g transform="translate(18.818125 111.884062)rotate(-90)scale(0.1 -0.1)">
      <defs>
       <path id="DejaVuSans-50" d="M 1259 4147 
L 1259 2394 
L 2053 2394 
Q 2494 2394 2734 2622 
Q 2975 2850 2975 3272 
Q 2975 3691 2734 3919 
Q 2494 4147 2053 4147 
L 1259 4147 
z
M 628 4666 
L 2053 4666 
Q 2838 4666 3239 4311 
Q 3641 3956 3641 3272 
Q 3641 2581 3239 2228 
Q 2838 1875 2053 1875 
L 1259 1875 
L 1259 0 
L 628 0 
L 628 4666 
z
" transform="scale(0.015625)"/>
       <path id="DejaVuSans-6f" d="M 1959 3097 
Q 1497 3097 1228 2736 
Q 959 2375 959 1747 
Q 959 1119 1226 758 
Q 1494 397 1959 397 
Q 2419 397 2687 759 
Q 2956 1122 2956 1747 
Q 2956 2369 2687 2733 
Q 2419 3097 1959 3097 
z
M 1959 3584 
Q 2709 3584 3137 3096 
Q 3566 2609 3566 1747 
Q 3566 888 3137 398 
Q 2709 -91 1959 -91 
Q 1206 -91 779 398 
Q 353 888 353 1747 
Q 353 2609 779 3096 
Q 1206 3584 1959 3584 
z
" transform="scale(0.015625)"/>
       <path id="DejaVuSans-73" d="M 2834 3397 
L 2834 2853 
Q 2591 2978 2328 3040 
Q 2066 3103 1784 3103 
Q 1356 3103 1142 2972 
Q 928 2841 928 2578 
Q 928 2378 1081 2264 
Q 1234 2150 1697 2047 
L 1894 2003 
Q 2506 1872 2764 1633 
Q 3022 1394 3022 966 
Q 3022 478 2636 193 
Q 2250 -91 1575 -91 
Q 1294 -91 989 -36 
Q 684 19 347 128 
L 347 722 
Q 666 556 975 473 
Q 1284 391 1588 391 
Q 1994 391 2212 530 
Q 2431 669 2431 922 
Q 2431 1156 2273 1281 
Q 2116 1406 1581 1522 
L 1381 1569 
Q 847 1681 609 1914 
Q 372 2147 372 2553 
Q 372 3047 722 3315 
Q 1072 3584 1716 3584 
Q 2034 3584 2315 3537 
Q 2597 3491 2834 3397 
z
" transform="scale(0.015625)"/>
       <path id="DejaVuSans-74" d="M 1172 4494 
L 1172 3500 
L 2356 3500 
L 2356 3053 
L 1172 3053 
L 1172 1153 
Q 1172 725 1289 603 
Q 1406 481 1766 481 
L 2356 481 
L 2356 0 
L 1766 0 
Q 1100 0 847 248 
Q 594 497 594 1153 
L 594 3053 
L 172 3053 
L 172 3500 
L 594 3500 
L 594 4494 
L 1172 4494 
z
" transform="scale(0.015625)"/>
       <path id="DejaVuSans-6e" d="M 3513 2113 
L 3513 0 
L 2938 0 
L 2938 2094 
Q 2938 2591 2744 2837 
Q 2550 3084 2163 3084 
Q 1697 3084 1428 2787 
Q 1159 2491 1159 1978 
L 1159 0 
L 581 0 
L 581 3500 
L 1159 3500 
L 1159 2956 
Q 1366 3272 1645 3428 
Q 1925 3584 2291 3584 
Q 2894 3584 3203 3211 
Q 3513 2838 3513 2113 
z
" transform="scale(0.015625)"/>
      </defs>
      <use xlink:href="#DejaVuSans-50"/>
      <use xlink:href="#DejaVuSans-6f" x="56.677734"/>
      <use xlink:href="#DejaVuSans-73" x="117.859375"/>
      <use xlink:href="#DejaVuSans-69" x="169.958984"/>
      <use xlink:href="#DejaVuSans-74" x="197.742188"/>
      <use xlink:href="#DejaVuSans-69" x="236.951172"/>
      <use xlink:href="#DejaVuSans-6f" x="264.734375"/>
      <use xlink:href="#DejaVuSans-6e" x="325.916016"/>
     </g>
    </g>
   </g>
   <g id="line2d_10">
    <path d="M 53.605926 106.916116 
L 67.272808 106.806359 
L 73.687875 106.531895 
L 78.987279 106.084668 
L 83.72885 105.467452 
L 88.330964 104.649723 
L 93.072535 103.577692 
L 98.093022 102.204863 
L 103.671341 100.441337 
L 111.202072 97.806619 
L 125.008413 92.949994 
L 131.005106 91.107942 
L 136.443967 89.670089 
L 141.603912 88.533972 
L 146.763858 87.622805 
L 152.063261 86.910352 
L 157.781038 86.371072 
L 163.917189 86.0205 
L 170.750631 85.857113 
L 179.397025 85.887634 
L 192.92445 86.031189 
L 192.92445 86.031189 
" clip-path="url(#p6566f1feb0)" style="fill: none; stroke: #1f77b4; stroke-width: 1.5; stroke-linecap: square"/>
   </g>
   <g id="line2d_11">
    <path d="M 53.605926 83.135987 
L 56.674002 83.247784 
L 59.881535 83.59385 
L 63.367985 84.207581 
L 67.272808 85.12907 
L 72.293296 86.558692 
L 82.33427 89.719567 
L 94.188199 93.377196 
L 99.766518 94.867097 
L 104.508089 95.907779 
L 108.691829 96.606687 
L 112.73611 97.06012 
L 116.640934 97.278467 
L 120.545757 97.276879 
L 124.590039 97.048025 
L 128.773778 96.58234 
L 133.236434 95.854561 
L 138.117463 94.823505 
L 143.556324 93.44018 
L 150.389765 91.45988 
L 161.546404 87.956837 
L 172.424126 84.609854 
L 177.72353 83.210856 
L 182.046727 82.287262 
L 185.951551 81.677512 
L 189.577458 81.337112 
L 192.92445 81.233523 
L 192.92445 81.233523 
" clip-path="url(#p6566f1feb0)" style="fill: none; stroke: #ff7f0e; stroke-width: 1.5; stroke-linecap: square"/>
   </g>
   <g id="line2d_12">
    <path d="M 53.605926 109.456963 
L 66.296602 109.348264 
L 72.990586 109.074934 
L 78.429447 108.635693 
L 83.449934 108.005729 
L 88.191506 107.188387 
L 92.933077 106.148756 
L 97.953564 104.815845 
L 103.392426 103.135422 
L 109.807493 100.91144 
L 119.848467 97.156591 
L 129.610526 93.582886 
L 135.607219 91.624906 
L 140.627707 90.216486 
L 145.090362 89.188798 
L 149.274101 88.450569 
L 153.318383 87.966121 
L 157.223206 87.722171 
L 161.12803 87.696879 
L 165.311769 87.894598 
L 169.913883 88.337945 
L 176.32895 89.199903 
L 184.975345 90.339477 
L 189.438 90.688999 
L 192.92445 90.777234 
L 192.92445 90.777234 
" clip-path="url(#p6566f1feb0)" style="fill: none; stroke: #2ca02c; stroke-width: 1.5; stroke-linecap: square"/>
   </g>
   <g id="line2d_13">
    <path d="M 53.605926 164.654278 
L 63.786359 164.766696 
L 74.803539 165.115972 
L 90.422833 165.862542 
L 104.926463 166.49026 
L 113.015026 166.619922 
L 120.127383 166.513605 
L 126.960824 166.185526 
L 134.352097 165.597635 
L 145.508736 164.448416 
L 154.712963 163.593512 
L 160.988572 163.233708 
L 166.985265 163.110943 
L 173.958164 163.203855 
L 192.92445 163.690198 
L 192.92445 163.690198 
" clip-path="url(#p6566f1feb0)" style="fill: none; stroke: #d62728; stroke-width: 1.5; stroke-linecap: square"/>
   </g>
   <g id="line2d_14">
    <path d="M 53.605926 87.718434 
L 57.092376 87.832589 
L 60.578825 88.167061 
L 64.344191 88.750729 
L 68.667388 89.652651 
L 74.385165 91.094128 
L 86.657468 94.256289 
L 91.399039 95.212701 
L 95.722237 95.856321 
L 99.766518 96.231332 
L 103.810799 96.378165 
L 107.994539 96.298201 
L 112.457194 95.982516 
L 117.61714 95.386587 
L 133.933723 93.322321 
L 137.838547 93.165328 
L 141.324996 93.2434 
L 144.53253 93.528424 
L 147.740064 94.039403 
L 150.808139 94.749558 
L 154.015673 95.724206 
L 157.362664 96.980082 
L 160.988572 98.582514 
L 165.451227 100.808852 
L 177.72353 107.092032 
L 181.070521 108.465518 
L 183.999139 109.432778 
L 186.788298 110.119158 
L 189.438 110.539659 
L 192.087702 110.728727 
L 192.92445 110.740283 
L 192.92445 110.740283 
" clip-path="url(#p6566f1feb0)" style="fill: none; stroke: #9467bd; stroke-width: 1.5; stroke-linecap: square"/>
   </g>
   <g id="line2d_15">
    <path d="M 53.605926 18.332042 
L 56.81346 18.442953 
L 60.160451 18.787262 
L 63.646901 19.371843 
L 67.551724 20.253835 
L 72.432754 21.597361 
L 89.028253 26.379871 
L 93.351451 27.288125 
L 97.395732 27.913184 
L 101.300556 28.288336 
L 105.065921 28.428929 
L 108.970745 28.346743 
L 112.875568 28.041694 
L 117.059308 27.486647 
L 121.521963 26.669404 
L 126.821366 25.462169 
L 134.212639 23.523079 
L 144.811446 20.764122 
L 149.971391 19.661968 
L 154.434047 18.932847 
L 158.617786 18.475336 
L 162.662068 18.252767 
L 166.985265 18.243247 
L 171.866294 18.469102 
L 178.699735 19.036944 
L 187.34613 19.719838 
L 192.22716 19.872645 
L 192.92445 19.875158 
L 192.92445 19.875158 
" clip-path="url(#p6566f1feb0)" style="fill: none; stroke: #8c564b; stroke-width: 1.5; stroke-linecap: square"/>
   </g>
   <g id="line2d_16">
    <path d="M 53.605926 102.064443 
L 56.952918 101.95273 
L 60.439367 101.607218 
L 64.204733 100.997932 
L 68.388472 100.086716 
L 73.687875 98.692623 
L 90.562291 94.081219 
L 96.001153 92.920201 
L 101.300556 92.017623 
L 106.739417 91.317523 
L 112.596652 90.7874 
L 119.151177 90.41883 
L 126.821366 90.217652 
L 135.467761 90.220669 
L 144.811446 90.44959 
L 156.94429 90.990715 
L 171.44792 91.603381 
L 180.373231 91.735435 
L 192.92445 91.715954 
L 192.92445 91.715954 
" clip-path="url(#p6566f1feb0)" style="fill: none; stroke: #e377c2; stroke-width: 1.5; stroke-linecap: square"/>
   </g>
   <g id="patch_3">
    <path d="M 46.64 174.04 
L 46.64 10.8 
" style="fill: none; stroke: #000000; stroke-width: 0.8; stroke-linejoin: miter; stroke-linecap: square"/>
   </g>
   <g id="patch_4">
    <path d="M 199.890376 174.04 
L 199.890376 10.8 
" style="fill: none; stroke: #000000; stroke-width: 0.8; stroke-linejoin: miter; stroke-linecap: square"/>
   </g>
   <g id="patch_5">
    <path d="M 46.64 174.04 
L 199.890376 174.04 
" style="fill: none; stroke: #000000; stroke-width: 0.8; stroke-linejoin: miter; stroke-linecap: square"/>
   </g>
   <g id="patch_6">
    <path d="M 46.64 10.8 
L 199.890376 10.8 
" style="fill: none; stroke: #000000; stroke-width: 0.8; stroke-linejoin: miter; stroke-linecap: square"/>
   </g>
  </g>
  <g id="axes_2">
   <g id="patch_7">
    <path d="M 262.3025 174.04 
L 415.552876 174.04 
L 415.552876 10.8 
L 262.3025 10.8 
z
" style="fill: #ffffff"/>
   </g>
   <g id="matplotlib.axis_3">
    <g id="xtick_5">
     <g id="line2d_17">
      <g>
       <use xlink:href="#m2321b1ed09" x="269.268426" y="174.04" style="stroke: #000000; stroke-width: 0.8"/>
      </g>
     </g>
     <g id="text_12">
      <!-- 0.0 -->
      <g transform="translate(261.316864 188.638438)scale(0.1 -0.1)">
       <use xlink:href="#DejaVuSans-30"/>
       <use xlink:href="#DejaVuSans-2e" x="63.623047"/>
       <use xlink:href="#DejaVuSans-30" x="95.410156"/>
      </g>
     </g>
    </g>
    <g id="xtick_6">
     <g id="line2d_18">
      <g>
       <use xlink:href="#m2321b1ed09" x="317.469164" y="174.04" style="stroke: #000000; stroke-width: 0.8"/>
      </g>
     </g>
     <g id="text_13">
      <!-- 0.5 -->
      <g transform="translate(309.517602 188.638438)scale(0.1 -0.1)">
       <use xlink:href="#DejaVuSans-30"/>
       <use xlink:href="#DejaVuSans-2e" x="63.623047"/>
       <use xlink:href="#DejaVuSans-35" x="95.410156"/>
      </g>
     </g>
    </g>
    <g id="xtick_7">
     <g id="line2d_19">
      <g>
       <use xlink:href="#m2321b1ed09" x="365.669902" y="174.04" style="stroke: #000000; stroke-width: 0.8"/>
      </g>
     </g>
     <g id="text_14">
      <!-- 1.0 -->
      <g transform="translate(357.718339 188.638438)scale(0.1 -0.1)">
       <use xlink:href="#DejaVuSans-31"/>
       <use xlink:href="#DejaVuSans-2e" x="63.623047"/>
       <use xlink:href="#DejaVuSans-30" x="95.410156"/>
      </g>
     </g>
    </g>
    <g id="xtick_8">
     <g id="line2d_20">
      <g>
       <use xlink:href="#m2321b1ed09" x="413.87064" y="174.04" style="stroke: #000000; stroke-width: 0.8"/>
      </g>
     </g>
     <g id="text_15">
      <!-- 1.5 -->
      <g transform="translate(405.919077 188.638438)scale(0.1 -0.1)">
       <use xlink:href="#DejaVuSans-31"/>
       <use xlink:href="#DejaVuSans-2e" x="63.623047"/>
       <use xlink:href="#DejaVuSans-35" x="95.410156"/>
      </g>
     </g>
    </g>
    <g id="text_16">
     <!-- Time -->
     <g transform="translate(326.694094 202.316563)scale(0.1 -0.1)">
      <use xlink:href="#DejaVuSans-54"/>
      <use xlink:href="#DejaVuSans-69" x="57.958984"/>
      <use xlink:href="#DejaVuSans-6d" x="85.742188"/>
      <use xlink:href="#DejaVuSans-65" x="183.154297"/>
     </g>
    </g>
   </g>
   <g id="matplotlib.axis_4">
    <g id="ytick_6">
     <g id="line2d_21">
      <g>
       <use xlink:href="#m2cf68590a3" x="262.3025" y="157.277302" style="stroke: #000000; stroke-width: 0.8"/>
      </g>
     </g>
     <g id="text_17">
      <!-- −1.5 -->
      <g transform="translate(231.019687 161.076521)scale(0.1 -0.1)">
       <use xlink:href="#DejaVuSans-2212"/>
       <use xlink:href="#DejaVuSans-31" x="83.789062"/>
       <use xlink:href="#DejaVuSans-2e" x="147.412109"/>
       <use xlink:href="#DejaVuSans-35" x="179.199219"/>
      </g>
     </g>
    </g>
    <g id="ytick_7">
     <g id="line2d_22">
      <g>
       <use xlink:href="#m2cf68590a3" x="262.3025" y="131.427486" style="stroke: #000000; stroke-width: 0.8"/>
      </g>
     </g>
     <g id="text_18">
      <!-- −1.0 -->
      <g transform="translate(231.019687 135.226704)scale(0.1 -0.1)">
       <use xlink:href="#DejaVuSans-2212"/>
       <use xlink:href="#DejaVuSans-31" x="83.789062"/>
       <use xlink:href="#DejaVuSans-2e" x="147.412109"/>
       <use xlink:href="#DejaVuSans-30" x="179.199219"/>
      </g>
     </g>
    </g>
    <g id="ytick_8">
     <g id="line2d_23">
      <g>
       <use xlink:href="#m2cf68590a3" x="262.3025" y="105.577669" style="stroke: #000000; stroke-width: 0.8"/>
      </g>
     </g>
     <g id="text_19">
      <!-- −0.5 -->
      <g transform="translate(231.019687 109.376888)scale(0.1 -0.1)">
       <use xlink:href="#DejaVuSans-2212"/>
       <use xlink:href="#DejaVuSans-30" x="83.789062"/>
       <use xlink:href="#DejaVuSans-2e" x="147.412109"/>
       <use xlink:href="#DejaVuSans-35" x="179.199219"/>
      </g>
     </g>
    </g>
    <g id="ytick_9">
     <g id="line2d_24">
      <g>
       <use xlink:href="#m2cf68590a3" x="262.3025" y="79.727852" style="stroke: #000000; stroke-width: 0.8"/>
      </g>
     </g>
     <g id="text_20">
      <!-- 0.0 -->
      <g transform="translate(239.399375 83.527071)scale(0.1 -0.1)">
       <use xlink:href="#DejaVuSans-30"/>
       <use xlink:href="#DejaVuSans-2e" x="63.623047"/>
       <use xlink:href="#DejaVuSans-30" x="95.410156"/>
      </g>
     </g>
    </g>
    <g id="ytick_10">
     <g id="line2d_25">
      <g>
       <use xlink:href="#m2cf68590a3" x="262.3025" y="53.878035" style="stroke: #000000; stroke-width: 0.8"/>
      </g>
     </g>
     <g id="text_21">
      <!-- 0.5 -->
      <g transform="translate(239.399375 57.677254)scale(0.1 -0.1)">
       <use xlink:href="#DejaVuSans-30"/>
       <use xlink:href="#DejaVuSans-2e" x="63.623047"/>
       <use xlink:href="#DejaVuSans-35" x="95.410156"/>
      </g>
     </g>
    </g>
    <g id="ytick_11">
     <g id="line2d_26">
      <g>
       <use xlink:href="#m2cf68590a3" x="262.3025" y="28.028219" style="stroke: #000000; stroke-width: 0.8"/>
      </g>
     </g>
     <g id="text_22">
      <!-- 1.0 -->
      <g transform="translate(239.399375 31.827437)scale(0.1 -0.1)">
       <use xlink:href="#DejaVuSans-31"/>
       <use xlink:href="#DejaVuSans-2e" x="63.623047"/>
       <use xlink:href="#DejaVuSans-30" x="95.410156"/>
      </g>
     </g>
    </g>
    <g id="text_23">
     <!-- Velocity -->
     <g transform="translate(224.94 112.035625)rotate(-90)scale(0.1 -0.1)">
      <defs>
       <path id="DejaVuSans-56" d="M 1831 0 
L 50 4666 
L 709 4666 
L 2188 738 
L 3669 4666 
L 4325 4666 
L 2547 0 
L 1831 0 
z
" transform="scale(0.015625)"/>
       <path id="DejaVuSans-6c" d="M 603 4863 
L 1178 4863 
L 1178 0 
L 603 0 
L 603 4863 
z
" transform="scale(0.015625)"/>
       <path id="DejaVuSans-63" d="M 3122 3366 
L 3122 2828 
Q 2878 2963 2633 3030 
Q 2388 3097 2138 3097 
Q 1578 3097 1268 2742 
Q 959 2388 959 1747 
Q 959 1106 1268 751 
Q 1578 397 2138 397 
Q 2388 397 2633 464 
Q 2878 531 3122 666 
L 3122 134 
Q 2881 22 2623 -34 
Q 2366 -91 2075 -91 
Q 1284 -91 818 406 
Q 353 903 353 1747 
Q 353 2603 823 3093 
Q 1294 3584 2113 3584 
Q 2378 3584 2631 3529 
Q 2884 3475 3122 3366 
z
" transform="scale(0.015625)"/>
       <path id="DejaVuSans-79" d="M 2059 -325 
Q 1816 -950 1584 -1140 
Q 1353 -1331 966 -1331 
L 506 -1331 
L 506 -850 
L 844 -850 
Q 1081 -850 1212 -737 
Q 1344 -625 1503 -206 
L 1606 56 
L 191 3500 
L 800 3500 
L 1894 763 
L 2988 3500 
L 3597 3500 
L 2059 -325 
z
" transform="scale(0.015625)"/>
      </defs>
      <use xlink:href="#DejaVuSans-56"/>
      <use xlink:href="#DejaVuSans-65" x="60.658203"/>
      <use xlink:href="#DejaVuSans-6c" x="122.181641"/>
      <use xlink:href="#DejaVuSans-6f" x="149.964844"/>
      <use xlink:href="#DejaVuSans-63" x="211.146484"/>
      <use xlink:href="#DejaVuSans-69" x="266.126953"/>
      <use xlink:href="#DejaVuSans-74" x="293.910156"/>
      <use xlink:href="#DejaVuSans-79" x="333.119141"/>
     </g>
    </g>
   </g>
   <g id="line2d_27">
    <path d="M 269.268426 79.727852 
L 273.033792 79.391644 
L 275.822951 78.90078 
L 277.635905 78.366321 
L 279.448859 77.602389 
L 281.680187 76.427817 
L 283.353682 75.288164 
L 285.166636 73.777908 
L 287.537422 71.512302 
L 289.489833 69.307644 
L 291.860619 66.262322 
L 294.370863 62.724697 
L 297.29948 58.15649 
L 301.48322 51.219259 
L 309.292867 38.216807 
L 312.082026 34.043158 
L 314.731728 30.423221 
L 316.68414 28.111497 
L 319.054926 25.680917 
L 320.728421 24.229302 
L 322.262459 23.165677 
L 324.075413 22.195509 
L 325.748909 21.510629 
L 327.282946 21.145247 
L 329.0959 20.923552 
L 330.49048 20.981313 
L 331.88506 21.259006 
L 333.698014 21.8836 
L 335.371509 22.65318 
L 337.045005 23.693483 
L 338.857959 25.094788 
L 341.228745 27.192161 
L 343.320614 29.362427 
L 346.38869 32.927784 
L 349.317307 36.656336 
L 354.756169 44.050371 
L 362.844732 55.056902 
L 366.889013 60.154309 
L 370.096547 63.899244 
L 373.861912 67.926002 
L 376.929988 70.871408 
L 380.276979 73.786987 
L 383.623971 76.373536 
L 386.134215 78.023146 
L 389.062832 79.681956 
L 391.154702 80.617887 
L 393.804404 81.52416 
L 395.617357 81.928615 
L 397.430311 82.102473 
L 399.801097 82.09044 
L 401.614051 81.860723 
L 403.70592 81.362075 
L 406.634538 80.440151 
L 408.58695 79.727852 
L 408.58695 79.727852 
" clip-path="url(#p434fd2b738)" style="fill: none; stroke: #1f77b4; stroke-width: 1.5; stroke-linecap: square"/>
   </g>
   <g id="line2d_28">
    <path d="M 269.268426 79.727852 
L 273.17325 94.538144 
L 276.101867 104.727433 
L 278.054279 110.676288 
L 279.867233 115.477906 
L 281.680187 119.775354 
L 283.074766 122.539524 
L 284.469346 124.804459 
L 286.2823 127.208672 
L 287.537422 128.577536 
L 288.653086 129.501816 
L 289.908207 130.245167 
L 291.302787 130.780967 
L 292.976283 131.215714 
L 294.510321 131.38531 
L 297.160022 131.422857 
L 299.809724 131.298083 
L 302.18051 130.922688 
L 303.714548 130.459172 
L 305.248585 129.753022 
L 307.200997 128.554224 
L 308.735035 127.400617 
L 310.269073 125.960718 
L 311.942568 124.0741 
L 314.173896 121.222223 
L 315.98685 118.507184 
L 318.07872 114.953688 
L 320.588963 110.30344 
L 323.099207 105.145333 
L 326.864572 96.858716 
L 332.721808 83.257869 
L 338.857959 69.114374 
L 342.483866 61.313379 
L 345.6914 55.001087 
L 348.201644 50.444886 
L 350.851345 46.10937 
L 353.222131 42.574557 
L 356.011291 38.885075 
L 357.963702 36.665275 
L 360.055572 34.643193 
L 362.2869 32.757581 
L 364.099854 31.51095 
L 366.331181 30.272455 
L 368.283593 29.397555 
L 370.096547 28.822806 
L 372.60679 28.300415 
L 374.69866 28.071081 
L 377.069446 28.041206 
L 379.161316 28.204417 
L 380.834811 28.589501 
L 382.647765 29.215939 
L 384.042345 29.950706 
L 385.436925 30.945227 
L 387.249878 32.55666 
L 388.783916 34.156705 
L 390.317954 36.093341 
L 391.99145 38.592553 
L 394.08332 42.09481 
L 395.756815 45.328524 
L 397.569769 49.306866 
L 400.219471 55.688561 
L 402.590256 62.065324 
L 406.355622 73.018445 
L 408.58695 79.727852 
L 408.58695 79.727852 
" clip-path="url(#p434fd2b738)" style="fill: none; stroke: #ff7f0e; stroke-width: 1.5; stroke-linecap: square"/>
   </g>
   <g id="line2d_29">
    <path d="M 269.268426 79.727852 
L 273.033792 79.205681 
L 275.962409 78.550953 
L 277.914821 77.878374 
L 280.006691 76.896081 
L 282.09856 75.696948 
L 283.911514 74.382142 
L 286.142842 72.445655 
L 288.234712 70.374325 
L 290.326581 67.963676 
L 293.394657 64.014884 
L 296.044359 60.210248 
L 300.367556 53.515067 
L 311.245279 36.355337 
L 314.731728 31.481953 
L 317.102514 28.551102 
L 319.891673 25.47442 
L 321.844085 23.638196 
L 323.935955 21.986236 
L 326.027825 20.582231 
L 328.119694 19.501102 
L 329.79319 18.827867 
L 331.327228 18.438569 
L 333.000724 18.25489 
L 334.953135 18.247913 
L 336.487173 18.472464 
L 338.021211 18.923146 
L 340.252539 19.861271 
L 341.926034 20.815851 
L 343.59953 22.039995 
L 345.970316 24.114973 
L 347.78327 25.989499 
L 349.735681 28.354965 
L 352.245925 31.76247 
L 354.477253 35.193005 
L 356.987496 39.416213 
L 359.358282 43.882489 
L 362.565816 50.419129 
L 365.773349 57.534921 
L 370.793837 69.248487 
L 376.09324 81.515751 
L 379.300773 88.318259 
L 381.671559 92.792441 
L 383.484513 95.843344 
L 385.018551 98.015107 
L 386.552589 99.804947 
L 388.226084 101.45733 
L 389.341748 102.27374 
L 390.457412 102.822385 
L 391.433618 103.073281 
L 392.828198 103.166218 
L 393.943862 103.048689 
L 394.920067 102.706969 
L 395.896273 102.129319 
L 397.011937 101.17884 
L 398.545975 99.494945 
L 399.940555 97.679619 
L 401.335135 95.452869 
L 402.869172 92.561199 
L 405.379416 87.22974 
L 408.168576 80.724913 
L 408.58695 79.727852 
L 408.58695 79.727852 
" clip-path="url(#p434fd2b738)" style="fill: none; stroke: #2ca02c; stroke-width: 1.5; stroke-linecap: square"/>
   </g>
   <g id="line2d_30">
    <path d="M 269.268426 79.727852 
L 278.193737 82.840127 
L 284.469346 84.783155 
L 289.629291 86.135553 
L 294.231405 87.078341 
L 298.136228 87.638434 
L 301.622678 87.944516 
L 304.690753 88.028411 
L 308.037745 87.869593 
L 310.687447 87.539682 
L 313.89498 86.88259 
L 316.405224 86.153967 
L 319.473299 85.00277 
L 321.983543 83.843852 
L 325.051619 82.16126 
L 328.119694 80.235337 
L 331.466686 77.901554 
L 336.347715 74.165852 
L 343.738988 68.493746 
L 347.225438 66.150723 
L 349.596223 64.835965 
L 352.245925 63.637073 
L 354.198337 63.001786 
L 356.290207 62.522564 
L 357.963702 62.379961 
L 359.637198 62.466433 
L 361.729068 62.791186 
L 363.402564 63.303035 
L 365.076059 64.057277 
L 367.446845 65.391466 
L 369.399257 66.77632 
L 371.630585 68.649487 
L 374.559202 71.36645 
L 383.623971 80.087649 
L 385.715841 81.703058 
L 388.226084 83.347998 
L 390.039038 84.267491 
L 391.712534 84.859795 
L 393.804404 85.355495 
L 395.338441 85.492845 
L 396.872479 85.398419 
L 398.824891 85.016434 
L 400.498387 84.50401 
L 402.171882 83.761456 
L 404.40321 82.50142 
L 407.19237 80.691184 
L 408.58695 79.727852 
L 408.58695 79.727852 
" clip-path="url(#p434fd2b738)" style="fill: none; stroke: #d62728; stroke-width: 1.5; stroke-linecap: square"/>
   </g>
   <g id="line2d_31">
    <path d="M 269.268426 79.727852 
L 273.87054 93.542018 
L 276.799157 101.669426 
L 278.891027 106.800179 
L 281.261813 111.997029 
L 282.935308 115.148208 
L 284.469346 117.551845 
L 286.421758 120.094785 
L 287.67688 121.431096 
L 288.792544 122.330571 
L 289.908207 122.957752 
L 291.163329 123.382717 
L 292.557909 123.640081 
L 293.534115 123.613526 
L 294.510321 123.38783 
L 295.625985 122.894283 
L 297.020564 121.982887 
L 298.554602 120.742411 
L 299.809724 119.443966 
L 301.901594 116.870141 
L 303.435632 114.662145 
L 305.248585 111.633354 
L 307.898287 106.654433 
L 310.408531 101.461423 
L 314.313354 92.754008 
L 321.425711 76.864538 
L 324.214871 71.266389 
L 326.446199 67.179854 
L 328.956442 63.133222 
L 330.49048 61.037658 
L 331.88506 59.471453 
L 333.558556 57.969765 
L 334.953135 56.959345 
L 336.068799 56.419365 
L 337.184463 56.138166 
L 338.300127 56.116708 
L 339.694707 56.323834 
L 340.810371 56.695805 
L 341.786576 57.253324 
L 342.90224 58.160088 
L 344.157362 59.514336 
L 345.830858 61.657011 
L 347.08598 63.595418 
L 348.48056 66.168329 
L 350.014597 69.477882 
L 352.106467 74.490941 
L 353.919421 79.44341 
L 356.429665 86.940451 
L 358.660992 94.358142 
L 362.2869 107.380792 
L 371.770042 142.140085 
L 374.00137 149.262132 
L 375.674866 153.887418 
L 377.48782 158.171776 
L 379.021858 161.29508 
L 380.137521 163.069429 
L 381.532101 164.85817 
L 382.508307 165.838122 
L 383.345055 166.370811 
L 384.042345 166.589761 
L 384.739635 166.597595 
L 385.436925 166.392608 
L 386.413131 165.805027 
L 387.528794 164.866007 
L 388.365542 163.914007 
L 389.341748 162.411308 
L 390.317954 160.489994 
L 391.433618 157.790989 
L 393.246572 152.643016 
L 394.641151 148.07712 
L 396.175189 142.232526 
L 397.988143 134.383067 
L 400.498387 122.56173 
L 403.148088 108.863549 
L 408.58695 79.727852 
L 408.58695 79.727852 
" clip-path="url(#p434fd2b738)" style="fill: none; stroke: #9467bd; stroke-width: 1.5; stroke-linecap: square"/>
   </g>
   <g id="line2d_32">
    <path d="M 269.268426 79.727852 
L 273.731082 95.090499 
L 276.659699 104.412021 
L 278.612111 109.92742 
L 280.982897 115.896453 
L 282.656392 119.55575 
L 284.050972 122.125191 
L 285.58501 124.493371 
L 287.119048 126.538557 
L 288.234712 127.699579 
L 289.350375 128.558309 
L 290.466039 129.118103 
L 291.860619 129.546158 
L 292.976283 129.687019 
L 293.952489 129.581991 
L 294.928695 129.26378 
L 296.044359 128.647499 
L 297.717854 127.38982 
L 298.972976 126.210783 
L 300.367556 124.573418 
L 302.319968 121.942168 
L 303.993464 119.280058 
L 305.806417 115.962109 
L 308.595577 110.330791 
L 311.105821 104.714152 
L 315.28956 94.666756 
L 326.725115 66.690247 
L 330.211564 58.982894 
L 332.721808 53.988345 
L 335.510967 48.937877 
L 337.463379 45.857715 
L 339.694707 42.789458 
L 341.507661 40.613634 
L 343.041698 39.105776 
L 344.715194 37.789302 
L 346.38869 36.706418 
L 347.643812 36.13807 
L 348.898934 35.801905 
L 350.293513 35.676372 
L 351.827551 35.729584 
L 353.082673 36.007652 
L 354.756169 36.666053 
L 356.150749 37.416596 
L 357.545328 38.456223 
L 358.939908 39.785628 
L 361.031778 42.156529 
L 362.705274 44.378897 
L 364.518227 47.189218 
L 367.167929 51.812552 
L 369.538715 56.403533 
L 373.025164 63.734555 
L 379.998063 78.464073 
L 382.787223 83.702544 
L 384.600177 86.661144 
L 386.273673 88.98139 
L 388.226084 91.33016 
L 389.620664 92.644361 
L 390.875786 93.511895 
L 392.130908 94.095546 
L 393.664946 94.565896 
L 394.641151 94.654988 
L 395.617357 94.54277 
L 396.593563 94.229468 
L 397.848685 93.559309 
L 399.382723 92.500642 
L 400.637845 91.361252 
L 402.032424 89.7703 
L 403.70592 87.487656 
L 406.076706 83.893782 
L 408.58695 79.727852 
L 408.58695 79.727852 
" clip-path="url(#p434fd2b738)" style="fill: none; stroke: #8c564b; stroke-width: 1.5; stroke-linecap: square"/>
   </g>
   <g id="line2d_33">
    <path d="M 269.268426 79.727852 
L 273.731082 65.507871 
L 276.659699 56.877661 
L 278.751569 51.433039 
L 281.261813 45.642901 
L 282.935308 42.341756 
L 284.469346 39.819587 
L 286.421758 37.134754 
L 287.67688 35.701064 
L 288.932002 34.598299 
L 290.047665 33.88972 
L 291.442245 33.28719 
L 292.836825 32.895238 
L 293.952489 32.818702 
L 295.068153 32.961286 
L 296.323275 33.364632 
L 298.136228 34.21215 
L 299.530808 35.102905 
L 301.48322 36.671189 
L 303.296174 38.364351 
L 305.388043 40.657049 
L 308.874493 44.923788 
L 314.034438 51.705376 
L 318.636552 57.578794 
L 321.844085 61.367735 
L 325.191077 64.936516 
L 328.119694 67.744626 
L 330.908854 70.158081 
L 333.837472 72.373891 
L 336.905547 74.45248 
L 340.531455 76.601129 
L 344.157362 78.517251 
L 349.317307 80.979423 
L 355.174543 83.497093 
L 359.218824 85.032786 
L 363.263106 86.33518 
L 366.470639 87.118221 
L 369.120341 87.580274 
L 371.770042 87.799005 
L 374.280286 87.80866 
L 376.372156 87.593426 
L 379.161316 87.068503 
L 381.811017 86.303848 
L 384.321261 85.387327 
L 387.80771 83.84342 
L 394.920067 80.670691 
L 397.151395 79.964643 
L 399.801097 79.389967 
L 401.753508 79.196358 
L 403.845378 79.219946 
L 406.634538 79.458247 
L 408.58695 79.727852 
L 408.58695 79.727852 
" clip-path="url(#p434fd2b738)" style="fill: none; stroke: #e377c2; stroke-width: 1.5; stroke-linecap: square"/>
   </g>
   <g id="patch_8">
    <path d="M 262.3025 174.04 
L 262.3025 10.8 
" style="fill: none; stroke: #000000; stroke-width: 0.8; stroke-linejoin: miter; stroke-linecap: square"/>
   </g>
   <g id="patch_9">
    <path d="M 415.552876 174.04 
L 415.552876 10.8 
" style="fill: none; stroke: #000000; stroke-width: 0.8; stroke-linejoin: miter; stroke-linecap: square"/>
   </g>
   <g id="patch_10">
    <path d="M 262.3025 174.04 
L 415.552876 174.04 
" style="fill: none; stroke: #000000; stroke-width: 0.8; stroke-linejoin: miter; stroke-linecap: square"/>
   </g>
   <g id="patch_11">
    <path d="M 262.3025 10.8 
L 415.552876 10.8 
" style="fill: none; stroke: #000000; stroke-width: 0.8; stroke-linejoin: miter; stroke-linecap: square"/>
   </g>
  </g>
  <g id="axes_3">
   <g id="patch_12">
    <path d="M 477.965 174.04 
L 631.215376 174.04 
L 631.215376 10.8 
L 477.965 10.8 
z
" style="fill: #ffffff"/>
   </g>
   <g id="matplotlib.axis_5">
    <g id="xtick_9">
     <g id="line2d_34">
      <g>
       <use xlink:href="#m2321b1ed09" x="484.930926" y="174.04" style="stroke: #000000; stroke-width: 0.8"/>
      </g>
     </g>
     <g id="text_24">
      <!-- 0.0 -->
      <g transform="translate(476.979364 188.638438)scale(0.1 -0.1)">
       <use xlink:href="#DejaVuSans-30"/>
       <use xlink:href="#DejaVuSans-2e" x="63.623047"/>
       <use xlink:href="#DejaVuSans-30" x="95.410156"/>
      </g>
     </g>
    </g>
    <g id="xtick_10">
     <g id="line2d_35">
      <g>
       <use xlink:href="#m2321b1ed09" x="533.131664" y="174.04" style="stroke: #000000; stroke-width: 0.8"/>
      </g>
     </g>
     <g id="text_25">
      <!-- 0.5 -->
      <g transform="translate(525.180102 188.638438)scale(0.1 -0.1)">
       <use xlink:href="#DejaVuSans-30"/>
       <use xlink:href="#DejaVuSans-2e" x="63.623047"/>
       <use xlink:href="#DejaVuSans-35" x="95.410156"/>
      </g>
     </g>
    </g>
    <g id="xtick_11">
     <g id="line2d_36">
      <g>
       <use xlink:href="#m2321b1ed09" x="581.332402" y="174.04" style="stroke: #000000; stroke-width: 0.8"/>
      </g>
     </g>
     <g id="text_26">
      <!-- 1.0 -->
      <g transform="translate(573.380839 188.638438)scale(0.1 -0.1)">
       <use xlink:href="#DejaVuSans-31"/>
       <use xlink:href="#DejaVuSans-2e" x="63.623047"/>
       <use xlink:href="#DejaVuSans-30" x="95.410156"/>
      </g>
     </g>
    </g>
    <g id="xtick_12">
     <g id="line2d_37">
      <g>
       <use xlink:href="#m2321b1ed09" x="629.53314" y="174.04" style="stroke: #000000; stroke-width: 0.8"/>
      </g>
     </g>
     <g id="text_27">
      <!-- 1.5 -->
      <g transform="translate(621.581577 188.638438)scale(0.1 -0.1)">
       <use xlink:href="#DejaVuSans-31"/>
       <use xlink:href="#DejaVuSans-2e" x="63.623047"/>
       <use xlink:href="#DejaVuSans-35" x="95.410156"/>
      </g>
     </g>
    </g>
    <g id="text_28">
     <!-- Time -->
     <g transform="translate(542.356594 202.316563)scale(0.1 -0.1)">
      <use xlink:href="#DejaVuSans-54"/>
      <use xlink:href="#DejaVuSans-69" x="57.958984"/>
      <use xlink:href="#DejaVuSans-6d" x="85.742188"/>
      <use xlink:href="#DejaVuSans-65" x="183.154297"/>
     </g>
    </g>
   </g>
   <g id="matplotlib.axis_6">
    <g id="ytick_12">
     <g id="line2d_38">
      <g>
       <use xlink:href="#m2cf68590a3" x="477.965" y="168.535656" style="stroke: #000000; stroke-width: 0.8"/>
      </g>
     </g>
     <g id="text_29">
      <!-- −7.5 -->
      <g transform="translate(446.682187 172.334874)scale(0.1 -0.1)">
       <defs>
        <path id="DejaVuSans-37" d="M 525 4666 
L 3525 4666 
L 3525 4397 
L 1831 0 
L 1172 0 
L 2766 4134 
L 525 4134 
L 525 4666 
z
" transform="scale(0.015625)"/>
       </defs>
       <use xlink:href="#DejaVuSans-2212"/>
       <use xlink:href="#DejaVuSans-37" x="83.789062"/>
       <use xlink:href="#DejaVuSans-2e" x="147.412109"/>
       <use xlink:href="#DejaVuSans-35" x="179.199219"/>
      </g>
     </g>
    </g>
    <g id="ytick_13">
     <g id="line2d_39">
      <g>
       <use xlink:href="#m2cf68590a3" x="477.965" y="147.06199" style="stroke: #000000; stroke-width: 0.8"/>
      </g>
     </g>
     <g id="text_30">
      <!-- −5.0 -->
      <g transform="translate(446.682187 150.861209)scale(0.1 -0.1)">
       <use xlink:href="#DejaVuSans-2212"/>
       <use xlink:href="#DejaVuSans-35" x="83.789062"/>
       <use xlink:href="#DejaVuSans-2e" x="147.412109"/>
       <use xlink:href="#DejaVuSans-30" x="179.199219"/>
      </g>
     </g>
    </g>
    <g id="ytick_14">
     <g id="line2d_40">
      <g>
       <use xlink:href="#m2cf68590a3" x="477.965" y="125.588325" style="stroke: #000000; stroke-width: 0.8"/>
      </g>
     </g>
     <g id="text_31">
      <!-- −2.5 -->
      <g transform="translate(446.682187 129.387544)scale(0.1 -0.1)">
       <use xlink:href="#DejaVuSans-2212"/>
       <use xlink:href="#DejaVuSans-32" x="83.789062"/>
       <use xlink:href="#DejaVuSans-2e" x="147.412109"/>
       <use xlink:href="#DejaVuSans-35" x="179.199219"/>
      </g>
     </g>
    </g>
    <g id="ytick_15">
     <g id="line2d_41">
      <g>
       <use xlink:href="#m2cf68590a3" x="477.965" y="104.11466" style="stroke: #000000; stroke-width: 0.8"/>
      </g>
     </g>
     <g id="text_32">
      <!-- 0.0 -->
      <g transform="translate(455.061875 107.913879)scale(0.1 -0.1)">
       <use xlink:href="#DejaVuSans-30"/>
       <use xlink:href="#DejaVuSans-2e" x="63.623047"/>
       <use xlink:href="#DejaVuSans-30" x="95.410156"/>
      </g>
     </g>
    </g>
    <g id="ytick_16">
     <g id="line2d_42">
      <g>
       <use xlink:href="#m2cf68590a3" x="477.965" y="82.640995" style="stroke: #000000; stroke-width: 0.8"/>
      </g>
     </g>
     <g id="text_33">
      <!-- 2.5 -->
      <g transform="translate(455.061875 86.440214)scale(0.1 -0.1)">
       <use xlink:href="#DejaVuSans-32"/>
       <use xlink:href="#DejaVuSans-2e" x="63.623047"/>
       <use xlink:href="#DejaVuSans-35" x="95.410156"/>
      </g>
     </g>
    </g>
    <g id="ytick_17">
     <g id="line2d_43">
      <g>
       <use xlink:href="#m2cf68590a3" x="477.965" y="61.16733" style="stroke: #000000; stroke-width: 0.8"/>
      </g>
     </g>
     <g id="text_34">
      <!-- 5.0 -->
      <g transform="translate(455.061875 64.966549)scale(0.1 -0.1)">
       <use xlink:href="#DejaVuSans-35"/>
       <use xlink:href="#DejaVuSans-2e" x="63.623047"/>
       <use xlink:href="#DejaVuSans-30" x="95.410156"/>
      </g>
     </g>
    </g>
    <g id="ytick_18">
     <g id="line2d_44">
      <g>
       <use xlink:href="#m2cf68590a3" x="477.965" y="39.693665" style="stroke: #000000; stroke-width: 0.8"/>
      </g>
     </g>
     <g id="text_35">
      <!-- 7.5 -->
      <g transform="translate(455.061875 43.492883)scale(0.1 -0.1)">
       <use xlink:href="#DejaVuSans-37"/>
       <use xlink:href="#DejaVuSans-2e" x="63.623047"/>
       <use xlink:href="#DejaVuSans-35" x="95.410156"/>
      </g>
     </g>
    </g>
    <g id="ytick_19">
     <g id="line2d_45">
      <g>
       <use xlink:href="#m2cf68590a3" x="477.965" y="18.219999" style="stroke: #000000; stroke-width: 0.8"/>
      </g>
     </g>
     <g id="text_36">
      <!-- 10.0 -->
      <g transform="translate(448.699375 22.019218)scale(0.1 -0.1)">
       <use xlink:href="#DejaVuSans-31"/>
       <use xlink:href="#DejaVuSans-30" x="63.623047"/>
       <use xlink:href="#DejaVuSans-2e" x="127.246094"/>
       <use xlink:href="#DejaVuSans-30" x="159.033203"/>
      </g>
     </g>
    </g>
    <g id="text_37">
     <!-- Acceleration -->
     <g transform="translate(440.6025 123.490313)rotate(-90)scale(0.1 -0.1)">
      <defs>
       <path id="DejaVuSans-41" d="M 2188 4044 
L 1331 1722 
L 3047 1722 
L 2188 4044 
z
M 1831 4666 
L 2547 4666 
L 4325 0 
L 3669 0 
L 3244 1197 
L 1141 1197 
L 716 0 
L 50 0 
L 1831 4666 
z
" transform="scale(0.015625)"/>
       <path id="DejaVuSans-72" d="M 2631 2963 
Q 2534 3019 2420 3045 
Q 2306 3072 2169 3072 
Q 1681 3072 1420 2755 
Q 1159 2438 1159 1844 
L 1159 0 
L 581 0 
L 581 3500 
L 1159 3500 
L 1159 2956 
Q 1341 3275 1631 3429 
Q 1922 3584 2338 3584 
Q 2397 3584 2469 3576 
Q 2541 3569 2628 3553 
L 2631 2963 
z
" transform="scale(0.015625)"/>
       <path id="DejaVuSans-61" d="M 2194 1759 
Q 1497 1759 1228 1600 
Q 959 1441 959 1056 
Q 959 750 1161 570 
Q 1363 391 1709 391 
Q 2188 391 2477 730 
Q 2766 1069 2766 1631 
L 2766 1759 
L 2194 1759 
z
M 3341 1997 
L 3341 0 
L 2766 0 
L 2766 531 
Q 2569 213 2275 61 
Q 1981 -91 1556 -91 
Q 1019 -91 701 211 
Q 384 513 384 1019 
Q 384 1609 779 1909 
Q 1175 2209 1959 2209 
L 2766 2209 
L 2766 2266 
Q 2766 2663 2505 2880 
Q 2244 3097 1772 3097 
Q 1472 3097 1187 3025 
Q 903 2953 641 2809 
L 641 3341 
Q 956 3463 1253 3523 
Q 1550 3584 1831 3584 
Q 2591 3584 2966 3190 
Q 3341 2797 3341 1997 
z
" transform="scale(0.015625)"/>
      </defs>
      <use xlink:href="#DejaVuSans-41"/>
      <use xlink:href="#DejaVuSans-63" x="66.658203"/>
      <use xlink:href="#DejaVuSans-63" x="121.638672"/>
      <use xlink:href="#DejaVuSans-65" x="176.619141"/>
      <use xlink:href="#DejaVuSans-6c" x="238.142578"/>
      <use xlink:href="#DejaVuSans-65" x="265.925781"/>
      <use xlink:href="#DejaVuSans-72" x="327.449219"/>
      <use xlink:href="#DejaVuSans-61" x="368.5625"/>
      <use xlink:href="#DejaVuSans-74" x="429.841797"/>
      <use xlink:href="#DejaVuSans-69" x="469.050781"/>
      <use xlink:href="#DejaVuSans-6f" x="496.833984"/>
      <use xlink:href="#DejaVuSans-6e" x="558.015625"/>
     </g>
    </g>
   </g>
   <g id="line2d_46">
    <path d="M 484.930926 103.16694 
L 487.162254 102.663336 
L 489.811956 101.478639 
L 490.788161 101.024109 
L 493.298405 98.379277 
L 494.692985 96.844822 
L 496.505939 95.562392 
L 500.55022 90.038732 
L 502.223716 88.750819 
L 505.849623 83.799324 
L 506.267997 83.493054 
L 508.080951 82.285855 
L 510.591195 79.777195 
L 511.846317 78.769654 
L 514.35656 77.785107 
L 515.75114 77.204273 
L 518.5403 76.93651 
L 519.655964 76.981118 
L 523.142413 77.737179 
L 525.513199 79.441212 
L 527.326153 80.924109 
L 528.86019 81.801029 
L 531.788808 85.753958 
L 532.904472 87.202743 
L 534.577968 88.556528 
L 538.761707 95.526244 
L 540.435203 97.216912 
L 542.387615 100.677781 
L 544.200568 102.468293 
L 547.965934 109.250837 
L 549.918345 110.988188 
L 553.544253 116.566411 
L 553.962627 116.920612 
L 555.775581 118.252121 
L 558.56474 121.391978 
L 559.540946 122.293806 
L 561.632816 123.290929 
L 564.003602 124.800808 
L 565.398181 125.440989 
L 570.139753 126.250044 
L 572.371081 126.241342 
L 573.626202 126.103808 
L 577.112652 125.523941 
L 580.180727 124.346902 
L 581.017475 124.114435 
L 582.551513 123.661691 
L 586.735253 121.58686 
L 588.26929 121.071815 
L 592.174114 118.920574 
L 593.987068 118.295175 
L 595.939479 117.182726 
L 597.752433 116.531013 
L 602.075631 113.784515 
L 603.47021 113.175824 
L 607.932866 109.717341 
L 609.187988 108.97652 
L 613.232269 104.685926 
L 614.905765 103.63902 
L 617.834382 100.659905 
L 618.67113 99.955733 
L 621.46029 98.786737 
L 622.575954 98.333619 
L 624.24945 98.18389 
L 624.24945 98.18389 
" clip-path="url(#p427a2b3eee)" style="fill: none; stroke: #1f77b4; stroke-width: 1.5; stroke-linecap: square"/>
   </g>
   <g id="line2d_47">
    <path d="M 484.930926 166.62 
L 486.883338 165.354439 
L 489.254124 161.575737 
L 490.648703 159.805433 
L 492.740573 152.995368 
L 494.692985 146.125238 
L 496.366481 142.764709 
L 498.318892 134.701506 
L 500.410762 126.57871 
L 502.223716 122.845446 
L 504.73396 114.241089 
L 505.989081 110.518072 
L 508.220409 107.700631 
L 509.893905 105.202318 
L 511.846317 104.093456 
L 513.65927 103.827055 
L 516.169514 101.925532 
L 517.424636 101.096448 
L 520.213795 96.620519 
L 521.468917 94.656511 
L 523.142413 93.044595 
L 527.186695 85.360182 
L 528.86019 83.68727 
L 532.486098 77.003783 
L 532.765014 76.625048 
L 534.717426 74.920319 
L 537.227669 71.515167 
L 538.482791 70.088685 
L 540.574661 69.000697 
L 542.387615 67.710764 
L 547.408102 66.502373 
L 548.663224 66.472457 
L 550.197261 66.628679 
L 552.149673 67.327675 
L 554.381001 68.41441 
L 555.636123 68.945293 
L 558.843656 71.978451 
L 559.680404 72.666094 
L 561.3539 73.604636 
L 565.677097 78.384597 
L 567.071677 79.350433 
L 569.163547 82.0202 
L 570.976501 83.457788 
L 574.741866 88.865641 
L 576.694278 90.30278 
L 580.320185 94.915382 
L 581.296391 95.527387 
L 582.412055 96.283833 
L 586.037963 100.299937 
L 586.874711 100.721755 
L 588.26929 101.48687 
L 590.640076 103.347768 
L 592.45303 104.427774 
L 593.708152 105.033847 
L 596.078937 108.285978 
L 597.612975 109.737651 
L 600.681051 116.149834 
L 601.517799 117.810566 
L 603.330752 119.970194 
L 607.375034 129.131773 
L 609.04853 131.265527 
L 612.953353 140.655643 
L 614.766307 142.744107 
L 617.276551 147.583657 
L 618.67113 149.770412 
L 622.715412 152.233013 
L 624.24945 152.431452 
L 624.24945 152.431452 
" clip-path="url(#p427a2b3eee)" style="fill: none; stroke: #ff7f0e; stroke-width: 1.5; stroke-linecap: square"/>
   </g>
   <g id="line2d_48">
    <path d="M 484.930926 102.361582 
L 487.162254 101.870039 
L 489.811956 100.750352 
L 490.788161 100.32563 
L 493.437863 97.72032 
L 494.692985 96.457735 
L 496.505939 95.283431 
L 500.55022 90.248332 
L 502.223716 89.075138 
L 505.849623 84.564684 
L 506.407455 84.210257 
L 508.080951 83.193668 
L 510.730653 80.825249 
L 511.846317 80.030183 
L 514.35656 79.133534 
L 515.75114 78.595515 
L 519.23759 78.217997 
L 521.050543 78.400106 
L 523.142413 78.714377 
L 525.652657 80.013294 
L 527.46561 81.053589 
L 528.999648 81.772574 
L 531.928266 84.683977 
L 532.904472 85.595726 
L 534.717426 86.762483 
L 538.761707 91.721164 
L 540.435203 92.986248 
L 542.387615 95.62393 
L 544.200568 97.025342 
L 548.24485 102.867853 
L 549.918345 104.222356 
L 553.823169 110.074915 
L 555.636123 111.537963 
L 559.540946 117.416151 
L 561.3539 118.873618 
L 565.258723 124.680133 
L 567.071677 126.107298 
L 569.024089 128.909153 
L 570.976501 130.416403 
L 574.602408 135.318142 
L 575.718072 136.00867 
L 576.694278 136.666566 
L 579.483438 139.436979 
L 580.599101 140.29976 
L 583.248803 141.302671 
L 584.503925 141.779178 
L 586.456337 142.048285 
L 588.129832 141.883888 
L 590.082244 140.865559 
L 592.45303 138.932585 
L 593.708152 138.113299 
L 596.078937 134.352823 
L 597.612975 132.627216 
L 600.262677 125.819853 
L 601.517799 122.510716 
L 603.330752 119.580551 
L 606.677744 107.979698 
L 607.235576 106.246929 
L 609.04853 102.64888 
L 612.953353 87.455744 
L 614.766307 83.897862 
L 617.416008 74.981707 
L 618.67113 71.445508 
L 620.763 68.848015 
L 622.436496 66.372782 
L 624.24945 65.889085 
L 624.24945 65.889085 
" clip-path="url(#p427a2b3eee)" style="fill: none; stroke: #2ca02c; stroke-width: 1.5; stroke-linecap: square"/>
   </g>
   <g id="line2d_49">
    <path d="M 484.930926 109.906018 
L 491.345993 109.613493 
L 499.574014 108.748505 
L 501.9448 108.497977 
L 503.060464 108.288344 
L 511.288485 106.49376 
L 512.543606 106.256508 
L 514.077644 105.931688 
L 516.169514 105.348387 
L 517.84301 104.945625 
L 522.445123 103.24921 
L 523.421329 102.933747 
L 527.605068 100.941223 
L 529.139106 100.427513 
L 533.183388 98.230939 
L 534.856884 97.63951 
L 538.622249 95.473441 
L 540.714119 94.762701 
L 542.527072 93.889755 
L 544.618942 93.284706 
L 547.408102 92.227643 
L 548.384308 91.998863 
L 553.265337 91.503005 
L 555.078291 91.561894 
L 556.054497 91.700109 
L 558.146366 92.277588 
L 560.377694 92.998793 
L 561.493358 93.381448 
L 564.003602 95.175064 
L 565.398181 96.207513 
L 567.071677 97.051028 
L 569.163547 99.193484 
L 570.976501 100.384035 
L 575.16024 105.635929 
L 576.694278 106.836 
L 580.459643 112.070209 
L 582.412055 113.451122 
L 585.201215 116.720273 
L 586.316879 117.769916 
L 588.687664 118.922473 
L 590.221702 119.753527 
L 592.034656 120.219113 
L 593.987068 120.095917 
L 597.752433 118.803402 
L 600.123219 116.700297 
L 601.657257 115.249968 
L 603.330752 114.198628 
L 606.677744 109.562813 
L 607.235576 108.865406 
L 609.04853 107.419726 
L 612.953353 101.387062 
L 614.905765 99.792564 
L 617.555466 96.334809 
L 618.67113 95.118829 
L 621.181374 93.867444 
L 622.575954 93.14562 
L 624.24945 92.983587 
L 624.24945 92.983587 
" clip-path="url(#p427a2b3eee)" style="fill: none; stroke: #d62728; stroke-width: 1.5; stroke-linecap: square"/>
   </g>
   <g id="line2d_50">
    <path d="M 484.930926 153.452882 
L 487.022796 152.624392 
L 489.393582 150.474657 
L 490.648703 149.525561 
L 492.740573 145.252955 
L 494.692985 140.759992 
L 496.366481 138.464434 
L 498.318892 132.588992 
L 500.410762 126.156518 
L 502.223716 122.871556 
L 506.128539 109.569639 
L 507.941493 106.257307 
L 511.567401 94.341618 
L 511.985775 93.568257 
L 513.65927 90.899324 
L 515.611682 85.597172 
L 517.424636 83.185487 
L 520.213795 76.926158 
L 521.329459 74.805082 
L 523.281871 73.024748 
L 525.513199 70.117119 
L 527.047237 68.641512 
L 530.673144 67.573336 
L 531.370434 67.627446 
L 533.462304 67.963696 
L 534.717426 68.360001 
L 536.809295 70.198677 
L 538.761707 72.297563 
L 540.295745 73.45791 
L 542.387615 77.158693 
L 544.200568 79.278615 
L 546.989728 86.514972 
L 548.105392 89.369921 
L 549.918345 92.28836 
L 554.102085 105.502037 
L 555.636123 108.401782 
L 559.540946 122.517044 
L 561.3539 126.043866 
L 565.119265 139.563533 
L 567.071677 142.989757 
L 569.024089 148.986069 
L 570.976501 151.973426 
L 573.347286 157.68844 
L 574.741866 160.464228 
L 576.973194 162.368019 
L 578.64669 164.018769 
L 580.459643 164.766 
L 582.272597 164.567568 
L 584.364467 162.494216 
L 586.456337 159.133683 
L 587.990374 157.227144 
L 590.221702 149.558404 
L 592.034656 142.383235 
L 593.708152 138.218612 
L 595.939479 126.405264 
L 597.612975 120.868379 
L 601.657257 94.116876 
L 603.330752 87.883029 
L 607.096118 61.598733 
L 609.04853 55.033367 
L 611.837689 38.952944 
L 612.953353 33.522447 
L 614.905765 28.953035 
L 616.858177 22.606228 
L 618.67113 18.920202 
L 620.623542 18.220001 
L 624.24945 18.22 
L 624.24945 18.22 
" clip-path="url(#p427a2b3eee)" style="fill: none; stroke: #9467bd; stroke-width: 1.5; stroke-linecap: square"/>
   </g>
   <g id="line2d_51">
    <path d="M 484.930926 160.719546 
L 486.883338 159.865869 
L 489.393582 157.113188 
L 490.648703 155.977046 
L 492.740573 150.946736 
L 494.692985 145.685825 
L 496.366481 143.004999 
L 498.179434 136.700246 
L 500.55022 128.56908 
L 502.223716 125.129228 
L 506.128539 110.354603 
L 507.941493 106.721548 
L 511.567401 93.813627 
L 511.985775 92.983131 
L 513.65927 90.129114 
L 515.611682 84.526978 
L 517.424636 82.008485 
L 520.213795 75.518574 
L 521.329459 73.312823 
L 523.281871 71.432706 
L 525.513199 68.243083 
L 527.047237 66.520665 
L 529.55748 65.313981 
L 531.091518 64.512315 
L 533.04393 64.017196 
L 534.996341 64.06674 
L 536.948753 64.558753 
L 539.458997 65.504961 
L 540.435203 65.899471 
L 542.527072 67.557944 
L 544.200568 68.498345 
L 546.989728 72.08017 
L 548.105392 73.515514 
L 549.918345 75.012064 
L 553.265337 80.875238 
L 553.823169 81.73451 
L 555.636123 83.594497 
L 559.819862 91.962899 
L 561.3539 93.790697 
L 565.398181 102.958688 
L 567.071677 105.090332 
L 569.024089 109.743703 
L 570.837043 111.988734 
L 574.741866 121.229662 
L 576.694278 123.607016 
L 579.901811 130.166255 
L 580.459643 131.13889 
L 582.412055 132.892221 
L 584.643383 135.953917 
L 586.177421 137.597219 
L 589.524412 138.721651 
L 590.082244 138.796755 
L 592.45303 138.23822 
L 593.84761 137.633032 
L 596.078937 135.168188 
L 597.612975 133.827331 
L 600.123219 128.529278 
L 601.517799 125.397461 
L 603.330752 122.871094 
L 606.677744 112.784371 
L 607.235576 111.278756 
L 609.04853 108.171743 
L 612.953353 95.243219 
L 614.766307 92.246722 
L 617.416008 84.768106 
L 618.67113 81.813602 
L 620.902458 79.456854 
L 622.436496 77.589321 
L 624.24945 77.165132 
L 624.24945 77.165132 
" clip-path="url(#p427a2b3eee)" style="fill: none; stroke: #8c564b; stroke-width: 1.5; stroke-linecap: square"/>
   </g>
   <g id="line2d_52">
    <path d="M 484.930926 51.711148 
L 486.883338 52.522999 
L 489.393582 55.044377 
L 490.648703 56.08837 
L 492.740573 60.779095 
L 494.692985 65.63881 
L 496.366481 68.094285 
L 498.318892 74.300474 
L 500.410762 80.914969 
L 502.223716 84.171721 
L 505.989081 96.570797 
L 507.941493 99.762049 
L 511.009569 108.397364 
L 511.846317 110.340627 
L 513.65927 112.593196 
L 515.611682 116.505538 
L 517.564094 118.353046 
L 519.795422 121.439575 
L 521.329459 123.079657 
L 524.118619 124.34823 
L 525.373741 124.915829 
L 527.326153 125.326234 
L 529.278564 125.255654 
L 531.370434 124.763257 
L 533.601762 124.082898 
L 534.856884 123.671186 
L 539.319539 121.127859 
L 540.574661 120.574601 
L 542.527072 119.28651 
L 544.340026 118.553849 
L 547.965934 116.14306 
L 550.197261 115.399439 
L 553.544253 113.759421 
L 554.241543 113.598569 
L 556.333413 113.085129 
L 559.401488 112.179824 
L 562.74848 111.702639 
L 565.816555 111.250244 
L 568.326799 110.935673 
L 570.418669 110.704087 
L 571.673791 110.478428 
L 577.809942 109.025435 
L 580.180727 108.080063 
L 580.878017 107.884841 
L 582.551513 107.40398 
L 585.898505 105.470458 
L 586.456337 105.231907 
L 588.26929 104.507172 
L 592.45303 101.566991 
L 593.987068 100.860072 
L 595.939479 99.516733 
L 597.891891 98.750164 
L 600.262677 97.476562 
L 601.657257 96.951989 
L 605.143706 96.551372 
L 607.514492 96.884222 
L 609.187988 97.295058 
L 611.558773 98.926974 
L 613.092811 100.093606 
L 614.905765 101.048085 
L 618.67113 104.537885 
L 621.041916 105.532213 
L 622.575954 106.275745 
L 624.24945 106.397722 
L 624.24945 106.397722 
" clip-path="url(#p427a2b3eee)" style="fill: none; stroke: #e377c2; stroke-width: 1.5; stroke-linecap: square"/>
   </g>
   <g id="patch_13">
    <path d="M 477.965 174.04 
L 477.965 10.8 
" style="fill: none; stroke: #000000; stroke-width: 0.8; stroke-linejoin: miter; stroke-linecap: square"/>
   </g>
   <g id="patch_14">
    <path d="M 631.215376 174.04 
L 631.215376 10.8 
" style="fill: none; stroke: #000000; stroke-width: 0.8; stroke-linejoin: miter; stroke-linecap: square"/>
   </g>
   <g id="patch_15">
    <path d="M 477.965 174.04 
L 631.215376 174.04 
" style="fill: none; stroke: #000000; stroke-width: 0.8; stroke-linejoin: miter; stroke-linecap: square"/>
   </g>
   <g id="patch_16">
    <path d="M 477.965 10.8 
L 631.215376 10.8 
" style="fill: none; stroke: #000000; stroke-width: 0.8; stroke-linejoin: miter; stroke-linecap: square"/>
   </g>
  </g>
  <g id="axes_4">
   <g id="patch_17">
    <path d="M 693.6275 174.04 
L 846.877876 174.04 
L 846.877876 10.8 
L 693.6275 10.8 
z
" style="fill: #ffffff"/>
   </g>
   <g id="matplotlib.axis_7">
    <g id="xtick_13">
     <g id="line2d_53">
      <g>
       <use xlink:href="#m2321b1ed09" x="700.593426" y="174.04" style="stroke: #000000; stroke-width: 0.8"/>
      </g>
     </g>
     <g id="text_38">
      <!-- 0.0 -->
      <g transform="translate(692.641864 188.638438)scale(0.1 -0.1)">
       <use xlink:href="#DejaVuSans-30"/>
       <use xlink:href="#DejaVuSans-2e" x="63.623047"/>
       <use xlink:href="#DejaVuSans-30" x="95.410156"/>
      </g>
     </g>
    </g>
    <g id="xtick_14">
     <g id="line2d_54">
      <g>
       <use xlink:href="#m2321b1ed09" x="748.794164" y="174.04" style="stroke: #000000; stroke-width: 0.8"/>
      </g>
     </g>
     <g id="text_39">
      <!-- 0.5 -->
      <g transform="translate(740.842602 188.638438)scale(0.1 -0.1)">
       <use xlink:href="#DejaVuSans-30"/>
       <use xlink:href="#DejaVuSans-2e" x="63.623047"/>
       <use xlink:href="#DejaVuSans-35" x="95.410156"/>
      </g>
     </g>
    </g>
    <g id="xtick_15">
     <g id="line2d_55">
      <g>
       <use xlink:href="#m2321b1ed09" x="796.994902" y="174.04" style="stroke: #000000; stroke-width: 0.8"/>
      </g>
     </g>
     <g id="text_40">
      <!-- 1.0 -->
      <g transform="translate(789.043339 188.638438)scale(0.1 -0.1)">
       <use xlink:href="#DejaVuSans-31"/>
       <use xlink:href="#DejaVuSans-2e" x="63.623047"/>
       <use xlink:href="#DejaVuSans-30" x="95.410156"/>
      </g>
     </g>
    </g>
    <g id="xtick_16">
     <g id="line2d_56">
      <g>
       <use xlink:href="#m2321b1ed09" x="845.19564" y="174.04" style="stroke: #000000; stroke-width: 0.8"/>
      </g>
     </g>
     <g id="text_41">
      <!-- 1.5 -->
      <g transform="translate(837.244077 188.638438)scale(0.1 -0.1)">
       <use xlink:href="#DejaVuSans-31"/>
       <use xlink:href="#DejaVuSans-2e" x="63.623047"/>
       <use xlink:href="#DejaVuSans-35" x="95.410156"/>
      </g>
     </g>
    </g>
    <g id="text_42">
     <!-- Time -->
     <g transform="translate(758.019094 202.316563)scale(0.1 -0.1)">
      <use xlink:href="#DejaVuSans-54"/>
      <use xlink:href="#DejaVuSans-69" x="57.958984"/>
      <use xlink:href="#DejaVuSans-6d" x="85.742188"/>
      <use xlink:href="#DejaVuSans-65" x="183.154297"/>
     </g>
    </g>
   </g>
   <g id="matplotlib.axis_8">
    <g id="ytick_20">
     <g id="line2d_57">
      <g>
       <use xlink:href="#m2cf68590a3" x="693.6275" y="164.362104" style="stroke: #000000; stroke-width: 0.8"/>
      </g>
     </g>
     <g id="text_43">
      <!-- −40 -->
      <g transform="translate(665.522812 168.161323)scale(0.1 -0.1)">
       <defs>
        <path id="DejaVuSans-34" d="M 2419 4116 
L 825 1625 
L 2419 1625 
L 2419 4116 
z
M 2253 4666 
L 3047 4666 
L 3047 1625 
L 3713 1625 
L 3713 1100 
L 3047 1100 
L 3047 0 
L 2419 0 
L 2419 1100 
L 313 1100 
L 313 1709 
L 2253 4666 
z
" transform="scale(0.015625)"/>
       </defs>
       <use xlink:href="#DejaVuSans-2212"/>
       <use xlink:href="#DejaVuSans-34" x="83.789062"/>
       <use xlink:href="#DejaVuSans-30" x="147.412109"/>
      </g>
     </g>
    </g>
    <g id="ytick_21">
     <g id="line2d_58">
      <g>
       <use xlink:href="#m2cf68590a3" x="693.6275" y="139.953311" style="stroke: #000000; stroke-width: 0.8"/>
      </g>
     </g>
     <g id="text_44">
      <!-- −20 -->
      <g transform="translate(665.522812 143.752529)scale(0.1 -0.1)">
       <use xlink:href="#DejaVuSans-2212"/>
       <use xlink:href="#DejaVuSans-32" x="83.789062"/>
       <use xlink:href="#DejaVuSans-30" x="147.412109"/>
      </g>
     </g>
    </g>
    <g id="ytick_22">
     <g id="line2d_59">
      <g>
       <use xlink:href="#m2cf68590a3" x="693.6275" y="115.544518" style="stroke: #000000; stroke-width: 0.8"/>
      </g>
     </g>
     <g id="text_45">
      <!-- 0 -->
      <g transform="translate(680.265 119.343736)scale(0.1 -0.1)">
       <use xlink:href="#DejaVuSans-30"/>
      </g>
     </g>
    </g>
    <g id="ytick_23">
     <g id="line2d_60">
      <g>
       <use xlink:href="#m2cf68590a3" x="693.6275" y="91.135724" style="stroke: #000000; stroke-width: 0.8"/>
      </g>
     </g>
     <g id="text_46">
      <!-- 20 -->
      <g transform="translate(673.9025 94.934943)scale(0.1 -0.1)">
       <use xlink:href="#DejaVuSans-32"/>
       <use xlink:href="#DejaVuSans-30" x="63.623047"/>
      </g>
     </g>
    </g>
    <g id="ytick_24">
     <g id="line2d_61">
      <g>
       <use xlink:href="#m2cf68590a3" x="693.6275" y="66.726931" style="stroke: #000000; stroke-width: 0.8"/>
      </g>
     </g>
     <g id="text_47">
      <!-- 40 -->
      <g transform="translate(673.9025 70.52615)scale(0.1 -0.1)">
       <use xlink:href="#DejaVuSans-34"/>
       <use xlink:href="#DejaVuSans-30" x="63.623047"/>
      </g>
     </g>
    </g>
    <g id="ytick_25">
     <g id="line2d_62">
      <g>
       <use xlink:href="#m2cf68590a3" x="693.6275" y="42.318138" style="stroke: #000000; stroke-width: 0.8"/>
      </g>
     </g>
     <g id="text_48">
      <!-- 60 -->
      <g transform="translate(673.9025 46.117357)scale(0.1 -0.1)">
       <defs>
        <path id="DejaVuSans-36" d="M 2113 2584 
Q 1688 2584 1439 2293 
Q 1191 2003 1191 1497 
Q 1191 994 1439 701 
Q 1688 409 2113 409 
Q 2538 409 2786 701 
Q 3034 994 3034 1497 
Q 3034 2003 2786 2293 
Q 2538 2584 2113 2584 
z
M 3366 4563 
L 3366 3988 
Q 3128 4100 2886 4159 
Q 2644 4219 2406 4219 
Q 1781 4219 1451 3797 
Q 1122 3375 1075 2522 
Q 1259 2794 1537 2939 
Q 1816 3084 2150 3084 
Q 2853 3084 3261 2657 
Q 3669 2231 3669 1497 
Q 3669 778 3244 343 
Q 2819 -91 2113 -91 
Q 1303 -91 875 529 
Q 447 1150 447 2328 
Q 447 3434 972 4092 
Q 1497 4750 2381 4750 
Q 2619 4750 2861 4703 
Q 3103 4656 3366 4563 
z
" transform="scale(0.015625)"/>
       </defs>
       <use xlink:href="#DejaVuSans-36"/>
       <use xlink:href="#DejaVuSans-30" x="63.623047"/>
      </g>
     </g>
    </g>
    <g id="ytick_26">
     <g id="line2d_63">
      <g>
       <use xlink:href="#m2cf68590a3" x="693.6275" y="17.909345" style="stroke: #000000; stroke-width: 0.8"/>
      </g>
     </g>
     <g id="text_49">
      <!-- 80 -->
      <g transform="translate(673.9025 21.708564)scale(0.1 -0.1)">
       <defs>
        <path id="DejaVuSans-38" d="M 2034 2216 
Q 1584 2216 1326 1975 
Q 1069 1734 1069 1313 
Q 1069 891 1326 650 
Q 1584 409 2034 409 
Q 2484 409 2743 651 
Q 3003 894 3003 1313 
Q 3003 1734 2745 1975 
Q 2488 2216 2034 2216 
z
M 1403 2484 
Q 997 2584 770 2862 
Q 544 3141 544 3541 
Q 544 4100 942 4425 
Q 1341 4750 2034 4750 
Q 2731 4750 3128 4425 
Q 3525 4100 3525 3541 
Q 3525 3141 3298 2862 
Q 3072 2584 2669 2484 
Q 3125 2378 3379 2068 
Q 3634 1759 3634 1313 
Q 3634 634 3220 271 
Q 2806 -91 2034 -91 
Q 1263 -91 848 271 
Q 434 634 434 1313 
Q 434 1759 690 2068 
Q 947 2378 1403 2484 
z
M 1172 3481 
Q 1172 3119 1398 2916 
Q 1625 2713 2034 2713 
Q 2441 2713 2670 2916 
Q 2900 3119 2900 3481 
Q 2900 3844 2670 4047 
Q 2441 4250 2034 4250 
Q 1625 4250 1398 4047 
Q 1172 3844 1172 3481 
z
" transform="scale(0.015625)"/>
       </defs>
       <use xlink:href="#DejaVuSans-38"/>
       <use xlink:href="#DejaVuSans-30" x="63.623047"/>
      </g>
     </g>
    </g>
    <g id="text_50">
     <!-- Jerk -->
     <g transform="translate(659.443125 101.922344)rotate(-90)scale(0.1 -0.1)">
      <defs>
       <path id="DejaVuSans-4a" d="M 628 4666 
L 1259 4666 
L 1259 325 
Q 1259 -519 939 -900 
Q 619 -1281 -91 -1281 
L -331 -1281 
L -331 -750 
L -134 -750 
Q 284 -750 456 -515 
Q 628 -281 628 325 
L 628 4666 
z
" transform="scale(0.015625)"/>
       <path id="DejaVuSans-6b" d="M 581 4863 
L 1159 4863 
L 1159 1991 
L 2875 3500 
L 3609 3500 
L 1753 1863 
L 3688 0 
L 2938 0 
L 1159 1709 
L 1159 0 
L 581 0 
L 581 4863 
z
" transform="scale(0.015625)"/>
      </defs>
      <use xlink:href="#DejaVuSans-4a"/>
      <use xlink:href="#DejaVuSans-65" x="29.492188"/>
      <use xlink:href="#DejaVuSans-72" x="91.015625"/>
      <use xlink:href="#DejaVuSans-6b" x="132.128906"/>
     </g>
    </g>
   </g>
   <g id="line2d_64">
    <path d="M 700.593426 113.067092 
L 702.40638 113.067092 
L 702.545838 108.823555 
L 704.358792 108.823555 
L 704.49825 110.309748 
L 706.311203 110.309748 
L 706.450661 101.846502 
L 708.124157 101.846502 
L 708.263615 99.336082 
L 710.076569 99.336082 
L 710.216027 106.555794 
L 712.028981 106.555794 
L 712.168439 96.331195 
L 713.841934 96.331195 
L 713.981392 95.684899 
L 715.794346 95.684899 
L 715.933804 105.658049 
L 717.746758 105.658049 
L 717.886216 96.253728 
L 719.559712 96.253728 
L 719.69917 97.412243 
L 721.512123 97.412243 
L 721.651581 107.273576 
L 723.464535 107.273576 
L 723.603993 101.070675 
L 725.277489 101.070675 
L 725.416947 103.38928 
L 727.229901 103.38928 
L 727.369359 110.787513 
L 729.182312 110.787513 
L 729.32177 108.853541 
L 730.995266 108.853541 
L 731.134724 113.685 
L 732.947678 113.685 
L 733.087136 114.988386 
L 734.90009 114.988386 
L 735.039548 118.294116 
L 736.852501 118.294116 
L 736.991959 118.555449 
L 738.665455 118.555449 
L 738.804913 124.739299 
L 740.617867 124.739299 
L 740.757325 127.79623 
L 742.570279 127.79623 
L 742.709737 123.148324 
L 744.383232 123.148324 
L 744.52269 133.235915 
L 746.335644 133.235915 
L 746.475102 135.448243 
L 748.288056 135.448243 
L 748.427514 126.425457 
L 750.10101 126.425457 
L 750.240468 138.911244 
L 752.053421 138.911244 
L 752.192879 139.928081 
L 754.005833 139.928081 
L 754.145291 128.150295 
L 755.818787 128.150295 
L 755.958245 141.153489 
L 757.771199 141.153489 
L 757.910657 128.339585 
L 759.72361 128.339585 
L 759.863068 140.755229 
L 761.536564 140.755229 
L 761.676022 140.087117 
L 763.488976 140.087117 
L 763.628434 127.214659 
L 765.441388 127.214659 
L 765.580845 137.402176 
L 767.254341 137.402176 
L 767.393799 135.834859 
L 769.206753 135.834859 
L 769.346211 124.700399 
L 771.159165 124.700399 
L 771.298623 131.790109 
L 773.111576 131.790109 
L 773.251034 129.717785 
L 774.92453 129.717785 
L 775.063988 121.456947 
L 776.876942 121.456947 
L 777.0164 125.010453 
L 778.829354 125.010453 
L 778.968812 122.877264 
L 780.642307 122.877264 
L 780.781765 118.197075 
L 782.594719 118.197075 
L 782.734177 118.727544 
L 784.547131 118.727544 
L 784.686589 116.168109 
L 786.360085 116.168109 
L 786.499543 115.19906 
L 788.312496 115.19906 
L 788.451954 113.597494 
L 790.264908 113.597494 
L 790.404366 113.835027 
L 792.077862 113.835027 
L 792.21732 110.80158 
L 794.030274 110.80158 
L 794.169732 109.896191 
L 795.982685 109.896191 
L 796.122143 112.222416 
L 797.795639 112.222416 
L 797.935097 108.391394 
L 799.748051 108.391394 
L 799.887509 108.051032 
L 801.700463 108.051032 
L 801.839921 111.683016 
L 803.513416 111.683016 
L 803.652874 107.655537 
L 807.41824 107.617295 
L 807.557698 111.485012 
L 809.370652 111.485012 
L 809.51011 107.06837 
L 811.183605 107.06837 
L 811.323063 111.203726 
L 813.136017 111.203726 
L 813.275475 106.433874 
L 815.088429 106.433874 
L 815.227887 105.81929 
L 816.901383 105.81929 
L 817.040841 110.473852 
L 818.853794 110.473852 
L 818.993252 104.557132 
L 820.806206 104.557132 
L 820.945664 103.519714 
L 822.61916 103.519714 
L 822.758618 108.792517 
L 824.571572 108.792517 
L 824.71103 100.68556 
L 826.523983 100.68556 
L 826.663441 99.763079 
L 828.336937 99.763079 
L 828.476395 107.799345 
L 830.289349 107.799345 
L 830.428807 100.862372 
L 832.241761 100.862372 
L 832.381219 102.661376 
L 834.054714 102.661376 
L 834.194172 110.375271 
L 836.007126 110.375271 
L 836.146584 108.824179 
L 837.959538 108.824179 
L 838.098996 114.319012 
L 839.91195 114.319012 
L 839.91195 114.319012 
" clip-path="url(#p78ab83aabf)" style="fill: none; stroke: #1f77b4; stroke-width: 1.5; stroke-linecap: square"/>
   </g>
   <g id="line2d_65">
    <path d="M 700.593426 106.991893 
L 702.40638 106.991893 
L 702.545838 92.506375 
L 704.358792 92.506375 
L 704.49825 98.156969 
L 706.311203 98.156969 
L 706.450661 71.418005 
L 708.124157 71.418005 
L 708.263615 64.723067 
L 710.076569 64.723067 
L 710.216027 88.039185 
L 712.028981 88.039185 
L 712.168439 58.737855 
L 713.841934 58.737855 
L 713.981392 59.378825 
L 715.794346 59.378825 
L 715.933804 88.764117 
L 717.746758 88.764117 
L 717.886216 66.591374 
L 719.559712 66.591374 
L 719.69917 73.591419 
L 721.512123 73.591419 
L 721.651581 99.165524 
L 723.464535 99.165524 
L 723.603993 93.894006 
L 725.277489 93.894006 
L 725.416947 107.058777 
L 727.229901 107.058777 
L 727.369359 114.06841 
L 729.182312 114.06841 
L 729.32177 104.46005 
L 730.995266 104.46005 
L 731.134724 106.990649 
L 732.947678 106.990649 
L 733.087136 94.507498 
L 734.90009 94.507498 
L 735.039548 91.678069 
L 736.852501 91.678069 
L 736.991959 102.702253 
L 738.665455 102.702253 
L 738.804913 88.72698 
L 740.617867 88.72698 
L 740.757325 88.515643 
L 742.570279 88.515643 
L 742.709737 102.112453 
L 744.383232 102.112453 
L 744.52269 89.438876 
L 746.335644 89.438876 
L 746.475102 91.214827 
L 748.288056 91.214827 
L 748.427514 104.28738 
L 750.10101 104.28738 
L 750.240468 96.035095 
L 752.053421 96.035095 
L 752.192879 99.071846 
L 754.005833 99.071846 
L 754.145291 108.985266 
L 755.818787 108.985266 
L 755.958245 105.021209 
L 757.771199 105.021209 
L 757.910657 111.982789 
L 759.72361 111.982789 
L 759.863068 111.174369 
L 761.536564 111.174369 
L 761.676022 114.025976 
L 763.488976 114.025976 
L 763.628434 116.013761 
L 765.441388 116.013761 
L 765.580845 119.767783 
L 767.254341 119.767783 
L 767.393799 122.915107 
L 769.206753 122.915107 
L 769.346211 120.820058 
L 771.159165 120.820058 
L 771.298623 127.910674 
L 773.111576 127.910674 
L 773.251034 129.263252 
L 774.92453 129.263252 
L 775.063988 122.805352 
L 776.876942 122.805352 
L 777.0164 131.186321 
L 778.829354 131.186321 
L 778.968812 132.126144 
L 780.642307 132.126144 
L 780.781765 124.505328 
L 782.594719 124.505328 
L 782.734177 134.094315 
L 784.547131 134.094315 
L 784.686589 125.490974 
L 786.360085 125.490974 
L 786.499543 135.58604 
L 790.264908 135.486054 
L 790.404366 124.939167 
L 792.077862 124.939167 
L 792.21732 133.51005 
L 794.030274 133.51005 
L 794.169732 132.463497 
L 795.982685 132.463497 
L 796.122143 123.827431 
L 797.795639 123.827431 
L 797.935097 131.345691 
L 799.748051 131.345691 
L 799.887509 130.122 
L 801.700463 130.122 
L 801.839921 122.043756 
L 803.513416 122.043756 
L 803.652874 127.087027 
L 805.465828 127.087027 
L 805.605286 124.563122 
L 807.41824 124.563122 
L 807.557698 122.158648 
L 809.370652 122.158648 
L 809.51011 135.962735 
L 811.183605 135.962735 
L 811.323063 127.677669 
L 813.136017 127.677669 
L 813.275475 143.152974 
L 815.088429 143.152974 
L 815.227887 145.669211 
L 816.901383 145.669211 
L 817.040841 131.204845 
L 818.853794 131.204845 
L 818.993252 147.170828 
L 820.806206 147.170828 
L 820.945664 148.252554 
L 822.61916 148.252554 
L 822.758618 132.323323 
L 824.571572 132.323323 
L 824.71103 149.482536 
L 826.523983 149.482536 
L 826.663441 148.942232 
L 828.336937 148.942232 
L 828.476395 130.9231 
L 830.289349 130.9231 
L 830.428807 143.175044 
L 832.241761 143.175044 
L 832.381219 138.529366 
L 834.054714 138.529366 
L 834.194172 124.242061 
L 836.007126 124.242061 
L 836.146584 124.844015 
L 837.959538 124.844015 
L 838.098996 117.316363 
L 839.91195 117.316363 
L 839.91195 117.316363 
" clip-path="url(#p78ab83aabf)" style="fill: none; stroke: #ff7f0e; stroke-width: 1.5; stroke-linecap: square"/>
   </g>
   <g id="line2d_66">
    <path d="M 700.593426 113.096517 
L 702.40638 113.096517 
L 702.545838 109.161311 
L 704.358792 109.161311 
L 704.49825 110.643273 
L 706.311203 110.643273 
L 706.450661 102.807406 
L 708.124157 102.807406 
L 708.263615 100.589792 
L 710.076569 100.589792 
L 710.216027 107.30841 
L 712.028981 107.30841 
L 712.168439 98.022584 
L 713.841934 98.022584 
L 713.981392 97.447579 
L 715.794346 97.447579 
L 715.933804 106.539918 
L 717.746758 106.539918 
L 717.886216 97.955338 
L 719.559712 97.955338 
L 719.69917 99.043616 
L 721.512123 99.043616 
L 721.651581 108.043836 
L 723.464535 108.043836 
L 723.603993 102.51882 
L 725.277489 102.51882 
L 725.416947 104.61401 
L 727.229901 104.61401 
L 727.369359 111.243791 
L 729.182312 111.243791 
L 729.32177 109.38319 
L 730.995266 109.38319 
L 731.134724 113.680001 
L 732.947678 113.680001 
L 733.087136 114.393828 
L 734.90009 114.393828 
L 735.039548 116.985943 
L 736.852501 116.985943 
L 736.991959 117.550569 
L 738.665455 117.550569 
L 738.804913 122.025329 
L 740.617867 122.025329 
L 740.757325 124.391278 
L 742.570279 124.391278 
L 742.709737 121.1273 
L 744.383232 121.1273 
L 744.52269 128.51283 
L 746.335644 128.51283 
L 746.475102 130.103316 
L 748.288056 130.103316 
L 748.427514 123.516503 
L 750.10101 123.516503 
L 750.240468 132.713252 
L 752.053421 132.713252 
L 752.192879 133.521875 
L 754.005833 133.521875 
L 754.145291 124.942581 
L 755.818787 124.942581 
L 755.958245 135.036886 
L 757.771199 135.036886 
L 757.910657 125.515431 
L 759.72361 125.515431 
L 759.863068 135.97242 
L 761.536564 135.97242 
L 761.676022 136.360479 
L 763.488976 136.360479 
L 763.628434 126.010714 
L 765.441388 126.010714 
L 765.580845 136.458074 
L 767.254341 136.458074 
L 767.393799 136.69161 
L 769.206753 136.69161 
L 769.346211 126.066953 
L 771.159165 126.066953 
L 771.298623 136.569467 
L 773.111576 136.569467 
L 773.390492 136.726737 
L 774.92453 136.726737 
L 775.063988 126.079432 
L 776.876942 126.079432 
L 777.0164 136.358129 
L 780.642307 136.387797 
L 780.781765 125.908046 
L 782.594719 125.908046 
L 782.734177 135.84911 
L 784.547131 135.84911 
L 784.686589 125.337034 
L 786.360085 125.337034 
L 786.499543 134.626404 
L 788.312496 134.626404 
L 788.451954 133.537646 
L 790.264908 133.537646 
L 790.404366 123.788587 
L 792.077862 123.788587 
L 792.21732 129.938929 
L 794.030274 129.938929 
L 794.169732 127.816928 
L 795.982685 127.816928 
L 796.122143 120.15262 
L 797.795639 120.15262 
L 797.935097 121.701732 
L 799.748051 121.701732 
L 799.887509 118.088041 
L 801.700463 118.088041 
L 801.839921 114.686961 
L 803.513416 114.686961 
L 803.652874 108.910071 
L 805.465828 108.910071 
L 805.605286 103.539798 
L 807.41824 103.539798 
L 807.557698 106.603575 
L 809.370652 106.603575 
L 809.51011 92.020473 
L 811.183605 92.020473 
L 811.323063 101.172505 
L 813.136017 101.172505 
L 813.275475 81.830428 
L 815.088429 81.830428 
L 815.227887 77.081723 
L 816.901383 77.081723 
L 817.040841 94.428528 
L 818.853794 94.428528 
L 818.993252 69.558599 
L 820.806206 69.558599 
L 820.945664 66.263559 
L 822.61916 66.263559 
L 822.758618 89.395971 
L 824.571572 89.395971 
L 824.71103 61.318987 
L 826.523983 61.318987 
L 826.663441 60.949441 
L 828.336937 60.949441 
L 828.476395 89.378838 
L 830.289349 89.378838 
L 830.428807 67.493487 
L 832.241761 67.493487 
L 832.381219 73.982299 
L 834.054714 73.982299 
L 834.194172 99.335167 
L 836.007126 99.335167 
L 836.146584 94.280037 
L 837.959538 94.280037 
L 838.098996 111.890086 
L 839.91195 111.890086 
L 839.91195 111.890086 
" clip-path="url(#p78ab83aabf)" style="fill: none; stroke: #2ca02c; stroke-width: 1.5; stroke-linecap: square"/>
   </g>
   <g id="line2d_67">
    <path d="M 700.593426 115.144 
L 702.40638 115.144 
L 702.545838 114.797661 
L 704.358792 114.797661 
L 704.49825 115.047028 
L 706.311203 115.047028 
L 706.450661 114.286476 
L 708.124157 114.286476 
L 708.403073 114.144483 
L 710.076569 114.144483 
L 710.216027 114.755215 
L 712.028981 114.755215 
L 712.168439 113.734221 
L 713.841934 113.734221 
L 713.981392 113.455798 
L 715.794346 113.455798 
L 715.933804 114.326517 
L 717.746758 114.326517 
L 717.886216 112.739873 
L 719.559712 112.739873 
L 719.69917 112.436102 
L 721.512123 112.436102 
L 721.651581 113.864681 
L 723.464535 113.864681 
L 723.603993 111.973808 
L 725.277489 111.973808 
L 725.416947 111.699991 
L 727.229901 111.699991 
L 727.369359 113.46234 
L 729.182312 113.46234 
L 729.32177 111.047123 
L 730.995266 111.047123 
L 731.134724 113.064603 
L 732.947678 113.064603 
L 733.087136 110.144767 
L 734.90009 110.144767 
L 735.039548 109.565698 
L 736.852501 109.565698 
L 736.991959 112.314517 
L 738.665455 112.314517 
L 738.804913 108.675783 
L 740.617867 108.675783 
L 740.757325 108.311795 
L 742.570279 108.311795 
L 742.709737 111.786758 
L 744.383232 111.786758 
L 744.52269 107.727184 
L 746.335644 107.727184 
L 746.475102 107.470344 
L 748.288056 107.470344 
L 748.427514 111.46094 
L 750.10101 111.46094 
L 750.240468 107.315458 
L 752.053421 107.315458 
L 752.332337 107.434371 
L 754.005833 107.434371 
L 754.145291 111.602513 
L 755.818787 111.602513 
L 755.958245 108.198848 
L 757.771199 108.198848 
L 757.910657 112.17708 
L 759.72361 112.17708 
L 759.863068 109.810537 
L 761.536564 109.810537 
L 761.676022 110.887397 
L 763.488976 110.887397 
L 763.628434 113.869081 
L 765.441388 113.869081 
L 765.580845 113.537589 
L 767.254341 113.537589 
L 767.393799 115.181684 
L 769.206753 115.181684 
L 769.346211 116.196994 
L 771.159165 116.196994 
L 771.298623 118.65981 
L 773.111576 118.65981 
L 773.251034 120.668696 
L 774.92453 120.668696 
L 775.063988 119.138487 
L 776.876942 119.138487 
L 777.0164 124.648948 
L 778.829354 124.648948 
L 778.968812 126.724939 
L 780.642307 126.724939 
L 780.781765 122.067588 
L 782.594719 122.067588 
L 782.734177 130.410341 
L 784.547131 130.410341 
L 784.686589 123.668663 
L 786.360085 123.668663 
L 786.499543 133.276991 
L 788.312496 133.276991 
L 788.451954 134.326773 
L 790.264908 134.326773 
L 790.404366 125.265227 
L 792.077862 125.265227 
L 792.21732 135.005015 
L 794.030274 135.005015 
L 794.169732 134.746777 
L 795.982685 134.746777 
L 796.122143 124.643409 
L 797.795639 124.643409 
L 797.935097 132.360648 
L 799.748051 132.360648 
L 799.887509 130.297467 
L 801.700463 130.297467 
L 801.839921 121.508113 
L 803.513416 121.508113 
L 803.652874 123.865762 
L 805.465828 123.865762 
L 805.605286 119.61056 
L 807.41824 119.61056 
L 807.557698 115.273333 
L 809.370652 115.273333 
L 809.51011 111.034544 
L 811.183605 111.034544 
L 811.323063 111.448663 
L 813.136017 111.448663 
L 813.275475 104.209042 
L 815.088429 104.209042 
L 815.227887 101.382969 
L 816.901383 101.382969 
L 817.040841 107.389167 
L 818.853794 107.389167 
L 818.993252 97.288723 
L 820.806206 97.288723 
L 820.945664 95.705141 
L 822.61916 95.705141 
L 822.758618 105.031734 
L 824.571572 105.031734 
L 824.71103 93.924383 
L 828.336937 93.947642 
L 828.476395 105.216985 
L 830.289349 105.216985 
L 830.428807 96.777968 
L 832.241761 96.777968 
L 832.381219 99.293082 
L 834.054714 99.293082 
L 834.194172 109.323932 
L 836.007126 109.323932 
L 836.146584 107.287051 
L 837.959538 107.287051 
L 838.098996 114.218308 
L 839.91195 114.218308 
L 839.91195 114.218308 
" clip-path="url(#p78ab83aabf)" style="fill: none; stroke: #d62728; stroke-width: 1.5; stroke-linecap: square"/>
   </g>
   <g id="line2d_68">
    <path d="M 700.593426 110.86609 
L 702.40638 110.86609 
L 702.545838 102.352342 
L 704.358792 102.352342 
L 704.49825 105.18695 
L 706.311203 105.18695 
L 706.450661 87.972614 
L 708.124157 87.972614 
L 708.263615 82.409566 
L 710.076569 82.409566 
L 710.216027 96.755782 
L 712.028981 96.755782 
L 712.168439 74.190851 
L 713.841934 74.190851 
L 713.981392 71.295782 
L 715.794346 71.295782 
L 715.933804 92.306151 
L 717.746758 92.306151 
L 717.886216 67.721719 
L 719.559712 67.721719 
L 719.69917 67.514819 
L 721.512123 67.514819 
L 721.651581 91.862188 
L 723.464535 91.862188 
L 723.603993 69.501347 
L 725.277489 69.501347 
L 725.416947 71.546951 
L 727.229901 71.546951 
L 727.369359 94.788672 
L 729.182312 94.788672 
L 729.32177 76.791004 
L 730.995266 76.791004 
L 731.134724 97.714382 
L 732.947678 97.714382 
L 733.087136 83.454798 
L 734.90009 83.454798 
L 735.039548 87.504492 
L 736.852501 87.504492 
L 736.991959 103.719278 
L 738.665455 103.719278 
L 738.804913 96.567402 
L 740.617867 96.567402 
L 740.757325 101.559263 
L 742.570279 101.559263 
L 742.709737 111.121057 
L 744.383232 111.121057 
L 744.52269 111.883218 
L 746.335644 111.883218 
L 746.475102 117.061409 
L 748.288056 117.061409 
L 748.427514 118.809398 
L 750.10101 118.809398 
L 750.240468 126.814464 
L 752.053421 126.814464 
L 752.192879 131.418495 
L 754.005833 131.418495 
L 754.145291 125.717566 
L 755.818787 125.717566 
L 755.958245 140.779109 
L 757.771199 140.779109 
L 757.910657 130.4242 
L 759.72361 130.4242 
L 759.863068 149.688806 
L 761.536564 149.688806 
L 761.676022 153.62172 
L 763.488976 153.62172 
L 763.628434 136.29453 
L 765.441388 136.29453 
L 765.580845 160.009186 
L 767.254341 160.009186 
L 767.393799 162.284267 
L 769.206753 162.284267 
L 769.346211 139.887719 
L 771.159165 139.887719 
L 771.298623 165.789735 
L 773.111576 165.789735 
L 773.251034 166.62 
L 774.92453 166.62 
L 775.063988 141.049392 
L 776.876942 141.049392 
L 777.0164 165.659515 
L 778.829354 165.659515 
L 778.968812 164.273007 
L 780.642307 164.273007 
L 780.781765 138.787126 
L 782.594719 138.787126 
L 782.734177 159.080941 
L 784.547131 159.080941 
L 784.686589 135.251597 
L 786.360085 135.251597 
L 786.499543 150.117024 
L 788.312496 150.117024 
L 788.451954 144.23782 
L 790.264908 144.23782 
L 790.404366 126.543214 
L 792.077862 126.543214 
L 792.21732 130.067438 
L 794.030274 130.067438 
L 794.169732 121.625935 
L 795.982685 121.625935 
L 796.122143 114.104165 
L 797.795639 114.104165 
L 797.935097 102.936712 
L 799.748051 102.936712 
L 799.887509 92.439764 
L 801.700463 92.439764 
L 801.839921 98.556566 
L 803.513416 98.556566 
L 803.652874 70.180552 
L 805.465828 70.180552 
L 805.605286 58.421644 
L 807.41824 58.421644 
L 807.557698 81.457817 
L 809.370652 81.457817 
L 809.51011 37.991431 
L 811.183605 37.991431 
L 811.323063 72.636274 
L 813.136017 72.636274 
L 813.275475 23.536016 
L 815.088429 23.536016 
L 815.227887 19.51914 
L 816.901383 19.51914 
L 817.040841 66.679013 
L 818.853794 66.679013 
L 818.993252 18.22 
L 820.806206 18.22 
L 820.945664 20.96291 
L 822.61916 20.96291 
L 822.758618 70.769624 
L 824.571572 70.769624 
L 824.71103 33.252434 
L 826.523983 33.252434 
L 826.663441 43.033404 
L 828.336937 43.033404 
L 828.476395 85.136492 
L 830.289349 85.136492 
L 830.428807 68.93227 
L 832.241761 68.93227 
L 832.381219 85.717478 
L 834.054714 85.717478 
L 834.194172 110.099424 
L 836.007126 110.099424 
L 836.146584 115.544513 
L 839.91195 115.544521 
L 839.91195 115.544521 
" clip-path="url(#p78ab83aabf)" style="fill: none; stroke: #9467bd; stroke-width: 1.5; stroke-linecap: square"/>
   </g>
   <g id="line2d_69">
    <path d="M 700.593426 109.784316 
L 702.40638 109.784316 
L 702.545838 99.616588 
L 704.358792 99.616588 
L 704.49825 103.145695 
L 706.311203 103.145695 
L 706.450661 83.064936 
L 708.124157 83.064936 
L 708.263615 76.738686 
L 710.076569 76.738686 
L 710.216027 93.602435 
L 712.028981 93.602435 
L 712.168439 67.692305 
L 713.841934 67.692305 
L 713.981392 64.802704 
L 715.794346 64.802704 
L 715.933804 89.277259 
L 717.746758 89.277259 
L 717.886216 62.174138 
L 719.559712 62.174138 
L 719.69917 62.402729 
L 721.512123 62.402729 
L 721.651581 89.539213 
L 723.464535 89.539213 
L 723.603993 65.5107 
L 725.277489 65.5107 
L 725.416947 68.037519 
L 727.229901 68.037519 
L 727.369359 93.318539 
L 729.182312 93.318539 
L 729.32177 74.581419 
L 730.995266 74.581419 
L 731.134724 96.917048 
L 732.947678 96.917048 
L 733.087136 82.306209 
L 734.90009 82.306209 
L 735.039548 86.404556 
L 736.852501 86.404556 
L 736.991959 103.108989 
L 738.665455 103.108989 
L 738.804913 94.991626 
L 740.617867 94.991626 
L 740.757325 99.296504 
L 742.570279 99.296504 
L 742.709737 109.555092 
L 744.383232 109.555092 
L 744.52269 107.514095 
L 746.335644 107.514095 
L 746.475102 111.260399 
L 748.288056 111.260399 
L 748.427514 115.205232 
L 750.10101 115.205232 
L 750.240468 118.218007 
L 752.053421 118.218007 
L 752.192879 121.324952 
L 754.005833 121.324952 
L 754.145291 119.904165 
L 755.818787 119.904165 
L 755.958245 127.142906 
L 757.771199 127.142906 
L 757.910657 122.622571 
L 759.72361 122.622571 
L 759.863068 132.304806 
L 761.536564 132.304806 
L 761.676022 134.647788 
L 763.488976 134.647788 
L 763.628434 126.167114 
L 765.441388 126.167114 
L 765.580845 138.653165 
L 767.254341 138.653165 
L 767.393799 140.581165 
L 769.206753 140.581165 
L 769.346211 128.848485 
L 771.159165 128.848485 
L 771.298623 143.649656 
L 773.111576 143.649656 
L 773.251034 145.144583 
L 774.92453 145.144583 
L 775.063988 130.970284 
L 776.876942 130.970284 
L 777.0164 147.294134 
L 778.829354 147.294134 
L 778.968812 148.272775 
L 780.642307 148.272775 
L 780.781765 132.214414 
L 782.594719 132.214414 
L 782.734177 149.235805 
L 784.547131 149.235805 
L 784.686589 132.279051 
L 786.360085 132.279051 
L 786.499543 148.862361 
L 788.312496 148.862361 
L 788.451954 148.062046 
L 790.264908 148.062046 
L 790.404366 131.140422 
L 792.077862 131.140422 
L 792.21732 144.632902 
L 794.030274 144.632902 
L 794.169732 142.257199 
L 795.982685 142.257199 
L 796.122143 127.231651 
L 797.795639 127.231651 
L 797.935097 135.269635 
L 799.748051 135.269635 
L 799.887509 130.869343 
L 801.700463 130.869343 
L 801.839921 120.604255 
L 803.513416 120.604255 
L 803.652874 119.606009 
L 805.465828 119.606009 
L 805.605286 112.931103 
L 807.41824 112.931103 
L 807.557698 110.685085 
L 809.370652 110.685085 
L 809.51011 99.374324 
L 811.183605 99.374324 
L 811.323063 104.454217 
L 813.136017 104.454217 
L 813.275475 87.982029 
L 815.088429 87.982029 
L 815.227887 83.039526 
L 816.901383 83.039526 
L 817.040841 97.352054 
L 818.853794 97.352054 
L 818.993252 75.57877 
L 820.806206 75.57877 
L 820.945664 72.673671 
L 822.61916 72.673671 
L 822.758618 92.946257 
L 824.571572 92.946257 
L 824.71103 69.196765 
L 828.336937 69.266481 
L 828.476395 93.50402 
L 830.289349 93.50402 
L 830.428807 75.176328 
L 832.241761 75.176328 
L 832.381219 80.831988 
L 834.054714 80.831988 
L 834.194172 101.905069 
L 836.007126 101.905069 
L 836.146584 97.975069 
L 837.959538 97.975069 
L 838.098996 112.339682 
L 839.91195 112.339682 
L 839.91195 112.339682 
" clip-path="url(#p78ab83aabf)" style="fill: none; stroke: #8c564b; stroke-width: 1.5; stroke-linecap: square"/>
   </g>
   <g id="line2d_70">
    <path d="M 700.593426 121.035629 
L 702.40638 121.035629 
L 702.545838 130.121501 
L 704.358792 130.121501 
L 704.49825 126.937712 
L 706.311203 126.937712 
L 706.450661 145.861436 
L 708.124157 145.861436 
L 708.263615 151.412716 
L 710.076569 151.412716 
L 710.216027 135.642142 
L 712.028981 135.642142 
L 712.168439 159.24139 
L 713.841934 159.24139 
L 713.981392 161.132943 
L 715.794346 161.132943 
L 715.933804 138.664134 
L 717.746758 138.664134 
L 717.886216 161.780233 
L 719.559712 161.780233 
L 719.69917 160.3945 
L 721.512123 160.3945 
L 721.651581 136.895706 
L 723.464535 136.895706 
L 723.603993 155.493184 
L 725.277489 155.493184 
L 725.416947 152.114901 
L 727.229901 152.114901 
L 727.369359 131.873892 
L 729.182312 131.873892 
L 729.32177 144.215914 
L 730.995266 144.215914 
L 731.134724 127.75469 
L 732.947678 127.75469 
L 733.087136 135.508795 
L 734.90009 135.508795 
L 735.039548 131.075367 
L 736.852501 131.075367 
L 736.991959 121.185951 
L 738.665455 121.185951 
L 738.804913 122.797683 
L 740.617867 122.797683 
L 740.757325 119.155271 
L 742.570279 119.155271 
L 742.709737 115.661669 
L 744.383232 115.661669 
L 744.52269 113.021241 
L 746.335644 113.021241 
L 746.475102 110.7166 
L 748.288056 110.7166 
L 748.427514 112.232337 
L 750.10101 112.232337 
L 750.240468 107.383367 
L 752.053421 107.383367 
L 752.192879 106.553604 
L 754.005833 106.553604 
L 754.145291 110.712633 
L 755.818787 110.712633 
L 755.958245 105.634012 
L 757.771199 105.634012 
L 757.910657 110.623109 
L 759.72361 110.623109 
L 759.863068 106.106132 
L 761.536564 106.106132 
L 761.676022 106.578884 
L 763.488976 106.578884 
L 763.628434 111.508008 
L 765.441388 111.508008 
L 765.580845 108.391611 
L 767.254341 108.391611 
L 767.393799 109.204563 
L 769.206753 109.204563 
L 769.346211 112.866364 
L 771.159165 112.866364 
L 771.298623 111.053443 
L 773.111576 111.053443 
L 773.251034 111.713621 
L 774.92453 111.713621 
L 775.063988 114.015342 
L 776.876942 114.015342 
L 777.0164 113.056355 
L 778.829354 113.056355 
L 778.968812 113.293964 
L 780.642307 113.293964 
L 780.781765 114.404496 
L 782.594719 114.404496 
L 782.734177 113.317764 
L 784.547131 113.317764 
L 784.686589 114.298649 
L 786.360085 114.298649 
L 786.499543 112.52611 
L 788.312496 112.52611 
L 788.451954 112.011324 
L 790.264908 112.011324 
L 790.404366 113.495284 
L 792.077862 113.495284 
L 792.21732 110.759395 
L 794.030274 110.759395 
L 794.169732 109.83441 
L 795.982685 109.83441 
L 796.122143 112.332463 
L 797.795639 112.332463 
L 797.935097 108.134008 
L 799.748051 108.134008 
L 799.887509 107.160606 
L 801.700463 107.160606 
L 801.839921 110.905353 
L 803.513416 110.905353 
L 803.652874 105.505959 
L 805.465828 105.505959 
L 805.605286 104.850766 
L 807.41824 104.850766 
L 807.557698 110.102317 
L 809.370652 110.102317 
L 809.51011 105.218047 
L 811.183605 105.218047 
L 811.323063 110.772489 
L 813.136017 110.772489 
L 813.275475 107.496231 
L 815.088429 107.496231 
L 815.227887 109.483056 
L 816.901383 109.483056 
L 817.040841 113.58015 
L 818.853794 113.58015 
L 818.993252 114.301392 
L 820.806206 114.301392 
L 820.945664 117.342202 
L 822.61916 117.342202 
L 822.758618 118.160488 
L 824.571572 118.160488 
L 824.71103 124.216664 
L 826.523983 124.216664 
L 826.663441 126.898213 
L 828.336937 126.898213 
L 828.476395 122.012632 
L 830.289349 122.012632 
L 830.428807 128.794224 
L 832.241761 128.794224 
L 832.381219 128.329002 
L 834.054714 128.329002 
L 834.194172 120.626888 
L 836.007126 120.626888 
L 836.146584 123.203719 
L 837.959538 123.203719 
L 838.098996 116.542878 
L 839.91195 116.542878 
L 839.91195 116.542878 
" clip-path="url(#p78ab83aabf)" style="fill: none; stroke: #e377c2; stroke-width: 1.5; stroke-linecap: square"/>
   </g>
   <g id="patch_18">
    <path d="M 693.6275 174.04 
L 693.6275 10.8 
" style="fill: none; stroke: #000000; stroke-width: 0.8; stroke-linejoin: miter; stroke-linecap: square"/>
   </g>
   <g id="patch_19">
    <path d="M 846.877876 174.04 
L 846.877876 10.8 
" style="fill: none; stroke: #000000; stroke-width: 0.8; stroke-linejoin: miter; stroke-linecap: square"/>
   </g>
   <g id="patch_20">
    <path d="M 693.6275 174.04 
L 846.877876 174.04 
" style="fill: none; stroke: #000000; stroke-width: 0.8; stroke-linejoin: miter; stroke-linecap: square"/>
   </g>
   <g id="patch_21">
    <path d="M 693.6275 10.8 
L 846.877876 10.8 
" style="fill: none; stroke: #000000; stroke-width: 0.8; stroke-linejoin: miter; stroke-linecap: square"/>
   </g>
  </g>
 </g>
 <defs>
  <clipPath id="p6566f1feb0">
   <rect x="46.64" y="10.8" width="153.250376" height="163.24"/>
  </clipPath>
  <clipPath id="p434fd2b738">
   <rect x="262.3025" y="10.8" width="153.250376" height="163.24"/>
  </clipPath>
  <clipPath id="p427a2b3eee">
   <rect x="477.965" y="10.8" width="153.250376" height="163.24"/>
  </clipPath>
  <clipPath id="p78ab83aabf">
   <rect x="693.6275" y="10.8" width="153.250376" height="163.24"/>
  </clipPath>
 </defs>
</svg>
