<?xml version="1.0" encoding="utf-8" standalone="no"?>
<!DOCTYPE svg PUBLIC "-//W3C//DTD SVG 1.1//EN"
  "http://www.w3.org/Graphics/SVG/1.1/DTD/svg11.dtd">
<svg xmlns:xlink="http://www.w3.org/1999/xlink" width="864pt" height="216pt" viewBox="0 0 864 216" xmlns="http://www.w3.org/2000/svg" version="1.1">
 <metadata>
  <rdf:RDF xmlns:dc="http://purl.org/dc/elements/1.1/" xmlns:cc="http://creativecommons.org/ns#" xmlns:rdf="http://www.w3.org/1999/02/22-rdf-syntax-ns#">
   <cc:Work>
    <dc:type rdf:resource="http://purl.org/dc/dcmitype/StillImage"/>
    <dc:date>2023-07-24T21:22:07.660745</dc:date>
    <dc:format>image/svg+xml</dc:format>
    <dc:creator>
     <cc:Agent>
      <dc:title>Matplotlib v3.5.2, https://matplotlib.org/</dc:title>
     </cc:Agent>
    </dc:creator>
   </cc:Work>
  </rdf:RDF>
 </metadata>
 <defs>
  <style type="text/css">*{stroke-linejoin: round; stroke-linecap: butt}</style>
 </defs>
 <g id="figure_1">
  <g id="patch_1">
   <path d="M 0 216 
L 864 216 
L 864 0 
L 0 0 
z
" style="fill: #ffffff"/>
  </g>
  <g id="axes_1">
   <g id="patch_2">
    <path d="M 46.64 174.04 
L 206.2125 174.04 
L 206.2125 11.159007 
L 46.64 11.159007 
z
" style="fill: #ffffff"/>
   </g>
   <g id="matplotlib.axis_1">
    <g id="xtick_1">
     <g id="line2d_1">
      <defs>
       <path id="m85aedbc8dd" d="M 0 0 
L 0 3.5 
" style="stroke: #000000; stroke-width: 0.8"/>
      </defs>
      <g>
       <use xlink:href="#m85aedbc8dd" x="53.893295" y="174.04" style="stroke: #000000; stroke-width: 0.8"/>
      </g>
     </g>
     <g id="text_1">
      <!-- 0.0 -->
      <g transform="translate(45.941733 188.638438)scale(0.1 -0.1)">
       <defs>
        <path id="DejaVuSans-30" d="M 2034 4250 
Q 1547 4250 1301 3770 
Q 1056 3291 1056 2328 
Q 1056 1369 1301 889 
Q 1547 409 2034 409 
Q 2525 409 2770 889 
Q 3016 1369 3016 2328 
Q 3016 3291 2770 3770 
Q 2525 4250 2034 4250 
z
M 2034 4750 
Q 2819 4750 3233 4129 
Q 3647 3509 3647 2328 
Q 3647 1150 3233 529 
Q 2819 -91 2034 -91 
Q 1250 -91 836 529 
Q 422 1150 422 2328 
Q 422 3509 836 4129 
Q 1250 4750 2034 4750 
z
" transform="scale(0.015625)"/>
        <path id="DejaVuSans-2e" d="M 684 794 
L 1344 794 
L 1344 0 
L 684 0 
L 684 794 
z
" transform="scale(0.015625)"/>
       </defs>
       <use xlink:href="#DejaVuSans-30"/>
       <use xlink:href="#DejaVuSans-2e" x="63.623047"/>
       <use xlink:href="#DejaVuSans-30" x="95.410156"/>
      </g>
     </g>
    </g>
    <g id="xtick_2">
     <g id="line2d_2">
      <g>
       <use xlink:href="#m85aedbc8dd" x="99.437888" y="174.04" style="stroke: #000000; stroke-width: 0.8"/>
      </g>
     </g>
     <g id="text_2">
      <!-- 0.5 -->
      <g transform="translate(91.486326 188.638438)scale(0.1 -0.1)">
       <defs>
        <path id="DejaVuSans-35" d="M 691 4666 
L 3169 4666 
L 3169 4134 
L 1269 4134 
L 1269 2991 
Q 1406 3038 1543 3061 
Q 1681 3084 1819 3084 
Q 2600 3084 3056 2656 
Q 3513 2228 3513 1497 
Q 3513 744 3044 326 
Q 2575 -91 1722 -91 
Q 1428 -91 1123 -41 
Q 819 9 494 109 
L 494 744 
Q 775 591 1075 516 
Q 1375 441 1709 441 
Q 2250 441 2565 725 
Q 2881 1009 2881 1497 
Q 2881 1984 2565 2268 
Q 2250 2553 1709 2553 
Q 1456 2553 1204 2497 
Q 953 2441 691 2322 
L 691 4666 
z
" transform="scale(0.015625)"/>
       </defs>
       <use xlink:href="#DejaVuSans-30"/>
       <use xlink:href="#DejaVuSans-2e" x="63.623047"/>
       <use xlink:href="#DejaVuSans-35" x="95.410156"/>
      </g>
     </g>
    </g>
    <g id="xtick_3">
     <g id="line2d_3">
      <g>
       <use xlink:href="#m85aedbc8dd" x="144.982481" y="174.04" style="stroke: #000000; stroke-width: 0.8"/>
      </g>
     </g>
     <g id="text_3">
      <!-- 1.0 -->
      <g transform="translate(137.030918 188.638438)scale(0.1 -0.1)">
       <defs>
        <path id="DejaVuSans-31" d="M 794 531 
L 1825 531 
L 1825 4091 
L 703 3866 
L 703 4441 
L 1819 4666 
L 2450 4666 
L 2450 531 
L 3481 531 
L 3481 0 
L 794 0 
L 794 531 
z
" transform="scale(0.015625)"/>
       </defs>
       <use xlink:href="#DejaVuSans-31"/>
       <use xlink:href="#DejaVuSans-2e" x="63.623047"/>
       <use xlink:href="#DejaVuSans-30" x="95.410156"/>
      </g>
     </g>
    </g>
    <g id="xtick_4">
     <g id="line2d_4">
      <g>
       <use xlink:href="#m85aedbc8dd" x="190.527073" y="174.04" style="stroke: #000000; stroke-width: 0.8"/>
      </g>
     </g>
     <g id="text_4">
      <!-- 1.5 -->
      <g transform="translate(182.575511 188.638438)scale(0.1 -0.1)">
       <use xlink:href="#DejaVuSans-31"/>
       <use xlink:href="#DejaVuSans-2e" x="63.623047"/>
       <use xlink:href="#DejaVuSans-35" x="95.410156"/>
      </g>
     </g>
    </g>
    <g id="text_5">
     <!-- Time -->
     <g transform="translate(114.192656 202.316563)scale(0.1 -0.1)">
      <defs>
       <path id="DejaVuSans-54" d="M -19 4666 
L 3928 4666 
L 3928 4134 
L 2272 4134 
L 2272 0 
L 1638 0 
L 1638 4134 
L -19 4134 
L -19 4666 
z
" transform="scale(0.015625)"/>
       <path id="DejaVuSans-69" d="M 603 3500 
L 1178 3500 
L 1178 0 
L 603 0 
L 603 3500 
z
M 603 4863 
L 1178 4863 
L 1178 4134 
L 603 4134 
L 603 4863 
z
" transform="scale(0.015625)"/>
       <path id="DejaVuSans-6d" d="M 3328 2828 
Q 3544 3216 3844 3400 
Q 4144 3584 4550 3584 
Q 5097 3584 5394 3201 
Q 5691 2819 5691 2113 
L 5691 0 
L 5113 0 
L 5113 2094 
Q 5113 2597 4934 2840 
Q 4756 3084 4391 3084 
Q 3944 3084 3684 2787 
Q 3425 2491 3425 1978 
L 3425 0 
L 2847 0 
L 2847 2094 
Q 2847 2600 2669 2842 
Q 2491 3084 2119 3084 
Q 1678 3084 1418 2786 
Q 1159 2488 1159 1978 
L 1159 0 
L 581 0 
L 581 3500 
L 1159 3500 
L 1159 2956 
Q 1356 3278 1631 3431 
Q 1906 3584 2284 3584 
Q 2666 3584 2933 3390 
Q 3200 3197 3328 2828 
z
" transform="scale(0.015625)"/>
       <path id="DejaVuSans-65" d="M 3597 1894 
L 3597 1613 
L 953 1613 
Q 991 1019 1311 708 
Q 1631 397 2203 397 
Q 2534 397 2845 478 
Q 3156 559 3463 722 
L 3463 178 
Q 3153 47 2828 -22 
Q 2503 -91 2169 -91 
Q 1331 -91 842 396 
Q 353 884 353 1716 
Q 353 2575 817 3079 
Q 1281 3584 2069 3584 
Q 2775 3584 3186 3129 
Q 3597 2675 3597 1894 
z
M 3022 2063 
Q 3016 2534 2758 2815 
Q 2500 3097 2075 3097 
Q 1594 3097 1305 2825 
Q 1016 2553 972 2059 
L 3022 2063 
z
" transform="scale(0.015625)"/>
      </defs>
      <use xlink:href="#DejaVuSans-54"/>
      <use xlink:href="#DejaVuSans-69" x="57.958984"/>
      <use xlink:href="#DejaVuSans-6d" x="85.742188"/>
      <use xlink:href="#DejaVuSans-65" x="183.154297"/>
     </g>
    </g>
   </g>
   <g id="matplotlib.axis_2">
    <g id="ytick_1">
     <g id="line2d_5">
      <defs>
       <path id="mdb8a8d2203" d="M 0 0 
L -3.5 0 
" style="stroke: #000000; stroke-width: 0.8"/>
      </defs>
      <g>
       <use xlink:href="#mdb8a8d2203" x="46.64" y="149.611181" style="stroke: #000000; stroke-width: 0.8"/>
      </g>
     </g>
     <g id="text_6">
      <!-- −2 -->
      <g transform="translate(24.897813 153.4104)scale(0.1 -0.1)">
       <defs>
        <path id="DejaVuSans-2212" d="M 678 2272 
L 4684 2272 
L 4684 1741 
L 678 1741 
L 678 2272 
z
" transform="scale(0.015625)"/>
        <path id="DejaVuSans-32" d="M 1228 531 
L 3431 531 
L 3431 0 
L 469 0 
L 469 531 
Q 828 903 1448 1529 
Q 2069 2156 2228 2338 
Q 2531 2678 2651 2914 
Q 2772 3150 2772 3378 
Q 2772 3750 2511 3984 
Q 2250 4219 1831 4219 
Q 1534 4219 1204 4116 
Q 875 4013 500 3803 
L 500 4441 
Q 881 4594 1212 4672 
Q 1544 4750 1819 4750 
Q 2544 4750 2975 4387 
Q 3406 4025 3406 3419 
Q 3406 3131 3298 2873 
Q 3191 2616 2906 2266 
Q 2828 2175 2409 1742 
Q 1991 1309 1228 531 
z
" transform="scale(0.015625)"/>
       </defs>
       <use xlink:href="#DejaVuSans-2212"/>
       <use xlink:href="#DejaVuSans-32" x="83.789062"/>
      </g>
     </g>
    </g>
    <g id="ytick_2">
     <g id="line2d_6">
      <g>
       <use xlink:href="#mdb8a8d2203" x="46.64" y="121.038795" style="stroke: #000000; stroke-width: 0.8"/>
      </g>
     </g>
     <g id="text_7">
      <!-- −1 -->
      <g transform="translate(24.897813 124.838014)scale(0.1 -0.1)">
       <use xlink:href="#DejaVuSans-2212"/>
       <use xlink:href="#DejaVuSans-31" x="83.789062"/>
      </g>
     </g>
    </g>
    <g id="ytick_3">
     <g id="line2d_7">
      <g>
       <use xlink:href="#mdb8a8d2203" x="46.64" y="92.466409" style="stroke: #000000; stroke-width: 0.8"/>
      </g>
     </g>
     <g id="text_8">
      <!-- 0 -->
      <g transform="translate(33.2775 96.265628)scale(0.1 -0.1)">
       <use xlink:href="#DejaVuSans-30"/>
      </g>
     </g>
    </g>
    <g id="ytick_4">
     <g id="line2d_8">
      <g>
       <use xlink:href="#mdb8a8d2203" x="46.64" y="63.894024" style="stroke: #000000; stroke-width: 0.8"/>
      </g>
     </g>
     <g id="text_9">
      <!-- 1 -->
      <g transform="translate(33.2775 67.693242)scale(0.1 -0.1)">
       <use xlink:href="#DejaVuSans-31"/>
      </g>
     </g>
    </g>
    <g id="ytick_5">
     <g id="line2d_9">
      <g>
       <use xlink:href="#mdb8a8d2203" x="46.64" y="35.321638" style="stroke: #000000; stroke-width: 0.8"/>
      </g>
     </g>
     <g id="text_10">
      <!-- 2 -->
      <g transform="translate(33.2775 39.120857)scale(0.1 -0.1)">
       <use xlink:href="#DejaVuSans-32"/>
      </g>
     </g>
    </g>
    <g id="text_11">
     <!-- Position -->
     <g transform="translate(18.818125 112.063566)rotate(-90)scale(0.1 -0.1)">
      <defs>
       <path id="DejaVuSans-50" d="M 1259 4147 
L 1259 2394 
L 2053 2394 
Q 2494 2394 2734 2622 
Q 2975 2850 2975 3272 
Q 2975 3691 2734 3919 
Q 2494 4147 2053 4147 
L 1259 4147 
z
M 628 4666 
L 2053 4666 
Q 2838 4666 3239 4311 
Q 3641 3956 3641 3272 
Q 3641 2581 3239 2228 
Q 2838 1875 2053 1875 
L 1259 1875 
L 1259 0 
L 628 0 
L 628 4666 
z
" transform="scale(0.015625)"/>
       <path id="DejaVuSans-6f" d="M 1959 3097 
Q 1497 3097 1228 2736 
Q 959 2375 959 1747 
Q 959 1119 1226 758 
Q 1494 397 1959 397 
Q 2419 397 2687 759 
Q 2956 1122 2956 1747 
Q 2956 2369 2687 2733 
Q 2419 3097 1959 3097 
z
M 1959 3584 
Q 2709 3584 3137 3096 
Q 3566 2609 3566 1747 
Q 3566 888 3137 398 
Q 2709 -91 1959 -91 
Q 1206 -91 779 398 
Q 353 888 353 1747 
Q 353 2609 779 3096 
Q 1206 3584 1959 3584 
z
" transform="scale(0.015625)"/>
       <path id="DejaVuSans-73" d="M 2834 3397 
L 2834 2853 
Q 2591 2978 2328 3040 
Q 2066 3103 1784 3103 
Q 1356 3103 1142 2972 
Q 928 2841 928 2578 
Q 928 2378 1081 2264 
Q 1234 2150 1697 2047 
L 1894 2003 
Q 2506 1872 2764 1633 
Q 3022 1394 3022 966 
Q 3022 478 2636 193 
Q 2250 -91 1575 -91 
Q 1294 -91 989 -36 
Q 684 19 347 128 
L 347 722 
Q 666 556 975 473 
Q 1284 391 1588 391 
Q 1994 391 2212 530 
Q 2431 669 2431 922 
Q 2431 1156 2273 1281 
Q 2116 1406 1581 1522 
L 1381 1569 
Q 847 1681 609 1914 
Q 372 2147 372 2553 
Q 372 3047 722 3315 
Q 1072 3584 1716 3584 
Q 2034 3584 2315 3537 
Q 2597 3491 2834 3397 
z
" transform="scale(0.015625)"/>
       <path id="DejaVuSans-74" d="M 1172 4494 
L 1172 3500 
L 2356 3500 
L 2356 3053 
L 1172 3053 
L 1172 1153 
Q 1172 725 1289 603 
Q 1406 481 1766 481 
L 2356 481 
L 2356 0 
L 1766 0 
Q 1100 0 847 248 
Q 594 497 594 1153 
L 594 3053 
L 172 3053 
L 172 3500 
L 594 3500 
L 594 4494 
L 1172 4494 
z
" transform="scale(0.015625)"/>
       <path id="DejaVuSans-6e" d="M 3513 2113 
L 3513 0 
L 2938 0 
L 2938 2094 
Q 2938 2591 2744 2837 
Q 2550 3084 2163 3084 
Q 1697 3084 1428 2787 
Q 1159 2491 1159 1978 
L 1159 0 
L 581 0 
L 581 3500 
L 1159 3500 
L 1159 2956 
Q 1366 3272 1645 3428 
Q 1925 3584 2291 3584 
Q 2894 3584 3203 3211 
Q 3513 2838 3513 2113 
z
" transform="scale(0.015625)"/>
      </defs>
      <use xlink:href="#DejaVuSans-50"/>
      <use xlink:href="#DejaVuSans-6f" x="56.677734"/>
      <use xlink:href="#DejaVuSans-73" x="117.859375"/>
      <use xlink:href="#DejaVuSans-69" x="169.958984"/>
      <use xlink:href="#DejaVuSans-74" x="197.742188"/>
      <use xlink:href="#DejaVuSans-69" x="236.951172"/>
      <use xlink:href="#DejaVuSans-6f" x="264.734375"/>
      <use xlink:href="#DejaVuSans-6e" x="325.916016"/>
     </g>
    </g>
   </g>
   <g id="line2d_10">
    <path d="M 53.893295 94.973442 
L 56.507096 95.088965 
L 59.120896 95.425606 
L 62.025118 96.022923 
L 65.655396 97.009301 
L 71.173419 98.771302 
L 77.85313 100.852922 
L 82.499886 102.060846 
L 86.711009 102.923743 
L 90.922131 103.556407 
L 95.423676 103.998776 
L 100.360854 104.254931 
L 106.024088 104.323207 
L 113.429855 104.176491 
L 125.191955 103.685108 
L 158.300091 102.236895 
L 185.890204 101.250165 
L 197.07146 101.073735 
L 198.959205 101.069666 
L 198.959205 101.069666 
" clip-path="url(#p8e6ddfa954)" style="fill: none; stroke: #1f77b4; stroke-width: 1.5; stroke-linecap: square"/>
   </g>
   <g id="line2d_11">
    <path d="M 53.893295 120.214809 
L 56.652307 120.105374 
L 59.556529 119.765209 
L 62.751174 119.162833 
L 66.671874 118.183458 
L 72.044685 116.587186 
L 113.865488 103.471924 
L 186.325837 80.85914 
L 190.391748 79.877089 
L 193.731604 79.290813 
L 196.635827 78.995145 
L 198.959205 78.920859 
L 198.959205 78.920859 
" clip-path="url(#p8e6ddfa954)" style="fill: none; stroke: #ff7f0e; stroke-width: 1.5; stroke-linecap: square"/>
   </g>
   <g id="line2d_12">
    <path d="M 53.893295 91.040055 
L 56.507096 91.157569 
L 59.120896 91.507736 
L 61.879907 92.105313 
L 65.219763 93.07262 
L 69.576096 94.588523 
L 80.031297 98.325421 
L 84.532842 99.658321 
L 88.889175 100.712181 
L 93.245509 101.53428 
L 97.892265 102.185078 
L 103.119865 102.692674 
L 109.509154 103.076697 
L 117.931399 103.345591 
L 134.340256 103.597145 
L 160.623469 103.819733 
L 175.725425 103.704503 
L 198.959205 103.436088 
L 198.959205 103.436088 
" clip-path="url(#p8e6ddfa954)" style="fill: none; stroke: #2ca02c; stroke-width: 1.5; stroke-linecap: square"/>
   </g>
   <g id="line2d_13">
    <path d="M 53.893295 166.636319 
L 59.411318 166.524531 
L 65.945818 166.156804 
L 80.321719 165.040841 
L 91.502976 164.323283 
L 110.089999 163.425008 
L 123.013789 162.668798 
L 133.033356 161.861232 
L 142.326868 160.885746 
L 152.346435 159.600475 
L 180.22697 155.865196 
L 187.197104 155.262609 
L 193.586393 154.935358 
L 198.959205 154.846912 
L 198.959205 154.846912 
" clip-path="url(#p8e6ddfa954)" style="fill: none; stroke: #d62728; stroke-width: 1.5; stroke-linecap: square"/>
   </g>
   <g id="line2d_14">
    <path d="M 53.893295 91.119141 
L 57.08794 91.22994 
L 60.427796 91.569858 
L 64.203285 92.18432 
L 68.850041 93.1782 
L 78.433975 95.543771 
L 84.968475 97.018144 
L 90.050864 97.935436 
L 94.69762 98.548306 
L 99.053954 98.903839 
L 103.410287 99.040345 
L 107.911832 98.95569 
L 112.558588 98.640886 
L 117.495766 98.074626 
L 122.723366 97.249723 
L 128.677022 96.077108 
L 135.937578 94.408743 
L 147.409257 91.50589 
L 160.333047 88.296335 
L 168.174447 86.576951 
L 174.99937 85.306096 
L 181.098237 84.392078 
L 186.906682 83.745466 
L 192.424704 83.354288 
L 197.797516 83.194313 
L 198.959205 83.189071 
L 198.959205 83.189071 
" clip-path="url(#p8e6ddfa954)" style="fill: none; stroke: #9467bd; stroke-width: 1.5; stroke-linecap: square"/>
   </g>
   <g id="line2d_15">
    <path d="M 53.893295 46.743112 
L 57.959207 46.63329 
L 62.170329 46.299164 
L 66.817085 45.705916 
L 72.044685 44.812065 
L 78.724397 43.431171 
L 88.598753 41.13126 
L 116.769711 34.480872 
L 141.746023 28.636167 
L 168.755292 22.188336 
L 175.870636 20.786075 
L 181.969503 19.80722 
L 187.487526 19.142956 
L 192.715126 18.73714 
L 197.797516 18.568762 
L 198.959205 18.562689 
L 198.959205 18.562689 
" clip-path="url(#p8e6ddfa954)" style="fill: none; stroke: #8c564b; stroke-width: 1.5; stroke-linecap: square"/>
   </g>
   <g id="line2d_16">
    <path d="M 53.893295 71.182788 
L 58.104418 71.294936 
L 62.460752 71.640963 
L 66.962296 72.22619 
L 71.754263 73.076233 
L 77.272286 74.291095 
L 83.806786 75.968621 
L 94.261987 78.91566 
L 107.911832 82.713986 
L 117.931399 85.261955 
L 127.950967 87.578602 
L 138.551379 89.800622 
L 149.15179 91.797675 
L 158.590513 93.354784 
L 167.012758 94.521925 
L 174.854159 95.38606 
L 182.405137 95.998369 
L 189.956115 96.386637 
L 197.361882 96.545426 
L 198.959205 96.550595 
L 198.959205 96.550595 
" clip-path="url(#p8e6ddfa954)" style="fill: none; stroke: #e377c2; stroke-width: 1.5; stroke-linecap: square"/>
   </g>
   <g id="patch_3">
    <path d="M 46.64 174.04 
L 46.64 11.159007 
" style="fill: none; stroke: #000000; stroke-width: 0.8; stroke-linejoin: miter; stroke-linecap: square"/>
   </g>
   <g id="patch_4">
    <path d="M 206.2125 174.04 
L 206.2125 11.159007 
" style="fill: none; stroke: #000000; stroke-width: 0.8; stroke-linejoin: miter; stroke-linecap: square"/>
   </g>
   <g id="patch_5">
    <path d="M 46.64 174.04 
L 206.2125 174.04 
" style="fill: none; stroke: #000000; stroke-width: 0.8; stroke-linejoin: miter; stroke-linecap: square"/>
   </g>
   <g id="patch_6">
    <path d="M 46.64 11.159007 
L 206.2125 11.159007 
" style="fill: none; stroke: #000000; stroke-width: 0.8; stroke-linejoin: miter; stroke-linecap: square"/>
   </g>
  </g>
  <g id="axes_2">
   <g id="patch_7">
    <path d="M 262.3025 174.04 
L 421.875 174.04 
L 421.875 11.159007 
L 262.3025 11.159007 
z
" style="fill: #ffffff"/>
   </g>
   <g id="matplotlib.axis_3">
    <g id="xtick_5">
     <g id="line2d_17">
      <g>
       <use xlink:href="#m85aedbc8dd" x="269.555795" y="174.04" style="stroke: #000000; stroke-width: 0.8"/>
      </g>
     </g>
     <g id="text_12">
      <!-- 0.0 -->
      <g transform="translate(261.604233 188.638438)scale(0.1 -0.1)">
       <use xlink:href="#DejaVuSans-30"/>
       <use xlink:href="#DejaVuSans-2e" x="63.623047"/>
       <use xlink:href="#DejaVuSans-30" x="95.410156"/>
      </g>
     </g>
    </g>
    <g id="xtick_6">
     <g id="line2d_18">
      <g>
       <use xlink:href="#m85aedbc8dd" x="315.100388" y="174.04" style="stroke: #000000; stroke-width: 0.8"/>
      </g>
     </g>
     <g id="text_13">
      <!-- 0.5 -->
      <g transform="translate(307.148826 188.638438)scale(0.1 -0.1)">
       <use xlink:href="#DejaVuSans-30"/>
       <use xlink:href="#DejaVuSans-2e" x="63.623047"/>
       <use xlink:href="#DejaVuSans-35" x="95.410156"/>
      </g>
     </g>
    </g>
    <g id="xtick_7">
     <g id="line2d_19">
      <g>
       <use xlink:href="#m85aedbc8dd" x="360.644981" y="174.04" style="stroke: #000000; stroke-width: 0.8"/>
      </g>
     </g>
     <g id="text_14">
      <!-- 1.0 -->
      <g transform="translate(352.693418 188.638438)scale(0.1 -0.1)">
       <use xlink:href="#DejaVuSans-31"/>
       <use xlink:href="#DejaVuSans-2e" x="63.623047"/>
       <use xlink:href="#DejaVuSans-30" x="95.410156"/>
      </g>
     </g>
    </g>
    <g id="xtick_8">
     <g id="line2d_20">
      <g>
       <use xlink:href="#m85aedbc8dd" x="406.189573" y="174.04" style="stroke: #000000; stroke-width: 0.8"/>
      </g>
     </g>
     <g id="text_15">
      <!-- 1.5 -->
      <g transform="translate(398.238011 188.638438)scale(0.1 -0.1)">
       <use xlink:href="#DejaVuSans-31"/>
       <use xlink:href="#DejaVuSans-2e" x="63.623047"/>
       <use xlink:href="#DejaVuSans-35" x="95.410156"/>
      </g>
     </g>
    </g>
    <g id="text_16">
     <!-- Time -->
     <g transform="translate(329.855156 202.316563)scale(0.1 -0.1)">
      <use xlink:href="#DejaVuSans-54"/>
      <use xlink:href="#DejaVuSans-69" x="57.958984"/>
      <use xlink:href="#DejaVuSans-6d" x="85.742188"/>
      <use xlink:href="#DejaVuSans-65" x="183.154297"/>
     </g>
    </g>
   </g>
   <g id="matplotlib.axis_4">
    <g id="ytick_6">
     <g id="line2d_21">
      <g>
       <use xlink:href="#mdb8a8d2203" x="262.3025" y="153.85408" style="stroke: #000000; stroke-width: 0.8"/>
      </g>
     </g>
     <g id="text_17">
      <!-- −1.0 -->
      <g transform="translate(231.019687 157.653299)scale(0.1 -0.1)">
       <use xlink:href="#DejaVuSans-2212"/>
       <use xlink:href="#DejaVuSans-31" x="83.789062"/>
       <use xlink:href="#DejaVuSans-2e" x="147.412109"/>
       <use xlink:href="#DejaVuSans-30" x="179.199219"/>
      </g>
     </g>
    </g>
    <g id="ytick_7">
     <g id="line2d_22">
      <g>
       <use xlink:href="#mdb8a8d2203" x="262.3025" y="120.031232" style="stroke: #000000; stroke-width: 0.8"/>
      </g>
     </g>
     <g id="text_18">
      <!-- −0.5 -->
      <g transform="translate(231.019687 123.830451)scale(0.1 -0.1)">
       <use xlink:href="#DejaVuSans-2212"/>
       <use xlink:href="#DejaVuSans-30" x="83.789062"/>
       <use xlink:href="#DejaVuSans-2e" x="147.412109"/>
       <use xlink:href="#DejaVuSans-35" x="179.199219"/>
      </g>
     </g>
    </g>
    <g id="ytick_8">
     <g id="line2d_23">
      <g>
       <use xlink:href="#mdb8a8d2203" x="262.3025" y="86.208384" style="stroke: #000000; stroke-width: 0.8"/>
      </g>
     </g>
     <g id="text_19">
      <!-- 0.0 -->
      <g transform="translate(239.399375 90.007603)scale(0.1 -0.1)">
       <use xlink:href="#DejaVuSans-30"/>
       <use xlink:href="#DejaVuSans-2e" x="63.623047"/>
       <use xlink:href="#DejaVuSans-30" x="95.410156"/>
      </g>
     </g>
    </g>
    <g id="ytick_9">
     <g id="line2d_24">
      <g>
       <use xlink:href="#mdb8a8d2203" x="262.3025" y="52.385537" style="stroke: #000000; stroke-width: 0.8"/>
      </g>
     </g>
     <g id="text_20">
      <!-- 0.5 -->
      <g transform="translate(239.399375 56.184755)scale(0.1 -0.1)">
       <use xlink:href="#DejaVuSans-30"/>
       <use xlink:href="#DejaVuSans-2e" x="63.623047"/>
       <use xlink:href="#DejaVuSans-35" x="95.410156"/>
      </g>
     </g>
    </g>
    <g id="ytick_10">
     <g id="line2d_25">
      <g>
       <use xlink:href="#mdb8a8d2203" x="262.3025" y="18.562689" style="stroke: #000000; stroke-width: 0.8"/>
      </g>
     </g>
     <g id="text_21">
      <!-- 1.0 -->
      <g transform="translate(239.399375 22.361908)scale(0.1 -0.1)">
       <use xlink:href="#DejaVuSans-31"/>
       <use xlink:href="#DejaVuSans-2e" x="63.623047"/>
       <use xlink:href="#DejaVuSans-30" x="95.410156"/>
      </g>
     </g>
    </g>
    <g id="text_22">
     <!-- Velocity -->
     <g transform="translate(224.94 112.215129)rotate(-90)scale(0.1 -0.1)">
      <defs>
       <path id="DejaVuSans-56" d="M 1831 0 
L 50 4666 
L 709 4666 
L 2188 738 
L 3669 4666 
L 4325 4666 
L 2547 0 
L 1831 0 
z
" transform="scale(0.015625)"/>
       <path id="DejaVuSans-6c" d="M 603 4863 
L 1178 4863 
L 1178 0 
L 603 0 
L 603 4863 
z
" transform="scale(0.015625)"/>
       <path id="DejaVuSans-63" d="M 3122 3366 
L 3122 2828 
Q 2878 2963 2633 3030 
Q 2388 3097 2138 3097 
Q 1578 3097 1268 2742 
Q 959 2388 959 1747 
Q 959 1106 1268 751 
Q 1578 397 2138 397 
Q 2388 397 2633 464 
Q 2878 531 3122 666 
L 3122 134 
Q 2881 22 2623 -34 
Q 2366 -91 2075 -91 
Q 1284 -91 818 406 
Q 353 903 353 1747 
Q 353 2603 823 3093 
Q 1294 3584 2113 3584 
Q 2378 3584 2631 3529 
Q 2884 3475 3122 3366 
z
" transform="scale(0.015625)"/>
       <path id="DejaVuSans-79" d="M 2059 -325 
Q 1816 -950 1584 -1140 
Q 1353 -1331 966 -1331 
L 506 -1331 
L 506 -850 
L 844 -850 
Q 1081 -850 1212 -737 
Q 1344 -625 1503 -206 
L 1606 56 
L 191 3500 
L 800 3500 
L 1894 763 
L 2988 3500 
L 3597 3500 
L 2059 -325 
z
" transform="scale(0.015625)"/>
      </defs>
      <use xlink:href="#DejaVuSans-56"/>
      <use xlink:href="#DejaVuSans-65" x="60.658203"/>
      <use xlink:href="#DejaVuSans-6c" x="122.181641"/>
      <use xlink:href="#DejaVuSans-6f" x="149.964844"/>
      <use xlink:href="#DejaVuSans-63" x="211.146484"/>
      <use xlink:href="#DejaVuSans-69" x="266.126953"/>
      <use xlink:href="#DejaVuSans-74" x="293.910156"/>
      <use xlink:href="#DejaVuSans-79" x="333.119141"/>
     </g>
    </g>
   </g>
   <g id="line2d_26">
    <path d="M 269.555795 86.208384 
L 272.895651 110.158835 
L 274.783396 122.421174 
L 276.525929 132.294373 
L 277.832829 138.601304 
L 279.139729 143.842204 
L 280.301418 147.642152 
L 281.608318 151.180238 
L 282.770007 153.69704 
L 283.786485 155.381963 
L 284.657752 156.371904 
L 285.383808 156.873701 
L 286.109863 157.081722 
L 286.835919 157.008789 
L 287.561974 156.71428 
L 288.433241 156.078225 
L 289.304508 155.133831 
L 290.320986 153.673075 
L 291.773097 151.22153 
L 293.370419 148.082589 
L 295.112953 144.170426 
L 297.000697 139.39538 
L 300.050131 131.027088 
L 306.003787 114.456778 
L 308.762798 107.488523 
L 311.086176 102.217398 
L 313.119132 98.115902 
L 315.442509 93.946386 
L 317.765887 90.220735 
L 319.653632 87.605119 
L 321.541376 85.366143 
L 323.429121 83.47302 
L 325.752499 81.513988 
L 327.930666 79.956361 
L 329.81841 78.865843 
L 331.851366 77.953815 
L 333.884322 77.278139 
L 336.643333 76.615376 
L 339.257133 76.201943 
L 342.016144 75.998041 
L 345.210789 75.983644 
L 349.567123 76.194499 
L 359.005846 76.927759 
L 366.411613 77.381826 
L 375.995547 77.680684 
L 386.015114 78.040881 
L 390.516659 78.431131 
L 394.872992 79.052166 
L 398.067637 79.709628 
L 401.262281 80.593015 
L 405.182982 81.934068 
L 408.522837 83.302146 
L 412.73396 85.280805 
L 414.621705 86.208384 
L 414.621705 86.208384 
" clip-path="url(#pe52ca97c90)" style="fill: none; stroke: #1f77b4; stroke-width: 1.5; stroke-linecap: square"/>
   </g>
   <g id="line2d_27">
    <path d="M 269.555795 86.208384 
L 272.75044 66.68804 
L 274.783396 55.323611 
L 276.67114 46.02095 
L 278.123252 39.852836 
L 279.575363 34.629934 
L 281.172685 29.823859 
L 282.624796 26.145879 
L 283.931696 23.429811 
L 284.948174 21.776557 
L 285.964652 20.530189 
L 286.98113 19.666932 
L 287.997608 19.068484 
L 289.014086 18.718696 
L 290.030563 18.611301 
L 295.258164 18.562689 
L 393.566092 18.662819 
L 395.163414 18.896348 
L 396.179892 19.338935 
L 397.19637 20.04733 
L 398.212848 21.035557 
L 399.084115 22.185827 
L 400.100593 23.902205 
L 401.262281 26.356617 
L 402.714393 30.046691 
L 404.166504 34.357943 
L 405.618615 39.366393 
L 407.070726 45.245804 
L 408.668049 52.692746 
L 410.555793 62.546949 
L 413.169593 77.583626 
L 414.621705 86.208384 
L 414.621705 86.208384 
" clip-path="url(#pe52ca97c90)" style="fill: none; stroke: #ff7f0e; stroke-width: 1.5; stroke-linecap: square"/>
   </g>
   <g id="line2d_28">
    <path d="M 269.555795 86.208384 
L 274.783396 124.249243 
L 276.67114 136.113234 
L 278.123252 143.934784 
L 279.430152 149.854997 
L 280.737052 154.806457 
L 282.043952 158.970744 
L 283.205641 162.013988 
L 284.222119 164.078442 
L 285.093385 165.358158 
L 285.819441 166.079203 
L 286.545497 166.487404 
L 287.271552 166.634765 
L 287.997608 166.549473 
L 288.723663 166.231529 
L 289.449719 165.680933 
L 290.466197 164.572523 
L 291.773097 162.820699 
L 293.225208 160.467617 
L 294.82253 157.406624 
L 296.419853 153.868557 
L 298.888442 147.72933 
L 302.663931 137.593158 
L 306.875053 126.481443 
L 309.488854 120.170809 
L 311.812231 115.101953 
L 313.990398 110.876953 
L 316.458987 106.571825 
L 318.491943 103.417471 
L 320.379688 100.879839 
L 322.267432 98.697819 
L 324.155177 96.848947 
L 326.478555 94.88517 
L 328.51151 93.431889 
L 330.399255 92.340447 
L 332.432211 91.41482 
L 334.610377 90.672635 
L 337.369389 89.956145 
L 340.1284 89.469854 
L 343.323045 89.157109 
L 347.824589 88.980758 
L 359.151057 88.626027 
L 364.088235 88.210953 
L 368.444568 87.615006 
L 373.962591 86.633287 
L 381.65878 84.980135 
L 388.193281 83.662611 
L 391.96877 83.131333 
L 395.744259 82.815245 
L 398.648481 82.798815 
L 401.407493 83.003762 
L 404.892559 83.506396 
L 407.796782 84.134935 
L 411.42706 85.175174 
L 414.621705 86.208384 
L 414.621705 86.208384 
" clip-path="url(#pe52ca97c90)" style="fill: none; stroke: #2ca02c; stroke-width: 1.5; stroke-linecap: square"/>
   </g>
   <g id="line2d_29">
    <path d="M 269.555795 86.208384 
L 273.040862 80.658116 
L 275.219029 77.54146 
L 277.251985 75.025181 
L 278.994518 73.2434 
L 280.737052 71.801904 
L 282.624796 70.534515 
L 284.222119 69.712446 
L 285.67423 69.207118 
L 287.126341 68.92792 
L 288.723663 68.833656 
L 290.466197 68.965429 
L 292.789575 69.360926 
L 295.258164 70.007011 
L 298.017175 70.968542 
L 304.116042 73.383897 
L 307.74632 74.656969 
L 310.650542 75.436479 
L 313.264343 75.904625 
L 316.313776 76.195845 
L 319.072787 76.242256 
L 321.686588 76.061799 
L 324.59081 75.635873 
L 328.221088 74.876857 
L 331.415733 73.979485 
L 334.9008 72.764512 
L 339.111922 71.058367 
L 343.032622 69.212426 
L 347.534167 66.832857 
L 362.636124 58.614143 
L 365.685557 57.304856 
L 368.589779 56.308922 
L 371.494002 55.536118 
L 373.81738 55.148648 
L 375.995547 55.008737 
L 378.173713 55.099829 
L 380.206669 55.403539 
L 382.530047 55.991655 
L 384.998636 56.837275 
L 387.176803 57.831548 
L 389.35497 59.078671 
L 391.678348 60.678909 
L 394.58257 62.963847 
L 397.051159 65.16818 
L 399.81017 67.944819 
L 403.004815 71.503235 
L 406.925515 76.197319 
L 411.281849 81.789815 
L 414.621705 86.208384 
L 414.621705 86.208384 
" clip-path="url(#pe52ca97c90)" style="fill: none; stroke: #d62728; stroke-width: 1.5; stroke-linecap: square"/>
   </g>
   <g id="line2d_30">
    <path d="M 269.555795 86.208384 
L 273.040862 102.323225 
L 275.219029 111.503842 
L 277.106774 118.57347 
L 278.704096 123.740396 
L 280.301418 128.138074 
L 281.898741 131.921435 
L 283.350852 134.85736 
L 284.512541 136.772459 
L 285.67423 138.258543 
L 286.690708 139.208535 
L 287.707185 139.863762 
L 288.723663 140.236813 
L 289.59493 140.331983 
L 290.756619 140.191567 
L 291.918308 139.842039 
L 293.225208 139.201757 
L 294.386897 138.386692 
L 295.693797 137.164974 
L 297.000697 135.624602 
L 298.598019 133.376723 
L 300.340553 130.494539 
L 302.809142 125.925637 
L 305.277731 120.884705 
L 308.036742 114.697451 
L 311.66702 105.975038 
L 324.300388 75.175825 
L 328.221088 66.48584 
L 331.270522 60.270398 
L 334.029533 55.146231 
L 337.078966 49.948894 
L 339.547555 46.140606 
L 341.870933 42.962966 
L 344.0491 40.348684 
L 346.082056 38.229326 
L 348.260223 36.287667 
L 350.728812 34.38994 
L 352.616556 33.193373 
L 354.504301 32.256038 
L 356.392045 31.57103 
L 358.27979 31.122938 
L 360.603168 30.800399 
L 362.490912 30.744225 
L 364.378657 30.907918 
L 366.411613 31.318525 
L 368.589779 32.005705 
L 371.20358 33.063692 
L 373.381746 34.172235 
L 375.705124 35.604963 
L 378.173713 37.396073 
L 380.787514 39.581134 
L 384.127369 42.717067 
L 387.031592 45.737109 
L 389.935814 49.082262 
L 393.27567 53.281803 
L 396.905948 58.17581 
L 400.536226 63.466506 
L 405.328193 70.89925 
L 410.555793 79.415363 
L 414.621705 86.208384 
L 414.621705 86.208384 
" clip-path="url(#pe52ca97c90)" style="fill: none; stroke: #9467bd; stroke-width: 1.5; stroke-linecap: square"/>
   </g>
   <g id="line2d_31">
    <path d="M 269.555795 86.208384 
L 274.05734 73.460197 
L 276.816351 66.271265 
L 279.139729 60.802906 
L 281.608318 55.595161 
L 283.931696 51.176315 
L 285.819441 48.041162 
L 287.707185 45.334994 
L 289.449719 43.192585 
L 291.482675 41.057651 
L 293.660841 39.079676 
L 295.548586 37.671955 
L 297.291119 36.641742 
L 299.178864 35.782263 
L 301.21182 35.118535 
L 303.680409 34.541894 
L 305.858576 34.251993 
L 308.181953 34.166247 
L 310.940965 34.289607 
L 314.426032 34.674703 
L 329.673199 36.579408 
L 333.593899 36.740969 
L 337.950233 36.682924 
L 341.725722 36.40948 
L 345.791634 35.880445 
L 351.454867 34.888513 
L 359.151057 33.574679 
L 362.926546 33.156405 
L 365.830768 33.072496 
L 368.444568 33.223267 
L 371.348791 33.616773 
L 373.526958 34.130874 
L 375.705124 34.873795 
L 377.883291 35.86337 
L 380.061458 37.11146 
L 382.384836 38.715071 
L 384.998636 40.781278 
L 387.176803 42.781334 
L 389.500181 45.221668 
L 391.96877 48.14901 
L 395.018203 52.114436 
L 397.632003 55.864644 
L 400.536226 60.430736 
L 404.166504 66.601931 
L 408.087204 73.688672 
L 413.314804 83.673566 
L 414.621705 86.208384 
L 414.621705 86.208384 
" clip-path="url(#pe52ca97c90)" style="fill: none; stroke: #8c564b; stroke-width: 1.5; stroke-linecap: square"/>
   </g>
   <g id="line2d_32">
    <path d="M 269.555795 86.208384 
L 275.509451 102.242697 
L 278.994518 111.009407 
L 282.334374 118.780686 
L 285.093385 124.695476 
L 287.416763 129.157742 
L 289.59493 132.871531 
L 292.063519 136.597265 
L 294.241686 139.519367 
L 296.12943 141.676551 
L 297.871964 143.345251 
L 299.614497 144.708674 
L 301.502242 145.889285 
L 303.535198 146.909786 
L 305.277731 147.535822 
L 306.875053 147.882953 
L 308.617587 148.038885 
L 310.36012 147.977919 
L 312.393076 147.675624 
L 314.571243 147.118619 
L 317.620676 146.11333 
L 320.815321 144.813596 
L 325.026443 142.833546 
L 335.191222 137.723115 
L 342.306567 134.304267 
L 348.841067 131.432016 
L 362.636124 125.438784 
L 366.847246 123.316888 
L 371.348791 120.782591 
L 375.269491 118.326694 
L 379.335402 115.511934 
L 384.417792 111.699142 
L 390.081025 107.188409 
L 398.358059 100.278983 
L 409.974949 90.266133 
L 414.621705 86.208384 
L 414.621705 86.208384 
" clip-path="url(#pe52ca97c90)" style="fill: none; stroke: #e377c2; stroke-width: 1.5; stroke-linecap: square"/>
   </g>
   <g id="patch_8">
    <path d="M 262.3025 174.04 
L 262.3025 11.159007 
" style="fill: none; stroke: #000000; stroke-width: 0.8; stroke-linejoin: miter; stroke-linecap: square"/>
   </g>
   <g id="patch_9">
    <path d="M 421.875 174.04 
L 421.875 11.159007 
" style="fill: none; stroke: #000000; stroke-width: 0.8; stroke-linejoin: miter; stroke-linecap: square"/>
   </g>
   <g id="patch_10">
    <path d="M 262.3025 174.04 
L 421.875 174.04 
" style="fill: none; stroke: #000000; stroke-width: 0.8; stroke-linejoin: miter; stroke-linecap: square"/>
   </g>
   <g id="patch_11">
    <path d="M 262.3025 11.159007 
L 421.875 11.159007 
" style="fill: none; stroke: #000000; stroke-width: 0.8; stroke-linejoin: miter; stroke-linecap: square"/>
   </g>
  </g>
  <g id="axes_3">
   <g id="patch_12">
    <path d="M 477.965 174.04 
L 637.5375 174.04 
L 637.5375 11.159007 
L 477.965 11.159007 
z
" style="fill: #ffffff"/>
   </g>
   <g id="matplotlib.axis_5">
    <g id="xtick_9">
     <g id="line2d_33">
      <g>
       <use xlink:href="#m85aedbc8dd" x="485.218295" y="174.04" style="stroke: #000000; stroke-width: 0.8"/>
      </g>
     </g>
     <g id="text_23">
      <!-- 0.0 -->
      <g transform="translate(477.266733 188.638438)scale(0.1 -0.1)">
       <use xlink:href="#DejaVuSans-30"/>
       <use xlink:href="#DejaVuSans-2e" x="63.623047"/>
       <use xlink:href="#DejaVuSans-30" x="95.410156"/>
      </g>
     </g>
    </g>
    <g id="xtick_10">
     <g id="line2d_34">
      <g>
       <use xlink:href="#m85aedbc8dd" x="530.762888" y="174.04" style="stroke: #000000; stroke-width: 0.8"/>
      </g>
     </g>
     <g id="text_24">
      <!-- 0.5 -->
      <g transform="translate(522.811326 188.638438)scale(0.1 -0.1)">
       <use xlink:href="#DejaVuSans-30"/>
       <use xlink:href="#DejaVuSans-2e" x="63.623047"/>
       <use xlink:href="#DejaVuSans-35" x="95.410156"/>
      </g>
     </g>
    </g>
    <g id="xtick_11">
     <g id="line2d_35">
      <g>
       <use xlink:href="#m85aedbc8dd" x="576.307481" y="174.04" style="stroke: #000000; stroke-width: 0.8"/>
      </g>
     </g>
     <g id="text_25">
      <!-- 1.0 -->
      <g transform="translate(568.355918 188.638438)scale(0.1 -0.1)">
       <use xlink:href="#DejaVuSans-31"/>
       <use xlink:href="#DejaVuSans-2e" x="63.623047"/>
       <use xlink:href="#DejaVuSans-30" x="95.410156"/>
      </g>
     </g>
    </g>
    <g id="xtick_12">
     <g id="line2d_36">
      <g>
       <use xlink:href="#m85aedbc8dd" x="621.852073" y="174.04" style="stroke: #000000; stroke-width: 0.8"/>
      </g>
     </g>
     <g id="text_26">
      <!-- 1.5 -->
      <g transform="translate(613.900511 188.638438)scale(0.1 -0.1)">
       <use xlink:href="#DejaVuSans-31"/>
       <use xlink:href="#DejaVuSans-2e" x="63.623047"/>
       <use xlink:href="#DejaVuSans-35" x="95.410156"/>
      </g>
     </g>
    </g>
    <g id="text_27">
     <!-- Time -->
     <g transform="translate(545.517656 202.316563)scale(0.1 -0.1)">
      <use xlink:href="#DejaVuSans-54"/>
      <use xlink:href="#DejaVuSans-69" x="57.958984"/>
      <use xlink:href="#DejaVuSans-6d" x="85.742188"/>
      <use xlink:href="#DejaVuSans-65" x="183.154297"/>
     </g>
    </g>
   </g>
   <g id="matplotlib.axis_6">
    <g id="ytick_11">
     <g id="line2d_37">
      <g>
       <use xlink:href="#mdb8a8d2203" x="477.965" y="166.636347" style="stroke: #000000; stroke-width: 0.8"/>
      </g>
     </g>
     <g id="text_28">
      <!-- −10 -->
      <g transform="translate(449.860312 170.435566)scale(0.1 -0.1)">
       <use xlink:href="#DejaVuSans-2212"/>
       <use xlink:href="#DejaVuSans-31" x="83.789062"/>
       <use xlink:href="#DejaVuSans-30" x="147.412109"/>
      </g>
     </g>
    </g>
    <g id="ytick_12">
     <g id="line2d_38">
      <g>
       <use xlink:href="#mdb8a8d2203" x="477.965" y="126.648088" style="stroke: #000000; stroke-width: 0.8"/>
      </g>
     </g>
     <g id="text_29">
      <!-- −5 -->
      <g transform="translate(456.222812 130.447307)scale(0.1 -0.1)">
       <use xlink:href="#DejaVuSans-2212"/>
       <use xlink:href="#DejaVuSans-35" x="83.789062"/>
      </g>
     </g>
    </g>
    <g id="ytick_13">
     <g id="line2d_39">
      <g>
       <use xlink:href="#mdb8a8d2203" x="477.965" y="86.659829" style="stroke: #000000; stroke-width: 0.8"/>
      </g>
     </g>
     <g id="text_30">
      <!-- 0 -->
      <g transform="translate(464.6025 90.459047)scale(0.1 -0.1)">
       <use xlink:href="#DejaVuSans-30"/>
      </g>
     </g>
    </g>
    <g id="ytick_14">
     <g id="line2d_40">
      <g>
       <use xlink:href="#mdb8a8d2203" x="477.965" y="46.671569" style="stroke: #000000; stroke-width: 0.8"/>
      </g>
     </g>
     <g id="text_31">
      <!-- 5 -->
      <g transform="translate(464.6025 50.470788)scale(0.1 -0.1)">
       <use xlink:href="#DejaVuSans-35"/>
      </g>
     </g>
    </g>
    <g id="text_32">
     <!-- Acceleration -->
     <g transform="translate(443.780625 123.669816)rotate(-90)scale(0.1 -0.1)">
      <defs>
       <path id="DejaVuSans-41" d="M 2188 4044 
L 1331 1722 
L 3047 1722 
L 2188 4044 
z
M 1831 4666 
L 2547 4666 
L 4325 0 
L 3669 0 
L 3244 1197 
L 1141 1197 
L 716 0 
L 50 0 
L 1831 4666 
z
" transform="scale(0.015625)"/>
       <path id="DejaVuSans-72" d="M 2631 2963 
Q 2534 3019 2420 3045 
Q 2306 3072 2169 3072 
Q 1681 3072 1420 2755 
Q 1159 2438 1159 1844 
L 1159 0 
L 581 0 
L 581 3500 
L 1159 3500 
L 1159 2956 
Q 1341 3275 1631 3429 
Q 1922 3584 2338 3584 
Q 2397 3584 2469 3576 
Q 2541 3569 2628 3553 
L 2631 2963 
z
" transform="scale(0.015625)"/>
       <path id="DejaVuSans-61" d="M 2194 1759 
Q 1497 1759 1228 1600 
Q 959 1441 959 1056 
Q 959 750 1161 570 
Q 1363 391 1709 391 
Q 2188 391 2477 730 
Q 2766 1069 2766 1631 
L 2766 1759 
L 2194 1759 
z
M 3341 1997 
L 3341 0 
L 2766 0 
L 2766 531 
Q 2569 213 2275 61 
Q 1981 -91 1556 -91 
Q 1019 -91 701 211 
Q 384 513 384 1019 
Q 384 1609 779 1909 
Q 1175 2209 1959 2209 
L 2766 2209 
L 2766 2266 
Q 2766 2663 2505 2880 
Q 2244 3097 1772 3097 
Q 1472 3097 1187 3025 
Q 903 2953 641 2809 
L 641 3341 
Q 956 3463 1253 3523 
Q 1550 3584 1831 3584 
Q 2591 3584 2966 3190 
Q 3341 2797 3341 1997 
z
" transform="scale(0.015625)"/>
      </defs>
      <use xlink:href="#DejaVuSans-41"/>
      <use xlink:href="#DejaVuSans-63" x="66.658203"/>
      <use xlink:href="#DejaVuSans-63" x="121.638672"/>
      <use xlink:href="#DejaVuSans-65" x="176.619141"/>
      <use xlink:href="#DejaVuSans-6c" x="238.142578"/>
      <use xlink:href="#DejaVuSans-65" x="265.925781"/>
      <use xlink:href="#DejaVuSans-72" x="327.449219"/>
      <use xlink:href="#DejaVuSans-61" x="368.5625"/>
      <use xlink:href="#DejaVuSans-74" x="429.841797"/>
      <use xlink:href="#DejaVuSans-69" x="469.050781"/>
      <use xlink:href="#DejaVuSans-6f" x="496.833984"/>
      <use xlink:href="#DejaVuSans-6e" x="558.015625"/>
     </g>
    </g>
   </g>
   <g id="line2d_41">
    <path d="M 485.218295 166.636319 
L 488.558151 161.13946 
L 489.284207 157.685223 
L 492.188429 143.023518 
L 495.673496 120.268102 
L 499.013352 104.125046 
L 502.498419 83.879495 
L 505.547852 70.752345 
L 509.758975 62.731003 
L 512.372775 58.406813 
L 515.712631 56.112738 
L 519.052486 56.380504 
L 522.537553 58.878852 
L 526.458254 63.269475 
L 529.362476 66.845157 
L 532.847543 69.948058 
L 537.058665 74.726749 
L 539.527254 77.147842 
L 543.302744 79.511043 
L 546.933022 82.103275 
L 549.692033 83.685387 
L 555.355267 85.576056 
L 557.0978 86.090949 
L 560.437656 86.838064 
L 564.067934 87.286588 
L 569.585956 87.551618 
L 578.008201 87.346047 
L 585.55918 87.016606 
L 593.836213 86.944966 
L 600.951558 87.245403 
L 605.743525 87.848375 
L 612.423237 88.94195 
L 619.393371 90.422793 
L 622.007171 90.961255 
L 625.347026 91.598349 
L 627.815616 91.889618 
L 630.284205 91.989892 
L 630.284205 91.989892 
" clip-path="url(#pab75141c43)" style="fill: none; stroke: #1f77b4; stroke-width: 1.5; stroke-linecap: square"/>
   </g>
   <g id="line2d_42">
    <path d="M 485.218295 18.562689 
L 488.558151 23.356877 
L 489.284207 25.914546 
L 492.188429 36.709035 
L 495.673496 53.042055 
L 499.013352 64.525237 
L 502.353208 78.249471 
L 505.547852 86.311029 
L 509.758975 86.659829 
L 606.905214 86.737634 
L 609.954648 87.741328 
L 610.099859 87.929281 
L 613.584926 97.826546 
L 617.215204 112.644588 
L 620.409848 123.102751 
L 623.894915 138.307221 
L 626.944349 148.326216 
L 630.284205 151.262168 
L 630.284205 151.262168 
" clip-path="url(#pab75141c43)" style="fill: none; stroke: #ff7f0e; stroke-width: 1.5; stroke-linecap: square"/>
   </g>
   <g id="line2d_43">
    <path d="M 485.218295 166.636295 
L 488.558151 166.32779 
L 488.993785 164.616163 
L 492.043218 151.462566 
L 495.673496 127.779028 
L 499.013352 110.86085 
L 502.498419 89.190663 
L 505.547852 74.922452 
L 510.339819 64.706403 
L 512.372775 60.785978 
L 515.712631 57.675871 
L 519.052486 57.485816 
L 522.537553 59.411867 
L 526.313042 63.150129 
L 529.507687 66.752721 
L 532.847543 69.609047 
L 537.203876 74.43606 
L 539.527254 76.686894 
L 543.302744 79.063816 
L 546.933022 81.666919 
L 549.692033 83.253125 
L 558.114278 85.766847 
L 560.292445 86.146963 
L 564.067934 86.43602 
L 568.279056 86.42501 
L 571.618912 86.223783 
L 579.750735 85.459715 
L 584.978335 84.894611 
L 594.70748 84.297022 
L 599.93508 84.376764 
L 605.01747 85.023863 
L 611.697181 86.267973 
L 619.393371 88.328229 
L 621.571537 88.870658 
L 624.911393 89.676484 
L 627.670404 90.096461 
L 630.284205 90.21573 
L 630.284205 90.21573 
" clip-path="url(#pab75141c43)" style="fill: none; stroke: #2ca02c; stroke-width: 1.5; stroke-linecap: square"/>
   </g>
   <g id="line2d_44">
    <path d="M 485.218295 68.869063 
L 488.703362 70.211737 
L 492.33364 73.793056 
L 495.673496 77.932015 
L 499.158563 81.187089 
L 502.64363 85.16976 
L 505.693063 87.81806 
L 512.227564 90.4704 
L 516.148264 91.000046 
L 519.633331 90.816593 
L 523.263609 90.03744 
L 527.32952 88.696494 
L 530.088532 87.782989 
L 533.573598 86.767792 
L 538.365565 85.189611 
L 539.962888 84.797284 
L 544.319221 83.911256 
L 549.546822 82.746608 
L 554.919633 81.905061 
L 559.856811 81.097034 
L 564.213145 80.666605 
L 568.859901 80.549754 
L 570.892856 80.642573 
L 576.265668 81.132627 
L 579.16989 81.838905 
L 581.057635 82.412999 
L 584.978335 83.580435 
L 586.86608 84.177117 
L 592.238891 86.84066 
L 598.337758 89.907344 
L 600.515925 90.862114 
L 606.905214 94.458312 
L 610.825914 95.958605 
L 615.327459 98.024512 
L 617.360415 98.774424 
L 626.218293 100.731935 
L 627.670404 100.872859 
L 630.284205 100.96872 
L 630.284205 100.96872 
" clip-path="url(#pab75141c43)" style="fill: none; stroke: #d62728; stroke-width: 1.5; stroke-linecap: square"/>
   </g>
   <g id="line2d_45">
    <path d="M 485.218295 138.074816 
L 488.558151 134.978941 
L 489.429418 132.926807 
L 492.188429 126.068491 
L 495.673496 114.81281 
L 498.868141 106.899308 
L 502.788841 93.815343 
L 505.693063 85.574744 
L 509.323341 79.399293 
L 512.808408 72.560118 
L 515.712631 67.973046 
L 521.521076 63.090632 
L 522.682764 62.197472 
L 526.02262 60.498553 
L 529.507687 59.763585 
L 532.847543 59.875664 
L 536.477821 60.771329 
L 542.286266 62.853347 
L 542.86711 63.132906 
L 547.659077 66.211986 
L 549.982455 67.689219 
L 553.031889 69.307093 
L 562.180189 76.608107 
L 563.196667 77.325986 
L 566.681734 79.320661 
L 573.071023 84.195097 
L 576.846512 86.097739 
L 582.509746 89.732987 
L 583.526224 90.247392 
L 587.156502 91.722527 
L 593.255369 94.79322 
L 597.176069 96.494385 
L 600.806347 97.674576 
L 606.905214 100.136638 
L 611.261548 101.336294 
L 615.908304 102.811075 
L 617.650837 103.213075 
L 626.944349 104.622311 
L 630.284205 104.712333 
L 630.284205 104.712333 
" clip-path="url(#pab75141c43)" style="fill: none; stroke: #9467bd; stroke-width: 1.5; stroke-linecap: square"/>
   </g>
   <g id="line2d_46">
    <path d="M 485.218295 55.365424 
L 488.703362 56.540952 
L 492.33364 59.758857 
L 495.818707 63.762571 
L 499.013352 66.755348 
L 503.514897 72.544717 
L 505.693063 75.053773 
L 509.323341 77.751616 
L 513.244042 81.244614 
L 515.857842 83.192454 
L 520.649809 85.333759 
L 523.118398 86.43361 
L 526.458254 87.483044 
L 529.798109 88.063068 
L 534.444865 88.216443 
L 537.63951 88.113353 
L 543.447955 87.673136 
L 555.210055 85.927314 
L 560.437656 85.115511 
L 564.213145 84.761493 
L 568.424267 84.667534 
L 570.892856 84.777209 
L 576.265668 85.313453 
L 579.024679 86.032726 
L 580.912424 86.635073 
L 584.978335 87.938465 
L 586.86608 88.578739 
L 591.948469 91.265881 
L 598.192547 94.665206 
L 600.370714 95.67235 
L 607.050425 99.797052 
L 610.680703 101.374198 
L 615.617881 104.03359 
L 617.215204 104.749347 
L 622.733226 106.435681 
L 624.47576 106.897406 
L 627.525193 107.441345 
L 630.284205 107.580674 
L 630.284205 107.580674 
" clip-path="url(#pab75141c43)" style="fill: none; stroke: #8c564b; stroke-width: 1.5; stroke-linecap: square"/>
   </g>
   <g id="line2d_47">
    <path d="M 485.218295 116.235052 
L 488.993785 115.594258 
L 492.478851 114.042791 
L 496.835185 111.436588 
L 499.013352 110.131352 
L 503.660108 105.554015 
L 505.838275 103.390796 
L 509.17813 100.810635 
L 515.712631 93.726099 
L 519.48812 91.06131 
L 523.263609 87.735677 
L 526.458254 85.403415 
L 529.362476 83.769854 
L 536.477821 81.913632 
L 540.25331 81.405784 
L 545.916544 81.179637 
L 552.596255 81.357135 
L 557.533433 81.694901 
L 563.922723 82.054972 
L 569.731167 82.113804 
L 576.991723 81.713169 
L 587.011291 80.27901 
L 595.433536 78.815974 
L 598.192547 78.51013 
L 609.228592 77.691543 
L 619.829004 77.372989 
L 630.284205 77.248262 
L 630.284205 77.248262 
" clip-path="url(#pab75141c43)" style="fill: none; stroke: #e377c2; stroke-width: 1.5; stroke-linecap: square"/>
   </g>
   <g id="patch_13">
    <path d="M 477.965 174.04 
L 477.965 11.159007 
" style="fill: none; stroke: #000000; stroke-width: 0.8; stroke-linejoin: miter; stroke-linecap: square"/>
   </g>
   <g id="patch_14">
    <path d="M 637.5375 174.04 
L 637.5375 11.159007 
" style="fill: none; stroke: #000000; stroke-width: 0.8; stroke-linejoin: miter; stroke-linecap: square"/>
   </g>
   <g id="patch_15">
    <path d="M 477.965 174.04 
L 637.5375 174.04 
" style="fill: none; stroke: #000000; stroke-width: 0.8; stroke-linejoin: miter; stroke-linecap: square"/>
   </g>
   <g id="patch_16">
    <path d="M 477.965 11.159007 
L 637.5375 11.159007 
" style="fill: none; stroke: #000000; stroke-width: 0.8; stroke-linejoin: miter; stroke-linecap: square"/>
   </g>
  </g>
  <g id="axes_4">
   <g id="patch_17">
    <path d="M 693.6275 174.04 
L 853.2 174.04 
L 853.2 11.159007 
L 693.6275 11.159007 
z
" style="fill: #ffffff"/>
   </g>
   <g id="matplotlib.axis_7">
    <g id="xtick_13">
     <g id="line2d_48">
      <g>
       <use xlink:href="#m85aedbc8dd" x="700.880795" y="174.04" style="stroke: #000000; stroke-width: 0.8"/>
      </g>
     </g>
     <g id="text_33">
      <!-- 0.0 -->
      <g transform="translate(692.929233 188.638438)scale(0.1 -0.1)">
       <use xlink:href="#DejaVuSans-30"/>
       <use xlink:href="#DejaVuSans-2e" x="63.623047"/>
       <use xlink:href="#DejaVuSans-30" x="95.410156"/>
      </g>
     </g>
    </g>
    <g id="xtick_14">
     <g id="line2d_49">
      <g>
       <use xlink:href="#m85aedbc8dd" x="746.425388" y="174.04" style="stroke: #000000; stroke-width: 0.8"/>
      </g>
     </g>
     <g id="text_34">
      <!-- 0.5 -->
      <g transform="translate(738.473826 188.638438)scale(0.1 -0.1)">
       <use xlink:href="#DejaVuSans-30"/>
       <use xlink:href="#DejaVuSans-2e" x="63.623047"/>
       <use xlink:href="#DejaVuSans-35" x="95.410156"/>
      </g>
     </g>
    </g>
    <g id="xtick_15">
     <g id="line2d_50">
      <g>
       <use xlink:href="#m85aedbc8dd" x="791.969981" y="174.04" style="stroke: #000000; stroke-width: 0.8"/>
      </g>
     </g>
     <g id="text_35">
      <!-- 1.0 -->
      <g transform="translate(784.018418 188.638438)scale(0.1 -0.1)">
       <use xlink:href="#DejaVuSans-31"/>
       <use xlink:href="#DejaVuSans-2e" x="63.623047"/>
       <use xlink:href="#DejaVuSans-30" x="95.410156"/>
      </g>
     </g>
    </g>
    <g id="xtick_16">
     <g id="line2d_51">
      <g>
       <use xlink:href="#m85aedbc8dd" x="837.514573" y="174.04" style="stroke: #000000; stroke-width: 0.8"/>
      </g>
     </g>
     <g id="text_36">
      <!-- 1.5 -->
      <g transform="translate(829.563011 188.638438)scale(0.1 -0.1)">
       <use xlink:href="#DejaVuSans-31"/>
       <use xlink:href="#DejaVuSans-2e" x="63.623047"/>
       <use xlink:href="#DejaVuSans-35" x="95.410156"/>
      </g>
     </g>
    </g>
    <g id="text_37">
     <!-- Time -->
     <g transform="translate(761.180156 202.316563)scale(0.1 -0.1)">
      <use xlink:href="#DejaVuSans-54"/>
      <use xlink:href="#DejaVuSans-69" x="57.958984"/>
      <use xlink:href="#DejaVuSans-6d" x="85.742188"/>
      <use xlink:href="#DejaVuSans-65" x="183.154297"/>
     </g>
    </g>
   </g>
   <g id="matplotlib.axis_8">
    <g id="ytick_15">
     <g id="line2d_52">
      <g>
       <use xlink:href="#mdb8a8d2203" x="693.6275" y="172.284812" style="stroke: #000000; stroke-width: 0.8"/>
      </g>
     </g>
     <g id="text_38">
      <!-- −60 -->
      <g transform="translate(665.522812 176.08403)scale(0.1 -0.1)">
       <defs>
        <path id="DejaVuSans-36" d="M 2113 2584 
Q 1688 2584 1439 2293 
Q 1191 2003 1191 1497 
Q 1191 994 1439 701 
Q 1688 409 2113 409 
Q 2538 409 2786 701 
Q 3034 994 3034 1497 
Q 3034 2003 2786 2293 
Q 2538 2584 2113 2584 
z
M 3366 4563 
L 3366 3988 
Q 3128 4100 2886 4159 
Q 2644 4219 2406 4219 
Q 1781 4219 1451 3797 
Q 1122 3375 1075 2522 
Q 1259 2794 1537 2939 
Q 1816 3084 2150 3084 
Q 2853 3084 3261 2657 
Q 3669 2231 3669 1497 
Q 3669 778 3244 343 
Q 2819 -91 2113 -91 
Q 1303 -91 875 529 
Q 447 1150 447 2328 
Q 447 3434 972 4092 
Q 1497 4750 2381 4750 
Q 2619 4750 2861 4703 
Q 3103 4656 3366 4563 
z
" transform="scale(0.015625)"/>
       </defs>
       <use xlink:href="#DejaVuSans-2212"/>
       <use xlink:href="#DejaVuSans-36" x="83.789062"/>
       <use xlink:href="#DejaVuSans-30" x="147.412109"/>
      </g>
     </g>
    </g>
    <g id="ytick_16">
     <g id="line2d_53">
      <g>
       <use xlink:href="#mdb8a8d2203" x="693.6275" y="149.77063" style="stroke: #000000; stroke-width: 0.8"/>
      </g>
     </g>
     <g id="text_39">
      <!-- −40 -->
      <g transform="translate(665.522812 153.569849)scale(0.1 -0.1)">
       <defs>
        <path id="DejaVuSans-34" d="M 2419 4116 
L 825 1625 
L 2419 1625 
L 2419 4116 
z
M 2253 4666 
L 3047 4666 
L 3047 1625 
L 3713 1625 
L 3713 1100 
L 3047 1100 
L 3047 0 
L 2419 0 
L 2419 1100 
L 313 1100 
L 313 1709 
L 2253 4666 
z
" transform="scale(0.015625)"/>
       </defs>
       <use xlink:href="#DejaVuSans-2212"/>
       <use xlink:href="#DejaVuSans-34" x="83.789062"/>
       <use xlink:href="#DejaVuSans-30" x="147.412109"/>
      </g>
     </g>
    </g>
    <g id="ytick_17">
     <g id="line2d_54">
      <g>
       <use xlink:href="#mdb8a8d2203" x="693.6275" y="127.256449" style="stroke: #000000; stroke-width: 0.8"/>
      </g>
     </g>
     <g id="text_40">
      <!-- −20 -->
      <g transform="translate(665.522812 131.055668)scale(0.1 -0.1)">
       <use xlink:href="#DejaVuSans-2212"/>
       <use xlink:href="#DejaVuSans-32" x="83.789062"/>
       <use xlink:href="#DejaVuSans-30" x="147.412109"/>
      </g>
     </g>
    </g>
    <g id="ytick_18">
     <g id="line2d_55">
      <g>
       <use xlink:href="#mdb8a8d2203" x="693.6275" y="104.742268" style="stroke: #000000; stroke-width: 0.8"/>
      </g>
     </g>
     <g id="text_41">
      <!-- 0 -->
      <g transform="translate(680.265 108.541486)scale(0.1 -0.1)">
       <use xlink:href="#DejaVuSans-30"/>
      </g>
     </g>
    </g>
    <g id="ytick_19">
     <g id="line2d_56">
      <g>
       <use xlink:href="#mdb8a8d2203" x="693.6275" y="82.228086" style="stroke: #000000; stroke-width: 0.8"/>
      </g>
     </g>
     <g id="text_42">
      <!-- 20 -->
      <g transform="translate(673.9025 86.027305)scale(0.1 -0.1)">
       <use xlink:href="#DejaVuSans-32"/>
       <use xlink:href="#DejaVuSans-30" x="63.623047"/>
      </g>
     </g>
    </g>
    <g id="ytick_20">
     <g id="line2d_57">
      <g>
       <use xlink:href="#mdb8a8d2203" x="693.6275" y="59.713905" style="stroke: #000000; stroke-width: 0.8"/>
      </g>
     </g>
     <g id="text_43">
      <!-- 40 -->
      <g transform="translate(673.9025 63.513124)scale(0.1 -0.1)">
       <use xlink:href="#DejaVuSans-34"/>
       <use xlink:href="#DejaVuSans-30" x="63.623047"/>
      </g>
     </g>
    </g>
    <g id="ytick_21">
     <g id="line2d_58">
      <g>
       <use xlink:href="#mdb8a8d2203" x="693.6275" y="37.199723" style="stroke: #000000; stroke-width: 0.8"/>
      </g>
     </g>
     <g id="text_44">
      <!-- 60 -->
      <g transform="translate(673.9025 40.998942)scale(0.1 -0.1)">
       <use xlink:href="#DejaVuSans-36"/>
       <use xlink:href="#DejaVuSans-30" x="63.623047"/>
      </g>
     </g>
    </g>
    <g id="ytick_22">
     <g id="line2d_59">
      <g>
       <use xlink:href="#mdb8a8d2203" x="693.6275" y="14.685542" style="stroke: #000000; stroke-width: 0.8"/>
      </g>
     </g>
     <g id="text_45">
      <!-- 80 -->
      <g transform="translate(673.9025 18.484761)scale(0.1 -0.1)">
       <defs>
        <path id="DejaVuSans-38" d="M 2034 2216 
Q 1584 2216 1326 1975 
Q 1069 1734 1069 1313 
Q 1069 891 1326 650 
Q 1584 409 2034 409 
Q 2484 409 2743 651 
Q 3003 894 3003 1313 
Q 3003 1734 2745 1975 
Q 2488 2216 2034 2216 
z
M 1403 2484 
Q 997 2584 770 2862 
Q 544 3141 544 3541 
Q 544 4100 942 4425 
Q 1341 4750 2034 4750 
Q 2731 4750 3128 4425 
Q 3525 4100 3525 3541 
Q 3525 3141 3298 2862 
Q 3072 2584 2669 2484 
Q 3125 2378 3379 2068 
Q 3634 1759 3634 1313 
Q 3634 634 3220 271 
Q 2806 -91 2034 -91 
Q 1263 -91 848 271 
Q 434 634 434 1313 
Q 434 1759 690 2068 
Q 947 2378 1403 2484 
z
M 1172 3481 
Q 1172 3119 1398 2916 
Q 1625 2713 2034 2713 
Q 2441 2713 2670 2916 
Q 2900 3119 2900 3481 
Q 2900 3844 2670 4047 
Q 2441 4250 2034 4250 
Q 1625 4250 1398 4047 
Q 1172 3844 1172 3481 
z
" transform="scale(0.015625)"/>
       </defs>
       <use xlink:href="#DejaVuSans-38"/>
       <use xlink:href="#DejaVuSans-30" x="63.623047"/>
      </g>
     </g>
    </g>
    <g id="text_46">
     <!-- Jerk -->
     <g transform="translate(659.443125 102.101847)rotate(-90)scale(0.1 -0.1)">
      <defs>
       <path id="DejaVuSans-4a" d="M 628 4666 
L 1259 4666 
L 1259 325 
Q 1259 -519 939 -900 
Q 619 -1281 -91 -1281 
L -331 -1281 
L -331 -750 
L -134 -750 
Q 284 -750 456 -515 
Q 628 -281 628 325 
L 628 4666 
z
" transform="scale(0.015625)"/>
       <path id="DejaVuSans-6b" d="M 581 4863 
L 1159 4863 
L 1159 1991 
L 2875 3500 
L 3609 3500 
L 1753 1863 
L 3688 0 
L 2938 0 
L 1159 1709 
L 1159 0 
L 581 0 
L 581 4863 
z
" transform="scale(0.015625)"/>
      </defs>
      <use xlink:href="#DejaVuSans-4a"/>
      <use xlink:href="#DejaVuSans-65" x="29.492188"/>
      <use xlink:href="#DejaVuSans-72" x="91.015625"/>
      <use xlink:href="#DejaVuSans-6b" x="132.128906"/>
     </g>
    </g>
   </g>
   <g id="line2d_60">
    <path d="M 700.880795 83.640572 
L 704.220651 83.640572 
L 704.365862 41.798538 
L 707.560507 41.798538 
L 707.705718 18.562689 
L 710.900363 18.562689 
L 711.045574 44.252321 
L 714.240219 44.252321 
L 714.38543 27.794305 
L 717.725285 27.794305 
L 717.870497 48.657332 
L 721.065141 48.657332 
L 721.210352 79.644764 
L 724.404997 79.644764 
L 724.550208 82.719445 
L 727.744853 82.719445 
L 727.890064 95.541642 
L 731.22992 95.541642 
L 731.375131 105.532655 
L 734.569775 105.532655 
L 734.714986 113.63315 
L 737.909631 113.63315 
L 738.054842 118.632059 
L 741.249487 118.632059 
L 741.394698 121.058626 
L 744.734554 121.058626 
L 744.879765 115.688042 
L 748.07441 115.688042 
L 748.219621 119.794384 
L 751.414265 119.794384 
L 751.559476 118.081169 
L 754.754121 118.081169 
L 754.899332 112.379888 
L 758.093977 112.379888 
L 758.239188 114.376926 
L 761.579044 114.376926 
L 761.724255 112.617564 
L 764.918899 112.617564 
L 765.064111 108.766995 
L 768.258755 108.766995 
L 768.403966 109.310363 
L 771.598611 109.310363 
L 771.743822 107.99574 
L 775.083678 107.99574 
L 775.228889 106.708031 
L 778.423534 106.708031 
L 778.568745 105.605047 
L 781.763389 105.605047 
L 781.908601 105.209223 
L 785.103245 105.209223 
L 785.248456 104.588496 
L 791.928168 104.48879 
L 792.073379 103.998487 
L 798.607879 104.066817 
L 798.75309 104.462181 
L 805.432802 104.485855 
L 805.578013 104.729285 
L 808.772658 104.729285 
L 808.917869 105.094912 
L 815.452369 105.196906 
L 815.59758 106.064542 
L 818.937436 106.064542 
L 819.082647 106.634139 
L 822.277292 106.634139 
L 822.422503 106.321273 
L 825.617148 106.321273 
L 825.762359 107.658734 
L 828.957003 107.658734 
L 829.102215 107.896452 
L 832.44207 107.896452 
L 832.587281 106.83533 
L 835.781926 106.83533 
L 835.927137 107.612465 
L 839.121782 107.612465 
L 839.266993 106.829235 
L 842.461638 106.829235 
L 842.606849 105.263067 
L 845.946705 105.263067 
L 845.946705 105.263067 
" clip-path="url(#pf26edf9219)" style="fill: none; stroke: #1f77b4; stroke-width: 1.5; stroke-linecap: square"/>
   </g>
   <g id="line2d_61">
    <path d="M 700.880795 123.146506 
L 704.220651 123.146506 
L 704.365862 151.212984 
L 707.560507 151.212984 
L 707.705718 166.636319 
L 710.900363 166.636319 
L 711.045574 147.806872 
L 714.240219 147.806872 
L 714.38543 159.116752 
L 717.725285 159.116752 
L 717.870497 137.972075 
L 721.065141 137.972075 
L 721.210352 106.10328 
L 724.404997 106.10328 
L 724.550208 104.742268 
L 822.277292 104.742268 
L 822.422503 108.962269 
L 825.617148 108.962269 
L 825.762359 140.263902 
L 828.957003 140.263902 
L 829.102215 158.623797 
L 832.44207 158.623797 
L 832.587281 145.4181 
L 835.781926 145.4181 
L 835.927137 162.219614 
L 839.121782 162.219614 
L 839.266993 147.212348 
L 842.461638 147.212348 
L 842.606849 116.012988 
L 845.946705 116.012988 
L 845.946705 116.012988 
" clip-path="url(#pf26edf9219)" style="fill: none; stroke: #ff7f0e; stroke-width: 1.5; stroke-linecap: square"/>
   </g>
   <g id="line2d_62">
    <path d="M 700.880795 103.557956 
L 704.220651 103.557956 
L 704.365862 50.233178 
L 707.560507 50.233178 
L 707.705718 19.027724 
L 710.900363 19.027724 
L 711.045574 41.505912 
L 714.240219 41.505912 
L 714.38543 22.501149 
L 717.725285 22.501149 
L 717.870497 43.804441 
L 721.065141 43.804441 
L 721.210352 76.713665 
L 724.404997 76.713665 
L 724.550208 78.924341 
L 727.744853 78.924341 
L 727.890064 92.352085 
L 731.22992 92.352085 
L 731.375131 103.786524 
L 734.569775 103.786524 
L 734.714986 111.499017 
L 737.909631 111.499017 
L 738.054842 116.975645 
L 741.249487 116.975645 
L 741.394698 119.825963 
L 744.734554 119.825963 
L 744.879765 115.205338 
L 748.07441 115.205338 
L 748.219621 119.412569 
L 751.414265 119.412569 
L 751.559476 117.949802 
L 754.754121 117.949802 
L 754.899332 112.427524 
L 758.093977 112.427524 
L 758.239188 114.419191 
L 761.579044 114.419191 
L 761.724255 112.645621 
L 764.918899 112.645621 
L 765.064111 108.728574 
L 768.258755 108.728574 
L 768.403966 109.035824 
L 771.598611 109.035824 
L 771.743822 107.566959 
L 775.083678 107.566959 
L 775.228889 106.069868 
L 778.423534 106.069868 
L 778.568745 105.030056 
L 781.763389 105.030056 
L 781.908601 104.383808 
L 785.103245 104.383808 
L 785.248456 103.712545 
L 788.588312 103.712545 
L 788.878734 103.869301 
L 791.928168 103.869301 
L 792.073379 103.147083 
L 798.607879 103.092648 
L 798.75309 103.808637 
L 801.947735 103.808637 
L 802.092946 103.624531 
L 805.432802 103.624531 
L 805.578013 104.020375 
L 808.772658 104.020375 
L 808.917869 104.675069 
L 812.112514 104.675069 
L 812.257725 105.076558 
L 815.452369 105.076558 
L 815.59758 106.09615 
L 818.937436 106.09615 
L 819.082647 106.918129 
L 822.277292 106.918129 
L 822.422503 106.637049 
L 825.617148 106.637049 
L 825.762359 108.347474 
L 828.957003 108.347474 
L 829.102215 108.745103 
L 832.44207 108.745103 
L 832.587281 107.320945 
L 835.781926 107.320945 
L 835.927137 108.270972 
L 839.121782 108.270972 
L 839.266993 107.213327 
L 842.461638 107.213327 
L 842.606849 105.327305 
L 845.946705 105.327305 
L 845.946705 105.327305 
" clip-path="url(#pf26edf9219)" style="fill: none; stroke: #2ca02c; stroke-width: 1.5; stroke-linecap: square"/>
   </g>
   <g id="line2d_63">
    <path d="M 700.880795 109.441103 
L 704.220651 109.441103 
L 704.365862 116.969839 
L 707.560507 116.969839 
L 707.705718 121.119646 
L 710.900363 121.119646 
L 711.045574 116.23983 
L 714.240219 116.23983 
L 714.38543 119.973516 
L 717.725285 119.973516 
L 717.870497 116.349938 
L 721.065141 116.349938 
L 721.210352 110.160146 
L 724.404997 110.160146 
L 724.550208 109.766217 
L 727.744853 109.766217 
L 727.890064 106.812449 
L 731.22992 106.812449 
L 731.375131 104.475505 
L 734.569775 104.475505 
L 734.714986 102.379961 
L 737.909631 102.379961 
L 738.054842 100.868468 
L 741.249487 100.868468 
L 741.394698 99.982512 
L 744.734554 99.982512 
L 744.879765 101.384091 
L 748.07441 101.384091 
L 748.219621 100.216841 
L 751.414265 100.216841 
L 751.559476 100.787622 
L 754.754121 100.787622 
L 754.899332 102.466146 
L 758.093977 102.466146 
L 758.239188 101.640415 
L 761.579044 101.640415 
L 761.724255 101.928162 
L 764.918899 101.928162 
L 765.064111 103.000156 
L 768.258755 103.000156 
L 768.403966 102.358716 
L 771.598611 102.358716 
L 771.743822 102.675453 
L 775.083678 102.675453 
L 775.228889 103.169584 
L 778.423534 103.169584 
L 778.568745 104.120381 
L 781.763389 104.120381 
L 781.908601 104.640675 
L 785.103245 104.640675 
L 785.248456 105.68766 
L 788.588312 105.68766 
L 788.733523 106.048792 
L 791.928168 106.048792 
L 792.073379 107.885904 
L 795.268024 107.885904 
L 795.413235 108.921038 
L 798.607879 108.921038 
L 798.75309 108.18556 
L 801.947735 108.18556 
L 802.092946 110.805455 
L 805.432802 110.805455 
L 805.578013 111.450849 
L 808.772658 111.450849 
L 808.917869 111.912194 
L 812.112514 111.912194 
L 812.257725 109.689536 
L 815.452369 109.689536 
L 815.59758 112.155029 
L 818.937436 112.155029 
L 819.082647 111.982044 
L 822.277292 111.982044 
L 822.422503 109.316793 
L 825.617148 109.316793 
L 825.762359 110.976469 
L 828.957003 110.976469 
L 829.102215 110.151928 
L 832.44207 110.151928 
L 832.587281 107.72902 
L 835.781926 107.72902 
L 835.927137 108.036004 
L 839.121782 108.036004 
L 839.266993 106.836109 
L 842.461638 106.836109 
L 842.606849 105.212488 
L 845.946705 105.212488 
L 845.946705 105.212488 
" clip-path="url(#pf26edf9219)" style="fill: none; stroke: #d62728; stroke-width: 1.5; stroke-linecap: square"/>
   </g>
   <g id="line2d_64">
    <path d="M 700.880795 92.857624 
L 704.220651 92.857624 
L 704.365862 73.80532 
L 707.560507 73.80532 
L 707.705718 62.243956 
L 710.900363 62.243956 
L 711.045574 73.602783 
L 714.240219 73.602783 
L 714.38543 60.847584 
L 717.725285 60.847584 
L 717.870497 67.033454 
L 721.065141 67.033454 
L 721.210352 83.598952 
L 724.404997 83.598952 
L 724.550208 78.654931 
L 727.744853 78.654931 
L 727.890064 84.027214 
L 731.22992 84.027214 
L 731.375131 94.270821 
L 734.569775 94.270821 
L 734.714986 93.578893 
L 737.909631 93.578893 
L 738.054842 97.85697 
L 741.249487 97.85697 
L 741.394698 101.639891 
L 744.734554 101.639891 
L 744.879765 104.852777 
L 748.07441 104.852777 
L 748.219621 107.532661 
L 751.414265 107.532661 
L 751.559476 109.59886 
L 754.754121 109.59886 
L 754.899332 109.108511 
L 758.093977 109.108511 
L 758.239188 112.635652 
L 761.579044 112.635652 
L 761.724255 113.599109 
L 764.918899 113.599109 
L 765.064111 111.137227 
L 768.258755 111.137227 
L 768.403966 114.779141 
L 771.598611 114.779141 
L 771.743822 115.032299 
L 778.423534 115.119664 
L 778.568745 111.627805 
L 781.763389 111.627805 
L 781.908601 114.80593 
L 785.103245 114.80593 
L 785.248456 114.433443 
L 788.588312 114.433443 
L 788.733523 110.857851 
L 791.928168 110.857851 
L 792.073379 113.272958 
L 795.268024 113.272958 
L 795.413235 112.671228 
L 798.607879 112.671228 
L 798.75309 109.574013 
L 801.947735 109.574013 
L 802.092946 111.455616 
L 805.432802 111.455616 
L 805.578013 111.008565 
L 808.772658 111.008565 
L 808.917869 110.64754 
L 812.112514 110.64754 
L 812.257725 108.511415 
L 815.452369 108.511415 
L 815.59758 110.14853 
L 818.937436 110.14853 
L 819.082647 109.886569 
L 822.277292 109.886569 
L 822.422503 107.942054 
L 825.617148 107.942054 
L 825.762359 109.124687 
L 828.957003 109.124687 
L 829.102215 108.540678 
L 832.44207 108.540678 
L 832.587281 106.839759 
L 835.781926 106.839759 
L 835.927137 107.078461 
L 839.121782 107.078461 
L 839.266993 106.196232 
L 842.461638 106.196232 
L 842.606849 105.087853 
L 845.946705 105.087853 
L 845.946705 105.087853 
" clip-path="url(#pf26edf9219)" style="fill: none; stroke: #9467bd; stroke-width: 1.5; stroke-linecap: square"/>
   </g>
   <g id="line2d_65">
    <path d="M 700.880795 108.84884 
L 704.220651 108.84884 
L 704.365862 115.669265 
L 707.560507 115.669265 
L 707.705718 119.987543 
L 710.900363 119.987543 
L 711.045574 116.237715 
L 714.240219 116.237715 
L 714.38543 121.718555 
L 717.725285 121.718555 
L 717.870497 120.18366 
L 721.065141 120.18366 
L 721.210352 113.897841 
L 724.404997 113.897841 
L 724.550208 116.659822 
L 727.744853 116.659822 
L 727.890064 114.78805 
L 731.22992 114.78805 
L 731.375131 110.151523 
L 734.569775 110.151523 
L 734.714986 111.055958 
L 737.909631 111.055958 
L 738.054842 109.177433 
L 741.249487 109.177433 
L 741.394698 107.382524 
L 744.734554 107.382524 
L 744.879765 105.470969 
L 748.07441 105.470969 
L 748.219621 104.759665 
L 751.414265 104.759665 
L 751.559476 104.001574 
L 754.754121 104.001574 
L 755.044543 103.874774 
L 758.093977 103.874774 
L 758.239188 102.960501 
L 761.579044 102.960501 
L 761.724255 102.642049 
L 764.918899 102.642049 
L 765.064111 103.217937 
L 768.258755 103.217937 
L 768.403966 102.476045 
L 771.598611 102.476045 
L 771.743822 102.689716 
L 775.083678 102.689716 
L 775.228889 103.194064 
L 778.423534 103.194064 
L 778.568745 104.126146 
L 781.763389 104.126146 
L 781.908601 104.746924 
L 785.103245 104.746924 
L 785.248456 105.792472 
L 788.588312 105.792472 
L 788.733523 106.162331 
L 791.928168 106.162331 
L 792.073379 108.113418 
L 795.268024 108.113418 
L 795.413235 109.215937 
L 798.607879 109.215937 
L 798.75309 108.447881 
L 801.947735 108.447881 
L 802.092946 111.212873 
L 805.432802 111.212873 
L 805.578013 111.942186 
L 808.772658 111.942186 
L 808.917869 112.435541 
L 812.112514 112.435541 
L 812.257725 110.09515 
L 815.452369 110.09515 
L 815.59758 112.885745 
L 818.937436 112.885745 
L 819.227858 112.76868 
L 822.277292 112.76868 
L 822.422503 109.957833 
L 825.617148 109.957833 
L 825.762359 111.974339 
L 828.957003 111.974339 
L 829.102215 111.243442 
L 832.44207 111.243442 
L 832.587281 108.405471 
L 835.781926 108.405471 
L 835.927137 108.95307 
L 839.121782 108.95307 
L 839.266993 107.443097 
L 842.461638 107.443097 
L 842.606849 105.389739 
L 845.946705 105.389739 
L 845.946705 105.389739 
" clip-path="url(#pf26edf9219)" style="fill: none; stroke: #8c564b; stroke-width: 1.5; stroke-linecap: square"/>
   </g>
   <g id="line2d_66">
    <path d="M 700.880795 102.938808 
L 704.220651 102.938808 
L 704.365862 99.438035 
L 707.560507 99.438035 
L 707.705718 96.698626 
L 710.900363 96.698626 
L 711.045574 97.785512 
L 714.240219 97.785512 
L 714.38543 92.522588 
L 717.725285 92.522588 
L 717.870497 91.311842 
L 721.065141 91.311842 
L 721.210352 95.326741 
L 724.404997 95.326741 
L 724.550208 90.581863 
L 727.744853 90.581863 
L 727.890064 90.868445 
L 731.22992 90.868445 
L 731.375131 96.137661 
L 734.569775 96.137661 
L 734.714986 92.990288 
L 737.909631 92.990288 
L 738.054842 94.840436 
L 741.249487 94.840436 
L 741.394698 97.12785 
L 744.734554 97.12785 
L 744.879765 101.202672 
L 748.07441 101.202672 
L 748.364832 101.33467 
L 751.414265 101.33467 
L 751.559476 102.639067 
L 754.754121 102.639067 
L 754.899332 103.991348 
L 758.093977 103.991348 
L 758.239188 104.395683 
L 761.579044 104.395683 
L 761.724255 104.985467 
L 764.918899 104.985467 
L 765.064111 105.188933 
L 768.258755 105.188933 
L 768.403966 105.6036 
L 775.083678 105.683412 
L 775.228889 105.456625 
L 778.423534 105.456625 
L 778.568745 105.114936 
L 781.763389 105.114936 
L 781.908601 104.742178 
L 785.103245 104.742178 
L 785.248456 104.227872 
L 788.588312 104.227872 
L 788.733523 104.053444 
L 791.928168 104.053444 
L 792.073379 103.041358 
L 795.268024 103.041358 
L 795.413235 102.676284 
L 798.607879 102.676284 
L 798.75309 103.128069 
L 801.947735 103.128069 
L 802.092946 102.346002 
L 808.772658 102.453673 
L 808.917869 102.815518 
L 812.112514 102.815518 
L 812.257725 103.663513 
L 815.452369 103.663513 
L 815.59758 103.460405 
L 818.937436 103.460405 
L 819.082647 103.858434 
L 822.277292 103.858434 
L 822.422503 104.225088 
L 828.957003 104.266818 
L 829.247426 104.338385 
L 832.44207 104.338385 
L 832.587281 104.513001 
L 842.461638 104.55598 
L 842.75206 104.713772 
L 845.946705 104.713772 
L 845.946705 104.713772 
" clip-path="url(#pf26edf9219)" style="fill: none; stroke: #e377c2; stroke-width: 1.5; stroke-linecap: square"/>
   </g>
   <g id="patch_18">
    <path d="M 693.6275 174.04 
L 693.6275 11.159007 
" style="fill: none; stroke: #000000; stroke-width: 0.8; stroke-linejoin: miter; stroke-linecap: square"/>
   </g>
   <g id="patch_19">
    <path d="M 853.2 174.04 
L 853.2 11.159007 
" style="fill: none; stroke: #000000; stroke-width: 0.8; stroke-linejoin: miter; stroke-linecap: square"/>
   </g>
   <g id="patch_20">
    <path d="M 693.6275 174.04 
L 853.2 174.04 
" style="fill: none; stroke: #000000; stroke-width: 0.8; stroke-linejoin: miter; stroke-linecap: square"/>
   </g>
   <g id="patch_21">
    <path d="M 693.6275 11.159007 
L 853.2 11.159007 
" style="fill: none; stroke: #000000; stroke-width: 0.8; stroke-linejoin: miter; stroke-linecap: square"/>
   </g>
  </g>
 </g>
 <defs>
  <clipPath id="p8e6ddfa954">
   <rect x="46.64" y="11.159007" width="159.5725" height="162.880993"/>
  </clipPath>
  <clipPath id="pe52ca97c90">
   <rect x="262.3025" y="11.159007" width="159.5725" height="162.880993"/>
  </clipPath>
  <clipPath id="pab75141c43">
   <rect x="477.965" y="11.159007" width="159.5725" height="162.880993"/>
  </clipPath>
  <clipPath id="pf26edf9219">
   <rect x="693.6275" y="11.159007" width="159.5725" height="162.880993"/>
  </clipPath>
 </defs>
</svg>
